<svg xmlns="http://www.w3.org/2000/svg" xmlns:xlink="http://www.w3.org/1999/xlink" width="1080" zoomAndPan="magnify" viewBox="0 0 810 809.999993" height="1080" preserveAspectRatio="xMidYMid meet" version="1.0"><path fill="#e7ecf2" d="M 141.03125 381.066406 L 141.03125 406.671875 L 345.457031 618.214844 L 345.457031 810.761719 L 447.898438 730.367188 L 447.898438 618.214844 L 667.523438 406.671875 L 667.523438 381.066406 Z M 141.03125 381.066406 " fill-opacity="1" fill-rule="nonzero"/><path fill="#b9c8d6" d="M 185.078125 452.261719 L 620.195312 452.261719 L 667.523438 406.671875 L 141.03125 406.671875 Z M 185.078125 452.261719 " fill-opacity="1" fill-rule="nonzero"/><path fill="#fed28b" d="M 600.496094 58.507812 L 600.496094 213.367188 L 233.289062 213.367188 L 233.289062 0.761719 L 430.722656 0.761719 L 430.722656 58.507812 Z M 600.496094 58.507812 " fill-opacity="1" fill-rule="nonzero"/><path fill="#e2af66" d="M 233.289062 167.773438 L 600.496094 167.773438 L 600.496094 213.367188 L 233.289062 213.367188 Z M 233.289062 167.773438 " fill-opacity="1" fill-rule="nonzero"/><path fill="#f96d87" d="M 301.230469 0.761719 L 361.417969 0.761719 L 361.417969 60.941406 L 301.230469 60.941406 Z M 301.230469 0.761719 " fill-opacity="1" fill-rule="nonzero"/><path fill="#f96d87" d="M 488.328125 58.507812 L 548.515625 58.507812 L 548.515625 118.6875 L 488.328125 118.6875 Z M 488.328125 58.507812 " fill-opacity="1" fill-rule="nonzero"/><path fill="#fed28b" d="M 175.535156 198.167969 L 633.023438 198.167969 L 633.023438 351.507812 L 175.535156 351.507812 Z M 175.535156 198.167969 " fill-opacity="1" fill-rule="nonzero"/><path fill="#f96d87" d="M 470.542969 198.167969 L 530.734375 198.167969 L 530.734375 273.546875 L 470.542969 273.546875 Z M 470.542969 198.167969 " fill-opacity="1" fill-rule="nonzero"/><path fill="#f96d87" d="M 243.015625 198.167969 L 305.484375 198.167969 L 305.484375 260.78125 L 243.015625 260.78125 Z M 243.015625 198.167969 " fill-opacity="1" fill-rule="nonzero"/><path fill="#5f5f6b" d="M 722.390625 366.703125 L 722.390625 376.277344 C 722.390625 392.996094 708.863281 406.671875 691.992188 406.671875 L 116.5625 406.671875 C 99.691406 406.671875 86.164062 392.996094 86.164062 376.277344 L 86.164062 366.703125 C 86.164062 349.988281 99.691406 336.308594 116.5625 336.308594 L 691.992188 336.308594 C 708.863281 336.308594 722.390625 349.988281 722.390625 366.703125 Z M 722.390625 366.703125 " fill-opacity="1" fill-rule="nonzero"/></svg>