<svg xmlns="http://www.w3.org/2000/svg" xmlns:xlink="http://www.w3.org/1999/xlink" width="1080" zoomAndPan="magnify" viewBox="0 0 810 809.999993" height="1080" preserveAspectRatio="xMidYMid meet" version="1.0"><defs><clipPath id="93110332e6"><path d="M 3.039062 338 L 807 338 L 807 450 L 3.039062 450 Z M 3.039062 338 " clip-rule="nonzero"/></clipPath></defs><path fill="#68283c" d="M 80.035156 338.46875 L 272.558594 25.605469 C 284.589844 6.046875 310.21875 -0.0507812 329.761719 11.980469 C 349.316406 24.027344 355.417969 49.625 343.371094 69.183594 L 177.667969 338.46875 L 169.367188 352.328125 L 86.203125 352.328125 Z M 80.035156 338.46875 " fill-opacity="1" fill-rule="nonzero"/><path fill="#68283c" d="M 729.960938 338.46875 L 537.433594 25.605469 C 525.402344 6.046875 499.777344 -0.0507812 480.230469 11.980469 C 460.675781 24.027344 454.574219 49.625 466.621094 69.183594 L 632.324219 338.46875 L 640.628906 352.328125 L 723.792969 352.328125 C 723.792969 352.328125 729.960938 338.46875 729.960938 338.46875 Z M 729.960938 338.46875 " fill-opacity="1" fill-rule="nonzero"/><path fill="#9f2c4a" d="M 779.234375 449.355469 L 735.890625 731.085938 C 728.933594 776.328125 690 809.730469 644.21875 809.730469 L 165.777344 809.730469 C 119.992188 809.730469 81.074219 776.328125 74.101562 731.085938 L 30.757812 449.355469 L 30.757812 421.632812 L 779.234375 421.632812 Z M 779.234375 449.355469 " fill-opacity="1" fill-rule="nonzero"/><g clip-path="url(#93110332e6)"><path fill="#c03853" d="M 16.898438 338.46875 L 793.09375 338.46875 C 794.003906 338.46875 794.90625 338.558594 795.796875 338.734375 C 796.691406 338.914062 797.558594 339.175781 798.398438 339.523438 C 799.238281 339.871094 800.039062 340.300781 800.796875 340.804688 C 801.550781 341.308594 802.253906 341.886719 802.894531 342.527344 C 803.539062 343.171875 804.113281 343.871094 804.621094 344.628906 C 805.125 345.386719 805.550781 346.183594 805.898438 347.023438 C 806.25 347.867188 806.511719 348.734375 806.6875 349.625 C 806.867188 350.519531 806.957031 351.417969 806.957031 352.328125 L 806.957031 435.492188 C 806.957031 436.402344 806.867188 437.304688 806.6875 438.199219 C 806.511719 439.089844 806.25 439.957031 805.898438 440.796875 C 805.550781 441.636719 805.125 442.4375 804.621094 443.195312 C 804.113281 443.949219 803.539062 444.652344 802.894531 445.292969 C 802.253906 445.9375 801.550781 446.511719 800.796875 447.019531 C 800.039062 447.523438 799.238281 447.949219 798.398438 448.300781 C 797.558594 448.648438 796.691406 448.910156 795.796875 449.085938 C 794.90625 449.265625 794.003906 449.355469 793.09375 449.355469 L 16.898438 449.355469 C 15.988281 449.355469 15.085938 449.265625 14.195312 449.085938 C 13.300781 448.910156 12.433594 448.648438 11.59375 448.300781 C 10.753906 447.949219 9.953125 447.523438 9.199219 447.019531 C 8.441406 446.511719 7.742188 445.9375 7.097656 445.292969 C 6.453125 444.652344 5.878906 443.949219 5.375 443.195312 C 4.867188 442.4375 4.441406 441.636719 4.09375 440.796875 C 3.746094 439.957031 3.480469 439.089844 3.304688 438.199219 C 3.125 437.304688 3.039062 436.402344 3.039062 435.492188 L 3.039062 352.328125 C 3.039062 351.417969 3.125 350.519531 3.304688 349.625 C 3.480469 348.734375 3.746094 347.867188 4.09375 347.023438 C 4.441406 346.183594 4.867188 345.386719 5.375 344.628906 C 5.878906 343.871094 6.453125 343.171875 7.097656 342.527344 C 7.742188 341.886719 8.441406 341.308594 9.199219 340.804688 C 9.953125 340.300781 10.753906 339.871094 11.59375 339.523438 C 12.433594 339.175781 13.300781 338.914062 14.195312 338.734375 C 15.085938 338.558594 15.988281 338.46875 16.898438 338.46875 Z M 16.898438 338.46875 " fill-opacity="1" fill-rule="nonzero"/></g><path fill="#9f2c4a" d="M 404.996094 740.429688 C 397.332031 740.429688 391.136719 734.230469 391.136719 726.566406 L 391.136719 532.519531 C 391.136719 524.851562 397.332031 518.65625 404.996094 518.65625 C 412.660156 518.65625 418.855469 524.851562 418.855469 532.519531 L 418.855469 726.566406 C 418.855469 734.230469 412.660156 740.429688 404.996094 740.429688 Z M 404.996094 740.429688 " fill-opacity="1" fill-rule="nonzero"/><path fill="#9f2c4a" d="M 294.097656 740.429688 C 286.890625 740.429688 280.804688 734.855469 280.292969 727.550781 L 266.429688 533.503906 C 265.878906 525.863281 271.628906 519.238281 279.265625 518.699219 C 287.140625 517.992188 293.527344 523.910156 294.070312 531.535156 L 307.929688 725.582031 C 308.484375 733.21875 302.734375 739.84375 295.09375 740.386719 C 294.761719 740.414062 294.417969 740.429688 294.097656 740.429688 Z M 294.097656 740.429688 " fill-opacity="1" fill-rule="nonzero"/><path fill="#9f2c4a" d="M 183.210938 740.429688 C 176.421875 740.429688 170.488281 735.453125 169.503906 728.535156 L 141.78125 534.484375 C 140.703125 526.90625 145.96875 519.878906 153.550781 518.796875 C 161.089844 517.6875 168.160156 522.980469 169.242188 530.5625 L 196.960938 724.613281 C 198.042969 732.195312 192.777344 739.222656 185.195312 740.304688 C 184.527344 740.398438 183.863281 740.441406 183.210938 740.441406 Z M 183.210938 740.429688 " fill-opacity="1" fill-rule="nonzero"/><path fill="#9f2c4a" d="M 515.894531 740.429688 C 515.578125 740.429688 515.230469 740.429688 514.898438 740.386719 C 507.261719 739.84375 501.507812 733.207031 502.0625 725.582031 L 515.921875 531.535156 C 516.464844 523.910156 522.992188 518.035156 530.726562 518.699219 C 538.363281 519.238281 544.117188 525.878906 543.5625 533.503906 L 529.699219 727.550781 C 529.1875 734.84375 523.089844 740.429688 515.894531 740.429688 Z M 515.894531 740.429688 " fill-opacity="1" fill-rule="nonzero"/><path fill="#9f2c4a" d="M 626.78125 740.429688 C 626.128906 740.429688 625.464844 740.386719 624.796875 740.289062 C 617.21875 739.207031 611.949219 732.179688 613.03125 724.597656 L 640.753906 530.550781 C 641.832031 522.96875 648.902344 517.742188 656.441406 518.78125 C 664.023438 519.863281 669.292969 526.890625 668.210938 534.472656 L 640.488281 728.523438 C 639.503906 735.4375 633.574219 740.414062 626.78125 740.414062 Z M 626.78125 740.429688 " fill-opacity="1" fill-rule="nonzero"/></svg>