<svg xmlns="http://www.w3.org/2000/svg" xmlns:xlink="http://www.w3.org/1999/xlink" width="1700" zoomAndPan="magnify" viewBox="0 0 1275 299.999988" height="400" preserveAspectRatio="xMidYMid meet" version="1.0"><defs><g/><clipPath id="accc980085"><path d="M 48.578125 86 L 326 86 L 326 294 L 48.578125 294 Z M 48.578125 86 " clip-rule="nonzero"/></clipPath><clipPath id="513be8e4cc"><path d="M 233 155 L 348.578125 155 L 348.578125 225 L 233 225 Z M 233 155 " clip-rule="nonzero"/></clipPath></defs><g fill="#ffffff" fill-opacity="1"><g transform="translate(380.683178, 217.001789)"><g><path d="M 74.65625 2.765625 C 67.03125 2.765625 59.789062 1.640625 52.9375 -0.609375 C 46.082031 -2.867188 39.8125 -6.0625 34.125 -10.1875 C 28.445312 -14.3125 23.53125 -19.195312 19.375 -24.84375 C 15.21875 -30.5 11.992188 -36.722656 9.703125 -43.515625 C 7.421875 -50.304688 6.28125 -57.445312 6.28125 -64.9375 C 6.28125 -72.488281 7.421875 -79.644531 9.703125 -86.40625 C 11.992188 -93.164062 15.21875 -99.351562 19.375 -104.96875 C 23.53125 -110.59375 28.445312 -115.46875 34.125 -119.59375 C 39.8125 -123.71875 46.082031 -126.90625 52.9375 -129.15625 C 59.789062 -131.414062 67.03125 -132.546875 74.65625 -132.546875 C 81.507812 -132.546875 88.300781 -131.53125 95.03125 -129.5 C 101.757812 -127.46875 108.039062 -124.367188 113.875 -120.203125 C 119.71875 -116.046875 124.671875 -110.789062 128.734375 -104.4375 C 132.796875 -98.09375 135.585938 -90.609375 137.109375 -81.984375 L 112.921875 -81.984375 C 111.210938 -88.648438 108.46875 -94.109375 104.6875 -98.359375 C 100.914062 -102.609375 96.394531 -105.75 91.125 -107.78125 C 85.851562 -109.8125 80.140625 -110.828125 73.984375 -110.828125 C 67.890625 -110.828125 62.175781 -109.734375 56.84375 -107.546875 C 51.507812 -105.359375 46.828125 -102.234375 42.796875 -98.171875 C 38.765625 -94.109375 35.625 -89.265625 33.375 -83.640625 C 31.125 -78.023438 30 -71.757812 30 -64.84375 C 30 -57.789062 31.125 -51.457031 33.375 -45.84375 C 35.625 -40.226562 38.765625 -35.421875 42.796875 -31.421875 C 46.828125 -27.421875 51.507812 -24.359375 56.84375 -22.234375 C 62.175781 -20.109375 67.890625 -19.046875 73.984375 -19.046875 C 80.140625 -19.046875 85.832031 -20.0625 91.0625 -22.09375 C 96.300781 -24.125 100.828125 -27.265625 104.640625 -31.515625 C 108.453125 -35.765625 111.179688 -41.191406 112.828125 -47.796875 L 137.109375 -47.796875 C 135.585938 -39.160156 132.796875 -31.648438 128.734375 -25.265625 C 124.671875 -18.890625 119.75 -13.640625 113.96875 -9.515625 C 108.195312 -5.390625 101.929688 -2.3125 95.171875 -0.28125 C 88.410156 1.75 81.570312 2.765625 74.65625 2.765625 Z M 74.65625 2.765625 "/></g></g></g><g fill="#ffffff" fill-opacity="1"><g transform="translate(531.191935, 217.001789)"><g><path d="M 68.453125 2.859375 C 60.648438 2.859375 53.398438 1.617188 46.703125 -0.859375 C 40.003906 -3.335938 34.128906 -6.875 29.078125 -11.46875 C 24.035156 -16.070312 20.117188 -21.640625 17.328125 -28.171875 C 14.535156 -34.710938 13.140625 -42.015625 13.140625 -50.078125 L 13.140625 -129.5 L 36.75 -129.5 L 36.75 -51.796875 C 36.75 -45.703125 37.96875 -40.160156 40.40625 -35.171875 C 42.851562 -30.191406 46.441406 -26.226562 51.171875 -23.28125 C 55.898438 -20.332031 61.660156 -18.859375 68.453125 -18.859375 C 75.117188 -18.859375 80.800781 -20.316406 85.5 -23.234375 C 90.195312 -26.148438 93.800781 -30.097656 96.3125 -35.078125 C 98.820312 -40.066406 100.078125 -45.609375 100.078125 -51.703125 L 100.078125 -129.5 L 123.78125 -129.5 L 123.78125 -50.078125 C 123.78125 -42.335938 122.445312 -35.242188 119.78125 -28.796875 C 117.113281 -22.359375 113.335938 -16.773438 108.453125 -12.046875 C 103.566406 -7.316406 97.726562 -3.648438 90.9375 -1.046875 C 84.144531 1.554688 76.648438 2.859375 68.453125 2.859375 Z M 68.453125 2.859375 "/></g></g></g><g fill="#ffffff" fill-opacity="1"><g transform="translate(675.035654, 217.001789)"><g><path d="M 77.3125 0 L 15.421875 0 L 15.421875 -129.5 L 71.890625 -129.5 C 79.753906 -129.5 86.640625 -128.082031 92.546875 -125.25 C 98.453125 -122.425781 103.054688 -118.394531 106.359375 -113.15625 C 109.660156 -107.925781 111.3125 -101.691406 111.3125 -94.453125 C 111.3125 -90.640625 110.5625 -87.003906 109.0625 -83.546875 C 107.570312 -80.085938 105.585938 -77.039062 103.109375 -74.40625 C 100.640625 -71.769531 97.910156 -69.820312 94.921875 -68.5625 C 99.304688 -67.15625 103.289062 -64.945312 106.875 -61.9375 C 110.46875 -58.925781 113.34375 -55.335938 115.5 -51.171875 C 117.65625 -47.015625 118.734375 -42.492188 118.734375 -37.609375 C 118.734375 -31.203125 117.570312 -25.632812 115.25 -20.90625 C 112.9375 -16.175781 109.796875 -12.269531 105.828125 -9.1875 C 101.859375 -6.113281 97.414062 -3.8125 92.5 -2.28125 C 87.582031 -0.757812 82.519531 0 77.3125 0 Z M 39.328125 -109.109375 L 39.328125 -75.40625 L 70.75 -75.40625 C 73.914062 -75.40625 76.753906 -76.148438 79.265625 -77.640625 C 81.773438 -79.140625 83.757812 -81.171875 85.21875 -83.734375 C 86.675781 -86.304688 87.40625 -89.179688 87.40625 -92.359375 C 87.40625 -95.535156 86.675781 -98.390625 85.21875 -100.921875 C 83.757812 -103.460938 81.789062 -105.460938 79.3125 -106.921875 C 76.832031 -108.378906 74.007812 -109.109375 70.84375 -109.109375 Z M 39.328125 -57.609375 L 39.328125 -20.46875 L 75.21875 -20.46875 C 78.90625 -20.46875 82.191406 -21.273438 85.078125 -22.890625 C 87.960938 -24.515625 90.242188 -26.753906 91.921875 -29.609375 C 93.609375 -32.460938 94.453125 -35.734375 94.453125 -39.421875 C 94.453125 -42.785156 93.625 -45.832031 91.96875 -48.5625 C 90.320312 -51.289062 88.054688 -53.476562 85.171875 -55.125 C 82.285156 -56.78125 79.03125 -57.609375 75.40625 -57.609375 Z M 39.328125 -57.609375 "/></g></g></g><g fill="#ffffff" fill-opacity="1"><g transform="translate(806.882313, 217.001789)"><g><path d="M 39.140625 0 L 15.421875 0 L 15.421875 -129.5 L 39.140625 -129.5 Z M 39.140625 0 "/></g></g></g><g fill="#b0e0eb" fill-opacity="1"><g transform="translate(868.370638, 217.001789)"><g><path d="M 39.140625 0 L 15.421875 0 L 15.421875 -129.5 L 69.984375 -129.5 C 76.523438 -129.5 82.539062 -128.414062 88.03125 -126.25 C 93.519531 -124.09375 98.265625 -121.0625 102.265625 -117.15625 C 106.265625 -113.257812 109.375 -108.644531 111.59375 -103.3125 C 113.8125 -97.976562 114.921875 -92.171875 114.921875 -85.890625 C 114.921875 -79.222656 113.828125 -73.160156 111.640625 -67.703125 C 109.453125 -62.242188 106.375 -57.546875 102.40625 -53.609375 C 98.4375 -49.671875 93.722656 -46.640625 88.265625 -44.515625 C 82.804688 -42.390625 76.835938 -41.328125 70.359375 -41.328125 L 39.140625 -41.328125 Z M 39.140625 -108.359375 L 39.140625 -62.46875 L 69.21875 -62.46875 C 73.34375 -62.46875 77.070312 -63.5 80.40625 -65.5625 C 83.738281 -67.625 86.375 -70.414062 88.3125 -73.9375 C 90.25 -77.457031 91.21875 -81.441406 91.21875 -85.890625 C 91.21875 -89.816406 90.234375 -93.492188 88.265625 -96.921875 C 86.296875 -100.359375 83.644531 -103.125 80.3125 -105.21875 C 76.976562 -107.3125 73.21875 -108.359375 69.03125 -108.359375 Z M 39.140625 -108.359375 "/></g></g></g><g fill="#b0e0eb" fill-opacity="1"><g transform="translate(993.266604, 217.001789)"><g><path d="M 52.65625 2.953125 C 46.050781 2.953125 39.941406 1.617188 34.328125 -1.046875 C 28.710938 -3.710938 23.820312 -7.425781 19.65625 -12.1875 C 15.5 -16.945312 12.273438 -22.46875 9.984375 -28.75 C 7.703125 -35.039062 6.5625 -41.769531 6.5625 -48.9375 C 6.5625 -56.113281 7.71875 -62.828125 10.03125 -69.078125 C 12.351562 -75.328125 15.59375 -80.832031 19.75 -85.59375 C 23.914062 -90.351562 28.789062 -94.082031 34.375 -96.78125 C 39.957031 -99.476562 46.019531 -100.828125 52.5625 -100.828125 C 60.5625 -100.828125 67.671875 -99.097656 73.890625 -95.640625 C 80.109375 -92.179688 84.773438 -87.40625 87.890625 -81.3125 L 87.890625 -97.875 L 109.78125 -97.875 L 109.78125 0 L 87.890625 0 L 87.890625 -16.46875 C 84.710938 -10.375 80.03125 -5.613281 73.84375 -2.1875 C 67.65625 1.238281 60.59375 2.953125 52.65625 2.953125 Z M 58.171875 -18.375 C 62.171875 -18.375 65.914062 -19.148438 69.40625 -20.703125 C 72.90625 -22.265625 75.96875 -24.425781 78.59375 -27.1875 C 81.226562 -29.945312 83.273438 -33.179688 84.734375 -36.890625 C 86.203125 -40.609375 86.9375 -44.625 86.9375 -48.9375 C 86.9375 -53.1875 86.1875 -57.164062 84.6875 -60.875 C 83.195312 -64.59375 81.148438 -67.847656 78.546875 -70.640625 C 75.953125 -73.441406 72.90625 -75.617188 69.40625 -77.171875 C 65.914062 -78.722656 62.171875 -79.5 58.171875 -79.5 C 52.910156 -79.5 48.101562 -78.226562 43.75 -75.6875 C 39.40625 -73.15625 35.929688 -69.601562 33.328125 -65.03125 C 30.722656 -60.457031 29.421875 -55.09375 29.421875 -48.9375 C 29.421875 -42.59375 30.738281 -37.132812 33.375 -32.5625 C 36.007812 -27.988281 39.515625 -24.476562 43.890625 -22.03125 C 48.273438 -19.59375 53.035156 -18.375 58.171875 -18.375 Z M 58.171875 -18.375 "/></g></g></g><g fill="#b0e0eb" fill-opacity="1"><g transform="translate(1123.589819, 217.001789)"><g><path d="M 21.140625 33.421875 L 4.671875 33.421875 L 4.671875 14.375 L 20.953125 14.375 C 24.378906 14.375 27.1875 13.816406 29.375 12.703125 C 31.5625 11.597656 33.414062 9.898438 34.9375 7.609375 C 36.46875 5.328125 37.898438 2.378906 39.234375 -1.234375 L 40.375 -4.578125 L 2.859375 -97.875 L 27.140625 -97.875 L 50.171875 -38.65625 L 52.65625 -28.5625 L 55.21875 -38.5625 L 77.890625 -97.78125 L 102.453125 -97.875 L 64.265625 -2.1875 C 61.410156 5.113281 58.554688 11.09375 55.703125 15.75 C 52.847656 20.414062 49.785156 24.035156 46.515625 26.609375 C 43.242188 29.179688 39.5625 30.957031 35.46875 31.9375 C 31.375 32.925781 26.597656 33.421875 21.140625 33.421875 Z M 21.140625 33.421875 "/></g></g></g><path fill="#3faa84" d="M 149.445312 18.4375 L 214.488281 42.109375 C 215.199219 42.367188 215.894531 42.660156 216.578125 42.988281 C 217.257812 43.316406 217.921875 43.675781 218.570312 44.066406 C 219.214844 44.457031 219.839844 44.882812 220.445312 45.335938 C 221.046875 45.789062 221.628906 46.269531 222.1875 46.78125 C 222.742188 47.292969 223.273438 47.828125 223.777344 48.390625 C 224.285156 48.953125 224.757812 49.539062 225.207031 50.148438 C 225.652344 50.757812 226.070312 51.386719 226.453125 52.039062 C 226.839844 52.6875 227.191406 53.355469 227.511719 54.042969 C 227.828125 54.726562 228.113281 55.425781 228.363281 56.136719 C 228.617188 56.851562 228.832031 57.574219 229.011719 58.308594 C 229.191406 59.042969 229.332031 59.785156 229.441406 60.53125 C 229.546875 61.28125 229.617188 62.03125 229.648438 62.785156 C 229.683594 63.539062 229.679688 64.296875 229.636719 65.050781 C 229.597656 65.804688 229.519531 66.554688 229.402344 67.300781 C 229.289062 68.050781 229.136719 68.789062 228.949219 69.519531 C 228.761719 70.253906 228.539062 70.972656 228.28125 71.683594 L 184.878906 190.933594 C 184.617188 191.644531 184.324219 192.339844 184 193.019531 C 183.671875 193.703125 183.3125 194.367188 182.921875 195.011719 C 182.527344 195.660156 182.105469 196.285156 181.652344 196.886719 C 181.199219 197.492188 180.71875 198.074219 180.207031 198.628906 C 179.695312 199.1875 179.160156 199.71875 178.597656 200.222656 C 178.035156 200.726562 177.449219 201.203125 176.839844 201.648438 C 176.230469 202.097656 175.597656 202.511719 174.949219 202.898438 C 174.296875 203.28125 173.632812 203.632812 172.945312 203.953125 C 172.261719 204.273438 171.5625 204.558594 170.851562 204.808594 C 170.136719 205.058594 169.414062 205.273438 168.679688 205.453125 C 167.945312 205.632812 167.203125 205.777344 166.457031 205.882812 C 165.707031 205.992188 164.957031 206.0625 164.203125 206.09375 C 163.445312 206.125 162.691406 206.121094 161.9375 206.082031 C 161.183594 206.039062 160.433594 205.960938 159.683594 205.847656 C 158.9375 205.730469 158.199219 205.582031 157.46875 205.394531 C 156.734375 205.207031 156.015625 204.984375 155.304688 204.722656 L 90.257812 181.050781 C 89.546875 180.792969 88.851562 180.5 88.171875 180.171875 C 87.488281 179.84375 86.824219 179.484375 86.179688 179.09375 C 85.535156 178.703125 84.910156 178.277344 84.304688 177.824219 C 83.699219 177.371094 83.117188 176.890625 82.5625 176.378906 C 82.003906 175.867188 81.472656 175.332031 80.96875 174.769531 C 80.464844 174.207031 79.988281 173.621094 79.542969 173.011719 C 79.09375 172.402344 78.679688 171.773438 78.292969 171.121094 C 77.910156 170.472656 77.558594 169.804688 77.238281 169.117188 C 76.917969 168.433594 76.632812 167.734375 76.382812 167.023438 C 76.132812 166.308594 75.917969 165.585938 75.738281 164.851562 C 75.558594 164.117188 75.414062 163.375 75.308594 162.628906 C 75.199219 161.878906 75.132812 161.128906 75.097656 160.375 C 75.066406 159.621094 75.070312 158.863281 75.109375 158.109375 C 75.152344 157.355469 75.230469 156.605469 75.34375 155.859375 C 75.460938 155.109375 75.609375 154.371094 75.796875 153.640625 C 75.988281 152.90625 76.210938 152.1875 76.46875 151.476562 L 119.871094 32.226562 C 120.128906 31.515625 120.421875 30.820312 120.75 30.140625 C 121.074219 29.457031 121.433594 28.792969 121.828125 28.148438 C 122.21875 27.5 122.640625 26.875 123.097656 26.273438 C 123.550781 25.667969 124.03125 25.085938 124.542969 24.53125 C 125.050781 23.972656 125.589844 23.441406 126.152344 22.9375 C 126.714844 22.433594 127.300781 21.957031 127.910156 21.511719 C 128.519531 21.0625 129.148438 20.648438 129.800781 20.261719 C 130.449219 19.878906 131.117188 19.527344 131.800781 19.207031 C 132.488281 18.886719 133.1875 18.601562 133.898438 18.351562 C 134.613281 18.101562 135.335938 17.886719 136.070312 17.707031 C 136.804688 17.527344 137.542969 17.382812 138.292969 17.277344 C 139.039062 17.167969 139.792969 17.097656 140.546875 17.066406 C 141.300781 17.035156 142.054688 17.039062 142.8125 17.078125 C 143.566406 17.121094 144.316406 17.199219 145.0625 17.3125 C 145.808594 17.429688 146.550781 17.578125 147.28125 17.765625 C 148.011719 17.953125 148.734375 18.175781 149.445312 18.4375 Z M 149.445312 18.4375 " fill-opacity="1" fill-rule="nonzero"/><path fill="#50c295" d="M 207.226562 18.4375 L 272.269531 42.113281 C 272.980469 42.371094 273.675781 42.664062 274.359375 42.988281 C 275.039062 43.316406 275.703125 43.675781 276.347656 44.066406 C 276.996094 44.460938 277.621094 44.882812 278.226562 45.335938 C 278.828125 45.789062 279.410156 46.269531 279.96875 46.78125 C 280.523438 47.292969 281.054688 47.828125 281.558594 48.390625 C 282.0625 48.953125 282.539062 49.539062 282.988281 50.148438 C 283.433594 50.757812 283.847656 51.390625 284.234375 52.039062 C 284.621094 52.691406 284.972656 53.355469 285.289062 54.042969 C 285.609375 54.726562 285.894531 55.425781 286.144531 56.140625 C 286.398438 56.851562 286.613281 57.574219 286.792969 58.308594 C 286.972656 59.042969 287.113281 59.785156 287.222656 60.53125 C 287.328125 61.28125 287.398438 62.03125 287.429688 62.785156 C 287.464844 63.542969 287.460938 64.296875 287.417969 65.050781 C 287.378906 65.804688 287.300781 66.554688 287.183594 67.304688 C 287.070312 68.050781 286.917969 68.789062 286.730469 69.523438 C 286.542969 70.253906 286.320312 70.976562 286.0625 71.683594 L 242.65625 190.933594 C 242.398438 191.644531 242.105469 192.339844 241.78125 193.023438 C 241.453125 193.703125 241.09375 194.367188 240.703125 195.011719 C 240.308594 195.660156 239.886719 196.285156 239.433594 196.890625 C 238.980469 197.492188 238.496094 198.074219 237.988281 198.632812 C 237.476562 199.1875 236.941406 199.71875 236.378906 200.222656 C 235.816406 200.726562 235.230469 201.203125 234.621094 201.652344 C 234.011719 202.097656 233.378906 202.511719 232.730469 202.898438 C 232.078125 203.285156 231.410156 203.636719 230.726562 203.953125 C 230.042969 204.273438 229.34375 204.558594 228.628906 204.808594 C 227.917969 205.0625 227.195312 205.277344 226.460938 205.457031 C 225.726562 205.636719 224.984375 205.777344 224.238281 205.886719 C 223.488281 205.992188 222.738281 206.0625 221.980469 206.09375 C 221.226562 206.128906 220.472656 206.125 219.71875 206.082031 C 218.964844 206.042969 218.210938 205.964844 217.464844 205.847656 C 216.71875 205.734375 215.980469 205.582031 215.246094 205.394531 C 214.515625 205.207031 213.792969 204.984375 213.085938 204.726562 L 148.039062 181.050781 C 147.328125 180.792969 146.632812 180.5 145.953125 180.171875 C 145.269531 179.847656 144.605469 179.488281 143.960938 179.09375 C 143.316406 178.703125 142.6875 178.28125 142.085938 177.824219 C 141.480469 177.371094 140.898438 176.890625 140.34375 176.378906 C 139.785156 175.871094 139.253906 175.332031 138.75 174.769531 C 138.246094 174.207031 137.769531 173.621094 137.324219 173.011719 C 136.875 172.402344 136.460938 171.773438 136.074219 171.121094 C 135.691406 170.472656 135.339844 169.804688 135.019531 169.121094 C 134.699219 168.433594 134.414062 167.734375 134.164062 167.023438 C 133.914062 166.308594 133.699219 165.585938 133.519531 164.851562 C 133.339844 164.117188 133.195312 163.378906 133.089844 162.628906 C 132.980469 161.882812 132.910156 161.128906 132.878906 160.375 C 132.847656 159.621094 132.851562 158.867188 132.890625 158.109375 C 132.933594 157.355469 133.011719 156.605469 133.125 155.859375 C 133.242188 155.113281 133.390625 154.371094 133.578125 153.640625 C 133.765625 152.910156 133.988281 152.1875 134.25 151.476562 L 177.652344 32.226562 C 177.910156 31.515625 178.203125 30.820312 178.53125 30.140625 C 178.855469 29.457031 179.214844 28.792969 179.609375 28.148438 C 180 27.503906 180.421875 26.878906 180.875 26.273438 C 181.328125 25.667969 181.8125 25.085938 182.324219 24.53125 C 182.832031 23.972656 183.371094 23.441406 183.933594 22.9375 C 184.496094 22.433594 185.082031 21.957031 185.691406 21.511719 C 186.300781 21.066406 186.929688 20.648438 187.578125 20.261719 C 188.230469 19.878906 188.898438 19.527344 189.582031 19.207031 C 190.269531 18.886719 190.964844 18.601562 191.679688 18.351562 C 192.390625 18.101562 193.117188 17.886719 193.851562 17.707031 C 194.582031 17.527344 195.324219 17.382812 196.074219 17.277344 C 196.820312 17.171875 197.574219 17.101562 198.328125 17.066406 C 199.082031 17.035156 199.835938 17.039062 200.589844 17.078125 C 201.347656 17.121094 202.097656 17.199219 202.84375 17.3125 C 203.589844 17.429688 204.332031 17.582031 205.0625 17.769531 C 205.792969 17.957031 206.515625 18.179688 207.226562 18.4375 Z M 207.226562 18.4375 " fill-opacity="1" fill-rule="nonzero"/><g clip-path="url(#accc980085)"><path fill="#1a75d0" d="M 71.652344 86.324219 L 302.386719 86.324219 C 303.140625 86.324219 303.894531 86.363281 304.648438 86.4375 C 305.398438 86.511719 306.144531 86.621094 306.886719 86.769531 C 307.628906 86.914062 308.359375 87.097656 309.082031 87.320312 C 309.804688 87.539062 310.515625 87.792969 311.214844 88.082031 C 311.914062 88.371094 312.597656 88.691406 313.261719 89.050781 C 313.929688 89.40625 314.574219 89.792969 315.203125 90.214844 C 315.832031 90.632812 316.4375 91.082031 317.023438 91.5625 C 317.605469 92.042969 318.167969 92.546875 318.699219 93.082031 C 319.234375 93.617188 319.742188 94.175781 320.222656 94.761719 C 320.699219 95.34375 321.152344 95.949219 321.570312 96.578125 C 321.988281 97.207031 322.378906 97.855469 322.734375 98.523438 C 323.089844 99.1875 323.414062 99.871094 323.703125 100.570312 C 323.992188 101.265625 324.246094 101.976562 324.464844 102.699219 C 324.683594 103.421875 324.867188 104.15625 325.015625 104.898438 C 325.164062 105.636719 325.273438 106.382812 325.347656 107.136719 C 325.421875 107.890625 325.457031 108.644531 325.457031 109.398438 L 325.457031 270.910156 C 325.457031 271.667969 325.421875 272.421875 325.347656 273.171875 C 325.273438 273.925781 325.164062 274.671875 325.015625 275.414062 C 324.867188 276.152344 324.683594 276.886719 324.464844 277.609375 C 324.246094 278.332031 323.992188 279.042969 323.703125 279.742188 C 323.414062 280.441406 323.089844 281.121094 322.734375 281.789062 C 322.378906 282.453125 321.988281 283.101562 321.570312 283.730469 C 321.152344 284.359375 320.699219 284.964844 320.222656 285.550781 C 319.742188 286.132812 319.234375 286.691406 318.699219 287.226562 C 318.167969 287.761719 317.605469 288.269531 317.023438 288.746094 C 316.4375 289.226562 315.832031 289.675781 315.203125 290.097656 C 314.574219 290.515625 313.929688 290.902344 313.261719 291.261719 C 312.597656 291.617188 311.914062 291.9375 311.214844 292.226562 C 310.515625 292.519531 309.804688 292.773438 309.082031 292.992188 C 308.359375 293.210938 307.628906 293.394531 306.886719 293.542969 C 306.144531 293.6875 305.398438 293.800781 304.648438 293.875 C 303.894531 293.949219 303.140625 293.984375 302.386719 293.984375 L 71.652344 293.984375 C 70.898438 293.984375 70.144531 293.949219 69.390625 293.875 C 68.640625 293.800781 67.890625 293.6875 67.152344 293.542969 C 66.410156 293.394531 65.675781 293.210938 64.953125 292.992188 C 64.230469 292.773438 63.519531 292.519531 62.824219 292.226562 C 62.125 291.9375 61.441406 291.617188 60.777344 291.261719 C 60.109375 290.902344 59.460938 290.515625 58.832031 290.097656 C 58.207031 289.675781 57.597656 289.226562 57.015625 288.746094 C 56.429688 288.269531 55.871094 287.761719 55.335938 287.226562 C 54.800781 286.691406 54.296875 286.132812 53.816406 285.550781 C 53.335938 284.964844 52.886719 284.359375 52.46875 283.730469 C 52.046875 283.101562 51.660156 282.453125 51.304688 281.789062 C 50.949219 281.121094 50.625 280.441406 50.335938 279.742188 C 50.046875 279.042969 49.792969 278.332031 49.574219 277.609375 C 49.351562 276.886719 49.167969 276.152344 49.023438 275.414062 C 48.875 274.671875 48.765625 273.925781 48.691406 273.171875 C 48.617188 272.421875 48.578125 271.667969 48.578125 270.910156 L 48.578125 109.398438 C 48.578125 108.644531 48.617188 107.890625 48.691406 107.136719 C 48.765625 106.382812 48.875 105.636719 49.023438 104.898438 C 49.167969 104.15625 49.351562 103.421875 49.574219 102.699219 C 49.792969 101.976562 50.046875 101.265625 50.335938 100.570312 C 50.625 99.871094 50.949219 99.1875 51.304688 98.523438 C 51.660156 97.855469 52.046875 97.207031 52.46875 96.578125 C 52.886719 95.949219 53.335938 95.34375 53.816406 94.761719 C 54.296875 94.175781 54.800781 93.617188 55.335938 93.082031 C 55.871094 92.546875 56.429688 92.042969 57.015625 91.5625 C 57.597656 91.082031 58.207031 90.632812 58.832031 90.214844 C 59.460938 89.792969 60.109375 89.40625 60.777344 89.050781 C 61.441406 88.691406 62.125 88.371094 62.824219 88.082031 C 63.519531 87.792969 64.230469 87.539062 64.953125 87.320312 C 65.675781 87.097656 66.410156 86.914062 67.152344 86.769531 C 67.890625 86.621094 68.640625 86.511719 69.390625 86.4375 C 70.144531 86.363281 70.898438 86.324219 71.652344 86.324219 Z M 71.652344 86.324219 " fill-opacity="1" fill-rule="nonzero"/></g><g clip-path="url(#513be8e4cc)"><path fill="#eceef0" d="M 256.238281 155.546875 L 336.996094 155.546875 C 337.753906 155.546875 338.503906 155.617188 339.246094 155.765625 C 339.988281 155.914062 340.710938 156.132812 341.410156 156.421875 C 342.109375 156.714844 342.773438 157.070312 343.40625 157.488281 C 344.035156 157.910156 344.617188 158.386719 345.152344 158.925781 C 345.6875 159.460938 346.167969 160.042969 346.585938 160.671875 C 347.007812 161.300781 347.363281 161.96875 347.652344 162.667969 C 347.945312 163.367188 348.164062 164.089844 348.308594 164.832031 C 348.457031 165.574219 348.53125 166.324219 348.53125 167.082031 L 348.53125 213.226562 C 348.53125 213.984375 348.457031 214.734375 348.308594 215.480469 C 348.164062 216.222656 347.945312 216.941406 347.652344 217.644531 C 347.363281 218.34375 347.007812 219.007812 346.585938 219.636719 C 346.167969 220.265625 345.6875 220.851562 345.152344 221.386719 C 344.617188 221.921875 344.035156 222.398438 343.40625 222.820312 C 342.773438 223.242188 342.109375 223.597656 341.410156 223.886719 C 340.710938 224.175781 339.988281 224.394531 339.246094 224.542969 C 338.503906 224.691406 337.753906 224.765625 336.996094 224.765625 L 256.238281 224.765625 C 255.484375 224.765625 254.730469 224.726562 253.976562 224.652344 C 253.226562 224.578125 252.480469 224.46875 251.738281 224.320312 C 250.996094 224.175781 250.265625 223.992188 249.542969 223.769531 C 248.816406 223.550781 248.105469 223.296875 247.410156 223.007812 C 246.710938 222.71875 246.027344 222.398438 245.363281 222.039062 C 244.695312 221.683594 244.046875 221.296875 243.421875 220.875 C 242.792969 220.457031 242.183594 220.007812 241.601562 219.527344 C 241.015625 219.046875 240.457031 218.542969 239.921875 218.007812 C 239.390625 217.472656 238.882812 216.914062 238.402344 216.328125 C 237.921875 215.746094 237.472656 215.140625 237.054688 214.511719 C 236.632812 213.882812 236.246094 213.234375 235.890625 212.566406 C 235.535156 211.902344 235.210938 211.21875 234.921875 210.519531 C 234.632812 209.824219 234.378906 209.113281 234.160156 208.390625 C 233.941406 207.667969 233.757812 206.933594 233.609375 206.191406 C 233.460938 205.453125 233.351562 204.707031 233.277344 203.953125 C 233.203125 203.199219 233.164062 202.449219 233.164062 201.691406 L 233.164062 178.617188 C 233.164062 177.863281 233.203125 177.109375 233.277344 176.355469 C 233.351562 175.605469 233.460938 174.859375 233.609375 174.117188 C 233.757812 173.375 233.941406 172.644531 234.160156 171.921875 C 234.378906 171.199219 234.632812 170.488281 234.921875 169.789062 C 235.210938 169.089844 235.535156 168.40625 235.890625 167.742188 C 236.246094 167.074219 236.632812 166.429688 237.054688 165.800781 C 237.472656 165.171875 237.921875 164.566406 238.402344 163.980469 C 238.882812 163.398438 239.390625 162.835938 239.921875 162.304688 C 240.457031 161.769531 241.015625 161.261719 241.601562 160.78125 C 242.183594 160.304688 242.792969 159.851562 243.421875 159.433594 C 244.046875 159.015625 244.695312 158.625 245.363281 158.269531 C 246.027344 157.914062 246.710938 157.589844 247.410156 157.300781 C 248.105469 157.011719 248.816406 156.757812 249.542969 156.539062 C 250.265625 156.320312 250.996094 156.136719 251.738281 155.988281 C 252.480469 155.839844 253.226562 155.730469 253.976562 155.65625 C 254.730469 155.582031 255.484375 155.546875 256.238281 155.546875 Z M 256.238281 155.546875 " fill-opacity="1" fill-rule="nonzero"/></g></svg>