<svg xmlns="http://www.w3.org/2000/svg" xmlns:xlink="http://www.w3.org/1999/xlink" width="1700" zoomAndPan="magnify" viewBox="0 0 1275 299.999988" height="400" preserveAspectRatio="xMidYMid meet" version="1.0"><defs><g/><clipPath id="c96fc9e796"><path d="M 48 41 L 347.957031 41 L 347.957031 299 L 48 299 Z M 48 41 " clip-rule="nonzero"/></clipPath><clipPath id="4349e63612"><path d="M 264 0.144531 L 296 0.144531 L 296 227 L 264 227 Z M 264 0.144531 " clip-rule="nonzero"/></clipPath></defs><g fill="#ffffff" fill-opacity="1"><g transform="translate(391.620989, 212.073147)"><g><path d="M 70.828125 2.625 C 63.597656 2.625 56.726562 1.554688 50.21875 -0.578125 C 43.71875 -2.722656 37.769531 -5.75 32.375 -9.65625 C 26.988281 -13.570312 22.320312 -18.207031 18.375 -23.5625 C 14.4375 -28.925781 11.382812 -34.832031 9.21875 -41.28125 C 7.050781 -47.726562 5.96875 -54.503906 5.96875 -61.609375 C 5.96875 -68.773438 7.050781 -75.5625 9.21875 -81.96875 C 11.382812 -88.382812 14.4375 -94.253906 18.375 -99.578125 C 22.320312 -104.910156 26.988281 -109.535156 32.375 -113.453125 C 37.769531 -117.367188 43.71875 -120.394531 50.21875 -122.53125 C 56.726562 -124.675781 63.597656 -125.75 70.828125 -125.75 C 77.328125 -125.75 83.769531 -124.785156 90.15625 -122.859375 C 96.539062 -120.929688 102.5 -117.992188 108.03125 -114.046875 C 113.570312 -110.097656 118.269531 -105.113281 122.125 -99.09375 C 125.976562 -93.070312 128.628906 -85.96875 130.078125 -77.78125 L 107.140625 -77.78125 C 105.503906 -84.101562 102.894531 -89.28125 99.3125 -93.3125 C 95.738281 -97.34375 91.453125 -100.320312 86.453125 -102.25 C 81.453125 -104.175781 76.03125 -105.140625 70.1875 -105.140625 C 64.40625 -105.140625 58.984375 -104.097656 53.921875 -102.015625 C 48.867188 -99.941406 44.429688 -96.976562 40.609375 -93.125 C 36.785156 -89.269531 33.800781 -84.675781 31.65625 -79.34375 C 29.519531 -74.019531 28.453125 -68.078125 28.453125 -61.515625 C 28.453125 -54.828125 29.519531 -48.816406 31.65625 -43.484375 C 33.800781 -38.160156 36.785156 -33.601562 40.609375 -29.8125 C 44.429688 -26.019531 48.867188 -23.113281 53.921875 -21.09375 C 58.984375 -19.070312 64.40625 -18.0625 70.1875 -18.0625 C 76.03125 -18.0625 81.4375 -19.023438 86.40625 -20.953125 C 91.375 -22.878906 95.660156 -25.859375 99.265625 -29.890625 C 102.878906 -33.929688 105.472656 -39.082031 107.046875 -45.34375 L 130.078125 -45.34375 C 128.628906 -37.15625 125.976562 -30.035156 122.125 -23.984375 C 118.269531 -17.929688 113.601562 -12.945312 108.125 -9.03125 C 102.644531 -5.113281 96.695312 -2.191406 90.28125 -0.265625 C 83.875 1.660156 77.390625 2.625 70.828125 2.625 Z M 70.828125 2.625 "/></g></g></g><g fill="#ffffff" fill-opacity="1"><g transform="translate(534.40564, 212.073147)"><g><path d="M 64.953125 2.703125 C 57.546875 2.703125 50.664062 1.53125 44.3125 -0.8125 C 37.957031 -3.164062 32.382812 -6.523438 27.59375 -10.890625 C 22.8125 -15.253906 19.09375 -20.535156 16.4375 -26.734375 C 13.789062 -32.941406 12.46875 -39.867188 12.46875 -47.515625 L 12.46875 -122.859375 L 34.875 -122.859375 L 34.875 -49.140625 C 34.875 -43.359375 36.03125 -38.101562 38.34375 -33.375 C 40.664062 -28.644531 44.066406 -24.878906 48.546875 -22.078125 C 53.035156 -19.285156 58.503906 -17.890625 64.953125 -17.890625 C 71.273438 -17.890625 76.660156 -19.273438 81.109375 -22.046875 C 85.566406 -24.816406 88.984375 -28.5625 91.359375 -33.28125 C 93.742188 -38.007812 94.9375 -43.265625 94.9375 -49.046875 L 94.9375 -122.859375 L 117.4375 -122.859375 L 117.4375 -47.515625 C 117.4375 -40.171875 116.171875 -33.441406 113.640625 -27.328125 C 111.109375 -21.210938 107.523438 -15.910156 102.890625 -11.421875 C 98.253906 -6.941406 92.710938 -3.46875 86.265625 -1 C 79.828125 1.46875 72.722656 2.703125 64.953125 2.703125 Z M 64.953125 2.703125 "/></g></g></g><g fill="#ffffff" fill-opacity="1"><g transform="translate(670.867311, 212.073147)"><g><path d="M 73.34375 0 L 14.640625 0 L 14.640625 -122.859375 L 68.203125 -122.859375 C 75.671875 -122.859375 82.203125 -121.515625 87.796875 -118.828125 C 93.398438 -116.148438 97.765625 -112.328125 100.890625 -107.359375 C 104.023438 -102.390625 105.59375 -96.472656 105.59375 -89.609375 C 105.59375 -85.992188 104.882812 -82.546875 103.46875 -79.265625 C 102.0625 -75.984375 100.179688 -73.09375 97.828125 -70.59375 C 95.484375 -68.09375 92.894531 -66.242188 90.0625 -65.046875 C 94.21875 -63.710938 97.992188 -61.613281 101.390625 -58.75 C 104.796875 -55.894531 107.519531 -52.492188 109.5625 -48.546875 C 111.613281 -44.609375 112.640625 -40.320312 112.640625 -35.6875 C 112.640625 -29.601562 111.539062 -24.316406 109.34375 -19.828125 C 107.144531 -15.335938 104.164062 -11.632812 100.40625 -8.71875 C 96.644531 -5.800781 92.425781 -3.617188 87.75 -2.171875 C 83.082031 -0.722656 78.28125 0 73.34375 0 Z M 37.3125 -103.515625 L 37.3125 -71.546875 L 67.109375 -71.546875 C 70.128906 -71.546875 72.828125 -72.25 75.203125 -73.65625 C 77.578125 -75.070312 79.457031 -77 80.84375 -79.4375 C 82.226562 -81.882812 82.921875 -84.613281 82.921875 -87.625 C 82.921875 -90.632812 82.226562 -93.34375 80.84375 -95.75 C 79.457031 -98.15625 77.585938 -100.050781 75.234375 -101.4375 C 72.890625 -102.820312 70.210938 -103.515625 67.203125 -103.515625 Z M 37.3125 -54.65625 L 37.3125 -19.421875 L 71.359375 -19.421875 C 74.859375 -19.421875 77.976562 -20.1875 80.71875 -21.71875 C 83.457031 -23.257812 85.625 -25.382812 87.21875 -28.09375 C 88.8125 -30.800781 89.609375 -33.898438 89.609375 -37.390625 C 89.609375 -40.585938 88.820312 -43.476562 87.25 -46.0625 C 85.6875 -48.65625 83.535156 -50.734375 80.796875 -52.296875 C 78.054688 -53.867188 74.972656 -54.65625 71.546875 -54.65625 Z M 37.3125 -54.65625 "/></g></g></g><g fill="#ffffff" fill-opacity="1"><g transform="translate(795.947631, 212.073147)"><g><path d="M 37.125 0 L 14.640625 0 L 14.640625 -122.859375 L 37.125 -122.859375 Z M 37.125 0 "/></g></g></g><g fill="#ff764d" fill-opacity="1"><g transform="translate(854.277201, 212.073147)"><g><path d="M 37.125 0 L 14.640625 0 L 14.640625 -122.859375 L 66.390625 -122.859375 C 72.597656 -122.859375 78.304688 -121.832031 83.515625 -119.78125 C 88.722656 -117.726562 93.222656 -114.847656 97.015625 -111.140625 C 100.804688 -107.441406 103.753906 -103.0625 105.859375 -98 C 107.972656 -92.945312 109.03125 -87.441406 109.03125 -81.484375 C 109.03125 -75.160156 107.988281 -69.40625 105.90625 -64.21875 C 103.832031 -59.039062 100.910156 -54.582031 97.140625 -50.84375 C 93.378906 -47.113281 88.910156 -44.238281 83.734375 -42.21875 C 78.554688 -40.207031 72.894531 -39.203125 66.75 -39.203125 L 37.125 -39.203125 Z M 37.125 -102.796875 L 37.125 -59.265625 L 65.671875 -59.265625 C 69.585938 -59.265625 73.125 -60.238281 76.28125 -62.1875 C 79.445312 -64.144531 81.945312 -66.796875 83.78125 -70.140625 C 85.613281 -73.484375 86.53125 -77.265625 86.53125 -81.484375 C 86.53125 -85.210938 85.597656 -88.703125 83.734375 -91.953125 C 81.867188 -95.210938 79.351562 -97.832031 76.1875 -99.8125 C 73.03125 -101.800781 69.460938 -102.796875 65.484375 -102.796875 Z M 37.125 -102.796875 "/></g></g></g><g fill="#ff764d" fill-opacity="1"><g transform="translate(972.763562, 212.073147)"><g><path d="M 34.6875 0 L 12.828125 0 L 12.828125 -127.28125 L 34.6875 -127.28125 Z M 34.6875 0 "/></g></g></g><g fill="#ff764d" fill-opacity="1"><g transform="translate(1026.845909, 212.073147)"><g><path d="M 54.5625 2.796875 C 48.351562 2.796875 42.597656 1.9375 37.296875 0.21875 C 32.003906 -1.488281 27.367188 -4.179688 23.390625 -7.859375 C 19.421875 -11.535156 16.335938 -16.289062 14.140625 -22.125 C 11.941406 -27.96875 10.84375 -35.015625 10.84375 -43.265625 L 10.84375 -92.859375 L 32.515625 -92.859375 L 32.515625 -43.90625 C 32.515625 -35.351562 34.351562 -28.816406 38.03125 -24.296875 C 41.707031 -19.785156 47.1875 -17.53125 54.46875 -17.53125 C 61.8125 -17.53125 67.289062 -19.800781 70.90625 -24.34375 C 74.519531 -28.894531 76.328125 -35.414062 76.328125 -43.90625 L 76.328125 -92.859375 L 98.09375 -92.859375 L 98.09375 -43.265625 C 98.09375 -35.015625 96.992188 -27.96875 94.796875 -22.125 C 92.597656 -16.289062 89.507812 -11.535156 85.53125 -7.859375 C 81.5625 -4.179688 76.941406 -1.488281 71.671875 0.21875 C 66.410156 1.9375 60.707031 2.796875 54.5625 2.796875 Z M 54.5625 2.796875 "/></g></g></g><g fill="#ff764d" fill-opacity="1"><g transform="translate(1142.441767, 212.073147)"><g><path d="M 46.25 2.796875 C 39.445312 2.796875 33.53125 1.890625 28.5 0.078125 C 23.46875 -1.722656 19.3125 -4.15625 16.03125 -7.21875 C 12.75 -10.289062 10.3125 -13.753906 8.71875 -17.609375 C 7.125 -21.460938 6.328125 -25.4375 6.328125 -29.53125 L 27.28125 -29.453125 C 27.457031 -25.234375 29.140625 -21.691406 32.328125 -18.828125 C 35.523438 -15.972656 40.226562 -14.546875 46.4375 -14.546875 C 52.09375 -14.546875 56.257812 -15.628906 58.9375 -17.796875 C 61.625 -19.960938 62.96875 -22.789062 62.96875 -26.28125 C 62.96875 -28.9375 62.210938 -31.015625 60.703125 -32.515625 C 59.191406 -34.023438 56.976562 -35.210938 54.0625 -36.078125 C 51.144531 -36.953125 47.578125 -37.691406 43.359375 -38.296875 C 38.898438 -38.898438 34.664062 -39.832031 30.65625 -41.09375 C 26.65625 -42.363281 23.117188 -44.113281 20.046875 -46.34375 C 16.984375 -48.570312 14.5625 -51.367188 12.78125 -54.734375 C 11.007812 -58.109375 10.125 -62.207031 10.125 -67.03125 C 10.125 -72.75 11.460938 -77.742188 14.140625 -82.015625 C 16.816406 -86.296875 20.757812 -89.640625 25.96875 -92.046875 C 31.175781 -94.453125 37.546875 -95.65625 45.078125 -95.65625 C 52.546875 -95.65625 59.09375 -94.40625 64.71875 -91.90625 C 70.351562 -89.414062 74.734375 -85.925781 77.859375 -81.4375 C 80.992188 -76.945312 82.5625 -71.753906 82.5625 -65.859375 L 61.15625 -66.03125 C 60.914062 -69.46875 59.453125 -72.285156 56.765625 -74.484375 C 54.085938 -76.679688 50.222656 -77.78125 45.171875 -77.78125 C 40.472656 -77.78125 37.035156 -76.769531 34.859375 -74.75 C 32.691406 -72.726562 31.609375 -70.304688 31.609375 -67.484375 C 31.609375 -65.191406 32.117188 -63.335938 33.140625 -61.921875 C 34.171875 -60.503906 36.085938 -59.328125 38.890625 -58.390625 C 41.691406 -57.460938 45.738281 -56.578125 51.03125 -55.734375 C 55.851562 -55.015625 60.34375 -54.050781 64.5 -52.84375 C 68.65625 -51.632812 72.28125 -49.992188 75.375 -47.921875 C 78.476562 -45.847656 80.90625 -43.164062 82.65625 -39.875 C 84.40625 -36.59375 85.28125 -32.484375 85.28125 -27.546875 C 85.28125 -20.742188 83.578125 -15.097656 80.171875 -10.609375 C 76.765625 -6.128906 72.125 -2.773438 66.25 -0.546875 C 60.382812 1.679688 53.71875 2.796875 46.25 2.796875 Z M 46.25 2.796875 "/></g></g></g><g clip-path="url(#c96fc9e796)"><path fill="#a5ebde" d="M 321.378906 41.300781 C 335.585938 41.300781 347.101562 52.816406 347.101562 67.023438 L 347.101562 231.625 C 347.101562 245.832031 335.585938 257.367188 321.378906 257.367188 L 244.675781 257.367188 L 209.066406 293.777344 C 202.898438 300.109375 192.929688 300.109375 186.761719 293.777344 L 151.152344 257.367188 L 74.449219 257.367188 C 60.242188 257.367188 48.726562 245.832031 48.726562 231.625 L 48.726562 67.023438 C 48.726562 52.816406 60.242188 41.300781 74.449219 41.300781 L 321.378906 41.300781 " fill-opacity="1" fill-rule="nonzero"/></g><path fill="#ffc4b3" d="M 156.761719 180.199219 L 177.335938 180.199219 C 183.023438 180.199219 187.625 175.597656 187.625 169.910156 L 187.625 149.332031 L 156.761719 149.332031 L 156.761719 180.199219 " fill-opacity="1" fill-rule="nonzero"/><path fill="#bf360c" d="M 161.902344 149.332031 L 161.902344 211.066406 C 161.902344 216.753906 157.300781 221.355469 151.617188 221.355469 L 140.5625 221.355469 C 135.175781 221.355469 130.714844 217.214844 130.3125 211.851562 L 125.894531 154.476562 L 161.902344 149.332031 " fill-opacity="1" fill-rule="nonzero"/><path fill="#f4511e" d="M 120.75 154.476562 L 203.058594 154.476562 L 203.058594 72.167969 L 120.75 72.167969 C 109.375 72.167969 100.171875 81.371094 100.171875 92.746094 L 100.171875 133.898438 C 100.171875 145.273438 109.375 154.476562 120.75 154.476562 " fill-opacity="1" fill-rule="nonzero"/><path fill="#ffc4b3" d="M 269.9375 15.578125 L 269.9375 211.066406 L 264.792969 211.066406 L 197.914062 154.476562 L 197.914062 72.167969 L 264.792969 15.578125 L 269.9375 15.578125 " fill-opacity="1" fill-rule="nonzero"/><g clip-path="url(#4349e63612)"><path fill="#f4511e" d="M 280.226562 226.5 C 271.703125 226.5 264.792969 219.585938 264.792969 211.066406 L 264.792969 15.578125 C 264.792969 7.058594 271.703125 0.144531 280.226562 0.144531 C 288.746094 0.144531 295.660156 7.058594 295.660156 15.578125 L 295.660156 211.066406 C 295.660156 219.585938 288.746094 226.5 280.226562 226.5 " fill-opacity="1" fill-rule="nonzero"/></g></svg>