<svg xmlns="http://www.w3.org/2000/svg" xmlns:xlink="http://www.w3.org/1999/xlink" width="1700" zoomAndPan="magnify" viewBox="0 0 1275 299.999988" height="400" preserveAspectRatio="xMidYMid meet" version="1.0"><defs><g/><clipPath id="fc6b9c393b"><path d="M 13.203125 113 L 313.203125 113 L 313.203125 300 L 13.203125 300 Z M 13.203125 113 " clip-rule="nonzero"/></clipPath><clipPath id="1372666f28"><path d="M 13.203125 144 L 313.203125 144 L 313.203125 186 L 13.203125 186 Z M 13.203125 144 " clip-rule="nonzero"/></clipPath></defs><g fill="#ffffff" fill-opacity="1"><g transform="translate(345.309079, 217.001769)"><g><path d="M 74.65625 2.765625 C 67.03125 2.765625 59.789062 1.640625 52.9375 -0.609375 C 46.082031 -2.867188 39.8125 -6.0625 34.125 -10.1875 C 28.445312 -14.3125 23.53125 -19.195312 19.375 -24.84375 C 15.21875 -30.5 11.992188 -36.722656 9.703125 -43.515625 C 7.421875 -50.304688 6.28125 -57.445312 6.28125 -64.9375 C 6.28125 -72.488281 7.421875 -79.644531 9.703125 -86.40625 C 11.992188 -93.164062 15.21875 -99.351562 19.375 -104.96875 C 23.53125 -110.59375 28.445312 -115.46875 34.125 -119.59375 C 39.8125 -123.71875 46.082031 -126.90625 52.9375 -129.15625 C 59.789062 -131.414062 67.03125 -132.546875 74.65625 -132.546875 C 81.507812 -132.546875 88.300781 -131.53125 95.03125 -129.5 C 101.757812 -127.46875 108.039062 -124.367188 113.875 -120.203125 C 119.71875 -116.046875 124.671875 -110.789062 128.734375 -104.4375 C 132.796875 -98.09375 135.585938 -90.609375 137.109375 -81.984375 L 112.921875 -81.984375 C 111.210938 -88.648438 108.46875 -94.109375 104.6875 -98.359375 C 100.914062 -102.609375 96.394531 -105.75 91.125 -107.78125 C 85.851562 -109.8125 80.140625 -110.828125 73.984375 -110.828125 C 67.890625 -110.828125 62.175781 -109.734375 56.84375 -107.546875 C 51.507812 -105.359375 46.828125 -102.234375 42.796875 -98.171875 C 38.765625 -94.109375 35.625 -89.265625 33.375 -83.640625 C 31.125 -78.023438 30 -71.757812 30 -64.84375 C 30 -57.789062 31.125 -51.457031 33.375 -45.84375 C 35.625 -40.226562 38.765625 -35.421875 42.796875 -31.421875 C 46.828125 -27.421875 51.507812 -24.359375 56.84375 -22.234375 C 62.175781 -20.109375 67.890625 -19.046875 73.984375 -19.046875 C 80.140625 -19.046875 85.832031 -20.0625 91.0625 -22.09375 C 96.300781 -24.125 100.828125 -27.265625 104.640625 -31.515625 C 108.453125 -35.765625 111.179688 -41.191406 112.828125 -47.796875 L 137.109375 -47.796875 C 135.585938 -39.160156 132.796875 -31.648438 128.734375 -25.265625 C 124.671875 -18.890625 119.75 -13.640625 113.96875 -9.515625 C 108.195312 -5.390625 101.929688 -2.3125 95.171875 -0.28125 C 88.410156 1.75 81.570312 2.765625 74.65625 2.765625 Z M 74.65625 2.765625 "/></g></g></g><g fill="#ffffff" fill-opacity="1"><g transform="translate(495.817837, 217.001769)"><g><path d="M 68.453125 2.859375 C 60.648438 2.859375 53.398438 1.617188 46.703125 -0.859375 C 40.003906 -3.335938 34.128906 -6.875 29.078125 -11.46875 C 24.035156 -16.070312 20.117188 -21.640625 17.328125 -28.171875 C 14.535156 -34.710938 13.140625 -42.015625 13.140625 -50.078125 L 13.140625 -129.5 L 36.75 -129.5 L 36.75 -51.796875 C 36.75 -45.703125 37.96875 -40.160156 40.40625 -35.171875 C 42.851562 -30.191406 46.441406 -26.226562 51.171875 -23.28125 C 55.898438 -20.332031 61.660156 -18.859375 68.453125 -18.859375 C 75.117188 -18.859375 80.800781 -20.316406 85.5 -23.234375 C 90.195312 -26.148438 93.800781 -30.097656 96.3125 -35.078125 C 98.820312 -40.066406 100.078125 -45.609375 100.078125 -51.703125 L 100.078125 -129.5 L 123.78125 -129.5 L 123.78125 -50.078125 C 123.78125 -42.335938 122.445312 -35.242188 119.78125 -28.796875 C 117.113281 -22.359375 113.335938 -16.773438 108.453125 -12.046875 C 103.566406 -7.316406 97.726562 -3.648438 90.9375 -1.046875 C 84.144531 1.554688 76.648438 2.859375 68.453125 2.859375 Z M 68.453125 2.859375 "/></g></g></g><g fill="#ffffff" fill-opacity="1"><g transform="translate(639.661555, 217.001769)"><g><path d="M 77.3125 0 L 15.421875 0 L 15.421875 -129.5 L 71.890625 -129.5 C 79.753906 -129.5 86.640625 -128.082031 92.546875 -125.25 C 98.453125 -122.425781 103.054688 -118.394531 106.359375 -113.15625 C 109.660156 -107.925781 111.3125 -101.691406 111.3125 -94.453125 C 111.3125 -90.640625 110.5625 -87.003906 109.0625 -83.546875 C 107.570312 -80.085938 105.585938 -77.039062 103.109375 -74.40625 C 100.640625 -71.769531 97.910156 -69.820312 94.921875 -68.5625 C 99.304688 -67.15625 103.289062 -64.945312 106.875 -61.9375 C 110.46875 -58.925781 113.34375 -55.335938 115.5 -51.171875 C 117.65625 -47.015625 118.734375 -42.492188 118.734375 -37.609375 C 118.734375 -31.203125 117.570312 -25.632812 115.25 -20.90625 C 112.9375 -16.175781 109.796875 -12.269531 105.828125 -9.1875 C 101.859375 -6.113281 97.414062 -3.8125 92.5 -2.28125 C 87.582031 -0.757812 82.519531 0 77.3125 0 Z M 39.328125 -109.109375 L 39.328125 -75.40625 L 70.75 -75.40625 C 73.914062 -75.40625 76.753906 -76.148438 79.265625 -77.640625 C 81.773438 -79.140625 83.757812 -81.171875 85.21875 -83.734375 C 86.675781 -86.304688 87.40625 -89.179688 87.40625 -92.359375 C 87.40625 -95.535156 86.675781 -98.390625 85.21875 -100.921875 C 83.757812 -103.460938 81.789062 -105.460938 79.3125 -106.921875 C 76.832031 -108.378906 74.007812 -109.109375 70.84375 -109.109375 Z M 39.328125 -57.609375 L 39.328125 -20.46875 L 75.21875 -20.46875 C 78.90625 -20.46875 82.191406 -21.273438 85.078125 -22.890625 C 87.960938 -24.515625 90.242188 -26.753906 91.921875 -29.609375 C 93.609375 -32.460938 94.453125 -35.734375 94.453125 -39.421875 C 94.453125 -42.785156 93.625 -45.832031 91.96875 -48.5625 C 90.320312 -51.289062 88.054688 -53.476562 85.171875 -55.125 C 82.285156 -56.78125 79.03125 -57.609375 75.40625 -57.609375 Z M 39.328125 -57.609375 "/></g></g></g><g fill="#ffffff" fill-opacity="1"><g transform="translate(771.508214, 217.001769)"><g><path d="M 39.140625 0 L 15.421875 0 L 15.421875 -129.5 L 39.140625 -129.5 Z M 39.140625 0 "/></g></g></g><g fill="#fdd07e" fill-opacity="1"><g transform="translate(832.996539, 217.001769)"><g><path d="M 39.140625 0 L 15.421875 0 L 15.421875 -129.5 L 69.984375 -129.5 C 76.523438 -129.5 82.539062 -128.414062 88.03125 -126.25 C 93.519531 -124.09375 98.265625 -121.0625 102.265625 -117.15625 C 106.265625 -113.257812 109.375 -108.644531 111.59375 -103.3125 C 113.8125 -97.976562 114.921875 -92.171875 114.921875 -85.890625 C 114.921875 -79.222656 113.828125 -73.160156 111.640625 -67.703125 C 109.453125 -62.242188 106.375 -57.546875 102.40625 -53.609375 C 98.4375 -49.671875 93.722656 -46.640625 88.265625 -44.515625 C 82.804688 -42.390625 76.835938 -41.328125 70.359375 -41.328125 L 39.140625 -41.328125 Z M 39.140625 -108.359375 L 39.140625 -62.46875 L 69.21875 -62.46875 C 73.34375 -62.46875 77.070312 -63.5 80.40625 -65.5625 C 83.738281 -67.625 86.375 -70.414062 88.3125 -73.9375 C 90.25 -77.457031 91.21875 -81.441406 91.21875 -85.890625 C 91.21875 -89.816406 90.234375 -93.492188 88.265625 -96.921875 C 86.296875 -100.359375 83.644531 -103.125 80.3125 -105.21875 C 76.976562 -107.3125 73.21875 -108.359375 69.03125 -108.359375 Z M 39.140625 -108.359375 "/></g></g></g><g fill="#fdd07e" fill-opacity="1"><g transform="translate(957.892506, 217.001769)"><g><path d="M 106.640625 -50.65625 C 106.640625 -49.445312 106.609375 -48.300781 106.546875 -47.21875 C 106.484375 -46.144531 106.359375 -44.6875 106.171875 -42.84375 L 29.703125 -42.84375 C 30.523438 -37.507812 32.222656 -32.96875 34.796875 -29.21875 C 37.367188 -25.476562 40.554688 -22.609375 44.359375 -20.609375 C 48.171875 -18.609375 52.332031 -17.609375 56.84375 -17.609375 C 62.6875 -17.609375 67.414062 -18.765625 71.03125 -21.078125 C 74.644531 -23.398438 77.28125 -26.625 78.9375 -30.75 L 104.0625 -30.75 C 102.863281 -26.375 100.882812 -22.15625 98.125 -18.09375 C 95.363281 -14.03125 91.984375 -10.425781 87.984375 -7.28125 C 83.984375 -4.144531 79.394531 -1.65625 74.21875 0.1875 C 69.039062 2.03125 63.40625 2.953125 57.3125 2.953125 C 49.957031 2.953125 43.179688 1.601562 36.984375 -1.09375 C 30.796875 -3.789062 25.429688 -7.519531 20.890625 -12.28125 C 16.359375 -17.039062 12.835938 -22.5625 10.328125 -28.84375 C 7.816406 -35.132812 6.5625 -41.832031 6.5625 -48.9375 C 6.5625 -56.113281 7.816406 -62.828125 10.328125 -69.078125 C 12.835938 -75.328125 16.359375 -80.832031 20.890625 -85.59375 C 25.429688 -90.351562 30.796875 -94.082031 36.984375 -96.78125 C 43.179688 -99.476562 49.957031 -100.828125 57.3125 -100.828125 C 64.675781 -100.828125 71.390625 -99.492188 77.453125 -96.828125 C 83.515625 -94.160156 88.71875 -90.492188 93.0625 -85.828125 C 97.414062 -81.171875 100.765625 -75.828125 103.109375 -69.796875 C 105.460938 -63.765625 106.640625 -57.382812 106.640625 -50.65625 Z M 30.65625 -60.65625 L 83.125 -60.65625 C 82.800781 -64.332031 81.429688 -67.675781 79.015625 -70.6875 C 76.609375 -73.707031 73.5 -76.140625 69.6875 -77.984375 C 65.882812 -79.828125 61.726562 -80.75 57.21875 -80.75 C 53.351562 -80.75 49.640625 -80.03125 46.078125 -78.59375 C 42.523438 -77.164062 39.398438 -74.976562 36.703125 -72.03125 C 34.003906 -69.082031 31.988281 -65.289062 30.65625 -60.65625 Z M 30.65625 -60.65625 "/></g></g></g><g fill="#fdd07e" fill-opacity="1"><g transform="translate(1076.789937, 217.001769)"><g><path d="M 36.5625 0 L 13.515625 0 L 13.515625 -97.875 L 35.609375 -97.875 L 35.609375 -80.171875 C 37.890625 -85.566406 41.253906 -89.863281 45.703125 -93.0625 C 50.148438 -96.269531 55.546875 -97.875 61.890625 -97.875 L 72.359375 -97.875 L 72.359375 -78.078125 L 63.125 -78.078125 C 57.851562 -78.078125 53.21875 -76.804688 49.21875 -74.265625 C 45.226562 -71.722656 42.117188 -68.039062 39.890625 -63.21875 C 37.671875 -58.394531 36.5625 -52.492188 36.5625 -45.515625 Z M 36.5625 0 "/></g></g></g><g fill="#fdd07e" fill-opacity="1"><g transform="translate(1159.124884, 217.001769)"><g><path d="M 103.3125 0 L 77.40625 0 L 51.984375 -44.078125 L 36.5625 -27.234375 L 36.5625 0 L 13.515625 0 L 13.515625 -134.0625 L 36.5625 -134.0625 L 36.5625 -51.984375 L 71.03125 -97.875 L 99.125 -97.875 L 68.75 -59.125 Z M 103.3125 0 "/></g></g></g><g clip-path="url(#fc6b9c393b)"><path fill="#4678de" d="M 28.722656 113.222656 L 297.6875 113.222656 C 298.707031 113.222656 299.714844 113.324219 300.714844 113.523438 C 301.714844 113.71875 302.683594 114.015625 303.625 114.40625 C 304.566406 114.792969 305.460938 115.273438 306.308594 115.839844 C 307.15625 116.40625 307.941406 117.046875 308.660156 117.769531 C 309.378906 118.488281 310.023438 119.273438 310.589844 120.121094 C 311.15625 120.96875 311.632812 121.859375 312.023438 122.800781 C 312.414062 123.742188 312.707031 124.714844 312.90625 125.714844 C 313.105469 126.710938 313.203125 127.722656 313.203125 128.742188 L 313.203125 283.914062 C 313.203125 284.933594 313.105469 285.941406 312.90625 286.941406 C 312.707031 287.941406 312.414062 288.910156 312.023438 289.851562 C 311.632812 290.792969 311.15625 291.6875 310.589844 292.535156 C 310.023438 293.382812 309.378906 294.164062 308.660156 294.886719 C 307.941406 295.605469 307.15625 296.25 306.308594 296.816406 C 305.460938 297.382812 304.566406 297.859375 303.625 298.25 C 302.683594 298.640625 301.714844 298.933594 300.714844 299.132812 C 299.714844 299.332031 298.707031 299.429688 297.6875 299.429688 L 28.722656 299.429688 C 27.703125 299.429688 26.695312 299.332031 25.695312 299.132812 C 24.695312 298.933594 23.726562 298.640625 22.785156 298.25 C 21.84375 297.859375 20.949219 297.382812 20.101562 296.816406 C 19.253906 296.25 18.46875 295.605469 17.75 294.886719 C 17.03125 294.164062 16.386719 293.382812 15.820312 292.535156 C 15.253906 291.6875 14.777344 290.792969 14.386719 289.851562 C 13.996094 288.910156 13.703125 287.941406 13.503906 286.941406 C 13.304688 285.941406 13.203125 284.933594 13.203125 283.914062 L 13.203125 128.742188 C 13.203125 127.722656 13.304688 126.710938 13.503906 125.714844 C 13.703125 124.714844 13.996094 123.742188 14.386719 122.800781 C 14.777344 121.859375 15.253906 120.96875 15.820312 120.121094 C 16.386719 119.273438 17.03125 118.488281 17.75 117.769531 C 18.46875 117.046875 19.253906 116.40625 20.101562 115.839844 C 20.949219 115.273438 21.84375 114.792969 22.785156 114.40625 C 23.726562 114.015625 24.695312 113.71875 25.695312 113.523438 C 26.695312 113.324219 27.703125 113.222656 28.722656 113.222656 Z M 28.722656 113.222656 " fill-opacity="1" fill-rule="nonzero"/></g><g clip-path="url(#1372666f28)"><path fill="#25373d" d="M 13.203125 144.257812 L 313.203125 144.257812 L 313.203125 185.636719 L 13.203125 185.636719 Z M 13.203125 144.257812 " fill-opacity="1" fill-rule="nonzero"/></g><path fill="#fbc512" d="M 85.617188 227.015625 L 85.617188 237.359375 C 85.617188 238.039062 85.550781 238.714844 85.421875 239.378906 C 85.289062 240.046875 85.089844 240.691406 84.832031 241.320312 C 84.570312 241.949219 84.253906 242.542969 83.875 243.109375 C 83.496094 243.671875 83.070312 244.195312 82.589844 244.675781 C 82.109375 245.15625 81.585938 245.585938 81.019531 245.960938 C 80.457031 246.339844 79.859375 246.660156 79.234375 246.917969 C 78.605469 247.179688 77.957031 247.375 77.292969 247.507812 C 76.625 247.640625 75.953125 247.707031 75.273438 247.707031 L 49.410156 247.707031 C 48.734375 247.707031 48.058594 247.640625 47.394531 247.507812 C 46.726562 247.375 46.082031 247.179688 45.453125 246.917969 C 44.824219 246.660156 44.230469 246.339844 43.664062 245.960938 C 43.101562 245.585938 42.578125 245.15625 42.097656 244.675781 C 41.617188 244.195312 41.1875 243.671875 40.808594 243.109375 C 40.433594 242.542969 40.113281 241.949219 39.855469 241.320312 C 39.59375 240.691406 39.398438 240.046875 39.265625 239.378906 C 39.132812 238.714844 39.066406 238.039062 39.066406 237.359375 L 39.066406 227.015625 C 39.066406 226.335938 39.132812 225.664062 39.265625 225 C 39.398438 224.332031 39.59375 223.683594 39.855469 223.058594 C 40.113281 222.429688 40.433594 221.832031 40.808594 221.269531 C 41.1875 220.703125 41.617188 220.183594 42.097656 219.703125 C 42.578125 219.222656 43.101562 218.792969 43.664062 218.414062 C 44.230469 218.039062 44.824219 217.71875 45.453125 217.460938 C 46.082031 217.199219 46.726562 217.003906 47.394531 216.871094 C 48.058594 216.738281 48.734375 216.671875 49.410156 216.671875 L 75.273438 216.671875 C 75.953125 216.671875 76.625 216.738281 77.292969 216.871094 C 77.957031 217.003906 78.605469 217.199219 79.234375 217.460938 C 79.859375 217.71875 80.457031 218.039062 81.019531 218.414062 C 81.585938 218.792969 82.109375 219.222656 82.589844 219.703125 C 83.070312 220.183594 83.496094 220.703125 83.875 221.269531 C 84.253906 221.832031 84.570312 222.429688 84.832031 223.058594 C 85.089844 223.683594 85.289062 224.332031 85.421875 225 C 85.550781 225.664062 85.617188 226.335938 85.617188 227.015625 Z M 85.617188 227.015625 " fill-opacity="1" fill-rule="nonzero"/><path fill="#335caf" d="M 220.101562 227.015625 L 116.652344 227.015625 C 113.792969 227.015625 111.480469 224.703125 111.480469 221.84375 C 111.480469 218.984375 113.792969 216.671875 116.652344 216.671875 L 220.101562 216.671875 C 222.960938 216.671875 225.273438 218.984375 225.273438 221.84375 C 225.273438 224.703125 222.960938 227.015625 220.101562 227.015625 Z M 220.101562 227.015625 " fill-opacity="1" fill-rule="nonzero"/><path fill="#335caf" d="M 178.722656 247.707031 L 116.652344 247.707031 C 113.792969 247.707031 111.480469 245.394531 111.480469 242.535156 C 111.480469 239.671875 113.792969 237.359375 116.652344 237.359375 L 178.722656 237.359375 C 181.582031 237.359375 183.894531 239.671875 183.894531 242.535156 C 183.894531 245.394531 181.582031 247.707031 178.722656 247.707031 Z M 178.722656 247.707031 " fill-opacity="1" fill-rule="nonzero"/><path fill="#f7b54b" d="M 242.640625 89.890625 L 170.550781 161.984375 C 166.570312 165.996094 160.117188 165.996094 156.140625 161.984375 L 84.046875 89.890625 C 80.035156 85.914062 80.035156 79.460938 84.046875 75.480469 L 156.140625 3.390625 C 160.117188 -0.613281 166.570312 -0.613281 170.550781 3.390625 L 242.640625 75.480469 C 246.644531 79.460938 246.644531 85.914062 242.640625 89.890625 " fill-opacity="1" fill-rule="nonzero"/><path fill="#fdd07e" d="M 188.886719 108.226562 L 137.804688 108.226562 L 137.804688 57.144531 L 188.886719 57.144531 L 188.886719 108.226562 " fill-opacity="1" fill-rule="nonzero"/><path fill="#ffc661" d="M 137.804688 57.144531 L 163.34375 0.386719 L 188.886719 57.144531 Z M 137.804688 57.144531 " fill-opacity="1" fill-rule="nonzero"/><path fill="#ffc661" d="M 188.886719 108.226562 L 163.34375 164.988281 L 137.804688 108.226562 Z M 188.886719 108.226562 " fill-opacity="1" fill-rule="nonzero"/><path fill="#ffc661" d="M 137.804688 108.226562 L 81.042969 82.6875 L 137.804688 57.144531 Z M 137.804688 108.226562 " fill-opacity="1" fill-rule="nonzero"/><path fill="#ffc661" d="M 188.886719 57.144531 L 245.644531 82.6875 L 188.886719 108.226562 Z M 188.886719 57.144531 " fill-opacity="1" fill-rule="nonzero"/></svg>