<svg xmlns="http://www.w3.org/2000/svg" xmlns:xlink="http://www.w3.org/1999/xlink" width="1700" zoomAndPan="magnify" viewBox="0 0 1275 299.999988" height="400" preserveAspectRatio="xMidYMid meet" version="1.0"><defs><g/><clipPath id="f38327bca1"><path d="M 68.390625 84 L 346 84 L 346 292 L 68.390625 292 Z M 68.390625 84 " clip-rule="nonzero"/></clipPath><clipPath id="fc77b7e809"><path d="M 252 153 L 368.390625 153 L 368.390625 223 L 252 223 Z M 252 153 " clip-rule="nonzero"/></clipPath></defs><g fill="#0753b4" fill-opacity="1"><g transform="translate(405.330952, 212.000022)"><g><path d="M 70.828125 2.625 C 63.597656 2.625 56.726562 1.554688 50.21875 -0.578125 C 43.71875 -2.722656 37.769531 -5.75 32.375 -9.65625 C 26.988281 -13.570312 22.320312 -18.207031 18.375 -23.5625 C 14.4375 -28.925781 11.382812 -34.832031 9.21875 -41.28125 C 7.050781 -47.726562 5.96875 -54.503906 5.96875 -61.609375 C 5.96875 -68.773438 7.050781 -75.5625 9.21875 -81.96875 C 11.382812 -88.382812 14.4375 -94.253906 18.375 -99.578125 C 22.320312 -104.910156 26.988281 -109.535156 32.375 -113.453125 C 37.769531 -117.367188 43.71875 -120.394531 50.21875 -122.53125 C 56.726562 -124.675781 63.597656 -125.75 70.828125 -125.75 C 77.328125 -125.75 83.769531 -124.785156 90.15625 -122.859375 C 96.539062 -120.929688 102.5 -117.992188 108.03125 -114.046875 C 113.570312 -110.097656 118.269531 -105.113281 122.125 -99.09375 C 125.976562 -93.070312 128.628906 -85.96875 130.078125 -77.78125 L 107.140625 -77.78125 C 105.503906 -84.101562 102.894531 -89.28125 99.3125 -93.3125 C 95.738281 -97.34375 91.453125 -100.320312 86.453125 -102.25 C 81.453125 -104.175781 76.03125 -105.140625 70.1875 -105.140625 C 64.40625 -105.140625 58.984375 -104.097656 53.921875 -102.015625 C 48.867188 -99.941406 44.429688 -96.976562 40.609375 -93.125 C 36.785156 -89.269531 33.800781 -84.675781 31.65625 -79.34375 C 29.519531 -74.019531 28.453125 -68.078125 28.453125 -61.515625 C 28.453125 -54.828125 29.519531 -48.816406 31.65625 -43.484375 C 33.800781 -38.160156 36.785156 -33.601562 40.609375 -29.8125 C 44.429688 -26.019531 48.867188 -23.113281 53.921875 -21.09375 C 58.984375 -19.070312 64.40625 -18.0625 70.1875 -18.0625 C 76.03125 -18.0625 81.4375 -19.023438 86.40625 -20.953125 C 91.375 -22.878906 95.660156 -25.859375 99.265625 -29.890625 C 102.878906 -33.929688 105.472656 -39.082031 107.046875 -45.34375 L 130.078125 -45.34375 C 128.628906 -37.15625 125.976562 -30.035156 122.125 -23.984375 C 118.269531 -17.929688 113.601562 -12.945312 108.125 -9.03125 C 102.644531 -5.113281 96.695312 -2.191406 90.28125 -0.265625 C 83.875 1.660156 77.390625 2.625 70.828125 2.625 Z M 70.828125 2.625 "/></g></g></g><g fill="#0753b4" fill-opacity="1"><g transform="translate(548.115603, 212.000022)"><g><path d="M 64.953125 2.703125 C 57.546875 2.703125 50.664062 1.53125 44.3125 -0.8125 C 37.957031 -3.164062 32.382812 -6.523438 27.59375 -10.890625 C 22.8125 -15.253906 19.09375 -20.535156 16.4375 -26.734375 C 13.789062 -32.941406 12.46875 -39.867188 12.46875 -47.515625 L 12.46875 -122.859375 L 34.875 -122.859375 L 34.875 -49.140625 C 34.875 -43.359375 36.03125 -38.101562 38.34375 -33.375 C 40.664062 -28.644531 44.066406 -24.878906 48.546875 -22.078125 C 53.035156 -19.285156 58.503906 -17.890625 64.953125 -17.890625 C 71.273438 -17.890625 76.660156 -19.273438 81.109375 -22.046875 C 85.566406 -24.816406 88.984375 -28.5625 91.359375 -33.28125 C 93.742188 -38.007812 94.9375 -43.265625 94.9375 -49.046875 L 94.9375 -122.859375 L 117.4375 -122.859375 L 117.4375 -47.515625 C 117.4375 -40.171875 116.171875 -33.441406 113.640625 -27.328125 C 111.109375 -21.210938 107.523438 -15.910156 102.890625 -11.421875 C 98.253906 -6.941406 92.710938 -3.46875 86.265625 -1 C 79.828125 1.46875 72.722656 2.703125 64.953125 2.703125 Z M 64.953125 2.703125 "/></g></g></g><g fill="#0753b4" fill-opacity="1"><g transform="translate(684.577275, 212.000022)"><g><path d="M 73.34375 0 L 14.640625 0 L 14.640625 -122.859375 L 68.203125 -122.859375 C 75.671875 -122.859375 82.203125 -121.515625 87.796875 -118.828125 C 93.398438 -116.148438 97.765625 -112.328125 100.890625 -107.359375 C 104.023438 -102.390625 105.59375 -96.472656 105.59375 -89.609375 C 105.59375 -85.992188 104.882812 -82.546875 103.46875 -79.265625 C 102.0625 -75.984375 100.179688 -73.09375 97.828125 -70.59375 C 95.484375 -68.09375 92.894531 -66.242188 90.0625 -65.046875 C 94.21875 -63.710938 97.992188 -61.613281 101.390625 -58.75 C 104.796875 -55.894531 107.519531 -52.492188 109.5625 -48.546875 C 111.613281 -44.609375 112.640625 -40.320312 112.640625 -35.6875 C 112.640625 -29.601562 111.539062 -24.316406 109.34375 -19.828125 C 107.144531 -15.335938 104.164062 -11.632812 100.40625 -8.71875 C 96.644531 -5.800781 92.425781 -3.617188 87.75 -2.171875 C 83.082031 -0.722656 78.28125 0 73.34375 0 Z M 37.3125 -103.515625 L 37.3125 -71.546875 L 67.109375 -71.546875 C 70.128906 -71.546875 72.828125 -72.25 75.203125 -73.65625 C 77.578125 -75.070312 79.457031 -77 80.84375 -79.4375 C 82.226562 -81.882812 82.921875 -84.613281 82.921875 -87.625 C 82.921875 -90.632812 82.226562 -93.34375 80.84375 -95.75 C 79.457031 -98.15625 77.585938 -100.050781 75.234375 -101.4375 C 72.890625 -102.820312 70.210938 -103.515625 67.203125 -103.515625 Z M 37.3125 -54.65625 L 37.3125 -19.421875 L 71.359375 -19.421875 C 74.859375 -19.421875 77.976562 -20.1875 80.71875 -21.71875 C 83.457031 -23.257812 85.625 -25.382812 87.21875 -28.09375 C 88.8125 -30.800781 89.609375 -33.898438 89.609375 -37.390625 C 89.609375 -40.585938 88.820312 -43.476562 87.25 -46.0625 C 85.6875 -48.65625 83.535156 -50.734375 80.796875 -52.296875 C 78.054688 -53.867188 74.972656 -54.65625 71.546875 -54.65625 Z M 37.3125 -54.65625 "/></g></g></g><g fill="#0753b4" fill-opacity="1"><g transform="translate(809.657594, 212.000022)"><g><path d="M 37.125 0 L 14.640625 0 L 14.640625 -122.859375 L 37.125 -122.859375 Z M 37.125 0 "/></g></g></g><g fill="#47b8d1" fill-opacity="1"><g transform="translate(867.987165, 212.000022)"><g><path d="M 37.125 0 L 14.640625 0 L 14.640625 -122.859375 L 66.390625 -122.859375 C 72.597656 -122.859375 78.304688 -121.832031 83.515625 -119.78125 C 88.722656 -117.726562 93.222656 -114.847656 97.015625 -111.140625 C 100.804688 -107.441406 103.753906 -103.0625 105.859375 -98 C 107.972656 -92.945312 109.03125 -87.441406 109.03125 -81.484375 C 109.03125 -75.160156 107.988281 -69.40625 105.90625 -64.21875 C 103.832031 -59.039062 100.910156 -54.582031 97.140625 -50.84375 C 93.378906 -47.113281 88.910156 -44.238281 83.734375 -42.21875 C 78.554688 -40.207031 72.894531 -39.203125 66.75 -39.203125 L 37.125 -39.203125 Z M 37.125 -102.796875 L 37.125 -59.265625 L 65.671875 -59.265625 C 69.585938 -59.265625 73.125 -60.238281 76.28125 -62.1875 C 79.445312 -64.144531 81.945312 -66.796875 83.78125 -70.140625 C 85.613281 -73.484375 86.53125 -77.265625 86.53125 -81.484375 C 86.53125 -85.210938 85.597656 -88.703125 83.734375 -91.953125 C 81.867188 -95.210938 79.351562 -97.832031 76.1875 -99.8125 C 73.03125 -101.800781 69.460938 -102.796875 65.484375 -102.796875 Z M 37.125 -102.796875 "/></g></g></g><g fill="#47b8d1" fill-opacity="1"><g transform="translate(986.473525, 212.000022)"><g><path d="M 49.953125 2.796875 C 43.691406 2.796875 37.894531 1.535156 32.5625 -0.984375 C 27.238281 -3.515625 22.601562 -7.039062 18.65625 -11.5625 C 14.707031 -16.082031 11.648438 -21.320312 9.484375 -27.28125 C 7.316406 -33.238281 6.234375 -39.625 6.234375 -46.4375 C 6.234375 -53.238281 7.332031 -59.601562 9.53125 -65.53125 C 11.726562 -71.46875 14.796875 -76.691406 18.734375 -81.203125 C 22.679688 -85.722656 27.304688 -89.257812 32.609375 -91.8125 C 37.910156 -94.375 43.660156 -95.65625 49.859375 -95.65625 C 57.453125 -95.65625 64.195312 -94.015625 70.09375 -90.734375 C 76 -87.453125 80.425781 -82.921875 83.375 -77.140625 L 83.375 -92.859375 L 104.15625 -92.859375 L 104.15625 0 L 83.375 0 L 83.375 -15.625 C 80.363281 -9.84375 75.921875 -5.328125 70.046875 -2.078125 C 64.179688 1.171875 57.484375 2.796875 49.953125 2.796875 Z M 55.1875 -17.4375 C 58.988281 -17.4375 62.546875 -18.171875 65.859375 -19.640625 C 69.171875 -21.117188 72.070312 -23.164062 74.5625 -25.78125 C 77.0625 -28.40625 79.003906 -31.476562 80.390625 -35 C 81.773438 -38.519531 82.46875 -42.332031 82.46875 -46.4375 C 82.46875 -50.46875 81.757812 -54.242188 80.34375 -57.765625 C 78.9375 -61.285156 77 -64.367188 74.53125 -67.015625 C 72.0625 -69.671875 69.171875 -71.734375 65.859375 -73.203125 C 62.546875 -74.679688 58.988281 -75.421875 55.1875 -75.421875 C 50.195312 -75.421875 45.632812 -74.21875 41.5 -71.8125 C 37.375 -69.40625 34.078125 -66.03125 31.609375 -61.6875 C 29.140625 -57.351562 27.90625 -52.269531 27.90625 -46.4375 C 27.90625 -40.40625 29.15625 -35.222656 31.65625 -30.890625 C 34.15625 -26.554688 37.484375 -23.226562 41.640625 -20.90625 C 45.796875 -18.59375 50.3125 -17.4375 55.1875 -17.4375 Z M 55.1875 -17.4375 "/></g></g></g><g fill="#47b8d1" fill-opacity="1"><g transform="translate(1110.108605, 212.000022)"><g><path d="M 20.046875 31.703125 L 4.421875 31.703125 L 4.421875 13.640625 L 19.875 13.640625 C 23.125 13.640625 25.785156 13.113281 27.859375 12.0625 C 29.941406 11.007812 31.703125 9.394531 33.140625 7.21875 C 34.585938 5.050781 35.945312 2.253906 37.21875 -1.171875 L 38.296875 -4.34375 L 2.703125 -92.859375 L 25.75 -92.859375 L 47.609375 -36.671875 L 49.953125 -27.09375 L 52.390625 -36.578125 L 73.890625 -92.765625 L 97.203125 -92.859375 L 60.96875 -2.078125 C 58.257812 4.847656 55.550781 10.523438 52.84375 14.953125 C 50.132812 19.378906 47.226562 22.8125 44.125 25.25 C 41.019531 27.6875 37.523438 29.367188 33.640625 30.296875 C 29.765625 31.234375 25.234375 31.703125 20.046875 31.703125 Z M 20.046875 31.703125 "/></g></g></g><path fill="#3faa84" d="M 169.253906 16.351562 L 234.300781 40.027344 C 235.011719 40.285156 235.707031 40.578125 236.386719 40.902344 C 237.070312 41.230469 237.734375 41.589844 238.378906 41.980469 C 239.023438 42.375 239.648438 42.796875 240.253906 43.25 C 240.859375 43.703125 241.441406 44.183594 241.996094 44.695312 C 242.554688 45.207031 243.085938 45.742188 243.589844 46.304688 C 244.09375 46.867188 244.570312 47.453125 245.015625 48.0625 C 245.460938 48.671875 245.878906 49.304688 246.265625 49.953125 C 246.648438 50.605469 247 51.269531 247.320312 51.957031 C 247.640625 52.640625 247.925781 53.339844 248.175781 54.054688 C 248.425781 54.765625 248.640625 55.488281 248.820312 56.222656 C 249 56.957031 249.144531 57.699219 249.25 58.445312 C 249.355469 59.195312 249.425781 59.945312 249.460938 60.699219 C 249.492188 61.457031 249.488281 62.210938 249.449219 62.964844 C 249.40625 63.71875 249.328125 64.46875 249.214844 65.21875 C 249.097656 65.964844 248.945312 66.703125 248.757812 67.4375 C 248.570312 68.167969 248.347656 68.890625 248.089844 69.597656 L 204.6875 188.847656 C 204.429688 189.558594 204.136719 190.253906 203.808594 190.9375 C 203.480469 191.617188 203.121094 192.28125 202.730469 192.925781 C 202.339844 193.574219 201.917969 194.199219 201.460938 194.804688 C 201.007812 195.40625 200.527344 195.988281 200.015625 196.546875 C 199.507812 197.101562 198.96875 197.632812 198.40625 198.136719 C 197.84375 198.640625 197.257812 199.117188 196.648438 199.566406 C 196.039062 200.011719 195.410156 200.425781 194.757812 200.8125 C 194.109375 201.199219 193.441406 201.550781 192.757812 201.867188 C 192.070312 202.1875 191.371094 202.472656 190.660156 202.722656 C 189.945312 202.976562 189.222656 203.191406 188.488281 203.371094 C 187.753906 203.550781 187.015625 203.691406 186.265625 203.800781 C 185.519531 203.90625 184.765625 203.976562 184.011719 204.007812 C 183.257812 204.042969 182.5 204.039062 181.746094 203.996094 C 180.992188 203.957031 180.242188 203.878906 179.496094 203.761719 C 178.75 203.648438 178.007812 203.496094 177.277344 203.308594 C 176.542969 203.121094 175.824219 202.898438 175.113281 202.640625 L 110.066406 178.964844 C 109.359375 178.707031 108.664062 178.414062 107.980469 178.085938 C 107.300781 177.761719 106.636719 177.402344 105.988281 177.007812 C 105.34375 176.617188 104.71875 176.195312 104.113281 175.742188 C 103.507812 175.285156 102.929688 174.804688 102.371094 174.292969 C 101.816406 173.785156 101.285156 173.246094 100.777344 172.683594 C 100.273438 172.121094 99.800781 171.535156 99.351562 170.925781 C 98.90625 170.316406 98.488281 169.6875 98.105469 169.035156 C 97.71875 168.386719 97.367188 167.71875 97.046875 167.035156 C 96.730469 166.347656 96.445312 165.648438 96.191406 164.9375 C 95.941406 164.222656 95.726562 163.5 95.546875 162.765625 C 95.367188 162.03125 95.226562 161.292969 95.117188 160.542969 C 95.011719 159.796875 94.941406 159.042969 94.910156 158.289062 C 94.875 157.535156 94.878906 156.78125 94.921875 156.023438 C 94.960938 155.269531 95.039062 154.519531 95.15625 153.773438 C 95.269531 153.027344 95.421875 152.285156 95.609375 151.554688 C 95.796875 150.824219 96.019531 150.101562 96.277344 149.390625 L 139.679688 30.140625 C 139.941406 29.429688 140.234375 28.734375 140.558594 28.054688 C 140.886719 27.371094 141.246094 26.710938 141.636719 26.0625 C 142.03125 25.417969 142.453125 24.792969 142.90625 24.1875 C 143.359375 23.582031 143.839844 23 144.351562 22.445312 C 144.863281 21.886719 145.398438 21.355469 145.960938 20.851562 C 146.523438 20.347656 147.109375 19.871094 147.71875 19.425781 C 148.328125 18.980469 148.957031 18.5625 149.609375 18.179688 C 150.257812 17.792969 150.925781 17.441406 151.613281 17.121094 C 152.296875 16.800781 152.996094 16.515625 153.707031 16.265625 C 154.421875 16.015625 155.144531 15.800781 155.878906 15.621094 C 156.613281 15.441406 157.355469 15.296875 158.101562 15.191406 C 158.851562 15.085938 159.601562 15.015625 160.355469 14.980469 C 161.113281 14.949219 161.867188 14.953125 162.621094 14.992188 C 163.375 15.035156 164.125 15.113281 164.875 15.226562 C 165.621094 15.34375 166.359375 15.496094 167.089844 15.683594 C 167.824219 15.871094 168.542969 16.09375 169.253906 16.351562 Z M 169.253906 16.351562 " fill-opacity="1" fill-rule="nonzero"/><path fill="#50c295" d="M 227.035156 16.351562 L 292.082031 40.027344 C 292.792969 40.285156 293.488281 40.578125 294.167969 40.90625 C 294.847656 41.230469 295.511719 41.589844 296.160156 41.984375 C 296.804688 42.375 297.429688 42.796875 298.035156 43.25 C 298.640625 43.703125 299.21875 44.1875 299.777344 44.695312 C 300.335938 45.207031 300.867188 45.742188 301.371094 46.308594 C 301.875 46.871094 302.351562 47.457031 302.796875 48.066406 C 303.242188 48.675781 303.660156 49.304688 304.042969 49.953125 C 304.429688 50.605469 304.78125 51.273438 305.101562 51.957031 C 305.421875 52.640625 305.707031 53.339844 305.957031 54.054688 C 306.207031 54.765625 306.421875 55.488281 306.601562 56.222656 C 306.78125 56.957031 306.925781 57.699219 307.03125 58.449219 C 307.136719 59.195312 307.207031 59.945312 307.242188 60.703125 C 307.273438 61.457031 307.269531 62.210938 307.226562 62.964844 C 307.1875 63.722656 307.109375 64.472656 306.996094 65.21875 C 306.878906 65.964844 306.726562 66.703125 306.539062 67.4375 C 306.351562 68.167969 306.128906 68.890625 305.871094 69.601562 L 262.46875 188.851562 C 262.210938 189.558594 261.917969 190.253906 261.589844 190.9375 C 261.261719 191.617188 260.902344 192.28125 260.511719 192.929688 C 260.121094 193.574219 259.695312 194.199219 259.242188 194.804688 C 258.789062 195.410156 258.308594 195.988281 257.796875 196.546875 C 257.285156 197.105469 256.75 197.632812 256.1875 198.140625 C 255.625 198.644531 255.039062 199.117188 254.429688 199.566406 C 253.820312 200.011719 253.191406 200.429688 252.539062 200.8125 C 251.890625 201.199219 251.222656 201.550781 250.539062 201.871094 C 249.851562 202.1875 249.152344 202.472656 248.441406 202.726562 C 247.726562 202.976562 247.003906 203.191406 246.269531 203.371094 C 245.535156 203.550781 244.796875 203.691406 244.046875 203.800781 C 243.300781 203.90625 242.546875 203.976562 241.792969 204.007812 C 241.039062 204.042969 240.28125 204.039062 239.527344 203.996094 C 238.773438 203.957031 238.023438 203.878906 237.277344 203.761719 C 236.527344 203.648438 235.789062 203.496094 235.058594 203.308594 C 234.324219 203.121094 233.605469 202.898438 232.894531 202.640625 L 167.847656 178.964844 C 167.140625 178.707031 166.441406 178.414062 165.761719 178.085938 C 165.082031 177.761719 164.417969 177.402344 163.769531 177.007812 C 163.125 176.617188 162.5 176.195312 161.894531 175.742188 C 161.289062 175.289062 160.710938 174.804688 160.152344 174.296875 C 159.59375 173.785156 159.0625 173.25 158.558594 172.683594 C 158.054688 172.121094 157.578125 171.535156 157.132812 170.925781 C 156.6875 170.316406 156.269531 169.6875 155.886719 169.039062 C 155.5 168.386719 155.148438 167.71875 154.828125 167.035156 C 154.507812 166.351562 154.222656 165.652344 153.972656 164.9375 C 153.722656 164.226562 153.507812 163.503906 153.328125 162.769531 C 153.148438 162.035156 153.003906 161.292969 152.898438 160.542969 C 152.792969 159.796875 152.722656 159.046875 152.6875 158.289062 C 152.65625 157.535156 152.660156 156.78125 152.703125 156.027344 C 152.742188 155.269531 152.820312 154.519531 152.9375 153.773438 C 153.050781 153.027344 153.203125 152.289062 153.390625 151.554688 C 153.578125 150.824219 153.800781 150.101562 154.058594 149.390625 L 197.460938 30.140625 C 197.71875 29.433594 198.011719 28.738281 198.339844 28.054688 C 198.667969 27.375 199.027344 26.710938 199.417969 26.0625 C 199.808594 25.417969 200.234375 24.792969 200.6875 24.1875 C 201.140625 23.582031 201.621094 23.003906 202.132812 22.445312 C 202.644531 21.886719 203.179688 21.359375 203.742188 20.851562 C 204.304688 20.347656 204.890625 19.875 205.5 19.425781 C 206.109375 18.980469 206.738281 18.5625 207.390625 18.179688 C 208.039062 17.792969 208.707031 17.441406 209.394531 17.121094 C 210.078125 16.804688 210.777344 16.519531 211.488281 16.265625 C 212.203125 16.015625 212.925781 15.800781 213.660156 15.621094 C 214.394531 15.441406 215.136719 15.300781 215.882812 15.191406 C 216.632812 15.085938 217.382812 15.015625 218.136719 14.980469 C 218.890625 14.949219 219.648438 14.953125 220.402344 14.996094 C 221.15625 15.035156 221.90625 15.113281 222.652344 15.230469 C 223.402344 15.34375 224.140625 15.496094 224.871094 15.683594 C 225.605469 15.871094 226.324219 16.09375 227.035156 16.351562 Z M 227.035156 16.351562 " fill-opacity="1" fill-rule="nonzero"/><g clip-path="url(#f38327bca1)"><path fill="#1a75d0" d="M 91.460938 84.238281 L 322.195312 84.238281 C 322.953125 84.238281 323.707031 84.277344 324.457031 84.351562 C 325.210938 84.425781 325.957031 84.535156 326.695312 84.683594 C 327.4375 84.832031 328.171875 85.015625 328.894531 85.234375 C 329.617188 85.453125 330.328125 85.707031 331.023438 85.996094 C 331.722656 86.285156 332.40625 86.609375 333.070312 86.964844 C 333.738281 87.320312 334.386719 87.707031 335.015625 88.128906 C 335.644531 88.546875 336.25 89 336.832031 89.476562 C 337.417969 89.957031 337.976562 90.464844 338.511719 91 C 339.046875 91.53125 339.550781 92.089844 340.03125 92.675781 C 340.511719 93.261719 340.960938 93.867188 341.378906 94.496094 C 341.800781 95.121094 342.1875 95.769531 342.542969 96.4375 C 342.902344 97.101562 343.222656 97.785156 343.511719 98.484375 C 343.800781 99.183594 344.054688 99.890625 344.273438 100.617188 C 344.496094 101.339844 344.679688 102.070312 344.824219 102.8125 C 344.972656 103.554688 345.082031 104.300781 345.15625 105.050781 C 345.230469 105.804688 345.269531 106.558594 345.269531 107.3125 L 345.269531 268.828125 C 345.269531 269.582031 345.230469 270.335938 345.15625 271.089844 C 345.082031 271.839844 344.972656 272.585938 344.824219 273.328125 C 344.679688 274.070312 344.496094 274.800781 344.273438 275.523438 C 344.054688 276.246094 343.800781 276.957031 343.511719 277.65625 C 343.222656 278.355469 342.902344 279.035156 342.542969 279.703125 C 342.1875 280.371094 341.800781 281.015625 341.378906 281.644531 C 340.960938 282.273438 340.511719 282.878906 340.03125 283.464844 C 339.550781 284.046875 339.046875 284.609375 338.511719 285.140625 C 337.976562 285.675781 337.417969 286.183594 336.832031 286.664062 C 336.25 287.140625 335.644531 287.589844 335.015625 288.011719 C 334.386719 288.429688 333.738281 288.820312 333.070312 289.175781 C 332.40625 289.53125 331.722656 289.855469 331.023438 290.144531 C 330.328125 290.433594 329.617188 290.6875 328.894531 290.90625 C 328.171875 291.125 327.4375 291.308594 326.695312 291.457031 C 325.957031 291.605469 325.210938 291.714844 324.457031 291.789062 C 323.707031 291.863281 322.953125 291.898438 322.195312 291.898438 L 91.460938 291.898438 C 90.707031 291.898438 89.953125 291.863281 89.199219 291.789062 C 88.449219 291.714844 87.703125 291.605469 86.960938 291.457031 C 86.21875 291.308594 85.488281 291.125 84.765625 290.90625 C 84.042969 290.6875 83.332031 290.433594 82.632812 290.144531 C 81.933594 289.855469 81.253906 289.53125 80.585938 289.175781 C 79.917969 288.820312 79.273438 288.429688 78.644531 288.011719 C 78.015625 287.589844 77.410156 287.140625 76.824219 286.664062 C 76.242188 286.183594 75.679688 285.675781 75.148438 285.140625 C 74.613281 284.609375 74.105469 284.046875 73.625 283.464844 C 73.148438 282.878906 72.699219 282.273438 72.277344 281.644531 C 71.859375 281.015625 71.46875 280.371094 71.113281 279.703125 C 70.757812 279.035156 70.433594 278.355469 70.144531 277.65625 C 69.855469 276.957031 69.601562 276.246094 69.382812 275.523438 C 69.164062 274.800781 68.980469 274.070312 68.832031 273.328125 C 68.683594 272.585938 68.574219 271.839844 68.5 271.089844 C 68.425781 270.335938 68.390625 269.582031 68.390625 268.828125 L 68.390625 107.3125 C 68.390625 106.558594 68.425781 105.804688 68.5 105.050781 C 68.574219 104.300781 68.683594 103.554688 68.832031 102.8125 C 68.980469 102.070312 69.164062 101.339844 69.382812 100.617188 C 69.601562 99.890625 69.855469 99.183594 70.144531 98.484375 C 70.433594 97.785156 70.757812 97.101562 71.113281 96.4375 C 71.46875 95.769531 71.859375 95.121094 72.277344 94.496094 C 72.699219 93.867188 73.148438 93.261719 73.625 92.675781 C 74.105469 92.089844 74.613281 91.53125 75.148438 91 C 75.679688 90.464844 76.242188 89.957031 76.824219 89.476562 C 77.410156 89 78.015625 88.546875 78.644531 88.128906 C 79.273438 87.707031 79.917969 87.320312 80.585938 86.964844 C 81.253906 86.609375 81.933594 86.285156 82.632812 85.996094 C 83.332031 85.707031 84.042969 85.453125 84.765625 85.234375 C 85.488281 85.015625 86.21875 84.832031 86.960938 84.683594 C 87.703125 84.535156 88.449219 84.425781 89.199219 84.351562 C 89.953125 84.277344 90.707031 84.238281 91.460938 84.238281 Z M 91.460938 84.238281 " fill-opacity="1" fill-rule="nonzero"/></g><g clip-path="url(#fc77b7e809)"><path fill="#eceef0" d="M 276.050781 153.460938 L 356.804688 153.460938 C 357.5625 153.460938 358.3125 153.535156 359.054688 153.683594 C 359.800781 153.828125 360.519531 154.046875 361.21875 154.339844 C 361.921875 154.628906 362.585938 154.984375 363.214844 155.40625 C 363.84375 155.824219 364.425781 156.304688 364.964844 156.839844 C 365.5 157.375 365.976562 157.957031 366.398438 158.585938 C 366.820312 159.21875 367.175781 159.882812 367.464844 160.582031 C 367.753906 161.28125 367.972656 162.003906 368.121094 162.746094 C 368.269531 163.488281 368.34375 164.238281 368.34375 164.996094 L 368.34375 211.144531 C 368.34375 211.902344 368.269531 212.652344 368.121094 213.394531 C 367.972656 214.136719 367.753906 214.859375 367.464844 215.558594 C 367.175781 216.257812 366.820312 216.921875 366.398438 217.554688 C 365.976562 218.183594 365.5 218.765625 364.964844 219.300781 C 364.425781 219.835938 363.84375 220.316406 363.214844 220.734375 C 362.585938 221.15625 361.921875 221.511719 361.21875 221.800781 C 360.519531 222.089844 359.800781 222.308594 359.054688 222.457031 C 358.3125 222.605469 357.5625 222.679688 356.804688 222.679688 L 276.050781 222.679688 C 275.292969 222.679688 274.539062 222.644531 273.789062 222.570312 C 273.035156 222.496094 272.289062 222.382812 271.546875 222.238281 C 270.804688 222.089844 270.074219 221.90625 269.351562 221.6875 C 268.628906 221.46875 267.917969 221.210938 267.21875 220.921875 C 266.519531 220.632812 265.839844 220.3125 265.171875 219.957031 C 264.503906 219.597656 263.859375 219.210938 263.230469 218.792969 C 262.601562 218.371094 261.996094 217.921875 261.410156 217.441406 C 260.828125 216.964844 260.269531 216.457031 259.734375 215.921875 C 259.199219 215.386719 258.691406 214.828125 258.214844 214.246094 C 257.734375 213.660156 257.285156 213.054688 256.863281 212.425781 C 256.445312 211.796875 256.054688 211.148438 255.699219 210.484375 C 255.34375 209.816406 255.019531 209.132812 254.730469 208.4375 C 254.441406 207.738281 254.1875 207.027344 253.96875 206.304688 C 253.75 205.582031 253.566406 204.847656 253.417969 204.109375 C 253.273438 203.367188 253.160156 202.621094 253.085938 201.867188 C 253.011719 201.117188 252.976562 200.363281 252.976562 199.605469 L 252.976562 176.535156 C 252.976562 175.777344 253.011719 175.023438 253.085938 174.273438 C 253.160156 173.519531 253.273438 172.773438 253.417969 172.03125 C 253.566406 171.289062 253.75 170.558594 253.96875 169.835938 C 254.1875 169.113281 254.441406 168.402344 254.730469 167.703125 C 255.019531 167.003906 255.34375 166.324219 255.699219 165.65625 C 256.054688 164.988281 256.445312 164.34375 256.863281 163.714844 C 257.285156 163.085938 257.734375 162.480469 258.214844 161.894531 C 258.691406 161.3125 259.199219 160.753906 259.734375 160.21875 C 260.269531 159.683594 260.828125 159.175781 261.410156 158.699219 C 261.996094 158.21875 262.601562 157.769531 263.230469 157.347656 C 263.859375 156.929688 264.503906 156.539062 265.171875 156.183594 C 265.839844 155.828125 266.519531 155.503906 267.21875 155.214844 C 267.917969 154.925781 268.628906 154.671875 269.351562 154.453125 C 270.074219 154.234375 270.804688 154.050781 271.546875 153.902344 C 272.289062 153.757812 273.035156 153.644531 273.789062 153.570312 C 274.539062 153.496094 275.292969 153.460938 276.050781 153.460938 Z M 276.050781 153.460938 " fill-opacity="1" fill-rule="nonzero"/></g></svg>