<svg xmlns="http://www.w3.org/2000/svg" xmlns:xlink="http://www.w3.org/1999/xlink" width="1700" zoomAndPan="magnify" viewBox="0 0 1275 299.999988" height="400" preserveAspectRatio="xMidYMid meet" version="1.0"><defs><g/></defs><g fill="#0753b4" fill-opacity="1"><g transform="translate(362.104155, 217.001789)"><g><path d="M 74.65625 2.765625 C 67.03125 2.765625 59.789062 1.640625 52.9375 -0.609375 C 46.082031 -2.867188 39.8125 -6.0625 34.125 -10.1875 C 28.445312 -14.3125 23.53125 -19.195312 19.375 -24.84375 C 15.21875 -30.5 11.992188 -36.722656 9.703125 -43.515625 C 7.421875 -50.304688 6.28125 -57.445312 6.28125 -64.9375 C 6.28125 -72.488281 7.421875 -79.644531 9.703125 -86.40625 C 11.992188 -93.164062 15.21875 -99.351562 19.375 -104.96875 C 23.53125 -110.59375 28.445312 -115.46875 34.125 -119.59375 C 39.8125 -123.71875 46.082031 -126.90625 52.9375 -129.15625 C 59.789062 -131.414062 67.03125 -132.546875 74.65625 -132.546875 C 81.507812 -132.546875 88.300781 -131.53125 95.03125 -129.5 C 101.757812 -127.46875 108.039062 -124.367188 113.875 -120.203125 C 119.71875 -116.046875 124.671875 -110.789062 128.734375 -104.4375 C 132.796875 -98.09375 135.585938 -90.609375 137.109375 -81.984375 L 112.921875 -81.984375 C 111.210938 -88.648438 108.46875 -94.109375 104.6875 -98.359375 C 100.914062 -102.609375 96.394531 -105.75 91.125 -107.78125 C 85.851562 -109.8125 80.140625 -110.828125 73.984375 -110.828125 C 67.890625 -110.828125 62.175781 -109.734375 56.84375 -107.546875 C 51.507812 -105.359375 46.828125 -102.234375 42.796875 -98.171875 C 38.765625 -94.109375 35.625 -89.265625 33.375 -83.640625 C 31.125 -78.023438 30 -71.757812 30 -64.84375 C 30 -57.789062 31.125 -51.457031 33.375 -45.84375 C 35.625 -40.226562 38.765625 -35.421875 42.796875 -31.421875 C 46.828125 -27.421875 51.507812 -24.359375 56.84375 -22.234375 C 62.175781 -20.109375 67.890625 -19.046875 73.984375 -19.046875 C 80.140625 -19.046875 85.832031 -20.0625 91.0625 -22.09375 C 96.300781 -24.125 100.828125 -27.265625 104.640625 -31.515625 C 108.453125 -35.765625 111.179688 -41.191406 112.828125 -47.796875 L 137.109375 -47.796875 C 135.585938 -39.160156 132.796875 -31.648438 128.734375 -25.265625 C 124.671875 -18.890625 119.75 -13.640625 113.96875 -9.515625 C 108.195312 -5.390625 101.929688 -2.3125 95.171875 -0.28125 C 88.410156 1.75 81.570312 2.765625 74.65625 2.765625 Z M 74.65625 2.765625 "/></g></g></g><g fill="#0753b4" fill-opacity="1"><g transform="translate(512.612913, 217.001789)"><g><path d="M 68.453125 2.859375 C 60.648438 2.859375 53.398438 1.617188 46.703125 -0.859375 C 40.003906 -3.335938 34.128906 -6.875 29.078125 -11.46875 C 24.035156 -16.070312 20.117188 -21.640625 17.328125 -28.171875 C 14.535156 -34.710938 13.140625 -42.015625 13.140625 -50.078125 L 13.140625 -129.5 L 36.75 -129.5 L 36.75 -51.796875 C 36.75 -45.703125 37.96875 -40.160156 40.40625 -35.171875 C 42.851562 -30.191406 46.441406 -26.226562 51.171875 -23.28125 C 55.898438 -20.332031 61.660156 -18.859375 68.453125 -18.859375 C 75.117188 -18.859375 80.800781 -20.316406 85.5 -23.234375 C 90.195312 -26.148438 93.800781 -30.097656 96.3125 -35.078125 C 98.820312 -40.066406 100.078125 -45.609375 100.078125 -51.703125 L 100.078125 -129.5 L 123.78125 -129.5 L 123.78125 -50.078125 C 123.78125 -42.335938 122.445312 -35.242188 119.78125 -28.796875 C 117.113281 -22.359375 113.335938 -16.773438 108.453125 -12.046875 C 103.566406 -7.316406 97.726562 -3.648438 90.9375 -1.046875 C 84.144531 1.554688 76.648438 2.859375 68.453125 2.859375 Z M 68.453125 2.859375 "/></g></g></g><g fill="#0753b4" fill-opacity="1"><g transform="translate(656.456631, 217.001789)"><g><path d="M 77.3125 0 L 15.421875 0 L 15.421875 -129.5 L 71.890625 -129.5 C 79.753906 -129.5 86.640625 -128.082031 92.546875 -125.25 C 98.453125 -122.425781 103.054688 -118.394531 106.359375 -113.15625 C 109.660156 -107.925781 111.3125 -101.691406 111.3125 -94.453125 C 111.3125 -90.640625 110.5625 -87.003906 109.0625 -83.546875 C 107.570312 -80.085938 105.585938 -77.039062 103.109375 -74.40625 C 100.640625 -71.769531 97.910156 -69.820312 94.921875 -68.5625 C 99.304688 -67.15625 103.289062 -64.945312 106.875 -61.9375 C 110.46875 -58.925781 113.34375 -55.335938 115.5 -51.171875 C 117.65625 -47.015625 118.734375 -42.492188 118.734375 -37.609375 C 118.734375 -31.203125 117.570312 -25.632812 115.25 -20.90625 C 112.9375 -16.175781 109.796875 -12.269531 105.828125 -9.1875 C 101.859375 -6.113281 97.414062 -3.8125 92.5 -2.28125 C 87.582031 -0.757812 82.519531 0 77.3125 0 Z M 39.328125 -109.109375 L 39.328125 -75.40625 L 70.75 -75.40625 C 73.914062 -75.40625 76.753906 -76.148438 79.265625 -77.640625 C 81.773438 -79.140625 83.757812 -81.171875 85.21875 -83.734375 C 86.675781 -86.304688 87.40625 -89.179688 87.40625 -92.359375 C 87.40625 -95.535156 86.675781 -98.390625 85.21875 -100.921875 C 83.757812 -103.460938 81.789062 -105.460938 79.3125 -106.921875 C 76.832031 -108.378906 74.007812 -109.109375 70.84375 -109.109375 Z M 39.328125 -57.609375 L 39.328125 -20.46875 L 75.21875 -20.46875 C 78.90625 -20.46875 82.191406 -21.273438 85.078125 -22.890625 C 87.960938 -24.515625 90.242188 -26.753906 91.921875 -29.609375 C 93.609375 -32.460938 94.453125 -35.734375 94.453125 -39.421875 C 94.453125 -42.785156 93.625 -45.832031 91.96875 -48.5625 C 90.320312 -51.289062 88.054688 -53.476562 85.171875 -55.125 C 82.285156 -56.78125 79.03125 -57.609375 75.40625 -57.609375 Z M 39.328125 -57.609375 "/></g></g></g><g fill="#0753b4" fill-opacity="1"><g transform="translate(788.30329, 217.001789)"><g><path d="M 39.140625 0 L 15.421875 0 L 15.421875 -129.5 L 39.140625 -129.5 Z M 39.140625 0 "/></g></g></g><g fill="#f4511e" fill-opacity="1"><g transform="translate(849.791615, 217.001789)"><g><path d="M 39.140625 0 L 15.421875 0 L 15.421875 -129.5 L 69.984375 -129.5 C 76.523438 -129.5 82.539062 -128.414062 88.03125 -126.25 C 93.519531 -124.09375 98.265625 -121.0625 102.265625 -117.15625 C 106.265625 -113.257812 109.375 -108.644531 111.59375 -103.3125 C 113.8125 -97.976562 114.921875 -92.171875 114.921875 -85.890625 C 114.921875 -79.222656 113.828125 -73.160156 111.640625 -67.703125 C 109.453125 -62.242188 106.375 -57.546875 102.40625 -53.609375 C 98.4375 -49.671875 93.722656 -46.640625 88.265625 -44.515625 C 82.804688 -42.390625 76.835938 -41.328125 70.359375 -41.328125 L 39.140625 -41.328125 Z M 39.140625 -108.359375 L 39.140625 -62.46875 L 69.21875 -62.46875 C 73.34375 -62.46875 77.070312 -63.5 80.40625 -65.5625 C 83.738281 -67.625 86.375 -70.414062 88.3125 -73.9375 C 90.25 -77.457031 91.21875 -81.441406 91.21875 -85.890625 C 91.21875 -89.816406 90.234375 -93.492188 88.265625 -96.921875 C 86.296875 -100.359375 83.644531 -103.125 80.3125 -105.21875 C 76.976562 -107.3125 73.21875 -108.359375 69.03125 -108.359375 Z M 39.140625 -108.359375 "/></g></g></g><g fill="#f4511e" fill-opacity="1"><g transform="translate(974.687582, 217.001789)"><g><path d="M 36.5625 0 L 13.515625 0 L 13.515625 -134.15625 L 36.5625 -134.15625 Z M 36.5625 0 "/></g></g></g><g fill="#f4511e" fill-opacity="1"><g transform="translate(1031.69537, 217.001789)"><g><path d="M 57.515625 2.953125 C 50.972656 2.953125 44.90625 2.046875 39.3125 0.234375 C 33.726562 -1.566406 28.84375 -4.40625 24.65625 -8.28125 C 20.46875 -12.15625 17.210938 -17.171875 14.890625 -23.328125 C 12.578125 -29.484375 11.421875 -36.910156 11.421875 -45.609375 L 11.421875 -97.875 L 34.28125 -97.875 L 34.28125 -46.28125 C 34.28125 -37.257812 36.210938 -30.367188 40.078125 -25.609375 C 43.953125 -20.847656 49.734375 -18.46875 57.421875 -18.46875 C 65.160156 -18.46875 70.929688 -20.863281 74.734375 -25.65625 C 78.546875 -30.445312 80.453125 -37.320312 80.453125 -46.28125 L 80.453125 -97.875 L 103.40625 -97.875 L 103.40625 -45.609375 C 103.40625 -36.910156 102.242188 -29.484375 99.921875 -23.328125 C 97.609375 -17.171875 94.359375 -12.15625 90.171875 -8.28125 C 85.984375 -4.40625 81.109375 -1.566406 75.546875 0.234375 C 69.992188 2.046875 63.984375 2.953125 57.515625 2.953125 Z M 57.515625 2.953125 "/></g></g></g><g fill="#f4511e" fill-opacity="1"><g transform="translate(1153.544474, 217.001789)"><g><path d="M 48.75 2.953125 C 41.570312 2.953125 35.332031 2 30.03125 0.09375 C 24.738281 -1.8125 20.363281 -4.378906 16.90625 -7.609375 C 13.445312 -10.847656 10.875 -14.5 9.1875 -18.5625 C 7.507812 -22.625 6.671875 -26.816406 6.671875 -31.140625 L 28.75 -31.046875 C 28.945312 -26.597656 30.726562 -22.863281 34.09375 -19.84375 C 37.457031 -16.832031 42.40625 -15.328125 48.9375 -15.328125 C 54.90625 -15.328125 59.300781 -16.46875 62.125 -18.75 C 64.945312 -21.039062 66.359375 -24.023438 66.359375 -27.703125 C 66.359375 -30.492188 65.566406 -32.679688 63.984375 -34.265625 C 62.398438 -35.859375 60.066406 -37.113281 56.984375 -38.03125 C 53.910156 -38.957031 50.148438 -39.738281 45.703125 -40.375 C 41.003906 -41.007812 36.546875 -41.992188 32.328125 -43.328125 C 28.109375 -44.660156 24.378906 -46.5 21.140625 -48.84375 C 17.898438 -51.195312 15.34375 -54.148438 13.46875 -57.703125 C 11.601562 -61.253906 10.671875 -65.570312 10.671875 -70.65625 C 10.671875 -76.675781 12.082031 -81.941406 14.90625 -86.453125 C 17.726562 -90.960938 21.882812 -94.484375 27.375 -97.015625 C 32.863281 -99.554688 39.578125 -100.828125 47.515625 -100.828125 C 55.378906 -100.828125 62.28125 -99.507812 68.21875 -96.875 C 74.15625 -94.25 78.773438 -90.570312 82.078125 -85.84375 C 85.378906 -81.113281 87.03125 -75.632812 87.03125 -69.40625 L 64.453125 -69.609375 C 64.203125 -73.222656 62.664062 -76.1875 59.84375 -78.5 C 57.019531 -80.820312 52.941406 -81.984375 47.609375 -81.984375 C 42.660156 -81.984375 39.039062 -80.914062 36.75 -78.78125 C 34.46875 -76.65625 33.328125 -74.101562 33.328125 -71.125 C 33.328125 -68.707031 33.863281 -66.753906 34.9375 -65.265625 C 36.019531 -63.773438 38.035156 -62.535156 40.984375 -61.546875 C 43.941406 -60.566406 48.210938 -59.632812 53.796875 -58.75 C 58.867188 -57.988281 63.59375 -56.972656 67.96875 -55.703125 C 72.351562 -54.429688 76.179688 -52.703125 79.453125 -50.515625 C 82.722656 -48.328125 85.28125 -45.5 87.125 -42.03125 C 88.96875 -38.570312 89.890625 -34.242188 89.890625 -29.046875 C 89.890625 -21.867188 88.09375 -15.914062 84.5 -11.1875 C 80.914062 -6.457031 76.03125 -2.914062 69.84375 -0.5625 C 63.65625 1.78125 56.625 2.953125 48.75 2.953125 Z M 48.75 2.953125 "/></g></g></g><path fill="#a5ebde" d="M 303.5 41.167969 C 317.710938 41.167969 329.226562 52.683594 329.226562 66.894531 L 329.226562 231.539062 C 329.226562 245.753906 317.710938 257.289062 303.5 257.289062 L 226.773438 257.289062 L 191.15625 293.710938 C 184.984375 300.042969 175.015625 300.042969 168.84375 293.710938 L 133.226562 257.289062 L 56.5 257.289062 C 42.289062 257.289062 30.773438 245.753906 30.773438 231.539062 L 30.773438 66.894531 C 30.773438 52.683594 42.289062 41.167969 56.5 41.167969 L 303.5 41.167969 " fill-opacity="1" fill-rule="nonzero"/><path fill="#ffc4b3" d="M 138.832031 180.101562 L 159.417969 180.101562 C 165.105469 180.101562 169.707031 175.5 169.707031 169.8125 L 169.707031 149.226562 L 138.832031 149.226562 L 138.832031 180.101562 " fill-opacity="1" fill-rule="nonzero"/><path fill="#bf360c" d="M 143.980469 149.226562 L 143.980469 210.976562 C 143.980469 216.667969 139.375 221.269531 133.6875 221.269531 L 122.632812 221.269531 C 117.246094 221.269531 112.78125 217.128906 112.382812 211.761719 L 107.957031 154.375 L 143.980469 149.226562 " fill-opacity="1" fill-rule="nonzero"/><path fill="#f4511e" d="M 102.8125 154.375 L 185.144531 154.375 L 185.144531 72.042969 L 102.8125 72.042969 C 91.4375 72.042969 82.230469 81.246094 82.230469 92.625 L 82.230469 133.789062 C 82.230469 145.167969 91.4375 154.375 102.8125 154.375 " fill-opacity="1" fill-rule="nonzero"/><path fill="#ffc4b3" d="M 252.042969 15.4375 L 252.042969 210.976562 L 246.894531 210.976562 L 180 154.375 L 180 72.042969 L 246.894531 15.4375 L 252.042969 15.4375 " fill-opacity="1" fill-rule="nonzero"/><path fill="#f4511e" d="M 262.332031 226.414062 C 253.808594 226.414062 246.894531 219.5 246.894531 210.976562 L 246.894531 15.4375 C 246.894531 6.914062 253.808594 0 262.332031 0 C 270.855469 0 277.769531 6.914062 277.769531 15.4375 L 277.769531 210.976562 C 277.769531 219.5 270.855469 226.414062 262.332031 226.414062 " fill-opacity="1" fill-rule="nonzero"/></svg>