<svg xmlns="http://www.w3.org/2000/svg" xmlns:xlink="http://www.w3.org/1999/xlink" width="1700" zoomAndPan="magnify" viewBox="0 0 1275 299.999988" height="400" preserveAspectRatio="xMidYMid meet" version="1.0"><defs><g/><clipPath id="b82c0785f5"><path d="M 51.253906 79 L 331.003906 79 L 331.003906 146 L 51.253906 146 Z M 51.253906 79 " clip-rule="nonzero"/></clipPath><clipPath id="c596216130"><path d="M 65 145 L 318 145 L 318 299.6875 L 65 299.6875 Z M 65 145 " clip-rule="nonzero"/></clipPath><clipPath id="a4eeb6e582"><path d="M 164 145 L 219 145 L 219 299.6875 L 164 299.6875 Z M 164 145 " clip-rule="nonzero"/></clipPath></defs><g fill="#ffffff" fill-opacity="1"><g transform="translate(373.30728, 217.00176)"><g><path d="M 74.65625 2.765625 C 67.03125 2.765625 59.789062 1.640625 52.9375 -0.609375 C 46.082031 -2.867188 39.8125 -6.0625 34.125 -10.1875 C 28.445312 -14.3125 23.53125 -19.195312 19.375 -24.84375 C 15.21875 -30.5 11.992188 -36.722656 9.703125 -43.515625 C 7.421875 -50.304688 6.28125 -57.445312 6.28125 -64.9375 C 6.28125 -72.488281 7.421875 -79.644531 9.703125 -86.40625 C 11.992188 -93.164062 15.21875 -99.351562 19.375 -104.96875 C 23.53125 -110.59375 28.445312 -115.46875 34.125 -119.59375 C 39.8125 -123.71875 46.082031 -126.90625 52.9375 -129.15625 C 59.789062 -131.414062 67.03125 -132.546875 74.65625 -132.546875 C 81.507812 -132.546875 88.300781 -131.53125 95.03125 -129.5 C 101.757812 -127.46875 108.039062 -124.367188 113.875 -120.203125 C 119.71875 -116.046875 124.671875 -110.789062 128.734375 -104.4375 C 132.796875 -98.09375 135.585938 -90.609375 137.109375 -81.984375 L 112.921875 -81.984375 C 111.210938 -88.648438 108.46875 -94.109375 104.6875 -98.359375 C 100.914062 -102.609375 96.394531 -105.75 91.125 -107.78125 C 85.851562 -109.8125 80.140625 -110.828125 73.984375 -110.828125 C 67.890625 -110.828125 62.175781 -109.734375 56.84375 -107.546875 C 51.507812 -105.359375 46.828125 -102.234375 42.796875 -98.171875 C 38.765625 -94.109375 35.625 -89.265625 33.375 -83.640625 C 31.125 -78.023438 30 -71.757812 30 -64.84375 C 30 -57.789062 31.125 -51.457031 33.375 -45.84375 C 35.625 -40.226562 38.765625 -35.421875 42.796875 -31.421875 C 46.828125 -27.421875 51.507812 -24.359375 56.84375 -22.234375 C 62.175781 -20.109375 67.890625 -19.046875 73.984375 -19.046875 C 80.140625 -19.046875 85.832031 -20.0625 91.0625 -22.09375 C 96.300781 -24.125 100.828125 -27.265625 104.640625 -31.515625 C 108.453125 -35.765625 111.179688 -41.191406 112.828125 -47.796875 L 137.109375 -47.796875 C 135.585938 -39.160156 132.796875 -31.648438 128.734375 -25.265625 C 124.671875 -18.890625 119.75 -13.640625 113.96875 -9.515625 C 108.195312 -5.390625 101.929688 -2.3125 95.171875 -0.28125 C 88.410156 1.75 81.570312 2.765625 74.65625 2.765625 Z M 74.65625 2.765625 "/></g></g></g><g fill="#ffffff" fill-opacity="1"><g transform="translate(523.816038, 217.00176)"><g><path d="M 68.453125 2.859375 C 60.648438 2.859375 53.398438 1.617188 46.703125 -0.859375 C 40.003906 -3.335938 34.128906 -6.875 29.078125 -11.46875 C 24.035156 -16.070312 20.117188 -21.640625 17.328125 -28.171875 C 14.535156 -34.710938 13.140625 -42.015625 13.140625 -50.078125 L 13.140625 -129.5 L 36.75 -129.5 L 36.75 -51.796875 C 36.75 -45.703125 37.96875 -40.160156 40.40625 -35.171875 C 42.851562 -30.191406 46.441406 -26.226562 51.171875 -23.28125 C 55.898438 -20.332031 61.660156 -18.859375 68.453125 -18.859375 C 75.117188 -18.859375 80.800781 -20.316406 85.5 -23.234375 C 90.195312 -26.148438 93.800781 -30.097656 96.3125 -35.078125 C 98.820312 -40.066406 100.078125 -45.609375 100.078125 -51.703125 L 100.078125 -129.5 L 123.78125 -129.5 L 123.78125 -50.078125 C 123.78125 -42.335938 122.445312 -35.242188 119.78125 -28.796875 C 117.113281 -22.359375 113.335938 -16.773438 108.453125 -12.046875 C 103.566406 -7.316406 97.726562 -3.648438 90.9375 -1.046875 C 84.144531 1.554688 76.648438 2.859375 68.453125 2.859375 Z M 68.453125 2.859375 "/></g></g></g><g fill="#ffffff" fill-opacity="1"><g transform="translate(667.659756, 217.00176)"><g><path d="M 77.3125 0 L 15.421875 0 L 15.421875 -129.5 L 71.890625 -129.5 C 79.753906 -129.5 86.640625 -128.082031 92.546875 -125.25 C 98.453125 -122.425781 103.054688 -118.394531 106.359375 -113.15625 C 109.660156 -107.925781 111.3125 -101.691406 111.3125 -94.453125 C 111.3125 -90.640625 110.5625 -87.003906 109.0625 -83.546875 C 107.570312 -80.085938 105.585938 -77.039062 103.109375 -74.40625 C 100.640625 -71.769531 97.910156 -69.820312 94.921875 -68.5625 C 99.304688 -67.15625 103.289062 -64.945312 106.875 -61.9375 C 110.46875 -58.925781 113.34375 -55.335938 115.5 -51.171875 C 117.65625 -47.015625 118.734375 -42.492188 118.734375 -37.609375 C 118.734375 -31.203125 117.570312 -25.632812 115.25 -20.90625 C 112.9375 -16.175781 109.796875 -12.269531 105.828125 -9.1875 C 101.859375 -6.113281 97.414062 -3.8125 92.5 -2.28125 C 87.582031 -0.757812 82.519531 0 77.3125 0 Z M 39.328125 -109.109375 L 39.328125 -75.40625 L 70.75 -75.40625 C 73.914062 -75.40625 76.753906 -76.148438 79.265625 -77.640625 C 81.773438 -79.140625 83.757812 -81.171875 85.21875 -83.734375 C 86.675781 -86.304688 87.40625 -89.179688 87.40625 -92.359375 C 87.40625 -95.535156 86.675781 -98.390625 85.21875 -100.921875 C 83.757812 -103.460938 81.789062 -105.460938 79.3125 -106.921875 C 76.832031 -108.378906 74.007812 -109.109375 70.84375 -109.109375 Z M 39.328125 -57.609375 L 39.328125 -20.46875 L 75.21875 -20.46875 C 78.90625 -20.46875 82.191406 -21.273438 85.078125 -22.890625 C 87.960938 -24.515625 90.242188 -26.753906 91.921875 -29.609375 C 93.609375 -32.460938 94.453125 -35.734375 94.453125 -39.421875 C 94.453125 -42.785156 93.625 -45.832031 91.96875 -48.5625 C 90.320312 -51.289062 88.054688 -53.476562 85.171875 -55.125 C 82.285156 -56.78125 79.03125 -57.609375 75.40625 -57.609375 Z M 39.328125 -57.609375 "/></g></g></g><g fill="#ffffff" fill-opacity="1"><g transform="translate(799.506415, 217.00176)"><g><path d="M 39.140625 0 L 15.421875 0 L 15.421875 -129.5 L 39.140625 -129.5 Z M 39.140625 0 "/></g></g></g><g fill="#c19ee0" fill-opacity="1"><g transform="translate(860.99474, 217.00176)"><g><path d="M 74.65625 2.765625 C 67.09375 2.765625 59.898438 1.625 53.078125 -0.65625 C 46.253906 -2.945312 40 -6.15625 34.3125 -10.28125 C 28.632812 -14.40625 23.703125 -19.273438 19.515625 -24.890625 C 15.328125 -30.515625 12.085938 -36.707031 9.796875 -43.46875 C 7.515625 -50.226562 6.375 -57.351562 6.375 -64.84375 C 6.375 -72.394531 7.515625 -79.566406 9.796875 -86.359375 C 12.085938 -93.148438 15.34375 -99.351562 19.5625 -104.96875 C 23.789062 -110.59375 28.757812 -115.46875 34.46875 -119.59375 C 40.175781 -123.71875 46.457031 -126.90625 53.3125 -129.15625 C 60.175781 -131.414062 67.414062 -132.546875 75.03125 -132.546875 C 80.488281 -132.546875 85.976562 -131.894531 91.5 -130.59375 C 97.019531 -129.289062 102.300781 -127.367188 107.34375 -124.828125 C 112.394531 -122.285156 117.015625 -119.15625 121.203125 -115.4375 C 125.398438 -111.726562 128.972656 -107.476562 131.921875 -102.6875 C 134.867188 -97.894531 136.945312 -92.578125 138.15625 -86.734375 L 114.0625 -86.734375 C 110.695312 -94.296875 105.554688 -100.203125 98.640625 -104.453125 C 91.722656 -108.703125 83.660156 -110.828125 74.453125 -110.828125 C 68.359375 -110.828125 62.613281 -109.734375 57.21875 -107.546875 C 51.820312 -105.359375 47.09375 -102.234375 43.03125 -98.171875 C 38.96875 -94.109375 35.78125 -89.265625 33.46875 -83.640625 C 31.15625 -78.023438 30 -71.757812 30 -64.84375 C 30 -57.789062 31.15625 -51.457031 33.46875 -45.84375 C 35.78125 -40.226562 38.96875 -35.421875 43.03125 -31.421875 C 47.09375 -27.421875 51.820312 -24.359375 57.21875 -22.234375 C 62.613281 -20.109375 68.359375 -19.046875 74.453125 -19.046875 C 82.203125 -19.046875 88.898438 -20.363281 94.546875 -23 C 100.191406 -25.632812 104.773438 -29.265625 108.296875 -33.890625 C 111.828125 -38.523438 114.195312 -43.859375 115.40625 -49.890625 L 73.5 -49.890625 L 73.5 -69.703125 L 141.109375 -69.703125 C 141.171875 -59.097656 139.738281 -49.367188 136.8125 -40.515625 C 133.894531 -31.660156 129.582031 -23.992188 123.875 -17.515625 C 118.164062 -11.046875 111.179688 -6.046875 102.921875 -2.515625 C 94.671875 1.003906 85.25 2.765625 74.65625 2.765625 Z M 74.65625 2.765625 "/></g></g></g><g fill="#c19ee0" fill-opacity="1"><g transform="translate(1015.50252, 217.00176)"><g><path d="M 24.84375 -113.109375 C 20.40625 -113.109375 16.929688 -114.394531 14.421875 -116.96875 C 11.921875 -119.539062 10.671875 -122.664062 10.671875 -126.34375 C 10.671875 -129.90625 11.921875 -132.984375 14.421875 -135.578125 C 16.929688 -138.179688 20.441406 -139.484375 24.953125 -139.484375 C 29.578125 -139.484375 33.144531 -138.179688 35.65625 -135.578125 C 38.164062 -132.984375 39.421875 -129.90625 39.421875 -126.34375 C 39.421875 -122.664062 38.164062 -119.539062 35.65625 -116.96875 C 33.144531 -114.394531 29.539062 -113.109375 24.84375 -113.109375 Z M 36.5625 0 L 13.515625 0 L 13.515625 -97.875 L 36.5625 -97.875 Z M 36.5625 0 "/></g></g></g><g fill="#c19ee0" fill-opacity="1"><g transform="translate(1072.510308, 217.00176)"><g><path d="M 44.28125 0 L 21.234375 0 L 21.234375 -78.171875 L 1.71875 -78.171875 L 1.71875 -97.875 L 21.234375 -97.875 L 21.234375 -103.5 C 21.234375 -107.238281 21.785156 -110.984375 22.890625 -114.734375 C 24.003906 -118.484375 25.75 -121.910156 28.125 -125.015625 C 30.507812 -128.128906 33.640625 -130.617188 37.515625 -132.484375 C 41.390625 -134.359375 46.085938 -135.296875 51.609375 -135.296875 L 70.359375 -135.296875 L 70.359375 -116.15625 L 57.421875 -116.15625 C 54.554688 -116.15625 52.15625 -115.488281 50.21875 -114.15625 C 48.289062 -112.820312 46.816406 -111.0625 45.796875 -108.875 C 44.785156 -106.6875 44.28125 -104.289062 44.28125 -101.6875 L 44.28125 -97.875 L 69.890625 -97.875 L 69.890625 -78.171875 L 44.28125 -78.171875 Z M 44.28125 0 "/></g></g></g><g fill="#c19ee0" fill-opacity="1"><g transform="translate(1150.941447, 217.00176)"><g><path d="M 73.703125 0 L 53.796875 0 C 50.878906 0 47.878906 -0.269531 44.796875 -0.8125 C 41.722656 -1.351562 38.785156 -2.351562 35.984375 -3.8125 C 33.191406 -5.269531 30.703125 -7.378906 28.515625 -10.140625 C 26.328125 -12.898438 24.582031 -16.484375 23.28125 -20.890625 C 21.976562 -25.304688 21.328125 -30.753906 21.328125 -37.234375 L 21.328125 -78.078125 L 1.046875 -78.078125 L 1.046875 -97.875 L 21.328125 -97.875 L 21.328125 -126.546875 L 44.375 -126.734375 L 44.375 -97.875 L 73.703125 -97.875 L 73.703125 -78.078125 L 44.375 -78.078125 L 44.375 -36.1875 C 44.375 -31.613281 45.039062 -28.085938 46.375 -25.609375 C 47.707031 -23.140625 49.46875 -21.441406 51.65625 -20.515625 C 53.84375 -19.597656 56.144531 -19.140625 58.5625 -19.140625 L 73.703125 -19.140625 Z M 73.703125 0 "/></g></g></g><path fill="#f8a716" d="M 177.25 81.234375 C 177.25 81.234375 98.628906 92.445312 92.867188 68.039062 C 95.742188 55.542969 94.46875 47.78125 101.746094 31.183594 C 148.757812 12.785156 181.789062 65.636719 181.789062 65.636719 L 177.25 81.234375 " fill-opacity="1" fill-rule="nonzero"/><path fill="#fbc512" d="M 177.25 81.234375 C 177.25 81.234375 136.757812 11.96875 92.867188 68.039062 C 90.1875 52.003906 92.140625 26.324219 96.785156 10.363281 C 144.992188 -31.089844 186.945312 62.667969 186.945312 62.667969 L 177.25 81.234375 " fill-opacity="1" fill-rule="nonzero"/><path fill="#f8a716" d="M 205.300781 81.234375 C 205.300781 81.234375 283.917969 92.445312 289.683594 68.039062 C 286.808594 55.542969 288.078125 47.78125 280.800781 31.183594 C 233.789062 12.785156 200.761719 65.636719 200.761719 65.636719 L 205.300781 81.234375 " fill-opacity="1" fill-rule="nonzero"/><path fill="#fbc512" d="M 205.300781 81.234375 C 205.300781 81.234375 245.804688 11.96875 289.683594 68.039062 C 292.359375 52.003906 290.410156 26.324219 285.765625 10.363281 C 237.558594 -31.089844 195.601562 62.667969 195.601562 62.667969 L 205.300781 81.234375 " fill-opacity="1" fill-rule="nonzero"/><path fill="#fddd0f" d="M 210.339844 77.195312 C 206.480469 82.972656 173.753906 84.53125 172.46875 77.195312 C 171.179688 69.839844 166.6875 49.640625 172.46875 44.164062 C 178.246094 38.6875 205.195312 39.367188 210.339844 44.164062 C 215.46875 48.945312 214.183594 71.414062 210.339844 77.195312 " fill-opacity="1" fill-rule="nonzero"/><g clip-path="url(#b82c0785f5)"><path fill="#9355c9" d="M 331.15625 145.992188 L 51.394531 145.992188 L 51.394531 79.980469 L 331.15625 79.980469 L 331.15625 145.992188 " fill-opacity="1" fill-rule="nonzero"/></g><g clip-path="url(#c596216130)"><path fill="#773eaa" d="M 317.007812 300.007812 L 65.539062 300.007812 L 65.539062 145.992188 L 317.007812 145.992188 L 317.007812 300.007812 " fill-opacity="1" fill-rule="nonzero"/></g><path fill="#fddd0f" d="M 221.140625 145.992188 L 161.40625 145.992188 L 161.40625 79.980469 L 221.140625 79.980469 L 221.140625 145.992188 " fill-opacity="1" fill-rule="nonzero"/><g clip-path="url(#a4eeb6e582)"><path fill="#fbc512" d="M 218.117188 300.007812 L 164.433594 300.007812 L 164.433594 145.992188 L 218.117188 145.992188 L 218.117188 300.007812 " fill-opacity="1" fill-rule="nonzero"/></g></svg>