<svg xmlns="http://www.w3.org/2000/svg" xmlns:xlink="http://www.w3.org/1999/xlink" width="1700" zoomAndPan="magnify" viewBox="0 0 1275 299.999988" height="400" preserveAspectRatio="xMidYMid meet" version="1.0"><defs><g/><clipPath id="6994e36d18"><path d="M 61.5 84 L 339 84 L 339 293 L 61.5 293 Z M 61.5 84 " clip-rule="nonzero"/></clipPath><clipPath id="db03697b51"><path d="M 246 153 L 361.5 153 L 361.5 223 L 246 223 Z M 246 153 " clip-rule="nonzero"/></clipPath></defs><g fill="#ffffff" fill-opacity="1"><g transform="translate(411.56715, 212.750022)"><g><path d="M 70.828125 2.625 C 63.597656 2.625 56.726562 1.554688 50.21875 -0.578125 C 43.71875 -2.722656 37.769531 -5.75 32.375 -9.65625 C 26.988281 -13.570312 22.320312 -18.207031 18.375 -23.5625 C 14.4375 -28.925781 11.382812 -34.832031 9.21875 -41.28125 C 7.050781 -47.726562 5.96875 -54.503906 5.96875 -61.609375 C 5.96875 -68.773438 7.050781 -75.5625 9.21875 -81.96875 C 11.382812 -88.382812 14.4375 -94.253906 18.375 -99.578125 C 22.320312 -104.910156 26.988281 -109.535156 32.375 -113.453125 C 37.769531 -117.367188 43.71875 -120.394531 50.21875 -122.53125 C 56.726562 -124.675781 63.597656 -125.75 70.828125 -125.75 C 77.328125 -125.75 83.769531 -124.785156 90.15625 -122.859375 C 96.539062 -120.929688 102.5 -117.992188 108.03125 -114.046875 C 113.570312 -110.097656 118.269531 -105.113281 122.125 -99.09375 C 125.976562 -93.070312 128.628906 -85.96875 130.078125 -77.78125 L 107.140625 -77.78125 C 105.503906 -84.101562 102.894531 -89.28125 99.3125 -93.3125 C 95.738281 -97.34375 91.453125 -100.320312 86.453125 -102.25 C 81.453125 -104.175781 76.03125 -105.140625 70.1875 -105.140625 C 64.40625 -105.140625 58.984375 -104.097656 53.921875 -102.015625 C 48.867188 -99.941406 44.429688 -96.976562 40.609375 -93.125 C 36.785156 -89.269531 33.800781 -84.675781 31.65625 -79.34375 C 29.519531 -74.019531 28.453125 -68.078125 28.453125 -61.515625 C 28.453125 -54.828125 29.519531 -48.816406 31.65625 -43.484375 C 33.800781 -38.160156 36.785156 -33.601562 40.609375 -29.8125 C 44.429688 -26.019531 48.867188 -23.113281 53.921875 -21.09375 C 58.984375 -19.070312 64.40625 -18.0625 70.1875 -18.0625 C 76.03125 -18.0625 81.4375 -19.023438 86.40625 -20.953125 C 91.375 -22.878906 95.660156 -25.859375 99.265625 -29.890625 C 102.878906 -33.929688 105.472656 -39.082031 107.046875 -45.34375 L 130.078125 -45.34375 C 128.628906 -37.15625 125.976562 -30.035156 122.125 -23.984375 C 118.269531 -17.929688 113.601562 -12.945312 108.125 -9.03125 C 102.644531 -5.113281 96.695312 -2.191406 90.28125 -0.265625 C 83.875 1.660156 77.390625 2.625 70.828125 2.625 Z M 70.828125 2.625 "/></g></g></g><g fill="#ffffff" fill-opacity="1"><g transform="translate(554.351778, 212.750022)"><g><path d="M 64.953125 2.703125 C 57.546875 2.703125 50.664062 1.53125 44.3125 -0.8125 C 37.957031 -3.164062 32.382812 -6.523438 27.59375 -10.890625 C 22.8125 -15.253906 19.09375 -20.535156 16.4375 -26.734375 C 13.789062 -32.941406 12.46875 -39.867188 12.46875 -47.515625 L 12.46875 -122.859375 L 34.875 -122.859375 L 34.875 -49.140625 C 34.875 -43.359375 36.03125 -38.101562 38.34375 -33.375 C 40.664062 -28.644531 44.066406 -24.878906 48.546875 -22.078125 C 53.035156 -19.285156 58.503906 -17.890625 64.953125 -17.890625 C 71.273438 -17.890625 76.660156 -19.273438 81.109375 -22.046875 C 85.566406 -24.816406 88.984375 -28.5625 91.359375 -33.28125 C 93.742188 -38.007812 94.9375 -43.265625 94.9375 -49.046875 L 94.9375 -122.859375 L 117.4375 -122.859375 L 117.4375 -47.515625 C 117.4375 -40.171875 116.171875 -33.441406 113.640625 -27.328125 C 111.109375 -21.210938 107.523438 -15.910156 102.890625 -11.421875 C 98.253906 -6.941406 92.710938 -3.46875 86.265625 -1 C 79.828125 1.46875 72.722656 2.703125 64.953125 2.703125 Z M 64.953125 2.703125 "/></g></g></g><g fill="#ffffff" fill-opacity="1"><g transform="translate(690.813427, 212.750022)"><g><path d="M 73.34375 0 L 14.640625 0 L 14.640625 -122.859375 L 68.203125 -122.859375 C 75.671875 -122.859375 82.203125 -121.515625 87.796875 -118.828125 C 93.398438 -116.148438 97.765625 -112.328125 100.890625 -107.359375 C 104.023438 -102.390625 105.59375 -96.472656 105.59375 -89.609375 C 105.59375 -85.992188 104.882812 -82.546875 103.46875 -79.265625 C 102.0625 -75.984375 100.179688 -73.09375 97.828125 -70.59375 C 95.484375 -68.09375 92.894531 -66.242188 90.0625 -65.046875 C 94.21875 -63.710938 97.992188 -61.613281 101.390625 -58.75 C 104.796875 -55.894531 107.519531 -52.492188 109.5625 -48.546875 C 111.613281 -44.609375 112.640625 -40.320312 112.640625 -35.6875 C 112.640625 -29.601562 111.539062 -24.316406 109.34375 -19.828125 C 107.144531 -15.335938 104.164062 -11.632812 100.40625 -8.71875 C 96.644531 -5.800781 92.425781 -3.617188 87.75 -2.171875 C 83.082031 -0.722656 78.28125 0 73.34375 0 Z M 37.3125 -103.515625 L 37.3125 -71.546875 L 67.109375 -71.546875 C 70.128906 -71.546875 72.828125 -72.25 75.203125 -73.65625 C 77.578125 -75.070312 79.457031 -77 80.84375 -79.4375 C 82.226562 -81.882812 82.921875 -84.613281 82.921875 -87.625 C 82.921875 -90.632812 82.226562 -93.34375 80.84375 -95.75 C 79.457031 -98.15625 77.585938 -100.050781 75.234375 -101.4375 C 72.890625 -102.820312 70.210938 -103.515625 67.203125 -103.515625 Z M 37.3125 -54.65625 L 37.3125 -19.421875 L 71.359375 -19.421875 C 74.859375 -19.421875 77.976562 -20.1875 80.71875 -21.71875 C 83.457031 -23.257812 85.625 -25.382812 87.21875 -28.09375 C 88.8125 -30.800781 89.609375 -33.898438 89.609375 -37.390625 C 89.609375 -40.585938 88.820312 -43.476562 87.25 -46.0625 C 85.6875 -48.65625 83.535156 -50.734375 80.796875 -52.296875 C 78.054688 -53.867188 74.972656 -54.65625 71.546875 -54.65625 Z M 37.3125 -54.65625 "/></g></g></g><g fill="#ffffff" fill-opacity="1"><g transform="translate(815.893747, 212.750022)"><g><path d="M 37.125 0 L 14.640625 0 L 14.640625 -122.859375 L 37.125 -122.859375 Z M 37.125 0 "/></g></g></g><g fill="#b0e0eb" fill-opacity="1"><g transform="translate(874.223362, 212.750022)"><g><path d="M 37.125 0 L 14.640625 0 L 14.640625 -122.859375 L 66.390625 -122.859375 C 72.597656 -122.859375 78.304688 -121.832031 83.515625 -119.78125 C 88.722656 -117.726562 93.222656 -114.847656 97.015625 -111.140625 C 100.804688 -107.441406 103.753906 -103.0625 105.859375 -98 C 107.972656 -92.945312 109.03125 -87.441406 109.03125 -81.484375 C 109.03125 -75.160156 107.988281 -69.40625 105.90625 -64.21875 C 103.832031 -59.039062 100.910156 -54.582031 97.140625 -50.84375 C 93.378906 -47.113281 88.910156 -44.238281 83.734375 -42.21875 C 78.554688 -40.207031 72.894531 -39.203125 66.75 -39.203125 L 37.125 -39.203125 Z M 37.125 -102.796875 L 37.125 -59.265625 L 65.671875 -59.265625 C 69.585938 -59.265625 73.125 -60.238281 76.28125 -62.1875 C 79.445312 -64.144531 81.945312 -66.796875 83.78125 -70.140625 C 85.613281 -73.484375 86.53125 -77.265625 86.53125 -81.484375 C 86.53125 -85.210938 85.597656 -88.703125 83.734375 -91.953125 C 81.867188 -95.210938 79.351562 -97.832031 76.1875 -99.8125 C 73.03125 -101.800781 69.460938 -102.796875 65.484375 -102.796875 Z M 37.125 -102.796875 "/></g></g></g><g fill="#b0e0eb" fill-opacity="1"><g transform="translate(992.709688, 212.750022)"><g><path d="M 49.953125 2.796875 C 43.691406 2.796875 37.894531 1.535156 32.5625 -0.984375 C 27.238281 -3.515625 22.601562 -7.039062 18.65625 -11.5625 C 14.707031 -16.082031 11.648438 -21.320312 9.484375 -27.28125 C 7.316406 -33.238281 6.234375 -39.625 6.234375 -46.4375 C 6.234375 -53.238281 7.332031 -59.601562 9.53125 -65.53125 C 11.726562 -71.46875 14.796875 -76.691406 18.734375 -81.203125 C 22.679688 -85.722656 27.304688 -89.257812 32.609375 -91.8125 C 37.910156 -94.375 43.660156 -95.65625 49.859375 -95.65625 C 57.453125 -95.65625 64.195312 -94.015625 70.09375 -90.734375 C 76 -87.453125 80.425781 -82.921875 83.375 -77.140625 L 83.375 -92.859375 L 104.15625 -92.859375 L 104.15625 0 L 83.375 0 L 83.375 -15.625 C 80.363281 -9.84375 75.921875 -5.328125 70.046875 -2.078125 C 64.179688 1.171875 57.484375 2.796875 49.953125 2.796875 Z M 55.1875 -17.4375 C 58.988281 -17.4375 62.546875 -18.171875 65.859375 -19.640625 C 69.171875 -21.117188 72.070312 -23.164062 74.5625 -25.78125 C 77.0625 -28.40625 79.003906 -31.476562 80.390625 -35 C 81.773438 -38.519531 82.46875 -42.332031 82.46875 -46.4375 C 82.46875 -50.46875 81.757812 -54.242188 80.34375 -57.765625 C 78.9375 -61.285156 77 -64.367188 74.53125 -67.015625 C 72.0625 -69.671875 69.171875 -71.734375 65.859375 -73.203125 C 62.546875 -74.679688 58.988281 -75.421875 55.1875 -75.421875 C 50.195312 -75.421875 45.632812 -74.21875 41.5 -71.8125 C 37.375 -69.40625 34.078125 -66.03125 31.609375 -61.6875 C 29.140625 -57.351562 27.90625 -52.269531 27.90625 -46.4375 C 27.90625 -40.40625 29.15625 -35.222656 31.65625 -30.890625 C 34.15625 -26.554688 37.484375 -23.226562 41.640625 -20.90625 C 45.796875 -18.59375 50.3125 -17.4375 55.1875 -17.4375 Z M 55.1875 -17.4375 "/></g></g></g><g fill="#b0e0eb" fill-opacity="1"><g transform="translate(1116.344734, 212.750022)"><g><path d="M 20.046875 31.703125 L 4.421875 31.703125 L 4.421875 13.640625 L 19.875 13.640625 C 23.125 13.640625 25.785156 13.113281 27.859375 12.0625 C 29.941406 11.007812 31.703125 9.394531 33.140625 7.21875 C 34.585938 5.050781 35.945312 2.253906 37.21875 -1.171875 L 38.296875 -4.34375 L 2.703125 -92.859375 L 25.75 -92.859375 L 47.609375 -36.671875 L 49.953125 -27.09375 L 52.390625 -36.578125 L 73.890625 -92.765625 L 97.203125 -92.859375 L 60.96875 -2.078125 C 58.257812 4.847656 55.550781 10.523438 52.84375 14.953125 C 50.132812 19.378906 47.226562 22.8125 44.125 25.25 C 41.019531 27.6875 37.523438 29.367188 33.640625 30.296875 C 29.765625 31.234375 25.234375 31.703125 20.046875 31.703125 Z M 20.046875 31.703125 "/></g></g></g><path fill="#3faa84" d="M 162.417969 16.34375 L 227.496094 40.03125 C 228.207031 40.289062 228.902344 40.582031 229.582031 40.90625 C 230.265625 41.234375 230.929688 41.59375 231.574219 41.988281 C 232.222656 42.378906 232.847656 42.800781 233.453125 43.253906 C 234.058594 43.710938 234.636719 44.191406 235.195312 44.703125 C 235.753906 45.214844 236.285156 45.75 236.789062 46.3125 C 237.292969 46.875 237.769531 47.460938 238.214844 48.070312 C 238.664062 48.683594 239.078125 49.3125 239.464844 49.960938 C 239.851562 50.613281 240.203125 51.28125 240.523438 51.964844 C 240.839844 52.652344 241.125 53.351562 241.378906 54.0625 C 241.628906 54.777344 241.84375 55.5 242.023438 56.234375 C 242.203125 56.96875 242.347656 57.710938 242.453125 58.460938 C 242.558594 59.207031 242.628906 59.960938 242.664062 60.714844 C 242.695312 61.472656 242.691406 62.226562 242.652344 62.980469 C 242.609375 63.734375 242.53125 64.488281 242.417969 65.234375 C 242.300781 65.980469 242.148438 66.722656 241.960938 67.453125 C 241.773438 68.1875 241.550781 68.90625 241.292969 69.617188 L 197.867188 188.929688 C 197.609375 189.640625 197.316406 190.335938 196.988281 191.015625 C 196.660156 191.699219 196.300781 192.363281 195.910156 193.007812 C 195.519531 193.65625 195.09375 194.28125 194.640625 194.886719 C 194.1875 195.492188 193.707031 196.070312 193.195312 196.628906 C 192.683594 197.1875 192.148438 197.71875 191.582031 198.222656 C 191.019531 198.726562 190.433594 199.203125 189.824219 199.648438 C 189.214844 200.097656 188.585938 200.511719 187.933594 200.898438 C 187.285156 201.28125 186.617188 201.636719 185.929688 201.953125 C 185.246094 202.273438 184.546875 202.558594 183.832031 202.8125 C 183.121094 203.0625 182.394531 203.277344 181.660156 203.457031 C 180.925781 203.636719 180.183594 203.78125 179.4375 203.886719 C 178.6875 203.992188 177.9375 204.0625 177.179688 204.097656 C 176.425781 204.128906 175.671875 204.125 174.914062 204.082031 C 174.160156 204.042969 173.410156 203.964844 172.664062 203.847656 C 171.914062 203.734375 171.175781 203.582031 170.441406 203.394531 C 169.710938 203.207031 168.988281 202.984375 168.277344 202.726562 L 103.199219 179.039062 C 102.488281 178.78125 101.792969 178.488281 101.113281 178.160156 C 100.429688 177.832031 99.765625 177.472656 99.121094 177.082031 C 98.472656 176.691406 97.847656 176.265625 97.242188 175.8125 C 96.636719 175.359375 96.058594 174.878906 95.5 174.367188 C 94.941406 173.855469 94.410156 173.320312 93.90625 172.753906 C 93.402344 172.191406 92.925781 171.605469 92.480469 170.996094 C 92.03125 170.386719 91.617188 169.757812 91.230469 169.105469 C 90.84375 168.457031 90.492188 167.789062 90.171875 167.101562 C 89.855469 166.417969 89.570312 165.71875 89.316406 165.003906 C 89.066406 164.292969 88.851562 163.566406 88.671875 162.832031 C 88.492188 162.097656 88.347656 161.359375 88.242188 160.609375 C 88.136719 159.859375 88.066406 159.109375 88.03125 158.351562 C 88 157.597656 88.003906 156.84375 88.046875 156.085938 C 88.085938 155.332031 88.164062 154.582031 88.28125 153.835938 C 88.394531 153.085938 88.546875 152.347656 88.734375 151.613281 C 88.921875 150.882812 89.144531 150.160156 89.402344 149.449219 L 132.828125 30.140625 C 133.085938 29.429688 133.378906 28.734375 133.707031 28.050781 C 134.035156 27.371094 134.394531 26.707031 134.785156 26.058594 C 135.179688 25.414062 135.601562 24.789062 136.054688 24.183594 C 136.507812 23.578125 136.992188 22.996094 137.5 22.441406 C 138.011719 21.882812 138.550781 21.351562 139.113281 20.847656 C 139.675781 20.34375 140.261719 19.867188 140.871094 19.417969 C 141.480469 18.972656 142.109375 18.554688 142.761719 18.171875 C 143.410156 17.785156 144.078125 17.433594 144.765625 17.113281 C 145.449219 16.792969 146.148438 16.507812 146.863281 16.257812 C 147.574219 16.007812 148.300781 15.792969 149.035156 15.613281 C 149.769531 15.433594 150.511719 15.289062 151.257812 15.183594 C 152.007812 15.074219 152.757812 15.003906 153.515625 14.972656 C 154.269531 14.941406 155.023438 14.945312 155.78125 14.984375 C 156.535156 15.027344 157.285156 15.105469 158.03125 15.21875 C 158.78125 15.335938 159.519531 15.484375 160.253906 15.671875 C 160.984375 15.859375 161.707031 16.085938 162.417969 16.34375 Z M 162.417969 16.34375 " fill-opacity="1" fill-rule="nonzero"/><path fill="#50c295" d="M 220.226562 16.34375 L 285.304688 40.03125 C 286.015625 40.289062 286.710938 40.582031 287.394531 40.910156 C 288.074219 41.234375 288.738281 41.59375 289.386719 41.988281 C 290.03125 42.378906 290.65625 42.804688 291.261719 43.257812 C 291.867188 43.710938 292.449219 44.191406 293.007812 44.703125 C 293.5625 45.214844 294.09375 45.75 294.597656 46.3125 C 295.105469 46.875 295.578125 47.464844 296.027344 48.074219 C 296.472656 48.683594 296.890625 49.3125 297.273438 49.964844 C 297.660156 50.613281 298.011719 51.28125 298.332031 51.96875 C 298.652344 52.652344 298.9375 53.351562 299.1875 54.066406 C 299.4375 54.777344 299.652344 55.5 299.832031 56.234375 C 300.011719 56.96875 300.15625 57.710938 300.261719 58.460938 C 300.371094 59.210938 300.441406 59.960938 300.472656 60.714844 C 300.507812 61.472656 300.5 62.226562 300.460938 62.980469 C 300.417969 63.738281 300.339844 64.488281 300.226562 65.234375 C 300.109375 65.980469 299.960938 66.722656 299.773438 67.453125 C 299.585938 68.1875 299.363281 68.910156 299.101562 69.617188 L 255.675781 188.929688 C 255.417969 189.640625 255.125 190.335938 254.800781 191.019531 C 254.472656 191.699219 254.113281 192.363281 253.71875 193.007812 C 253.328125 193.65625 252.90625 194.28125 252.453125 194.886719 C 251.996094 195.492188 251.515625 196.074219 251.003906 196.628906 C 250.492188 197.1875 249.957031 197.71875 249.394531 198.222656 C 248.832031 198.726562 248.246094 199.203125 247.636719 199.652344 C 247.023438 200.097656 246.394531 200.515625 245.746094 200.898438 C 245.09375 201.285156 244.425781 201.636719 243.742188 201.957031 C 243.054688 202.277344 242.355469 202.5625 241.644531 202.8125 C 240.929688 203.0625 240.207031 203.277344 239.472656 203.457031 C 238.738281 203.636719 237.996094 203.78125 237.246094 203.886719 C 236.5 203.992188 235.746094 204.0625 234.992188 204.097656 C 234.234375 204.128906 233.480469 204.125 232.726562 204.085938 C 231.972656 204.042969 231.21875 203.964844 230.472656 203.851562 C 229.726562 203.734375 228.984375 203.582031 228.253906 203.394531 C 227.519531 203.207031 226.800781 202.984375 226.089844 202.726562 L 161.011719 179.039062 C 160.300781 178.78125 159.605469 178.488281 158.921875 178.160156 C 158.242188 177.835938 157.578125 177.476562 156.929688 177.082031 C 156.285156 176.691406 155.65625 176.269531 155.054688 175.8125 C 154.449219 175.359375 153.867188 174.878906 153.308594 174.367188 C 152.753906 173.855469 152.222656 173.320312 151.714844 172.757812 C 151.210938 172.195312 150.734375 171.605469 150.289062 170.996094 C 149.84375 170.386719 149.425781 169.757812 149.039062 169.105469 C 148.65625 168.457031 148.304688 167.789062 147.984375 167.101562 C 147.664062 166.417969 147.378906 165.71875 147.128906 165.003906 C 146.878906 164.292969 146.664062 163.570312 146.484375 162.835938 C 146.304688 162.101562 146.160156 161.359375 146.050781 160.609375 C 145.945312 159.863281 145.875 159.109375 145.84375 158.355469 C 145.808594 157.597656 145.8125 156.84375 145.855469 156.089844 C 145.894531 155.332031 145.972656 154.582031 146.089844 153.835938 C 146.203125 153.089844 146.355469 152.347656 146.542969 151.617188 C 146.730469 150.882812 146.953125 150.164062 147.214844 149.453125 L 190.636719 30.140625 C 190.898438 29.429688 191.191406 28.734375 191.515625 28.054688 C 191.84375 27.371094 192.203125 26.707031 192.597656 26.0625 C 192.988281 25.414062 193.410156 24.789062 193.863281 24.183594 C 194.316406 23.578125 194.800781 22.996094 195.3125 22.441406 C 195.820312 21.882812 196.359375 21.351562 196.921875 20.847656 C 197.484375 20.34375 198.070312 19.867188 198.679688 19.417969 C 199.289062 18.972656 199.921875 18.554688 200.570312 18.171875 C 201.222656 17.785156 201.890625 17.433594 202.574219 17.113281 C 203.261719 16.796875 203.960938 16.507812 204.671875 16.257812 C 205.386719 16.007812 206.109375 15.792969 206.84375 15.613281 C 207.578125 15.433594 208.320312 15.289062 209.070312 15.183594 C 209.816406 15.078125 210.570312 15.007812 211.324219 14.972656 C 212.078125 14.941406 212.835938 14.945312 213.589844 14.984375 C 214.34375 15.027344 215.097656 15.105469 215.84375 15.21875 C 216.589844 15.335938 217.332031 15.488281 218.0625 15.675781 C 218.796875 15.863281 219.515625 16.085938 220.226562 16.34375 Z M 220.226562 16.34375 " fill-opacity="1" fill-rule="nonzero"/><g clip-path="url(#6994e36d18)"><path fill="#1a75d0" d="M 84.585938 84.265625 L 315.433594 84.265625 C 316.191406 84.265625 316.945312 84.304688 317.699219 84.378906 C 318.449219 84.453125 319.199219 84.5625 319.9375 84.710938 C 320.679688 84.859375 321.414062 85.039062 322.136719 85.261719 C 322.859375 85.480469 323.570312 85.734375 324.269531 86.023438 C 324.96875 86.3125 325.652344 86.636719 326.316406 86.992188 C 326.984375 87.347656 327.632812 87.738281 328.261719 88.15625 C 328.890625 88.578125 329.496094 89.027344 330.082031 89.507812 C 330.664062 89.984375 331.222656 90.492188 331.757812 91.027344 C 332.292969 91.5625 332.800781 92.121094 333.28125 92.707031 C 333.761719 93.289062 334.210938 93.898438 334.628906 94.527344 C 335.050781 95.15625 335.4375 95.800781 335.792969 96.46875 C 336.152344 97.136719 336.472656 97.820312 336.761719 98.515625 C 337.050781 99.214844 337.308594 99.925781 337.527344 100.648438 C 337.746094 101.375 337.929688 102.105469 338.078125 102.847656 C 338.222656 103.589844 338.335938 104.335938 338.410156 105.089844 C 338.484375 105.839844 338.519531 106.59375 338.519531 107.351562 L 338.519531 268.945312 C 338.519531 269.703125 338.484375 270.457031 338.410156 271.210938 C 338.335938 271.960938 338.222656 272.707031 338.078125 273.449219 C 337.929688 274.191406 337.746094 274.925781 337.527344 275.648438 C 337.308594 276.371094 337.050781 277.082031 336.761719 277.78125 C 336.472656 278.480469 336.152344 279.160156 335.792969 279.828125 C 335.4375 280.496094 335.050781 281.144531 334.628906 281.773438 C 334.210938 282.402344 333.761719 283.007812 333.28125 283.589844 C 332.800781 284.175781 332.292969 284.734375 331.757812 285.269531 C 331.222656 285.804688 330.664062 286.3125 330.082031 286.792969 C 329.496094 287.269531 328.890625 287.722656 328.261719 288.140625 C 327.632812 288.5625 326.984375 288.949219 326.316406 289.304688 C 325.652344 289.664062 324.96875 289.984375 324.269531 290.273438 C 323.570312 290.5625 322.859375 290.816406 322.136719 291.039062 C 321.414062 291.257812 320.679688 291.441406 319.9375 291.589844 C 319.199219 291.734375 318.449219 291.847656 317.699219 291.921875 C 316.945312 291.996094 316.191406 292.03125 315.433594 292.03125 L 84.585938 292.03125 C 83.828125 292.03125 83.074219 291.996094 82.324219 291.921875 C 81.570312 291.847656 80.824219 291.734375 80.082031 291.589844 C 79.339844 291.441406 78.605469 291.257812 77.882812 291.039062 C 77.160156 290.816406 76.449219 290.5625 75.75 290.273438 C 75.050781 289.984375 74.371094 289.664062 73.703125 289.304688 C 73.035156 288.949219 72.386719 288.5625 71.757812 288.140625 C 71.132812 287.722656 70.523438 287.269531 69.941406 286.792969 C 69.355469 286.3125 68.796875 285.804688 68.261719 285.269531 C 67.726562 284.734375 67.21875 284.175781 66.738281 283.589844 C 66.261719 283.007812 65.8125 282.402344 65.390625 281.773438 C 64.96875 281.144531 64.582031 280.496094 64.226562 279.828125 C 63.871094 279.160156 63.546875 278.480469 63.257812 277.78125 C 62.96875 277.082031 62.714844 276.371094 62.492188 275.648438 C 62.273438 274.925781 62.089844 274.191406 61.945312 273.449219 C 61.796875 272.707031 61.683594 271.960938 61.609375 271.210938 C 61.535156 270.457031 61.5 269.703125 61.5 268.945312 L 61.5 107.351562 C 61.5 106.59375 61.535156 105.839844 61.609375 105.089844 C 61.683594 104.335938 61.796875 103.589844 61.945312 102.847656 C 62.089844 102.105469 62.273438 101.375 62.492188 100.648438 C 62.714844 99.925781 62.96875 99.214844 63.257812 98.515625 C 63.546875 97.820312 63.871094 97.136719 64.226562 96.46875 C 64.582031 95.800781 64.96875 95.15625 65.390625 94.527344 C 65.8125 93.898438 66.261719 93.289062 66.738281 92.707031 C 67.21875 92.121094 67.726562 91.5625 68.261719 91.027344 C 68.796875 90.492188 69.355469 89.984375 69.941406 89.507812 C 70.523438 89.027344 71.132812 88.578125 71.757812 88.15625 C 72.386719 87.738281 73.035156 87.347656 73.703125 86.992188 C 74.371094 86.636719 75.050781 86.3125 75.75 86.023438 C 76.449219 85.734375 77.160156 85.480469 77.882812 85.261719 C 78.605469 85.039062 79.339844 84.859375 80.082031 84.710938 C 80.824219 84.5625 81.570312 84.453125 82.324219 84.378906 C 83.074219 84.304688 83.828125 84.265625 84.585938 84.265625 Z M 84.585938 84.265625 " fill-opacity="1" fill-rule="nonzero"/></g><g clip-path="url(#db03697b51)"><path fill="#eceef0" d="M 269.265625 153.523438 L 350.0625 153.523438 C 350.820312 153.523438 351.570312 153.59375 352.316406 153.742188 C 353.058594 153.890625 353.78125 154.109375 354.480469 154.398438 C 355.179688 154.691406 355.84375 155.046875 356.476562 155.464844 C 357.105469 155.886719 357.6875 156.367188 358.226562 156.902344 C 358.761719 157.4375 359.238281 158.019531 359.660156 158.652344 C 360.082031 159.28125 360.4375 159.945312 360.726562 160.648438 C 361.015625 161.347656 361.234375 162.070312 361.382812 162.8125 C 361.53125 163.554688 361.605469 164.304688 361.605469 165.0625 L 361.605469 211.234375 C 361.605469 211.992188 361.53125 212.742188 361.382812 213.484375 C 361.234375 214.230469 361.015625 214.949219 360.726562 215.652344 C 360.4375 216.351562 360.082031 217.015625 359.660156 217.648438 C 359.238281 218.277344 358.761719 218.859375 358.226562 219.394531 C 357.6875 219.933594 357.105469 220.410156 356.476562 220.832031 C 355.84375 221.253906 355.179688 221.609375 354.480469 221.898438 C 353.78125 222.1875 353.058594 222.40625 352.316406 222.554688 C 351.570312 222.703125 350.820312 222.777344 350.0625 222.777344 L 269.265625 222.777344 C 268.507812 222.777344 267.753906 222.738281 267.003906 222.664062 C 266.25 222.589844 265.503906 222.480469 264.761719 222.332031 C 264.019531 222.183594 263.289062 222.003906 262.5625 221.78125 C 261.839844 221.5625 261.128906 221.308594 260.429688 221.019531 C 259.734375 220.730469 259.050781 220.40625 258.382812 220.050781 C 257.714844 219.695312 257.070312 219.304688 256.441406 218.886719 C 255.8125 218.464844 255.203125 218.015625 254.621094 217.535156 C 254.035156 217.058594 253.476562 216.550781 252.941406 216.015625 C 252.40625 215.480469 251.898438 214.921875 251.421875 214.335938 C 250.941406 213.753906 250.492188 213.144531 250.070312 212.515625 C 249.652344 211.886719 249.261719 211.242188 248.90625 210.574219 C 248.550781 209.90625 248.226562 209.222656 247.9375 208.527344 C 247.648438 207.828125 247.394531 207.117188 247.175781 206.394531 C 246.953125 205.667969 246.769531 204.9375 246.625 204.195312 C 246.476562 203.453125 246.367188 202.707031 246.292969 201.953125 C 246.21875 201.203125 246.179688 200.449219 246.179688 199.691406 L 246.179688 176.605469 C 246.179688 175.851562 246.21875 175.097656 246.292969 174.34375 C 246.367188 173.589844 246.476562 172.84375 246.625 172.101562 C 246.769531 171.363281 246.953125 170.628906 247.175781 169.90625 C 247.394531 169.183594 247.648438 168.472656 247.9375 167.773438 C 248.226562 167.074219 248.550781 166.390625 248.90625 165.722656 C 249.261719 165.058594 249.652344 164.410156 250.070312 163.78125 C 250.492188 163.152344 250.941406 162.546875 251.421875 161.960938 C 251.898438 161.378906 252.40625 160.816406 252.941406 160.28125 C 253.476562 159.75 254.035156 159.242188 254.621094 158.761719 C 255.203125 158.28125 255.8125 157.832031 256.441406 157.410156 C 257.070312 156.992188 257.714844 156.605469 258.382812 156.246094 C 259.050781 155.890625 259.734375 155.566406 260.429688 155.277344 C 261.128906 154.988281 261.839844 154.734375 262.5625 154.515625 C 263.289062 154.296875 264.019531 154.113281 264.761719 153.964844 C 265.503906 153.816406 266.25 153.707031 267.003906 153.632812 C 267.753906 153.558594 268.507812 153.523438 269.265625 153.523438 Z M 269.265625 153.523438 " fill-opacity="1" fill-rule="nonzero"/></g></svg>