<svg xmlns="http://www.w3.org/2000/svg" xmlns:xlink="http://www.w3.org/1999/xlink" width="1700" zoomAndPan="magnify" viewBox="0 0 1275 299.999988" height="400" preserveAspectRatio="xMidYMid meet" version="1.0"><defs><g/></defs><g fill="#ffffff" fill-opacity="1"><g transform="translate(398.45387, 212.750003)"><g><path d="M 70.828125 2.625 C 63.597656 2.625 56.726562 1.554688 50.21875 -0.578125 C 43.71875 -2.722656 37.769531 -5.75 32.375 -9.65625 C 26.988281 -13.570312 22.320312 -18.207031 18.375 -23.5625 C 14.4375 -28.925781 11.382812 -34.832031 9.21875 -41.28125 C 7.050781 -47.726562 5.96875 -54.503906 5.96875 -61.609375 C 5.96875 -68.773438 7.050781 -75.5625 9.21875 -81.96875 C 11.382812 -88.382812 14.4375 -94.253906 18.375 -99.578125 C 22.320312 -104.910156 26.988281 -109.535156 32.375 -113.453125 C 37.769531 -117.367188 43.71875 -120.394531 50.21875 -122.53125 C 56.726562 -124.675781 63.597656 -125.75 70.828125 -125.75 C 77.328125 -125.75 83.769531 -124.785156 90.15625 -122.859375 C 96.539062 -120.929688 102.5 -117.992188 108.03125 -114.046875 C 113.570312 -110.097656 118.269531 -105.113281 122.125 -99.09375 C 125.976562 -93.070312 128.628906 -85.96875 130.078125 -77.78125 L 107.140625 -77.78125 C 105.503906 -84.101562 102.894531 -89.28125 99.3125 -93.3125 C 95.738281 -97.34375 91.453125 -100.320312 86.453125 -102.25 C 81.453125 -104.175781 76.03125 -105.140625 70.1875 -105.140625 C 64.40625 -105.140625 58.984375 -104.097656 53.921875 -102.015625 C 48.867188 -99.941406 44.429688 -96.976562 40.609375 -93.125 C 36.785156 -89.269531 33.800781 -84.675781 31.65625 -79.34375 C 29.519531 -74.019531 28.453125 -68.078125 28.453125 -61.515625 C 28.453125 -54.828125 29.519531 -48.816406 31.65625 -43.484375 C 33.800781 -38.160156 36.785156 -33.601562 40.609375 -29.8125 C 44.429688 -26.019531 48.867188 -23.113281 53.921875 -21.09375 C 58.984375 -19.070312 64.40625 -18.0625 70.1875 -18.0625 C 76.03125 -18.0625 81.4375 -19.023438 86.40625 -20.953125 C 91.375 -22.878906 95.660156 -25.859375 99.265625 -29.890625 C 102.878906 -33.929688 105.472656 -39.082031 107.046875 -45.34375 L 130.078125 -45.34375 C 128.628906 -37.15625 125.976562 -30.035156 122.125 -23.984375 C 118.269531 -17.929688 113.601562 -12.945312 108.125 -9.03125 C 102.644531 -5.113281 96.695312 -2.191406 90.28125 -0.265625 C 83.875 1.660156 77.390625 2.625 70.828125 2.625 Z M 70.828125 2.625 "/></g></g></g><g fill="#ffffff" fill-opacity="1"><g transform="translate(541.238498, 212.750003)"><g><path d="M 64.953125 2.703125 C 57.546875 2.703125 50.664062 1.53125 44.3125 -0.8125 C 37.957031 -3.164062 32.382812 -6.523438 27.59375 -10.890625 C 22.8125 -15.253906 19.09375 -20.535156 16.4375 -26.734375 C 13.789062 -32.941406 12.46875 -39.867188 12.46875 -47.515625 L 12.46875 -122.859375 L 34.875 -122.859375 L 34.875 -49.140625 C 34.875 -43.359375 36.03125 -38.101562 38.34375 -33.375 C 40.664062 -28.644531 44.066406 -24.878906 48.546875 -22.078125 C 53.035156 -19.285156 58.503906 -17.890625 64.953125 -17.890625 C 71.273438 -17.890625 76.660156 -19.273438 81.109375 -22.046875 C 85.566406 -24.816406 88.984375 -28.5625 91.359375 -33.28125 C 93.742188 -38.007812 94.9375 -43.265625 94.9375 -49.046875 L 94.9375 -122.859375 L 117.4375 -122.859375 L 117.4375 -47.515625 C 117.4375 -40.171875 116.171875 -33.441406 113.640625 -27.328125 C 111.109375 -21.210938 107.523438 -15.910156 102.890625 -11.421875 C 98.253906 -6.941406 92.710938 -3.46875 86.265625 -1 C 79.828125 1.46875 72.722656 2.703125 64.953125 2.703125 Z M 64.953125 2.703125 "/></g></g></g><g fill="#ffffff" fill-opacity="1"><g transform="translate(677.700147, 212.750003)"><g><path d="M 73.34375 0 L 14.640625 0 L 14.640625 -122.859375 L 68.203125 -122.859375 C 75.671875 -122.859375 82.203125 -121.515625 87.796875 -118.828125 C 93.398438 -116.148438 97.765625 -112.328125 100.890625 -107.359375 C 104.023438 -102.390625 105.59375 -96.472656 105.59375 -89.609375 C 105.59375 -85.992188 104.882812 -82.546875 103.46875 -79.265625 C 102.0625 -75.984375 100.179688 -73.09375 97.828125 -70.59375 C 95.484375 -68.09375 92.894531 -66.242188 90.0625 -65.046875 C 94.21875 -63.710938 97.992188 -61.613281 101.390625 -58.75 C 104.796875 -55.894531 107.519531 -52.492188 109.5625 -48.546875 C 111.613281 -44.609375 112.640625 -40.320312 112.640625 -35.6875 C 112.640625 -29.601562 111.539062 -24.316406 109.34375 -19.828125 C 107.144531 -15.335938 104.164062 -11.632812 100.40625 -8.71875 C 96.644531 -5.800781 92.425781 -3.617188 87.75 -2.171875 C 83.082031 -0.722656 78.28125 0 73.34375 0 Z M 37.3125 -103.515625 L 37.3125 -71.546875 L 67.109375 -71.546875 C 70.128906 -71.546875 72.828125 -72.25 75.203125 -73.65625 C 77.578125 -75.070312 79.457031 -77 80.84375 -79.4375 C 82.226562 -81.882812 82.921875 -84.613281 82.921875 -87.625 C 82.921875 -90.632812 82.226562 -93.34375 80.84375 -95.75 C 79.457031 -98.15625 77.585938 -100.050781 75.234375 -101.4375 C 72.890625 -102.820312 70.210938 -103.515625 67.203125 -103.515625 Z M 37.3125 -54.65625 L 37.3125 -19.421875 L 71.359375 -19.421875 C 74.859375 -19.421875 77.976562 -20.1875 80.71875 -21.71875 C 83.457031 -23.257812 85.625 -25.382812 87.21875 -28.09375 C 88.8125 -30.800781 89.609375 -33.898438 89.609375 -37.390625 C 89.609375 -40.585938 88.820312 -43.476562 87.25 -46.0625 C 85.6875 -48.65625 83.535156 -50.734375 80.796875 -52.296875 C 78.054688 -53.867188 74.972656 -54.65625 71.546875 -54.65625 Z M 37.3125 -54.65625 "/></g></g></g><g fill="#ffffff" fill-opacity="1"><g transform="translate(802.780467, 212.750003)"><g><path d="M 37.125 0 L 14.640625 0 L 14.640625 -122.859375 L 37.125 -122.859375 Z M 37.125 0 "/></g></g></g><g fill="#c19ee0" fill-opacity="1"><g transform="translate(861.110086, 212.750003)"><g><path d="M 70.828125 2.625 C 63.660156 2.625 56.835938 1.539062 50.359375 -0.625 C 43.890625 -2.800781 37.957031 -5.84375 32.5625 -9.75 C 27.175781 -13.664062 22.492188 -18.285156 18.515625 -23.609375 C 14.546875 -28.941406 11.472656 -34.816406 9.296875 -41.234375 C 7.128906 -47.648438 6.046875 -54.410156 6.046875 -61.515625 C 6.046875 -68.679688 7.128906 -75.484375 9.296875 -81.921875 C 11.472656 -88.367188 14.5625 -94.253906 18.5625 -99.578125 C 22.570312 -104.910156 27.285156 -109.535156 32.703125 -113.453125 C 38.117188 -117.367188 44.078125 -120.394531 50.578125 -122.53125 C 57.085938 -124.675781 63.957031 -125.75 71.1875 -125.75 C 76.363281 -125.75 81.570312 -125.128906 86.8125 -123.890625 C 92.050781 -122.648438 97.0625 -120.828125 101.84375 -118.421875 C 106.632812 -116.015625 111.015625 -113.050781 114.984375 -109.53125 C 118.960938 -106.007812 122.351562 -101.972656 125.15625 -97.421875 C 127.957031 -92.878906 129.929688 -87.835938 131.078125 -82.296875 L 108.21875 -82.296875 C 105.03125 -89.460938 100.148438 -95.0625 93.578125 -99.09375 C 87.015625 -103.125 79.367188 -105.140625 70.640625 -105.140625 C 64.859375 -105.140625 59.40625 -104.097656 54.28125 -102.015625 C 49.164062 -99.941406 44.679688 -96.976562 40.828125 -93.125 C 36.972656 -89.269531 33.945312 -84.675781 31.75 -79.34375 C 29.550781 -74.019531 28.453125 -68.078125 28.453125 -61.515625 C 28.453125 -54.828125 29.550781 -48.816406 31.75 -43.484375 C 33.945312 -38.160156 36.972656 -33.601562 40.828125 -29.8125 C 44.679688 -26.019531 49.164062 -23.113281 54.28125 -21.09375 C 59.40625 -19.070312 64.859375 -18.0625 70.640625 -18.0625 C 77.984375 -18.0625 84.332031 -19.3125 89.6875 -21.8125 C 95.050781 -24.3125 99.40625 -27.757812 102.75 -32.15625 C 106.09375 -36.550781 108.335938 -41.609375 109.484375 -47.328125 L 69.734375 -47.328125 L 69.734375 -66.125 L 133.875 -66.125 C 133.9375 -56.0625 132.582031 -46.828125 129.8125 -38.421875 C 127.039062 -30.023438 122.941406 -22.753906 117.515625 -16.609375 C 112.097656 -10.472656 105.472656 -5.734375 97.640625 -2.390625 C 89.816406 0.953125 80.878906 2.625 70.828125 2.625 Z M 70.828125 2.625 "/></g></g></g><g fill="#c19ee0" fill-opacity="1"><g transform="translate(1007.688499, 212.750003)"><g><path d="M 23.578125 -107.3125 C 19.359375 -107.3125 16.0625 -108.53125 13.6875 -110.96875 C 11.3125 -113.40625 10.125 -116.375 10.125 -119.875 C 10.125 -123.238281 11.3125 -126.15625 13.6875 -128.625 C 16.0625 -131.101562 19.390625 -132.34375 23.671875 -132.34375 C 28.066406 -132.34375 31.453125 -131.101562 33.828125 -128.625 C 36.203125 -126.15625 37.390625 -123.238281 37.390625 -119.875 C 37.390625 -116.375 36.203125 -113.40625 33.828125 -110.96875 C 31.453125 -108.53125 28.035156 -107.3125 23.578125 -107.3125 Z M 34.6875 0 L 12.828125 0 L 12.828125 -92.859375 L 34.6875 -92.859375 Z M 34.6875 0 "/></g></g></g><g fill="#c19ee0" fill-opacity="1"><g transform="translate(1061.770823, 212.750003)"><g><path d="M 42 0 L 20.140625 0 L 20.140625 -74.15625 L 1.625 -74.15625 L 1.625 -92.859375 L 20.140625 -92.859375 L 20.140625 -98.1875 C 20.140625 -101.738281 20.664062 -105.289062 21.71875 -108.84375 C 22.78125 -112.40625 24.4375 -115.660156 26.6875 -118.609375 C 28.945312 -121.554688 31.910156 -123.914062 35.578125 -125.6875 C 39.253906 -127.46875 43.710938 -128.359375 48.953125 -128.359375 L 66.75 -128.359375 L 66.75 -110.203125 L 54.46875 -110.203125 C 51.757812 -110.203125 49.484375 -109.566406 47.640625 -108.296875 C 45.804688 -107.035156 44.40625 -105.363281 43.4375 -103.28125 C 42.476562 -101.207031 42 -98.9375 42 -96.46875 L 42 -92.859375 L 66.296875 -92.859375 L 66.296875 -74.15625 L 42 -74.15625 Z M 42 0 "/></g></g></g><g fill="#c19ee0" fill-opacity="1"><g transform="translate(1136.176983, 212.750003)"><g><path d="M 69.921875 0 L 51.03125 0 C 48.257812 0 45.414062 -0.253906 42.5 -0.765625 C 39.582031 -1.273438 36.796875 -2.222656 34.140625 -3.609375 C 31.492188 -4.992188 29.128906 -6.992188 27.046875 -9.609375 C 24.972656 -12.234375 23.316406 -15.640625 22.078125 -19.828125 C 20.847656 -24.015625 20.234375 -29.175781 20.234375 -35.3125 L 20.234375 -74.078125 L 1 -74.078125 L 1 -92.859375 L 20.234375 -92.859375 L 20.234375 -120.046875 L 42.09375 -120.234375 L 42.09375 -92.859375 L 69.921875 -92.859375 L 69.921875 -74.078125 L 42.09375 -74.078125 L 42.09375 -34.328125 C 42.09375 -29.992188 42.722656 -26.648438 43.984375 -24.296875 C 45.253906 -21.953125 46.925781 -20.34375 49 -19.46875 C 51.082031 -18.59375 53.265625 -18.15625 55.546875 -18.15625 L 69.921875 -18.15625 Z M 69.921875 0 "/></g></g></g><path fill="#773eaa" d="M 217.691406 55.855469 C 217.691406 55.855469 239.96875 -22.257812 274.960938 10.039062 C 303.597656 36.441406 279.945312 73.039062 233.726562 73.039062 Z M 217.691406 55.855469 " fill-opacity="1" fill-rule="nonzero"/><path fill="#773eaa" d="M 194.785156 55.855469 C 194.785156 55.855469 172.503906 -22.257812 137.511719 10.039062 C 108.878906 36.441406 132.53125 73.039062 178.746094 73.039062 Z M 194.785156 55.855469 " fill-opacity="1" fill-rule="nonzero"/><path fill="#773eaa" d="M 77.378906 99.554688 L 335.09375 99.554688 L 335.09375 288.542969 C 335.09375 289.296875 335.023438 290.042969 334.875 290.777344 C 334.726562 291.515625 334.511719 292.234375 334.222656 292.925781 C 333.933594 293.621094 333.582031 294.28125 333.164062 294.90625 C 332.746094 295.535156 332.273438 296.113281 331.738281 296.644531 C 331.207031 297.175781 330.628906 297.648438 330.003906 298.066406 C 329.378906 298.484375 328.71875 298.839844 328.023438 299.125 C 327.328125 299.414062 326.613281 299.632812 325.875 299.777344 C 325.136719 299.925781 324.394531 300 323.640625 300 L 88.835938 300 C 88.082031 300 87.335938 299.925781 86.601562 299.777344 C 85.863281 299.632812 85.144531 299.414062 84.449219 299.125 C 83.757812 298.839844 83.097656 298.484375 82.46875 298.066406 C 81.84375 297.648438 81.265625 297.175781 80.734375 296.644531 C 80.203125 296.113281 79.726562 295.535156 79.308594 294.90625 C 78.894531 294.28125 78.539062 293.621094 78.253906 292.925781 C 77.964844 292.234375 77.746094 291.515625 77.601562 290.777344 C 77.453125 290.042969 77.378906 289.296875 77.378906 288.542969 Z M 77.378906 99.554688 " fill-opacity="1" fill-rule="nonzero"/><path fill="#9355c9" d="M 77.378906 265.636719 L 335.09375 265.636719 L 335.09375 288.542969 C 335.09375 289.296875 335.023438 290.042969 334.875 290.777344 C 334.726562 291.515625 334.511719 292.234375 334.222656 292.925781 C 333.933594 293.621094 333.582031 294.28125 333.164062 294.90625 C 332.746094 295.535156 332.273438 296.113281 331.738281 296.644531 C 331.207031 297.175781 330.628906 297.648438 330.003906 298.066406 C 329.378906 298.484375 328.71875 298.839844 328.023438 299.125 C 327.328125 299.414062 326.613281 299.632812 325.875 299.777344 C 325.136719 299.925781 324.394531 300 323.640625 300 L 88.835938 300 C 88.082031 300 87.335938 299.925781 86.601562 299.777344 C 85.863281 299.632812 85.144531 299.414062 84.449219 299.125 C 83.757812 298.839844 83.097656 298.484375 82.46875 298.066406 C 81.84375 297.648438 81.265625 297.175781 80.734375 296.644531 C 80.203125 296.113281 79.726562 295.535156 79.308594 294.90625 C 78.894531 294.28125 78.539062 293.621094 78.253906 292.925781 C 77.964844 292.234375 77.746094 291.515625 77.601562 290.777344 C 77.453125 290.042969 77.378906 289.296875 77.378906 288.542969 Z M 77.378906 265.636719 " fill-opacity="1" fill-rule="nonzero"/><path fill="#fcbf49" d="M 80.242188 59.464844 L 332.230469 59.464844 C 332.984375 59.464844 333.726562 59.539062 334.464844 59.683594 C 335.203125 59.832031 335.917969 60.050781 336.613281 60.335938 C 337.308594 60.625 337.96875 60.976562 338.59375 61.394531 C 339.21875 61.8125 339.796875 62.289062 340.332031 62.820312 C 340.863281 63.351562 341.335938 63.929688 341.753906 64.554688 C 342.171875 65.179688 342.527344 65.839844 342.8125 66.535156 C 343.101562 67.230469 343.320312 67.945312 343.464844 68.683594 C 343.613281 69.421875 343.683594 70.167969 343.683594 70.917969 L 343.683594 116.734375 L 68.789062 116.734375 L 68.789062 70.917969 C 68.789062 70.167969 68.863281 69.421875 69.011719 68.683594 C 69.15625 67.945312 69.375 67.230469 69.660156 66.535156 C 69.949219 65.839844 70.300781 65.179688 70.71875 64.554688 C 71.136719 63.929688 71.613281 63.351562 72.144531 62.820312 C 72.675781 62.289062 73.253906 61.8125 73.878906 61.394531 C 74.503906 60.976562 75.164062 60.625 75.859375 60.335938 C 76.554688 60.050781 77.273438 59.832031 78.007812 59.683594 C 78.746094 59.539062 79.492188 59.464844 80.242188 59.464844 Z M 80.242188 59.464844 " fill-opacity="1" fill-rule="nonzero"/><path fill="#e2a334" d="M 229.144531 59.464844 L 229.144531 300 L 183.328125 300 L 183.328125 59.464844 Z M 229.144531 59.464844 " fill-opacity="1" fill-rule="nonzero"/><path fill="#9355c9" d="M 234.871094 48.011719 L 234.871094 59.464844 L 177.601562 59.464844 L 177.601562 48.011719 C 177.601562 47.257812 177.675781 46.515625 177.824219 45.777344 C 177.96875 45.039062 178.1875 44.324219 178.472656 43.628906 C 178.761719 42.933594 179.113281 42.273438 179.53125 41.648438 C 179.949219 41.023438 180.425781 40.445312 180.957031 39.910156 C 181.488281 39.378906 182.066406 38.90625 182.691406 38.488281 C 183.320312 38.070312 183.976562 37.714844 184.671875 37.429688 C 185.367188 37.140625 186.085938 36.921875 186.820312 36.777344 C 187.558594 36.628906 188.304688 36.558594 189.054688 36.558594 L 223.417969 36.558594 C 224.171875 36.558594 224.914062 36.628906 225.652344 36.777344 C 226.390625 36.921875 227.105469 37.140625 227.800781 37.429688 C 228.496094 37.714844 229.15625 38.070312 229.78125 38.488281 C 230.40625 38.90625 230.984375 39.378906 231.519531 39.910156 C 232.050781 40.445312 232.523438 41.023438 232.941406 41.648438 C 233.359375 42.273438 233.710938 42.933594 234 43.628906 C 234.289062 44.324219 234.503906 45.039062 234.652344 45.777344 C 234.800781 46.515625 234.871094 47.257812 234.871094 48.011719 Z M 234.871094 48.011719 " fill-opacity="1" fill-rule="nonzero"/></svg>