<svg xmlns="http://www.w3.org/2000/svg" xmlns:xlink="http://www.w3.org/1999/xlink" width="1700" zoomAndPan="magnify" viewBox="0 0 1275 299.999988" height="400" preserveAspectRatio="xMidYMid meet" version="1.0"><defs><g/><clipPath id="e8d7334abd"><path d="M 24.65625 113 L 324.65625 113 L 324.65625 300 L 24.65625 300 Z M 24.65625 113 " clip-rule="nonzero"/></clipPath><clipPath id="d4f5dff85f"><path d="M 24.65625 144 L 324.65625 144 L 324.65625 186 L 24.65625 186 Z M 24.65625 144 " clip-rule="nonzero"/></clipPath><clipPath id="b51d2b6e84"><path d="M 92 0 L 257.859375 0 L 257.859375 165 L 92 165 Z M 92 0 " clip-rule="nonzero"/></clipPath><clipPath id="f2a0ca260a"><path d="M 200 57 L 257.859375 57 L 257.859375 109 L 200 109 Z M 200 57 " clip-rule="nonzero"/></clipPath></defs><g fill="#0753b4" fill-opacity="1"><g transform="translate(379.28232, 212.000084)"><g><path d="M 70.828125 2.625 C 63.597656 2.625 56.726562 1.554688 50.21875 -0.578125 C 43.71875 -2.722656 37.769531 -5.75 32.375 -9.65625 C 26.988281 -13.570312 22.320312 -18.207031 18.375 -23.5625 C 14.4375 -28.925781 11.382812 -34.832031 9.21875 -41.28125 C 7.050781 -47.726562 5.96875 -54.503906 5.96875 -61.609375 C 5.96875 -68.773438 7.050781 -75.5625 9.21875 -81.96875 C 11.382812 -88.382812 14.4375 -94.253906 18.375 -99.578125 C 22.320312 -104.910156 26.988281 -109.535156 32.375 -113.453125 C 37.769531 -117.367188 43.71875 -120.394531 50.21875 -122.53125 C 56.726562 -124.675781 63.597656 -125.75 70.828125 -125.75 C 77.328125 -125.75 83.769531 -124.785156 90.15625 -122.859375 C 96.539062 -120.929688 102.5 -117.992188 108.03125 -114.046875 C 113.570312 -110.097656 118.269531 -105.113281 122.125 -99.09375 C 125.976562 -93.070312 128.628906 -85.96875 130.078125 -77.78125 L 107.140625 -77.78125 C 105.503906 -84.101562 102.894531 -89.28125 99.3125 -93.3125 C 95.738281 -97.34375 91.453125 -100.320312 86.453125 -102.25 C 81.453125 -104.175781 76.03125 -105.140625 70.1875 -105.140625 C 64.40625 -105.140625 58.984375 -104.097656 53.921875 -102.015625 C 48.867188 -99.941406 44.429688 -96.976562 40.609375 -93.125 C 36.785156 -89.269531 33.800781 -84.675781 31.65625 -79.34375 C 29.519531 -74.019531 28.453125 -68.078125 28.453125 -61.515625 C 28.453125 -54.828125 29.519531 -48.816406 31.65625 -43.484375 C 33.800781 -38.160156 36.785156 -33.601562 40.609375 -29.8125 C 44.429688 -26.019531 48.867188 -23.113281 53.921875 -21.09375 C 58.984375 -19.070312 64.40625 -18.0625 70.1875 -18.0625 C 76.03125 -18.0625 81.4375 -19.023438 86.40625 -20.953125 C 91.375 -22.878906 95.660156 -25.859375 99.265625 -29.890625 C 102.878906 -33.929688 105.472656 -39.082031 107.046875 -45.34375 L 130.078125 -45.34375 C 128.628906 -37.15625 125.976562 -30.035156 122.125 -23.984375 C 118.269531 -17.929688 113.601562 -12.945312 108.125 -9.03125 C 102.644531 -5.113281 96.695312 -2.191406 90.28125 -0.265625 C 83.875 1.660156 77.390625 2.625 70.828125 2.625 Z M 70.828125 2.625 "/></g></g></g><g fill="#0753b4" fill-opacity="1"><g transform="translate(522.066971, 212.000084)"><g><path d="M 64.953125 2.703125 C 57.546875 2.703125 50.664062 1.53125 44.3125 -0.8125 C 37.957031 -3.164062 32.382812 -6.523438 27.59375 -10.890625 C 22.8125 -15.253906 19.09375 -20.535156 16.4375 -26.734375 C 13.789062 -32.941406 12.46875 -39.867188 12.46875 -47.515625 L 12.46875 -122.859375 L 34.875 -122.859375 L 34.875 -49.140625 C 34.875 -43.359375 36.03125 -38.101562 38.34375 -33.375 C 40.664062 -28.644531 44.066406 -24.878906 48.546875 -22.078125 C 53.035156 -19.285156 58.503906 -17.890625 64.953125 -17.890625 C 71.273438 -17.890625 76.660156 -19.273438 81.109375 -22.046875 C 85.566406 -24.816406 88.984375 -28.5625 91.359375 -33.28125 C 93.742188 -38.007812 94.9375 -43.265625 94.9375 -49.046875 L 94.9375 -122.859375 L 117.4375 -122.859375 L 117.4375 -47.515625 C 117.4375 -40.171875 116.171875 -33.441406 113.640625 -27.328125 C 111.109375 -21.210938 107.523438 -15.910156 102.890625 -11.421875 C 98.253906 -6.941406 92.710938 -3.46875 86.265625 -1 C 79.828125 1.46875 72.722656 2.703125 64.953125 2.703125 Z M 64.953125 2.703125 "/></g></g></g><g fill="#0753b4" fill-opacity="1"><g transform="translate(658.528642, 212.000084)"><g><path d="M 73.34375 0 L 14.640625 0 L 14.640625 -122.859375 L 68.203125 -122.859375 C 75.671875 -122.859375 82.203125 -121.515625 87.796875 -118.828125 C 93.398438 -116.148438 97.765625 -112.328125 100.890625 -107.359375 C 104.023438 -102.390625 105.59375 -96.472656 105.59375 -89.609375 C 105.59375 -85.992188 104.882812 -82.546875 103.46875 -79.265625 C 102.0625 -75.984375 100.179688 -73.09375 97.828125 -70.59375 C 95.484375 -68.09375 92.894531 -66.242188 90.0625 -65.046875 C 94.21875 -63.710938 97.992188 -61.613281 101.390625 -58.75 C 104.796875 -55.894531 107.519531 -52.492188 109.5625 -48.546875 C 111.613281 -44.609375 112.640625 -40.320312 112.640625 -35.6875 C 112.640625 -29.601562 111.539062 -24.316406 109.34375 -19.828125 C 107.144531 -15.335938 104.164062 -11.632812 100.40625 -8.71875 C 96.644531 -5.800781 92.425781 -3.617188 87.75 -2.171875 C 83.082031 -0.722656 78.28125 0 73.34375 0 Z M 37.3125 -103.515625 L 37.3125 -71.546875 L 67.109375 -71.546875 C 70.128906 -71.546875 72.828125 -72.25 75.203125 -73.65625 C 77.578125 -75.070312 79.457031 -77 80.84375 -79.4375 C 82.226562 -81.882812 82.921875 -84.613281 82.921875 -87.625 C 82.921875 -90.632812 82.226562 -93.34375 80.84375 -95.75 C 79.457031 -98.15625 77.585938 -100.050781 75.234375 -101.4375 C 72.890625 -102.820312 70.210938 -103.515625 67.203125 -103.515625 Z M 37.3125 -54.65625 L 37.3125 -19.421875 L 71.359375 -19.421875 C 74.859375 -19.421875 77.976562 -20.1875 80.71875 -21.71875 C 83.457031 -23.257812 85.625 -25.382812 87.21875 -28.09375 C 88.8125 -30.800781 89.609375 -33.898438 89.609375 -37.390625 C 89.609375 -40.585938 88.820312 -43.476562 87.25 -46.0625 C 85.6875 -48.65625 83.535156 -50.734375 80.796875 -52.296875 C 78.054688 -53.867188 74.972656 -54.65625 71.546875 -54.65625 Z M 37.3125 -54.65625 "/></g></g></g><g fill="#0753b4" fill-opacity="1"><g transform="translate(783.608962, 212.000084)"><g><path d="M 37.125 0 L 14.640625 0 L 14.640625 -122.859375 L 37.125 -122.859375 Z M 37.125 0 "/></g></g></g><g fill="#f7b54b" fill-opacity="1"><g transform="translate(841.938532, 212.000084)"><g><path d="M 37.125 0 L 14.640625 0 L 14.640625 -122.859375 L 66.390625 -122.859375 C 72.597656 -122.859375 78.304688 -121.832031 83.515625 -119.78125 C 88.722656 -117.726562 93.222656 -114.847656 97.015625 -111.140625 C 100.804688 -107.441406 103.753906 -103.0625 105.859375 -98 C 107.972656 -92.945312 109.03125 -87.441406 109.03125 -81.484375 C 109.03125 -75.160156 107.988281 -69.40625 105.90625 -64.21875 C 103.832031 -59.039062 100.910156 -54.582031 97.140625 -50.84375 C 93.378906 -47.113281 88.910156 -44.238281 83.734375 -42.21875 C 78.554688 -40.207031 72.894531 -39.203125 66.75 -39.203125 L 37.125 -39.203125 Z M 37.125 -102.796875 L 37.125 -59.265625 L 65.671875 -59.265625 C 69.585938 -59.265625 73.125 -60.238281 76.28125 -62.1875 C 79.445312 -64.144531 81.945312 -66.796875 83.78125 -70.140625 C 85.613281 -73.484375 86.53125 -77.265625 86.53125 -81.484375 C 86.53125 -85.210938 85.597656 -88.703125 83.734375 -91.953125 C 81.867188 -95.210938 79.351562 -97.832031 76.1875 -99.8125 C 73.03125 -101.800781 69.460938 -102.796875 65.484375 -102.796875 Z M 37.125 -102.796875 "/></g></g></g><g fill="#f7b54b" fill-opacity="1"><g transform="translate(960.424893, 212.000084)"><g><path d="M 101.171875 -48.0625 C 101.171875 -46.914062 101.140625 -45.828125 101.078125 -44.796875 C 101.015625 -43.773438 100.894531 -42.394531 100.71875 -40.65625 L 28.1875 -40.65625 C 28.96875 -35.59375 30.578125 -31.285156 33.015625 -27.734375 C 35.453125 -24.179688 38.476562 -21.457031 42.09375 -19.5625 C 45.707031 -17.664062 49.648438 -16.71875 53.921875 -16.71875 C 59.460938 -16.71875 63.945312 -17.816406 67.375 -20.015625 C 70.8125 -22.210938 73.316406 -25.265625 74.890625 -29.171875 L 98.734375 -29.171875 C 97.585938 -25.015625 95.703125 -21.007812 93.078125 -17.15625 C 90.460938 -13.300781 87.257812 -9.882812 83.46875 -6.90625 C 79.675781 -3.925781 75.320312 -1.566406 70.40625 0.171875 C 65.5 1.921875 60.15625 2.796875 54.375 2.796875 C 47.394531 2.796875 40.96875 1.519531 35.09375 -1.03125 C 29.21875 -3.59375 24.128906 -7.128906 19.828125 -11.640625 C 15.523438 -16.160156 12.179688 -21.398438 9.796875 -27.359375 C 7.421875 -33.328125 6.234375 -39.6875 6.234375 -46.4375 C 6.234375 -53.238281 7.421875 -59.601562 9.796875 -65.53125 C 12.179688 -71.46875 15.523438 -76.691406 19.828125 -81.203125 C 24.128906 -85.722656 29.21875 -89.257812 35.09375 -91.8125 C 40.96875 -94.375 47.394531 -95.65625 54.375 -95.65625 C 61.363281 -95.65625 67.734375 -94.390625 73.484375 -91.859375 C 79.234375 -89.335938 84.171875 -85.863281 88.296875 -81.4375 C 92.421875 -77.007812 95.597656 -71.929688 97.828125 -66.203125 C 100.054688 -60.484375 101.171875 -54.4375 101.171875 -48.0625 Z M 29.09375 -57.546875 L 78.859375 -57.546875 C 78.554688 -61.035156 77.257812 -64.207031 74.96875 -67.0625 C 72.6875 -69.925781 69.738281 -72.234375 66.125 -73.984375 C 62.507812 -75.734375 58.566406 -76.609375 54.296875 -76.609375 C 50.617188 -76.609375 47.09375 -75.925781 43.71875 -74.5625 C 40.34375 -73.207031 37.375 -71.128906 34.8125 -68.328125 C 32.257812 -65.535156 30.351562 -61.941406 29.09375 -57.546875 Z M 29.09375 -57.546875 "/></g></g></g><g fill="#f7b54b" fill-opacity="1"><g transform="translate(1073.220588, 212.000084)"><g><path d="M 34.6875 0 L 12.828125 0 L 12.828125 -92.859375 L 33.78125 -92.859375 L 33.78125 -76.0625 C 35.945312 -81.175781 39.140625 -85.253906 43.359375 -88.296875 C 47.578125 -91.335938 52.695312 -92.859375 58.71875 -92.859375 L 68.65625 -92.859375 L 68.65625 -74.078125 L 59.890625 -74.078125 C 54.890625 -74.078125 50.492188 -72.867188 46.703125 -70.453125 C 42.910156 -68.046875 39.957031 -64.550781 37.84375 -59.96875 C 35.738281 -55.394531 34.6875 -49.796875 34.6875 -43.171875 Z M 34.6875 0 "/></g></g></g><g fill="#f7b54b" fill-opacity="1"><g transform="translate(1151.330239, 212.000084)"><g><path d="M 98.015625 0 L 73.4375 0 L 49.328125 -41.828125 L 34.6875 -25.828125 L 34.6875 0 L 12.828125 0 L 12.828125 -127.1875 L 34.6875 -127.1875 L 34.6875 -49.328125 L 67.390625 -92.859375 L 94.03125 -92.859375 L 65.21875 -56.09375 Z M 98.015625 0 "/></g></g></g><g clip-path="url(#e8d7334abd)"><path fill="#4678de" d="M 40.175781 113.222656 L 309.140625 113.222656 C 310.160156 113.222656 311.167969 113.324219 312.167969 113.523438 C 313.167969 113.71875 314.136719 114.015625 315.078125 114.40625 C 316.019531 114.792969 316.914062 115.273438 317.761719 115.839844 C 318.609375 116.40625 319.390625 117.046875 320.113281 117.769531 C 320.832031 118.488281 321.476562 119.273438 322.042969 120.121094 C 322.609375 120.96875 323.085938 121.859375 323.476562 122.800781 C 323.867188 123.742188 324.160156 124.714844 324.359375 125.714844 C 324.558594 126.710938 324.65625 127.722656 324.65625 128.742188 L 324.65625 283.914062 C 324.65625 284.933594 324.558594 285.941406 324.359375 286.941406 C 324.160156 287.941406 323.867188 288.910156 323.476562 289.851562 C 323.085938 290.792969 322.609375 291.6875 322.042969 292.535156 C 321.476562 293.382812 320.832031 294.164062 320.113281 294.886719 C 319.390625 295.605469 318.609375 296.25 317.761719 296.816406 C 316.914062 297.382812 316.019531 297.859375 315.078125 298.25 C 314.136719 298.640625 313.167969 298.933594 312.167969 299.132812 C 311.167969 299.332031 310.160156 299.429688 309.140625 299.429688 L 40.175781 299.429688 C 39.15625 299.429688 38.148438 299.332031 37.148438 299.132812 C 36.148438 298.933594 35.179688 298.640625 34.238281 298.25 C 33.296875 297.859375 32.402344 297.382812 31.554688 296.816406 C 30.707031 296.25 29.921875 295.605469 29.203125 294.886719 C 28.480469 294.164062 27.839844 293.382812 27.273438 292.535156 C 26.707031 291.6875 26.230469 290.792969 25.839844 289.851562 C 25.449219 288.910156 25.15625 287.941406 24.957031 286.941406 C 24.757812 285.941406 24.65625 284.933594 24.65625 283.914062 L 24.65625 128.742188 C 24.65625 127.722656 24.757812 126.710938 24.957031 125.714844 C 25.15625 124.714844 25.449219 123.742188 25.839844 122.800781 C 26.230469 121.859375 26.707031 120.96875 27.273438 120.121094 C 27.839844 119.273438 28.480469 118.488281 29.203125 117.769531 C 29.921875 117.046875 30.707031 116.40625 31.554688 115.839844 C 32.402344 115.273438 33.296875 114.792969 34.238281 114.40625 C 35.179688 114.015625 36.148438 113.71875 37.148438 113.523438 C 38.148438 113.324219 39.15625 113.222656 40.175781 113.222656 Z M 40.175781 113.222656 " fill-opacity="1" fill-rule="nonzero"/></g><g clip-path="url(#d4f5dff85f)"><path fill="#25373d" d="M 24.65625 144.257812 L 324.65625 144.257812 L 324.65625 185.636719 L 24.65625 185.636719 Z M 24.65625 144.257812 " fill-opacity="1" fill-rule="nonzero"/></g><path fill="#fbc512" d="M 97.070312 227.015625 L 97.070312 237.359375 C 97.070312 238.039062 97.003906 238.714844 96.871094 239.378906 C 96.738281 240.046875 96.542969 240.691406 96.285156 241.320312 C 96.023438 241.949219 95.707031 242.542969 95.328125 243.109375 C 94.949219 243.671875 94.523438 244.195312 94.042969 244.675781 C 93.5625 245.15625 93.039062 245.585938 92.472656 245.960938 C 91.910156 246.339844 91.3125 246.660156 90.683594 246.917969 C 90.058594 247.179688 89.410156 247.375 88.746094 247.507812 C 88.078125 247.640625 87.40625 247.707031 86.726562 247.707031 L 60.863281 247.707031 C 60.183594 247.707031 59.511719 247.640625 58.847656 247.507812 C 58.179688 247.375 57.53125 247.179688 56.90625 246.917969 C 56.277344 246.660156 55.683594 246.339844 55.117188 245.960938 C 54.550781 245.585938 54.03125 245.15625 53.550781 244.675781 C 53.070312 244.195312 52.640625 243.671875 52.261719 243.109375 C 51.886719 242.542969 51.566406 241.949219 51.308594 241.320312 C 51.046875 240.691406 50.851562 240.046875 50.71875 239.378906 C 50.585938 238.714844 50.519531 238.039062 50.519531 237.359375 L 50.519531 227.015625 C 50.519531 226.335938 50.585938 225.664062 50.71875 225 C 50.851562 224.332031 51.046875 223.683594 51.308594 223.058594 C 51.566406 222.429688 51.886719 221.832031 52.261719 221.269531 C 52.640625 220.703125 53.070312 220.183594 53.550781 219.703125 C 54.03125 219.222656 54.550781 218.792969 55.117188 218.414062 C 55.683594 218.039062 56.277344 217.71875 56.90625 217.460938 C 57.53125 217.199219 58.179688 217.003906 58.847656 216.871094 C 59.511719 216.738281 60.183594 216.671875 60.863281 216.671875 L 86.726562 216.671875 C 87.40625 216.671875 88.078125 216.738281 88.746094 216.871094 C 89.410156 217.003906 90.058594 217.199219 90.683594 217.460938 C 91.3125 217.71875 91.910156 218.039062 92.472656 218.414062 C 93.039062 218.792969 93.5625 219.222656 94.042969 219.703125 C 94.523438 220.183594 94.949219 220.703125 95.328125 221.269531 C 95.707031 221.832031 96.023438 222.429688 96.285156 223.058594 C 96.542969 223.683594 96.738281 224.332031 96.871094 225 C 97.003906 225.664062 97.070312 226.335938 97.070312 227.015625 Z M 97.070312 227.015625 " fill-opacity="1" fill-rule="nonzero"/><path fill="#335caf" d="M 231.554688 227.015625 L 128.105469 227.015625 C 125.246094 227.015625 122.933594 224.703125 122.933594 221.84375 C 122.933594 218.984375 125.246094 216.671875 128.105469 216.671875 L 231.554688 216.671875 C 234.414062 216.671875 236.726562 218.984375 236.726562 221.84375 C 236.726562 224.703125 234.414062 227.015625 231.554688 227.015625 Z M 231.554688 227.015625 " fill-opacity="1" fill-rule="nonzero"/><path fill="#335caf" d="M 190.175781 247.707031 L 128.105469 247.707031 C 125.246094 247.707031 122.933594 245.394531 122.933594 242.535156 C 122.933594 239.671875 125.246094 237.359375 128.105469 237.359375 L 190.175781 237.359375 C 193.035156 237.359375 195.347656 239.671875 195.347656 242.535156 C 195.347656 245.394531 193.035156 247.707031 190.175781 247.707031 Z M 190.175781 247.707031 " fill-opacity="1" fill-rule="nonzero"/><g clip-path="url(#b51d2b6e84)"><path fill="#f7b54b" d="M 254.085938 89.886719 L 182 161.976562 C 178.019531 165.988281 171.566406 165.988281 167.589844 161.976562 L 95.5 89.886719 C 91.488281 85.910156 91.488281 79.457031 95.5 75.476562 L 167.589844 3.390625 C 171.566406 -0.613281 178.019531 -0.613281 182 3.390625 L 254.085938 75.476562 C 258.089844 79.457031 258.089844 85.910156 254.085938 89.886719 " fill-opacity="1" fill-rule="nonzero"/></g><path fill="#fdd07e" d="M 200.335938 108.222656 L 149.253906 108.222656 L 149.253906 57.140625 L 200.335938 57.140625 L 200.335938 108.222656 " fill-opacity="1" fill-rule="nonzero"/><path fill="#ffc661" d="M 149.253906 57.140625 L 174.792969 0.386719 L 200.335938 57.140625 Z M 149.253906 57.140625 " fill-opacity="1" fill-rule="nonzero"/><path fill="#ffc661" d="M 200.335938 108.222656 L 174.792969 164.980469 L 149.253906 108.222656 Z M 200.335938 108.222656 " fill-opacity="1" fill-rule="nonzero"/><path fill="#ffc661" d="M 149.253906 108.222656 L 92.496094 82.683594 L 149.253906 57.140625 Z M 149.253906 108.222656 " fill-opacity="1" fill-rule="nonzero"/><g clip-path="url(#f2a0ca260a)"><path fill="#ffc661" d="M 200.335938 57.140625 L 257.09375 82.683594 L 200.335938 108.222656 Z M 200.335938 57.140625 " fill-opacity="1" fill-rule="nonzero"/></g></svg>