<svg xmlns="http://www.w3.org/2000/svg" xmlns:xlink="http://www.w3.org/1999/xlink" width="1700" zoomAndPan="magnify" viewBox="0 0 1275 299.999988" height="400" preserveAspectRatio="xMidYMid meet" version="1.0"><defs><g/><clipPath id="0d14803b28"><path d="M 0 0 L 300 0 L 300 300 L 0 300 Z M 0 0 " clip-rule="nonzero"/></clipPath><clipPath id="72258f83d2"><path d="M 15 0 L 285.339844 0 C 289.316406 0 293.132812 1.582031 295.945312 4.394531 C 298.757812 7.207031 300.339844 11.023438 300.339844 15 L 300.339844 285 C 300.339844 288.976562 298.757812 292.792969 295.945312 295.605469 C 293.132812 298.417969 289.316406 300 285.339844 300 L 15 300 C 11.023438 300 7.207031 298.417969 4.394531 295.605469 C 1.582031 292.792969 0 288.976562 0 285 L 0 15 C 0 11.023438 1.582031 7.207031 4.394531 4.394531 C 7.207031 1.582031 11.023438 0 15 0 Z M 15 0 " clip-rule="nonzero"/></clipPath><clipPath id="0b275697c7"><path d="M 165.03125 20.582031 L 186.152344 20.582031 L 186.152344 41.703125 L 165.03125 41.703125 Z M 165.03125 20.582031 " clip-rule="nonzero"/></clipPath><clipPath id="48b77431de"><path d="M 175.59375 20.582031 C 169.757812 20.582031 165.03125 25.3125 165.03125 31.144531 C 165.03125 36.976562 169.757812 41.703125 175.59375 41.703125 C 181.425781 41.703125 186.152344 36.976562 186.152344 31.144531 C 186.152344 25.3125 181.425781 20.582031 175.59375 20.582031 Z M 175.59375 20.582031 " clip-rule="nonzero"/></clipPath><clipPath id="c2ebf24e4b"><path d="M 25.488281 20.582031 L 124.664062 20.582031 L 124.664062 41.703125 L 25.488281 41.703125 Z M 25.488281 20.582031 " clip-rule="nonzero"/></clipPath><clipPath id="0ec08cf7dd"><path d="M 36.050781 20.582031 L 114.03125 20.582031 C 119.863281 20.582031 124.589844 25.3125 124.589844 31.144531 C 124.589844 36.976562 119.863281 41.703125 114.03125 41.703125 L 36.050781 41.703125 C 30.214844 41.703125 25.488281 36.976562 25.488281 31.144531 C 25.488281 25.3125 30.214844 20.582031 36.050781 20.582031 Z M 36.050781 20.582031 " clip-rule="nonzero"/></clipPath><clipPath id="f6b7d1d1cc"><path d="M 206.371094 20.582031 L 227.3125 20.582031 L 227.3125 41.527344 L 206.371094 41.527344 Z M 206.371094 20.582031 " clip-rule="nonzero"/></clipPath><clipPath id="db01b4062e"><path d="M 216.839844 20.582031 C 211.058594 20.582031 206.371094 25.269531 206.371094 31.054688 C 206.371094 36.839844 211.058594 41.527344 216.839844 41.527344 C 222.625 41.527344 227.3125 36.839844 227.3125 31.054688 C 227.3125 25.269531 222.625 20.582031 216.839844 20.582031 Z M 216.839844 20.582031 " clip-rule="nonzero"/></clipPath><clipPath id="12a8ad92b8"><path d="M 247.5625 20.40625 L 268.683594 20.40625 L 268.683594 41.527344 L 247.5625 41.527344 Z M 247.5625 20.40625 " clip-rule="nonzero"/></clipPath><clipPath id="392dde21dc"><path d="M 258.125 20.40625 C 252.292969 20.40625 247.5625 25.132812 247.5625 30.964844 C 247.5625 36.796875 252.292969 41.527344 258.125 41.527344 C 263.957031 41.527344 268.683594 36.796875 268.683594 30.964844 C 268.683594 25.132812 263.957031 20.40625 258.125 20.40625 Z M 258.125 20.40625 " clip-rule="nonzero"/></clipPath><clipPath id="350c4a64e8"><path d="M 20.851562 62.222656 L 279 62.222656 L 279 279.40625 L 20.851562 279.40625 Z M 20.851562 62.222656 " clip-rule="nonzero"/></clipPath><clipPath id="08f994e60e"><path d="M 32.101562 62.222656 L 267.898438 62.222656 C 274.109375 62.222656 279.148438 67.261719 279.148438 73.472656 L 279.148438 268.15625 C 279.148438 274.367188 274.109375 279.40625 267.898438 279.40625 L 32.101562 279.40625 C 25.890625 279.40625 20.851562 274.367188 20.851562 268.15625 L 20.851562 73.472656 C 20.851562 67.261719 25.890625 62.222656 32.101562 62.222656 Z M 32.101562 62.222656 " clip-rule="nonzero"/></clipPath><clipPath id="909a4e6e14"><path d="M 67 174 L 233 174 L 233 260.421875 L 67 260.421875 Z M 67 174 " clip-rule="nonzero"/></clipPath><clipPath id="60bae22d47"><path d="M 61.03125 156 L 238.78125 156 L 238.78125 181 L 61.03125 181 Z M 61.03125 156 " clip-rule="nonzero"/></clipPath></defs><g fill="#ffffff" fill-opacity="1"><g transform="translate(332.104158, 217.00176)"><g><path d="M 74.65625 2.765625 C 67.03125 2.765625 59.789062 1.640625 52.9375 -0.609375 C 46.082031 -2.867188 39.8125 -6.0625 34.125 -10.1875 C 28.445312 -14.3125 23.53125 -19.195312 19.375 -24.84375 C 15.21875 -30.5 11.992188 -36.722656 9.703125 -43.515625 C 7.421875 -50.304688 6.28125 -57.445312 6.28125 -64.9375 C 6.28125 -72.488281 7.421875 -79.644531 9.703125 -86.40625 C 11.992188 -93.164062 15.21875 -99.351562 19.375 -104.96875 C 23.53125 -110.59375 28.445312 -115.46875 34.125 -119.59375 C 39.8125 -123.71875 46.082031 -126.90625 52.9375 -129.15625 C 59.789062 -131.414062 67.03125 -132.546875 74.65625 -132.546875 C 81.507812 -132.546875 88.300781 -131.53125 95.03125 -129.5 C 101.757812 -127.46875 108.039062 -124.367188 113.875 -120.203125 C 119.71875 -116.046875 124.671875 -110.789062 128.734375 -104.4375 C 132.796875 -98.09375 135.585938 -90.609375 137.109375 -81.984375 L 112.921875 -81.984375 C 111.210938 -88.648438 108.46875 -94.109375 104.6875 -98.359375 C 100.914062 -102.609375 96.394531 -105.75 91.125 -107.78125 C 85.851562 -109.8125 80.140625 -110.828125 73.984375 -110.828125 C 67.890625 -110.828125 62.175781 -109.734375 56.84375 -107.546875 C 51.507812 -105.359375 46.828125 -102.234375 42.796875 -98.171875 C 38.765625 -94.109375 35.625 -89.265625 33.375 -83.640625 C 31.125 -78.023438 30 -71.757812 30 -64.84375 C 30 -57.789062 31.125 -51.457031 33.375 -45.84375 C 35.625 -40.226562 38.765625 -35.421875 42.796875 -31.421875 C 46.828125 -27.421875 51.507812 -24.359375 56.84375 -22.234375 C 62.175781 -20.109375 67.890625 -19.046875 73.984375 -19.046875 C 80.140625 -19.046875 85.832031 -20.0625 91.0625 -22.09375 C 96.300781 -24.125 100.828125 -27.265625 104.640625 -31.515625 C 108.453125 -35.765625 111.179688 -41.191406 112.828125 -47.796875 L 137.109375 -47.796875 C 135.585938 -39.160156 132.796875 -31.648438 128.734375 -25.265625 C 124.671875 -18.890625 119.75 -13.640625 113.96875 -9.515625 C 108.195312 -5.390625 101.929688 -2.3125 95.171875 -0.28125 C 88.410156 1.75 81.570312 2.765625 74.65625 2.765625 Z M 74.65625 2.765625 "/></g></g></g><g fill="#ffffff" fill-opacity="1"><g transform="translate(482.612915, 217.00176)"><g><path d="M 68.453125 2.859375 C 60.648438 2.859375 53.398438 1.617188 46.703125 -0.859375 C 40.003906 -3.335938 34.128906 -6.875 29.078125 -11.46875 C 24.035156 -16.070312 20.117188 -21.640625 17.328125 -28.171875 C 14.535156 -34.710938 13.140625 -42.015625 13.140625 -50.078125 L 13.140625 -129.5 L 36.75 -129.5 L 36.75 -51.796875 C 36.75 -45.703125 37.96875 -40.160156 40.40625 -35.171875 C 42.851562 -30.191406 46.441406 -26.226562 51.171875 -23.28125 C 55.898438 -20.332031 61.660156 -18.859375 68.453125 -18.859375 C 75.117188 -18.859375 80.800781 -20.316406 85.5 -23.234375 C 90.195312 -26.148438 93.800781 -30.097656 96.3125 -35.078125 C 98.820312 -40.066406 100.078125 -45.609375 100.078125 -51.703125 L 100.078125 -129.5 L 123.78125 -129.5 L 123.78125 -50.078125 C 123.78125 -42.335938 122.445312 -35.242188 119.78125 -28.796875 C 117.113281 -22.359375 113.335938 -16.773438 108.453125 -12.046875 C 103.566406 -7.316406 97.726562 -3.648438 90.9375 -1.046875 C 84.144531 1.554688 76.648438 2.859375 68.453125 2.859375 Z M 68.453125 2.859375 "/></g></g></g><g fill="#ffffff" fill-opacity="1"><g transform="translate(626.456634, 217.00176)"><g><path d="M 77.3125 0 L 15.421875 0 L 15.421875 -129.5 L 71.890625 -129.5 C 79.753906 -129.5 86.640625 -128.082031 92.546875 -125.25 C 98.453125 -122.425781 103.054688 -118.394531 106.359375 -113.15625 C 109.660156 -107.925781 111.3125 -101.691406 111.3125 -94.453125 C 111.3125 -90.640625 110.5625 -87.003906 109.0625 -83.546875 C 107.570312 -80.085938 105.585938 -77.039062 103.109375 -74.40625 C 100.640625 -71.769531 97.910156 -69.820312 94.921875 -68.5625 C 99.304688 -67.15625 103.289062 -64.945312 106.875 -61.9375 C 110.46875 -58.925781 113.34375 -55.335938 115.5 -51.171875 C 117.65625 -47.015625 118.734375 -42.492188 118.734375 -37.609375 C 118.734375 -31.203125 117.570312 -25.632812 115.25 -20.90625 C 112.9375 -16.175781 109.796875 -12.269531 105.828125 -9.1875 C 101.859375 -6.113281 97.414062 -3.8125 92.5 -2.28125 C 87.582031 -0.757812 82.519531 0 77.3125 0 Z M 39.328125 -109.109375 L 39.328125 -75.40625 L 70.75 -75.40625 C 73.914062 -75.40625 76.753906 -76.148438 79.265625 -77.640625 C 81.773438 -79.140625 83.757812 -81.171875 85.21875 -83.734375 C 86.675781 -86.304688 87.40625 -89.179688 87.40625 -92.359375 C 87.40625 -95.535156 86.675781 -98.390625 85.21875 -100.921875 C 83.757812 -103.460938 81.789062 -105.460938 79.3125 -106.921875 C 76.832031 -108.378906 74.007812 -109.109375 70.84375 -109.109375 Z M 39.328125 -57.609375 L 39.328125 -20.46875 L 75.21875 -20.46875 C 78.90625 -20.46875 82.191406 -21.273438 85.078125 -22.890625 C 87.960938 -24.515625 90.242188 -26.753906 91.921875 -29.609375 C 93.609375 -32.460938 94.453125 -35.734375 94.453125 -39.421875 C 94.453125 -42.785156 93.625 -45.832031 91.96875 -48.5625 C 90.320312 -51.289062 88.054688 -53.476562 85.171875 -55.125 C 82.285156 -56.78125 79.03125 -57.609375 75.40625 -57.609375 Z M 39.328125 -57.609375 "/></g></g></g><g fill="#ffffff" fill-opacity="1"><g transform="translate(758.303293, 217.00176)"><g><path d="M 39.140625 0 L 15.421875 0 L 15.421875 -129.5 L 39.140625 -129.5 Z M 39.140625 0 "/></g></g></g><g fill="#d76d82" fill-opacity="1"><g transform="translate(819.791618, 217.00176)"><g><path d="M 39.140625 0 L 15.421875 0 L 15.421875 -129.5 L 36.09375 -129.5 L 80.75 -69.125 L 125.6875 -129.5 L 146.34375 -129.5 L 146.34375 0 L 122.640625 0 L 122.640625 -91.5 L 83.890625 -38.5625 L 77.5 -38.5625 L 39.140625 -91.6875 Z M 39.140625 0 "/></g></g></g><g fill="#d76d82" fill-opacity="1"><g transform="translate(988.486411, 217.00176)"><g><path d="M 52.65625 2.953125 C 46.050781 2.953125 39.941406 1.617188 34.328125 -1.046875 C 28.710938 -3.710938 23.820312 -7.425781 19.65625 -12.1875 C 15.5 -16.945312 12.273438 -22.46875 9.984375 -28.75 C 7.703125 -35.039062 6.5625 -41.769531 6.5625 -48.9375 C 6.5625 -56.113281 7.71875 -62.828125 10.03125 -69.078125 C 12.351562 -75.328125 15.59375 -80.832031 19.75 -85.59375 C 23.914062 -90.351562 28.789062 -94.082031 34.375 -96.78125 C 39.957031 -99.476562 46.019531 -100.828125 52.5625 -100.828125 C 60.5625 -100.828125 67.671875 -99.097656 73.890625 -95.640625 C 80.109375 -92.179688 84.773438 -87.40625 87.890625 -81.3125 L 87.890625 -97.875 L 109.78125 -97.875 L 109.78125 0 L 87.890625 0 L 87.890625 -16.46875 C 84.710938 -10.375 80.03125 -5.613281 73.84375 -2.1875 C 67.65625 1.238281 60.59375 2.953125 52.65625 2.953125 Z M 58.171875 -18.375 C 62.171875 -18.375 65.914062 -19.148438 69.40625 -20.703125 C 72.90625 -22.265625 75.96875 -24.425781 78.59375 -27.1875 C 81.226562 -29.945312 83.273438 -33.179688 84.734375 -36.890625 C 86.203125 -40.609375 86.9375 -44.625 86.9375 -48.9375 C 86.9375 -53.1875 86.1875 -57.164062 84.6875 -60.875 C 83.195312 -64.59375 81.148438 -67.847656 78.546875 -70.640625 C 75.953125 -73.441406 72.90625 -75.617188 69.40625 -77.171875 C 65.914062 -78.722656 62.171875 -79.5 58.171875 -79.5 C 52.910156 -79.5 48.101562 -78.226562 43.75 -75.6875 C 39.40625 -73.15625 35.929688 -69.601562 33.328125 -65.03125 C 30.722656 -60.457031 29.421875 -55.09375 29.421875 -48.9375 C 29.421875 -42.59375 30.738281 -37.132812 33.375 -32.5625 C 36.007812 -27.988281 39.515625 -24.476562 43.890625 -22.03125 C 48.273438 -19.59375 53.035156 -18.375 58.171875 -18.375 Z M 58.171875 -18.375 "/></g></g></g><g fill="#d76d82" fill-opacity="1"><g transform="translate(1118.809626, 217.00176)"><g><path d="M 36.5625 0 L 13.515625 0 L 13.515625 -97.875 L 35.609375 -97.875 L 35.609375 -80.171875 C 37.890625 -85.566406 41.253906 -89.863281 45.703125 -93.0625 C 50.148438 -96.269531 55.546875 -97.875 61.890625 -97.875 L 72.359375 -97.875 L 72.359375 -78.078125 L 63.125 -78.078125 C 57.851562 -78.078125 53.21875 -76.804688 49.21875 -74.265625 C 45.226562 -71.722656 42.117188 -68.039062 39.890625 -63.21875 C 37.671875 -58.394531 36.5625 -52.492188 36.5625 -45.515625 Z M 36.5625 0 "/></g></g></g><g fill="#d76d82" fill-opacity="1"><g transform="translate(1201.144573, 217.00176)"><g><path d="M 73.703125 0 L 53.796875 0 C 50.878906 0 47.878906 -0.269531 44.796875 -0.8125 C 41.722656 -1.351562 38.785156 -2.351562 35.984375 -3.8125 C 33.191406 -5.269531 30.703125 -7.378906 28.515625 -10.140625 C 26.328125 -12.898438 24.582031 -16.484375 23.28125 -20.890625 C 21.976562 -25.304688 21.328125 -30.753906 21.328125 -37.234375 L 21.328125 -78.078125 L 1.046875 -78.078125 L 1.046875 -97.875 L 21.328125 -97.875 L 21.328125 -126.546875 L 44.375 -126.734375 L 44.375 -97.875 L 73.703125 -97.875 L 73.703125 -78.078125 L 44.375 -78.078125 L 44.375 -36.1875 C 44.375 -31.613281 45.039062 -28.085938 46.375 -25.609375 C 47.707031 -23.140625 49.46875 -21.441406 51.65625 -20.515625 C 53.84375 -19.597656 56.144531 -19.140625 58.5625 -19.140625 L 73.703125 -19.140625 Z M 73.703125 0 "/></g></g></g><g clip-path="url(#0d14803b28)"><g clip-path="url(#72258f83d2)"><path fill="#254b8f" d="M 0 0 L 300 0 L 300 300 L 0 300 Z M 0 0 " fill-opacity="1" fill-rule="nonzero"/></g></g><g clip-path="url(#0b275697c7)"><g clip-path="url(#48b77431de)"><path fill="#ffffff" d="M 165.03125 20.582031 L 186.152344 20.582031 L 186.152344 41.703125 L 165.03125 41.703125 Z M 165.03125 20.582031 " fill-opacity="1" fill-rule="nonzero"/></g></g><g clip-path="url(#c2ebf24e4b)"><g clip-path="url(#0ec08cf7dd)"><path fill="#223a6a" d="M 25.488281 20.582031 L 124.582031 20.582031 L 124.582031 41.703125 L 25.488281 41.703125 Z M 25.488281 20.582031 " fill-opacity="1" fill-rule="nonzero"/></g></g><g clip-path="url(#f6b7d1d1cc)"><g clip-path="url(#db01b4062e)"><path fill="#ffffff" d="M 206.371094 20.582031 L 227.3125 20.582031 L 227.3125 41.527344 L 206.371094 41.527344 Z M 206.371094 20.582031 " fill-opacity="1" fill-rule="nonzero"/></g></g><g clip-path="url(#12a8ad92b8)"><g clip-path="url(#392dde21dc)"><path fill="#ffffff" d="M 247.5625 20.40625 L 268.683594 20.40625 L 268.683594 41.527344 L 247.5625 41.527344 Z M 247.5625 20.40625 " fill-opacity="1" fill-rule="nonzero"/></g></g><g clip-path="url(#350c4a64e8)"><g clip-path="url(#08f994e60e)"><path fill="#d0eaf5" d="M 20.851562 62.222656 L 278.753906 62.222656 L 278.753906 279.40625 L 20.851562 279.40625 Z M 20.851562 62.222656 " fill-opacity="1" fill-rule="nonzero"/></g></g><path fill="#68283c" d="M 78.074219 156.082031 L 120.6875 86.835938 C 123.347656 82.507812 129.019531 81.15625 133.347656 83.820312 C 137.675781 86.484375 139.027344 92.152344 136.359375 96.480469 L 99.683594 156.082031 L 97.84375 159.152344 L 79.4375 159.152344 Z M 78.074219 156.082031 " fill-opacity="1" fill-rule="nonzero"/><path fill="#68283c" d="M 221.925781 156.082031 L 179.3125 86.835938 C 176.648438 82.507812 170.976562 81.15625 166.652344 83.820312 C 162.324219 86.484375 160.972656 92.152344 163.640625 96.480469 L 200.316406 156.082031 L 202.152344 159.152344 L 220.5625 159.152344 C 220.5625 159.152344 221.925781 156.082031 221.925781 156.082031 Z M 221.925781 156.082031 " fill-opacity="1" fill-rule="nonzero"/><g clip-path="url(#909a4e6e14)"><path fill="#9f2c4a" d="M 232.832031 180.628906 L 223.238281 242.984375 C 221.699219 253 213.082031 260.390625 202.949219 260.390625 L 97.050781 260.390625 C 86.917969 260.390625 78.304688 253 76.757812 242.984375 L 67.167969 180.628906 L 67.167969 174.492188 L 232.832031 174.492188 Z M 232.832031 180.628906 " fill-opacity="1" fill-rule="nonzero"/></g><g clip-path="url(#60bae22d47)"><path fill="#c03853" d="M 64.097656 156.082031 L 235.898438 156.082031 C 236.308594 156.082031 236.699219 156.160156 237.074219 156.316406 C 237.449219 156.472656 237.78125 156.695312 238.070312 156.984375 C 238.355469 157.269531 238.578125 157.601562 238.734375 157.976562 C 238.890625 158.355469 238.96875 158.746094 238.96875 159.152344 L 238.96875 177.558594 C 238.96875 177.964844 238.890625 178.355469 238.734375 178.734375 C 238.578125 179.109375 238.355469 179.441406 238.070312 179.726562 C 237.78125 180.015625 237.449219 180.238281 237.074219 180.394531 C 236.699219 180.550781 236.308594 180.628906 235.898438 180.628906 L 64.097656 180.628906 C 63.691406 180.628906 63.300781 180.550781 62.925781 180.394531 C 62.546875 180.238281 62.21875 180.015625 61.929688 179.726562 C 61.640625 179.441406 61.417969 179.109375 61.265625 178.734375 C 61.109375 178.355469 61.03125 177.964844 61.03125 177.558594 L 61.03125 159.152344 C 61.03125 158.746094 61.109375 158.355469 61.265625 157.976562 C 61.417969 157.601562 61.640625 157.269531 61.929688 156.984375 C 62.21875 156.695312 62.546875 156.472656 62.925781 156.316406 C 63.300781 156.160156 63.691406 156.082031 64.097656 156.082031 Z M 64.097656 156.082031 " fill-opacity="1" fill-rule="nonzero"/></g><path fill="#9f2c4a" d="M 150 245.050781 C 148.304688 245.050781 146.929688 243.679688 146.929688 241.984375 L 146.929688 199.035156 C 146.929688 197.335938 148.304688 195.964844 150 195.964844 C 151.695312 195.964844 153.066406 197.335938 153.066406 199.035156 L 153.066406 241.984375 C 153.066406 243.679688 151.695312 245.050781 150 245.050781 Z M 150 245.050781 " fill-opacity="1" fill-rule="nonzero"/><path fill="#9f2c4a" d="M 125.453125 245.050781 C 123.859375 245.050781 122.511719 243.820312 122.398438 242.203125 L 119.328125 199.253906 C 119.207031 197.5625 120.480469 196.09375 122.171875 195.976562 C 123.914062 195.820312 125.328125 197.128906 125.445312 198.816406 L 128.515625 241.765625 C 128.636719 243.457031 127.363281 244.921875 125.675781 245.042969 C 125.601562 245.050781 125.523438 245.050781 125.453125 245.050781 Z M 125.453125 245.050781 " fill-opacity="1" fill-rule="nonzero"/><path fill="#9f2c4a" d="M 100.910156 245.050781 C 99.40625 245.050781 98.09375 243.953125 97.875 242.421875 L 91.738281 199.46875 C 91.5 197.792969 92.667969 196.238281 94.34375 195.996094 C 96.015625 195.75 97.578125 196.921875 97.816406 198.601562 L 103.953125 241.550781 C 104.191406 243.230469 103.027344 244.785156 101.347656 245.023438 C 101.203125 245.046875 101.054688 245.054688 100.910156 245.054688 Z M 100.910156 245.050781 " fill-opacity="1" fill-rule="nonzero"/><path fill="#9f2c4a" d="M 174.546875 245.050781 C 174.476562 245.050781 174.398438 245.050781 174.324219 245.042969 C 172.632812 244.921875 171.359375 243.453125 171.484375 241.765625 L 174.550781 198.816406 C 174.671875 197.128906 176.117188 195.828125 177.828125 195.976562 C 179.519531 196.09375 180.792969 197.566406 180.667969 199.253906 L 177.601562 242.203125 C 177.488281 243.816406 176.136719 245.050781 174.546875 245.050781 Z M 174.546875 245.050781 " fill-opacity="1" fill-rule="nonzero"/><path fill="#9f2c4a" d="M 199.089844 245.050781 C 198.945312 245.050781 198.796875 245.042969 198.648438 245.023438 C 196.972656 244.78125 195.804688 243.226562 196.046875 241.550781 L 202.179688 198.597656 C 202.421875 196.921875 203.984375 195.765625 205.652344 195.992188 C 207.332031 196.234375 208.496094 197.789062 208.257812 199.46875 L 202.121094 242.417969 C 201.90625 243.949219 200.59375 245.050781 199.089844 245.050781 Z M 199.089844 245.050781 " fill-opacity="1" fill-rule="nonzero"/></svg>