<svg xmlns="http://www.w3.org/2000/svg" xmlns:xlink="http://www.w3.org/1999/xlink" width="1700" zoomAndPan="magnify" viewBox="0 0 1275 299.999988" height="400" preserveAspectRatio="xMidYMid meet" version="1.0"><defs><g/><clipPath id="987910243b"><path d="M 235 152 L 360.75 152 L 360.75 228 L 235 228 Z M 235 152 " clip-rule="nonzero"/></clipPath></defs><g fill="#0753b4" fill-opacity="1"><g transform="translate(394.400589, 217.000353)"><g><path d="M 74.65625 2.765625 C 67.03125 2.765625 59.789062 1.640625 52.9375 -0.609375 C 46.082031 -2.867188 39.8125 -6.0625 34.125 -10.1875 C 28.445312 -14.3125 23.53125 -19.195312 19.375 -24.84375 C 15.21875 -30.5 11.992188 -36.722656 9.703125 -43.515625 C 7.421875 -50.304688 6.28125 -57.445312 6.28125 -64.9375 C 6.28125 -72.488281 7.421875 -79.644531 9.703125 -86.40625 C 11.992188 -93.164062 15.21875 -99.351562 19.375 -104.96875 C 23.53125 -110.59375 28.445312 -115.46875 34.125 -119.59375 C 39.8125 -123.71875 46.082031 -126.90625 52.9375 -129.15625 C 59.789062 -131.414062 67.03125 -132.546875 74.65625 -132.546875 C 81.507812 -132.546875 88.300781 -131.53125 95.03125 -129.5 C 101.757812 -127.46875 108.039062 -124.367188 113.875 -120.203125 C 119.71875 -116.046875 124.671875 -110.789062 128.734375 -104.4375 C 132.796875 -98.09375 135.585938 -90.609375 137.109375 -81.984375 L 112.921875 -81.984375 C 111.210938 -88.648438 108.46875 -94.109375 104.6875 -98.359375 C 100.914062 -102.609375 96.394531 -105.75 91.125 -107.78125 C 85.851562 -109.8125 80.140625 -110.828125 73.984375 -110.828125 C 67.890625 -110.828125 62.175781 -109.734375 56.84375 -107.546875 C 51.507812 -105.359375 46.828125 -102.234375 42.796875 -98.171875 C 38.765625 -94.109375 35.625 -89.265625 33.375 -83.640625 C 31.125 -78.023438 30 -71.757812 30 -64.84375 C 30 -57.789062 31.125 -51.457031 33.375 -45.84375 C 35.625 -40.226562 38.765625 -35.421875 42.796875 -31.421875 C 46.828125 -27.421875 51.507812 -24.359375 56.84375 -22.234375 C 62.175781 -20.109375 67.890625 -19.046875 73.984375 -19.046875 C 80.140625 -19.046875 85.832031 -20.0625 91.0625 -22.09375 C 96.300781 -24.125 100.828125 -27.265625 104.640625 -31.515625 C 108.453125 -35.765625 111.179688 -41.191406 112.828125 -47.796875 L 137.109375 -47.796875 C 135.585938 -39.160156 132.796875 -31.648438 128.734375 -25.265625 C 124.671875 -18.890625 119.75 -13.640625 113.96875 -9.515625 C 108.195312 -5.390625 101.929688 -2.3125 95.171875 -0.28125 C 88.410156 1.75 81.570312 2.765625 74.65625 2.765625 Z M 74.65625 2.765625 "/></g></g></g><g fill="#0753b4" fill-opacity="1"><g transform="translate(544.90376, 217.000353)"><g><path d="M 68.453125 2.859375 C 60.648438 2.859375 53.398438 1.617188 46.703125 -0.859375 C 40.003906 -3.335938 34.128906 -6.875 29.078125 -11.46875 C 24.035156 -16.070312 20.117188 -21.640625 17.328125 -28.171875 C 14.535156 -34.710938 13.140625 -42.015625 13.140625 -50.078125 L 13.140625 -129.5 L 36.75 -129.5 L 36.75 -51.796875 C 36.75 -45.703125 37.96875 -40.160156 40.40625 -35.171875 C 42.851562 -30.191406 46.441406 -26.226562 51.171875 -23.28125 C 55.898438 -20.332031 61.660156 -18.859375 68.453125 -18.859375 C 75.117188 -18.859375 80.800781 -20.316406 85.5 -23.234375 C 90.195312 -26.148438 93.800781 -30.097656 96.3125 -35.078125 C 98.820312 -40.066406 100.078125 -45.609375 100.078125 -51.703125 L 100.078125 -129.5 L 123.78125 -129.5 L 123.78125 -50.078125 C 123.78125 -42.335938 122.445312 -35.242188 119.78125 -28.796875 C 117.113281 -22.359375 113.335938 -16.773438 108.453125 -12.046875 C 103.566406 -7.316406 97.726562 -3.648438 90.9375 -1.046875 C 84.144531 1.554688 76.648438 2.859375 68.453125 2.859375 Z M 68.453125 2.859375 "/></g></g></g><g fill="#0753b4" fill-opacity="1"><g transform="translate(688.742145, 217.000353)"><g><path d="M 77.3125 0 L 15.421875 0 L 15.421875 -129.5 L 71.890625 -129.5 C 79.753906 -129.5 86.640625 -128.082031 92.546875 -125.25 C 98.453125 -122.425781 103.054688 -118.394531 106.359375 -113.15625 C 109.660156 -107.925781 111.3125 -101.691406 111.3125 -94.453125 C 111.3125 -90.640625 110.5625 -87.003906 109.0625 -83.546875 C 107.570312 -80.085938 105.585938 -77.039062 103.109375 -74.40625 C 100.640625 -71.769531 97.910156 -69.820312 94.921875 -68.5625 C 99.304688 -67.15625 103.289062 -64.945312 106.875 -61.9375 C 110.46875 -58.925781 113.34375 -55.335938 115.5 -51.171875 C 117.65625 -47.015625 118.734375 -42.492188 118.734375 -37.609375 C 118.734375 -31.203125 117.570312 -25.632812 115.25 -20.90625 C 112.9375 -16.175781 109.796875 -12.269531 105.828125 -9.1875 C 101.859375 -6.113281 97.414062 -3.8125 92.5 -2.28125 C 87.582031 -0.757812 82.519531 0 77.3125 0 Z M 39.328125 -109.109375 L 39.328125 -75.40625 L 70.75 -75.40625 C 73.914062 -75.40625 76.753906 -76.148438 79.265625 -77.640625 C 81.773438 -79.140625 83.757812 -81.171875 85.21875 -83.734375 C 86.675781 -86.304688 87.40625 -89.179688 87.40625 -92.359375 C 87.40625 -95.535156 86.675781 -98.390625 85.21875 -100.921875 C 83.757812 -103.460938 81.789062 -105.460938 79.3125 -106.921875 C 76.832031 -108.378906 74.007812 -109.109375 70.84375 -109.109375 Z M 39.328125 -57.609375 L 39.328125 -20.46875 L 75.21875 -20.46875 C 78.90625 -20.46875 82.191406 -21.273438 85.078125 -22.890625 C 87.960938 -24.515625 90.242188 -26.753906 91.921875 -29.609375 C 93.609375 -32.460938 94.453125 -35.734375 94.453125 -39.421875 C 94.453125 -42.785156 93.625 -45.832031 91.96875 -48.5625 C 90.320312 -51.289062 88.054688 -53.476562 85.171875 -55.125 C 82.285156 -56.78125 79.03125 -57.609375 75.40625 -57.609375 Z M 39.328125 -57.609375 "/></g></g></g><g fill="#0753b4" fill-opacity="1"><g transform="translate(820.58393, 217.000353)"><g><path d="M 39.140625 0 L 15.421875 0 L 15.421875 -129.5 L 39.140625 -129.5 Z M 39.140625 0 "/></g></g></g><g fill="#47b8d1" fill-opacity="1"><g transform="translate(882.076335, 217.000353)"><g><path d="M 39.140625 0 L 15.421875 0 L 15.421875 -129.5 L 69.984375 -129.5 C 76.523438 -129.5 82.539062 -128.414062 88.03125 -126.25 C 93.519531 -124.09375 98.265625 -121.0625 102.265625 -117.15625 C 106.265625 -113.257812 109.375 -108.644531 111.59375 -103.3125 C 113.8125 -97.976562 114.921875 -92.171875 114.921875 -85.890625 C 114.921875 -79.222656 113.828125 -73.160156 111.640625 -67.703125 C 109.453125 -62.242188 106.375 -57.546875 102.40625 -53.609375 C 98.4375 -49.671875 93.722656 -46.640625 88.265625 -44.515625 C 82.804688 -42.390625 76.835938 -41.328125 70.359375 -41.328125 L 39.140625 -41.328125 Z M 39.140625 -108.359375 L 39.140625 -62.46875 L 69.21875 -62.46875 C 73.34375 -62.46875 77.070312 -63.5 80.40625 -65.5625 C 83.738281 -67.625 86.375 -70.414062 88.3125 -73.9375 C 90.25 -77.457031 91.21875 -81.441406 91.21875 -85.890625 C 91.21875 -89.816406 90.234375 -93.492188 88.265625 -96.921875 C 86.296875 -100.359375 83.644531 -103.125 80.3125 -105.21875 C 76.976562 -107.3125 73.21875 -108.359375 69.03125 -108.359375 Z M 39.140625 -108.359375 "/></g></g></g><g fill="#47b8d1" fill-opacity="1"><g transform="translate(1006.967701, 217.000353)"><g><path d="M 52.65625 2.953125 C 46.050781 2.953125 39.941406 1.617188 34.328125 -1.046875 C 28.710938 -3.710938 23.820312 -7.425781 19.65625 -12.1875 C 15.5 -16.945312 12.273438 -22.46875 9.984375 -28.75 C 7.703125 -35.039062 6.5625 -41.769531 6.5625 -48.9375 C 6.5625 -56.113281 7.71875 -62.828125 10.03125 -69.078125 C 12.351562 -75.328125 15.59375 -80.832031 19.75 -85.59375 C 23.914062 -90.351562 28.789062 -94.082031 34.375 -96.78125 C 39.957031 -99.476562 46.019531 -100.828125 52.5625 -100.828125 C 60.5625 -100.828125 67.671875 -99.097656 73.890625 -95.640625 C 80.109375 -92.179688 84.773438 -87.40625 87.890625 -81.3125 L 87.890625 -97.875 L 109.78125 -97.875 L 109.78125 0 L 87.890625 0 L 87.890625 -16.46875 C 84.710938 -10.375 80.03125 -5.613281 73.84375 -2.1875 C 67.65625 1.238281 60.59375 2.953125 52.65625 2.953125 Z M 58.171875 -18.375 C 62.171875 -18.375 65.914062 -19.148438 69.40625 -20.703125 C 72.90625 -22.265625 75.96875 -24.425781 78.59375 -27.1875 C 81.226562 -29.945312 83.273438 -33.179688 84.734375 -36.890625 C 86.203125 -40.609375 86.9375 -44.625 86.9375 -48.9375 C 86.9375 -53.1875 86.1875 -57.164062 84.6875 -60.875 C 83.195312 -64.59375 81.148438 -67.847656 78.546875 -70.640625 C 75.953125 -73.441406 72.90625 -75.617188 69.40625 -77.171875 C 65.914062 -78.722656 62.171875 -79.5 58.171875 -79.5 C 52.910156 -79.5 48.101562 -78.226562 43.75 -75.6875 C 39.40625 -73.15625 35.929688 -69.601562 33.328125 -65.03125 C 30.722656 -60.457031 29.421875 -55.09375 29.421875 -48.9375 C 29.421875 -42.59375 30.738281 -37.132812 33.375 -32.5625 C 36.007812 -27.988281 39.515625 -24.476562 43.890625 -22.03125 C 48.273438 -19.59375 53.035156 -18.375 58.171875 -18.375 Z M 58.171875 -18.375 "/></g></g></g><g fill="#47b8d1" fill-opacity="1"><g transform="translate(1137.286108, 217.000353)"><g><path d="M 21.140625 33.421875 L 4.671875 33.421875 L 4.671875 14.375 L 20.953125 14.375 C 24.378906 14.375 27.1875 13.816406 29.375 12.703125 C 31.5625 11.597656 33.414062 9.898438 34.9375 7.609375 C 36.46875 5.328125 37.898438 2.378906 39.234375 -1.234375 L 40.375 -4.578125 L 2.859375 -97.875 L 27.140625 -97.875 L 50.171875 -38.65625 L 52.65625 -28.5625 L 55.21875 -38.5625 L 77.890625 -97.78125 L 102.453125 -97.875 L 64.265625 -2.1875 C 61.410156 5.113281 58.554688 11.09375 55.703125 15.75 C 52.847656 20.414062 49.785156 24.035156 46.515625 26.609375 C 43.242188 29.179688 39.5625 30.957031 35.46875 31.9375 C 31.375 32.925781 26.597656 33.421875 21.140625 33.421875 Z M 21.140625 33.421875 "/></g></g></g><path fill="#3faa84" d="M 145.230469 4.121094 L 215.671875 29.757812 C 216.441406 30.039062 217.195312 30.355469 217.933594 30.707031 C 218.671875 31.0625 219.390625 31.453125 220.089844 31.875 C 220.789062 32.300781 221.464844 32.757812 222.121094 33.25 C 222.773438 33.742188 223.402344 34.261719 224.007812 34.816406 C 224.609375 35.367188 225.183594 35.949219 225.730469 36.558594 C 226.277344 37.167969 226.792969 37.804688 227.277344 38.464844 C 227.761719 39.125 228.210938 39.804688 228.628906 40.507812 C 229.046875 41.214844 229.425781 41.9375 229.773438 42.679688 C 230.117188 43.417969 230.425781 44.175781 230.699219 44.949219 C 230.96875 45.722656 231.203125 46.503906 231.398438 47.300781 C 231.589844 48.09375 231.746094 48.898438 231.863281 49.707031 C 231.976562 50.515625 232.054688 51.332031 232.089844 52.148438 C 232.125 52.964844 232.121094 53.785156 232.074219 54.601562 C 232.03125 55.417969 231.945312 56.230469 231.824219 57.039062 C 231.699219 57.847656 231.535156 58.648438 231.332031 59.441406 C 231.128906 60.234375 230.886719 61.015625 230.605469 61.785156 L 183.601562 190.925781 C 183.324219 191.695312 183.007812 192.449219 182.652344 193.1875 C 182.296875 193.921875 181.910156 194.640625 181.484375 195.339844 C 181.058594 196.042969 180.601562 196.71875 180.109375 197.375 C 179.621094 198.027344 179.097656 198.65625 178.546875 199.261719 C 177.992188 199.863281 177.410156 200.4375 176.800781 200.984375 C 176.191406 201.53125 175.558594 202.046875 174.898438 202.53125 C 174.238281 203.015625 173.554688 203.464844 172.851562 203.882812 C 172.148438 204.296875 171.425781 204.679688 170.683594 205.023438 C 169.941406 205.371094 169.183594 205.679688 168.414062 205.949219 C 167.640625 206.222656 166.855469 206.457031 166.0625 206.648438 C 165.265625 206.84375 164.464844 207 163.652344 207.117188 C 162.84375 207.230469 162.03125 207.308594 161.210938 207.34375 C 160.394531 207.378906 159.578125 207.375 158.761719 207.328125 C 157.945312 207.285156 157.128906 207.199219 156.320312 207.074219 C 155.511719 206.949219 154.710938 206.789062 153.917969 206.582031 C 153.125 206.378906 152.34375 206.140625 151.578125 205.859375 L 81.136719 180.222656 C 80.367188 179.941406 79.613281 179.625 78.875 179.269531 C 78.136719 178.917969 77.417969 178.527344 76.71875 178.101562 C 76.019531 177.679688 75.34375 177.21875 74.6875 176.730469 C 74.035156 176.238281 73.40625 175.714844 72.800781 175.164062 C 72.199219 174.609375 71.621094 174.03125 71.078125 173.421875 C 70.53125 172.8125 70.015625 172.175781 69.53125 171.515625 C 69.046875 170.855469 68.597656 170.175781 68.179688 169.46875 C 67.761719 168.765625 67.382812 168.042969 67.035156 167.300781 C 66.691406 166.558594 66.382812 165.800781 66.109375 165.03125 C 65.839844 164.257812 65.605469 163.476562 65.410156 162.679688 C 65.214844 161.886719 65.0625 161.082031 64.945312 160.273438 C 64.832031 159.460938 64.753906 158.648438 64.71875 157.832031 C 64.683594 157.011719 64.6875 156.195312 64.730469 155.378906 C 64.777344 154.5625 64.863281 153.75 64.984375 152.941406 C 65.109375 152.132812 65.273438 151.332031 65.476562 150.539062 C 65.679688 149.746094 65.921875 148.964844 66.203125 148.195312 L 113.207031 19.054688 C 113.484375 18.285156 113.800781 17.53125 114.15625 16.792969 C 114.511719 16.054688 114.898438 15.335938 115.324219 14.636719 C 115.75 13.9375 116.207031 13.261719 116.699219 12.605469 C 117.1875 11.953125 117.710938 11.324219 118.261719 10.71875 C 118.816406 10.117188 119.398438 9.539062 120.007812 8.996094 C 120.617188 8.449219 121.25 7.933594 121.910156 7.449219 C 122.570312 6.964844 123.253906 6.515625 123.957031 6.097656 C 124.660156 5.679688 125.382812 5.300781 126.125 4.953125 C 126.867188 4.609375 127.625 4.300781 128.394531 4.027344 C 129.167969 3.757812 129.953125 3.523438 130.746094 3.328125 C 131.542969 3.132812 132.34375 2.980469 133.152344 2.863281 C 133.964844 2.75 134.777344 2.671875 135.597656 2.636719 C 136.414062 2.601562 137.230469 2.605469 138.046875 2.648438 C 138.863281 2.695312 139.679688 2.777344 140.488281 2.902344 C 141.296875 3.027344 142.097656 3.191406 142.890625 3.394531 C 143.683594 3.597656 144.460938 3.839844 145.230469 4.121094 Z M 145.230469 4.121094 " fill-opacity="1" fill-rule="nonzero"/><path fill="#50c295" d="M 207.804688 4.121094 L 278.246094 29.757812 C 279.015625 30.039062 279.769531 30.355469 280.503906 30.710938 C 281.242188 31.0625 281.960938 31.453125 282.660156 31.878906 C 283.363281 32.300781 284.039062 32.761719 284.695312 33.25 C 285.347656 33.742188 285.976562 34.265625 286.582031 34.816406 C 287.183594 35.371094 287.757812 35.949219 288.304688 36.558594 C 288.851562 37.167969 289.367188 37.804688 289.851562 38.464844 C 290.335938 39.125 290.785156 39.804688 291.203125 40.511719 C 291.617188 41.214844 292 41.9375 292.34375 42.679688 C 292.691406 43.421875 293 44.179688 293.269531 44.949219 C 293.542969 45.722656 293.777344 46.503906 293.96875 47.300781 C 294.164062 48.09375 294.320312 48.898438 294.4375 49.707031 C 294.550781 50.519531 294.628906 51.332031 294.664062 52.148438 C 294.699219 52.96875 294.695312 53.785156 294.648438 54.601562 C 294.605469 55.417969 294.519531 56.230469 294.394531 57.039062 C 294.269531 57.847656 294.105469 58.648438 293.902344 59.441406 C 293.699219 60.234375 293.460938 61.015625 293.179688 61.785156 L 246.175781 190.925781 C 245.894531 191.695312 245.578125 192.449219 245.226562 193.1875 C 244.871094 193.925781 244.480469 194.644531 244.058594 195.34375 C 243.632812 196.042969 243.175781 196.71875 242.683594 197.375 C 242.191406 198.027344 241.671875 198.65625 241.117188 199.261719 C 240.566406 199.863281 239.984375 200.4375 239.375 200.984375 C 238.765625 201.53125 238.132812 202.046875 237.472656 202.53125 C 236.8125 203.015625 236.128906 203.464844 235.425781 203.882812 C 234.71875 204.300781 233.996094 204.679688 233.257812 205.027344 C 232.515625 205.371094 231.757812 205.679688 230.984375 205.953125 C 230.214844 206.222656 229.429688 206.457031 228.636719 206.652344 C 227.839844 206.84375 227.039062 207 226.226562 207.117188 C 225.417969 207.230469 224.601562 207.308594 223.785156 207.34375 C 222.96875 207.378906 222.152344 207.375 221.332031 207.332031 C 220.515625 207.285156 219.703125 207.199219 218.894531 207.078125 C 218.085938 206.953125 217.285156 206.789062 216.492188 206.585938 C 215.699219 206.382812 214.917969 206.140625 214.148438 205.859375 L 143.710938 180.222656 C 142.941406 179.941406 142.1875 179.625 141.449219 179.269531 C 140.710938 178.917969 139.992188 178.527344 139.292969 178.105469 C 138.59375 177.679688 137.917969 177.222656 137.261719 176.730469 C 136.605469 176.238281 135.976562 175.71875 135.375 175.164062 C 134.769531 174.613281 134.195312 174.03125 133.648438 173.421875 C 133.105469 172.8125 132.589844 172.175781 132.105469 171.515625 C 131.621094 170.855469 131.171875 170.175781 130.753906 169.472656 C 130.335938 168.765625 129.957031 168.042969 129.609375 167.300781 C 129.261719 166.558594 128.953125 165.804688 128.683594 165.03125 C 128.410156 164.257812 128.179688 163.476562 127.984375 162.679688 C 127.789062 161.886719 127.636719 161.082031 127.519531 160.273438 C 127.402344 159.464844 127.328125 158.648438 127.292969 157.832031 C 127.257812 157.015625 127.261719 156.195312 127.304688 155.378906 C 127.351562 154.5625 127.433594 153.75 127.558594 152.941406 C 127.683594 152.132812 127.847656 151.332031 128.050781 150.539062 C 128.253906 149.746094 128.496094 148.964844 128.773438 148.195312 L 175.777344 19.054688 C 176.058594 18.285156 176.375 17.53125 176.730469 16.792969 C 177.082031 16.058594 177.472656 15.339844 177.898438 14.636719 C 178.320312 13.9375 178.78125 13.261719 179.269531 12.605469 C 179.761719 11.953125 180.285156 11.324219 180.835938 10.71875 C 181.390625 10.117188 181.96875 9.542969 182.578125 8.996094 C 183.1875 8.449219 183.824219 7.933594 184.484375 7.449219 C 185.144531 6.964844 185.824219 6.515625 186.53125 6.097656 C 187.234375 5.683594 187.957031 5.300781 188.699219 4.953125 C 189.441406 4.609375 190.199219 4.300781 190.96875 4.027344 C 191.742188 3.757812 192.523438 3.523438 193.320312 3.328125 C 194.113281 3.136719 194.917969 2.980469 195.726562 2.863281 C 196.539062 2.75 197.351562 2.671875 198.167969 2.636719 C 198.988281 2.601562 199.804688 2.605469 200.621094 2.652344 C 201.4375 2.695312 202.25 2.78125 203.058594 2.90625 C 203.867188 3.027344 204.667969 3.191406 205.460938 3.394531 C 206.253906 3.597656 207.035156 3.839844 207.804688 4.121094 Z M 207.804688 4.121094 " fill-opacity="1" fill-rule="nonzero"/><path fill="#1a75d0" d="M 60.988281 77.640625 L 310.859375 77.640625 C 311.675781 77.640625 312.492188 77.679688 313.308594 77.761719 C 314.121094 77.839844 314.929688 77.960938 315.734375 78.121094 C 316.535156 78.28125 317.328125 78.476562 318.109375 78.714844 C 318.894531 78.953125 319.664062 79.230469 320.421875 79.542969 C 321.175781 79.855469 321.914062 80.203125 322.636719 80.589844 C 323.359375 80.976562 324.058594 81.394531 324.738281 81.851562 C 325.421875 82.304688 326.078125 82.792969 326.710938 83.3125 C 327.34375 83.832031 327.949219 84.378906 328.527344 84.957031 C 329.105469 85.535156 329.652344 86.144531 330.171875 86.773438 C 330.691406 87.40625 331.179688 88.0625 331.632812 88.746094 C 332.089844 89.425781 332.507812 90.125 332.894531 90.847656 C 333.28125 91.570312 333.628906 92.308594 333.941406 93.066406 C 334.257812 93.820312 334.53125 94.589844 334.769531 95.375 C 335.007812 96.15625 335.207031 96.949219 335.363281 97.753906 C 335.523438 98.554688 335.644531 99.363281 335.726562 100.175781 C 335.804688 100.992188 335.84375 101.808594 335.84375 102.625 L 335.84375 277.535156 C 335.84375 278.355469 335.804688 279.171875 335.726562 279.984375 C 335.644531 280.800781 335.523438 281.609375 335.363281 282.410156 C 335.207031 283.214844 335.007812 284.007812 334.769531 284.789062 C 334.53125 285.574219 334.257812 286.34375 333.941406 287.097656 C 333.628906 287.855469 333.28125 288.59375 332.894531 289.316406 C 332.507812 290.035156 332.089844 290.738281 331.632812 291.417969 C 331.179688 292.097656 330.691406 292.753906 330.171875 293.386719 C 329.652344 294.019531 329.105469 294.625 328.527344 295.203125 C 327.949219 295.785156 327.34375 296.332031 326.710938 296.851562 C 326.078125 297.371094 325.421875 297.859375 324.738281 298.3125 C 324.058594 298.765625 323.359375 299.1875 322.636719 299.574219 C 321.914062 299.957031 321.175781 300.308594 320.421875 300.621094 C 319.664062 300.933594 318.894531 301.210938 318.109375 301.449219 C 317.328125 301.683594 316.535156 301.882812 315.734375 302.042969 C 314.929688 302.203125 314.121094 302.324219 313.308594 302.402344 C 312.492188 302.484375 311.675781 302.523438 310.859375 302.523438 L 60.988281 302.523438 C 60.167969 302.523438 59.351562 302.484375 58.539062 302.402344 C 57.722656 302.324219 56.914062 302.203125 56.113281 302.042969 C 55.308594 301.882812 54.515625 301.683594 53.734375 301.449219 C 52.949219 301.210938 52.179688 300.933594 51.425781 300.621094 C 50.667969 300.308594 49.929688 299.957031 49.207031 299.574219 C 48.488281 299.1875 47.785156 298.765625 47.105469 298.3125 C 46.425781 297.859375 45.769531 297.371094 45.136719 296.851562 C 44.503906 296.332031 43.898438 295.785156 43.320312 295.203125 C 42.738281 294.625 42.191406 294.019531 41.671875 293.386719 C 41.152344 292.753906 40.664062 292.097656 40.210938 291.417969 C 39.757812 290.738281 39.335938 290.035156 38.949219 289.316406 C 38.566406 288.59375 38.214844 287.855469 37.902344 287.097656 C 37.589844 286.34375 37.3125 285.574219 37.074219 284.789062 C 36.839844 284.007812 36.640625 283.214844 36.480469 282.410156 C 36.320312 281.609375 36.199219 280.800781 36.121094 279.984375 C 36.039062 279.171875 36 278.355469 36 277.535156 L 36 102.625 C 36 101.808594 36.039062 100.992188 36.121094 100.175781 C 36.199219 99.363281 36.320312 98.554688 36.480469 97.753906 C 36.640625 96.949219 36.839844 96.15625 37.074219 95.375 C 37.3125 94.589844 37.589844 93.820312 37.902344 93.066406 C 38.214844 92.308594 38.566406 91.570312 38.949219 90.847656 C 39.335938 90.125 39.757812 89.425781 40.210938 88.746094 C 40.664062 88.0625 41.152344 87.40625 41.671875 86.773438 C 42.191406 86.144531 42.738281 85.535156 43.320312 84.957031 C 43.898438 84.378906 44.503906 83.832031 45.136719 83.3125 C 45.769531 82.792969 46.425781 82.304688 47.105469 81.851562 C 47.785156 81.394531 48.488281 80.976562 49.207031 80.589844 C 49.929688 80.203125 50.667969 79.855469 51.425781 79.542969 C 52.179688 79.230469 52.949219 78.953125 53.734375 78.714844 C 54.515625 78.476562 55.308594 78.28125 56.113281 78.121094 C 56.914062 77.960938 57.722656 77.839844 58.539062 77.761719 C 59.351562 77.679688 60.167969 77.640625 60.988281 77.640625 Z M 60.988281 77.640625 " fill-opacity="1" fill-rule="nonzero"/><g clip-path="url(#987910243b)"><path fill="#cad2d9" d="M 260.882812 152.601562 L 348.339844 152.601562 C 349.160156 152.601562 349.972656 152.679688 350.777344 152.839844 C 351.582031 153 352.363281 153.238281 353.121094 153.550781 C 353.878906 153.867188 354.597656 154.25 355.28125 154.707031 C 355.960938 155.164062 356.59375 155.679688 357.171875 156.261719 C 357.753906 156.839844 358.269531 157.472656 358.726562 158.152344 C 359.183594 158.835938 359.566406 159.554688 359.882812 160.3125 C 360.195312 161.070312 360.433594 161.851562 360.59375 162.65625 C 360.753906 163.460938 360.832031 164.273438 360.832031 165.09375 L 360.832031 215.070312 C 360.832031 215.890625 360.753906 216.703125 360.59375 217.507812 C 360.433594 218.3125 360.195312 219.09375 359.882812 219.851562 C 359.566406 220.609375 359.183594 221.328125 358.726562 222.007812 C 358.269531 222.691406 357.753906 223.324219 357.171875 223.902344 C 356.59375 224.484375 355.960938 225 355.28125 225.457031 C 354.597656 225.914062 353.878906 226.296875 353.121094 226.609375 C 352.363281 226.925781 351.582031 227.164062 350.777344 227.320312 C 349.972656 227.480469 349.160156 227.5625 348.339844 227.5625 L 260.882812 227.5625 C 260.066406 227.5625 259.25 227.523438 258.433594 227.441406 C 257.621094 227.363281 256.8125 227.242188 256.007812 227.082031 C 255.207031 226.921875 254.414062 226.722656 253.628906 226.484375 C 252.847656 226.25 252.078125 225.972656 251.320312 225.660156 C 250.566406 225.347656 249.828125 224.996094 249.105469 224.613281 C 248.382812 224.226562 247.683594 223.804688 247 223.351562 C 246.320312 222.898438 245.664062 222.410156 245.03125 221.890625 C 244.398438 221.371094 243.792969 220.824219 243.214844 220.242188 C 242.636719 219.664062 242.085938 219.058594 241.570312 218.425781 C 241.050781 217.792969 240.5625 217.136719 240.109375 216.457031 C 239.652344 215.777344 239.234375 215.074219 238.847656 214.355469 C 238.460938 213.632812 238.113281 212.894531 237.796875 212.136719 C 237.484375 211.382812 237.210938 210.613281 236.972656 209.828125 C 236.734375 209.046875 236.535156 208.253906 236.375 207.449219 C 236.21875 206.648438 236.097656 205.839844 236.015625 205.023438 C 235.9375 204.210938 235.898438 203.394531 235.898438 202.574219 L 235.898438 177.589844 C 235.898438 176.769531 235.9375 175.953125 236.015625 175.140625 C 236.097656 174.324219 236.21875 173.515625 236.375 172.714844 C 236.535156 171.910156 236.734375 171.117188 236.972656 170.335938 C 237.210938 169.550781 237.484375 168.78125 237.796875 168.027344 C 238.113281 167.269531 238.460938 166.53125 238.847656 165.808594 C 239.234375 165.085938 239.652344 164.386719 240.109375 163.707031 C 240.5625 163.027344 241.050781 162.367188 241.570312 161.738281 C 242.085938 161.105469 242.636719 160.5 243.214844 159.917969 C 243.792969 159.339844 244.398438 158.792969 245.03125 158.273438 C 245.664062 157.753906 246.320312 157.265625 247 156.8125 C 247.683594 156.359375 248.382812 155.9375 249.105469 155.550781 C 249.828125 155.164062 250.566406 154.816406 251.320312 154.503906 C 252.078125 154.191406 252.847656 153.914062 253.628906 153.675781 C 254.414062 153.4375 255.207031 153.242188 256.007812 153.082031 C 256.8125 152.921875 257.621094 152.800781 258.433594 152.722656 C 259.25 152.640625 260.066406 152.601562 260.882812 152.601562 Z M 260.882812 152.601562 " fill-opacity="1" fill-rule="nonzero"/></g></svg>