<svg xmlns="http://www.w3.org/2000/svg" xmlns:xlink="http://www.w3.org/1999/xlink" width="1700" zoomAndPan="magnify" viewBox="0 0 1275 299.999988" height="400" preserveAspectRatio="xMidYMid meet" version="1.0"><defs><g/><clipPath id="ae36ba5c3b"><path d="M 17.144531 0 L 317.144531 0 L 317.144531 300 L 17.144531 300 Z M 17.144531 0 " clip-rule="nonzero"/></clipPath><clipPath id="3bdfc59e03"><path d="M 39.644531 0 L 294.644531 0 C 307.070312 0 317.144531 10.074219 317.144531 22.5 L 317.144531 277.5 C 317.144531 289.925781 307.070312 300 294.644531 300 L 39.644531 300 C 27.21875 300 17.144531 289.925781 17.144531 277.5 L 17.144531 22.5 C 17.144531 10.074219 27.21875 0 39.644531 0 Z M 39.644531 0 " clip-rule="nonzero"/></clipPath><clipPath id="9f59dea2da"><path d="M 42.820312 20.25 L 142 20.25 L 142 41.515625 L 42.820312 41.515625 Z M 42.820312 20.25 " clip-rule="nonzero"/></clipPath><clipPath id="0db1d4e8ee"><path d="M 53.453125 20.25 L 131.292969 20.25 C 137.164062 20.25 141.925781 25.011719 141.925781 30.882812 C 141.925781 36.753906 137.164062 41.515625 131.292969 41.515625 L 53.453125 41.515625 C 47.582031 41.515625 42.820312 36.753906 42.820312 30.882812 C 42.820312 25.011719 47.582031 20.25 53.453125 20.25 Z M 53.453125 20.25 " clip-rule="nonzero"/></clipPath><clipPath id="c14f7720f8"><path d="M 182.78125 20.25 L 203.820312 20.25 L 203.820312 41.535156 L 182.78125 41.535156 Z M 182.78125 20.25 " clip-rule="nonzero"/></clipPath><clipPath id="b480dc54ac"><path d="M 193.300781 20.25 C 196.089844 20.25 198.765625 21.359375 200.738281 23.332031 C 202.710938 25.304688 203.820312 27.980469 203.820312 30.769531 L 203.820312 30.996094 C 203.820312 33.785156 202.710938 36.460938 200.738281 38.433594 C 198.765625 40.40625 196.089844 41.515625 193.300781 41.515625 C 190.511719 41.515625 187.835938 40.40625 185.863281 38.433594 C 183.890625 36.460938 182.78125 33.785156 182.78125 30.996094 L 182.78125 30.769531 C 182.78125 27.980469 183.890625 25.304688 185.863281 23.332031 C 187.835938 21.359375 190.511719 20.25 193.300781 20.25 Z M 193.300781 20.25 " clip-rule="nonzero"/></clipPath><clipPath id="80aae05d00"><path d="M 224.070312 20.25 L 245.257812 20.25 L 245.257812 41.519531 L 224.070312 41.519531 Z M 224.070312 20.25 " clip-rule="nonzero"/></clipPath><clipPath id="05dc4ced15"><path d="M 234.664062 20.25 C 240.511719 20.25 245.257812 24.992188 245.257812 30.84375 L 245.257812 30.921875 C 245.257812 36.769531 240.511719 41.515625 234.664062 41.515625 C 228.8125 41.515625 224.070312 36.769531 224.070312 30.921875 L 224.070312 30.84375 C 224.070312 24.992188 228.8125 20.25 234.664062 20.25 Z M 234.664062 20.25 " clip-rule="nonzero"/></clipPath><clipPath id="69999675d8"><path d="M 265.507812 20.25 L 286.542969 20.25 L 286.542969 41.535156 L 265.507812 41.535156 Z M 265.507812 20.25 " clip-rule="nonzero"/></clipPath><clipPath id="b3a9205a97"><path d="M 276.023438 20.25 C 278.816406 20.25 281.492188 21.359375 283.464844 23.332031 C 285.4375 25.304688 286.542969 27.980469 286.542969 30.769531 L 286.542969 30.996094 C 286.542969 33.785156 285.4375 36.460938 283.464844 38.433594 C 281.492188 40.40625 278.816406 41.515625 276.023438 41.515625 C 273.234375 41.515625 270.558594 40.40625 268.585938 38.433594 C 266.613281 36.460938 265.507812 33.785156 265.507812 30.996094 L 265.507812 30.769531 C 265.507812 27.980469 266.613281 25.304688 268.585938 23.332031 C 270.558594 21.359375 273.234375 20.25 276.023438 20.25 Z M 276.023438 20.25 " clip-rule="nonzero"/></clipPath><clipPath id="732c0c219a"><path d="M 37.570312 61.972656 L 297 61.972656 L 297 279.230469 L 37.570312 279.230469 Z M 37.570312 61.972656 " clip-rule="nonzero"/></clipPath><clipPath id="e1c21a21ce"><path d="M 52.570312 61.972656 L 281.71875 61.972656 C 290.003906 61.972656 296.71875 68.691406 296.71875 76.972656 L 296.71875 264.230469 C 296.71875 272.515625 290.003906 279.230469 281.71875 279.230469 L 52.570312 279.230469 C 44.289062 279.230469 37.570312 272.515625 37.570312 264.230469 L 37.570312 76.972656 C 37.570312 68.691406 44.289062 61.972656 52.570312 61.972656 Z M 52.570312 61.972656 " clip-rule="nonzero"/></clipPath><clipPath id="ba87887131"><path d="M 83 174 L 251 174 L 251 260.601562 L 83 260.601562 Z M 83 174 " clip-rule="nonzero"/></clipPath><clipPath id="09336871a4"><path d="M 77.78125 155 L 256.28125 155 L 256.28125 181 L 77.78125 181 Z M 77.78125 155 " clip-rule="nonzero"/></clipPath></defs><g fill="#ffffff" fill-opacity="1"><g transform="translate(361.889702, 212.750003)"><g><path d="M 70.828125 2.625 C 63.597656 2.625 56.726562 1.554688 50.21875 -0.578125 C 43.71875 -2.722656 37.769531 -5.75 32.375 -9.65625 C 26.988281 -13.570312 22.320312 -18.207031 18.375 -23.5625 C 14.4375 -28.925781 11.382812 -34.832031 9.21875 -41.28125 C 7.050781 -47.726562 5.96875 -54.503906 5.96875 -61.609375 C 5.96875 -68.773438 7.050781 -75.5625 9.21875 -81.96875 C 11.382812 -88.382812 14.4375 -94.253906 18.375 -99.578125 C 22.320312 -104.910156 26.988281 -109.535156 32.375 -113.453125 C 37.769531 -117.367188 43.71875 -120.394531 50.21875 -122.53125 C 56.726562 -124.675781 63.597656 -125.75 70.828125 -125.75 C 77.328125 -125.75 83.769531 -124.785156 90.15625 -122.859375 C 96.539062 -120.929688 102.5 -117.992188 108.03125 -114.046875 C 113.570312 -110.097656 118.269531 -105.113281 122.125 -99.09375 C 125.976562 -93.070312 128.628906 -85.96875 130.078125 -77.78125 L 107.140625 -77.78125 C 105.503906 -84.101562 102.894531 -89.28125 99.3125 -93.3125 C 95.738281 -97.34375 91.453125 -100.320312 86.453125 -102.25 C 81.453125 -104.175781 76.03125 -105.140625 70.1875 -105.140625 C 64.40625 -105.140625 58.984375 -104.097656 53.921875 -102.015625 C 48.867188 -99.941406 44.429688 -96.976562 40.609375 -93.125 C 36.785156 -89.269531 33.800781 -84.675781 31.65625 -79.34375 C 29.519531 -74.019531 28.453125 -68.078125 28.453125 -61.515625 C 28.453125 -54.828125 29.519531 -48.816406 31.65625 -43.484375 C 33.800781 -38.160156 36.785156 -33.601562 40.609375 -29.8125 C 44.429688 -26.019531 48.867188 -23.113281 53.921875 -21.09375 C 58.984375 -19.070312 64.40625 -18.0625 70.1875 -18.0625 C 76.03125 -18.0625 81.4375 -19.023438 86.40625 -20.953125 C 91.375 -22.878906 95.660156 -25.859375 99.265625 -29.890625 C 102.878906 -33.929688 105.472656 -39.082031 107.046875 -45.34375 L 130.078125 -45.34375 C 128.628906 -37.15625 125.976562 -30.035156 122.125 -23.984375 C 118.269531 -17.929688 113.601562 -12.945312 108.125 -9.03125 C 102.644531 -5.113281 96.695312 -2.191406 90.28125 -0.265625 C 83.875 1.660156 77.390625 2.625 70.828125 2.625 Z M 70.828125 2.625 "/></g></g></g><g fill="#ffffff" fill-opacity="1"><g transform="translate(504.67433, 212.750003)"><g><path d="M 64.953125 2.703125 C 57.546875 2.703125 50.664062 1.53125 44.3125 -0.8125 C 37.957031 -3.164062 32.382812 -6.523438 27.59375 -10.890625 C 22.8125 -15.253906 19.09375 -20.535156 16.4375 -26.734375 C 13.789062 -32.941406 12.46875 -39.867188 12.46875 -47.515625 L 12.46875 -122.859375 L 34.875 -122.859375 L 34.875 -49.140625 C 34.875 -43.359375 36.03125 -38.101562 38.34375 -33.375 C 40.664062 -28.644531 44.066406 -24.878906 48.546875 -22.078125 C 53.035156 -19.285156 58.503906 -17.890625 64.953125 -17.890625 C 71.273438 -17.890625 76.660156 -19.273438 81.109375 -22.046875 C 85.566406 -24.816406 88.984375 -28.5625 91.359375 -33.28125 C 93.742188 -38.007812 94.9375 -43.265625 94.9375 -49.046875 L 94.9375 -122.859375 L 117.4375 -122.859375 L 117.4375 -47.515625 C 117.4375 -40.171875 116.171875 -33.441406 113.640625 -27.328125 C 111.109375 -21.210938 107.523438 -15.910156 102.890625 -11.421875 C 98.253906 -6.941406 92.710938 -3.46875 86.265625 -1 C 79.828125 1.46875 72.722656 2.703125 64.953125 2.703125 Z M 64.953125 2.703125 "/></g></g></g><g fill="#ffffff" fill-opacity="1"><g transform="translate(641.135979, 212.750003)"><g><path d="M 73.34375 0 L 14.640625 0 L 14.640625 -122.859375 L 68.203125 -122.859375 C 75.671875 -122.859375 82.203125 -121.515625 87.796875 -118.828125 C 93.398438 -116.148438 97.765625 -112.328125 100.890625 -107.359375 C 104.023438 -102.390625 105.59375 -96.472656 105.59375 -89.609375 C 105.59375 -85.992188 104.882812 -82.546875 103.46875 -79.265625 C 102.0625 -75.984375 100.179688 -73.09375 97.828125 -70.59375 C 95.484375 -68.09375 92.894531 -66.242188 90.0625 -65.046875 C 94.21875 -63.710938 97.992188 -61.613281 101.390625 -58.75 C 104.796875 -55.894531 107.519531 -52.492188 109.5625 -48.546875 C 111.613281 -44.609375 112.640625 -40.320312 112.640625 -35.6875 C 112.640625 -29.601562 111.539062 -24.316406 109.34375 -19.828125 C 107.144531 -15.335938 104.164062 -11.632812 100.40625 -8.71875 C 96.644531 -5.800781 92.425781 -3.617188 87.75 -2.171875 C 83.082031 -0.722656 78.28125 0 73.34375 0 Z M 37.3125 -103.515625 L 37.3125 -71.546875 L 67.109375 -71.546875 C 70.128906 -71.546875 72.828125 -72.25 75.203125 -73.65625 C 77.578125 -75.070312 79.457031 -77 80.84375 -79.4375 C 82.226562 -81.882812 82.921875 -84.613281 82.921875 -87.625 C 82.921875 -90.632812 82.226562 -93.34375 80.84375 -95.75 C 79.457031 -98.15625 77.585938 -100.050781 75.234375 -101.4375 C 72.890625 -102.820312 70.210938 -103.515625 67.203125 -103.515625 Z M 37.3125 -54.65625 L 37.3125 -19.421875 L 71.359375 -19.421875 C 74.859375 -19.421875 77.976562 -20.1875 80.71875 -21.71875 C 83.457031 -23.257812 85.625 -25.382812 87.21875 -28.09375 C 88.8125 -30.800781 89.609375 -33.898438 89.609375 -37.390625 C 89.609375 -40.585938 88.820312 -43.476562 87.25 -46.0625 C 85.6875 -48.65625 83.535156 -50.734375 80.796875 -52.296875 C 78.054688 -53.867188 74.972656 -54.65625 71.546875 -54.65625 Z M 37.3125 -54.65625 "/></g></g></g><g fill="#ffffff" fill-opacity="1"><g transform="translate(766.216299, 212.750003)"><g><path d="M 37.125 0 L 14.640625 0 L 14.640625 -122.859375 L 37.125 -122.859375 Z M 37.125 0 "/></g></g></g><g fill="#cb4d66" fill-opacity="1"><g transform="translate(824.545918, 212.750003)"><g><path d="M 37.125 0 L 14.640625 0 L 14.640625 -122.859375 L 34.234375 -122.859375 L 76.609375 -65.578125 L 119.234375 -122.859375 L 138.84375 -122.859375 L 138.84375 0 L 116.34375 0 L 116.34375 -86.8125 L 79.578125 -36.578125 L 73.53125 -36.578125 L 37.125 -86.984375 Z M 37.125 0 "/></g></g></g><g fill="#cb4d66" fill-opacity="1"><g transform="translate(984.583222, 212.750003)"><g><path d="M 49.953125 2.796875 C 43.691406 2.796875 37.894531 1.535156 32.5625 -0.984375 C 27.238281 -3.515625 22.601562 -7.039062 18.65625 -11.5625 C 14.707031 -16.082031 11.648438 -21.320312 9.484375 -27.28125 C 7.316406 -33.238281 6.234375 -39.625 6.234375 -46.4375 C 6.234375 -53.238281 7.332031 -59.601562 9.53125 -65.53125 C 11.726562 -71.46875 14.796875 -76.691406 18.734375 -81.203125 C 22.679688 -85.722656 27.304688 -89.257812 32.609375 -91.8125 C 37.910156 -94.375 43.660156 -95.65625 49.859375 -95.65625 C 57.453125 -95.65625 64.195312 -94.015625 70.09375 -90.734375 C 76 -87.453125 80.425781 -82.921875 83.375 -77.140625 L 83.375 -92.859375 L 104.15625 -92.859375 L 104.15625 0 L 83.375 0 L 83.375 -15.625 C 80.363281 -9.84375 75.921875 -5.328125 70.046875 -2.078125 C 64.179688 1.171875 57.484375 2.796875 49.953125 2.796875 Z M 55.1875 -17.4375 C 58.988281 -17.4375 62.546875 -18.171875 65.859375 -19.640625 C 69.171875 -21.117188 72.070312 -23.164062 74.5625 -25.78125 C 77.0625 -28.40625 79.003906 -31.476562 80.390625 -35 C 81.773438 -38.519531 82.46875 -42.332031 82.46875 -46.4375 C 82.46875 -50.46875 81.757812 -54.242188 80.34375 -57.765625 C 78.9375 -61.285156 77 -64.367188 74.53125 -67.015625 C 72.0625 -69.671875 69.171875 -71.734375 65.859375 -73.203125 C 62.546875 -74.679688 58.988281 -75.421875 55.1875 -75.421875 C 50.195312 -75.421875 45.632812 -74.21875 41.5 -71.8125 C 37.375 -69.40625 34.078125 -66.03125 31.609375 -61.6875 C 29.140625 -57.351562 27.90625 -52.269531 27.90625 -46.4375 C 27.90625 -40.40625 29.15625 -35.222656 31.65625 -30.890625 C 34.15625 -26.554688 37.484375 -23.226562 41.640625 -20.90625 C 45.796875 -18.59375 50.3125 -17.4375 55.1875 -17.4375 Z M 55.1875 -17.4375 "/></g></g></g><g fill="#cb4d66" fill-opacity="1"><g transform="translate(1108.218268, 212.750003)"><g><path d="M 34.6875 0 L 12.828125 0 L 12.828125 -92.859375 L 33.78125 -92.859375 L 33.78125 -76.0625 C 35.945312 -81.175781 39.140625 -85.253906 43.359375 -88.296875 C 47.578125 -91.335938 52.695312 -92.859375 58.71875 -92.859375 L 68.65625 -92.859375 L 68.65625 -74.078125 L 59.890625 -74.078125 C 54.890625 -74.078125 50.492188 -72.867188 46.703125 -70.453125 C 42.910156 -68.046875 39.957031 -64.550781 37.84375 -59.96875 C 35.738281 -55.394531 34.6875 -49.796875 34.6875 -43.171875 Z M 34.6875 0 "/></g></g></g><g fill="#cb4d66" fill-opacity="1"><g transform="translate(1186.327896, 212.750003)"><g><path d="M 69.921875 0 L 51.03125 0 C 48.257812 0 45.414062 -0.253906 42.5 -0.765625 C 39.582031 -1.273438 36.796875 -2.222656 34.140625 -3.609375 C 31.492188 -4.992188 29.128906 -6.992188 27.046875 -9.609375 C 24.972656 -12.234375 23.316406 -15.640625 22.078125 -19.828125 C 20.847656 -24.015625 20.234375 -29.175781 20.234375 -35.3125 L 20.234375 -74.078125 L 1 -74.078125 L 1 -92.859375 L 20.234375 -92.859375 L 20.234375 -120.046875 L 42.09375 -120.234375 L 42.09375 -92.859375 L 69.921875 -92.859375 L 69.921875 -74.078125 L 42.09375 -74.078125 L 42.09375 -34.328125 C 42.09375 -29.992188 42.722656 -26.648438 43.984375 -24.296875 C 45.253906 -21.953125 46.925781 -20.34375 49 -19.46875 C 51.082031 -18.59375 53.265625 -18.15625 55.546875 -18.15625 L 69.921875 -18.15625 Z M 69.921875 0 "/></g></g></g><g clip-path="url(#ae36ba5c3b)"><g clip-path="url(#3bdfc59e03)"><path fill="#243d76" d="M 17.144531 0 L 317.144531 0 L 317.144531 300 L 17.144531 300 Z M 17.144531 0 " fill-opacity="1" fill-rule="nonzero"/></g></g><g clip-path="url(#9f59dea2da)"><g clip-path="url(#0db1d4e8ee)"><path fill="#1f3354" d="M 42.820312 20.25 L 141.914062 20.25 L 141.914062 41.515625 L 42.820312 41.515625 Z M 42.820312 20.25 " fill-opacity="1" fill-rule="nonzero"/></g></g><g clip-path="url(#c14f7720f8)"><g clip-path="url(#b480dc54ac)"><path fill="#ffffff" d="M 182.78125 20.25 L 203.820312 20.25 L 203.820312 41.535156 L 182.78125 41.535156 Z M 182.78125 20.25 " fill-opacity="1" fill-rule="nonzero"/></g></g><g clip-path="url(#80aae05d00)"><g clip-path="url(#05dc4ced15)"><path fill="#ffffff" d="M 224.070312 20.25 L 245.257812 20.25 L 245.257812 41.519531 L 224.070312 41.519531 Z M 224.070312 20.25 " fill-opacity="1" fill-rule="nonzero"/></g></g><g clip-path="url(#69999675d8)"><g clip-path="url(#b3a9205a97)"><path fill="#ffffff" d="M 265.507812 20.25 L 286.542969 20.25 L 286.542969 41.535156 L 265.507812 41.535156 Z M 265.507812 20.25 " fill-opacity="1" fill-rule="nonzero"/></g></g><g clip-path="url(#732c0c219a)"><g clip-path="url(#e1c21a21ce)"><path fill="#edf5f8" d="M 37.570312 61.972656 L 296.414062 61.972656 L 296.414062 279.230469 L 37.570312 279.230469 Z M 37.570312 61.972656 " fill-opacity="1" fill-rule="nonzero"/></g></g><path fill="#69293d" d="M 94.898438 155.8125 L 137.699219 86.257812 C 140.375 81.910156 146.074219 80.554688 150.417969 83.230469 C 154.765625 85.90625 156.121094 91.597656 153.445312 95.945312 L 116.605469 155.8125 L 114.757812 158.894531 L 96.269531 158.894531 Z M 94.898438 155.8125 " fill-opacity="1" fill-rule="nonzero"/><path fill="#69293d" d="M 239.386719 155.8125 L 196.585938 86.257812 C 193.914062 81.910156 188.214844 80.554688 183.871094 83.230469 C 179.523438 85.90625 178.167969 91.597656 180.84375 95.945312 L 217.683594 155.8125 L 219.527344 158.894531 L 238.015625 158.894531 C 238.015625 158.894531 239.386719 155.8125 239.386719 155.8125 Z M 239.386719 155.8125 " fill-opacity="1" fill-rule="nonzero"/><g clip-path="url(#ba87887131)"><path fill="#9f2d4b" d="M 250.34375 180.464844 L 240.707031 243.097656 C 239.160156 253.15625 230.503906 260.582031 220.328125 260.582031 L 113.960938 260.582031 C 103.785156 260.582031 95.132812 253.15625 93.582031 243.097656 L 83.945312 180.464844 L 83.945312 174.300781 L 250.34375 174.300781 Z M 250.34375 180.464844 " fill-opacity="1" fill-rule="nonzero"/></g><g clip-path="url(#09336871a4)"><path fill="#c03954" d="M 80.863281 155.8125 L 253.425781 155.8125 C 253.832031 155.8125 254.226562 155.890625 254.601562 156.046875 C 254.980469 156.203125 255.3125 156.425781 255.601562 156.714844 C 255.890625 157.003906 256.113281 157.335938 256.269531 157.714844 C 256.425781 158.09375 256.503906 158.484375 256.503906 158.894531 L 256.503906 177.382812 C 256.503906 177.789062 256.425781 178.183594 256.269531 178.5625 C 256.113281 178.9375 255.890625 179.273438 255.601562 179.5625 C 255.3125 179.851562 254.980469 180.074219 254.601562 180.230469 C 254.226562 180.386719 253.832031 180.464844 253.425781 180.464844 L 80.863281 180.464844 C 80.457031 180.464844 80.0625 180.386719 79.683594 180.230469 C 79.308594 180.074219 78.972656 179.851562 78.683594 179.5625 C 78.394531 179.273438 78.171875 178.9375 78.015625 178.5625 C 77.859375 178.183594 77.78125 177.789062 77.78125 177.382812 L 77.78125 158.894531 C 77.78125 158.484375 77.859375 158.09375 78.015625 157.714844 C 78.171875 157.335938 78.394531 157.003906 78.683594 156.714844 C 78.972656 156.425781 79.308594 156.203125 79.683594 156.046875 C 80.0625 155.890625 80.457031 155.8125 80.863281 155.8125 Z M 80.863281 155.8125 " fill-opacity="1" fill-rule="nonzero"/></g><path fill="#9f2d4b" d="M 167.144531 245.171875 C 165.441406 245.171875 164.0625 243.796875 164.0625 242.09375 L 164.0625 198.953125 C 164.0625 197.25 165.441406 195.871094 167.144531 195.871094 C 168.847656 195.871094 170.226562 197.25 170.226562 198.953125 L 170.226562 242.09375 C 170.226562 243.796875 168.847656 245.171875 167.144531 245.171875 Z M 167.144531 245.171875 " fill-opacity="1" fill-rule="nonzero"/><path fill="#9f2d4b" d="M 142.488281 245.171875 C 140.886719 245.171875 139.535156 243.933594 139.421875 242.3125 L 136.339844 199.171875 C 136.214844 197.472656 137.496094 196 139.191406 195.878906 C 140.941406 195.722656 142.363281 197.039062 142.484375 198.734375 L 145.566406 241.875 C 145.6875 243.570312 144.410156 245.042969 142.710938 245.164062 C 142.636719 245.171875 142.558594 245.171875 142.488281 245.171875 Z M 142.488281 245.171875 " fill-opacity="1" fill-rule="nonzero"/><path fill="#9f2d4b" d="M 117.839844 245.171875 C 116.328125 245.171875 115.007812 244.066406 114.789062 242.53125 L 108.628906 199.390625 C 108.386719 197.703125 109.558594 196.140625 111.242188 195.902344 C 112.921875 195.65625 114.492188 196.832031 114.730469 198.519531 L 120.894531 241.65625 C 121.136719 243.34375 119.964844 244.90625 118.277344 245.144531 C 118.128906 245.167969 117.984375 245.175781 117.839844 245.175781 Z M 117.839844 245.171875 " fill-opacity="1" fill-rule="nonzero"/><path fill="#9f2d4b" d="M 191.796875 245.171875 C 191.726562 245.171875 191.652344 245.171875 191.578125 245.164062 C 189.878906 245.042969 188.601562 243.566406 188.722656 241.875 L 191.804688 198.734375 C 191.925781 197.039062 193.375 195.730469 195.09375 195.878906 C 196.792969 196 198.070312 197.476562 197.949219 199.171875 L 194.867188 242.3125 C 194.753906 243.933594 193.398438 245.171875 191.796875 245.171875 Z M 191.796875 245.171875 " fill-opacity="1" fill-rule="nonzero"/><path fill="#9f2d4b" d="M 216.449219 245.171875 C 216.304688 245.171875 216.15625 245.164062 216.007812 245.144531 C 214.324219 244.902344 213.152344 243.339844 213.394531 241.65625 L 219.554688 198.515625 C 219.796875 196.828125 221.367188 195.667969 223.042969 195.898438 C 224.730469 196.140625 225.902344 197.703125 225.660156 199.386719 L 219.496094 242.527344 C 219.277344 244.0625 217.960938 245.171875 216.449219 245.171875 Z M 216.449219 245.171875 " fill-opacity="1" fill-rule="nonzero"/></svg>