<svg xmlns="http://www.w3.org/2000/svg" xmlns:xlink="http://www.w3.org/1999/xlink" width="1700" zoomAndPan="magnify" viewBox="0 0 1275 299.999988" height="400" preserveAspectRatio="xMidYMid meet" version="1.0"><defs><g/><clipPath id="755377aa94"><path d="M 24.65625 0 L 325 0 L 325 300 L 24.65625 300 Z M 24.65625 0 " clip-rule="nonzero"/></clipPath><clipPath id="b5a4d62a5b"><path d="M 39.65625 0 L 309.996094 0 C 313.976562 0 317.789062 1.582031 320.601562 4.394531 C 323.417969 7.207031 324.996094 11.023438 324.996094 15 L 324.996094 285 C 324.996094 288.976562 323.417969 292.792969 320.601562 295.605469 C 317.789062 298.417969 313.976562 300 309.996094 300 L 39.65625 300 C 35.679688 300 31.863281 298.417969 29.050781 295.605469 C 26.238281 292.792969 24.65625 288.976562 24.65625 285 L 24.65625 15 C 24.65625 11.023438 26.238281 7.207031 29.050781 4.394531 C 31.863281 1.582031 35.679688 0 39.65625 0 Z M 39.65625 0 " clip-rule="nonzero"/></clipPath><clipPath id="f0250d619e"><path d="M 189.6875 20.582031 L 210.8125 20.582031 L 210.8125 41.703125 L 189.6875 41.703125 Z M 189.6875 20.582031 " clip-rule="nonzero"/></clipPath><clipPath id="8d9282a587"><path d="M 200.25 20.582031 C 194.417969 20.582031 189.6875 25.3125 189.6875 31.144531 C 189.6875 36.976562 194.417969 41.703125 200.25 41.703125 C 206.082031 41.703125 210.8125 36.976562 210.8125 31.144531 C 210.8125 25.3125 206.082031 20.582031 200.25 20.582031 Z M 200.25 20.582031 " clip-rule="nonzero"/></clipPath><clipPath id="3a9eddf7bf"><path d="M 50.144531 20.582031 L 149.320312 20.582031 L 149.320312 41.703125 L 50.144531 41.703125 Z M 50.144531 20.582031 " clip-rule="nonzero"/></clipPath><clipPath id="7427dbb430"><path d="M 60.707031 20.582031 L 138.6875 20.582031 C 144.519531 20.582031 149.25 25.3125 149.25 31.144531 C 149.25 36.976562 144.519531 41.703125 138.6875 41.703125 L 60.707031 41.703125 C 54.875 41.703125 50.144531 36.976562 50.144531 31.144531 C 50.144531 25.3125 54.875 20.582031 60.707031 20.582031 Z M 60.707031 20.582031 " clip-rule="nonzero"/></clipPath><clipPath id="825cfbff22"><path d="M 231.027344 20.582031 L 251.96875 20.582031 L 251.96875 41.527344 L 231.027344 41.527344 Z M 231.027344 20.582031 " clip-rule="nonzero"/></clipPath><clipPath id="e5fc49ee18"><path d="M 241.5 20.582031 C 235.714844 20.582031 231.027344 25.269531 231.027344 31.054688 C 231.027344 36.839844 235.714844 41.527344 241.5 41.527344 C 247.28125 41.527344 251.96875 36.839844 251.96875 31.054688 C 251.96875 25.269531 247.28125 20.582031 241.5 20.582031 Z M 241.5 20.582031 " clip-rule="nonzero"/></clipPath><clipPath id="c2fcd5d40d"><path d="M 272.21875 20.40625 L 293.34375 20.40625 L 293.34375 41.527344 L 272.21875 41.527344 Z M 272.21875 20.40625 " clip-rule="nonzero"/></clipPath><clipPath id="96a12d811a"><path d="M 282.78125 20.40625 C 276.949219 20.40625 272.21875 25.132812 272.21875 30.964844 C 272.21875 36.796875 276.949219 41.527344 282.78125 41.527344 C 288.613281 41.527344 293.34375 36.796875 293.34375 30.964844 C 293.34375 25.132812 288.613281 20.40625 282.78125 20.40625 Z M 282.78125 20.40625 " clip-rule="nonzero"/></clipPath><clipPath id="275ff34c17"><path d="M 45.507812 62.222656 L 304 62.222656 L 304 279.40625 L 45.507812 279.40625 Z M 45.507812 62.222656 " clip-rule="nonzero"/></clipPath><clipPath id="c7a2c6d4e0"><path d="M 56.757812 62.222656 L 292.554688 62.222656 C 298.769531 62.222656 303.804688 67.261719 303.804688 73.472656 L 303.804688 268.15625 C 303.804688 274.367188 298.769531 279.40625 292.554688 279.40625 L 56.757812 279.40625 C 50.546875 279.40625 45.507812 274.367188 45.507812 268.15625 L 45.507812 73.472656 C 45.507812 67.261719 50.546875 62.222656 56.757812 62.222656 Z M 56.757812 62.222656 " clip-rule="nonzero"/></clipPath><clipPath id="dcd4fdfbb4"><path d="M 91 174 L 258 174 L 258 260.421875 L 91 260.421875 Z M 91 174 " clip-rule="nonzero"/></clipPath><clipPath id="3c273e5343"><path d="M 85.6875 156 L 263.4375 156 L 263.4375 181 L 85.6875 181 Z M 85.6875 156 " clip-rule="nonzero"/></clipPath></defs><g fill="#ffffff" fill-opacity="1"><g transform="translate(355.491179, 212.000022)"><g><path d="M 70.828125 2.625 C 63.597656 2.625 56.726562 1.554688 50.21875 -0.578125 C 43.71875 -2.722656 37.769531 -5.75 32.375 -9.65625 C 26.988281 -13.570312 22.320312 -18.207031 18.375 -23.5625 C 14.4375 -28.925781 11.382812 -34.832031 9.21875 -41.28125 C 7.050781 -47.726562 5.96875 -54.503906 5.96875 -61.609375 C 5.96875 -68.773438 7.050781 -75.5625 9.21875 -81.96875 C 11.382812 -88.382812 14.4375 -94.253906 18.375 -99.578125 C 22.320312 -104.910156 26.988281 -109.535156 32.375 -113.453125 C 37.769531 -117.367188 43.71875 -120.394531 50.21875 -122.53125 C 56.726562 -124.675781 63.597656 -125.75 70.828125 -125.75 C 77.328125 -125.75 83.769531 -124.785156 90.15625 -122.859375 C 96.539062 -120.929688 102.5 -117.992188 108.03125 -114.046875 C 113.570312 -110.097656 118.269531 -105.113281 122.125 -99.09375 C 125.976562 -93.070312 128.628906 -85.96875 130.078125 -77.78125 L 107.140625 -77.78125 C 105.503906 -84.101562 102.894531 -89.28125 99.3125 -93.3125 C 95.738281 -97.34375 91.453125 -100.320312 86.453125 -102.25 C 81.453125 -104.175781 76.03125 -105.140625 70.1875 -105.140625 C 64.40625 -105.140625 58.984375 -104.097656 53.921875 -102.015625 C 48.867188 -99.941406 44.429688 -96.976562 40.609375 -93.125 C 36.785156 -89.269531 33.800781 -84.675781 31.65625 -79.34375 C 29.519531 -74.019531 28.453125 -68.078125 28.453125 -61.515625 C 28.453125 -54.828125 29.519531 -48.816406 31.65625 -43.484375 C 33.800781 -38.160156 36.785156 -33.601562 40.609375 -29.8125 C 44.429688 -26.019531 48.867188 -23.113281 53.921875 -21.09375 C 58.984375 -19.070312 64.40625 -18.0625 70.1875 -18.0625 C 76.03125 -18.0625 81.4375 -19.023438 86.40625 -20.953125 C 91.375 -22.878906 95.660156 -25.859375 99.265625 -29.890625 C 102.878906 -33.929688 105.472656 -39.082031 107.046875 -45.34375 L 130.078125 -45.34375 C 128.628906 -37.15625 125.976562 -30.035156 122.125 -23.984375 C 118.269531 -17.929688 113.601562 -12.945312 108.125 -9.03125 C 102.644531 -5.113281 96.695312 -2.191406 90.28125 -0.265625 C 83.875 1.660156 77.390625 2.625 70.828125 2.625 Z M 70.828125 2.625 "/></g></g></g><g fill="#ffffff" fill-opacity="1"><g transform="translate(498.27583, 212.000022)"><g><path d="M 64.953125 2.703125 C 57.546875 2.703125 50.664062 1.53125 44.3125 -0.8125 C 37.957031 -3.164062 32.382812 -6.523438 27.59375 -10.890625 C 22.8125 -15.253906 19.09375 -20.535156 16.4375 -26.734375 C 13.789062 -32.941406 12.46875 -39.867188 12.46875 -47.515625 L 12.46875 -122.859375 L 34.875 -122.859375 L 34.875 -49.140625 C 34.875 -43.359375 36.03125 -38.101562 38.34375 -33.375 C 40.664062 -28.644531 44.066406 -24.878906 48.546875 -22.078125 C 53.035156 -19.285156 58.503906 -17.890625 64.953125 -17.890625 C 71.273438 -17.890625 76.660156 -19.273438 81.109375 -22.046875 C 85.566406 -24.816406 88.984375 -28.5625 91.359375 -33.28125 C 93.742188 -38.007812 94.9375 -43.265625 94.9375 -49.046875 L 94.9375 -122.859375 L 117.4375 -122.859375 L 117.4375 -47.515625 C 117.4375 -40.171875 116.171875 -33.441406 113.640625 -27.328125 C 111.109375 -21.210938 107.523438 -15.910156 102.890625 -11.421875 C 98.253906 -6.941406 92.710938 -3.46875 86.265625 -1 C 79.828125 1.46875 72.722656 2.703125 64.953125 2.703125 Z M 64.953125 2.703125 "/></g></g></g><g fill="#ffffff" fill-opacity="1"><g transform="translate(634.737501, 212.000022)"><g><path d="M 73.34375 0 L 14.640625 0 L 14.640625 -122.859375 L 68.203125 -122.859375 C 75.671875 -122.859375 82.203125 -121.515625 87.796875 -118.828125 C 93.398438 -116.148438 97.765625 -112.328125 100.890625 -107.359375 C 104.023438 -102.390625 105.59375 -96.472656 105.59375 -89.609375 C 105.59375 -85.992188 104.882812 -82.546875 103.46875 -79.265625 C 102.0625 -75.984375 100.179688 -73.09375 97.828125 -70.59375 C 95.484375 -68.09375 92.894531 -66.242188 90.0625 -65.046875 C 94.21875 -63.710938 97.992188 -61.613281 101.390625 -58.75 C 104.796875 -55.894531 107.519531 -52.492188 109.5625 -48.546875 C 111.613281 -44.609375 112.640625 -40.320312 112.640625 -35.6875 C 112.640625 -29.601562 111.539062 -24.316406 109.34375 -19.828125 C 107.144531 -15.335938 104.164062 -11.632812 100.40625 -8.71875 C 96.644531 -5.800781 92.425781 -3.617188 87.75 -2.171875 C 83.082031 -0.722656 78.28125 0 73.34375 0 Z M 37.3125 -103.515625 L 37.3125 -71.546875 L 67.109375 -71.546875 C 70.128906 -71.546875 72.828125 -72.25 75.203125 -73.65625 C 77.578125 -75.070312 79.457031 -77 80.84375 -79.4375 C 82.226562 -81.882812 82.921875 -84.613281 82.921875 -87.625 C 82.921875 -90.632812 82.226562 -93.34375 80.84375 -95.75 C 79.457031 -98.15625 77.585938 -100.050781 75.234375 -101.4375 C 72.890625 -102.820312 70.210938 -103.515625 67.203125 -103.515625 Z M 37.3125 -54.65625 L 37.3125 -19.421875 L 71.359375 -19.421875 C 74.859375 -19.421875 77.976562 -20.1875 80.71875 -21.71875 C 83.457031 -23.257812 85.625 -25.382812 87.21875 -28.09375 C 88.8125 -30.800781 89.609375 -33.898438 89.609375 -37.390625 C 89.609375 -40.585938 88.820312 -43.476562 87.25 -46.0625 C 85.6875 -48.65625 83.535156 -50.734375 80.796875 -52.296875 C 78.054688 -53.867188 74.972656 -54.65625 71.546875 -54.65625 Z M 37.3125 -54.65625 "/></g></g></g><g fill="#ffffff" fill-opacity="1"><g transform="translate(759.817821, 212.000022)"><g><path d="M 37.125 0 L 14.640625 0 L 14.640625 -122.859375 L 37.125 -122.859375 Z M 37.125 0 "/></g></g></g><g fill="#d76d82" fill-opacity="1"><g transform="translate(818.147391, 212.000022)"><g><path d="M 37.125 0 L 14.640625 0 L 14.640625 -122.859375 L 34.234375 -122.859375 L 76.609375 -65.578125 L 119.234375 -122.859375 L 138.84375 -122.859375 L 138.84375 0 L 116.34375 0 L 116.34375 -86.8125 L 79.578125 -36.578125 L 73.53125 -36.578125 L 37.125 -86.984375 Z M 37.125 0 "/></g></g></g><g fill="#d76d82" fill-opacity="1"><g transform="translate(978.184726, 212.000022)"><g><path d="M 49.953125 2.796875 C 43.691406 2.796875 37.894531 1.535156 32.5625 -0.984375 C 27.238281 -3.515625 22.601562 -7.039062 18.65625 -11.5625 C 14.707031 -16.082031 11.648438 -21.320312 9.484375 -27.28125 C 7.316406 -33.238281 6.234375 -39.625 6.234375 -46.4375 C 6.234375 -53.238281 7.332031 -59.601562 9.53125 -65.53125 C 11.726562 -71.46875 14.796875 -76.691406 18.734375 -81.203125 C 22.679688 -85.722656 27.304688 -89.257812 32.609375 -91.8125 C 37.910156 -94.375 43.660156 -95.65625 49.859375 -95.65625 C 57.453125 -95.65625 64.195312 -94.015625 70.09375 -90.734375 C 76 -87.453125 80.425781 -82.921875 83.375 -77.140625 L 83.375 -92.859375 L 104.15625 -92.859375 L 104.15625 0 L 83.375 0 L 83.375 -15.625 C 80.363281 -9.84375 75.921875 -5.328125 70.046875 -2.078125 C 64.179688 1.171875 57.484375 2.796875 49.953125 2.796875 Z M 55.1875 -17.4375 C 58.988281 -17.4375 62.546875 -18.171875 65.859375 -19.640625 C 69.171875 -21.117188 72.070312 -23.164062 74.5625 -25.78125 C 77.0625 -28.40625 79.003906 -31.476562 80.390625 -35 C 81.773438 -38.519531 82.46875 -42.332031 82.46875 -46.4375 C 82.46875 -50.46875 81.757812 -54.242188 80.34375 -57.765625 C 78.9375 -61.285156 77 -64.367188 74.53125 -67.015625 C 72.0625 -69.671875 69.171875 -71.734375 65.859375 -73.203125 C 62.546875 -74.679688 58.988281 -75.421875 55.1875 -75.421875 C 50.195312 -75.421875 45.632812 -74.21875 41.5 -71.8125 C 37.375 -69.40625 34.078125 -66.03125 31.609375 -61.6875 C 29.140625 -57.351562 27.90625 -52.269531 27.90625 -46.4375 C 27.90625 -40.40625 29.15625 -35.222656 31.65625 -30.890625 C 34.15625 -26.554688 37.484375 -23.226562 41.640625 -20.90625 C 45.796875 -18.59375 50.3125 -17.4375 55.1875 -17.4375 Z M 55.1875 -17.4375 "/></g></g></g><g fill="#d76d82" fill-opacity="1"><g transform="translate(1101.819805, 212.000022)"><g><path d="M 34.6875 0 L 12.828125 0 L 12.828125 -92.859375 L 33.78125 -92.859375 L 33.78125 -76.0625 C 35.945312 -81.175781 39.140625 -85.253906 43.359375 -88.296875 C 47.578125 -91.335938 52.695312 -92.859375 58.71875 -92.859375 L 68.65625 -92.859375 L 68.65625 -74.078125 L 59.890625 -74.078125 C 54.890625 -74.078125 50.492188 -72.867188 46.703125 -70.453125 C 42.910156 -68.046875 39.957031 -64.550781 37.84375 -59.96875 C 35.738281 -55.394531 34.6875 -49.796875 34.6875 -43.171875 Z M 34.6875 0 "/></g></g></g><g fill="#d76d82" fill-opacity="1"><g transform="translate(1179.929456, 212.000022)"><g><path d="M 69.921875 0 L 51.03125 0 C 48.257812 0 45.414062 -0.253906 42.5 -0.765625 C 39.582031 -1.273438 36.796875 -2.222656 34.140625 -3.609375 C 31.492188 -4.992188 29.128906 -6.992188 27.046875 -9.609375 C 24.972656 -12.234375 23.316406 -15.640625 22.078125 -19.828125 C 20.847656 -24.015625 20.234375 -29.175781 20.234375 -35.3125 L 20.234375 -74.078125 L 1 -74.078125 L 1 -92.859375 L 20.234375 -92.859375 L 20.234375 -120.046875 L 42.09375 -120.234375 L 42.09375 -92.859375 L 69.921875 -92.859375 L 69.921875 -74.078125 L 42.09375 -74.078125 L 42.09375 -34.328125 C 42.09375 -29.992188 42.722656 -26.648438 43.984375 -24.296875 C 45.253906 -21.953125 46.925781 -20.34375 49 -19.46875 C 51.082031 -18.59375 53.265625 -18.15625 55.546875 -18.15625 L 69.921875 -18.15625 Z M 69.921875 0 "/></g></g></g><g clip-path="url(#755377aa94)"><g clip-path="url(#b5a4d62a5b)"><path fill="#254b8f" d="M 24.65625 0 L 324.65625 0 L 324.65625 300 L 24.65625 300 Z M 24.65625 0 " fill-opacity="1" fill-rule="nonzero"/></g></g><g clip-path="url(#f0250d619e)"><g clip-path="url(#8d9282a587)"><path fill="#ffffff" d="M 189.6875 20.582031 L 210.8125 20.582031 L 210.8125 41.703125 L 189.6875 41.703125 Z M 189.6875 20.582031 " fill-opacity="1" fill-rule="nonzero"/></g></g><g clip-path="url(#3a9eddf7bf)"><g clip-path="url(#7427dbb430)"><path fill="#223a6a" d="M 50.144531 20.582031 L 149.238281 20.582031 L 149.238281 41.703125 L 50.144531 41.703125 Z M 50.144531 20.582031 " fill-opacity="1" fill-rule="nonzero"/></g></g><g clip-path="url(#825cfbff22)"><g clip-path="url(#e5fc49ee18)"><path fill="#ffffff" d="M 231.027344 20.582031 L 251.96875 20.582031 L 251.96875 41.527344 L 231.027344 41.527344 Z M 231.027344 20.582031 " fill-opacity="1" fill-rule="nonzero"/></g></g><g clip-path="url(#c2fcd5d40d)"><g clip-path="url(#96a12d811a)"><path fill="#ffffff" d="M 272.21875 20.40625 L 293.34375 20.40625 L 293.34375 41.527344 L 272.21875 41.527344 Z M 272.21875 20.40625 " fill-opacity="1" fill-rule="nonzero"/></g></g><g clip-path="url(#275ff34c17)"><g clip-path="url(#c7a2c6d4e0)"><path fill="#d0eaf5" d="M 45.507812 62.222656 L 303.410156 62.222656 L 303.410156 279.40625 L 45.507812 279.40625 Z M 45.507812 62.222656 " fill-opacity="1" fill-rule="nonzero"/></g></g><path fill="#68283c" d="M 102.730469 156.082031 L 145.34375 86.835938 C 148.007812 82.507812 153.679688 81.15625 158.003906 83.820312 C 162.332031 86.484375 163.683594 92.152344 161.015625 96.480469 L 124.339844 156.082031 L 122.503906 159.152344 L 104.09375 159.152344 Z M 102.730469 156.082031 " fill-opacity="1" fill-rule="nonzero"/><path fill="#68283c" d="M 246.582031 156.082031 L 203.96875 86.835938 C 201.308594 82.507812 195.636719 81.15625 191.308594 83.820312 C 186.980469 86.484375 185.628906 92.152344 188.296875 96.480469 L 224.972656 156.082031 L 226.8125 159.152344 L 245.21875 159.152344 C 245.21875 159.152344 246.582031 156.082031 246.582031 156.082031 Z M 246.582031 156.082031 " fill-opacity="1" fill-rule="nonzero"/><g clip-path="url(#dcd4fdfbb4)"><path fill="#9f2c4a" d="M 257.488281 180.628906 L 247.894531 242.984375 C 246.355469 253 237.738281 260.390625 227.605469 260.390625 L 121.707031 260.390625 C 111.574219 260.390625 102.960938 253 101.417969 242.984375 L 91.824219 180.628906 L 91.824219 174.492188 L 257.488281 174.492188 Z M 257.488281 180.628906 " fill-opacity="1" fill-rule="nonzero"/></g><g clip-path="url(#3c273e5343)"><path fill="#c03853" d="M 88.757812 156.082031 L 260.558594 156.082031 C 260.964844 156.082031 261.355469 156.160156 261.730469 156.316406 C 262.109375 156.472656 262.4375 156.695312 262.726562 156.984375 C 263.015625 157.269531 263.234375 157.601562 263.390625 157.976562 C 263.546875 158.355469 263.625 158.746094 263.625 159.152344 L 263.625 177.558594 C 263.625 177.964844 263.546875 178.355469 263.390625 178.734375 C 263.234375 179.109375 263.015625 179.441406 262.726562 179.726562 C 262.4375 180.015625 262.109375 180.238281 261.730469 180.394531 C 261.355469 180.550781 260.964844 180.628906 260.558594 180.628906 L 88.757812 180.628906 C 88.347656 180.628906 87.957031 180.550781 87.582031 180.394531 C 87.207031 180.238281 86.875 180.015625 86.585938 179.726562 C 86.300781 179.441406 86.078125 179.109375 85.921875 178.734375 C 85.765625 178.355469 85.6875 177.964844 85.6875 177.558594 L 85.6875 159.152344 C 85.6875 158.746094 85.765625 158.355469 85.921875 157.976562 C 86.078125 157.601562 86.300781 157.269531 86.585938 156.984375 C 86.875 156.695312 87.207031 156.472656 87.582031 156.316406 C 87.957031 156.160156 88.347656 156.082031 88.757812 156.082031 Z M 88.757812 156.082031 " fill-opacity="1" fill-rule="nonzero"/></g><path fill="#9f2c4a" d="M 174.65625 245.050781 C 172.960938 245.050781 171.589844 243.679688 171.589844 241.984375 L 171.589844 199.035156 C 171.589844 197.335938 172.960938 195.964844 174.65625 195.964844 C 176.351562 195.964844 177.726562 197.335938 177.726562 199.035156 L 177.726562 241.984375 C 177.726562 243.679688 176.351562 245.050781 174.65625 245.050781 Z M 174.65625 245.050781 " fill-opacity="1" fill-rule="nonzero"/><path fill="#9f2c4a" d="M 150.109375 245.050781 C 148.515625 245.050781 147.167969 243.820312 147.054688 242.203125 L 143.988281 199.253906 C 143.863281 197.5625 145.136719 196.09375 146.828125 195.976562 C 148.570312 195.820312 149.984375 197.128906 150.105469 198.816406 L 153.171875 241.765625 C 153.296875 243.457031 152.023438 244.921875 150.332031 245.042969 C 150.257812 245.050781 150.179688 245.050781 150.109375 245.050781 Z M 150.109375 245.050781 " fill-opacity="1" fill-rule="nonzero"/><path fill="#9f2c4a" d="M 125.566406 245.050781 C 124.0625 245.050781 122.75 243.953125 122.535156 242.421875 L 116.398438 199.46875 C 116.160156 197.792969 117.324219 196.238281 119.003906 195.996094 C 120.671875 195.75 122.234375 196.921875 122.476562 198.601562 L 128.609375 241.550781 C 128.851562 243.230469 127.683594 244.785156 126.007812 245.023438 C 125.859375 245.046875 125.710938 245.054688 125.566406 245.054688 Z M 125.566406 245.050781 " fill-opacity="1" fill-rule="nonzero"/><path fill="#9f2c4a" d="M 199.203125 245.050781 C 199.132812 245.050781 199.054688 245.050781 198.980469 245.042969 C 197.292969 244.921875 196.019531 243.453125 196.140625 241.765625 L 199.210938 198.816406 C 199.328125 197.128906 200.773438 195.828125 202.484375 195.976562 C 204.175781 196.09375 205.449219 197.566406 205.328125 199.253906 L 202.257812 242.203125 C 202.144531 243.816406 200.796875 245.050781 199.203125 245.050781 Z M 199.203125 245.050781 " fill-opacity="1" fill-rule="nonzero"/><path fill="#9f2c4a" d="M 223.746094 245.050781 C 223.601562 245.050781 223.453125 245.042969 223.308594 245.023438 C 221.628906 244.78125 220.464844 243.226562 220.703125 241.550781 L 226.839844 198.597656 C 227.078125 196.921875 228.640625 195.765625 230.3125 195.992188 C 231.988281 196.234375 233.15625 197.789062 232.914062 199.46875 L 226.78125 242.417969 C 226.5625 243.949219 225.25 245.050781 223.746094 245.050781 Z M 223.746094 245.050781 " fill-opacity="1" fill-rule="nonzero"/></svg>