<svg xmlns="http://www.w3.org/2000/svg" xmlns:xlink="http://www.w3.org/1999/xlink" width="1080" zoomAndPan="magnify" viewBox="0 0 810 809.999993" height="1080" preserveAspectRatio="xMidYMid meet" version="1.0"><defs><clipPath id="974bffca6b"><path d="M 0 86.570312 L 810 86.570312 L 810 723.320312 L 0 723.320312 Z M 0 86.570312 " clip-rule="nonzero"/></clipPath></defs><g clip-path="url(#974bffca6b)"><path fill="#ffffff" d="M 607.554688 520.636719 L 607.554688 654.972656 C 607.554688 664.667969 602.695312 673.71875 594.617188 679.078125 C 594.617188 679.078125 529.96875 723.234375 405.117188 723.234375 C 280.265625 723.234375 215.617188 679.078125 215.617188 679.078125 C 207.53125 673.71875 202.671875 664.667969 202.671875 654.972656 L 202.671875 520.636719 C 202.671875 440.859375 267.339844 376.191406 347.121094 376.191406 L 463.109375 376.191406 C 542.886719 376.191406 607.554688 440.859375 607.554688 520.636719 Z M 405.117188 86.988281 C 470.875 86.988281 524.3125 132.714844 524.3125 206.445312 C 524.3125 247.890625 506.148438 289.339844 478.441406 315.917969 C 457.957031 335.574219 432.4375 347.269531 405.117188 347.269531 C 377.792969 347.269531 352.277344 335.574219 331.792969 315.917969 C 304.085938 289.339844 285.921875 247.890625 285.921875 206.445312 C 285.921875 132.714844 339.351562 86.988281 405.117188 86.988281 Z M 650.9375 155.671875 C 704.242188 155.671875 747.566406 192.730469 747.566406 252.5 C 747.566406 285.558594 733.039062 318.609375 710.933594 339.820312 C 694.191406 355.890625 673.277344 365.351562 650.9375 365.351562 C 628.601562 365.351562 607.6875 355.890625 590.9375 339.820312 C 568.839844 318.609375 554.3125 285.558594 554.3125 252.5 C 554.3125 192.730469 597.628906 155.671875 650.9375 155.671875 Z M 159.292969 155.671875 C 212.597656 155.671875 255.917969 192.730469 255.917969 252.5 C 255.917969 285.558594 241.398438 318.609375 219.289062 339.820312 C 202.542969 355.890625 181.628906 365.351562 159.292969 365.351562 C 136.957031 365.351562 116.042969 355.890625 99.296875 339.820312 C 77.1875 318.609375 62.667969 285.558594 62.667969 252.5 C 62.667969 192.730469 105.988281 155.671875 159.292969 155.671875 Z M 145.433594 665.152344 C 58.207031 662.105469 13.171875 631.074219 13.171875 631.074219 C 5.085938 625.714844 0.230469 616.664062 0.230469 606.96875 L 0.230469 535.097656 C 0.230469 455.324219 64.902344 390.648438 144.675781 390.648438 L 173.910156 390.648438 C 179.78125 390.648438 185.570312 391.003906 191.253906 391.683594 C 162.265625 426.695312 144.835938 471.628906 144.835938 520.636719 L 144.835938 654.972656 C 144.835938 658.402344 145.035156 661.792969 145.433594 665.152344 Z M 618.972656 391.683594 C 624.664062 391.003906 630.453125 390.648438 636.324219 390.648438 L 665.554688 390.648438 C 745.332031 390.648438 810 455.324219 810 535.097656 L 810 606.96875 C 810 616.664062 805.140625 625.714844 797.054688 631.074219 C 797.054688 631.074219 752.023438 662.105469 664.796875 665.152344 C 665.199219 661.792969 665.402344 658.402344 665.402344 654.972656 L 665.402344 520.636719 C 665.402344 471.628906 647.972656 426.695312 618.972656 391.683594 Z M 618.972656 391.683594 " fill-opacity="1" fill-rule="evenodd"/></g></svg>