<svg xmlns="http://www.w3.org/2000/svg" xmlns:xlink="http://www.w3.org/1999/xlink" width="1080" zoomAndPan="magnify" viewBox="0 0 810 809.999993" height="1080" preserveAspectRatio="xMidYMid meet" version="1.0"><defs><clipPath id="c404cccc72"><path d="M 278 165.542969 L 528 165.542969 L 528 415 L 278 415 Z M 278 165.542969 " clip-rule="nonzero"/></clipPath><clipPath id="ced17ec283"><path d="M 208 434 L 598 434 L 598 644.792969 L 208 644.792969 Z M 208 434 " clip-rule="nonzero"/></clipPath></defs><path fill="#ffffff" d="M 21.65625 578.328125 L 166.65625 578.328125 C 172.371094 578.328125 177.007812 573.734375 177.007812 567.996094 L 177.007812 553.496094 C 177.007812 510.417969 196.980469 471.976562 228.15625 446.96875 C 234.101562 442.207031 233.507812 432.765625 226.617188 429.535156 C 211.191406 422.304688 194 418.265625 175.898438 418.265625 L 120.425781 418.265625 C 54.085938 418.265625 0.308594 472.058594 0.308594 538.398438 L 0.3125 557.023438 C 0.3125 568.804688 9.867188 578.328125 21.65625 578.328125 " fill-opacity="1" fill-rule="nonzero"/><path fill="#ffffff" d="M 53.5 308.328125 C 53.5 360.609375 95.882812 402.992188 148.160156 402.992188 C 200.441406 402.992188 242.820312 360.609375 242.820312 308.328125 C 242.820312 256.046875 200.441406 213.667969 148.160156 213.667969 C 95.882812 213.667969 53.5 256.046875 53.5 308.328125 " fill-opacity="1" fill-rule="nonzero"/><path fill="#ffffff" d="M 689.574219 418.265625 L 633.992188 418.265625 C 615.113281 418.265625 597.167969 422.6875 581.265625 430.511719 C 574.417969 433.871094 573.269531 443.058594 579.222656 447.90625 C 609.753906 472.910156 629.273438 510.925781 629.273438 553.496094 L 629.273438 567.996094 C 629.273438 573.734375 633.910156 578.328125 639.605469 578.328125 L 788.359375 578.328125 C 800.136719 578.328125 809.703125 568.804688 809.703125 557.023438 L 809.703125 538.398438 C 809.703125 472.058594 755.910156 418.265625 689.574219 418.265625 " fill-opacity="1" fill-rule="nonzero"/><path fill="#ffffff" d="M 661.804688 213.667969 C 609.542969 213.667969 567.144531 256.054688 567.144531 308.328125 C 567.144531 360.609375 609.542969 402.988281 661.804688 402.988281 C 714.109375 402.988281 756.464844 360.609375 756.464844 308.328125 C 756.464844 256.054688 714.109375 213.667969 661.804688 213.667969 " fill-opacity="1" fill-rule="nonzero"/><g clip-path="url(#c404cccc72)"><path fill="#ffffff" d="M 403.136719 414.140625 C 471.804688 414.140625 527.429688 358.503906 527.429688 289.855469 C 527.429688 221.207031 471.804688 165.5625 403.136719 165.5625 C 334.488281 165.5625 278.839844 221.207031 278.839844 289.855469 C 278.839844 358.503906 334.488281 414.140625 403.136719 414.140625 " fill-opacity="1" fill-rule="nonzero"/></g><g clip-path="url(#ced17ec283)"><path fill="#ffffff" d="M 208.972656 567.570312 L 208.972656 643.390625 C 208.972656 643.984375 209.429688 644.453125 209.996094 644.453125 L 596.273438 644.453125 C 596.828125 644.453125 597.296875 643.984375 597.296875 643.390625 L 597.296875 567.570312 C 597.296875 493.960938 537.589844 434.253906 463.980469 434.253906 L 342.308594 434.253906 C 268.671875 434.253906 208.972656 493.960938 208.972656 567.570312 " fill-opacity="1" fill-rule="nonzero"/></g></svg>