<svg xmlns="http://www.w3.org/2000/svg" xmlns:xlink="http://www.w3.org/1999/xlink" width="1080" zoomAndPan="magnify" viewBox="0 0 810 809.999993" height="1080" preserveAspectRatio="xMidYMid meet" version="1.0"><defs><clipPath id="d408d989c9"><path d="M 37.5 0 L 772.5 0 C 793.210938 0 810 16.789062 810 37.5 L 810 772.5 C 810 793.210938 793.210938 810 772.5 810 L 37.5 810 C 16.789062 810 0 793.210938 0 772.5 L 0 37.5 C 0 16.789062 16.789062 0 37.5 0 Z M 37.5 0 " clip-rule="nonzero"/></clipPath><clipPath id="94cf1da303"><path d="M 69.832031 56.230469 L 336.101562 56.230469 L 336.101562 112.148438 L 69.832031 112.148438 Z M 69.832031 56.230469 " clip-rule="nonzero"/></clipPath><clipPath id="9cc147cee9"><path d="M 97.792969 56.230469 L 308.097656 56.230469 C 323.539062 56.230469 336.058594 68.75 336.058594 84.191406 C 336.058594 99.632812 323.539062 112.148438 308.097656 112.148438 L 97.792969 112.148438 C 82.351562 112.148438 69.832031 99.632812 69.832031 84.191406 C 69.832031 68.75 82.351562 56.230469 97.792969 56.230469 Z M 97.792969 56.230469 " clip-rule="nonzero"/></clipPath><clipPath id="14f7e62204"><path d="M 446.367188 56.230469 L 502.722656 56.230469 L 502.722656 112.148438 L 446.367188 112.148438 Z M 446.367188 56.230469 " clip-rule="nonzero"/></clipPath><clipPath id="cd77ea7ad8"><path d="M 474.324219 56.230469 L 474.621094 56.230469 C 490.0625 56.230469 502.582031 68.75 502.582031 84.191406 C 502.582031 99.632812 490.0625 112.148438 474.621094 112.148438 L 474.324219 112.148438 C 458.882812 112.148438 446.367188 99.632812 446.367188 84.191406 C 446.367188 68.75 458.882812 56.230469 474.324219 56.230469 Z M 474.324219 56.230469 " clip-rule="nonzero"/></clipPath><clipPath id="e5aade771d"><path d="M 558.132812 56.230469 L 614.488281 56.230469 L 614.488281 112.148438 L 558.132812 112.148438 Z M 558.132812 56.230469 " clip-rule="nonzero"/></clipPath><clipPath id="f348d0da2b"><path d="M 586.09375 56.230469 L 586.386719 56.230469 C 601.828125 56.230469 614.347656 68.75 614.347656 84.191406 C 614.347656 99.632812 601.828125 112.148438 586.386719 112.148438 L 586.09375 112.148438 C 570.652344 112.148438 558.132812 99.632812 558.132812 84.191406 C 558.132812 68.75 570.652344 56.230469 586.09375 56.230469 Z M 586.09375 56.230469 " clip-rule="nonzero"/></clipPath><clipPath id="c467734720"><path d="M 669.660156 56.230469 L 726 56.230469 L 726 112.148438 L 669.660156 112.148438 Z M 669.660156 56.230469 " clip-rule="nonzero"/></clipPath><clipPath id="6917c054f6"><path d="M 697.617188 56.230469 L 697.914062 56.230469 C 713.355469 56.230469 725.875 68.75 725.875 84.191406 C 725.875 99.632812 713.355469 112.148438 697.914062 112.148438 L 697.617188 112.148438 C 682.175781 112.148438 669.660156 99.632812 669.660156 84.191406 C 669.660156 68.75 682.175781 56.230469 697.617188 56.230469 Z M 697.617188 56.230469 " clip-rule="nonzero"/></clipPath><clipPath id="a27913a3be"><path d="M 56.304688 167.761719 L 754.605469 167.761719 L 754.605469 753.875 L 56.304688 753.875 Z M 56.304688 167.761719 " clip-rule="nonzero"/></clipPath><clipPath id="094cf19587"><path d="M 83.304688 167.761719 L 727.121094 167.761719 C 742.035156 167.761719 754.121094 179.851562 754.121094 194.761719 L 754.121094 726.875 C 754.121094 741.789062 742.035156 753.875 727.121094 753.875 L 83.304688 753.875 C 68.390625 753.875 56.304688 741.789062 56.304688 726.875 L 56.304688 194.761719 C 56.304688 179.851562 68.390625 167.761719 83.304688 167.761719 Z M 83.304688 167.761719 " clip-rule="nonzero"/></clipPath><clipPath id="2f107eff9a"><path d="M 170.722656 422 L 639.472656 422 L 639.472656 487 L 170.722656 487 Z M 170.722656 422 " clip-rule="nonzero"/></clipPath></defs><g clip-path="url(#d408d989c9)"><rect x="-81" width="972" fill="#243d76" y="-80.999999" height="971.999992" fill-opacity="1"/></g><g clip-path="url(#94cf1da303)"><g clip-path="url(#9cc147cee9)"><path fill="#1f3354" d="M 69.832031 56.230469 L 336.101562 56.230469 L 336.101562 112.148438 L 69.832031 112.148438 Z M 69.832031 56.230469 " fill-opacity="1" fill-rule="nonzero"/></g></g><g clip-path="url(#14f7e62204)"><g clip-path="url(#cd77ea7ad8)"><path fill="#ffffff" d="M 446.367188 56.230469 L 502.503906 56.230469 L 502.503906 112.148438 L 446.367188 112.148438 Z M 446.367188 56.230469 " fill-opacity="1" fill-rule="nonzero"/></g></g><g clip-path="url(#e5aade771d)"><g clip-path="url(#f348d0da2b)"><path fill="#ffffff" d="M 558.132812 56.230469 L 614.269531 56.230469 L 614.269531 112.148438 L 558.132812 112.148438 Z M 558.132812 56.230469 " fill-opacity="1" fill-rule="nonzero"/></g></g><g clip-path="url(#c467734720)"><g clip-path="url(#6917c054f6)"><path fill="#ffffff" d="M 669.660156 56.230469 L 725.796875 56.230469 L 725.796875 112.148438 L 669.660156 112.148438 Z M 669.660156 56.230469 " fill-opacity="1" fill-rule="nonzero"/></g></g><g clip-path="url(#a27913a3be)"><g clip-path="url(#094cf19587)"><path fill="#e6f1fe" d="M 56.304688 167.761719 L 754.605469 167.761719 L 754.605469 753.875 L 56.304688 753.875 Z M 56.304688 167.761719 " fill-opacity="1" fill-rule="nonzero"/></g></g><path fill="#69293d" d="M 215.636719 422.007812 L 327.949219 239.496094 C 334.964844 228.085938 349.917969 224.53125 361.316406 231.546875 C 372.726562 238.574219 376.285156 253.507812 369.257812 264.917969 L 272.59375 422.007812 L 267.75 430.09375 L 219.234375 430.09375 Z M 215.636719 422.007812 " fill-opacity="1" fill-rule="nonzero"/><path fill="#69293d" d="M 594.777344 422.007812 L 482.464844 239.496094 C 475.449219 228.085938 460.496094 224.53125 449.097656 231.546875 C 437.6875 238.574219 434.128906 253.507812 441.15625 264.917969 L 537.820312 422.007812 L 542.664062 430.09375 L 591.179688 430.09375 C 591.179688 430.09375 594.777344 422.007812 594.777344 422.007812 Z M 594.777344 422.007812 " fill-opacity="1" fill-rule="nonzero"/><path fill="#9f2d4b" d="M 623.519531 486.691406 L 598.238281 651.042969 C 594.175781 677.433594 571.464844 696.917969 544.757812 696.917969 L 265.65625 696.917969 C 238.949219 696.917969 216.246094 677.433594 212.175781 651.042969 L 186.894531 486.691406 L 186.894531 470.519531 L 623.519531 470.519531 Z M 623.519531 486.691406 " fill-opacity="1" fill-rule="nonzero"/><g clip-path="url(#2f107eff9a)"><path fill="#c03954" d="M 178.808594 422.007812 L 631.605469 422.007812 C 632.136719 422.007812 632.664062 422.058594 633.183594 422.160156 C 633.703125 422.265625 634.210938 422.417969 634.699219 422.621094 C 635.191406 422.824219 635.65625 423.074219 636.097656 423.367188 C 636.539062 423.664062 636.949219 424 637.324219 424.375 C 637.699219 424.75 638.035156 425.160156 638.328125 425.601562 C 638.625 426.042969 638.875 426.507812 639.078125 426.996094 C 639.28125 427.488281 639.433594 427.992188 639.535156 428.515625 C 639.640625 429.035156 639.691406 429.5625 639.691406 430.09375 L 639.691406 478.605469 C 639.691406 479.136719 639.640625 479.664062 639.535156 480.183594 C 639.433594 480.703125 639.28125 481.210938 639.078125 481.699219 C 638.875 482.191406 638.625 482.65625 638.328125 483.097656 C 638.035156 483.539062 637.699219 483.949219 637.324219 484.324219 C 636.949219 484.699219 636.539062 485.035156 636.097656 485.328125 C 635.65625 485.625 635.191406 485.875 634.699219 486.078125 C 634.210938 486.28125 633.703125 486.433594 633.183594 486.535156 C 632.664062 486.640625 632.136719 486.691406 631.605469 486.691406 L 178.808594 486.691406 C 178.277344 486.691406 177.75 486.640625 177.230469 486.535156 C 176.710938 486.433594 176.203125 486.28125 175.714844 486.078125 C 175.222656 485.875 174.757812 485.625 174.316406 485.328125 C 173.875 485.035156 173.464844 484.699219 173.089844 484.324219 C 172.714844 483.949219 172.378906 483.539062 172.085938 483.097656 C 171.789062 482.65625 171.539062 482.191406 171.335938 481.699219 C 171.132812 481.210938 170.980469 480.703125 170.878906 480.183594 C 170.773438 479.664062 170.722656 479.136719 170.722656 478.605469 L 170.722656 430.09375 C 170.722656 429.5625 170.773438 429.035156 170.878906 428.515625 C 170.980469 427.992188 171.132812 427.488281 171.335938 426.996094 C 171.539062 426.507812 171.789062 426.042969 172.085938 425.601562 C 172.378906 425.160156 172.714844 424.75 173.089844 424.375 C 173.464844 424 173.875 423.664062 174.316406 423.367188 C 174.757812 423.074219 175.222656 422.824219 175.714844 422.621094 C 176.203125 422.417969 176.710938 422.265625 177.230469 422.160156 C 177.75 422.058594 178.277344 422.007812 178.808594 422.007812 Z M 178.808594 422.007812 " fill-opacity="1" fill-rule="nonzero"/></g><path fill="#9f2d4b" d="M 405.207031 656.492188 C 400.734375 656.492188 397.121094 652.875 397.121094 648.40625 L 397.121094 535.207031 C 397.121094 530.734375 400.734375 527.121094 405.207031 527.121094 C 409.679688 527.121094 413.292969 530.734375 413.292969 535.207031 L 413.292969 648.40625 C 413.292969 652.875 409.679688 656.492188 405.207031 656.492188 Z M 405.207031 656.492188 " fill-opacity="1" fill-rule="nonzero"/><path fill="#9f2d4b" d="M 340.511719 656.492188 C 336.308594 656.492188 332.757812 653.242188 332.460938 648.980469 L 324.375 535.78125 C 324.050781 531.324219 327.40625 527.460938 331.863281 527.144531 C 336.453125 526.730469 340.183594 530.183594 340.496094 534.632812 L 348.582031 647.832031 C 348.90625 652.285156 345.550781 656.152344 341.09375 656.46875 C 340.902344 656.484375 340.699219 656.492188 340.511719 656.492188 Z M 340.511719 656.492188 " fill-opacity="1" fill-rule="nonzero"/><path fill="#9f2d4b" d="M 275.828125 656.492188 C 271.867188 656.492188 268.40625 653.589844 267.832031 649.554688 L 251.660156 536.355469 C 251.027344 531.929688 254.101562 527.832031 258.523438 527.199219 C 262.921875 526.554688 267.046875 529.644531 267.675781 534.066406 L 283.847656 647.265625 C 284.480469 651.6875 281.40625 655.789062 276.984375 656.417969 C 276.597656 656.476562 276.207031 656.5 275.828125 656.5 Z M 275.828125 656.492188 " fill-opacity="1" fill-rule="nonzero"/><path fill="#9f2d4b" d="M 469.902344 656.492188 C 469.714844 656.492188 469.511719 656.492188 469.320312 656.46875 C 464.863281 656.152344 461.507812 652.277344 461.832031 647.832031 L 469.917969 534.632812 C 470.230469 530.183594 474.039062 526.757812 478.550781 527.144531 C 483.007812 527.460938 486.363281 531.332031 486.039062 535.78125 L 477.953125 648.980469 C 477.65625 653.234375 474.097656 656.492188 469.902344 656.492188 Z M 469.902344 656.492188 " fill-opacity="1" fill-rule="nonzero"/><path fill="#9f2d4b" d="M 534.585938 656.492188 C 534.207031 656.492188 533.816406 656.46875 533.429688 656.410156 C 529.007812 655.78125 525.933594 651.679688 526.566406 647.257812 L 542.738281 534.058594 C 543.367188 529.636719 547.492188 526.585938 551.890625 527.191406 C 556.3125 527.824219 559.386719 531.921875 558.753906 536.347656 L 542.582031 649.546875 C 542.007812 653.582031 538.546875 656.484375 534.585938 656.484375 Z M 534.585938 656.492188 " fill-opacity="1" fill-rule="nonzero"/></svg>