<svg xmlns="http://www.w3.org/2000/svg" xmlns:xlink="http://www.w3.org/1999/xlink" width="1080" zoomAndPan="magnify" viewBox="0 0 810 809.999993" height="1080" preserveAspectRatio="xMidYMid meet" version="1.0"><path fill="#4678de" d="M 41.898438 307.726562 L 768.101562 307.726562 C 769.476562 307.726562 770.84375 307.796875 772.210938 307.929688 C 773.574219 308.0625 774.929688 308.265625 776.277344 308.53125 C 777.621094 308.800781 778.953125 309.132812 780.265625 309.53125 C 781.578125 309.929688 782.867188 310.390625 784.136719 310.917969 C 785.402344 311.441406 786.644531 312.027344 787.851562 312.675781 C 789.0625 313.320312 790.238281 314.027344 791.378906 314.789062 C 792.519531 315.550781 793.621094 316.367188 794.683594 317.238281 C 795.742188 318.109375 796.757812 319.027344 797.730469 320 C 798.699219 320.96875 799.621094 321.984375 800.488281 323.046875 C 801.359375 324.105469 802.175781 325.207031 802.9375 326.347656 C 803.703125 327.488281 804.40625 328.664062 805.054688 329.875 C 805.699219 331.085938 806.285156 332.324219 806.8125 333.589844 C 807.335938 334.859375 807.796875 336.148438 808.195312 337.460938 C 808.59375 338.777344 808.925781 340.105469 809.195312 341.449219 C 809.460938 342.796875 809.664062 344.152344 809.796875 345.519531 C 809.933594 346.882812 810 348.253906 810 349.625 L 810 768.589844 C 810 769.960938 809.933594 771.332031 809.796875 772.695312 C 809.664062 774.0625 809.460938 775.417969 809.195312 776.765625 C 808.925781 778.109375 808.59375 779.4375 808.195312 780.753906 C 807.796875 782.066406 807.335938 783.355469 806.8125 784.625 C 806.285156 785.890625 805.699219 787.128906 805.054688 788.339844 C 804.40625 789.550781 803.703125 790.726562 802.9375 791.867188 C 802.175781 793.007812 801.359375 794.109375 800.488281 795.167969 C 799.621094 796.230469 798.699219 797.246094 797.730469 798.214844 C 796.757812 799.1875 795.742188 800.105469 794.683594 800.976562 C 793.621094 801.847656 792.519531 802.664062 791.378906 803.425781 C 790.238281 804.1875 789.0625 804.894531 787.851562 805.539062 C 786.644531 806.1875 785.402344 806.773438 784.136719 807.296875 C 782.867188 807.824219 781.578125 808.285156 780.265625 808.683594 C 778.953125 809.082031 777.621094 809.414062 776.277344 809.679688 C 774.929688 809.949219 773.574219 810.152344 772.210938 810.285156 C 770.84375 810.417969 769.476562 810.488281 768.101562 810.488281 L 41.898438 810.488281 C 40.523438 810.488281 39.15625 810.417969 37.789062 810.285156 C 36.425781 810.152344 35.070312 809.949219 33.722656 809.679688 C 32.378906 809.414062 31.046875 809.082031 29.734375 808.683594 C 28.421875 808.285156 27.132812 807.824219 25.863281 807.296875 C 24.597656 806.773438 23.355469 806.1875 22.148438 805.539062 C 20.9375 804.894531 19.761719 804.1875 18.621094 803.425781 C 17.480469 802.664062 16.378906 801.847656 15.316406 800.976562 C 14.257812 800.105469 13.242188 799.1875 12.269531 798.214844 C 11.300781 797.246094 10.378906 796.230469 9.511719 795.167969 C 8.640625 794.109375 7.824219 793.007812 7.0625 791.867188 C 6.296875 790.726562 5.59375 789.550781 4.945312 788.339844 C 4.300781 787.128906 3.714844 785.890625 3.1875 784.625 C 2.664062 783.355469 2.203125 782.066406 1.804688 780.753906 C 1.40625 779.4375 1.074219 778.109375 0.804688 776.765625 C 0.539062 775.417969 0.335938 774.0625 0.203125 772.695312 C 0.0664062 771.332031 0 769.960938 0 768.589844 L 0 349.625 C 0 348.253906 0.0664062 346.882812 0.203125 345.519531 C 0.335938 344.152344 0.539062 342.796875 0.804688 341.449219 C 1.074219 340.105469 1.40625 338.777344 1.804688 337.460938 C 2.203125 336.148438 2.664062 334.859375 3.1875 333.589844 C 3.714844 332.324219 4.300781 331.085938 4.945312 329.875 C 5.59375 328.664062 6.296875 327.488281 7.0625 326.347656 C 7.824219 325.207031 8.640625 324.105469 9.511719 323.046875 C 10.378906 321.984375 11.300781 320.96875 12.269531 320 C 13.242188 319.027344 14.257812 318.109375 15.316406 317.238281 C 16.378906 316.367188 17.480469 315.550781 18.621094 314.789062 C 19.761719 314.027344 20.9375 313.320312 22.148438 312.675781 C 23.355469 312.027344 24.597656 311.441406 25.863281 310.917969 C 27.132812 310.390625 28.421875 309.929688 29.734375 309.53125 C 31.046875 309.132812 32.378906 308.800781 33.722656 308.53125 C 35.070312 308.265625 36.425781 308.0625 37.789062 307.929688 C 39.15625 307.796875 40.523438 307.726562 41.898438 307.726562 Z M 41.898438 307.726562 " fill-opacity="1" fill-rule="nonzero"/><path fill="#25373d" d="M 0 391.519531 L 810 391.519531 L 810 503.246094 L 0 503.246094 Z M 0 391.519531 " fill-opacity="1" fill-rule="nonzero"/><path fill="#fbc512" d="M 195.515625 614.96875 L 195.515625 642.902344 C 195.515625 643.816406 195.472656 644.726562 195.382812 645.636719 C 195.292969 646.546875 195.160156 647.453125 194.980469 648.347656 C 194.800781 649.246094 194.578125 650.132812 194.316406 651.007812 C 194.050781 651.882812 193.742188 652.742188 193.390625 653.589844 C 193.042969 654.433594 192.652344 655.261719 192.21875 656.066406 C 191.789062 656.875 191.316406 657.65625 190.808594 658.417969 C 190.300781 659.179688 189.757812 659.914062 189.175781 660.621094 C 188.597656 661.328125 187.984375 662.003906 187.335938 662.652344 C 186.691406 663.296875 186.011719 663.910156 185.304688 664.492188 C 184.597656 665.070312 183.863281 665.617188 183.105469 666.125 C 182.34375 666.632812 181.558594 667.101562 180.753906 667.535156 C 179.945312 667.964844 179.121094 668.355469 178.273438 668.707031 C 177.429688 669.054688 176.570312 669.363281 175.695312 669.628906 C 174.820312 669.894531 173.933594 670.117188 173.035156 670.292969 C 172.136719 670.472656 171.234375 670.605469 170.324219 670.695312 C 169.414062 670.785156 168.5 670.832031 167.585938 670.832031 L 97.757812 670.832031 C 96.84375 670.832031 95.929688 670.785156 95.019531 670.695312 C 94.109375 670.605469 93.207031 670.472656 92.308594 670.292969 C 91.414062 670.117188 90.527344 669.894531 89.652344 669.628906 C 88.773438 669.363281 87.914062 669.054688 87.070312 668.707031 C 86.226562 668.355469 85.398438 667.964844 84.59375 667.535156 C 83.785156 667.101562 83 666.632812 82.242188 666.125 C 81.480469 665.617188 80.746094 665.070312 80.039062 664.492188 C 79.332031 663.910156 78.65625 663.296875 78.007812 662.652344 C 77.363281 662.003906 76.746094 661.328125 76.167969 660.621094 C 75.585938 659.914062 75.042969 659.179688 74.535156 658.417969 C 74.027344 657.65625 73.558594 656.875 73.125 656.066406 C 72.695312 655.261719 72.304688 654.433594 71.953125 653.589844 C 71.605469 652.742188 71.296875 651.882812 71.03125 651.007812 C 70.765625 650.132812 70.542969 649.246094 70.363281 648.347656 C 70.1875 647.453125 70.050781 646.546875 69.960938 645.636719 C 69.871094 644.726562 69.828125 643.816406 69.828125 642.902344 L 69.828125 614.96875 C 69.828125 614.054688 69.871094 613.140625 69.960938 612.230469 C 70.050781 611.320312 70.1875 610.417969 70.363281 609.519531 C 70.542969 608.625 70.765625 607.738281 71.03125 606.863281 C 71.296875 605.984375 71.605469 605.125 71.953125 604.28125 C 72.304688 603.4375 72.695312 602.609375 73.125 601.804688 C 73.558594 600.996094 74.027344 600.210938 74.535156 599.453125 C 75.042969 598.691406 75.585938 597.957031 76.167969 597.25 C 76.746094 596.542969 77.363281 595.867188 78.007812 595.21875 C 78.65625 594.574219 79.332031 593.957031 80.039062 593.378906 C 80.746094 592.796875 81.480469 592.253906 82.242188 591.746094 C 83 591.238281 83.785156 590.769531 84.59375 590.335938 C 85.398438 589.90625 86.226562 589.515625 87.070312 589.164062 C 87.914062 588.816406 88.773438 588.507812 89.652344 588.242188 C 90.527344 587.976562 91.414062 587.753906 92.308594 587.574219 C 93.207031 587.398438 94.109375 587.261719 95.019531 587.171875 C 95.929688 587.082031 96.84375 587.039062 97.757812 587.039062 L 167.585938 587.039062 C 168.5 587.039062 169.414062 587.082031 170.324219 587.171875 C 171.234375 587.261719 172.136719 587.398438 173.035156 587.574219 C 173.933594 587.753906 174.820312 587.976562 175.695312 588.242188 C 176.570312 588.507812 177.429688 588.816406 178.273438 589.164062 C 179.121094 589.515625 179.945312 589.90625 180.753906 590.335938 C 181.558594 590.769531 182.34375 591.238281 183.105469 591.746094 C 183.863281 592.253906 184.597656 592.796875 185.304688 593.378906 C 186.011719 593.957031 186.691406 594.574219 187.335938 595.21875 C 187.984375 595.867188 188.597656 596.542969 189.175781 597.25 C 189.757812 597.957031 190.300781 598.691406 190.808594 599.453125 C 191.316406 600.210938 191.789062 600.996094 192.21875 601.804688 C 192.652344 602.609375 193.042969 603.4375 193.390625 604.28125 C 193.742188 605.125 194.050781 605.984375 194.316406 606.863281 C 194.578125 607.738281 194.800781 608.625 194.980469 609.519531 C 195.160156 610.417969 195.292969 611.320312 195.382812 612.230469 C 195.472656 613.140625 195.515625 614.054688 195.515625 614.96875 Z M 195.515625 614.96875 " fill-opacity="1" fill-rule="nonzero"/><path fill="#335caf" d="M 558.621094 614.96875 L 279.308594 614.96875 C 271.585938 614.96875 265.34375 608.726562 265.34375 601.003906 C 265.34375 593.28125 271.585938 587.039062 279.308594 587.039062 L 558.621094 587.039062 C 566.34375 587.039062 572.585938 593.28125 572.585938 601.003906 C 572.585938 608.726562 566.34375 614.96875 558.621094 614.96875 Z M 558.621094 614.96875 " fill-opacity="1" fill-rule="nonzero"/><path fill="#335caf" d="M 446.898438 670.832031 L 279.308594 670.832031 C 271.585938 670.832031 265.34375 664.589844 265.34375 656.867188 C 265.34375 649.144531 271.585938 642.902344 279.308594 642.902344 L 446.898438 642.902344 C 454.621094 642.902344 460.863281 649.144531 460.863281 656.867188 C 460.863281 664.589844 454.621094 670.832031 446.898438 670.832031 Z M 446.898438 670.832031 " fill-opacity="1" fill-rule="nonzero"/><path fill="#f7b54b" d="M 619.480469 244.734375 L 424.832031 439.378906 C 414.089844 450.214844 396.667969 450.214844 385.921875 439.378906 L 191.277344 244.734375 C 180.441406 233.988281 180.441406 216.566406 191.277344 205.820312 L 385.921875 11.175781 C 396.667969 0.371094 414.089844 0.371094 424.832031 11.175781 L 619.480469 205.820312 C 630.285156 216.566406 630.285156 233.988281 619.480469 244.734375 " fill-opacity="1" fill-rule="nonzero"/><path fill="#fdd07e" d="M 474.339844 294.238281 L 336.414062 294.238281 L 336.414062 156.316406 L 474.339844 156.316406 L 474.339844 294.238281 " fill-opacity="1" fill-rule="nonzero"/><path fill="#ffc661" d="M 336.414062 156.316406 L 405.378906 3.066406 L 474.339844 156.316406 Z M 336.414062 156.316406 " fill-opacity="1" fill-rule="nonzero"/><path fill="#ffc661" d="M 474.339844 294.238281 L 405.378906 447.492188 L 336.414062 294.238281 Z M 474.339844 294.238281 " fill-opacity="1" fill-rule="nonzero"/><path fill="#ffc661" d="M 336.414062 294.238281 L 183.164062 225.277344 L 336.414062 156.316406 Z M 336.414062 294.238281 " fill-opacity="1" fill-rule="nonzero"/><path fill="#ffc661" d="M 474.339844 156.316406 L 627.589844 225.277344 L 474.339844 294.238281 Z M 474.339844 156.316406 " fill-opacity="1" fill-rule="nonzero"/></svg>