<svg xmlns="http://www.w3.org/2000/svg" xmlns:xlink="http://www.w3.org/1999/xlink" width="1080" zoomAndPan="magnify" viewBox="0 0 810 809.999993" height="1080" preserveAspectRatio="xMidYMid meet" version="1.0"><defs><clipPath id="2863938971"><path d="M 40.5 0 L 769.5 0 C 791.867188 0 810 18.132812 810 40.5 L 810 769.5 C 810 791.867188 791.867188 810 769.5 810 L 40.5 810 C 18.132812 810 0 791.867188 0 769.5 L 0 40.5 C 0 18.132812 18.132812 0 40.5 0 Z M 40.5 0 " clip-rule="nonzero"/></clipPath><clipPath id="bfd34c63c9"><path d="M 56.011719 167.738281 L 754 167.738281 L 754 754.085938 L 56.011719 754.085938 Z M 56.011719 167.738281 " clip-rule="nonzero"/></clipPath><clipPath id="bbec1ec01a"><path d="M 84.511719 167.738281 L 725.496094 167.738281 C 741.234375 167.738281 753.996094 180.5 753.996094 196.238281 L 753.996094 725.585938 C 753.996094 741.324219 741.234375 754.085938 725.496094 754.085938 L 84.511719 754.085938 C 68.773438 754.085938 56.011719 741.324219 56.011719 725.585938 L 56.011719 196.238281 C 56.011719 180.5 68.773438 167.738281 84.511719 167.738281 Z M 84.511719 167.738281 " clip-rule="nonzero"/></clipPath><clipPath id="2b02cbae98"><path d="M 446.394531 55.148438 L 503.085938 55.148438 L 503.085938 111.835938 L 446.394531 111.835938 Z M 446.394531 55.148438 " clip-rule="nonzero"/></clipPath><clipPath id="f335e345d6"><path d="M 474.742188 55.148438 C 459.085938 55.148438 446.394531 67.835938 446.394531 83.492188 C 446.394531 99.148438 459.085938 111.835938 474.742188 111.835938 C 490.394531 111.835938 503.085938 99.148438 503.085938 83.492188 C 503.085938 67.835938 490.394531 55.148438 474.742188 55.148438 Z M 474.742188 55.148438 " clip-rule="nonzero"/></clipPath><clipPath id="b14d3732c2"><path d="M 69.347656 55.148438 L 335.308594 55.148438 L 335.308594 111.835938 L 69.347656 111.835938 Z M 69.347656 55.148438 " clip-rule="nonzero"/></clipPath><clipPath id="8418bcba2c"><path d="M 97.695312 55.148438 L 306.804688 55.148438 C 322.457031 55.148438 335.148438 67.835938 335.148438 83.492188 C 335.148438 99.148438 322.457031 111.835938 306.804688 111.835938 L 97.695312 111.835938 C 82.039062 111.835938 69.347656 99.148438 69.347656 83.492188 C 69.347656 67.835938 82.039062 55.148438 97.695312 55.148438 Z M 97.695312 55.148438 " clip-rule="nonzero"/></clipPath><clipPath id="10d4a7fb7b"><path d="M 557.835938 55.148438 L 614.527344 55.148438 L 614.527344 111.835938 L 557.835938 111.835938 Z M 557.835938 55.148438 " clip-rule="nonzero"/></clipPath><clipPath id="ebbd7487d6"><path d="M 586.179688 55.148438 C 570.527344 55.148438 557.835938 67.835938 557.835938 83.492188 C 557.835938 99.148438 570.527344 111.835938 586.179688 111.835938 C 601.835938 111.835938 614.527344 99.148438 614.527344 83.492188 C 614.527344 67.835938 601.835938 55.148438 586.179688 55.148438 Z M 586.179688 55.148438 " clip-rule="nonzero"/></clipPath><clipPath id="202b334c86"><path d="M 669.277344 55.148438 L 725.96875 55.148438 L 725.96875 111.835938 L 669.277344 111.835938 Z M 669.277344 55.148438 " clip-rule="nonzero"/></clipPath><clipPath id="81a3840a5d"><path d="M 697.621094 55.148438 C 681.96875 55.148438 669.277344 67.835938 669.277344 83.492188 C 669.277344 99.148438 681.96875 111.835938 697.621094 111.835938 C 713.277344 111.835938 725.96875 99.148438 725.96875 83.492188 C 725.96875 67.835938 713.277344 55.148438 697.621094 55.148438 Z M 697.621094 55.148438 " clip-rule="nonzero"/></clipPath><clipPath id="9c4d4f1ee7"><path d="M 179 470 L 631 470 L 631 704.617188 L 179 704.617188 Z M 179 470 " clip-rule="nonzero"/></clipPath><clipPath id="eaca1be5fe"><path d="M 163.039062 420 L 646.789062 420 L 646.789062 488 L 163.039062 488 Z M 163.039062 420 " clip-rule="nonzero"/></clipPath></defs><g clip-path="url(#2863938971)"><rect x="-81" width="972" fill="#254b8f" y="-80.999999" height="971.999992" fill-opacity="1"/></g><g clip-path="url(#bfd34c63c9)"><g clip-path="url(#bbec1ec01a)"><path fill="#d0eaf5" d="M 56.011719 167.738281 L 754.585938 167.738281 L 754.585938 754.085938 L 56.011719 754.085938 Z M 56.011719 167.738281 " fill-opacity="1" fill-rule="nonzero"/></g></g><g clip-path="url(#2b02cbae98)"><g clip-path="url(#f335e345d6)"><path fill="#ffffff" d="M 446.394531 55.148438 L 503.085938 55.148438 L 503.085938 111.835938 L 446.394531 111.835938 Z M 446.394531 55.148438 " fill-opacity="1" fill-rule="nonzero"/></g></g><g clip-path="url(#b14d3732c2)"><g clip-path="url(#8418bcba2c)"><path fill="#223a6a" d="M 69.347656 55.148438 L 335.085938 55.148438 L 335.085938 111.835938 L 69.347656 111.835938 Z M 69.347656 55.148438 " fill-opacity="1" fill-rule="nonzero"/></g></g><g clip-path="url(#10d4a7fb7b)"><g clip-path="url(#ebbd7487d6)"><path fill="#ffffff" d="M 557.835938 55.148438 L 614.527344 55.148438 L 614.527344 111.835938 L 557.835938 111.835938 Z M 557.835938 55.148438 " fill-opacity="1" fill-rule="nonzero"/></g></g><g clip-path="url(#202b334c86)"><g clip-path="url(#81a3840a5d)"><path fill="#ffffff" d="M 669.277344 55.148438 L 725.96875 55.148438 L 725.96875 111.835938 L 669.277344 111.835938 Z M 669.277344 55.148438 " fill-opacity="1" fill-rule="nonzero"/></g></g><path fill="#68283c" d="M 209.386719 420.859375 L 325.28125 232.53125 C 332.523438 220.757812 347.949219 217.085938 359.714844 224.328125 C 371.484375 231.578125 375.15625 246.988281 367.90625 258.761719 L 268.160156 420.859375 L 263.160156 429.203125 L 213.101562 429.203125 Z M 209.386719 420.859375 " fill-opacity="1" fill-rule="nonzero"/><path fill="#68283c" d="M 600.617188 420.859375 L 484.722656 232.53125 C 477.480469 220.757812 462.054688 217.085938 450.289062 224.328125 C 438.519531 231.578125 434.847656 246.988281 442.097656 258.761719 L 541.84375 420.859375 L 546.84375 429.203125 L 596.902344 429.203125 C 596.902344 429.203125 600.617188 420.859375 600.617188 420.859375 Z M 600.617188 420.859375 " fill-opacity="1" fill-rule="nonzero"/><g clip-path="url(#9c4d4f1ee7)"><path fill="#9f2c4a" d="M 630.277344 487.609375 L 604.1875 657.199219 C 600 684.433594 576.5625 704.542969 549.003906 704.542969 L 261 704.542969 C 233.441406 704.542969 210.011719 684.433594 205.816406 657.199219 L 179.726562 487.609375 L 179.726562 470.921875 L 630.277344 470.921875 Z M 630.277344 487.609375 " fill-opacity="1" fill-rule="nonzero"/></g><g clip-path="url(#eaca1be5fe)"><path fill="#c03853" d="M 171.382812 420.859375 L 638.621094 420.859375 C 639.167969 420.859375 639.710938 420.914062 640.25 421.019531 C 640.785156 421.128906 641.308594 421.285156 641.8125 421.496094 C 642.320312 421.707031 642.800781 421.960938 643.257812 422.265625 C 643.710938 422.570312 644.132812 422.917969 644.519531 423.304688 C 644.910156 423.691406 645.253906 424.113281 645.558594 424.570312 C 645.863281 425.023438 646.121094 425.503906 646.328125 426.011719 C 646.539062 426.515625 646.699219 427.039062 646.804688 427.578125 C 646.910156 428.113281 646.964844 428.65625 646.964844 429.203125 L 646.964844 479.265625 C 646.964844 479.8125 646.910156 480.355469 646.804688 480.894531 C 646.699219 481.429688 646.539062 481.953125 646.328125 482.457031 C 646.121094 482.964844 645.863281 483.445312 645.558594 483.902344 C 645.253906 484.355469 644.910156 484.777344 644.519531 485.164062 C 644.132812 485.550781 643.710938 485.898438 643.257812 486.203125 C 642.800781 486.507812 642.320312 486.765625 641.8125 486.972656 C 641.308594 487.183594 640.785156 487.34375 640.25 487.449219 C 639.710938 487.554688 639.167969 487.609375 638.621094 487.609375 L 171.382812 487.609375 C 170.835938 487.609375 170.292969 487.554688 169.753906 487.449219 C 169.21875 487.34375 168.695312 487.183594 168.191406 486.972656 C 167.683594 486.765625 167.203125 486.507812 166.746094 486.203125 C 166.292969 485.898438 165.871094 485.550781 165.484375 485.164062 C 165.09375 484.777344 164.75 484.355469 164.445312 483.902344 C 164.140625 483.445312 163.882812 482.964844 163.675781 482.457031 C 163.464844 481.953125 163.304688 481.429688 163.199219 480.894531 C 163.09375 480.355469 163.039062 479.8125 163.039062 479.265625 L 163.039062 429.203125 C 163.039062 428.65625 163.09375 428.113281 163.199219 427.578125 C 163.304688 427.039062 163.464844 426.515625 163.675781 426.011719 C 163.882812 425.503906 164.140625 425.023438 164.445312 424.570312 C 164.75 424.113281 165.09375 423.691406 165.484375 423.304688 C 165.871094 422.917969 166.292969 422.570312 166.746094 422.265625 C 167.203125 421.960938 167.683594 421.707031 168.191406 421.496094 C 168.695312 421.285156 169.21875 421.128906 169.753906 421.019531 C 170.292969 420.914062 170.835938 420.859375 171.382812 420.859375 Z M 171.382812 420.859375 " fill-opacity="1" fill-rule="nonzero"/></g><path fill="#9f2c4a" d="M 405.003906 662.824219 C 400.386719 662.824219 396.660156 659.09375 396.660156 654.480469 L 396.660156 537.671875 C 396.660156 533.054688 400.386719 529.328125 405.003906 529.328125 C 409.617188 529.328125 413.34375 533.054688 413.34375 537.671875 L 413.34375 654.480469 C 413.34375 659.09375 409.617188 662.824219 405.003906 662.824219 Z M 405.003906 662.824219 " fill-opacity="1" fill-rule="nonzero"/><path fill="#9f2c4a" d="M 338.246094 662.824219 C 333.90625 662.824219 330.242188 659.46875 329.933594 655.074219 L 321.589844 538.261719 C 321.257812 533.664062 324.71875 529.675781 329.316406 529.351562 C 334.058594 528.925781 337.902344 532.488281 338.230469 537.078125 L 346.570312 653.886719 C 346.90625 658.484375 343.441406 662.472656 338.847656 662.796875 C 338.644531 662.816406 338.4375 662.824219 338.246094 662.824219 Z M 338.246094 662.824219 " fill-opacity="1" fill-rule="nonzero"/><path fill="#9f2c4a" d="M 271.496094 662.824219 C 267.410156 662.824219 263.835938 659.828125 263.246094 655.664062 L 246.558594 538.855469 C 245.90625 534.292969 249.078125 530.0625 253.640625 529.410156 C 258.179688 528.742188 262.4375 531.929688 263.085938 536.492188 L 279.773438 653.304688 C 280.425781 657.867188 277.253906 662.097656 272.691406 662.75 C 272.289062 662.808594 271.890625 662.832031 271.496094 662.832031 Z M 271.496094 662.824219 " fill-opacity="1" fill-rule="nonzero"/><path fill="#9f2c4a" d="M 471.757812 662.824219 C 471.566406 662.824219 471.359375 662.824219 471.15625 662.796875 C 466.5625 662.472656 463.097656 658.476562 463.433594 653.886719 L 471.777344 537.078125 C 472.101562 532.488281 476.03125 528.953125 480.6875 529.351562 C 485.285156 529.675781 488.746094 533.671875 488.414062 538.261719 L 480.070312 655.074219 C 479.761719 659.460938 476.089844 662.824219 471.757812 662.824219 Z M 471.757812 662.824219 " fill-opacity="1" fill-rule="nonzero"/><path fill="#9f2c4a" d="M 538.507812 662.824219 C 538.113281 662.824219 537.714844 662.796875 537.3125 662.738281 C 532.75 662.089844 529.578125 657.859375 530.230469 653.296875 L 546.917969 536.484375 C 547.566406 531.921875 551.824219 528.777344 556.363281 529.402344 C 560.925781 530.050781 564.097656 534.28125 563.445312 538.847656 L 546.757812 655.65625 C 546.167969 659.820312 542.59375 662.816406 538.507812 662.816406 Z M 538.507812 662.824219 " fill-opacity="1" fill-rule="nonzero"/></svg>