<svg xmlns="http://www.w3.org/2000/svg" xmlns:xlink="http://www.w3.org/1999/xlink" width="1080" zoomAndPan="magnify" viewBox="0 0 810 809.999993" height="1080" preserveAspectRatio="xMidYMid meet" version="1.0"><path fill="#773eaa" d="M 436.164062 145.710938 C 436.164062 145.710938 496.78125 -66.835938 591.988281 21.050781 C 669.902344 92.886719 605.546875 192.457031 479.796875 192.457031 Z M 436.164062 145.710938 " fill-opacity="1" fill-rule="nonzero"/><path fill="#773eaa" d="M 373.832031 145.710938 C 373.832031 145.710938 313.21875 -66.835938 218.007812 21.050781 C 140.09375 92.886719 204.449219 192.457031 330.203125 192.457031 Z M 373.832031 145.710938 " fill-opacity="1" fill-rule="nonzero"/><path fill="#773eaa" d="M 54.390625 264.605469 L 755.609375 264.605469 L 755.609375 778.832031 C 755.609375 779.851562 755.558594 780.871094 755.457031 781.886719 C 755.355469 782.902344 755.207031 783.910156 755.007812 784.914062 C 754.808594 785.914062 754.5625 786.902344 754.265625 787.878906 C 753.96875 788.855469 753.625 789.816406 753.234375 790.757812 C 752.84375 791.703125 752.410156 792.625 751.925781 793.523438 C 751.445312 794.421875 750.921875 795.296875 750.355469 796.148438 C 749.789062 796.996094 749.179688 797.8125 748.535156 798.601562 C 747.886719 799.390625 747.199219 800.148438 746.480469 800.871094 C 745.757812 801.589844 745.003906 802.277344 744.214844 802.921875 C 743.425781 803.570312 742.605469 804.179688 741.757812 804.746094 C 740.90625 805.3125 740.035156 805.835938 739.132812 806.316406 C 738.234375 806.796875 737.3125 807.234375 736.367188 807.625 C 735.425781 808.015625 734.464844 808.359375 733.488281 808.65625 C 732.511719 808.953125 731.523438 809.199219 730.523438 809.398438 C 729.519531 809.597656 728.511719 809.746094 727.496094 809.847656 C 726.480469 809.949219 725.464844 809.996094 724.441406 809.996094 L 85.554688 809.996094 C 84.535156 809.996094 83.515625 809.949219 82.5 809.847656 C 81.484375 809.746094 80.476562 809.597656 79.476562 809.398438 C 78.472656 809.199219 77.484375 808.953125 76.507812 808.65625 C 75.53125 808.359375 74.570312 808.015625 73.628906 807.625 C 72.6875 807.234375 71.765625 806.796875 70.863281 806.316406 C 69.964844 805.835938 69.089844 805.3125 68.242188 804.746094 C 67.390625 804.179688 66.574219 803.570312 65.785156 802.921875 C 64.996094 802.277344 64.238281 801.589844 63.519531 800.871094 C 62.796875 800.148438 62.113281 799.390625 61.464844 798.601562 C 60.816406 797.8125 60.210938 796.996094 59.640625 796.148438 C 59.074219 795.296875 58.550781 794.421875 58.070312 793.523438 C 57.589844 792.625 57.152344 791.703125 56.761719 790.757812 C 56.371094 789.816406 56.027344 788.855469 55.730469 787.878906 C 55.4375 786.902344 55.1875 785.914062 54.988281 784.914062 C 54.789062 783.910156 54.640625 782.902344 54.539062 781.886719 C 54.441406 780.871094 54.390625 779.851562 54.390625 778.832031 Z M 54.390625 264.605469 " fill-opacity="1" fill-rule="nonzero"/><path fill="#9355c9" d="M 54.390625 716.5 L 755.609375 716.5 L 755.609375 778.832031 C 755.609375 779.851562 755.558594 780.871094 755.457031 781.886719 C 755.355469 782.902344 755.207031 783.910156 755.007812 784.914062 C 754.808594 785.914062 754.5625 786.902344 754.265625 787.878906 C 753.96875 788.855469 753.625 789.816406 753.234375 790.757812 C 752.84375 791.703125 752.410156 792.625 751.925781 793.523438 C 751.445312 794.421875 750.921875 795.296875 750.355469 796.148438 C 749.789062 796.996094 749.179688 797.8125 748.535156 798.601562 C 747.886719 799.390625 747.199219 800.148438 746.480469 800.871094 C 745.757812 801.589844 745.003906 802.277344 744.214844 802.921875 C 743.425781 803.570312 742.605469 804.179688 741.757812 804.746094 C 740.90625 805.3125 740.035156 805.835938 739.132812 806.316406 C 738.234375 806.796875 737.3125 807.234375 736.367188 807.625 C 735.425781 808.015625 734.464844 808.359375 733.488281 808.65625 C 732.511719 808.953125 731.523438 809.199219 730.523438 809.398438 C 729.519531 809.597656 728.511719 809.746094 727.496094 809.847656 C 726.480469 809.949219 725.464844 809.996094 724.441406 809.996094 L 85.554688 809.996094 C 84.535156 809.996094 83.515625 809.949219 82.5 809.847656 C 81.484375 809.746094 80.476562 809.597656 79.476562 809.398438 C 78.472656 809.199219 77.484375 808.953125 76.507812 808.65625 C 75.53125 808.359375 74.570312 808.015625 73.628906 807.625 C 72.6875 807.234375 71.765625 806.796875 70.863281 806.316406 C 69.964844 805.835938 69.089844 805.3125 68.242188 804.746094 C 67.390625 804.179688 66.574219 803.570312 65.785156 802.921875 C 64.996094 802.277344 64.238281 801.589844 63.519531 800.871094 C 62.796875 800.148438 62.113281 799.390625 61.464844 798.601562 C 60.816406 797.8125 60.210938 796.996094 59.640625 796.148438 C 59.074219 795.296875 58.550781 794.421875 58.070312 793.523438 C 57.589844 792.625 57.152344 791.703125 56.761719 790.757812 C 56.371094 789.816406 56.027344 788.855469 55.730469 787.878906 C 55.4375 786.902344 55.1875 785.914062 54.988281 784.914062 C 54.789062 783.910156 54.640625 782.902344 54.539062 781.886719 C 54.441406 780.871094 54.390625 779.851562 54.390625 778.832031 Z M 54.390625 716.5 " fill-opacity="1" fill-rule="nonzero"/><path fill="#fcbf49" d="M 62.179688 155.527344 L 747.816406 155.527344 C 748.835938 155.527344 749.855469 155.578125 750.871094 155.679688 C 751.886719 155.777344 752.894531 155.929688 753.894531 156.125 C 754.898438 156.324219 755.886719 156.574219 756.863281 156.871094 C 757.839844 157.167969 758.800781 157.511719 759.742188 157.902344 C 760.683594 158.289062 761.605469 158.726562 762.507812 159.207031 C 763.40625 159.6875 764.28125 160.214844 765.128906 160.78125 C 765.980469 161.347656 766.796875 161.953125 767.585938 162.601562 C 768.375 163.25 769.132812 163.933594 769.851562 164.65625 C 770.574219 165.378906 771.257812 166.132812 771.90625 166.921875 C 772.554688 167.710938 773.160156 168.53125 773.730469 169.378906 C 774.296875 170.226562 774.820312 171.101562 775.300781 172.003906 C 775.78125 172.902344 776.21875 173.824219 776.609375 174.765625 C 777 175.710938 777.34375 176.667969 777.640625 177.644531 C 777.9375 178.625 778.183594 179.613281 778.382812 180.613281 C 778.582031 181.613281 778.730469 182.621094 778.832031 183.636719 C 778.929688 184.65625 778.980469 185.671875 778.980469 186.691406 L 778.980469 311.355469 L 31.015625 311.355469 L 31.015625 186.691406 C 31.015625 185.671875 31.066406 184.65625 31.167969 183.636719 C 31.265625 182.621094 31.414062 181.613281 31.613281 180.613281 C 31.8125 179.613281 32.0625 178.625 32.359375 177.648438 C 32.65625 176.667969 32.996094 175.710938 33.386719 174.765625 C 33.777344 173.824219 34.214844 172.902344 34.695312 172.003906 C 35.175781 171.101562 35.703125 170.226562 36.269531 169.378906 C 36.835938 168.53125 37.441406 167.710938 38.089844 166.921875 C 38.738281 166.132812 39.421875 165.378906 40.144531 164.65625 C 40.867188 163.933594 41.621094 163.25 42.410156 162.601562 C 43.199219 161.953125 44.019531 161.347656 44.867188 160.78125 C 45.714844 160.214844 46.589844 159.6875 47.492188 159.207031 C 48.390625 158.726562 49.3125 158.292969 50.253906 157.902344 C 51.199219 157.511719 52.15625 157.167969 53.132812 156.871094 C 54.113281 156.574219 55.101562 156.324219 56.101562 156.125 C 57.101562 155.929688 58.109375 155.777344 59.125 155.679688 C 60.140625 155.578125 61.160156 155.527344 62.179688 155.527344 Z M 62.179688 155.527344 " fill-opacity="1" fill-rule="nonzero"/><path fill="#e2a334" d="M 467.328125 155.527344 L 467.328125 809.996094 L 342.667969 809.996094 L 342.667969 155.527344 Z M 467.328125 155.527344 " fill-opacity="1" fill-rule="nonzero"/><path fill="#9355c9" d="M 482.910156 124.363281 L 482.910156 155.527344 L 327.085938 155.527344 L 327.085938 124.363281 C 327.085938 123.34375 327.136719 122.324219 327.234375 121.308594 C 327.335938 120.292969 327.484375 119.285156 327.683594 118.28125 C 327.882812 117.28125 328.132812 116.292969 328.429688 115.316406 C 328.722656 114.339844 329.066406 113.378906 329.457031 112.4375 C 329.847656 111.492188 330.285156 110.570312 330.765625 109.671875 C 331.246094 108.773438 331.769531 107.898438 332.339844 107.046875 C 332.90625 106.199219 333.511719 105.382812 334.160156 104.59375 C 334.808594 103.804688 335.492188 103.046875 336.214844 102.324219 C 336.9375 101.605469 337.691406 100.917969 338.480469 100.273438 C 339.269531 99.625 340.089844 99.015625 340.9375 98.449219 C 341.785156 97.882812 342.660156 97.359375 343.558594 96.878906 C 344.460938 96.394531 345.382812 95.960938 346.324219 95.570312 C 347.269531 95.179688 348.226562 94.835938 349.203125 94.539062 C 350.179688 94.242188 351.167969 93.996094 352.171875 93.796875 C 353.171875 93.597656 354.179688 93.449219 355.195312 93.347656 C 356.210938 93.246094 357.230469 93.199219 358.25 93.199219 L 451.746094 93.199219 C 452.765625 93.199219 453.785156 93.246094 454.800781 93.347656 C 455.816406 93.449219 456.824219 93.597656 457.828125 93.796875 C 458.828125 93.996094 459.816406 94.242188 460.792969 94.539062 C 461.769531 94.835938 462.730469 95.179688 463.671875 95.570312 C 464.617188 95.960938 465.539062 96.394531 466.4375 96.878906 C 467.339844 97.359375 468.210938 97.882812 469.0625 98.449219 C 469.910156 99.015625 470.730469 99.625 471.519531 100.273438 C 472.308594 100.917969 473.0625 101.605469 473.785156 102.324219 C 474.503906 103.046875 475.191406 103.804688 475.835938 104.59375 C 476.484375 105.382812 477.09375 106.199219 477.660156 107.046875 C 478.226562 107.898438 478.75 108.773438 479.230469 109.671875 C 479.714844 110.570312 480.148438 111.492188 480.539062 112.4375 C 480.929688 113.378906 481.273438 114.339844 481.570312 115.316406 C 481.867188 116.292969 482.113281 117.28125 482.3125 118.28125 C 482.511719 119.285156 482.660156 120.292969 482.761719 121.308594 C 482.863281 122.324219 482.910156 123.34375 482.910156 124.363281 Z M 482.910156 124.363281 " fill-opacity="1" fill-rule="nonzero"/></svg>