<svg xmlns="http://www.w3.org/2000/svg" xmlns:xlink="http://www.w3.org/1999/xlink" width="1080" zoomAndPan="magnify" viewBox="0 0 810 809.999993" height="1080" preserveAspectRatio="xMidYMid meet" version="1.0"><path fill="#3faa84" d="M 272.378906 44.089844 L 448.03125 108.023438 C 449.949219 108.71875 451.828125 109.511719 453.667969 110.394531 C 455.507812 111.273438 457.296875 112.246094 459.042969 113.304688 C 460.789062 114.363281 462.476562 115.503906 464.109375 116.730469 C 465.742188 117.953125 467.308594 119.253906 468.8125 120.632812 C 470.320312 122.011719 471.75 123.460938 473.113281 124.980469 C 474.476562 126.5 475.761719 128.082031 476.96875 129.730469 C 478.175781 131.375 479.296875 133.074219 480.335938 134.832031 C 481.375 136.585938 482.328125 138.390625 483.191406 140.238281 C 484.050781 142.089844 484.820312 143.976562 485.5 145.902344 C 486.175781 147.828125 486.757812 149.78125 487.242188 151.761719 C 487.726562 153.746094 488.113281 155.746094 488.402344 157.765625 C 488.691406 159.785156 488.878906 161.816406 488.96875 163.855469 C 489.058594 165.894531 489.046875 167.929688 488.933594 169.96875 C 488.824219 172.007812 488.613281 174.035156 488.300781 176.050781 C 487.992188 178.066406 487.582031 180.0625 487.078125 182.039062 C 486.570312 184.019531 485.96875 185.964844 485.269531 187.882812 L 368.0625 509.90625 C 367.363281 511.824219 366.574219 513.703125 365.691406 515.542969 C 364.808594 517.382812 363.839844 519.175781 362.78125 520.921875 C 361.722656 522.664062 360.578125 524.355469 359.355469 525.988281 C 358.128906 527.617188 356.828125 529.1875 355.449219 530.691406 C 354.070312 532.195312 352.621094 533.628906 351.101562 534.992188 C 349.582031 536.355469 348 537.636719 346.355469 538.84375 C 344.710938 540.050781 343.007812 541.175781 341.253906 542.214844 C 339.496094 543.253906 337.695312 544.203125 335.84375 545.066406 C 333.996094 545.929688 332.109375 546.699219 330.183594 547.375 C 328.257812 548.054688 326.304688 548.632812 324.320312 549.121094 C 322.339844 549.605469 320.339844 549.992188 318.316406 550.28125 C 316.296875 550.566406 314.269531 550.757812 312.230469 550.847656 C 310.191406 550.933594 308.152344 550.921875 306.113281 550.8125 C 304.078125 550.703125 302.050781 550.492188 300.035156 550.179688 C 298.015625 549.871094 296.019531 549.460938 294.042969 548.953125 C 292.066406 548.449219 290.117188 547.84375 288.203125 547.148438 L 112.550781 483.214844 C 110.632812 482.519531 108.753906 481.726562 106.914062 480.84375 C 105.074219 479.960938 103.28125 478.992188 101.539062 477.933594 C 99.792969 476.875 98.105469 475.734375 96.472656 474.507812 C 94.839844 473.285156 93.273438 471.984375 91.765625 470.605469 C 90.261719 469.226562 88.828125 467.777344 87.46875 466.257812 C 86.105469 464.738281 84.820312 463.15625 83.613281 461.507812 C 82.40625 459.863281 81.285156 458.164062 80.246094 456.40625 C 79.207031 454.652344 78.253906 452.847656 77.390625 451 C 76.527344 449.148438 75.757812 447.261719 75.082031 445.335938 C 74.40625 443.410156 73.824219 441.457031 73.339844 439.476562 C 72.855469 437.492188 72.46875 435.492188 72.179688 433.472656 C 71.890625 431.453125 71.703125 429.421875 71.613281 427.382812 C 71.523438 425.34375 71.535156 423.308594 71.648438 421.269531 C 71.757812 419.230469 71.96875 417.203125 72.277344 415.1875 C 72.589844 413.171875 73 411.171875 73.503906 409.195312 C 74.011719 407.21875 74.613281 405.273438 75.3125 403.355469 L 192.519531 81.328125 C 193.21875 79.414062 194.007812 77.535156 194.890625 75.695312 C 195.773438 73.855469 196.742188 72.0625 197.800781 70.316406 C 198.859375 68.574219 200 66.882812 201.226562 65.25 C 202.449219 63.617188 203.753906 62.050781 205.132812 60.546875 C 206.511719 59.042969 207.957031 57.609375 209.476562 56.246094 C 210.996094 54.882812 212.582031 53.597656 214.226562 52.394531 C 215.871094 51.1875 217.574219 50.0625 219.328125 49.023438 C 221.085938 47.984375 222.886719 47.03125 224.738281 46.171875 C 226.585938 45.308594 228.472656 44.539062 230.398438 43.863281 C 232.324219 43.183594 234.277344 42.601562 236.257812 42.117188 C 238.242188 41.632812 240.242188 41.246094 242.261719 40.957031 C 244.285156 40.667969 246.3125 40.480469 248.351562 40.390625 C 250.390625 40.304688 252.429688 40.3125 254.464844 40.425781 C 256.503906 40.535156 258.53125 40.746094 260.546875 41.058594 C 262.566406 41.367188 264.5625 41.777344 266.539062 42.285156 C 268.515625 42.789062 270.460938 43.390625 272.378906 44.089844 Z M 272.378906 44.089844 " fill-opacity="1" fill-rule="nonzero"/><path fill="#50c295" d="M 428.414062 44.09375 L 604.0625 108.023438 C 605.980469 108.722656 607.859375 109.511719 609.699219 110.394531 C 611.539062 111.277344 613.332031 112.25 615.074219 113.308594 C 616.820312 114.367188 618.507812 115.507812 620.140625 116.730469 C 621.773438 117.957031 623.34375 119.257812 624.847656 120.636719 C 626.351562 122.015625 627.785156 123.464844 629.144531 124.984375 C 630.507812 126.503906 631.792969 128.085938 633 129.730469 C 634.207031 131.378906 635.328125 133.078125 636.367188 134.832031 C 637.410156 136.589844 638.359375 138.394531 639.222656 140.242188 C 640.085938 142.089844 640.855469 143.980469 641.53125 145.902344 C 642.207031 147.828125 642.789062 149.78125 643.273438 151.765625 C 643.757812 153.746094 644.144531 155.75 644.433594 157.769531 C 644.722656 159.789062 644.910156 161.816406 645 163.855469 C 645.089844 165.894531 645.078125 167.933594 644.96875 169.972656 C 644.855469 172.007812 644.644531 174.035156 644.335938 176.054688 C 644.023438 178.070312 643.617188 180.066406 643.109375 182.042969 C 642.601562 184.019531 642 185.96875 641.300781 187.886719 L 524.09375 509.910156 C 523.394531 511.828125 522.605469 513.707031 521.722656 515.546875 C 520.839844 517.386719 519.871094 519.179688 518.8125 520.921875 C 517.753906 522.667969 516.613281 524.355469 515.386719 525.988281 C 514.164062 527.621094 512.859375 529.191406 511.480469 530.695312 C 510.105469 532.199219 508.65625 533.632812 507.136719 534.996094 C 505.617188 536.355469 504.03125 537.640625 502.386719 538.847656 C 500.742188 540.054688 499.039062 541.175781 497.285156 542.21875 C 495.527344 543.257812 493.726562 544.207031 491.875 545.070312 C 490.027344 545.933594 488.140625 546.703125 486.214844 547.378906 C 484.289062 548.054688 482.335938 548.636719 480.355469 549.121094 C 478.371094 549.605469 476.371094 549.992188 474.351562 550.28125 C 472.332031 550.570312 470.300781 550.757812 468.261719 550.847656 C 466.222656 550.9375 464.183594 550.925781 462.148438 550.816406 C 460.109375 550.703125 458.082031 550.492188 456.066406 550.183594 C 454.050781 549.871094 452.050781 549.464844 450.074219 548.957031 C 448.097656 548.449219 446.152344 547.847656 444.234375 547.148438 L 268.582031 483.21875 C 266.667969 482.519531 264.789062 481.730469 262.949219 480.847656 C 261.105469 479.964844 259.316406 478.996094 257.570312 477.9375 C 255.824219 476.878906 254.136719 475.734375 252.503906 474.511719 C 250.871094 473.285156 249.304688 471.984375 247.800781 470.605469 C 246.296875 469.226562 244.863281 467.777344 243.5 466.257812 C 242.136719 464.738281 240.851562 463.15625 239.644531 461.511719 C 238.441406 459.867188 237.316406 458.164062 236.277344 456.410156 C 235.238281 454.652344 234.285156 452.851562 233.425781 451 C 232.5625 449.152344 231.792969 447.265625 231.113281 445.339844 C 230.4375 443.414062 229.855469 441.460938 229.371094 439.476562 C 228.886719 437.496094 228.5 435.496094 228.210938 433.472656 C 227.921875 431.453125 227.734375 429.425781 227.644531 427.386719 C 227.558594 425.347656 227.566406 423.308594 227.679688 421.273438 C 227.789062 419.234375 228 417.207031 228.3125 415.191406 C 228.621094 413.171875 229.03125 411.175781 229.539062 409.199219 C 230.042969 407.222656 230.644531 405.277344 231.34375 403.359375 L 348.550781 81.332031 C 349.25 79.414062 350.039062 77.535156 350.921875 75.695312 C 351.804688 73.855469 352.777344 72.0625 353.835938 70.320312 C 354.894531 68.574219 356.035156 66.886719 357.257812 65.253906 C 358.484375 63.621094 359.785156 62.054688 361.164062 60.546875 C 362.542969 59.042969 363.992188 57.609375 365.511719 56.25 C 367.03125 54.886719 368.613281 53.601562 370.257812 52.394531 C 371.902344 51.1875 373.605469 50.066406 375.359375 49.027344 C 377.117188 47.988281 378.921875 47.035156 380.769531 46.171875 C 382.617188 45.3125 384.507812 44.539062 386.429688 43.863281 C 388.355469 43.1875 390.308594 42.605469 392.292969 42.121094 C 394.273438 41.636719 396.277344 41.25 398.296875 40.960938 C 400.316406 40.671875 402.34375 40.484375 404.382812 40.394531 C 406.421875 40.304688 408.460938 40.316406 410.5 40.429688 C 412.535156 40.539062 414.5625 40.75 416.582031 41.058594 C 418.597656 41.371094 420.59375 41.78125 422.570312 42.285156 C 424.546875 42.792969 426.496094 43.394531 428.414062 44.09375 Z M 428.414062 44.09375 " fill-opacity="1" fill-rule="nonzero"/><path fill="#1a75d0" d="M 62.308594 227.417969 L 685.382812 227.417969 C 687.425781 227.417969 689.460938 227.519531 691.492188 227.71875 C 693.523438 227.917969 695.539062 228.21875 697.539062 228.617188 C 699.542969 229.015625 701.519531 229.511719 703.472656 230.101562 C 705.425781 230.695312 707.34375 231.382812 709.230469 232.164062 C 711.113281 232.945312 712.957031 233.816406 714.757812 234.777344 C 716.554688 235.738281 718.304688 236.785156 720 237.921875 C 721.699219 239.054688 723.335938 240.269531 724.914062 241.5625 C 726.488281 242.855469 728 244.226562 729.441406 245.667969 C 730.886719 247.113281 732.253906 248.621094 733.550781 250.199219 C 734.84375 251.777344 736.058594 253.414062 737.191406 255.109375 C 738.324219 256.808594 739.371094 258.554688 740.335938 260.355469 C 741.296875 262.15625 742.167969 263.996094 742.949219 265.882812 C 743.730469 267.769531 744.417969 269.6875 745.007812 271.640625 C 745.601562 273.59375 746.097656 275.570312 746.496094 277.570312 C 746.894531 279.574219 747.191406 281.589844 747.390625 283.621094 C 747.59375 285.652344 747.691406 287.6875 747.691406 289.726562 L 747.691406 725.882812 C 747.691406 727.921875 747.59375 729.957031 747.390625 731.988281 C 747.191406 734.019531 746.894531 736.035156 746.496094 738.035156 C 746.097656 740.039062 745.601562 742.015625 745.007812 743.96875 C 744.417969 745.921875 743.730469 747.839844 742.949219 749.726562 C 742.167969 751.609375 741.296875 753.453125 740.335938 755.253906 C 739.375 757.050781 738.324219 758.800781 737.191406 760.496094 C 736.058594 762.195312 734.84375 763.832031 733.550781 765.410156 C 732.253906 766.984375 730.886719 768.496094 729.441406 769.9375 C 728 771.382812 726.488281 772.75 724.914062 774.046875 C 723.335938 775.339844 721.699219 776.554688 720 777.6875 C 718.304688 778.820312 716.554688 779.871094 714.757812 780.832031 C 712.957031 781.792969 711.113281 782.664062 709.230469 783.445312 C 707.34375 784.226562 705.425781 784.914062 703.472656 785.503906 C 701.519531 786.097656 699.542969 786.59375 697.539062 786.992188 C 695.539062 787.390625 693.523438 787.6875 691.492188 787.890625 C 689.460938 788.089844 687.425781 788.1875 685.382812 788.1875 L 62.308594 788.1875 C 60.265625 788.1875 58.230469 788.089844 56.199219 787.890625 C 54.167969 787.6875 52.152344 787.390625 50.152344 786.992188 C 48.152344 786.59375 46.171875 786.097656 44.222656 785.503906 C 42.269531 784.914062 40.347656 784.226562 38.464844 783.445312 C 36.578125 782.664062 34.734375 781.792969 32.9375 780.832031 C 31.136719 779.871094 29.386719 778.820312 27.691406 777.6875 C 25.996094 776.554688 24.359375 775.339844 22.78125 774.046875 C 21.203125 772.75 19.691406 771.382812 18.25 769.9375 C 16.804688 768.496094 15.4375 766.984375 14.144531 765.410156 C 12.847656 763.832031 11.632812 762.195312 10.5 760.496094 C 9.367188 758.800781 8.320312 757.050781 7.355469 755.253906 C 6.394531 753.453125 5.523438 751.609375 4.742188 749.726562 C 3.960938 747.839844 3.273438 745.921875 2.683594 743.96875 C 2.089844 742.015625 1.59375 740.039062 1.195312 738.035156 C 0.800781 736.035156 0.5 734.019531 0.300781 731.988281 C 0.101562 729.957031 0 727.921875 0 725.882812 L 0 289.726562 C 0 287.6875 0.101562 285.652344 0.300781 283.621094 C 0.5 281.589844 0.800781 279.574219 1.195312 277.570312 C 1.59375 275.570312 2.089844 273.59375 2.683594 271.640625 C 3.273438 269.6875 3.960938 267.769531 4.742188 265.882812 C 5.523438 263.996094 6.394531 262.15625 7.355469 260.355469 C 8.320312 258.554688 9.367188 256.808594 10.5 255.109375 C 11.632812 253.414062 12.847656 251.777344 14.144531 250.199219 C 15.4375 248.621094 16.804688 247.113281 18.25 245.667969 C 19.691406 244.226562 21.203125 242.855469 22.78125 241.5625 C 24.359375 240.269531 25.996094 239.054688 27.691406 237.921875 C 29.386719 236.785156 31.136719 235.738281 32.9375 234.777344 C 34.734375 233.816406 36.578125 232.945312 38.464844 232.164062 C 40.347656 231.382812 42.269531 230.695312 44.222656 230.101562 C 46.171875 229.511719 48.152344 229.015625 50.152344 228.617188 C 52.152344 228.21875 54.167969 227.917969 56.199219 227.71875 C 58.230469 227.519531 60.265625 227.417969 62.308594 227.417969 Z M 62.308594 227.417969 " fill-opacity="1" fill-rule="nonzero"/><path fill="#eceef0" d="M 560.769531 414.34375 L 778.847656 414.34375 C 779.867188 414.34375 780.882812 414.394531 781.898438 414.492188 C 782.914062 414.59375 783.921875 414.742188 784.921875 414.941406 C 785.925781 415.140625 786.914062 415.386719 787.890625 415.683594 C 788.867188 415.980469 789.824219 416.324219 790.769531 416.714844 C 791.710938 417.105469 792.632812 417.539062 793.53125 418.019531 C 794.433594 418.503906 795.304688 419.027344 796.152344 419.59375 C 797.003906 420.160156 797.820312 420.765625 798.609375 421.414062 C 799.398438 422.0625 800.152344 422.746094 800.875 423.46875 C 801.597656 424.1875 802.28125 424.945312 802.929688 425.734375 C 803.574219 426.519531 804.183594 427.339844 804.75 428.1875 C 805.316406 429.035156 805.839844 429.910156 806.320312 430.8125 C 806.800781 431.710938 807.238281 432.632812 807.628906 433.574219 C 808.019531 434.515625 808.363281 435.476562 808.660156 436.453125 C 808.953125 437.429688 809.203125 438.417969 809.402344 439.417969 C 809.601562 440.417969 809.75 441.425781 809.851562 442.441406 C 809.949219 443.457031 810 444.476562 810 445.496094 L 810 570.113281 C 810 571.132812 809.949219 572.148438 809.851562 573.164062 C 809.75 574.179688 809.601562 575.1875 809.402344 576.191406 C 809.203125 577.191406 808.953125 578.179688 808.660156 579.15625 C 808.363281 580.132812 808.019531 581.089844 807.628906 582.035156 C 807.238281 582.976562 806.800781 583.898438 806.320312 584.796875 C 805.839844 585.699219 805.316406 586.570312 804.75 587.421875 C 804.183594 588.269531 803.574219 589.085938 802.929688 589.875 C 802.28125 590.664062 801.597656 591.417969 800.875 592.140625 C 800.152344 592.863281 799.398438 593.546875 798.609375 594.195312 C 797.820312 594.839844 797.003906 595.449219 796.152344 596.015625 C 795.304688 596.582031 794.433594 597.105469 793.53125 597.585938 C 792.632812 598.066406 791.710938 598.503906 790.769531 598.894531 C 789.824219 599.285156 788.867188 599.628906 787.890625 599.925781 C 786.914062 600.21875 785.925781 600.46875 784.921875 600.667969 C 783.921875 600.867188 782.914062 601.015625 781.898438 601.117188 C 780.882812 601.214844 779.867188 601.265625 778.847656 601.265625 L 560.769531 601.265625 C 558.730469 601.265625 556.691406 601.164062 554.660156 600.964844 C 552.632812 600.765625 550.613281 600.464844 548.613281 600.070312 C 546.613281 599.671875 544.636719 599.175781 542.683594 598.582031 C 540.730469 597.992188 538.808594 597.304688 536.925781 596.523438 C 535.039062 595.742188 533.195312 594.871094 531.398438 593.910156 C 529.597656 592.945312 527.847656 591.898438 526.152344 590.765625 C 524.457031 589.632812 522.820312 588.417969 521.242188 587.121094 C 519.664062 585.828125 518.152344 584.460938 516.710938 583.015625 C 515.269531 581.574219 513.898438 580.0625 512.605469 578.484375 C 511.308594 576.90625 510.097656 575.269531 508.960938 573.574219 C 507.828125 571.878906 506.78125 570.128906 505.820312 568.328125 C 504.855469 566.53125 503.984375 564.6875 503.203125 562.800781 C 502.421875 560.917969 501.738281 558.996094 501.144531 557.046875 C 500.550781 555.09375 500.058594 553.113281 499.660156 551.113281 C 499.261719 549.113281 498.960938 547.097656 498.761719 545.066406 C 498.5625 543.035156 498.460938 541 498.460938 538.957031 L 498.460938 476.648438 C 498.460938 474.609375 498.5625 472.574219 498.761719 470.542969 C 498.960938 468.511719 499.261719 466.496094 499.660156 464.496094 C 500.058594 462.492188 500.550781 460.515625 501.144531 458.5625 C 501.738281 456.609375 502.421875 454.691406 503.203125 452.804688 C 503.984375 450.921875 504.855469 449.078125 505.820312 447.277344 C 506.78125 445.480469 507.828125 443.730469 508.960938 442.035156 C 510.097656 440.335938 511.308594 438.699219 512.605469 437.121094 C 513.898438 435.546875 515.269531 434.035156 516.710938 432.59375 C 518.152344 431.148438 519.664062 429.78125 521.242188 428.484375 C 522.820312 427.191406 524.457031 425.976562 526.152344 424.84375 C 527.851562 423.710938 529.597656 422.660156 531.398438 421.699219 C 533.199219 420.738281 535.039062 419.867188 536.925781 419.085938 C 538.808594 418.304688 540.730469 417.617188 542.683594 417.027344 C 544.636719 416.433594 546.613281 415.9375 548.613281 415.539062 C 550.613281 415.140625 552.632812 414.84375 554.660156 414.644531 C 556.691406 414.441406 558.730469 414.34375 560.769531 414.34375 Z M 560.769531 414.34375 " fill-opacity="1" fill-rule="nonzero"/></svg>