<svg xmlns="http://www.w3.org/2000/svg" xmlns:xlink="http://www.w3.org/1999/xlink" width="1080" zoomAndPan="magnify" viewBox="0 0 810 809.999993" height="1080" preserveAspectRatio="xMidYMid meet" version="1.0"><defs><clipPath id="0b9f4f65db"><path d="M 27.59375 216 L 782.09375 216 L 782.09375 395 L 27.59375 395 Z M 27.59375 216 " clip-rule="nonzero"/></clipPath><clipPath id="d91c711d84"><path d="M 66 394 L 745 394 L 745 809.707031 L 66 809.707031 Z M 66 394 " clip-rule="nonzero"/></clipPath><clipPath id="9cc46fc394"><path d="M 332 394 L 478 394 L 478 809.707031 L 332 809.707031 Z M 332 394 " clip-rule="nonzero"/></clipPath></defs><path fill="#f8a716" d="M 367.375 220.050781 C 367.375 220.050781 155.359375 250.289062 139.8125 184.472656 C 147.566406 150.769531 144.136719 129.835938 163.765625 85.074219 C 290.542969 35.457031 379.617188 177.984375 379.617188 177.984375 L 367.375 220.050781 " fill-opacity="1" fill-rule="nonzero"/><path fill="#fbc512" d="M 367.375 220.050781 C 367.375 220.050781 258.183594 33.253906 139.8125 184.472656 C 132.589844 141.21875 137.855469 71.976562 150.382812 28.929688 C 280.382812 -82.855469 393.527344 169.988281 393.527344 169.988281 L 367.375 220.050781 " fill-opacity="1" fill-rule="nonzero"/><path fill="#f8a716" d="M 443.023438 220.050781 C 443.023438 220.050781 655.039062 250.289062 670.585938 184.472656 C 662.832031 150.769531 666.261719 129.835938 646.632812 85.074219 C 519.855469 35.457031 430.78125 177.984375 430.78125 177.984375 L 443.023438 220.050781 " fill-opacity="1" fill-rule="nonzero"/><path fill="#fbc512" d="M 443.023438 220.050781 C 443.023438 220.050781 552.253906 33.253906 670.585938 184.472656 C 677.808594 141.21875 672.542969 71.976562 660.015625 28.929688 C 530.015625 -82.855469 416.867188 169.988281 416.867188 169.988281 L 443.023438 220.050781 " fill-opacity="1" fill-rule="nonzero"/><path fill="#fddd0f" d="M 456.613281 209.15625 C 446.207031 224.746094 357.949219 228.949219 354.480469 209.15625 C 351.011719 189.328125 338.894531 134.855469 354.480469 120.082031 C 370.066406 105.3125 442.738281 107.148438 456.613281 120.082031 C 470.445312 132.976562 466.976562 193.570312 456.613281 209.15625 " fill-opacity="1" fill-rule="nonzero"/><g clip-path="url(#0b9f4f65db)"><path fill="#9355c9" d="M 782.425781 394.691406 L 27.96875 394.691406 L 27.96875 216.664062 L 782.425781 216.664062 L 782.425781 394.691406 " fill-opacity="1" fill-rule="nonzero"/></g><g clip-path="url(#d91c711d84)"><path fill="#773eaa" d="M 744.277344 810.03125 L 66.121094 810.03125 L 66.121094 394.691406 L 744.277344 394.691406 L 744.277344 810.03125 " fill-opacity="1" fill-rule="nonzero"/></g><path fill="#fddd0f" d="M 485.746094 394.691406 L 324.652344 394.691406 L 324.652344 216.664062 L 485.746094 216.664062 L 485.746094 394.691406 " fill-opacity="1" fill-rule="nonzero"/><g clip-path="url(#9cc46fc394)"><path fill="#fbc512" d="M 477.585938 810.03125 L 332.8125 810.03125 L 332.8125 394.691406 L 477.585938 394.691406 L 477.585938 810.03125 " fill-opacity="1" fill-rule="nonzero"/></g></svg>