<svg xmlns="http://www.w3.org/2000/svg" xmlns:xlink="http://www.w3.org/1999/xlink" width="1080" zoomAndPan="magnify" viewBox="0 0 810 809.999993" height="1080" preserveAspectRatio="xMidYMid meet" version="1.0"><path fill="#468ff1" d="M 297 81 L 405 81 L 405 216 L 297 216 Z M 297 81 " fill-opacity="1" fill-rule="nonzero"/><path fill="#468ff1" d="M 432 648 C 432 649.324219 431.96875 650.652344 431.902344 651.972656 C 431.835938 653.296875 431.738281 654.621094 431.609375 655.9375 C 431.480469 657.257812 431.316406 658.574219 431.125 659.886719 C 430.929688 661.195312 430.703125 662.503906 430.445312 663.800781 C 430.183594 665.101562 429.894531 666.394531 429.574219 667.679688 C 429.25 668.96875 428.898438 670.246094 428.511719 671.511719 C 428.128906 672.78125 427.710938 674.039062 427.265625 675.289062 C 426.820312 676.535156 426.339844 677.773438 425.835938 678.996094 C 425.328125 680.222656 424.789062 681.433594 424.222656 682.632812 C 423.65625 683.832031 423.058594 685.015625 422.4375 686.183594 C 421.8125 687.351562 421.15625 688.503906 420.476562 689.640625 C 419.792969 690.78125 419.085938 691.898438 418.347656 693 C 417.613281 694.101562 416.847656 695.1875 416.058594 696.25 C 415.269531 697.316406 414.453125 698.359375 413.613281 699.386719 C 412.773438 700.410156 411.90625 701.414062 411.015625 702.394531 C 410.125 703.378906 409.214844 704.339844 408.277344 705.277344 C 407.339844 706.214844 406.378906 707.125 405.394531 708.015625 C 404.414062 708.90625 403.410156 709.773438 402.386719 710.613281 C 401.359375 711.453125 400.316406 712.269531 399.25 713.058594 C 398.1875 713.847656 397.101562 714.613281 396 715.347656 C 394.898438 716.085938 393.78125 716.792969 392.640625 717.476562 C 391.503906 718.15625 390.351562 718.8125 389.183594 719.4375 C 388.015625 720.058594 386.832031 720.65625 385.632812 721.222656 C 384.433594 721.789062 383.222656 722.328125 381.996094 722.835938 C 380.773438 723.339844 379.535156 723.820312 378.289062 724.265625 C 377.039062 724.710938 375.78125 725.128906 374.511719 725.511719 C 373.246094 725.898438 371.96875 726.25 370.679688 726.574219 C 369.394531 726.894531 368.101562 727.183594 366.800781 727.445312 C 365.503906 727.703125 364.195312 727.929688 362.886719 728.125 C 361.574219 728.316406 360.257812 728.480469 358.9375 728.609375 C 357.621094 728.738281 356.296875 728.835938 354.972656 728.902344 C 353.652344 728.96875 352.324219 729 351 729 C 349.675781 729 348.347656 728.96875 347.027344 728.902344 C 345.703125 728.835938 344.378906 728.738281 343.0625 728.609375 C 341.742188 728.480469 340.425781 728.316406 339.113281 728.125 C 337.804688 727.929688 336.496094 727.703125 335.199219 727.445312 C 333.898438 727.183594 332.605469 726.894531 331.320312 726.574219 C 330.03125 726.25 328.753906 725.898438 327.488281 725.511719 C 326.21875 725.128906 324.960938 724.710938 323.710938 724.265625 C 322.464844 723.820312 321.226562 723.339844 320.003906 722.835938 C 318.777344 722.328125 317.566406 721.789062 316.367188 721.222656 C 315.167969 720.65625 313.984375 720.058594 312.816406 719.4375 C 311.648438 718.8125 310.496094 718.15625 309.359375 717.476562 C 308.21875 716.792969 307.101562 716.085938 306 715.347656 C 304.898438 714.613281 303.8125 713.847656 302.75 713.058594 C 301.683594 712.269531 300.640625 711.453125 299.613281 710.613281 C 298.589844 709.773438 297.585938 708.90625 296.605469 708.015625 C 295.621094 707.125 294.660156 706.214844 293.722656 705.277344 C 292.785156 704.339844 291.875 703.378906 290.984375 702.394531 C 290.09375 701.414062 289.226562 700.410156 288.386719 699.386719 C 287.546875 698.359375 286.730469 697.316406 285.941406 696.25 C 285.152344 695.1875 284.386719 694.101562 283.652344 693 C 282.914062 691.898438 282.207031 690.78125 281.523438 689.640625 C 280.84375 688.503906 280.1875 687.351562 279.5625 686.183594 C 278.941406 685.015625 278.34375 683.832031 277.777344 682.632812 C 277.210938 681.433594 276.671875 680.222656 276.164062 678.996094 C 275.660156 677.773438 275.179688 676.535156 274.734375 675.289062 C 274.289062 674.039062 273.871094 672.78125 273.488281 671.511719 C 273.101562 670.246094 272.75 668.96875 272.425781 667.679688 C 272.105469 666.394531 271.816406 665.101562 271.554688 663.800781 C 271.296875 662.503906 271.070312 661.195312 270.875 659.886719 C 270.683594 658.574219 270.519531 657.257812 270.390625 655.9375 C 270.261719 654.621094 270.164062 653.296875 270.097656 651.972656 C 270.03125 650.652344 270 649.324219 270 648 C 270 646.675781 270.03125 645.347656 270.097656 644.027344 C 270.164062 642.703125 270.261719 641.378906 270.390625 640.0625 C 270.519531 638.742188 270.683594 637.425781 270.875 636.113281 C 271.070312 634.804688 271.296875 633.496094 271.554688 632.199219 C 271.816406 630.898438 272.105469 629.605469 272.425781 628.320312 C 272.75 627.03125 273.101562 625.753906 273.488281 624.488281 C 273.871094 623.21875 274.289062 621.960938 274.734375 620.710938 C 275.179688 619.464844 275.660156 618.226562 276.164062 617.003906 C 276.671875 615.777344 277.210938 614.566406 277.777344 613.367188 C 278.34375 612.167969 278.941406 610.984375 279.5625 609.816406 C 280.1875 608.648438 280.84375 607.496094 281.523438 606.359375 C 282.207031 605.21875 282.914062 604.101562 283.652344 603 C 284.386719 601.898438 285.152344 600.8125 285.941406 599.75 C 286.730469 598.683594 287.546875 597.640625 288.386719 596.613281 C 289.226562 595.589844 290.09375 594.585938 290.984375 593.605469 C 291.875 592.621094 292.785156 591.660156 293.722656 590.722656 C 294.660156 589.785156 295.621094 588.875 296.605469 587.984375 C 297.585938 587.09375 298.589844 586.226562 299.613281 585.386719 C 300.640625 584.546875 301.683594 583.730469 302.75 582.941406 C 303.8125 582.148438 304.898438 581.386719 306 580.652344 C 307.101562 579.914062 308.21875 579.207031 309.359375 578.523438 C 310.496094 577.84375 311.648438 577.1875 312.816406 576.5625 C 313.984375 575.9375 315.167969 575.34375 316.367188 574.777344 C 317.566406 574.210938 318.777344 573.671875 320.003906 573.164062 C 321.226562 572.660156 322.464844 572.179688 323.710938 571.734375 C 324.960938 571.289062 326.21875 570.871094 327.488281 570.488281 C 328.753906 570.101562 330.03125 569.75 331.320312 569.425781 C 332.605469 569.105469 333.898438 568.816406 335.199219 568.554688 C 336.496094 568.296875 337.804688 568.070312 339.113281 567.875 C 340.425781 567.683594 341.742188 567.519531 343.0625 567.390625 C 344.378906 567.261719 345.703125 567.164062 347.027344 567.097656 C 348.347656 567.03125 349.675781 567 351 567 C 352.324219 567 353.652344 567.03125 354.972656 567.097656 C 356.296875 567.164062 357.621094 567.261719 358.9375 567.390625 C 360.257812 567.519531 361.574219 567.683594 362.886719 567.875 C 364.195312 568.070312 365.503906 568.296875 366.800781 568.554688 C 368.101562 568.816406 369.394531 569.105469 370.679688 569.425781 C 371.96875 569.75 373.246094 570.101562 374.511719 570.488281 C 375.78125 570.871094 377.039062 571.289062 378.289062 571.734375 C 379.535156 572.179688 380.773438 572.660156 381.996094 573.164062 C 383.222656 573.671875 384.433594 574.210938 385.632812 574.777344 C 386.832031 575.34375 388.015625 575.9375 389.183594 576.5625 C 390.351562 577.1875 391.503906 577.84375 392.640625 578.523438 C 393.78125 579.207031 394.898438 579.914062 396 580.652344 C 397.101562 581.386719 398.1875 582.148438 399.25 582.941406 C 400.316406 583.730469 401.359375 584.546875 402.386719 585.386719 C 403.410156 586.226562 404.414062 587.09375 405.394531 587.984375 C 406.378906 588.875 407.339844 589.785156 408.277344 590.722656 C 409.214844 591.660156 410.125 592.621094 411.015625 593.605469 C 411.90625 594.585938 412.773438 595.589844 413.613281 596.613281 C 414.453125 597.640625 415.269531 598.683594 416.058594 599.75 C 416.847656 600.8125 417.613281 601.898438 418.347656 603 C 419.085938 604.101562 419.792969 605.21875 420.476562 606.359375 C 421.15625 607.496094 421.8125 608.648438 422.4375 609.816406 C 423.058594 610.984375 423.65625 612.167969 424.222656 613.367188 C 424.789062 614.566406 425.328125 615.777344 425.835938 617.003906 C 426.339844 618.226562 426.820312 619.464844 427.265625 620.710938 C 427.710938 621.960938 428.128906 623.21875 428.511719 624.488281 C 428.898438 625.753906 429.25 627.03125 429.574219 628.320312 C 429.894531 629.605469 430.183594 630.898438 430.445312 632.199219 C 430.703125 633.496094 430.929688 634.804688 431.125 636.113281 C 431.316406 637.425781 431.480469 638.742188 431.609375 640.0625 C 431.738281 641.378906 431.835938 642.703125 431.902344 644.027344 C 431.96875 645.347656 432 646.675781 432 648 Z M 432 648 " fill-opacity="1" fill-rule="nonzero"/><path fill="#61c5fa" d="M 621 594 L 621 648 L 81 648 L 81 594 C 83.019531 592.992188 84.996094 591.910156 86.941406 590.765625 C 88.882812 589.617188 90.785156 588.40625 92.644531 587.128906 C 94.503906 585.847656 96.316406 584.507812 98.082031 583.105469 C 99.847656 581.699219 101.5625 580.238281 103.226562 578.714844 C 104.894531 577.191406 106.503906 575.613281 108.058594 573.976562 C 109.613281 572.34375 111.109375 570.65625 112.550781 568.917969 C 113.988281 567.183594 115.363281 565.394531 116.679688 563.5625 C 117.996094 561.730469 119.246094 559.851562 120.429688 557.933594 C 121.617188 556.011719 122.734375 554.054688 123.78125 552.058594 C 124.832031 550.058594 125.8125 548.027344 126.71875 545.964844 C 127.628906 543.898438 128.464844 541.804688 129.230469 539.683594 C 129.992188 537.558594 130.683594 535.414062 131.296875 533.242188 C 131.914062 531.070312 132.453125 528.882812 132.914062 526.671875 C 133.378906 524.464844 133.765625 522.242188 134.074219 520.007812 C 134.382812 517.773438 134.617188 515.53125 134.769531 513.28125 C 134.925781 511.03125 135 508.777344 135 506.519531 L 135 405 C 135 401.464844 135.085938 397.933594 135.261719 394.402344 C 135.433594 390.871094 135.695312 387.347656 136.039062 383.828125 C 136.386719 380.308594 136.820312 376.804688 137.335938 373.304688 C 137.855469 369.808594 138.460938 366.328125 139.148438 362.859375 C 139.839844 359.394531 140.613281 355.945312 141.472656 352.515625 C 142.332031 349.085938 143.273438 345.679688 144.300781 342.296875 C 145.328125 338.914062 146.4375 335.558594 147.625 332.230469 C 148.816406 328.902344 150.089844 325.605469 151.441406 322.339844 C 152.792969 319.074219 154.226562 315.84375 155.738281 312.648438 C 157.25 309.453125 158.839844 306.296875 160.503906 303.179688 C 162.171875 300.0625 163.914062 296.984375 165.730469 293.953125 C 167.546875 290.921875 169.4375 287.9375 171.402344 284.996094 C 173.367188 282.058594 175.402344 279.167969 177.507812 276.328125 C 179.613281 273.488281 181.789062 270.703125 184.03125 267.972656 C 186.273438 265.238281 188.582031 262.5625 190.953125 259.941406 C 193.328125 257.324219 195.765625 254.765625 198.265625 252.265625 C 200.765625 249.765625 203.324219 247.328125 205.941406 244.953125 C 208.5625 242.582031 211.238281 240.273438 213.972656 238.03125 C 216.703125 235.789062 219.488281 233.613281 222.328125 231.507812 C 225.167969 229.402344 228.058594 227.367188 230.996094 225.402344 C 233.9375 223.4375 236.921875 221.546875 239.953125 219.730469 C 242.984375 217.914062 246.0625 216.171875 249.179688 214.503906 C 252.296875 212.839844 255.453125 211.25 258.648438 209.738281 C 261.84375 208.226562 265.074219 206.792969 268.339844 205.441406 C 271.605469 204.089844 274.902344 202.816406 278.230469 201.625 C 281.558594 200.4375 284.914062 199.328125 288.296875 198.300781 C 291.679688 197.273438 295.085938 196.332031 298.515625 195.472656 C 301.945312 194.613281 305.394531 193.839844 308.859375 193.148438 C 312.328125 192.460938 315.808594 191.855469 319.304688 191.335938 C 322.804688 190.820312 326.308594 190.386719 329.828125 190.039062 C 333.347656 189.695312 336.871094 189.433594 340.402344 189.261719 C 343.933594 189.085938 347.464844 189 351 189 C 354.535156 189 358.066406 189.085938 361.597656 189.261719 C 365.128906 189.433594 368.652344 189.695312 372.171875 190.039062 C 375.691406 190.386719 379.195312 190.820312 382.695312 191.335938 C 386.191406 191.855469 389.671875 192.460938 393.140625 193.148438 C 396.605469 193.839844 400.054688 194.613281 403.484375 195.472656 C 406.914062 196.332031 410.320312 197.273438 413.703125 198.300781 C 417.085938 199.328125 420.441406 200.4375 423.769531 201.625 C 427.097656 202.816406 430.394531 204.089844 433.660156 205.441406 C 436.925781 206.792969 440.15625 208.226562 443.351562 209.738281 C 446.546875 211.25 449.703125 212.839844 452.820312 214.503906 C 455.9375 216.171875 459.015625 217.914062 462.046875 219.730469 C 465.078125 221.546875 468.0625 223.4375 471.003906 225.402344 C 473.941406 227.367188 476.832031 229.402344 479.671875 231.507812 C 482.511719 233.613281 485.296875 235.789062 488.027344 238.03125 C 490.761719 240.273438 493.4375 242.582031 496.058594 244.953125 C 498.675781 247.328125 501.234375 249.765625 503.734375 252.265625 C 506.234375 254.765625 508.671875 257.324219 511.046875 259.941406 C 513.417969 262.5625 515.726562 265.238281 517.96875 267.972656 C 520.210938 270.703125 522.386719 273.488281 524.492188 276.328125 C 526.597656 279.167969 528.632812 282.058594 530.597656 284.996094 C 532.5625 287.9375 534.453125 290.921875 536.269531 293.953125 C 538.085938 296.984375 539.828125 300.0625 541.496094 303.179688 C 543.160156 306.296875 544.75 309.453125 546.261719 312.648438 C 547.773438 315.84375 549.207031 319.074219 550.558594 322.339844 C 551.910156 325.605469 553.183594 328.902344 554.375 332.230469 C 555.5625 335.558594 556.671875 338.914062 557.699219 342.296875 C 558.726562 345.679688 559.667969 349.085938 560.527344 352.515625 C 561.386719 355.945312 562.160156 359.394531 562.847656 362.859375 C 563.539062 366.328125 564.144531 369.808594 564.660156 373.304688 C 565.179688 376.804688 565.613281 380.308594 565.960938 383.828125 C 566.304688 387.347656 566.566406 390.871094 566.738281 394.402344 C 566.914062 397.933594 567 401.464844 567 405 L 567 506.519531 C 567 508.777344 567.074219 511.03125 567.230469 513.28125 C 567.382812 515.53125 567.617188 517.773438 567.925781 520.007812 C 568.234375 522.242188 568.621094 524.464844 569.085938 526.671875 C 569.546875 528.882812 570.085938 531.070312 570.703125 533.242188 C 571.316406 535.414062 572.007812 537.558594 572.769531 539.683594 C 573.535156 541.804688 574.371094 543.898438 575.28125 545.964844 C 576.1875 548.027344 577.167969 550.058594 578.21875 552.058594 C 579.265625 554.054688 580.382812 556.011719 581.570312 557.933594 C 582.753906 559.851562 584.003906 561.730469 585.320312 563.5625 C 586.632812 565.394531 588.011719 567.183594 589.449219 568.917969 C 590.890625 570.65625 592.386719 572.34375 593.941406 573.976562 C 595.496094 575.613281 597.105469 577.191406 598.773438 578.714844 C 600.4375 580.238281 602.152344 581.699219 603.917969 583.105469 C 605.683594 584.507812 607.496094 585.847656 609.355469 587.128906 C 611.214844 588.40625 613.117188 589.617188 615.058594 590.765625 C 617.003906 591.910156 618.980469 592.992188 621 594 Z M 621 594 " fill-opacity="1" fill-rule="nonzero"/><path fill="#6dedd4" d="M 729 270 C 729 273.09375 728.925781 276.183594 728.773438 279.273438 C 728.621094 282.363281 728.394531 285.445312 728.089844 288.523438 C 727.785156 291.601562 727.40625 294.671875 726.953125 297.730469 C 726.5 300.792969 725.972656 303.839844 725.367188 306.871094 C 724.765625 309.90625 724.085938 312.921875 723.335938 315.921875 C 722.585938 318.921875 721.757812 321.902344 720.863281 324.863281 C 719.964844 327.824219 718.992188 330.761719 717.953125 333.671875 C 716.910156 336.585938 715.796875 339.46875 714.613281 342.328125 C 713.429688 345.183594 712.175781 348.011719 710.855469 350.808594 C 709.53125 353.605469 708.140625 356.367188 706.683594 359.09375 C 705.226562 361.820312 703.699219 364.511719 702.109375 367.164062 C 700.519531 369.820312 698.867188 372.429688 697.148438 375.003906 C 695.429688 377.574219 693.648438 380.101562 691.804688 382.585938 C 689.964844 385.070312 688.0625 387.507812 686.097656 389.898438 C 684.136719 392.292969 682.117188 394.632812 680.039062 396.925781 C 677.960938 399.214844 675.832031 401.457031 673.644531 403.644531 C 671.457031 405.832031 669.214844 407.960938 666.925781 410.039062 C 664.632812 412.117188 662.292969 414.136719 659.898438 416.097656 C 657.507812 418.0625 655.070312 419.964844 652.585938 421.804688 C 650.101562 423.648438 647.574219 425.429688 645.003906 427.148438 C 642.429688 428.867188 639.820312 430.519531 637.164062 432.109375 C 634.511719 433.699219 631.820312 435.226562 629.09375 436.683594 C 626.367188 438.140625 623.605469 439.53125 620.808594 440.855469 C 618.011719 442.175781 615.183594 443.429688 612.328125 444.613281 C 609.46875 445.796875 606.585938 446.910156 603.671875 447.953125 C 600.761719 448.992188 597.824219 449.964844 594.863281 450.863281 C 591.902344 451.757812 588.921875 452.585938 585.921875 453.335938 C 582.921875 454.085938 579.90625 454.765625 576.871094 455.367188 C 573.839844 455.972656 570.792969 456.5 567.730469 456.953125 C 564.671875 457.40625 561.601562 457.785156 558.523438 458.089844 C 555.445312 458.394531 552.363281 458.621094 549.273438 458.773438 C 546.183594 458.925781 543.09375 459 540 459 C 536.90625 459 533.816406 458.925781 530.726562 458.773438 C 527.636719 458.621094 524.554688 458.394531 521.476562 458.089844 C 518.398438 457.785156 515.328125 457.40625 512.269531 456.953125 C 509.207031 456.5 506.160156 455.972656 503.128906 455.367188 C 500.09375 454.765625 497.078125 454.085938 494.078125 453.335938 C 491.078125 452.585938 488.097656 451.757812 485.136719 450.863281 C 482.175781 449.964844 479.238281 448.992188 476.328125 447.953125 C 473.414062 446.910156 470.53125 445.796875 467.671875 444.613281 C 464.816406 443.429688 461.988281 442.175781 459.191406 440.855469 C 456.394531 439.53125 453.632812 438.140625 450.90625 436.683594 C 448.179688 435.226562 445.488281 433.699219 442.835938 432.109375 C 440.179688 430.519531 437.570312 428.867188 434.996094 427.148438 C 432.425781 425.429688 429.898438 423.648438 427.414062 421.804688 C 424.929688 419.964844 422.492188 418.0625 420.101562 416.097656 C 417.707031 414.136719 415.367188 412.117188 413.074219 410.039062 C 410.785156 407.960938 408.542969 405.832031 406.355469 403.644531 C 404.167969 401.457031 402.039062 399.214844 399.960938 396.925781 C 397.882812 394.632812 395.863281 392.292969 393.902344 389.898438 C 391.9375 387.507812 390.035156 385.070312 388.195312 382.585938 C 386.351562 380.101562 384.570312 377.574219 382.851562 375.003906 C 381.132812 372.429688 379.480469 369.820312 377.890625 367.164062 C 376.300781 364.511719 374.773438 361.820312 373.316406 359.09375 C 371.859375 356.367188 370.46875 353.605469 369.144531 350.808594 C 367.824219 348.011719 366.570312 345.183594 365.386719 342.328125 C 364.203125 339.46875 363.089844 336.585938 362.046875 333.671875 C 361.007812 330.761719 360.035156 327.824219 359.136719 324.863281 C 358.242188 321.902344 357.414062 318.921875 356.664062 315.921875 C 355.914062 312.921875 355.234375 309.90625 354.632812 306.871094 C 354.027344 303.839844 353.5 300.792969 353.046875 297.730469 C 352.589844 294.671875 352.214844 291.601562 351.910156 288.523438 C 351.605469 285.445312 351.378906 282.363281 351.226562 279.273438 C 351.074219 276.183594 351 273.09375 351 270 C 351 266.90625 351.074219 263.816406 351.226562 260.726562 C 351.378906 257.636719 351.605469 254.554688 351.910156 251.476562 C 352.214844 248.398438 352.589844 245.328125 353.046875 242.269531 C 353.5 239.207031 354.027344 236.160156 354.632812 233.128906 C 355.234375 230.09375 355.914062 227.078125 356.664062 224.078125 C 357.414062 221.078125 358.242188 218.097656 359.136719 215.136719 C 360.035156 212.175781 361.007812 209.238281 362.046875 206.328125 C 363.089844 203.414062 364.203125 200.53125 365.386719 197.671875 C 366.570312 194.816406 367.824219 191.988281 369.144531 189.191406 C 370.46875 186.394531 371.859375 183.632812 373.316406 180.90625 C 374.773438 178.179688 376.300781 175.488281 377.890625 172.835938 C 379.480469 170.179688 381.132812 167.570312 382.851562 164.996094 C 384.570312 162.425781 386.351562 159.898438 388.195312 157.414062 C 390.035156 154.929688 391.9375 152.492188 393.902344 150.101562 C 395.863281 147.707031 397.882812 145.367188 399.960938 143.074219 C 402.039062 140.785156 404.167969 138.542969 406.355469 136.355469 C 408.542969 134.167969 410.785156 132.039062 413.074219 129.960938 C 415.367188 127.882812 417.707031 125.863281 420.101562 123.902344 C 422.492188 121.9375 424.929688 120.035156 427.414062 118.195312 C 429.898438 116.351562 432.425781 114.570312 434.996094 112.851562 C 437.570312 111.132812 440.179688 109.480469 442.835938 107.890625 C 445.488281 106.300781 448.179688 104.773438 450.90625 103.316406 C 453.632812 101.859375 456.394531 100.46875 459.191406 99.144531 C 461.988281 97.824219 464.816406 96.570312 467.671875 95.386719 C 470.53125 94.203125 473.414062 93.089844 476.328125 92.046875 C 479.238281 91.007812 482.175781 90.035156 485.136719 89.136719 C 488.097656 88.242188 491.078125 87.414062 494.078125 86.664062 C 497.078125 85.914062 500.09375 85.234375 503.128906 84.632812 C 506.160156 84.027344 509.207031 83.5 512.269531 83.046875 C 515.328125 82.59375 518.398438 82.214844 521.476562 81.910156 C 524.554688 81.605469 527.636719 81.378906 530.726562 81.226562 C 533.816406 81.074219 536.90625 81 540 81 C 543.09375 81 546.183594 81.074219 549.273438 81.226562 C 552.363281 81.378906 555.445312 81.605469 558.523438 81.910156 C 561.601562 82.214844 564.671875 82.59375 567.730469 83.046875 C 570.792969 83.5 573.839844 84.027344 576.871094 84.632812 C 579.90625 85.234375 582.921875 85.914062 585.921875 86.664062 C 588.921875 87.414062 591.902344 88.242188 594.863281 89.136719 C 597.824219 90.035156 600.761719 91.007812 603.671875 92.046875 C 606.585938 93.089844 609.46875 94.203125 612.328125 95.386719 C 615.183594 96.570312 618.011719 97.824219 620.808594 99.144531 C 623.605469 100.46875 626.367188 101.859375 629.09375 103.316406 C 631.820312 104.773438 634.511719 106.300781 637.164062 107.890625 C 639.820312 109.480469 642.429688 111.132812 645.003906 112.851562 C 647.574219 114.570312 650.101562 116.351562 652.585938 118.195312 C 655.070312 120.035156 657.507812 121.9375 659.898438 123.902344 C 662.292969 125.863281 664.632812 127.882812 666.925781 129.960938 C 669.214844 132.039062 671.457031 134.167969 673.644531 136.355469 C 675.832031 138.542969 677.960938 140.785156 680.039062 143.074219 C 682.117188 145.367188 684.136719 147.707031 686.097656 150.101562 C 688.0625 152.492188 689.964844 154.929688 691.804688 157.414062 C 693.648438 159.898438 695.429688 162.425781 697.148438 164.996094 C 698.867188 167.570312 700.519531 170.179688 702.109375 172.835938 C 703.699219 175.488281 705.226562 178.179688 706.683594 180.90625 C 708.140625 183.632812 709.53125 186.394531 710.855469 189.191406 C 712.175781 191.988281 713.429688 194.816406 714.613281 197.671875 C 715.796875 200.53125 716.910156 203.414062 717.953125 206.328125 C 718.992188 209.238281 719.964844 212.175781 720.863281 215.136719 C 721.757812 218.097656 722.585938 221.078125 723.335938 224.078125 C 724.085938 227.078125 724.765625 230.09375 725.367188 233.128906 C 725.972656 236.160156 726.5 239.207031 726.953125 242.269531 C 727.40625 245.328125 727.785156 248.398438 728.089844 251.476562 C 728.394531 254.554688 728.621094 257.636719 728.773438 260.726562 C 728.925781 263.816406 729 266.90625 729 270 Z M 729 270 " fill-opacity="1" fill-rule="nonzero"/><path fill="#ffffff" d="M 439.96875 331.832031 L 602.058594 169.742188 L 640.242188 207.925781 L 478.152344 370.015625 Z M 439.96875 331.832031 " fill-opacity="1" fill-rule="nonzero"/><path fill="#ffffff" d="M 432 162 L 486 162 L 486 216 L 432 216 Z M 432 162 " fill-opacity="1" fill-rule="nonzero"/><path fill="#ffffff" d="M 594 324 L 648 324 L 648 378 L 594 378 Z M 594 324 " fill-opacity="1" fill-rule="nonzero"/></svg>