<svg xmlns="http://www.w3.org/2000/svg" xmlns:xlink="http://www.w3.org/1999/xlink" width="1080" zoomAndPan="magnify" viewBox="0 0 810 809.999993" height="1080" preserveAspectRatio="xMidYMid meet" version="1.0"><path fill="#ffcc80" d="M 297 306.179688 C 283.230469 306.179688 273.511719 306.179688 271.351562 306.449219 L 243 328.050781 L 215.191406 349.109375 C 164.96875 387.179688 135 447.390625 135 510.300781 L 135 715.5 C 135 721.171875 138.238281 726.03125 143.101562 727.921875 C 144.71875 728.730469 146.609375 729 148.5 729 L 364.5 729 C 372.058594 729 378 723.058594 378 715.5 L 378 673.921875 C 407.160156 669.058594 431.191406 648.539062 440.910156 621 C 443.878906 612.628906 445.5 603.449219 445.5 594 L 445.5 306.71875 C 445.5 306.71875 351.539062 306.179688 297 306.179688 Z M 297 306.179688 " fill-opacity="1" fill-rule="nonzero"/><path fill="#ffa726" d="M 445.5 526.5 L 445.5 594 C 445.5 603.449219 443.878906 612.628906 440.910156 621 C 431.191406 648.539062 407.160156 669.058594 378 673.921875 L 378 715.5 C 378 723.058594 372.058594 729 364.5 729 L 162 729 L 162 526.5 Z M 445.5 526.5 " fill-opacity="1" fill-rule="nonzero"/><path fill="#ffa726" d="M 297 351.433594 L 254.285156 393.929688 C 229.769531 418.3125 215.839844 451.414062 215.566406 486 L 297 486 Z M 297 351.433594 " fill-opacity="1" fill-rule="nonzero"/><path fill="#cfd8dc" d="M 600.75 594 L 553.5 594 C 545.832031 594 538.8125 589.652344 535.382812 582.796875 L 532.546875 577.097656 C 521.101562 554.203125 498.097656 540 472.5 540 C 446.902344 540 423.898438 554.230469 412.453125 577.125 L 409.617188 582.820312 C 406.1875 589.652344 399.167969 594 391.5 594 L 344.25 594 C 303.289062 594 270 560.710938 270 519.75 L 270 155.25 C 270 114.289062 303.289062 81 344.25 81 L 391.5 81 C 399.167969 81 406.160156 85.320312 409.589844 92.179688 L 412.453125 97.875 C 423.898438 120.796875 446.902344 135 472.5 135 C 498.097656 135 521.101562 120.769531 532.546875 97.875 L 535.410156 92.179688 C 538.839844 85.320312 545.832031 81 553.5 81 L 600.75 81 C 641.707031 81 675 114.289062 675 155.25 L 675 519.75 C 675 560.710938 641.707031 594 600.75 594 Z M 600.75 594 " fill-opacity="1" fill-rule="nonzero"/><path fill="#004aad" d="M 337.5 297 L 297 297 C 282.097656 297 270 284.902344 270 270 C 270 255.097656 282.097656 243 297 243 L 337.5 243 C 352.402344 243 364.5 255.097656 364.5 270 C 364.5 284.902344 352.402344 297 337.5 297 Z M 337.5 297 " fill-opacity="1" fill-rule="nonzero"/><path fill="#004aad" d="M 509.300781 297 L 435.671875 297 C 420.769531 297 408.671875 284.902344 408.671875 270 C 408.671875 255.097656 420.769531 243 435.671875 243 L 509.300781 243 C 524.203125 243 536.300781 255.097656 536.300781 270 C 536.300781 284.902344 524.230469 297 509.300781 297 Z M 509.300781 297 " fill-opacity="1" fill-rule="nonzero"/><path fill="#004aad" d="M 648 297 L 607.5 297 C 592.597656 297 580.5 284.902344 580.5 270 C 580.5 255.097656 592.597656 243 607.5 243 L 648 243 C 662.902344 243 675 255.097656 675 270 C 675 284.902344 662.902344 297 648 297 Z M 648 297 " fill-opacity="1" fill-rule="nonzero"/><path fill="#ffcc80" d="M 386.640625 423.359375 L 337.5 472.5 C 343.980469 485.730469 347.21875 499.769531 347.21875 513.808594 C 347.21875 535.140625 339.929688 555.929688 325.621094 572.941406 L 283.5 623.429688 L 283.5 729 L 148.5 729 C 146.609375 729 144.71875 728.730469 143.101562 727.921875 C 138.238281 726.03125 135 721.171875 135 715.5 L 135 548.371094 L 368.011719 332.371094 C 373.410156 327.511719 381.511719 327.511719 386.640625 332.640625 C 399.328125 345.058594 405.539062 361.53125 405.539062 378 C 405.539062 394.46875 399.328125 410.941406 386.640625 423.359375 Z M 386.640625 423.359375 " fill-opacity="1" fill-rule="nonzero"/></svg>