<svg xmlns="http://www.w3.org/2000/svg" xmlns:xlink="http://www.w3.org/1999/xlink" width="1080" zoomAndPan="magnify" viewBox="0 0 810 809.999993" height="1080" preserveAspectRatio="xMidYMid meet" version="1.0"><path fill="#cddfe8" d="M 729 192.722656 L 729 684.308594 C 729 709 709 729 684.308594 729 L 125.691406 729 C 101 729 81 709 81 684.308594 L 81 192.722656 L 92.171875 170.378906 L 717.828125 170.378906 Z M 729 192.722656 " fill-opacity="1" fill-rule="nonzero"/><path fill="#304a5e" d="M 729 125.691406 L 729 192.722656 L 81 192.722656 L 81 125.691406 C 81 101 101 81 125.691406 81 L 684.308594 81 C 709 81 729 101 729 125.691406 Z M 729 125.691406 " fill-opacity="1" fill-rule="nonzero"/><path fill="#ffffff" d="M 583.757812 371.484375 L 583.757812 650.792969 C 583.757812 663.082031 573.703125 673.136719 561.414062 673.136719 L 248.585938 673.136719 C 236.296875 673.136719 226.242188 663.082031 226.242188 650.792969 L 226.242188 371.484375 Z M 583.757812 371.484375 " fill-opacity="1" fill-rule="nonzero"/><path fill="#825043" d="M 371.484375 673.136719 L 371.484375 494.378906 C 371.484375 482.035156 361.484375 472.035156 349.136719 472.035156 L 293.277344 472.035156 C 280.929688 472.035156 270.929688 482.035156 270.929688 494.378906 L 270.929688 673.136719 Z M 371.484375 673.136719 " fill-opacity="1" fill-rule="nonzero"/><path fill="#68a4fc" d="M 438.515625 472.035156 L 516.722656 472.035156 C 517.457031 472.035156 518.1875 472.070312 518.914062 472.140625 C 519.644531 472.214844 520.367188 472.320312 521.082031 472.464844 C 521.800781 472.605469 522.511719 472.785156 523.210938 472.996094 C 523.910156 473.210938 524.597656 473.457031 525.273438 473.734375 C 525.953125 474.015625 526.613281 474.328125 527.257812 474.671875 C 527.902344 475.019531 528.53125 475.394531 529.136719 475.800781 C 529.746094 476.207031 530.332031 476.640625 530.898438 477.105469 C 531.464844 477.570312 532.007812 478.0625 532.523438 478.578125 C 533.042969 479.097656 533.53125 479.636719 533.996094 480.203125 C 534.460938 480.769531 534.898438 481.355469 535.304688 481.964844 C 535.710938 482.574219 536.085938 483.199219 536.429688 483.847656 C 536.777344 484.492188 537.089844 485.152344 537.367188 485.828125 C 537.648438 486.503906 537.894531 487.191406 538.105469 487.894531 C 538.320312 488.59375 538.496094 489.300781 538.640625 490.019531 C 538.78125 490.738281 538.890625 491.460938 538.960938 492.1875 C 539.03125 492.917969 539.070312 493.648438 539.070312 494.378906 L 539.070312 561.414062 C 539.070312 562.144531 539.03125 562.875 538.960938 563.605469 C 538.890625 564.332031 538.78125 565.054688 538.640625 565.773438 C 538.496094 566.492188 538.320312 567.199219 538.105469 567.898438 C 537.894531 568.601562 537.648438 569.289062 537.367188 569.964844 C 537.089844 570.640625 536.777344 571.300781 536.429688 571.945312 C 536.085938 572.59375 535.710938 573.21875 535.304688 573.828125 C 534.898438 574.4375 534.460938 575.023438 533.996094 575.589844 C 533.53125 576.15625 533.042969 576.695312 532.523438 577.214844 C 532.007812 577.730469 531.464844 578.222656 530.898438 578.6875 C 530.332031 579.152344 529.746094 579.585938 529.136719 579.992188 C 528.53125 580.398438 527.902344 580.773438 527.257812 581.121094 C 526.613281 581.464844 525.953125 581.777344 525.273438 582.058594 C 524.597656 582.335938 523.910156 582.582031 523.210938 582.796875 C 522.511719 583.007812 521.800781 583.1875 521.082031 583.328125 C 520.367188 583.472656 519.644531 583.578125 518.914062 583.652344 C 518.1875 583.722656 517.457031 583.757812 516.722656 583.757812 L 438.515625 583.757812 C 437.785156 583.757812 437.054688 583.722656 436.328125 583.652344 C 435.597656 583.578125 434.875 583.472656 434.15625 583.328125 C 433.441406 583.1875 432.730469 583.007812 432.03125 582.796875 C 431.332031 582.582031 430.640625 582.335938 429.964844 582.058594 C 429.289062 581.777344 428.628906 581.464844 427.984375 581.121094 C 427.339844 580.773438 426.710938 580.398438 426.101562 579.992188 C 425.496094 579.585938 424.90625 579.152344 424.34375 578.6875 C 423.777344 578.222656 423.234375 577.730469 422.71875 577.214844 C 422.199219 576.695312 421.707031 576.15625 421.246094 575.589844 C 420.78125 575.023438 420.34375 574.4375 419.9375 573.828125 C 419.53125 573.21875 419.15625 572.59375 418.8125 571.945312 C 418.464844 571.300781 418.152344 570.640625 417.875 569.964844 C 417.59375 569.289062 417.347656 568.601562 417.132812 567.898438 C 416.921875 567.199219 416.746094 566.492188 416.601562 565.773438 C 416.457031 565.054688 416.351562 564.332031 416.28125 563.605469 C 416.207031 562.875 416.171875 562.144531 416.171875 561.414062 L 416.171875 494.378906 C 416.171875 493.648438 416.207031 492.917969 416.28125 492.1875 C 416.351562 491.460938 416.457031 490.738281 416.601562 490.019531 C 416.746094 489.300781 416.921875 488.59375 417.132812 487.894531 C 417.347656 487.191406 417.59375 486.503906 417.875 485.828125 C 418.152344 485.152344 418.464844 484.492188 418.8125 483.847656 C 419.15625 483.199219 419.53125 482.574219 419.9375 481.964844 C 420.34375 481.355469 420.78125 480.769531 421.246094 480.203125 C 421.707031 479.636719 422.199219 479.097656 422.71875 478.578125 C 423.234375 478.0625 423.777344 477.570312 424.339844 477.105469 C 424.90625 476.640625 425.496094 476.207031 426.101562 475.800781 C 426.710938 475.394531 427.339844 475.019531 427.984375 474.671875 C 428.628906 474.328125 429.289062 474.015625 429.964844 473.734375 C 430.640625 473.457031 431.332031 473.210938 432.03125 472.996094 C 432.730469 472.785156 433.441406 472.605469 434.15625 472.464844 C 434.875 472.320312 435.597656 472.214844 436.328125 472.140625 C 437.054688 472.070312 437.785156 472.035156 438.515625 472.035156 Z M 438.515625 472.035156 " fill-opacity="1" fill-rule="nonzero"/><path fill="#b24b46" d="M 606.101562 326.792969 L 594.929688 349.136719 L 215.070312 349.136719 L 203.898438 326.792969 L 253.054688 257.972656 C 257.300781 252.050781 264.003906 248.585938 271.265625 248.585938 L 538.734375 248.585938 C 545.996094 248.585938 552.699219 252.050781 556.945312 257.972656 Z M 606.101562 326.792969 " fill-opacity="1" fill-rule="nonzero"/><path fill="#d35b4f" d="M 606.101562 326.792969 L 606.101562 356.734375 C 606.101562 385.894531 584.988281 411.367188 556.164062 415.054688 C 550.6875 415.835938 544.992188 416.171875 539.070312 416.171875 C 510.578125 416.171875 485.664062 407.457031 472.035156 394.386719 C 458.402344 407.457031 433.488281 416.171875 405 416.171875 C 376.511719 416.171875 351.597656 407.457031 337.964844 394.386719 C 324.335938 407.457031 299.421875 416.171875 270.929688 416.171875 C 265.007812 416.171875 259.3125 415.835938 253.835938 415.054688 C 225.011719 411.367188 203.898438 385.894531 203.898438 356.734375 L 203.898438 326.792969 Z M 606.101562 326.792969 " fill-opacity="1" fill-rule="nonzero"/><path fill="#d35b4f" d="M 148.035156 148.035156 L 136.863281 148.035156 C 130.683594 148.035156 125.691406 143.039062 125.691406 136.863281 C 125.691406 130.683594 130.683594 125.691406 136.863281 125.691406 L 148.035156 125.691406 C 154.210938 125.691406 159.207031 130.683594 159.207031 136.863281 C 159.207031 143.039062 154.210938 148.035156 148.035156 148.035156 Z M 148.035156 148.035156 " fill-opacity="1" fill-rule="nonzero"/><path fill="#ffc55f" d="M 203.898438 148.035156 L 192.722656 148.035156 C 186.546875 148.035156 181.550781 143.039062 181.550781 136.863281 C 181.550781 130.683594 186.546875 125.691406 192.722656 125.691406 L 203.898438 125.691406 C 210.074219 125.691406 215.070312 130.683594 215.070312 136.863281 C 215.070312 143.039062 210.074219 148.035156 203.898438 148.035156 Z M 203.898438 148.035156 " fill-opacity="1" fill-rule="nonzero"/><path fill="#96c16c" d="M 259.757812 148.035156 L 248.585938 148.035156 C 242.40625 148.035156 237.414062 143.039062 237.414062 136.863281 C 237.414062 130.683594 242.40625 125.691406 248.585938 125.691406 L 259.757812 125.691406 C 265.9375 125.691406 270.929688 130.683594 270.929688 136.863281 C 270.929688 143.039062 265.9375 148.035156 259.757812 148.035156 Z M 259.757812 148.035156 " fill-opacity="1" fill-rule="nonzero"/><path fill="#1f303a" d="M 661.964844 148.035156 L 550.242188 148.035156 C 544.0625 148.035156 539.070312 143.039062 539.070312 136.863281 C 539.070312 130.683594 544.0625 125.691406 550.242188 125.691406 L 661.964844 125.691406 C 668.144531 125.691406 673.136719 130.683594 673.136719 136.863281 C 673.136719 143.039062 668.144531 148.035156 661.964844 148.035156 Z M 661.964844 148.035156 " fill-opacity="1" fill-rule="nonzero"/></svg>