<svg xmlns="http://www.w3.org/2000/svg" xmlns:xlink="http://www.w3.org/1999/xlink" width="1080" zoomAndPan="magnify" viewBox="0 0 810 809.999993" height="1080" preserveAspectRatio="xMidYMid meet" version="1.0"><path fill="#89d15d" d="M 612.816406 492.273438 L 645.546875 492.273438 C 657.519531 492.273438 667.363281 502.117188 667.363281 514.089844 L 667.363281 645 C 667.363281 657.015625 657.519531 666.816406 645.546875 666.816406 L 274.636719 666.816406 L 274.636719 696.816406 C 274.636719 717.871094 249.535156 729.121094 233.515625 715.269531 L 97.703125 597.996094 C 86.328125 588.152344 86.328125 570.9375 97.703125 561.09375 L 198.273438 474.289062 L 612.816406 492.273438 " fill-opacity="1" fill-rule="nonzero"/><path fill="#89d15d" d="M 612.816406 335.710938 L 713.386719 248.90625 C 724.765625 239.0625 724.765625 221.847656 713.386719 212.003906 L 577.578125 94.730469 C 561.554688 80.878906 536.453125 92.128906 536.453125 113.183594 L 536.453125 143.183594 L 165.546875 143.183594 C 153.527344 143.183594 143.726562 153.027344 143.726562 165 L 143.726562 295.910156 C 143.726562 307.882812 153.527344 317.726562 165.546875 317.726562 L 198.273438 317.726562 L 612.816406 335.710938 " fill-opacity="1" fill-rule="nonzero"/><path fill="#0753b4" d="M 569.183594 612.273438 L 241.910156 612.273438 C 217.789062 612.273438 198.273438 592.753906 198.273438 568.636719 L 198.273438 241.363281 C 198.273438 217.246094 217.789062 197.726562 241.910156 197.726562 L 569.183594 197.726562 C 593.300781 197.726562 612.816406 217.246094 612.816406 241.363281 L 612.816406 568.636719 C 612.816406 592.753906 593.300781 612.273438 569.183594 612.273438 " fill-opacity="1" fill-rule="nonzero"/><path fill="#beded9" d="M 285.546875 383.183594 L 285.546875 525 L 329.183594 525 L 329.183594 383.183594 L 285.546875 383.183594 " fill-opacity="1" fill-rule="nonzero"/><path fill="#beded9" d="M 383.726562 383.183594 L 383.726562 525 L 427.363281 525 L 427.363281 383.183594 L 383.726562 383.183594 " fill-opacity="1" fill-rule="nonzero"/><path fill="#beded9" d="M 481.910156 383.183594 L 481.910156 525 L 525.546875 525 L 525.546875 383.183594 L 481.910156 383.183594 " fill-opacity="1" fill-rule="nonzero"/><path fill="#86afb0" d="M 536.453125 328.636719 L 536.453125 383.183594 C 536.453125 389.191406 531.554688 394.089844 525.546875 394.089844 L 285.546875 394.089844 C 279.535156 394.089844 274.636719 389.191406 274.636719 383.183594 L 274.636719 328.636719 L 536.453125 328.636719 " fill-opacity="1" fill-rule="nonzero"/><path fill="#86afb0" d="M 525.546875 514.089844 L 285.546875 514.089844 C 273.484375 514.089844 263.726562 523.847656 263.726562 535.910156 L 263.726562 546.816406 C 263.726562 552.828125 268.628906 557.726562 274.636719 557.726562 L 536.453125 557.726562 C 542.464844 557.726562 547.363281 552.828125 547.363281 546.816406 L 547.363281 535.910156 C 547.363281 523.847656 537.605469 514.089844 525.546875 514.089844 " fill-opacity="1" fill-rule="nonzero"/><path fill="#beded9" d="M 401.242188 253.378906 L 257.292969 334.132812 C 249.453125 338.523438 252.5625 350.453125 261.597656 350.453125 L 549.496094 350.453125 C 558.527344 350.453125 561.640625 338.523438 553.796875 334.132812 L 409.847656 253.378906 C 407.164062 251.890625 403.925781 251.890625 401.242188 253.378906 " fill-opacity="1" fill-rule="nonzero"/></svg>