<svg xmlns="http://www.w3.org/2000/svg" xmlns:xlink="http://www.w3.org/1999/xlink" width="1080" zoomAndPan="magnify" viewBox="0 0 810 809.999993" height="1080" preserveAspectRatio="xMidYMid meet" version="1.0"><path fill="#6dedd4" d="M 675 459 L 675 243 C 673.230469 243 671.46875 242.914062 669.707031 242.738281 C 667.945312 242.566406 666.199219 242.308594 664.464844 241.960938 C 662.730469 241.617188 661.015625 241.1875 659.324219 240.675781 C 657.632812 240.160156 655.96875 239.566406 654.335938 238.890625 C 652.699219 238.210938 651.105469 237.457031 649.542969 236.625 C 647.984375 235.789062 646.46875 234.882812 645 233.898438 C 643.527344 232.917969 642.109375 231.863281 640.742188 230.742188 C 639.375 229.621094 638.066406 228.433594 636.816406 227.183594 C 635.566406 225.933594 634.378906 224.625 633.257812 223.257812 C 632.136719 221.890625 631.082031 220.472656 630.101562 219 C 629.117188 217.53125 628.210938 216.015625 627.375 214.457031 C 626.542969 212.894531 625.789062 211.300781 625.109375 209.664062 C 624.433594 208.03125 623.839844 206.367188 623.324219 204.675781 C 622.8125 202.984375 622.382812 201.269531 622.039062 199.535156 C 621.691406 197.800781 621.433594 196.054688 621.261719 194.292969 C 621.085938 192.53125 621 190.769531 621 189 L 135 189 C 135 190.769531 134.914062 192.53125 134.738281 194.292969 C 134.566406 196.054688 134.308594 197.800781 133.960938 199.535156 C 133.617188 201.269531 133.1875 202.984375 132.675781 204.675781 C 132.160156 206.367188 131.566406 208.03125 130.890625 209.664062 C 130.210938 211.300781 129.457031 212.894531 128.625 214.457031 C 127.789062 216.015625 126.882812 217.53125 125.898438 219 C 124.917969 220.472656 123.863281 221.890625 122.742188 223.257812 C 121.621094 224.625 120.433594 225.933594 119.183594 227.183594 C 117.933594 228.433594 116.625 229.621094 115.257812 230.742188 C 113.890625 231.863281 112.472656 232.917969 111 233.898438 C 109.53125 234.882812 108.015625 235.789062 106.457031 236.625 C 104.894531 237.457031 103.300781 238.210938 101.664062 238.890625 C 100.03125 239.566406 98.367188 240.160156 96.675781 240.675781 C 94.984375 241.1875 93.269531 241.617188 91.535156 241.960938 C 89.800781 242.308594 88.054688 242.566406 86.292969 242.738281 C 84.53125 242.914062 82.769531 243 81 243 L 81 459 C 82.769531 459 84.53125 459.085938 86.292969 459.261719 C 88.054688 459.433594 89.800781 459.691406 91.535156 460.039062 C 93.269531 460.382812 94.984375 460.8125 96.675781 461.324219 C 98.367188 461.839844 100.03125 462.433594 101.664062 463.109375 C 103.300781 463.789062 104.894531 464.542969 106.457031 465.375 C 108.015625 466.210938 109.53125 467.117188 111 468.101562 C 112.472656 469.082031 113.890625 470.136719 115.257812 471.257812 C 116.625 472.378906 117.933594 473.566406 119.183594 474.816406 C 120.433594 476.066406 121.621094 477.375 122.742188 478.742188 C 123.863281 480.109375 124.917969 481.527344 125.898438 483 C 126.882812 484.46875 127.789062 485.984375 128.625 487.542969 C 129.457031 489.105469 130.210938 490.699219 130.890625 492.335938 C 131.566406 493.96875 132.160156 495.632812 132.675781 497.324219 C 133.1875 499.015625 133.617188 500.730469 133.960938 502.464844 C 134.308594 504.199219 134.566406 505.945312 134.738281 507.707031 C 134.914062 509.46875 135 511.230469 135 513 L 621 513 C 621 511.230469 621.085938 509.46875 621.261719 507.707031 C 621.433594 505.945312 621.691406 504.199219 622.039062 502.464844 C 622.382812 500.730469 622.8125 499.015625 623.324219 497.324219 C 623.839844 495.632812 624.433594 493.96875 625.109375 492.335938 C 625.789062 490.699219 626.542969 489.105469 627.375 487.542969 C 628.210938 485.984375 629.117188 484.46875 630.101562 483 C 631.082031 481.527344 632.136719 480.109375 633.257812 478.742188 C 634.378906 477.375 635.566406 476.066406 636.816406 474.816406 C 638.066406 473.566406 639.375 472.378906 640.742188 471.257812 C 642.109375 470.136719 643.527344 469.082031 645 468.101562 C 646.46875 467.117188 647.984375 466.210938 649.542969 465.375 C 651.105469 464.542969 652.699219 463.789062 654.335938 463.109375 C 655.96875 462.433594 657.632812 461.839844 659.324219 461.324219 C 661.015625 460.8125 662.730469 460.382812 664.464844 460.039062 C 666.199219 459.691406 667.945312 459.433594 669.707031 459.261719 C 671.46875 459.085938 673.230469 459 675 459 Z M 675 459 " fill-opacity="1" fill-rule="nonzero"/><path fill="#468ff1" d="M 729 567 L 729 351 C 727.230469 351 725.46875 350.914062 723.707031 350.738281 C 721.945312 350.566406 720.199219 350.308594 718.464844 349.960938 C 716.730469 349.617188 715.015625 349.1875 713.324219 348.675781 C 711.632812 348.160156 709.96875 347.566406 708.335938 346.890625 C 706.699219 346.210938 705.105469 345.457031 703.542969 344.625 C 701.984375 343.789062 700.46875 342.882812 699 341.898438 C 697.527344 340.917969 696.109375 339.863281 694.742188 338.742188 C 693.375 337.621094 692.066406 336.433594 690.816406 335.183594 C 689.566406 333.933594 688.378906 332.625 687.257812 331.257812 C 686.136719 329.890625 685.082031 328.472656 684.101562 327 C 683.117188 325.53125 682.210938 324.015625 681.375 322.457031 C 680.542969 320.894531 679.789062 319.300781 679.109375 317.664062 C 678.433594 316.03125 677.839844 314.367188 677.324219 312.675781 C 676.8125 310.984375 676.382812 309.269531 676.039062 307.535156 C 675.691406 305.800781 675.433594 304.054688 675.261719 302.292969 C 675.085938 300.53125 675 298.769531 675 297 L 189 297 C 189 298.769531 188.914062 300.53125 188.738281 302.292969 C 188.566406 304.054688 188.308594 305.800781 187.960938 307.535156 C 187.617188 309.269531 187.1875 310.984375 186.675781 312.675781 C 186.160156 314.367188 185.566406 316.03125 184.890625 317.664062 C 184.210938 319.300781 183.457031 320.894531 182.625 322.457031 C 181.789062 324.015625 180.882812 325.53125 179.898438 327 C 178.917969 328.472656 177.863281 329.890625 176.742188 331.257812 C 175.621094 332.625 174.433594 333.933594 173.183594 335.183594 C 171.933594 336.433594 170.625 337.621094 169.257812 338.742188 C 167.890625 339.863281 166.472656 340.917969 165 341.898438 C 163.53125 342.882812 162.015625 343.789062 160.457031 344.625 C 158.894531 345.457031 157.300781 346.210938 155.664062 346.890625 C 154.03125 347.566406 152.367188 348.160156 150.675781 348.675781 C 148.984375 349.1875 147.269531 349.617188 145.535156 349.960938 C 143.800781 350.308594 142.054688 350.566406 140.292969 350.738281 C 138.53125 350.914062 136.769531 351 135 351 L 135 567 C 136.769531 567 138.53125 567.085938 140.292969 567.261719 C 142.054688 567.433594 143.800781 567.691406 145.535156 568.039062 C 147.269531 568.382812 148.984375 568.8125 150.675781 569.324219 C 152.367188 569.839844 154.03125 570.433594 155.664062 571.109375 C 157.300781 571.789062 158.894531 572.542969 160.457031 573.375 C 162.015625 574.210938 163.53125 575.117188 165 576.101562 C 166.472656 577.082031 167.890625 578.136719 169.257812 579.257812 C 170.625 580.378906 171.933594 581.566406 173.183594 582.816406 C 174.433594 584.066406 175.621094 585.375 176.742188 586.742188 C 177.863281 588.109375 178.917969 589.527344 179.898438 591 C 180.882812 592.46875 181.789062 593.984375 182.625 595.542969 C 183.457031 597.105469 184.210938 598.699219 184.890625 600.335938 C 185.566406 601.96875 186.160156 603.632812 186.675781 605.324219 C 187.1875 607.015625 187.617188 608.730469 187.960938 610.464844 C 188.308594 612.199219 188.566406 613.945312 188.738281 615.707031 C 188.914062 617.46875 189 619.230469 189 621 L 675 621 C 675 619.230469 675.085938 617.46875 675.261719 615.707031 C 675.433594 613.945312 675.691406 612.199219 676.039062 610.464844 C 676.382812 608.730469 676.8125 607.015625 677.324219 605.324219 C 677.839844 603.632812 678.433594 601.96875 679.109375 600.335938 C 679.789062 598.703125 680.542969 597.105469 681.375 595.542969 C 682.210938 593.984375 683.117188 592.46875 684.101562 591 C 685.082031 589.527344 686.136719 588.109375 687.257812 586.742188 C 688.378906 585.375 689.566406 584.066406 690.816406 582.816406 C 692.066406 581.566406 693.375 580.378906 694.742188 579.257812 C 696.109375 578.136719 697.527344 577.082031 699 576.101562 C 700.46875 575.117188 701.984375 574.210938 703.542969 573.375 C 705.105469 572.542969 706.699219 571.789062 708.335938 571.109375 C 709.96875 570.433594 711.632812 569.839844 713.324219 569.324219 C 715.015625 568.8125 716.730469 568.382812 718.464844 568.039062 C 720.199219 567.691406 721.945312 567.433594 723.707031 567.261719 C 725.46875 567.085938 727.230469 567 729 567 Z M 729 567 " fill-opacity="1" fill-rule="nonzero"/><path fill="#ffffff" d="M 439.96875 520.832031 L 602.058594 358.742188 L 640.242188 396.925781 L 478.152344 559.015625 Z M 439.96875 520.832031 " fill-opacity="1" fill-rule="nonzero"/><path fill="#ffffff" d="M 432 351 L 486 351 L 486 405 L 432 405 Z M 432 351 " fill-opacity="1" fill-rule="nonzero"/><path fill="#ffffff" d="M 594 513 L 648 513 L 648 567 L 594 567 Z M 594 513 " fill-opacity="1" fill-rule="nonzero"/><path fill="#61c5fa" d="M 270 297 L 324 297 L 324 378 L 270 378 Z M 270 297 " fill-opacity="1" fill-rule="nonzero"/><path fill="#61c5fa" d="M 270 432 L 324 432 L 324 486 L 270 486 Z M 270 432 " fill-opacity="1" fill-rule="nonzero"/><path fill="#61c5fa" d="M 270 540 L 324 540 L 324 621 L 270 621 Z M 270 540 " fill-opacity="1" fill-rule="nonzero"/></svg>