<svg xmlns="http://www.w3.org/2000/svg" xmlns:xlink="http://www.w3.org/1999/xlink" width="1080" zoomAndPan="magnify" viewBox="0 0 810 809.999993" height="1080" preserveAspectRatio="xMidYMid meet" version="1.0"><path fill="#beded9" d="M 673.136719 393.828125 C 703.992188 393.828125 729 368.820312 729 337.964844 L 729 136.863281 C 729 106.007812 703.992188 81 673.136719 81 L 136.863281 81 C 106.007812 81 81 106.007812 81 136.863281 L 81 337.964844 C 81 368.820312 106.007812 393.828125 136.863281 393.828125 L 673.136719 393.828125 " fill-opacity="1" fill-rule="nonzero"/><path fill="#467096" d="M 661.964844 337.964844 C 668.117188 337.964844 673.136719 332.945312 673.136719 326.792969 L 673.136719 148.035156 C 673.136719 141.882812 668.117188 136.863281 661.964844 136.863281 L 148.035156 136.863281 C 141.882812 136.863281 136.863281 141.882812 136.863281 148.035156 L 136.863281 326.792969 C 136.863281 332.945312 141.882812 337.964844 148.035156 337.964844 L 661.964844 337.964844 " fill-opacity="1" fill-rule="nonzero"/><path fill="#65b83b" d="M 606.101562 237.414062 L 606.101562 717.828125 C 606.101562 723.980469 601.085938 729 594.929688 729 L 215.070312 729 C 208.914062 729 203.898438 723.980469 203.898438 717.828125 L 203.898438 237.414062 L 606.101562 237.414062 " fill-opacity="1" fill-rule="nonzero"/><path fill="#89d15d" d="M 248.585938 237.414062 L 248.585938 628.710938 C 248.585938 634.644531 253.257812 639.578125 259.191406 639.839844 C 320.117188 642.414062 340.453125 667.070312 346.648438 678.507812 C 348.613281 682.085938 352.324219 684.308594 356.425781 684.308594 L 453.574219 684.308594 C 457.675781 684.308594 461.386719 682.085938 463.351562 678.507812 C 469.546875 667.070312 489.882812 642.414062 550.808594 639.839844 C 556.742188 639.578125 561.414062 634.644531 561.414062 628.710938 L 561.414062 237.414062 L 248.585938 237.414062 " fill-opacity="1" fill-rule="nonzero"/><path fill="#65b83b" d="M 405 628.449219 C 386.496094 628.449219 371.484375 613.433594 371.484375 594.929688 C 371.484375 576.425781 386.496094 561.414062 405 561.414062 C 423.503906 561.414062 438.515625 576.425781 438.515625 594.929688 C 438.515625 613.433594 423.503906 628.449219 405 628.449219 " fill-opacity="1" fill-rule="nonzero"/><path fill="#65b83b" d="M 405 505.550781 C 349.488281 505.550781 304.449219 460.511719 304.449219 405 C 304.449219 349.488281 349.488281 304.449219 405 304.449219 C 460.511719 304.449219 505.550781 349.488281 505.550781 405 C 505.550781 460.511719 460.511719 505.550781 405 505.550781 " fill-opacity="1" fill-rule="nonzero"/><path fill="#2d5074" d="M 628.449219 248.585938 L 181.550781 248.585938 C 175.398438 248.585938 170.378906 243.566406 170.378906 237.414062 C 170.378906 231.261719 175.398438 226.242188 181.550781 226.242188 L 628.449219 226.242188 C 634.601562 226.242188 639.621094 231.261719 639.621094 237.414062 C 639.621094 243.566406 634.601562 248.585938 628.449219 248.585938 " fill-opacity="1" fill-rule="nonzero"/></svg>