<svg xmlns="http://www.w3.org/2000/svg" xmlns:xlink="http://www.w3.org/1999/xlink" width="1080" zoomAndPan="magnify" viewBox="0 0 810 809.999993" height="1080" preserveAspectRatio="xMidYMid meet" version="1.0"><path fill="#00bebd" d="M 587.25 516.375 C 587.25 518.363281 587.152344 520.347656 586.957031 522.328125 C 586.761719 524.308594 586.472656 526.273438 586.082031 528.226562 C 585.695312 530.179688 585.210938 532.105469 584.632812 534.011719 C 584.054688 535.914062 583.386719 537.785156 582.625 539.621094 C 581.863281 541.460938 581.015625 543.257812 580.078125 545.011719 C 579.140625 546.765625 578.117188 548.472656 577.011719 550.125 C 575.90625 551.78125 574.722656 553.375 573.460938 554.914062 C 572.199219 556.453125 570.863281 557.925781 569.457031 559.332031 C 568.050781 560.738281 566.578125 562.074219 565.039062 563.335938 C 563.5 564.597656 561.90625 565.78125 560.25 566.886719 C 558.597656 567.992188 556.890625 569.015625 555.136719 569.953125 C 553.382812 570.890625 551.585938 571.738281 549.746094 572.5 C 547.910156 573.261719 546.039062 573.929688 544.136719 574.507812 C 542.230469 575.085938 540.304688 575.570312 538.351562 575.957031 C 536.398438 576.347656 534.433594 576.636719 532.453125 576.832031 C 530.472656 577.027344 528.488281 577.125 526.5 577.125 L 526.5 455.625 C 528.488281 455.625 530.472656 455.722656 532.453125 455.917969 C 534.433594 456.113281 536.398438 456.402344 538.351562 456.792969 C 540.304688 457.179688 542.230469 457.664062 544.136719 458.242188 C 546.039062 458.820312 547.910156 459.488281 549.746094 460.25 C 551.585938 461.011719 553.382812 461.859375 555.136719 462.796875 C 556.890625 463.734375 558.597656 464.757812 560.25 465.863281 C 561.90625 466.96875 563.5 468.152344 565.039062 469.414062 C 566.578125 470.675781 568.050781 472.011719 569.457031 473.417969 C 570.863281 474.824219 572.199219 476.296875 573.460938 477.835938 C 574.722656 479.375 575.90625 480.96875 577.011719 482.625 C 578.117188 484.277344 579.140625 485.984375 580.078125 487.738281 C 581.015625 489.492188 581.863281 491.289062 582.625 493.128906 C 583.386719 494.964844 584.054688 496.835938 584.632812 498.742188 C 585.210938 500.644531 585.695312 502.570312 586.082031 504.523438 C 586.472656 506.476562 586.761719 508.441406 586.957031 510.421875 C 587.152344 512.402344 587.25 514.386719 587.25 516.375 Z M 587.25 516.375 " fill-opacity="1" fill-rule="nonzero"/><path fill="#50d9d7" d="M 536.625 688.5 C 536.625 689.164062 536.59375 689.824219 536.527344 690.484375 C 536.460938 691.144531 536.367188 691.800781 536.234375 692.449219 C 536.105469 693.101562 535.945312 693.742188 535.753906 694.378906 C 535.558594 695.011719 535.335938 695.636719 535.082031 696.25 C 534.828125 696.863281 534.546875 697.460938 534.234375 698.046875 C 533.921875 698.628906 533.582031 699.199219 533.210938 699.75 C 532.84375 700.300781 532.449219 700.832031 532.027344 701.347656 C 531.609375 701.859375 531.164062 702.351562 530.695312 702.820312 C 530.226562 703.289062 529.734375 703.734375 529.222656 704.152344 C 528.707031 704.574219 528.175781 704.96875 527.625 705.335938 C 527.074219 705.707031 526.503906 706.046875 525.921875 706.359375 C 525.335938 706.671875 524.738281 706.953125 524.125 707.207031 C 523.511719 707.460938 522.886719 707.683594 522.253906 707.878906 C 521.617188 708.070312 520.976562 708.230469 520.324219 708.359375 C 519.675781 708.492188 519.019531 708.585938 518.359375 708.652344 C 517.699219 708.71875 517.039062 708.75 516.375 708.75 C 515.710938 708.75 515.050781 708.71875 514.390625 708.652344 C 513.730469 708.585938 513.074219 708.492188 512.425781 708.359375 C 511.773438 708.230469 511.132812 708.070312 510.496094 707.878906 C 509.863281 707.683594 509.238281 707.460938 508.625 707.207031 C 508.011719 706.953125 507.414062 706.671875 506.828125 706.359375 C 506.246094 706.046875 505.675781 705.707031 505.125 705.335938 C 504.574219 704.96875 504.042969 704.574219 503.527344 704.152344 C 503.015625 703.734375 502.523438 703.289062 502.054688 702.820312 C 501.585938 702.351562 501.140625 701.859375 500.722656 701.347656 C 500.300781 700.832031 499.90625 700.300781 499.539062 699.75 C 499.167969 699.199219 498.828125 698.628906 498.515625 698.046875 C 498.203125 697.460938 497.921875 696.863281 497.667969 696.25 C 497.414062 695.636719 497.1875 695.011719 496.996094 694.378906 C 496.804688 693.742188 496.644531 693.101562 496.515625 692.449219 C 496.382812 691.800781 496.289062 691.144531 496.222656 690.484375 C 496.15625 689.824219 496.125 689.164062 496.125 688.5 L 496.125 344.25 C 496.128906 343.257812 496.207031 342.269531 496.355469 341.289062 C 496.503906 340.308594 496.726562 339.34375 497.015625 338.394531 C 497.308594 337.445312 497.667969 336.519531 498.09375 335.625 C 498.519531 334.730469 499.011719 333.867188 499.566406 333.042969 C 500.117188 332.21875 500.730469 331.441406 501.398438 330.707031 C 502.066406 329.972656 502.785156 329.289062 503.550781 328.664062 C 504.320312 328.035156 505.128906 327.464844 505.984375 326.953125 C 506.835938 326.445312 507.71875 326 508.636719 325.621094 C 509.554688 325.242188 510.496094 324.933594 511.457031 324.691406 C 512.421875 324.449219 513.394531 324.28125 514.382812 324.183594 C 515.371094 324.085938 516.363281 324.0625 517.355469 324.109375 C 518.34375 324.15625 519.328125 324.277344 520.300781 324.46875 C 521.277344 324.660156 522.230469 324.925781 523.164062 325.257812 C 524.101562 325.589844 525.007812 325.992188 525.882812 326.457031 C 526.761719 326.921875 527.597656 327.449219 528.398438 328.039062 C 529.195312 328.628906 529.945312 329.273438 530.652344 329.972656 C 539.257812 338.378906 536.625 314.785156 536.625 688.5 Z M 536.625 688.5 " fill-opacity="1" fill-rule="nonzero"/><path fill="#f3f3f3" d="M 496.125 344.25 L 496.125 688.5 C 487.886719 680.277344 479.121094 672.65625 469.828125 665.644531 C 460.539062 658.632812 450.808594 652.296875 440.640625 646.628906 C 430.472656 640.960938 419.960938 636.023438 409.109375 631.808594 C 398.257812 627.597656 387.167969 624.152344 375.839844 621.472656 L 273.375 597.375 L 273.375 435.375 L 375.839844 411.277344 C 387.171875 408.609375 398.265625 405.171875 409.121094 400.964844 C 419.976562 396.757812 430.488281 391.820312 440.65625 386.152344 C 450.828125 380.484375 460.554688 374.144531 469.84375 367.125 C 479.132812 360.109375 487.894531 352.484375 496.125 344.25 Z M 496.125 344.25 " fill-opacity="1" fill-rule="nonzero"/><path fill="#50d9d7" d="M 141.75 425.25 L 263.25 425.25 C 263.914062 425.25 264.574219 425.28125 265.234375 425.347656 C 265.894531 425.414062 266.550781 425.507812 267.199219 425.640625 C 267.851562 425.769531 268.492188 425.929688 269.128906 426.121094 C 269.761719 426.316406 270.386719 426.539062 271 426.792969 C 271.613281 427.046875 272.210938 427.328125 272.796875 427.640625 C 273.378906 427.953125 273.949219 428.292969 274.5 428.664062 C 275.050781 429.03125 275.582031 429.425781 276.097656 429.847656 C 276.609375 430.265625 277.101562 430.710938 277.570312 431.179688 C 278.039062 431.648438 278.484375 432.140625 278.902344 432.652344 C 279.324219 433.167969 279.71875 433.699219 280.085938 434.25 C 280.457031 434.800781 280.796875 435.371094 281.109375 435.953125 C 281.421875 436.539062 281.703125 437.136719 281.957031 437.75 C 282.210938 438.363281 282.433594 438.988281 282.628906 439.621094 C 282.820312 440.257812 282.980469 440.898438 283.109375 441.550781 C 283.242188 442.199219 283.335938 442.855469 283.402344 443.515625 C 283.46875 444.175781 283.5 444.835938 283.5 445.5 L 283.5 587.25 C 283.5 587.914062 283.46875 588.574219 283.402344 589.234375 C 283.335938 589.894531 283.242188 590.550781 283.109375 591.199219 C 282.980469 591.851562 282.820312 592.492188 282.628906 593.128906 C 282.433594 593.761719 282.210938 594.386719 281.957031 595 C 281.703125 595.613281 281.421875 596.210938 281.109375 596.796875 C 280.796875 597.378906 280.457031 597.949219 280.085938 598.5 C 279.71875 599.050781 279.324219 599.582031 278.902344 600.097656 C 278.484375 600.609375 278.039062 601.101562 277.570312 601.570312 C 277.101562 602.039062 276.609375 602.484375 276.097656 602.902344 C 275.582031 603.324219 275.050781 603.71875 274.5 604.085938 C 273.949219 604.457031 273.378906 604.796875 272.796875 605.109375 C 272.210938 605.421875 271.613281 605.703125 271 605.957031 C 270.386719 606.210938 269.761719 606.433594 269.128906 606.628906 C 268.492188 606.820312 267.851562 606.980469 267.199219 607.109375 C 266.550781 607.242188 265.894531 607.335938 265.234375 607.402344 C 264.574219 607.46875 263.914062 607.5 263.25 607.5 L 141.75 607.5 C 141.085938 607.5 140.425781 607.46875 139.765625 607.402344 C 139.105469 607.335938 138.449219 607.242188 137.800781 607.109375 C 137.148438 606.980469 136.507812 606.820312 135.871094 606.628906 C 135.238281 606.433594 134.613281 606.210938 134 605.957031 C 133.386719 605.703125 132.789062 605.421875 132.203125 605.109375 C 131.621094 604.796875 131.050781 604.457031 130.5 604.085938 C 129.949219 603.71875 129.417969 603.324219 128.902344 602.902344 C 128.390625 602.484375 127.898438 602.039062 127.429688 601.570312 C 126.960938 601.101562 126.515625 600.609375 126.097656 600.097656 C 125.675781 599.582031 125.28125 599.050781 124.914062 598.5 C 124.542969 597.949219 124.203125 597.378906 123.890625 596.796875 C 123.578125 596.210938 123.296875 595.613281 123.042969 595 C 122.789062 594.386719 122.566406 593.761719 122.371094 593.128906 C 122.179688 592.492188 122.019531 591.851562 121.890625 591.199219 C 121.757812 590.550781 121.664062 589.894531 121.597656 589.234375 C 121.53125 588.574219 121.5 587.914062 121.5 587.25 L 121.5 445.5 C 121.5 444.835938 121.53125 444.175781 121.597656 443.515625 C 121.664062 442.855469 121.757812 442.199219 121.890625 441.550781 C 122.019531 440.898438 122.179688 440.257812 122.371094 439.621094 C 122.566406 438.988281 122.789062 438.363281 123.042969 437.75 C 123.296875 437.136719 123.578125 436.539062 123.890625 435.953125 C 124.203125 435.371094 124.542969 434.800781 124.914062 434.25 C 125.28125 433.699219 125.675781 433.167969 126.097656 432.652344 C 126.515625 432.140625 126.960938 431.648438 127.429688 431.179688 C 127.898438 430.710938 128.390625 430.265625 128.902344 429.847656 C 129.417969 429.425781 129.949219 429.03125 130.5 428.664062 C 131.050781 428.292969 131.621094 427.953125 132.203125 427.640625 C 132.789062 427.328125 133.386719 427.046875 134 426.792969 C 134.613281 426.539062 135.238281 426.316406 135.871094 426.121094 C 136.507812 425.929688 137.148438 425.769531 137.800781 425.640625 C 138.449219 425.507812 139.105469 425.414062 139.765625 425.347656 C 140.425781 425.28125 141.085938 425.25 141.75 425.25 Z M 141.75 425.25 " fill-opacity="1" fill-rule="nonzero"/><path fill="#ffac00" d="M 121.5 587.25 C 122.511719 587.25 121.5 595.351562 121.5 445.5 C 120.171875 445.5 118.851562 445.566406 117.53125 445.695312 C 116.210938 445.824219 114.898438 446.019531 113.597656 446.277344 C 112.296875 446.535156 111.011719 446.859375 109.742188 447.242188 C 108.472656 447.628906 107.226562 448.074219 106 448.582031 C 104.777344 449.089844 103.578125 449.65625 102.410156 450.28125 C 101.238281 450.90625 100.101562 451.589844 99 452.324219 C 97.898438 453.0625 96.832031 453.851562 95.808594 454.691406 C 94.78125 455.535156 93.800781 456.425781 92.863281 457.363281 C 91.925781 458.300781 91.035156 459.28125 90.191406 460.308594 C 89.351562 461.332031 88.5625 462.398438 87.824219 463.5 C 87.089844 464.601562 86.40625 465.738281 85.78125 466.910156 C 85.15625 468.078125 84.589844 469.277344 84.082031 470.5 C 83.574219 471.726562 83.128906 472.972656 82.742188 474.242188 C 82.359375 475.511719 82.035156 476.796875 81.777344 478.097656 C 81.519531 479.398438 81.324219 480.710938 81.195312 482.03125 C 81.066406 483.351562 81 484.671875 81 486 L 81 546.75 C 81 548.078125 81.066406 549.398438 81.195312 550.71875 C 81.324219 552.039062 81.519531 553.351562 81.777344 554.652344 C 82.035156 555.953125 82.359375 557.238281 82.742188 558.507812 C 83.128906 559.777344 83.574219 561.023438 84.082031 562.25 C 84.589844 563.472656 85.15625 564.671875 85.78125 565.839844 C 86.40625 567.011719 87.089844 568.148438 87.824219 569.25 C 88.5625 570.351562 89.351562 571.417969 90.191406 572.441406 C 91.035156 573.46875 91.925781 574.449219 92.863281 575.386719 C 93.800781 576.324219 94.78125 577.214844 95.808594 578.058594 C 96.832031 578.898438 97.898438 579.6875 99 580.425781 C 100.101562 581.160156 101.238281 581.84375 102.410156 582.46875 C 103.578125 583.09375 104.777344 583.660156 106 584.167969 C 107.226562 584.675781 108.472656 585.121094 109.742188 585.507812 C 111.011719 585.890625 112.296875 586.214844 113.597656 586.472656 C 114.898438 586.730469 116.210938 586.925781 117.53125 587.054688 C 118.851562 587.183594 120.171875 587.25 121.5 587.25 Z M 121.5 587.25 " fill-opacity="1" fill-rule="nonzero"/><path fill="#00bebd" d="M 141.75 607.5 L 168.277344 713.710938 C 168.550781 714.796875 168.914062 715.851562 169.363281 716.878906 C 169.8125 717.902344 170.34375 718.882812 170.953125 719.820312 C 171.566406 720.757812 172.253906 721.640625 173.011719 722.460938 C 173.769531 723.285156 174.589844 724.042969 175.472656 724.730469 C 176.355469 725.417969 177.289062 726.027344 178.273438 726.558594 C 179.257812 727.09375 180.28125 727.539062 181.339844 727.902344 C 182.398438 728.265625 183.480469 728.542969 184.585938 728.726562 C 185.6875 728.910156 186.800781 729 187.921875 729 L 212.625 729 C 213.289062 729 213.949219 728.96875 214.609375 728.902344 C 215.269531 728.835938 215.925781 728.742188 216.574219 728.609375 C 217.226562 728.480469 217.867188 728.320312 218.503906 728.128906 C 219.136719 727.933594 219.761719 727.710938 220.375 727.457031 C 220.988281 727.203125 221.585938 726.921875 222.171875 726.609375 C 222.753906 726.296875 223.324219 725.957031 223.875 725.585938 C 224.425781 725.21875 224.957031 724.824219 225.472656 724.402344 C 225.984375 723.984375 226.476562 723.539062 226.945312 723.070312 C 227.414062 722.601562 227.859375 722.109375 228.277344 721.597656 C 228.699219 721.082031 229.09375 720.550781 229.460938 720 C 229.832031 719.449219 230.171875 718.878906 230.484375 718.296875 C 230.796875 717.710938 231.078125 717.113281 231.332031 716.5 C 231.585938 715.886719 231.808594 715.261719 232.003906 714.628906 C 232.195312 713.992188 232.355469 713.351562 232.484375 712.699219 C 232.617188 712.050781 232.710938 711.394531 232.777344 710.734375 C 232.84375 710.074219 232.875 709.414062 232.875 708.75 C 232.875 707.535156 213.132812 691.738281 212.117188 685.261719 L 203.308594 632.914062 C 202.195312 625.828125 206.855469 623.394531 222.75 607.5 Z M 141.75 607.5 " fill-opacity="1" fill-rule="nonzero"/><path fill="#00bebd" d="M 192.375 567 L 283.5 567 L 283.5 546.75 L 192.375 546.75 C 191.710938 546.75 191.050781 546.816406 190.398438 546.945312 C 189.746094 547.074219 189.113281 547.265625 188.5 547.519531 C 187.886719 547.773438 187.300781 548.085938 186.75 548.457031 C 186.195312 548.824219 185.6875 549.246094 185.214844 549.714844 C 184.746094 550.1875 184.324219 550.695312 183.957031 551.25 C 183.585938 551.800781 183.273438 552.386719 183.019531 553 C 182.765625 553.613281 182.574219 554.246094 182.445312 554.898438 C 182.316406 555.550781 182.25 556.210938 182.25 556.875 C 182.25 557.539062 182.316406 558.199219 182.445312 558.851562 C 182.574219 559.503906 182.765625 560.136719 183.019531 560.75 C 183.273438 561.363281 183.585938 561.949219 183.957031 562.5 C 184.324219 563.054688 184.746094 563.5625 185.214844 564.035156 C 185.6875 564.503906 186.195312 564.925781 186.75 565.292969 C 187.300781 565.664062 187.886719 565.976562 188.5 566.230469 C 189.113281 566.484375 189.746094 566.675781 190.398438 566.804688 C 191.050781 566.933594 191.710938 567 192.375 567 Z M 192.375 567 " fill-opacity="1" fill-rule="nonzero"/><path fill="#f3f3f3" d="M 192.375 465.75 L 151.875 465.75 C 151.210938 465.75 150.550781 465.683594 149.898438 465.554688 C 149.246094 465.425781 148.613281 465.234375 148 464.980469 C 147.386719 464.726562 146.800781 464.414062 146.25 464.042969 C 145.695312 463.675781 145.1875 463.253906 144.714844 462.785156 C 144.246094 462.3125 143.824219 461.804688 143.457031 461.25 C 143.085938 460.699219 142.773438 460.113281 142.519531 459.5 C 142.265625 458.886719 142.074219 458.253906 141.945312 457.601562 C 141.816406 456.949219 141.75 456.289062 141.75 455.625 C 141.75 454.960938 141.816406 454.300781 141.945312 453.648438 C 142.074219 452.996094 142.265625 452.363281 142.519531 451.75 C 142.773438 451.136719 143.085938 450.550781 143.457031 450 C 143.824219 449.445312 144.246094 448.9375 144.714844 448.464844 C 145.1875 447.996094 145.695312 447.574219 146.25 447.207031 C 146.800781 446.835938 147.386719 446.523438 148 446.269531 C 148.613281 446.015625 149.246094 445.824219 149.898438 445.695312 C 150.550781 445.566406 151.210938 445.5 151.875 445.5 L 192.375 445.5 C 193.039062 445.5 193.699219 445.566406 194.351562 445.695312 C 195.003906 445.824219 195.636719 446.015625 196.25 446.269531 C 196.863281 446.523438 197.449219 446.835938 198 447.207031 C 198.554688 447.574219 199.0625 447.996094 199.535156 448.464844 C 200.003906 448.9375 200.425781 449.445312 200.792969 450 C 201.164062 450.550781 201.476562 451.136719 201.730469 451.75 C 201.984375 452.363281 202.175781 452.996094 202.304688 453.648438 C 202.433594 454.300781 202.5 454.960938 202.5 455.625 C 202.5 456.289062 202.433594 456.949219 202.304688 457.601562 C 202.175781 458.253906 201.984375 458.886719 201.730469 459.5 C 201.476562 460.113281 201.164062 460.699219 200.792969 461.25 C 200.425781 461.804688 200.003906 462.3125 199.535156 462.785156 C 199.0625 463.253906 198.554688 463.675781 198 464.042969 C 197.449219 464.414062 196.863281 464.726562 196.25 464.980469 C 195.636719 465.234375 195.003906 465.425781 194.351562 465.554688 C 193.699219 465.683594 193.039062 465.75 192.375 465.75 Z M 192.375 465.75 " fill-opacity="1" fill-rule="nonzero"/><path fill="#f3f3f3" d="M 172.125 506.25 L 151.875 506.25 C 151.210938 506.25 150.550781 506.183594 149.898438 506.054688 C 149.246094 505.925781 148.613281 505.734375 148 505.480469 C 147.386719 505.226562 146.800781 504.914062 146.25 504.542969 C 145.695312 504.175781 145.1875 503.753906 144.714844 503.285156 C 144.246094 502.8125 143.824219 502.304688 143.457031 501.75 C 143.085938 501.199219 142.773438 500.613281 142.519531 500 C 142.265625 499.386719 142.074219 498.753906 141.945312 498.101562 C 141.816406 497.449219 141.75 496.789062 141.75 496.125 C 141.75 495.460938 141.816406 494.800781 141.945312 494.148438 C 142.074219 493.496094 142.265625 492.863281 142.519531 492.25 C 142.773438 491.636719 143.085938 491.050781 143.457031 490.5 C 143.824219 489.945312 144.246094 489.4375 144.714844 488.964844 C 145.1875 488.496094 145.695312 488.074219 146.25 487.707031 C 146.800781 487.335938 147.386719 487.023438 148 486.769531 C 148.613281 486.515625 149.246094 486.324219 149.898438 486.195312 C 150.550781 486.066406 151.210938 486 151.875 486 L 172.125 486 C 172.789062 486 173.449219 486.066406 174.101562 486.195312 C 174.753906 486.324219 175.386719 486.515625 176 486.769531 C 176.613281 487.023438 177.199219 487.335938 177.75 487.707031 C 178.304688 488.074219 178.8125 488.496094 179.285156 488.964844 C 179.753906 489.4375 180.175781 489.945312 180.542969 490.5 C 180.914062 491.050781 181.226562 491.636719 181.480469 492.25 C 181.734375 492.863281 181.925781 493.496094 182.054688 494.148438 C 182.183594 494.800781 182.25 495.460938 182.25 496.125 C 182.25 496.789062 182.183594 497.449219 182.054688 498.101562 C 181.925781 498.753906 181.734375 499.386719 181.480469 500 C 181.226562 500.613281 180.914062 501.199219 180.542969 501.75 C 180.175781 502.304688 179.753906 502.8125 179.285156 503.285156 C 178.8125 503.753906 178.304688 504.175781 177.75 504.542969 C 177.199219 504.914062 176.613281 505.226562 176 505.480469 C 175.386719 505.734375 174.753906 505.925781 174.101562 506.054688 C 173.449219 506.183594 172.789062 506.25 172.125 506.25 Z M 172.125 506.25 " fill-opacity="1" fill-rule="nonzero"/><path fill="#ffac00" d="M 718.875 526.5 L 617.625 526.5 C 616.960938 526.5 616.300781 526.433594 615.648438 526.304688 C 614.996094 526.175781 614.363281 525.984375 613.75 525.730469 C 613.136719 525.476562 612.550781 525.164062 612 524.792969 C 611.445312 524.425781 610.933594 524.003906 610.464844 523.535156 C 609.996094 523.0625 609.574219 522.554688 609.207031 522 C 608.835938 521.449219 608.523438 520.863281 608.269531 520.25 C 608.015625 519.636719 607.824219 519.003906 607.695312 518.351562 C 607.566406 517.699219 607.5 517.039062 607.5 516.375 C 607.5 515.710938 607.566406 515.050781 607.695312 514.398438 C 607.824219 513.746094 608.015625 513.113281 608.269531 512.5 C 608.523438 511.886719 608.835938 511.300781 609.207031 510.75 C 609.574219 510.195312 609.996094 509.6875 610.464844 509.214844 C 610.933594 508.746094 611.445312 508.324219 612 507.957031 C 612.550781 507.585938 613.136719 507.273438 613.75 507.019531 C 614.363281 506.765625 614.996094 506.574219 615.648438 506.445312 C 616.300781 506.316406 616.960938 506.25 617.625 506.25 L 718.875 506.25 C 719.539062 506.25 720.199219 506.316406 720.851562 506.445312 C 721.503906 506.574219 722.136719 506.765625 722.75 507.019531 C 723.363281 507.273438 723.949219 507.585938 724.5 507.957031 C 725.054688 508.324219 725.5625 508.746094 726.035156 509.214844 C 726.503906 509.6875 726.925781 510.195312 727.292969 510.75 C 727.664062 511.300781 727.976562 511.886719 728.230469 512.5 C 728.484375 513.113281 728.675781 513.746094 728.804688 514.398438 C 728.933594 515.050781 729 515.710938 729 516.375 C 729 517.039062 728.933594 517.699219 728.804688 518.351562 C 728.675781 519.003906 728.484375 519.636719 728.230469 520.25 C 727.976562 520.863281 727.664062 521.449219 727.292969 522 C 726.925781 522.554688 726.503906 523.0625 726.035156 523.535156 C 725.5625 524.003906 725.054688 524.425781 724.5 524.792969 C 723.949219 525.164062 723.363281 525.476562 722.75 525.730469 C 722.136719 525.984375 721.503906 526.175781 720.851562 526.304688 C 720.199219 526.433594 719.539062 526.5 718.875 526.5 Z M 718.875 526.5 " fill-opacity="1" fill-rule="nonzero"/><path fill="#ffac00" d="M 627.75 445.5 C 626.746094 445.503906 625.761719 445.363281 624.796875 445.078125 C 623.832031 444.789062 622.933594 444.367188 622.09375 443.8125 C 621.257812 443.257812 620.515625 442.589844 619.878906 441.816406 C 619.238281 441.039062 618.726562 440.1875 618.339844 439.257812 C 617.953125 438.328125 617.710938 437.363281 617.613281 436.363281 C 617.515625 435.363281 617.566406 434.371094 617.765625 433.382812 C 617.960938 432.398438 618.300781 431.460938 618.773438 430.578125 C 619.253906 429.691406 619.847656 428.894531 620.5625 428.1875 L 691.4375 357.3125 C 691.910156 356.839844 692.421875 356.417969 692.976562 356.046875 C 693.53125 355.679688 694.117188 355.367188 694.734375 355.109375 C 695.351562 354.855469 695.988281 354.664062 696.640625 354.535156 C 697.296875 354.402344 697.957031 354.339844 698.625 354.339844 C 699.289062 354.339844 699.953125 354.40625 700.605469 354.535156 C 701.261719 354.664062 701.894531 354.859375 702.511719 355.113281 C 703.128906 355.371094 703.714844 355.683594 704.269531 356.054688 C 704.824219 356.421875 705.335938 356.84375 705.808594 357.316406 C 706.28125 357.789062 706.699219 358.300781 707.070312 358.855469 C 707.441406 359.410156 707.753906 359.996094 708.011719 360.613281 C 708.265625 361.230469 708.460938 361.863281 708.589844 362.519531 C 708.71875 363.171875 708.785156 363.835938 708.785156 364.5 C 708.785156 365.167969 708.722656 365.828125 708.589844 366.484375 C 708.460938 367.136719 708.269531 367.773438 708.015625 368.390625 C 707.757812 369.007812 707.445312 369.59375 707.078125 370.148438 C 706.707031 370.703125 706.285156 371.214844 705.8125 371.6875 C 629.371094 448.132812 633.621094 445.5 627.75 445.5 Z M 627.75 445.5 " fill-opacity="1" fill-rule="nonzero"/><path fill="#ffac00" d="M 698.625 678.375 C 692.652344 678.375 696.902344 680.804688 620.5625 604.5625 C 620.089844 604.089844 619.667969 603.578125 619.296875 603.023438 C 618.929688 602.46875 618.617188 601.882812 618.359375 601.265625 C 618.105469 600.648438 617.914062 600.011719 617.785156 599.359375 C 617.652344 598.703125 617.589844 598.042969 617.589844 597.375 C 617.589844 596.710938 617.65625 596.046875 617.785156 595.394531 C 617.914062 594.738281 618.109375 594.105469 618.363281 593.488281 C 618.621094 592.871094 618.933594 592.285156 619.304688 591.730469 C 619.671875 591.175781 620.09375 590.664062 620.566406 590.191406 C 621.039062 589.71875 621.550781 589.296875 622.105469 588.929688 C 622.660156 588.558594 623.246094 588.246094 623.863281 587.988281 C 624.480469 587.734375 625.113281 587.539062 625.769531 587.410156 C 626.421875 587.28125 627.085938 587.214844 627.75 587.214844 C 628.417969 587.214844 629.078125 587.277344 629.734375 587.410156 C 630.386719 587.539062 631.023438 587.730469 631.640625 587.984375 C 632.257812 588.242188 632.84375 588.554688 633.398438 588.921875 C 633.953125 589.292969 634.464844 589.714844 634.9375 590.1875 L 705.8125 661.0625 C 706.527344 661.769531 707.121094 662.566406 707.597656 663.453125 C 708.074219 664.335938 708.414062 665.273438 708.609375 666.257812 C 708.808594 667.246094 708.859375 668.238281 708.761719 669.238281 C 708.664062 670.238281 708.421875 671.203125 708.035156 672.132812 C 707.648438 673.0625 707.136719 673.914062 706.496094 674.691406 C 705.859375 675.464844 705.117188 676.132812 704.28125 676.6875 C 703.441406 677.242188 702.542969 677.664062 701.578125 677.953125 C 700.613281 678.238281 699.628906 678.378906 698.625 678.375 Z M 698.625 678.375 " fill-opacity="1" fill-rule="nonzero"/><path fill="#00bebd" d="M 455.625 172.125 L 455.625 313.875 C 455.625 314.539062 455.59375 315.199219 455.527344 315.859375 C 455.460938 316.519531 455.367188 317.175781 455.234375 317.824219 C 455.105469 318.476562 454.945312 319.117188 454.753906 319.753906 C 454.558594 320.386719 454.335938 321.011719 454.082031 321.625 C 453.828125 322.238281 453.546875 322.835938 453.234375 323.421875 C 452.921875 324.003906 452.582031 324.574219 452.210938 325.125 C 451.84375 325.675781 451.449219 326.207031 451.027344 326.722656 C 450.609375 327.234375 450.164062 327.726562 449.695312 328.195312 C 449.226562 328.664062 448.734375 329.109375 448.222656 329.527344 C 447.707031 329.949219 447.175781 330.34375 446.625 330.710938 C 446.074219 331.082031 445.503906 331.421875 444.921875 331.734375 C 444.335938 332.046875 443.738281 332.328125 443.125 332.582031 C 442.511719 332.835938 441.886719 333.058594 441.253906 333.253906 C 440.617188 333.445312 439.976562 333.605469 439.324219 333.734375 C 438.675781 333.867188 438.019531 333.960938 437.359375 334.027344 C 436.699219 334.09375 436.039062 334.125 435.375 334.125 C 386.976562 334.125 399.429688 328.152344 364.5 374.625 L 334.125 334.125 L 172.125 334.125 C 171.460938 334.125 170.800781 334.09375 170.140625 334.027344 C 169.480469 333.960938 168.824219 333.867188 168.175781 333.734375 C 167.523438 333.605469 166.882812 333.445312 166.246094 333.253906 C 165.613281 333.058594 164.988281 332.835938 164.375 332.582031 C 163.761719 332.328125 163.164062 332.046875 162.578125 331.734375 C 161.996094 331.421875 161.425781 331.082031 160.875 330.710938 C 160.324219 330.34375 159.792969 329.949219 159.277344 329.527344 C 158.765625 329.109375 158.273438 328.664062 157.804688 328.195312 C 157.335938 327.726562 156.890625 327.234375 156.472656 326.722656 C 156.050781 326.207031 155.65625 325.675781 155.289062 325.125 C 154.917969 324.574219 154.578125 324.003906 154.265625 323.421875 C 153.953125 322.835938 153.671875 322.238281 153.417969 321.625 C 153.164062 321.011719 152.941406 320.386719 152.746094 319.753906 C 152.554688 319.117188 152.394531 318.476562 152.265625 317.824219 C 152.132812 317.175781 152.039062 316.519531 151.972656 315.859375 C 151.90625 315.199219 151.875 314.539062 151.875 313.875 L 151.875 172.125 C 151.875 171.460938 151.90625 170.800781 151.972656 170.140625 C 152.039062 169.480469 152.132812 168.824219 152.265625 168.175781 C 152.394531 167.523438 152.554688 166.882812 152.746094 166.246094 C 152.941406 165.613281 153.164062 164.988281 153.417969 164.375 C 153.671875 163.761719 153.953125 163.164062 154.265625 162.578125 C 154.578125 161.996094 154.917969 161.425781 155.289062 160.875 C 155.65625 160.324219 156.050781 159.792969 156.472656 159.277344 C 156.890625 158.765625 157.335938 158.273438 157.804688 157.804688 C 158.273438 157.335938 158.765625 156.890625 159.277344 156.472656 C 159.792969 156.050781 160.324219 155.65625 160.875 155.289062 C 161.425781 154.917969 161.996094 154.578125 162.578125 154.265625 C 163.164062 153.953125 163.761719 153.671875 164.375 153.417969 C 164.988281 153.164062 165.613281 152.941406 166.246094 152.746094 C 166.882812 152.554688 167.523438 152.394531 168.175781 152.265625 C 168.824219 152.132812 169.480469 152.039062 170.140625 151.972656 C 170.800781 151.90625 171.460938 151.875 172.125 151.875 L 435.375 151.875 C 436.039062 151.875 436.699219 151.90625 437.359375 151.972656 C 438.019531 152.039062 438.675781 152.132812 439.324219 152.265625 C 439.976562 152.394531 440.617188 152.554688 441.253906 152.746094 C 441.886719 152.941406 442.511719 153.164062 443.125 153.417969 C 443.738281 153.671875 444.335938 153.953125 444.921875 154.265625 C 445.503906 154.578125 446.074219 154.917969 446.625 155.289062 C 447.175781 155.65625 447.707031 156.050781 448.222656 156.472656 C 448.734375 156.890625 449.226562 157.335938 449.695312 157.804688 C 450.164062 158.273438 450.609375 158.765625 451.027344 159.277344 C 451.449219 159.792969 451.84375 160.324219 452.210938 160.875 C 452.582031 161.425781 452.921875 161.996094 453.234375 162.578125 C 453.546875 163.164062 453.828125 163.761719 454.082031 164.375 C 454.335938 164.988281 454.558594 165.613281 454.753906 166.246094 C 454.945312 166.882812 455.105469 167.523438 455.234375 168.175781 C 455.367188 168.824219 455.460938 169.480469 455.527344 170.140625 C 455.59375 170.800781 455.625 171.460938 455.625 172.125 Z M 455.625 172.125 " fill-opacity="1" fill-rule="nonzero"/><path fill="#50d9d7" d="M 394.875 263.25 C 394.441406 263.25 394.007812 263.234375 393.574219 263.207031 C 393.140625 263.175781 392.707031 263.136719 392.277344 263.078125 C 391.847656 263.023438 391.417969 262.953125 390.992188 262.867188 C 390.566406 262.785156 390.144531 262.6875 389.722656 262.574219 C 389.304688 262.464844 388.886719 262.339844 388.476562 262.203125 C 388.0625 262.0625 387.65625 261.914062 387.253906 261.75 C 386.851562 261.585938 386.457031 261.410156 386.066406 261.21875 C 385.675781 261.027344 385.289062 260.828125 384.914062 260.613281 C 384.535156 260.398438 384.164062 260.171875 383.800781 259.933594 C 383.4375 259.695312 383.082031 259.445312 382.734375 259.183594 C 382.390625 258.925781 382.050781 258.652344 381.722656 258.371094 C 381.390625 258.085938 381.070312 257.792969 380.761719 257.492188 C 380.449219 257.1875 380.148438 256.875 379.859375 256.550781 C 379.566406 256.230469 379.289062 255.898438 379.019531 255.554688 C 378.75 255.214844 378.492188 254.867188 378.242188 254.507812 C 377.996094 254.152344 377.761719 253.785156 377.539062 253.414062 C 377.316406 253.042969 377.105469 252.664062 376.90625 252.277344 C 376.707031 251.890625 376.519531 251.5 376.347656 251.101562 C 376.171875 250.703125 376.011719 250.300781 375.863281 249.890625 C 375.714844 249.480469 375.582031 249.070312 375.460938 248.652344 C 375.339844 248.234375 375.230469 247.816406 375.136719 247.390625 C 375.042969 246.96875 374.960938 246.539062 374.894531 246.109375 C 374.828125 245.683594 374.777344 245.25 374.738281 244.820312 C 374.699219 244.386719 374.671875 243.953125 374.664062 243.519531 C 374.652344 243.085938 374.652344 242.648438 374.671875 242.214844 C 374.6875 241.78125 374.71875 241.347656 374.761719 240.917969 C 374.808594 240.484375 374.867188 240.054688 374.9375 239.625 C 375.011719 239.199219 375.097656 238.773438 375.195312 238.351562 C 375.296875 237.925781 375.410156 237.507812 375.535156 237.09375 C 375.664062 236.679688 375.804688 236.265625 375.957031 235.859375 C 376.109375 235.453125 376.273438 235.054688 376.453125 234.65625 C 376.632812 234.261719 376.824219 233.871094 377.027344 233.488281 C 377.230469 233.105469 377.449219 232.730469 377.675781 232.359375 C 377.90625 231.988281 378.144531 231.628906 378.394531 231.273438 C 378.648438 230.917969 378.910156 230.574219 379.183594 230.238281 C 379.457031 229.898438 379.742188 229.570312 380.035156 229.253906 C 380.332031 228.933594 380.636719 228.625 380.953125 228.324219 C 381.265625 228.027344 381.589844 227.738281 381.921875 227.457031 C 382.257812 227.179688 382.597656 226.914062 382.949219 226.65625 C 383.300781 226.398438 383.65625 226.15625 384.023438 225.921875 C 384.390625 225.6875 384.765625 225.46875 385.144531 225.257812 C 385.523438 225.046875 385.910156 224.851562 386.304688 224.667969 C 386.699219 224.484375 387.097656 224.3125 387.5 224.152344 C 387.90625 223.992188 388.316406 223.847656 388.726562 223.714844 C 389.140625 223.582031 389.558594 223.464844 389.980469 223.359375 C 390.402344 223.253906 390.824219 223.160156 391.253906 223.082031 C 391.679688 223.003906 392.109375 222.9375 392.539062 222.886719 C 392.972656 222.835938 393.40625 222.800781 393.839844 222.777344 C 394.273438 222.753906 394.707031 222.746094 395.140625 222.75 C 395.574219 222.757812 396.007812 222.777344 396.441406 222.808594 C 396.875 222.839844 397.304688 222.886719 397.734375 222.949219 C 398.167969 223.007812 398.59375 223.085938 399.019531 223.171875 C 399.445312 223.261719 399.867188 223.363281 400.285156 223.476562 C 400.703125 223.59375 401.117188 223.722656 401.527344 223.863281 C 401.9375 224.007812 402.34375 224.160156 402.746094 224.328125 C 403.144531 224.496094 403.539062 224.679688 403.929688 224.871094 C 404.316406 225.066406 404.699219 225.269531 405.074219 225.488281 C 405.449219 225.707031 405.820312 225.9375 406.179688 226.179688 C 406.539062 226.421875 406.894531 226.675781 407.238281 226.9375 C 407.582031 227.203125 407.917969 227.476562 408.246094 227.765625 C 408.570312 228.050781 408.890625 228.347656 409.195312 228.652344 C 409.503906 228.960938 409.800781 229.277344 410.089844 229.601562 C 410.375 229.925781 410.652344 230.261719 410.917969 230.605469 C 411.183594 230.949219 411.4375 231.300781 411.683594 231.660156 C 412.195312 232.417969 412.652344 233.207031 413.058594 234.027344 C 413.464844 234.847656 413.8125 235.695312 414.105469 236.5625 C 414.394531 237.429688 414.628906 238.3125 414.796875 239.210938 C 414.96875 240.113281 415.078125 241.019531 415.128906 241.933594 C 415.175781 242.847656 415.160156 243.761719 415.085938 244.671875 C 415.011719 245.585938 414.875 246.488281 414.675781 247.382812 C 414.476562 248.277344 414.21875 249.152344 413.902344 250.011719 C 413.585938 250.871094 413.210938 251.703125 412.78125 252.511719 C 412.351562 253.320312 411.871094 254.09375 411.335938 254.839844 C 410.800781 255.582031 410.21875 256.285156 409.585938 256.949219 C 408.957031 257.613281 408.285156 258.230469 407.570312 258.800781 C 406.855469 259.375 406.105469 259.894531 405.320312 260.367188 C 404.535156 260.835938 403.722656 261.253906 402.878906 261.613281 C 402.039062 261.972656 401.175781 262.277344 400.292969 262.519531 C 399.410156 262.761719 398.515625 262.945312 397.609375 263.070312 C 396.703125 263.191406 395.789062 263.25 394.875 263.25 Z M 394.875 263.25 " fill-opacity="1" fill-rule="nonzero"/><path fill="#93e6e5" d="M 324 243 C 324 243.664062 323.96875 244.324219 323.902344 244.984375 C 323.835938 245.644531 323.742188 246.300781 323.609375 246.949219 C 323.480469 247.601562 323.320312 248.242188 323.128906 248.878906 C 322.933594 249.511719 322.710938 250.136719 322.457031 250.75 C 322.203125 251.363281 321.921875 251.960938 321.609375 252.546875 C 321.296875 253.128906 320.957031 253.699219 320.585938 254.25 C 320.21875 254.800781 319.824219 255.332031 319.402344 255.847656 C 318.984375 256.359375 318.539062 256.851562 318.070312 257.320312 C 317.601562 257.789062 317.109375 258.234375 316.597656 258.652344 C 316.082031 259.074219 315.550781 259.46875 315 259.835938 C 314.449219 260.207031 313.878906 260.546875 313.296875 260.859375 C 312.710938 261.171875 312.113281 261.453125 311.5 261.707031 C 310.886719 261.960938 310.261719 262.183594 309.628906 262.378906 C 308.992188 262.570312 308.351562 262.730469 307.699219 262.859375 C 307.050781 262.992188 306.394531 263.085938 305.734375 263.152344 C 305.074219 263.21875 304.414062 263.25 303.75 263.25 C 303.085938 263.25 302.425781 263.21875 301.765625 263.152344 C 301.105469 263.085938 300.449219 262.992188 299.800781 262.859375 C 299.148438 262.730469 298.507812 262.570312 297.871094 262.378906 C 297.238281 262.183594 296.613281 261.960938 296 261.707031 C 295.386719 261.453125 294.789062 261.171875 294.203125 260.859375 C 293.621094 260.546875 293.050781 260.207031 292.5 259.835938 C 291.949219 259.46875 291.417969 259.074219 290.902344 258.652344 C 290.390625 258.234375 289.898438 257.789062 289.429688 257.320312 C 288.960938 256.851562 288.515625 256.359375 288.097656 255.847656 C 287.675781 255.332031 287.28125 254.800781 286.914062 254.25 C 286.542969 253.699219 286.203125 253.128906 285.890625 252.546875 C 285.578125 251.960938 285.296875 251.363281 285.042969 250.75 C 284.789062 250.136719 284.5625 249.511719 284.371094 248.878906 C 284.179688 248.242188 284.019531 247.601562 283.890625 246.949219 C 283.757812 246.300781 283.664062 245.644531 283.597656 244.984375 C 283.53125 244.324219 283.5 243.664062 283.5 243 C 283.5 242.335938 283.53125 241.675781 283.597656 241.015625 C 283.664062 240.355469 283.757812 239.699219 283.890625 239.050781 C 284.019531 238.398438 284.179688 237.757812 284.371094 237.121094 C 284.5625 236.488281 284.789062 235.863281 285.042969 235.25 C 285.296875 234.636719 285.578125 234.039062 285.890625 233.453125 C 286.203125 232.871094 286.542969 232.300781 286.914062 231.75 C 287.28125 231.199219 287.675781 230.667969 288.097656 230.152344 C 288.515625 229.640625 288.960938 229.148438 289.429688 228.679688 C 289.898438 228.210938 290.390625 227.765625 290.902344 227.347656 C 291.417969 226.925781 291.949219 226.53125 292.5 226.164062 C 293.050781 225.792969 293.621094 225.453125 294.203125 225.140625 C 294.789062 224.828125 295.386719 224.546875 296 224.292969 C 296.613281 224.039062 297.238281 223.816406 297.871094 223.621094 C 298.507812 223.429688 299.148438 223.269531 299.800781 223.140625 C 300.449219 223.007812 301.105469 222.914062 301.765625 222.847656 C 302.425781 222.78125 303.085938 222.75 303.75 222.75 C 304.414062 222.75 305.074219 222.78125 305.734375 222.847656 C 306.394531 222.914062 307.050781 223.007812 307.699219 223.140625 C 308.351562 223.269531 308.992188 223.429688 309.628906 223.621094 C 310.261719 223.816406 310.886719 224.039062 311.5 224.292969 C 312.113281 224.546875 312.710938 224.828125 313.296875 225.140625 C 313.878906 225.453125 314.449219 225.792969 315 226.164062 C 315.550781 226.53125 316.082031 226.925781 316.597656 227.347656 C 317.109375 227.765625 317.601562 228.210938 318.070312 228.679688 C 318.539062 229.148438 318.984375 229.640625 319.402344 230.152344 C 319.824219 230.667969 320.21875 231.199219 320.585938 231.75 C 320.957031 232.300781 321.296875 232.871094 321.609375 233.453125 C 321.921875 234.039062 322.203125 234.636719 322.457031 235.25 C 322.710938 235.863281 322.933594 236.488281 323.128906 237.121094 C 323.320312 237.757812 323.480469 238.398438 323.609375 239.050781 C 323.742188 239.699219 323.835938 240.355469 323.902344 241.015625 C 323.96875 241.675781 324 242.335938 324 243 Z M 324 243 " fill-opacity="1" fill-rule="nonzero"/><path fill="#00aaa8" d="M 455.625 172.125 L 455.625 243 C 447.941406 242.992188 440.378906 242.03125 432.9375 240.109375 C 425.496094 238.1875 418.410156 235.371094 411.683594 231.660156 C 410.964844 230.535156 410.144531 229.488281 409.222656 228.523438 C 408.296875 227.558594 407.289062 226.695312 406.195312 225.929688 C 405.097656 225.167969 403.941406 224.515625 402.714844 223.980469 C 401.492188 223.445312 400.230469 223.035156 398.925781 222.75 C 396.265625 220.636719 393.730469 218.378906 391.320312 215.980469 C 388.914062 213.582031 386.648438 211.058594 384.519531 208.40625 C 382.394531 205.753906 380.425781 202.992188 378.609375 200.121094 C 376.792969 197.246094 375.140625 194.28125 373.65625 191.226562 C 372.171875 188.167969 370.863281 185.039062 369.726562 181.835938 C 368.59375 178.632812 367.640625 175.375 366.871094 172.0625 C 366.097656 168.753906 365.515625 165.410156 365.121094 162.035156 C 364.722656 158.660156 364.515625 155.273438 364.5 151.875 L 435.375 151.875 C 436.039062 151.875 436.699219 151.90625 437.359375 151.972656 C 438.019531 152.039062 438.675781 152.132812 439.324219 152.265625 C 439.976562 152.394531 440.617188 152.554688 441.253906 152.746094 C 441.886719 152.941406 442.511719 153.164062 443.125 153.417969 C 443.738281 153.671875 444.335938 153.953125 444.921875 154.265625 C 445.503906 154.578125 446.074219 154.917969 446.625 155.289062 C 447.175781 155.65625 447.707031 156.050781 448.222656 156.472656 C 448.734375 156.890625 449.226562 157.335938 449.695312 157.804688 C 450.164062 158.273438 450.609375 158.765625 451.027344 159.277344 C 451.449219 159.792969 451.84375 160.324219 452.210938 160.875 C 452.582031 161.425781 452.921875 161.996094 453.234375 162.578125 C 453.546875 163.164062 453.828125 163.761719 454.082031 164.375 C 454.335938 164.988281 454.558594 165.613281 454.753906 166.246094 C 454.945312 166.882812 455.105469 167.523438 455.234375 168.175781 C 455.367188 168.824219 455.460938 169.480469 455.527344 170.140625 C 455.59375 170.800781 455.625 171.460938 455.625 172.125 Z M 455.625 172.125 " fill-opacity="1" fill-rule="nonzero"/><path fill="#00bebd" d="M 411.683594 231.660156 C 407.179688 229.09375 402.960938 226.125 399.027344 222.75 C 400.320312 223.042969 401.578125 223.457031 402.789062 223.996094 C 404.003906 224.53125 405.152344 225.183594 406.238281 225.949219 C 407.324219 226.710938 408.324219 227.574219 409.242188 228.535156 C 410.15625 229.496094 410.972656 230.539062 411.683594 231.660156 Z M 411.683594 231.660156 " fill-opacity="1" fill-rule="nonzero"/><path fill="#f3f3f3" d="M 232.875 243 C 232.875 243.664062 232.84375 244.324219 232.777344 244.984375 C 232.710938 245.644531 232.617188 246.300781 232.484375 246.949219 C 232.355469 247.601562 232.195312 248.242188 232.003906 248.878906 C 231.808594 249.511719 231.585938 250.136719 231.332031 250.75 C 231.078125 251.363281 230.796875 251.960938 230.484375 252.546875 C 230.171875 253.128906 229.832031 253.699219 229.460938 254.25 C 229.09375 254.800781 228.699219 255.332031 228.277344 255.847656 C 227.859375 256.359375 227.414062 256.851562 226.945312 257.320312 C 226.476562 257.789062 225.984375 258.234375 225.472656 258.652344 C 224.957031 259.074219 224.425781 259.46875 223.875 259.835938 C 223.324219 260.207031 222.753906 260.546875 222.171875 260.859375 C 221.585938 261.171875 220.988281 261.453125 220.375 261.707031 C 219.761719 261.960938 219.136719 262.183594 218.503906 262.378906 C 217.867188 262.570312 217.226562 262.730469 216.574219 262.859375 C 215.925781 262.992188 215.269531 263.085938 214.609375 263.152344 C 213.949219 263.21875 213.289062 263.25 212.625 263.25 C 211.960938 263.25 211.300781 263.21875 210.640625 263.152344 C 209.980469 263.085938 209.324219 262.992188 208.675781 262.859375 C 208.023438 262.730469 207.382812 262.570312 206.746094 262.378906 C 206.113281 262.183594 205.488281 261.960938 204.875 261.707031 C 204.261719 261.453125 203.664062 261.171875 203.078125 260.859375 C 202.496094 260.546875 201.925781 260.207031 201.375 259.835938 C 200.824219 259.46875 200.292969 259.074219 199.777344 258.652344 C 199.265625 258.234375 198.773438 257.789062 198.304688 257.320312 C 197.835938 256.851562 197.390625 256.359375 196.972656 255.847656 C 196.550781 255.332031 196.15625 254.800781 195.789062 254.25 C 195.417969 253.699219 195.078125 253.128906 194.765625 252.546875 C 194.453125 251.960938 194.171875 251.363281 193.917969 250.75 C 193.664062 250.136719 193.441406 249.511719 193.246094 248.878906 C 193.054688 248.242188 192.894531 247.601562 192.765625 246.949219 C 192.632812 246.300781 192.539062 245.644531 192.472656 244.984375 C 192.40625 244.324219 192.375 243.664062 192.375 243 C 192.375 242.335938 192.40625 241.675781 192.472656 241.015625 C 192.539062 240.355469 192.632812 239.699219 192.765625 239.050781 C 192.894531 238.398438 193.054688 237.757812 193.246094 237.121094 C 193.441406 236.488281 193.664062 235.863281 193.917969 235.25 C 194.171875 234.636719 194.453125 234.039062 194.765625 233.453125 C 195.078125 232.871094 195.417969 232.300781 195.789062 231.75 C 196.15625 231.199219 196.550781 230.667969 196.972656 230.152344 C 197.390625 229.640625 197.835938 229.148438 198.304688 228.679688 C 198.773438 228.210938 199.265625 227.765625 199.777344 227.347656 C 200.292969 226.925781 200.824219 226.53125 201.375 226.164062 C 201.925781 225.792969 202.496094 225.453125 203.078125 225.140625 C 203.664062 224.828125 204.261719 224.546875 204.875 224.292969 C 205.488281 224.039062 206.113281 223.816406 206.746094 223.621094 C 207.382812 223.429688 208.023438 223.269531 208.675781 223.140625 C 209.324219 223.007812 209.980469 222.914062 210.640625 222.847656 C 211.300781 222.78125 211.960938 222.75 212.625 222.75 C 213.289062 222.75 213.949219 222.78125 214.609375 222.847656 C 215.269531 222.914062 215.925781 223.007812 216.574219 223.140625 C 217.226562 223.269531 217.867188 223.429688 218.503906 223.621094 C 219.136719 223.816406 219.761719 224.039062 220.375 224.292969 C 220.988281 224.546875 221.585938 224.828125 222.171875 225.140625 C 222.753906 225.453125 223.324219 225.792969 223.875 226.164062 C 224.425781 226.53125 224.957031 226.925781 225.472656 227.347656 C 225.984375 227.765625 226.476562 228.210938 226.945312 228.679688 C 227.414062 229.148438 227.859375 229.640625 228.277344 230.152344 C 228.699219 230.667969 229.09375 231.199219 229.460938 231.75 C 229.832031 232.300781 230.171875 232.871094 230.484375 233.453125 C 230.796875 234.039062 231.078125 234.636719 231.332031 235.25 C 231.585938 235.863281 231.808594 236.488281 232.003906 237.121094 C 232.195312 237.757812 232.355469 238.398438 232.484375 239.050781 C 232.617188 239.699219 232.710938 240.355469 232.777344 241.015625 C 232.84375 241.675781 232.875 242.335938 232.875 243 Z M 232.875 243 " fill-opacity="1" fill-rule="nonzero"/><path fill="#ffac00" d="M 526.5 151.875 C 526.5 153.035156 526.472656 154.195312 526.414062 155.351562 C 526.359375 156.511719 526.273438 157.667969 526.160156 158.820312 C 526.046875 159.976562 525.902344 161.128906 525.734375 162.273438 C 525.5625 163.421875 525.363281 164.5625 525.136719 165.703125 C 524.910156 166.839844 524.65625 167.972656 524.375 169.097656 C 524.09375 170.222656 523.785156 171.339844 523.449219 172.449219 C 523.113281 173.558594 522.746094 174.660156 522.355469 175.753906 C 521.964844 176.84375 521.546875 177.925781 521.105469 178.996094 C 520.660156 180.070312 520.191406 181.128906 519.695312 182.179688 C 519.199219 183.226562 518.679688 184.261719 518.132812 185.285156 C 517.585938 186.308594 517.011719 187.316406 516.417969 188.3125 C 515.820312 189.308594 515.199219 190.285156 514.554688 191.25 C 513.910156 192.214844 513.242188 193.164062 512.550781 194.09375 C 511.859375 195.027344 511.148438 195.941406 510.410156 196.835938 C 509.675781 197.734375 508.917969 198.613281 508.140625 199.472656 C 507.359375 200.332031 506.5625 201.171875 505.742188 201.992188 C 504.921875 202.8125 504.082031 203.609375 503.222656 204.390625 C 502.363281 205.167969 501.484375 205.925781 500.585938 206.664062 C 499.691406 207.398438 498.777344 208.113281 497.84375 208.800781 C 496.914062 209.492188 495.964844 210.160156 495 210.804688 C 494.035156 211.449219 493.058594 212.070312 492.0625 212.667969 C 491.066406 213.261719 490.058594 213.835938 489.035156 214.382812 C 488.011719 214.929688 486.976562 215.449219 485.929688 215.945312 C 484.878906 216.441406 483.820312 216.910156 482.746094 217.355469 C 481.675781 217.800781 480.59375 218.214844 479.503906 218.605469 C 478.410156 218.996094 477.308594 219.363281 476.199219 219.699219 C 475.089844 220.035156 473.972656 220.34375 472.847656 220.625 C 471.722656 220.90625 470.589844 221.160156 469.453125 221.386719 C 468.3125 221.613281 467.171875 221.8125 466.023438 221.984375 C 464.878906 222.152344 463.726562 222.296875 462.570312 222.410156 C 461.417969 222.523438 460.261719 222.609375 459.101562 222.664062 C 457.945312 222.722656 456.785156 222.75 455.625 222.75 C 454.464844 222.75 453.304688 222.722656 452.148438 222.664062 C 450.988281 222.609375 449.832031 222.523438 448.679688 222.410156 C 447.523438 222.296875 446.371094 222.152344 445.226562 221.984375 C 444.078125 221.8125 442.9375 221.613281 441.796875 221.386719 C 440.660156 221.160156 439.527344 220.90625 438.402344 220.625 C 437.277344 220.34375 436.160156 220.035156 435.050781 219.699219 C 433.941406 219.363281 432.839844 218.996094 431.746094 218.605469 C 430.65625 218.214844 429.574219 217.800781 428.503906 217.355469 C 427.429688 216.910156 426.371094 216.441406 425.320312 215.945312 C 424.273438 215.449219 423.238281 214.929688 422.214844 214.382812 C 421.191406 213.835938 420.183594 213.261719 419.1875 212.667969 C 418.191406 212.070312 417.214844 211.449219 416.25 210.804688 C 415.285156 210.160156 414.335938 209.492188 413.40625 208.800781 C 412.472656 208.113281 411.558594 207.398438 410.664062 206.664062 C 409.765625 205.925781 408.886719 205.167969 408.027344 204.390625 C 407.167969 203.609375 406.328125 202.8125 405.507812 201.992188 C 404.6875 201.171875 403.890625 200.332031 403.109375 199.472656 C 402.332031 198.613281 401.574219 197.734375 400.835938 196.835938 C 400.101562 195.941406 399.386719 195.027344 398.699219 194.09375 C 398.007812 193.164062 397.339844 192.214844 396.695312 191.25 C 396.050781 190.285156 395.429688 189.308594 394.832031 188.3125 C 394.238281 187.316406 393.664062 186.308594 393.117188 185.285156 C 392.570312 184.261719 392.050781 183.226562 391.554688 182.179688 C 391.058594 181.128906 390.589844 180.070312 390.144531 178.996094 C 389.699219 177.925781 389.285156 176.84375 388.894531 175.753906 C 388.503906 174.660156 388.136719 173.558594 387.800781 172.449219 C 387.464844 171.339844 387.15625 170.222656 386.875 169.097656 C 386.59375 167.972656 386.339844 166.839844 386.113281 165.703125 C 385.886719 164.5625 385.6875 163.421875 385.515625 162.273438 C 385.347656 161.128906 385.203125 159.976562 385.089844 158.820312 C 384.976562 157.667969 384.890625 156.511719 384.835938 155.351562 C 384.777344 154.195312 384.75 153.035156 384.75 151.875 C 384.75 150.714844 384.777344 149.554688 384.835938 148.398438 C 384.890625 147.238281 384.976562 146.082031 385.089844 144.929688 C 385.203125 143.773438 385.347656 142.621094 385.515625 141.476562 C 385.6875 140.328125 385.886719 139.1875 386.113281 138.046875 C 386.339844 136.910156 386.59375 135.777344 386.875 134.652344 C 387.15625 133.527344 387.464844 132.410156 387.800781 131.300781 C 388.136719 130.191406 388.503906 129.089844 388.894531 127.996094 C 389.285156 126.90625 389.699219 125.824219 390.144531 124.753906 C 390.589844 123.679688 391.058594 122.621094 391.554688 121.570312 C 392.050781 120.523438 392.570312 119.488281 393.117188 118.464844 C 393.664062 117.441406 394.238281 116.433594 394.832031 115.4375 C 395.429688 114.441406 396.050781 113.464844 396.695312 112.5 C 397.339844 111.535156 398.007812 110.585938 398.699219 109.65625 C 399.386719 108.722656 400.101562 107.808594 400.835938 106.914062 C 401.574219 106.015625 402.332031 105.136719 403.109375 104.277344 C 403.890625 103.417969 404.6875 102.578125 405.507812 101.757812 C 406.328125 100.9375 407.167969 100.140625 408.027344 99.359375 C 408.886719 98.582031 409.765625 97.824219 410.664062 97.089844 C 411.558594 96.351562 412.472656 95.636719 413.40625 94.949219 C 414.335938 94.257812 415.285156 93.589844 416.25 92.945312 C 417.214844 92.300781 418.191406 91.679688 419.1875 91.082031 C 420.183594 90.488281 421.191406 89.914062 422.214844 89.367188 C 423.238281 88.820312 424.273438 88.300781 425.320312 87.804688 C 426.371094 87.308594 427.429688 86.839844 428.503906 86.394531 C 429.574219 85.949219 430.65625 85.535156 431.746094 85.144531 C 432.839844 84.753906 433.941406 84.386719 435.050781 84.050781 C 436.160156 83.714844 437.277344 83.40625 438.402344 83.125 C 439.527344 82.84375 440.660156 82.589844 441.796875 82.363281 C 442.9375 82.136719 444.078125 81.9375 445.226562 81.765625 C 446.371094 81.597656 447.523438 81.453125 448.679688 81.339844 C 449.832031 81.226562 450.988281 81.140625 452.148438 81.085938 C 453.304688 81.027344 454.464844 81 455.625 81 C 456.785156 81 457.945312 81.027344 459.101562 81.085938 C 460.261719 81.140625 461.417969 81.226562 462.570312 81.339844 C 463.726562 81.453125 464.878906 81.597656 466.023438 81.765625 C 467.171875 81.9375 468.3125 82.136719 469.453125 82.363281 C 470.589844 82.589844 471.722656 82.84375 472.847656 83.125 C 473.972656 83.40625 475.089844 83.714844 476.199219 84.050781 C 477.308594 84.386719 478.410156 84.753906 479.503906 85.144531 C 480.59375 85.535156 481.675781 85.949219 482.746094 86.394531 C 483.820312 86.839844 484.878906 87.308594 485.929688 87.804688 C 486.976562 88.300781 488.011719 88.820312 489.035156 89.367188 C 490.058594 89.914062 491.066406 90.488281 492.0625 91.082031 C 493.058594 91.679688 494.035156 92.300781 495 92.945312 C 495.964844 93.589844 496.914062 94.257812 497.84375 94.949219 C 498.777344 95.636719 499.691406 96.351562 500.585938 97.089844 C 501.484375 97.824219 502.363281 98.582031 503.222656 99.359375 C 504.082031 100.140625 504.921875 100.9375 505.742188 101.757812 C 506.5625 102.578125 507.359375 103.417969 508.140625 104.277344 C 508.917969 105.136719 509.675781 106.015625 510.410156 106.914062 C 511.148438 107.808594 511.859375 108.722656 512.550781 109.65625 C 513.242188 110.585938 513.910156 111.535156 514.554688 112.5 C 515.199219 113.464844 515.820312 114.441406 516.417969 115.4375 C 517.011719 116.433594 517.585938 117.441406 518.132812 118.464844 C 518.679688 119.488281 519.199219 120.523438 519.695312 121.570312 C 520.191406 122.621094 520.660156 123.679688 521.105469 124.753906 C 521.546875 125.824219 521.964844 126.90625 522.355469 127.996094 C 522.746094 129.089844 523.113281 130.191406 523.449219 131.300781 C 523.785156 132.410156 524.09375 133.527344 524.375 134.652344 C 524.65625 135.777344 524.910156 136.910156 525.136719 138.046875 C 525.363281 139.1875 525.5625 140.328125 525.734375 141.476562 C 525.902344 142.621094 526.046875 143.773438 526.160156 144.929688 C 526.273438 146.082031 526.359375 147.238281 526.414062 148.398438 C 526.472656 149.554688 526.5 150.714844 526.5 151.875 Z M 526.5 151.875 " fill-opacity="1" fill-rule="nonzero"/><path fill="#f3f3f3" d="M 506.25 151.875 C 506.25 153.53125 506.167969 155.1875 506.007812 156.835938 C 505.84375 158.488281 505.601562 160.125 505.277344 161.75 C 504.953125 163.378906 504.550781 164.984375 504.070312 166.570312 C 503.589844 168.15625 503.03125 169.714844 502.394531 171.25 C 501.761719 172.78125 501.054688 174.277344 500.273438 175.738281 C 499.492188 177.203125 498.640625 178.621094 497.71875 180 C 496.796875 181.378906 495.808594 182.710938 494.757812 183.992188 C 493.707031 185.273438 492.59375 186.5 491.421875 187.671875 C 490.25 188.84375 489.023438 189.957031 487.742188 191.007812 C 486.460938 192.058594 485.128906 193.046875 483.75 193.96875 C 482.371094 194.890625 480.953125 195.742188 479.488281 196.523438 C 478.027344 197.304688 476.53125 198.011719 475 198.644531 C 473.464844 199.28125 471.90625 199.839844 470.320312 200.320312 C 468.734375 200.800781 467.128906 201.203125 465.5 201.527344 C 463.875 201.851562 462.238281 202.09375 460.585938 202.257812 C 458.9375 202.417969 457.28125 202.5 455.625 202.5 C 453.96875 202.5 452.3125 202.417969 450.664062 202.257812 C 449.011719 202.09375 447.375 201.851562 445.75 201.527344 C 444.121094 201.203125 442.515625 200.800781 440.929688 200.320312 C 439.34375 199.839844 437.785156 199.28125 436.25 198.644531 C 434.71875 198.011719 433.222656 197.304688 431.761719 196.523438 C 430.296875 195.742188 428.878906 194.890625 427.5 193.96875 C 426.121094 193.046875 424.789062 192.058594 423.507812 191.007812 C 422.226562 189.957031 421 188.84375 419.828125 187.671875 C 418.65625 186.5 417.542969 185.273438 416.492188 183.992188 C 415.441406 182.710938 414.453125 181.378906 413.53125 180 C 412.609375 178.621094 411.757812 177.203125 410.976562 175.738281 C 410.195312 174.277344 409.488281 172.78125 408.855469 171.25 C 408.21875 169.714844 407.660156 168.15625 407.179688 166.570312 C 406.699219 164.984375 406.296875 163.378906 405.972656 161.75 C 405.648438 160.125 405.40625 158.488281 405.242188 156.835938 C 405.082031 155.1875 405 153.53125 405 151.875 C 405 150.21875 405.082031 148.5625 405.242188 146.914062 C 405.40625 145.261719 405.648438 143.625 405.972656 142 C 406.296875 140.371094 406.699219 138.765625 407.179688 137.179688 C 407.660156 135.59375 408.21875 134.035156 408.855469 132.5 C 409.488281 130.96875 410.195312 129.472656 410.976562 128.011719 C 411.757812 126.546875 412.609375 125.128906 413.53125 123.75 C 414.453125 122.371094 415.441406 121.039062 416.492188 119.757812 C 417.542969 118.476562 418.65625 117.25 419.828125 116.078125 C 421 114.90625 422.226562 113.792969 423.507812 112.742188 C 424.789062 111.691406 426.121094 110.703125 427.5 109.78125 C 428.878906 108.859375 430.296875 108.007812 431.761719 107.226562 C 433.222656 106.445312 434.71875 105.738281 436.25 105.105469 C 437.785156 104.46875 439.34375 103.910156 440.929688 103.429688 C 442.515625 102.949219 444.121094 102.546875 445.75 102.222656 C 447.375 101.898438 449.011719 101.65625 450.664062 101.492188 C 452.3125 101.332031 453.96875 101.25 455.625 101.25 C 457.28125 101.25 458.9375 101.332031 460.585938 101.492188 C 462.238281 101.65625 463.875 101.898438 465.5 102.222656 C 467.128906 102.546875 468.734375 102.949219 470.320312 103.429688 C 471.90625 103.910156 473.464844 104.46875 475 105.105469 C 476.53125 105.738281 478.027344 106.445312 479.488281 107.226562 C 480.953125 108.007812 482.371094 108.859375 483.75 109.78125 C 485.128906 110.703125 486.460938 111.691406 487.742188 112.742188 C 489.023438 113.792969 490.25 114.90625 491.421875 116.078125 C 492.59375 117.25 493.707031 118.476562 494.757812 119.757812 C 495.808594 121.039062 496.796875 122.371094 497.71875 123.75 C 498.640625 125.128906 499.492188 126.546875 500.273438 128.011719 C 501.054688 129.472656 501.761719 130.96875 502.394531 132.5 C 503.03125 134.035156 503.589844 135.59375 504.070312 137.179688 C 504.550781 138.765625 504.953125 140.371094 505.277344 142 C 505.601562 143.625 505.84375 145.261719 506.007812 146.914062 C 506.167969 148.5625 506.25 150.21875 506.25 151.875 Z M 506.25 151.875 " fill-opacity="1" fill-rule="nonzero"/><path fill="#ffac00" d="M 496.125 182.25 C 495.539062 183.03125 494.929688 183.796875 494.296875 184.542969 C 493.667969 185.292969 493.015625 186.019531 492.339844 186.730469 C 491.667969 187.441406 490.972656 188.128906 490.257812 188.796875 C 489.546875 189.46875 488.8125 190.117188 488.0625 190.742188 C 487.3125 191.371094 486.542969 191.972656 485.757812 192.554688 C 484.972656 193.136719 484.167969 193.699219 483.351562 194.234375 C 482.53125 194.769531 481.699219 195.28125 480.851562 195.769531 C 480 196.253906 479.140625 196.71875 478.265625 197.15625 C 477.390625 197.59375 476.503906 198.003906 475.605469 198.390625 C 474.707031 198.777344 473.796875 199.136719 472.875 199.46875 C 471.957031 199.804688 471.027344 200.109375 470.089844 200.390625 C 469.152344 200.667969 468.207031 200.921875 467.257812 201.144531 C 466.304688 201.371094 465.347656 201.566406 464.382812 201.738281 C 463.417969 201.90625 462.453125 202.046875 461.480469 202.160156 C 460.507812 202.273438 459.535156 202.359375 458.558594 202.414062 C 457.582031 202.472656 456.601562 202.5 455.625 202.5 C 454.648438 202.5 453.667969 202.472656 452.691406 202.414062 C 451.714844 202.359375 450.742188 202.273438 449.769531 202.160156 C 448.796875 202.046875 447.832031 201.90625 446.867188 201.738281 C 445.902344 201.566406 444.945312 201.371094 443.992188 201.144531 C 443.042969 200.921875 442.097656 200.667969 441.160156 200.390625 C 440.222656 200.109375 439.292969 199.804688 438.375 199.46875 C 437.453125 199.136719 436.542969 198.777344 435.644531 198.390625 C 434.746094 198.003906 433.859375 197.59375 432.984375 197.15625 C 432.109375 196.71875 431.25 196.253906 430.398438 195.769531 C 429.550781 195.28125 428.71875 194.769531 427.898438 194.234375 C 427.082031 193.699219 426.277344 193.136719 425.492188 192.554688 C 424.707031 191.972656 423.9375 191.371094 423.1875 190.742188 C 422.4375 190.117188 421.703125 189.46875 420.992188 188.796875 C 420.277344 188.128906 419.582031 187.441406 418.910156 186.730469 C 418.234375 186.019531 417.582031 185.292969 416.953125 184.542969 C 416.320312 183.796875 415.710938 183.03125 415.125 182.25 C 415.710938 181.46875 416.320312 180.703125 416.953125 179.957031 C 417.582031 179.207031 418.234375 178.480469 418.910156 177.769531 C 419.582031 177.058594 420.277344 176.371094 420.992188 175.703125 C 421.703125 175.03125 422.4375 174.382812 423.1875 173.757812 C 423.9375 173.128906 424.707031 172.527344 425.492188 171.945312 C 426.277344 171.363281 427.082031 170.800781 427.898438 170.265625 C 428.71875 169.730469 429.550781 169.21875 430.398438 168.730469 C 431.25 168.246094 432.109375 167.78125 432.984375 167.34375 C 433.859375 166.90625 434.746094 166.496094 435.644531 166.109375 C 436.542969 165.722656 437.453125 165.363281 438.375 165.03125 C 439.292969 164.695312 440.222656 164.390625 441.160156 164.109375 C 442.097656 163.832031 443.042969 163.578125 443.992188 163.355469 C 444.945312 163.128906 445.902344 162.933594 446.867188 162.761719 C 447.832031 162.59375 448.796875 162.453125 449.769531 162.339844 C 450.742188 162.226562 451.714844 162.140625 452.691406 162.085938 C 453.667969 162.027344 454.648438 162 455.625 162 C 456.601562 162 457.582031 162.027344 458.558594 162.085938 C 459.535156 162.140625 460.507812 162.226562 461.480469 162.339844 C 462.453125 162.453125 463.417969 162.59375 464.382812 162.761719 C 465.347656 162.933594 466.304688 163.128906 467.257812 163.355469 C 468.207031 163.578125 469.152344 163.832031 470.089844 164.109375 C 471.027344 164.390625 471.957031 164.695312 472.875 165.03125 C 473.796875 165.363281 474.707031 165.722656 475.605469 166.109375 C 476.503906 166.496094 477.390625 166.90625 478.265625 167.34375 C 479.140625 167.78125 480 168.246094 480.851562 168.730469 C 481.699219 169.21875 482.53125 169.730469 483.351562 170.265625 C 484.167969 170.800781 484.972656 171.363281 485.757812 171.945312 C 486.542969 172.527344 487.3125 173.128906 488.0625 173.757812 C 488.8125 174.382812 489.546875 175.03125 490.257812 175.703125 C 490.972656 176.371094 491.667969 177.058594 492.339844 177.769531 C 493.015625 178.480469 493.667969 179.207031 494.296875 179.957031 C 494.929688 180.703125 495.539062 181.46875 496.125 182.25 Z M 496.125 182.25 " fill-opacity="1" fill-rule="nonzero"/><path fill="#ffac00" d="M 475.875 141.75 C 475.875 142.414062 475.84375 143.074219 475.777344 143.734375 C 475.710938 144.394531 475.613281 145.050781 475.484375 145.699219 C 475.355469 146.351562 475.195312 146.992188 475.003906 147.628906 C 474.808594 148.261719 474.585938 148.886719 474.332031 149.5 C 474.078125 150.113281 473.796875 150.710938 473.484375 151.296875 C 473.171875 151.878906 472.832031 152.449219 472.460938 153 C 472.09375 153.550781 471.699219 154.082031 471.277344 154.597656 C 470.859375 155.109375 470.414062 155.601562 469.945312 156.070312 C 469.476562 156.539062 468.984375 156.984375 468.472656 157.402344 C 467.957031 157.824219 467.425781 158.21875 466.875 158.585938 C 466.324219 158.957031 465.753906 159.296875 465.171875 159.609375 C 464.585938 159.921875 463.988281 160.203125 463.375 160.457031 C 462.761719 160.710938 462.136719 160.933594 461.503906 161.128906 C 460.867188 161.320312 460.226562 161.480469 459.574219 161.609375 C 458.925781 161.742188 458.269531 161.835938 457.609375 161.902344 C 456.949219 161.96875 456.289062 162 455.625 162 C 454.960938 162 454.300781 161.96875 453.640625 161.902344 C 452.980469 161.835938 452.324219 161.742188 451.675781 161.609375 C 451.023438 161.480469 450.382812 161.320312 449.746094 161.128906 C 449.113281 160.933594 448.488281 160.710938 447.875 160.457031 C 447.261719 160.203125 446.664062 159.921875 446.078125 159.609375 C 445.496094 159.296875 444.925781 158.957031 444.375 158.585938 C 443.824219 158.21875 443.292969 157.824219 442.777344 157.402344 C 442.265625 156.984375 441.773438 156.539062 441.304688 156.070312 C 440.835938 155.601562 440.390625 155.109375 439.972656 154.597656 C 439.550781 154.082031 439.15625 153.550781 438.789062 153 C 438.417969 152.449219 438.078125 151.878906 437.765625 151.296875 C 437.453125 150.710938 437.171875 150.113281 436.917969 149.5 C 436.664062 148.886719 436.441406 148.261719 436.246094 147.628906 C 436.054688 146.992188 435.894531 146.351562 435.765625 145.699219 C 435.632812 145.050781 435.539062 144.394531 435.472656 143.734375 C 435.40625 143.074219 435.375 142.414062 435.375 141.75 C 435.375 141.085938 435.40625 140.425781 435.472656 139.765625 C 435.539062 139.105469 435.632812 138.449219 435.765625 137.800781 C 435.894531 137.148438 436.054688 136.507812 436.246094 135.871094 C 436.441406 135.238281 436.664062 134.613281 436.917969 134 C 437.171875 133.386719 437.453125 132.789062 437.765625 132.203125 C 438.078125 131.621094 438.417969 131.050781 438.789062 130.5 C 439.15625 129.949219 439.550781 129.417969 439.972656 128.902344 C 440.390625 128.390625 440.835938 127.898438 441.304688 127.429688 C 441.773438 126.960938 442.265625 126.515625 442.777344 126.097656 C 443.292969 125.675781 443.824219 125.28125 444.375 124.914062 C 444.925781 124.542969 445.496094 124.203125 446.078125 123.890625 C 446.664062 123.578125 447.261719 123.296875 447.875 123.042969 C 448.488281 122.789062 449.113281 122.566406 449.746094 122.371094 C 450.382812 122.179688 451.023438 122.019531 451.675781 121.890625 C 452.324219 121.757812 452.980469 121.664062 453.640625 121.597656 C 454.300781 121.53125 454.960938 121.5 455.625 121.5 C 456.289062 121.5 456.949219 121.53125 457.609375 121.597656 C 458.269531 121.664062 458.925781 121.757812 459.574219 121.890625 C 460.226562 122.019531 460.867188 122.179688 461.503906 122.371094 C 462.136719 122.566406 462.761719 122.789062 463.375 123.042969 C 463.988281 123.296875 464.585938 123.578125 465.171875 123.890625 C 465.753906 124.203125 466.324219 124.542969 466.875 124.914062 C 467.425781 125.28125 467.957031 125.675781 468.472656 126.097656 C 468.984375 126.515625 469.476562 126.960938 469.945312 127.429688 C 470.414062 127.898438 470.859375 128.390625 471.277344 128.902344 C 471.699219 129.417969 472.09375 129.949219 472.460938 130.5 C 472.832031 131.050781 473.171875 131.621094 473.484375 132.203125 C 473.796875 132.789062 474.078125 133.386719 474.332031 134 C 474.585938 134.613281 474.808594 135.238281 475.003906 135.871094 C 475.195312 136.507812 475.355469 137.148438 475.484375 137.800781 C 475.613281 138.449219 475.710938 139.105469 475.777344 139.765625 C 475.84375 140.425781 475.875 141.085938 475.875 141.75 Z M 475.875 141.75 " fill-opacity="1" fill-rule="nonzero"/></svg>