<svg xmlns="http://www.w3.org/2000/svg" xmlns:xlink="http://www.w3.org/1999/xlink" width="1080" zoomAndPan="magnify" viewBox="0 0 810 809.999993" height="1080" preserveAspectRatio="xMidYMid meet" version="1.0"><path fill="#dce5ea" d="M 729 192.722656 L 729 684.308594 C 729 709 709 729 684.308594 729 L 125.691406 729 C 101 729 81 709 81 684.308594 L 81 192.722656 L 92.171875 170.378906 L 717.828125 170.378906 Z M 729 192.722656 " fill-opacity="1" fill-rule="nonzero"/><path fill="#304a5e" d="M 729 125.691406 L 729 192.722656 L 81 192.722656 L 81 125.691406 C 81 101 101 81 125.691406 81 L 684.308594 81 C 709 81 729 101 729 125.691406 Z M 729 125.691406 " fill-opacity="1" fill-rule="nonzero"/><path fill="#d35b4f" d="M 264.003906 349.136719 L 594.707031 349.136719 C 610.460938 349.136719 621.296875 364.890625 615.824219 379.636719 L 565.660156 513.261719 C 562.417969 522.085938 553.929688 527.898438 544.542969 527.898438 L 305.34375 527.898438 Z M 264.003906 349.136719 " fill-opacity="1" fill-rule="nonzero"/><path fill="#304a5e" d="M 393.828125 606.101562 C 393.828125 607.199219 393.773438 608.296875 393.667969 609.386719 C 393.558594 610.480469 393.398438 611.566406 393.183594 612.640625 C 392.96875 613.71875 392.703125 614.78125 392.382812 615.832031 C 392.066406 616.882812 391.695312 617.914062 391.277344 618.929688 C 390.855469 619.945312 390.386719 620.933594 389.871094 621.902344 C 389.351562 622.871094 388.789062 623.8125 388.179688 624.722656 C 387.570312 625.636719 386.914062 626.519531 386.21875 627.367188 C 385.523438 628.214844 384.785156 629.027344 384.011719 629.804688 C 383.234375 630.578125 382.421875 631.316406 381.574219 632.011719 C 380.726562 632.710938 379.84375 633.363281 378.929688 633.972656 C 378.019531 634.582031 377.078125 635.144531 376.109375 635.664062 C 375.140625 636.179688 374.152344 636.648438 373.136719 637.070312 C 372.121094 637.488281 371.089844 637.859375 370.039062 638.175781 C 368.988281 638.496094 367.925781 638.761719 366.847656 638.976562 C 365.773438 639.191406 364.6875 639.351562 363.59375 639.460938 C 362.503906 639.566406 361.40625 639.621094 360.308594 639.621094 C 359.210938 639.621094 358.117188 639.566406 357.023438 639.460938 C 355.933594 639.351562 354.847656 639.191406 353.769531 638.976562 C 352.695312 638.761719 351.632812 638.496094 350.582031 638.175781 C 349.53125 637.859375 348.496094 637.488281 347.484375 637.070312 C 346.46875 636.648438 345.480469 636.179688 344.511719 635.664062 C 343.542969 635.144531 342.601562 634.582031 341.6875 633.972656 C 340.777344 633.363281 339.894531 632.710938 339.046875 632.011719 C 338.199219 631.316406 337.386719 630.578125 336.609375 629.804688 C 335.832031 629.027344 335.097656 628.214844 334.402344 627.367188 C 333.703125 626.519531 333.050781 625.636719 332.441406 624.722656 C 331.832031 623.8125 331.269531 622.871094 330.75 621.902344 C 330.234375 620.933594 329.765625 619.945312 329.34375 618.929688 C 328.925781 617.914062 328.554688 616.882812 328.234375 615.832031 C 327.917969 614.78125 327.652344 613.71875 327.4375 612.640625 C 327.222656 611.566406 327.0625 610.480469 326.953125 609.386719 C 326.847656 608.296875 326.792969 607.199219 326.792969 606.101562 C 326.792969 605.003906 326.847656 603.910156 326.953125 602.816406 C 327.0625 601.726562 327.222656 600.640625 327.4375 599.566406 C 327.652344 598.488281 327.917969 597.425781 328.234375 596.375 C 328.554688 595.324219 328.925781 594.292969 329.34375 593.277344 C 329.765625 592.261719 330.234375 591.273438 330.75 590.304688 C 331.269531 589.335938 331.832031 588.394531 332.441406 587.480469 C 333.050781 586.570312 333.703125 585.6875 334.402344 584.839844 C 335.097656 583.992188 335.832031 583.179688 336.609375 582.402344 C 337.386719 581.625 338.199219 580.890625 339.046875 580.195312 C 339.894531 579.496094 340.777344 578.84375 341.6875 578.234375 C 342.601562 577.625 343.542969 577.0625 344.511719 576.542969 C 345.480469 576.027344 346.46875 575.558594 347.484375 575.136719 C 348.496094 574.71875 349.53125 574.347656 350.582031 574.03125 C 351.632812 573.710938 352.695312 573.445312 353.769531 573.230469 C 354.847656 573.015625 355.933594 572.855469 357.023438 572.746094 C 358.117188 572.640625 359.210938 572.585938 360.308594 572.585938 C 361.40625 572.585938 362.503906 572.640625 363.59375 572.746094 C 364.6875 572.855469 365.773438 573.015625 366.847656 573.230469 C 367.925781 573.445312 368.988281 573.710938 370.039062 574.03125 C 371.089844 574.347656 372.121094 574.71875 373.136719 575.136719 C 374.152344 575.558594 375.140625 576.027344 376.109375 576.542969 C 377.078125 577.0625 378.019531 577.625 378.929688 578.234375 C 379.84375 578.84375 380.726562 579.496094 381.574219 580.195312 C 382.421875 580.890625 383.234375 581.625 384.011719 582.402344 C 384.785156 583.179688 385.523438 583.992188 386.21875 584.839844 C 386.914062 585.6875 387.570312 586.570312 388.179688 587.480469 C 388.789062 588.394531 389.351562 589.335938 389.871094 590.304688 C 390.386719 591.273438 390.855469 592.261719 391.277344 593.277344 C 391.695312 594.292969 392.066406 595.324219 392.382812 596.375 C 392.703125 597.425781 392.96875 598.488281 393.183594 599.566406 C 393.398438 600.640625 393.558594 601.726562 393.667969 602.816406 C 393.773438 603.910156 393.828125 605.003906 393.828125 606.101562 Z M 393.828125 606.101562 " fill-opacity="1" fill-rule="nonzero"/><path fill="#304a5e" d="M 550.242188 606.101562 C 550.242188 607.199219 550.1875 608.296875 550.078125 609.386719 C 549.972656 610.480469 549.8125 611.566406 549.597656 612.640625 C 549.382812 613.71875 549.117188 614.78125 548.796875 615.832031 C 548.480469 616.882812 548.109375 617.914062 547.691406 618.929688 C 547.269531 619.945312 546.800781 620.933594 546.285156 621.902344 C 545.765625 622.871094 545.203125 623.8125 544.59375 624.722656 C 543.984375 625.636719 543.328125 626.519531 542.632812 627.367188 C 541.9375 628.214844 541.199219 629.027344 540.425781 629.804688 C 539.648438 630.578125 538.835938 631.316406 537.988281 632.011719 C 537.136719 632.710938 536.257812 633.363281 535.34375 633.972656 C 534.433594 634.582031 533.492188 635.144531 532.523438 635.664062 C 531.554688 636.179688 530.566406 636.648438 529.550781 637.070312 C 528.535156 637.488281 527.503906 637.859375 526.453125 638.175781 C 525.402344 638.496094 524.339844 638.761719 523.261719 638.976562 C 522.1875 639.191406 521.101562 639.351562 520.007812 639.460938 C 518.917969 639.566406 517.820312 639.621094 516.722656 639.621094 C 515.625 639.621094 514.53125 639.566406 513.4375 639.460938 C 512.347656 639.351562 511.261719 639.191406 510.183594 638.976562 C 509.109375 638.761719 508.046875 638.496094 506.996094 638.175781 C 505.945312 637.859375 504.910156 637.488281 503.898438 637.070312 C 502.882812 636.648438 501.890625 636.179688 500.925781 635.664062 C 499.957031 635.144531 499.015625 634.582031 498.101562 633.972656 C 497.191406 633.363281 496.308594 632.710938 495.460938 632.011719 C 494.613281 631.316406 493.800781 630.578125 493.023438 629.804688 C 492.246094 629.027344 491.511719 628.214844 490.816406 627.367188 C 490.117188 626.519531 489.464844 625.636719 488.855469 624.722656 C 488.246094 623.8125 487.683594 622.871094 487.164062 621.902344 C 486.648438 620.933594 486.179688 619.945312 485.757812 618.929688 C 485.339844 617.914062 484.96875 616.882812 484.648438 615.832031 C 484.332031 614.78125 484.066406 613.71875 483.851562 612.640625 C 483.636719 611.566406 483.476562 610.480469 483.367188 609.386719 C 483.261719 608.296875 483.207031 607.199219 483.207031 606.101562 C 483.207031 605.003906 483.261719 603.910156 483.367188 602.816406 C 483.476562 601.726562 483.636719 600.640625 483.851562 599.566406 C 484.066406 598.488281 484.332031 597.425781 484.648438 596.375 C 484.96875 595.324219 485.339844 594.292969 485.757812 593.277344 C 486.179688 592.261719 486.648438 591.273438 487.164062 590.304688 C 487.683594 589.335938 488.246094 588.394531 488.855469 587.480469 C 489.464844 586.570312 490.117188 585.6875 490.816406 584.839844 C 491.511719 583.992188 492.246094 583.179688 493.023438 582.402344 C 493.800781 581.625 494.613281 580.890625 495.460938 580.195312 C 496.308594 579.496094 497.191406 578.84375 498.101562 578.234375 C 499.015625 577.625 499.957031 577.0625 500.925781 576.542969 C 501.890625 576.027344 502.882812 575.558594 503.898438 575.136719 C 504.910156 574.71875 505.945312 574.347656 506.996094 574.03125 C 508.046875 573.710938 509.109375 573.445312 510.183594 573.230469 C 511.261719 573.015625 512.347656 572.855469 513.4375 572.746094 C 514.53125 572.640625 515.625 572.585938 516.722656 572.585938 C 517.820312 572.585938 518.917969 572.640625 520.007812 572.746094 C 521.101562 572.855469 522.1875 573.015625 523.261719 573.230469 C 524.339844 573.445312 525.402344 573.710938 526.453125 574.03125 C 527.503906 574.347656 528.535156 574.71875 529.550781 575.136719 C 530.566406 575.558594 531.554688 576.027344 532.523438 576.542969 C 533.492188 577.0625 534.433594 577.625 535.34375 578.234375 C 536.257812 578.84375 537.136719 579.496094 537.988281 580.195312 C 538.835938 580.890625 539.648438 581.625 540.425781 582.402344 C 541.199219 583.179688 541.9375 583.992188 542.632812 584.839844 C 543.328125 585.6875 543.984375 586.570312 544.59375 587.480469 C 545.203125 588.394531 545.765625 589.335938 546.285156 590.304688 C 546.800781 591.273438 547.269531 592.261719 547.691406 593.277344 C 548.109375 594.292969 548.480469 595.324219 548.796875 596.375 C 549.117188 597.425781 549.382812 598.488281 549.597656 599.566406 C 549.8125 600.640625 549.972656 601.726562 550.078125 602.816406 C 550.1875 603.910156 550.242188 605.003906 550.242188 606.101562 Z M 550.242188 606.101562 " fill-opacity="1" fill-rule="nonzero"/><path fill="#d35b4f" d="M 148.035156 148.035156 L 136.863281 148.035156 C 130.683594 148.035156 125.691406 143.039062 125.691406 136.863281 C 125.691406 130.683594 130.683594 125.691406 136.863281 125.691406 L 148.035156 125.691406 C 154.210938 125.691406 159.207031 130.683594 159.207031 136.863281 C 159.207031 143.039062 154.210938 148.035156 148.035156 148.035156 Z M 148.035156 148.035156 " fill-opacity="1" fill-rule="nonzero"/><path fill="#ffc55f" d="M 203.898438 148.035156 L 192.722656 148.035156 C 186.546875 148.035156 181.550781 143.039062 181.550781 136.863281 C 181.550781 130.683594 186.546875 125.691406 192.722656 125.691406 L 203.898438 125.691406 C 210.074219 125.691406 215.070312 130.683594 215.070312 136.863281 C 215.070312 143.039062 210.074219 148.035156 203.898438 148.035156 Z M 203.898438 148.035156 " fill-opacity="1" fill-rule="nonzero"/><path fill="#96c16c" d="M 259.757812 148.035156 L 248.585938 148.035156 C 242.40625 148.035156 237.414062 143.039062 237.414062 136.863281 C 237.414062 130.683594 242.40625 125.691406 248.585938 125.691406 L 259.757812 125.691406 C 265.9375 125.691406 270.929688 130.683594 270.929688 136.863281 C 270.929688 143.039062 265.9375 148.035156 259.757812 148.035156 Z M 259.757812 148.035156 " fill-opacity="1" fill-rule="nonzero"/><path fill="#1f303a" d="M 661.964844 148.035156 L 550.242188 148.035156 C 544.0625 148.035156 539.070312 143.039062 539.070312 136.863281 C 539.070312 130.683594 544.0625 125.691406 550.242188 125.691406 L 661.964844 125.691406 C 668.144531 125.691406 673.136719 130.683594 673.136719 136.863281 C 673.136719 143.039062 668.144531 148.035156 661.964844 148.035156 Z M 661.964844 148.035156 " fill-opacity="1" fill-rule="nonzero"/><path fill="#8faab5" d="M 561.414062 583.757812 L 315.621094 583.757812 C 310.414062 583.757812 305.902344 580.171875 304.726562 575.101562 L 239.691406 293.277344 L 192.722656 293.277344 C 186.546875 293.277344 181.550781 288.28125 181.550781 282.101562 C 181.550781 275.925781 186.546875 270.929688 192.722656 270.929688 L 248.585938 270.929688 C 253.792969 270.929688 258.304688 274.515625 259.480469 279.589844 L 324.515625 561.414062 L 561.414062 561.414062 C 567.59375 561.414062 572.585938 566.40625 572.585938 572.585938 C 572.585938 578.765625 567.59375 583.757812 561.414062 583.757812 Z M 561.414062 583.757812 " fill-opacity="1" fill-rule="nonzero"/></svg>