<svg xmlns="http://www.w3.org/2000/svg" xmlns:xlink="http://www.w3.org/1999/xlink" width="1080" zoomAndPan="magnify" viewBox="0 0 810 809.999993" height="1080" preserveAspectRatio="xMidYMid meet" version="1.0"><defs><clipPath id="f86a26ed8c"><path d="M 81 237.328125 L 729 237.328125 L 729 572.578125 L 81 572.578125 Z M 81 237.328125 " clip-rule="nonzero"/></clipPath><clipPath id="5c1a89dfda"><path d="M 217 237.328125 L 729 237.328125 L 729 572.578125 L 217 572.578125 Z M 217 237.328125 " clip-rule="nonzero"/></clipPath><clipPath id="3c2e29135e"><path d="M 81 237.328125 L 365 237.328125 L 365 519 L 81 519 Z M 81 237.328125 " clip-rule="nonzero"/></clipPath></defs><g clip-path="url(#f86a26ed8c)"><path fill="#e0b572" d="M 729 237.410156 L 729 337.9375 C 691.976562 337.9375 661.964844 367.941406 661.964844 404.953125 C 661.964844 441.96875 691.976562 471.972656 729 471.972656 L 729 572.5 L 606.101562 572.5 L 583.757812 550.160156 L 561.414062 572.5 L 81 572.5 L 103.34375 538.992188 L 81 516.652344 L 103.34375 494.3125 L 81 471.972656 L 92.492188 460.480469 L 103.34375 449.632812 L 81 427.292969 L 103.34375 404.953125 L 81 382.617188 L 103.34375 360.277344 L 81 337.9375 L 103.34375 315.597656 L 81 293.257812 L 103.34375 270.917969 L 81 237.410156 L 561.414062 237.410156 L 583.757812 259.75 L 606.101562 237.410156 Z M 729 237.410156 " fill-opacity="1" fill-rule="nonzero"/></g><g clip-path="url(#5c1a89dfda)"><path fill="#5885cc" d="M 729 237.410156 L 729 250.574219 L 406.996094 572.5 L 217.386719 572.5 L 552.574219 237.410156 L 561.414062 237.410156 L 583.757812 259.75 L 606.101562 237.410156 Z M 729 237.410156 " fill-opacity="1" fill-rule="nonzero"/></g><g clip-path="url(#3c2e29135e)"><path fill="#5885cc" d="M 364.808594 237.410156 L 83.25 518.898438 L 81 516.652344 L 103.34375 494.3125 L 81 471.972656 L 92.492188 460.480469 L 103.34375 449.632812 L 81 427.292969 L 103.34375 404.953125 L 87.089844 388.703125 L 238.40625 237.410156 Z M 364.808594 237.410156 " fill-opacity="1" fill-rule="nonzero"/></g><path fill="#2a4062" d="M 583.757812 315.597656 C 577.589844 315.597656 572.585938 310.597656 572.585938 304.429688 L 572.585938 293.257812 C 572.585938 287.089844 577.589844 282.089844 583.757812 282.089844 C 589.929688 282.089844 594.929688 287.089844 594.929688 293.257812 L 594.929688 304.429688 C 594.929688 310.597656 589.929688 315.597656 583.757812 315.597656 Z M 583.757812 315.597656 " fill-opacity="1" fill-rule="nonzero"/><path fill="#2a4062" d="M 583.757812 360.277344 C 577.589844 360.277344 572.585938 355.273438 572.585938 349.105469 L 572.585938 337.9375 C 572.585938 331.769531 577.589844 326.765625 583.757812 326.765625 C 589.929688 326.765625 594.929688 331.769531 594.929688 337.9375 L 594.929688 349.105469 C 594.929688 355.273438 589.929688 360.277344 583.757812 360.277344 Z M 583.757812 360.277344 " fill-opacity="1" fill-rule="nonzero"/><path fill="#2a4062" d="M 583.757812 527.820312 C 577.589844 527.820312 572.585938 522.820312 572.585938 516.652344 L 572.585938 505.480469 C 572.585938 499.3125 577.589844 494.3125 583.757812 494.3125 C 589.929688 494.3125 594.929688 499.3125 594.929688 505.480469 L 594.929688 516.652344 C 594.929688 522.820312 589.929688 527.820312 583.757812 527.820312 Z M 583.757812 527.820312 " fill-opacity="1" fill-rule="nonzero"/><path fill="#2a4062" d="M 583.757812 483.144531 C 577.589844 483.144531 572.585938 478.140625 572.585938 471.972656 L 572.585938 460.804688 C 572.585938 454.636719 577.589844 449.632812 583.757812 449.632812 C 589.929688 449.632812 594.929688 454.636719 594.929688 460.804688 L 594.929688 471.972656 C 594.929688 478.140625 589.929688 483.144531 583.757812 483.144531 Z M 583.757812 483.144531 " fill-opacity="1" fill-rule="nonzero"/><path fill="#d15858" d="M 405 404.953125 C 405 406.78125 404.957031 408.609375 404.867188 410.4375 C 404.777344 412.261719 404.640625 414.082031 404.460938 415.902344 C 404.28125 417.722656 404.058594 419.535156 403.789062 421.34375 C 403.523438 423.152344 403.210938 424.953125 402.851562 426.746094 C 402.496094 428.539062 402.097656 430.320312 401.652344 432.09375 C 401.207031 433.867188 400.71875 435.628906 400.1875 437.378906 C 399.660156 439.128906 399.085938 440.863281 398.46875 442.585938 C 397.851562 444.304688 397.195312 446.011719 396.496094 447.699219 C 395.796875 449.386719 395.054688 451.058594 394.273438 452.710938 C 393.492188 454.363281 392.667969 455.996094 391.808594 457.609375 C 390.945312 459.21875 390.042969 460.8125 389.105469 462.378906 C 388.164062 463.945312 387.1875 465.492188 386.171875 467.011719 C 385.15625 468.53125 384.101562 470.023438 383.011719 471.492188 C 381.925781 472.960938 380.800781 474.402344 379.640625 475.816406 C 378.480469 477.226562 377.285156 478.613281 376.058594 479.964844 C 374.828125 481.320312 373.570312 482.644531 372.277344 483.9375 C 370.984375 485.230469 369.660156 486.488281 368.304688 487.71875 C 366.949219 488.945312 365.566406 490.136719 364.152344 491.296875 C 362.738281 492.457031 361.296875 493.582031 359.828125 494.671875 C 358.359375 495.757812 356.867188 496.8125 355.347656 497.828125 C 353.824219 498.84375 352.28125 499.820312 350.714844 500.761719 C 349.144531 501.699219 347.554688 502.601562 345.941406 503.460938 C 344.328125 504.324219 342.695312 505.144531 341.042969 505.925781 C 339.390625 506.710938 337.71875 507.449219 336.03125 508.148438 C 334.339844 508.847656 332.636719 509.507812 330.914062 510.121094 C 329.191406 510.738281 327.457031 511.3125 325.707031 511.84375 C 323.957031 512.371094 322.195312 512.859375 320.421875 513.304688 C 318.648438 513.75 316.867188 514.148438 315.070312 514.503906 C 313.277344 514.863281 311.476562 515.175781 309.667969 515.441406 C 307.859375 515.710938 306.046875 515.933594 304.226562 516.113281 C 302.40625 516.292969 300.585938 516.425781 298.757812 516.515625 C 296.929688 516.605469 295.105469 516.652344 293.277344 516.652344 C 291.449219 516.652344 289.621094 516.605469 287.792969 516.515625 C 285.96875 516.425781 284.144531 516.292969 282.324219 516.113281 C 280.503906 515.933594 278.691406 515.710938 276.882812 515.441406 C 275.074219 515.175781 273.273438 514.863281 271.480469 514.503906 C 269.6875 514.148438 267.902344 513.75 266.128906 513.304688 C 264.355469 512.859375 262.59375 512.371094 260.84375 511.84375 C 259.09375 511.3125 257.359375 510.738281 255.636719 510.121094 C 253.914062 509.507812 252.210938 508.847656 250.519531 508.148438 C 248.832031 507.449219 247.160156 506.710938 245.507812 505.925781 C 243.855469 505.144531 242.222656 504.324219 240.609375 503.460938 C 238.996094 502.601562 237.40625 501.699219 235.839844 500.761719 C 234.269531 499.820312 232.726562 498.84375 231.207031 497.828125 C 229.683594 496.8125 228.191406 495.757812 226.722656 494.671875 C 225.253906 493.582031 223.8125 492.457031 222.398438 491.296875 C 220.984375 490.136719 219.601562 488.945312 218.246094 487.71875 C 216.890625 486.488281 215.566406 485.230469 214.273438 483.9375 C 212.980469 482.644531 211.722656 481.320312 210.492188 479.964844 C 209.265625 478.613281 208.070312 477.226562 206.910156 475.816406 C 205.753906 474.402344 204.628906 472.960938 203.539062 471.492188 C 202.449219 470.023438 201.394531 468.53125 200.378906 467.011719 C 199.363281 465.492188 198.386719 463.945312 197.445312 462.378906 C 196.507812 460.8125 195.605469 459.21875 194.742188 457.609375 C 193.882812 455.996094 193.058594 454.363281 192.277344 452.710938 C 191.496094 451.058594 190.757812 449.386719 190.054688 447.699219 C 189.355469 446.011719 188.699219 444.304688 188.082031 442.585938 C 187.464844 440.863281 186.894531 439.128906 186.363281 437.378906 C 185.832031 435.628906 185.34375 433.867188 184.898438 432.09375 C 184.457031 430.320312 184.054688 428.539062 183.699219 426.746094 C 183.339844 424.953125 183.027344 423.152344 182.761719 421.34375 C 182.492188 419.535156 182.269531 417.722656 182.089844 415.902344 C 181.910156 414.082031 181.777344 412.261719 181.6875 410.4375 C 181.597656 408.609375 181.550781 406.78125 181.550781 404.953125 C 181.550781 403.128906 181.597656 401.300781 181.6875 399.472656 C 181.777344 397.648438 181.910156 395.824219 182.089844 394.007812 C 182.269531 392.1875 182.492188 390.375 182.761719 388.566406 C 183.027344 386.757812 183.339844 384.957031 183.699219 383.164062 C 184.054688 381.371094 184.457031 379.589844 184.898438 377.816406 C 185.34375 376.042969 185.832031 374.28125 186.363281 372.53125 C 186.894531 370.78125 187.464844 369.046875 188.082031 367.324219 C 188.699219 365.605469 189.355469 363.898438 190.054688 362.210938 C 190.757812 360.523438 191.496094 358.851562 192.277344 357.199219 C 193.058594 355.546875 193.882812 353.914062 194.742188 352.300781 C 195.605469 350.6875 196.507812 349.097656 197.445312 347.53125 C 198.386719 345.964844 199.363281 344.417969 200.378906 342.898438 C 201.394531 341.378906 202.449219 339.886719 203.539062 338.417969 C 204.628906 336.949219 205.753906 335.507812 206.910156 334.09375 C 208.070312 332.683594 209.265625 331.296875 210.492188 329.945312 C 211.722656 328.589844 212.980469 327.265625 214.273438 325.972656 C 215.566406 324.679688 216.890625 323.421875 218.246094 322.191406 C 219.601562 320.964844 220.984375 319.773438 222.398438 318.613281 C 223.8125 317.453125 225.253906 316.328125 226.722656 315.238281 C 228.191406 314.148438 229.683594 313.097656 231.207031 312.082031 C 232.726562 311.066406 234.269531 310.089844 235.839844 309.148438 C 237.40625 308.210938 238.996094 307.308594 240.609375 306.445312 C 242.222656 305.585938 243.855469 304.765625 245.507812 303.980469 C 247.160156 303.199219 248.832031 302.460938 250.519531 301.761719 C 252.210938 301.0625 253.914062 300.402344 255.636719 299.789062 C 257.359375 299.171875 259.09375 298.597656 260.84375 298.066406 C 262.59375 297.539062 264.355469 297.050781 266.128906 296.605469 C 267.902344 296.160156 269.6875 295.761719 271.480469 295.40625 C 273.273438 295.046875 275.074219 294.734375 276.882812 294.46875 C 278.691406 294.199219 280.503906 293.976562 282.324219 293.796875 C 284.144531 293.617188 285.96875 293.484375 287.792969 293.394531 C 289.621094 293.304688 291.449219 293.257812 293.277344 293.257812 C 295.105469 293.257812 296.929688 293.304688 298.757812 293.394531 C 300.585938 293.484375 302.40625 293.617188 304.226562 293.796875 C 306.046875 293.976562 307.859375 294.199219 309.667969 294.46875 C 311.476562 294.734375 313.277344 295.046875 315.070312 295.40625 C 316.867188 295.761719 318.648438 296.160156 320.421875 296.605469 C 322.195312 297.050781 323.957031 297.539062 325.707031 298.066406 C 327.457031 298.597656 329.191406 299.171875 330.914062 299.789062 C 332.636719 300.402344 334.339844 301.0625 336.03125 301.761719 C 337.71875 302.460938 339.390625 303.199219 341.042969 303.980469 C 342.695312 304.765625 344.328125 305.585938 345.941406 306.445312 C 347.554688 307.308594 349.144531 308.210938 350.714844 309.148438 C 352.28125 310.089844 353.824219 311.066406 355.347656 312.082031 C 356.867188 313.097656 358.359375 314.148438 359.828125 315.238281 C 361.296875 316.328125 362.738281 317.453125 364.152344 318.613281 C 365.566406 319.773438 366.949219 320.964844 368.304688 322.191406 C 369.660156 323.421875 370.984375 324.679688 372.277344 325.972656 C 373.570312 327.265625 374.828125 328.589844 376.058594 329.945312 C 377.285156 331.296875 378.480469 332.683594 379.640625 334.09375 C 380.800781 335.507812 381.925781 336.949219 383.011719 338.417969 C 384.101562 339.886719 385.15625 341.378906 386.171875 342.898438 C 387.1875 344.417969 388.164062 345.964844 389.105469 347.53125 C 390.042969 349.097656 390.945312 350.6875 391.808594 352.300781 C 392.667969 353.914062 393.492188 355.546875 394.273438 357.199219 C 395.054688 358.851562 395.796875 360.523438 396.496094 362.210938 C 397.195312 363.898438 397.851562 365.605469 398.46875 367.324219 C 399.085938 369.046875 399.660156 370.78125 400.1875 372.53125 C 400.71875 374.28125 401.207031 376.042969 401.652344 377.816406 C 402.097656 379.589844 402.496094 381.371094 402.851562 383.164062 C 403.210938 384.957031 403.523438 386.757812 403.789062 388.566406 C 404.058594 390.375 404.28125 392.1875 404.460938 394.007812 C 404.640625 395.824219 404.777344 397.648438 404.867188 399.472656 C 404.957031 401.300781 405 403.128906 405 404.953125 Z M 405 404.953125 " fill-opacity="1" fill-rule="nonzero"/><path fill="#2a4062" d="M 237.414062 471.972656 C 234.554688 471.972656 231.695312 470.882812 229.511719 468.703125 C 225.148438 464.339844 225.148438 457.269531 229.511719 452.90625 L 341.238281 341.207031 C 345.601562 336.847656 352.675781 336.847656 357.035156 341.207031 C 361.402344 345.570312 361.402344 352.640625 357.035156 357.003906 L 245.3125 468.703125 C 243.132812 470.882812 240.273438 471.972656 237.414062 471.972656 Z M 237.414062 471.972656 " fill-opacity="1" fill-rule="nonzero"/><path fill="#2a4062" d="M 248.585938 393.785156 C 230.105469 393.785156 215.070312 378.753906 215.070312 360.277344 C 215.070312 341.800781 230.105469 326.765625 248.585938 326.765625 C 267.066406 326.765625 282.101562 341.800781 282.101562 360.277344 C 282.101562 378.753906 267.066406 393.785156 248.585938 393.785156 Z M 248.585938 349.105469 C 242.425781 349.105469 237.414062 354.117188 237.414062 360.277344 C 237.414062 366.433594 242.425781 371.445312 248.585938 371.445312 C 254.746094 371.445312 259.757812 366.433594 259.757812 360.277344 C 259.757812 354.117188 254.746094 349.105469 248.585938 349.105469 Z M 248.585938 349.105469 " fill-opacity="1" fill-rule="nonzero"/><path fill="#2a4062" d="M 337.964844 483.144531 C 319.484375 483.144531 304.449219 468.109375 304.449219 449.632812 C 304.449219 431.15625 319.484375 416.125 337.964844 416.125 C 356.449219 416.125 371.484375 431.15625 371.484375 449.632812 C 371.484375 468.109375 356.449219 483.144531 337.964844 483.144531 Z M 337.964844 438.464844 C 331.804688 438.464844 326.792969 443.476562 326.792969 449.632812 C 326.792969 455.792969 331.804688 460.804688 337.964844 460.804688 C 344.125 460.804688 349.136719 455.792969 349.136719 449.632812 C 349.136719 443.476562 344.125 438.464844 337.964844 438.464844 Z M 337.964844 438.464844 " fill-opacity="1" fill-rule="nonzero"/><path fill="#2a4062" d="M 583.757812 438.464844 C 577.589844 438.464844 572.585938 433.460938 572.585938 427.292969 L 572.585938 382.617188 C 572.585938 376.445312 577.589844 371.445312 583.757812 371.445312 C 589.929688 371.445312 594.929688 376.445312 594.929688 382.617188 L 594.929688 427.292969 C 594.929688 433.460938 589.929688 438.464844 583.757812 438.464844 Z M 583.757812 438.464844 " fill-opacity="1" fill-rule="nonzero"/><path fill="#5d2727" d="M 530.527344 550.160156 L 458.230469 550.160156 C 441.199219 550.160156 427.34375 536.308594 427.34375 519.285156 L 427.34375 491.679688 C 427.34375 474.65625 441.199219 460.804688 458.230469 460.804688 L 530.527344 460.804688 C 547.558594 460.804688 561.414062 474.65625 561.414062 491.679688 L 561.414062 519.285156 C 561.414062 536.308594 547.558594 550.160156 530.527344 550.160156 Z M 458.230469 483.144531 C 453.523438 483.144531 449.691406 486.972656 449.691406 491.679688 L 449.691406 519.285156 C 449.691406 523.992188 453.523438 527.820312 458.230469 527.820312 L 530.527344 527.820312 C 535.238281 527.820312 539.070312 523.992188 539.070312 519.285156 L 539.070312 491.679688 C 539.070312 486.972656 535.238281 483.144531 530.527344 483.144531 Z M 458.230469 483.144531 " fill-opacity="1" fill-rule="nonzero"/><path fill="#5d2727" d="M 550.242188 449.632812 L 452.484375 449.632812 C 438.621094 449.632812 427.34375 438.359375 427.34375 424.5 L 427.34375 371.445312 C 427.34375 365.277344 432.347656 360.277344 438.515625 360.277344 C 444.6875 360.277344 449.691406 365.277344 449.691406 371.445312 L 449.691406 424.5 C 449.691406 426.042969 450.941406 427.292969 452.484375 427.292969 L 550.242188 427.292969 C 556.410156 427.292969 561.414062 432.296875 561.414062 438.464844 C 561.414062 444.632812 556.410156 449.632812 550.242188 449.632812 Z M 550.242188 449.632812 " fill-opacity="1" fill-rule="nonzero"/><path fill="#5d2727" d="M 550.242188 349.105469 L 452.484375 349.105469 C 438.621094 349.105469 427.34375 337.832031 427.34375 323.976562 L 427.34375 270.917969 C 427.34375 264.75 432.347656 259.75 438.515625 259.75 C 444.6875 259.75 449.691406 264.75 449.691406 270.917969 L 449.691406 323.976562 C 449.691406 325.515625 450.941406 326.765625 452.484375 326.765625 L 550.242188 326.765625 C 556.410156 326.765625 561.414062 331.769531 561.414062 337.9375 C 561.414062 344.105469 556.410156 349.105469 550.242188 349.105469 Z M 550.242188 349.105469 " fill-opacity="1" fill-rule="nonzero"/><path fill="#5d2727" d="M 483.207031 449.632812 C 477.035156 449.632812 472.035156 444.632812 472.035156 438.464844 L 472.035156 393.785156 C 472.035156 387.617188 477.035156 382.617188 483.207031 382.617188 C 489.375 382.617188 494.378906 387.617188 494.378906 393.785156 L 494.378906 438.464844 C 494.378906 444.632812 489.375 449.632812 483.207031 449.632812 Z M 483.207031 449.632812 " fill-opacity="1" fill-rule="nonzero"/><path fill="#5d2727" d="M 483.207031 349.105469 C 477.035156 349.105469 472.035156 344.105469 472.035156 337.9375 L 472.035156 293.257812 C 472.035156 287.089844 477.035156 282.089844 483.207031 282.089844 C 489.375 282.089844 494.378906 287.089844 494.378906 293.257812 L 494.378906 337.9375 C 494.378906 344.105469 489.375 349.105469 483.207031 349.105469 Z M 483.207031 349.105469 " fill-opacity="1" fill-rule="nonzero"/></svg>