<svg xmlns="http://www.w3.org/2000/svg" xmlns:xlink="http://www.w3.org/1999/xlink" width="1080" zoomAndPan="magnify" viewBox="0 0 810 809.999993" height="1080" preserveAspectRatio="xMidYMid meet" version="1.0"><path fill="#468ff1" d="M 459 189 L 459 702 L 81 702 L 81 189 L 243 108 L 297 108 Z M 459 189 " fill-opacity="1" fill-rule="nonzero"/><path fill="#61c5fa" d="M 283.5 594 L 189 594 L 189 540 L 283.5 540 C 284.386719 540 285.265625 539.914062 286.132812 539.742188 C 287.003906 539.566406 287.847656 539.3125 288.667969 538.972656 C 289.484375 538.632812 290.261719 538.21875 291 537.726562 C 291.738281 537.230469 292.417969 536.671875 293.046875 536.046875 C 293.671875 535.417969 294.230469 534.738281 294.726562 534 C 295.21875 533.261719 295.632812 532.484375 295.972656 531.667969 C 296.3125 530.847656 296.566406 530.003906 296.742188 529.132812 C 296.914062 528.265625 297 527.386719 297 526.5 C 297 525.613281 296.914062 524.734375 296.742188 523.867188 C 296.566406 522.996094 296.3125 522.152344 295.972656 521.332031 C 295.632812 520.515625 295.21875 519.738281 294.726562 519 C 294.230469 518.261719 293.671875 517.582031 293.046875 516.953125 C 292.417969 516.328125 291.738281 515.769531 291 515.273438 C 290.261719 514.78125 289.484375 514.367188 288.667969 514.027344 C 287.847656 513.6875 287.003906 513.433594 286.132812 513.257812 C 285.265625 513.085938 284.386719 513 283.5 513 L 256.5 513 C 255.394531 513 254.292969 512.972656 253.1875 512.917969 C 252.085938 512.863281 250.984375 512.785156 249.882812 512.675781 C 248.785156 512.566406 247.6875 512.429688 246.59375 512.269531 C 245.503906 512.105469 244.414062 511.917969 243.332031 511.703125 C 242.246094 511.488281 241.171875 511.246094 240.097656 510.976562 C 239.027344 510.707031 237.964844 510.414062 236.90625 510.09375 C 235.847656 509.773438 234.800781 509.425781 233.761719 509.054688 C 232.71875 508.683594 231.691406 508.285156 230.667969 507.863281 C 229.648438 507.4375 228.636719 506.992188 227.640625 506.519531 C 226.640625 506.046875 225.65625 505.550781 224.679688 505.03125 C 223.707031 504.507812 222.746094 503.964844 221.796875 503.398438 C 220.851562 502.828125 219.917969 502.238281 219 501.625 C 218.082031 501.011719 217.175781 500.375 216.289062 499.714844 C 215.402344 499.058594 214.53125 498.378906 213.679688 497.679688 C 212.824219 496.976562 211.988281 496.257812 211.167969 495.515625 C 210.351562 494.773438 209.550781 494.011719 208.769531 493.230469 C 207.988281 492.449219 207.226562 491.648438 206.484375 490.832031 C 205.742188 490.011719 205.023438 489.175781 204.320312 488.320312 C 203.621094 487.46875 202.941406 486.597656 202.285156 485.710938 C 201.625 484.824219 200.988281 483.917969 200.375 483 C 199.761719 482.082031 199.171875 481.148438 198.601562 480.203125 C 198.035156 479.253906 197.492188 478.292969 196.96875 477.320312 C 196.449219 476.34375 195.953125 475.359375 195.480469 474.359375 C 195.007812 473.359375 194.5625 472.351562 194.136719 471.332031 C 193.714844 470.308594 193.316406 469.28125 192.945312 468.238281 C 192.574219 467.199219 192.226562 466.152344 191.90625 465.09375 C 191.585938 464.035156 191.292969 462.972656 191.023438 461.902344 C 190.753906 460.828125 190.511719 459.753906 190.296875 458.667969 C 190.082031 457.585938 189.894531 456.496094 189.730469 455.40625 C 189.570312 454.3125 189.433594 453.214844 189.324219 452.117188 C 189.214844 451.015625 189.136719 449.914062 189.082031 448.8125 C 189.027344 447.707031 189 446.605469 189 445.5 C 189 444.394531 189.027344 443.292969 189.082031 442.1875 C 189.136719 441.085938 189.214844 439.984375 189.324219 438.882812 C 189.433594 437.785156 189.570312 436.6875 189.730469 435.597656 C 189.894531 434.503906 190.082031 433.414062 190.296875 432.332031 C 190.511719 431.246094 190.753906 430.171875 191.023438 429.097656 C 191.292969 428.027344 191.585938 426.964844 191.90625 425.90625 C 192.226562 424.847656 192.574219 423.800781 192.945312 422.761719 C 193.316406 421.71875 193.714844 420.691406 194.136719 419.667969 C 194.5625 418.648438 195.007812 417.636719 195.480469 416.640625 C 195.953125 415.640625 196.449219 414.65625 196.96875 413.679688 C 197.492188 412.707031 198.035156 411.746094 198.601562 410.796875 C 199.171875 409.851562 199.761719 408.917969 200.375 408 C 200.988281 407.082031 201.625 406.175781 202.285156 405.289062 C 202.941406 404.402344 203.621094 403.53125 204.320312 402.679688 C 205.023438 401.824219 205.742188 400.988281 206.484375 400.167969 C 207.226562 399.351562 207.988281 398.550781 208.769531 397.769531 C 209.550781 396.988281 210.351562 396.226562 211.167969 395.484375 C 211.988281 394.742188 212.824219 394.023438 213.679688 393.320312 C 214.53125 392.621094 215.402344 391.941406 216.289062 391.285156 C 217.175781 390.625 218.082031 389.988281 219 389.375 C 219.917969 388.761719 220.851562 388.171875 221.796875 387.601562 C 222.746094 387.035156 223.707031 386.492188 224.679688 385.96875 C 225.65625 385.449219 226.640625 384.953125 227.640625 384.480469 C 228.636719 384.007812 229.648438 383.5625 230.667969 383.136719 C 231.691406 382.714844 232.71875 382.316406 233.761719 381.945312 C 234.800781 381.574219 235.847656 381.226562 236.90625 380.90625 C 237.964844 380.585938 239.027344 380.292969 240.097656 380.023438 C 241.171875 379.753906 242.246094 379.511719 243.332031 379.296875 C 244.414062 379.082031 245.503906 378.894531 246.59375 378.730469 C 247.6875 378.570312 248.785156 378.433594 249.882812 378.324219 C 250.984375 378.214844 252.085938 378.136719 253.1875 378.082031 C 254.292969 378.027344 255.394531 378 256.5 378 L 351 378 L 351 432 L 256.5 432 C 255.613281 432 254.734375 432.085938 253.867188 432.257812 C 252.996094 432.433594 252.152344 432.6875 251.332031 433.027344 C 250.515625 433.367188 249.738281 433.78125 249 434.273438 C 248.261719 434.765625 247.582031 435.328125 246.953125 435.953125 C 246.328125 436.582031 245.769531 437.261719 245.273438 438 C 244.78125 438.738281 244.367188 439.515625 244.027344 440.332031 C 243.6875 441.152344 243.433594 441.996094 243.257812 442.867188 C 243.085938 443.734375 243 444.613281 243 445.5 C 243 446.386719 243.085938 447.265625 243.257812 448.132812 C 243.433594 449.003906 243.6875 449.847656 244.027344 450.667969 C 244.367188 451.484375 244.78125 452.261719 245.273438 453 C 245.769531 453.738281 246.328125 454.417969 246.953125 455.046875 C 247.582031 455.671875 248.261719 456.230469 249 456.726562 C 249.738281 457.21875 250.515625 457.632812 251.332031 457.972656 C 252.152344 458.3125 252.996094 458.566406 253.867188 458.742188 C 254.734375 458.914062 255.613281 459 256.5 459 L 283.5 459 C 284.605469 459 285.707031 459.027344 286.8125 459.082031 C 287.914062 459.136719 289.015625 459.214844 290.117188 459.324219 C 291.214844 459.433594 292.3125 459.570312 293.402344 459.730469 C 294.496094 459.894531 295.585938 460.082031 296.667969 460.296875 C 297.753906 460.511719 298.828125 460.753906 299.902344 461.023438 C 300.972656 461.292969 302.035156 461.585938 303.09375 461.90625 C 304.152344 462.226562 305.199219 462.574219 306.238281 462.945312 C 307.28125 463.316406 308.308594 463.714844 309.332031 464.136719 C 310.351562 464.5625 311.359375 465.007812 312.359375 465.480469 C 313.359375 465.953125 314.34375 466.449219 315.320312 466.96875 C 316.292969 467.492188 317.253906 468.035156 318.203125 468.601562 C 319.148438 469.171875 320.082031 469.761719 321 470.375 C 321.917969 470.988281 322.824219 471.625 323.710938 472.285156 C 324.597656 472.941406 325.46875 473.621094 326.320312 474.320312 C 327.175781 475.023438 328.011719 475.742188 328.832031 476.484375 C 329.648438 477.226562 330.449219 477.988281 331.230469 478.769531 C 332.011719 479.550781 332.773438 480.351562 333.515625 481.167969 C 334.257812 481.988281 334.976562 482.824219 335.679688 483.679688 C 336.378906 484.53125 337.058594 485.402344 337.714844 486.289062 C 338.375 487.175781 339.011719 488.082031 339.625 489 C 340.238281 489.917969 340.828125 490.851562 341.398438 491.796875 C 341.964844 492.746094 342.507812 493.707031 343.03125 494.679688 C 343.550781 495.65625 344.046875 496.640625 344.519531 497.640625 C 344.992188 498.636719 345.4375 499.648438 345.863281 500.667969 C 346.285156 501.6875 346.683594 502.71875 347.054688 503.761719 C 347.425781 504.800781 347.773438 505.847656 348.09375 506.90625 C 348.414062 507.960938 348.707031 509.027344 348.976562 510.097656 C 349.246094 511.171875 349.488281 512.246094 349.703125 513.332031 C 349.917969 514.414062 350.105469 515.503906 350.269531 516.59375 C 350.429688 517.6875 350.566406 518.785156 350.675781 519.882812 C 350.78125 520.984375 350.863281 522.085938 350.917969 523.1875 C 350.972656 524.292969 351 525.394531 351 526.5 C 351 527.605469 350.972656 528.707031 350.917969 529.8125 C 350.863281 530.914062 350.78125 532.015625 350.675781 533.117188 C 350.566406 534.214844 350.429688 535.3125 350.269531 536.40625 C 350.105469 537.496094 349.917969 538.585938 349.703125 539.667969 C 349.488281 540.753906 349.246094 541.828125 348.976562 542.902344 C 348.707031 543.972656 348.414062 545.035156 348.09375 546.09375 C 347.773438 547.152344 347.425781 548.199219 347.054688 549.238281 C 346.683594 550.28125 346.285156 551.308594 345.863281 552.332031 C 345.4375 553.351562 344.992188 554.359375 344.519531 555.359375 C 344.046875 556.359375 343.550781 557.34375 343.03125 558.320312 C 342.507812 559.292969 341.964844 560.253906 341.398438 561.203125 C 340.828125 562.148438 340.238281 563.082031 339.625 564 C 339.011719 564.917969 338.375 565.824219 337.714844 566.710938 C 337.058594 567.597656 336.378906 568.46875 335.679688 569.320312 C 334.976562 570.175781 334.257812 571.011719 333.515625 571.832031 C 332.773438 572.648438 332.011719 573.449219 331.230469 574.230469 C 330.449219 575.011719 329.648438 575.773438 328.832031 576.515625 C 328.011719 577.257812 327.175781 577.976562 326.320312 578.679688 C 325.46875 579.378906 324.597656 580.058594 323.710938 580.714844 C 322.824219 581.375 321.917969 582.011719 321 582.625 C 320.082031 583.238281 319.148438 583.828125 318.203125 584.398438 C 317.253906 584.964844 316.292969 585.507812 315.320312 586.03125 C 314.34375 586.550781 313.359375 587.046875 312.359375 587.519531 C 311.359375 587.992188 310.351562 588.4375 309.332031 588.863281 C 308.308594 589.285156 307.28125 589.683594 306.238281 590.054688 C 305.199219 590.425781 304.152344 590.773438 303.09375 591.09375 C 302.035156 591.414062 300.972656 591.707031 299.902344 591.976562 C 298.828125 592.246094 297.753906 592.488281 296.667969 592.703125 C 295.585938 592.917969 294.496094 593.105469 293.402344 593.269531 C 292.3125 593.429688 291.214844 593.566406 290.117188 593.675781 C 289.015625 593.78125 287.914062 593.863281 286.8125 593.917969 C 285.707031 593.972656 284.605469 594 283.5 594 Z M 283.5 594 " fill-opacity="1" fill-rule="nonzero"/><path fill="#61c5fa" d="M 243 351 L 297 351 L 297 405 L 243 405 Z M 243 351 " fill-opacity="1" fill-rule="nonzero"/><path fill="#61c5fa" d="M 243 567 L 297 567 L 297 621 L 243 621 Z M 243 567 " fill-opacity="1" fill-rule="nonzero"/><path fill="#6dedd4" d="M 729 567 C 729 569.652344 728.933594 572.300781 728.804688 574.949219 C 728.675781 577.597656 728.480469 580.238281 728.21875 582.878906 C 727.960938 585.515625 727.636719 588.148438 727.246094 590.769531 C 726.859375 593.394531 726.40625 596.003906 725.886719 598.605469 C 725.371094 601.203125 724.789062 603.789062 724.144531 606.363281 C 723.5 608.933594 722.792969 611.488281 722.023438 614.027344 C 721.253906 616.5625 720.421875 619.078125 719.53125 621.574219 C 718.636719 624.074219 717.683594 626.546875 716.667969 628.996094 C 715.652344 631.445312 714.578125 633.867188 713.445312 636.265625 C 712.3125 638.660156 711.121094 641.027344 709.871094 643.367188 C 708.621094 645.703125 707.316406 648.011719 705.953125 650.285156 C 704.589844 652.558594 703.171875 654.796875 701.699219 657.003906 C 700.226562 659.207031 698.699219 661.375 697.121094 663.503906 C 695.539062 665.632812 693.910156 667.722656 692.226562 669.773438 C 690.546875 671.820312 688.8125 673.828125 687.035156 675.792969 C 685.253906 677.757812 683.425781 679.675781 681.550781 681.550781 C 679.675781 683.425781 677.757812 685.253906 675.792969 687.035156 C 673.828125 688.8125 671.820312 690.546875 669.773438 692.226562 C 667.722656 693.910156 665.632812 695.539062 663.503906 697.121094 C 661.375 698.699219 659.207031 700.226562 657.003906 701.699219 C 654.796875 703.171875 652.558594 704.589844 650.285156 705.953125 C 648.011719 707.316406 645.703125 708.621094 643.367188 709.871094 C 641.027344 711.121094 638.660156 712.3125 636.265625 713.445312 C 633.867188 714.578125 631.445312 715.652344 628.996094 716.667969 C 626.546875 717.683594 624.074219 718.636719 621.574219 719.53125 C 619.078125 720.421875 616.5625 721.253906 614.027344 722.023438 C 611.488281 722.792969 608.933594 723.5 606.363281 724.144531 C 603.789062 724.789062 601.203125 725.371094 598.605469 725.886719 C 596.003906 726.40625 593.394531 726.859375 590.769531 727.246094 C 588.148438 727.636719 585.515625 727.960938 582.878906 728.21875 C 580.238281 728.480469 577.597656 728.675781 574.949219 728.804688 C 572.300781 728.933594 569.652344 729 567 729 C 564.347656 729 561.699219 728.933594 559.050781 728.804688 C 556.402344 728.675781 553.757812 728.480469 551.121094 728.21875 C 548.484375 727.960938 545.851562 727.636719 543.230469 727.246094 C 540.605469 726.859375 537.996094 726.40625 535.394531 725.886719 C 532.796875 725.371094 530.207031 724.789062 527.636719 724.144531 C 525.066406 723.5 522.511719 722.792969 519.972656 722.023438 C 517.4375 721.253906 514.921875 720.421875 512.421875 719.53125 C 509.925781 718.636719 507.453125 717.683594 505.003906 716.667969 C 502.554688 715.652344 500.132812 714.578125 497.734375 713.445312 C 495.339844 712.3125 492.972656 711.121094 490.632812 709.871094 C 488.296875 708.621094 485.988281 707.316406 483.714844 705.953125 C 481.441406 704.589844 479.203125 703.171875 476.996094 701.699219 C 474.792969 700.226562 472.625 698.699219 470.496094 697.121094 C 468.367188 695.539062 466.277344 693.910156 464.226562 692.226562 C 462.179688 690.546875 460.171875 688.8125 458.207031 687.035156 C 456.242188 685.253906 454.324219 683.425781 452.449219 681.550781 C 450.574219 679.675781 448.746094 677.757812 446.964844 675.792969 C 445.183594 673.828125 443.453125 671.820312 441.773438 669.773438 C 440.089844 667.722656 438.460938 665.632812 436.878906 663.503906 C 435.300781 661.375 433.773438 659.207031 432.300781 657.003906 C 430.828125 654.796875 429.410156 652.558594 428.046875 650.285156 C 426.683594 648.011719 425.378906 645.703125 424.128906 643.367188 C 422.878906 641.027344 421.6875 638.660156 420.554688 636.265625 C 419.421875 633.867188 418.347656 631.445312 417.332031 628.996094 C 416.316406 626.546875 415.363281 624.074219 414.46875 621.574219 C 413.578125 619.078125 412.746094 616.5625 411.976562 614.027344 C 411.207031 611.488281 410.5 608.933594 409.855469 606.363281 C 409.210938 603.789062 408.628906 601.203125 408.113281 598.605469 C 407.59375 596.003906 407.140625 593.394531 406.753906 590.769531 C 406.363281 588.148438 406.039062 585.515625 405.78125 582.878906 C 405.519531 580.238281 405.324219 577.597656 405.195312 574.949219 C 405.066406 572.300781 405 569.652344 405 567 C 405 564.347656 405.066406 561.699219 405.195312 559.050781 C 405.324219 556.402344 405.519531 553.757812 405.78125 551.121094 C 406.039062 548.484375 406.363281 545.851562 406.753906 543.230469 C 407.140625 540.605469 407.59375 537.996094 408.113281 535.394531 C 408.628906 532.796875 409.210938 530.207031 409.855469 527.636719 C 410.5 525.066406 411.207031 522.511719 411.976562 519.972656 C 412.746094 517.4375 413.578125 514.921875 414.46875 512.421875 C 415.363281 509.925781 416.316406 507.453125 417.332031 505.003906 C 418.347656 502.554688 419.421875 500.132812 420.554688 497.734375 C 421.6875 495.339844 422.878906 492.972656 424.128906 490.632812 C 425.378906 488.296875 426.683594 485.988281 428.046875 483.714844 C 429.410156 481.441406 430.828125 479.203125 432.300781 476.996094 C 433.773438 474.792969 435.300781 472.625 436.878906 470.496094 C 438.460938 468.367188 440.089844 466.277344 441.773438 464.226562 C 443.453125 462.179688 445.183594 460.171875 446.964844 458.207031 C 448.746094 456.242188 450.574219 454.324219 452.449219 452.449219 C 454.324219 450.574219 456.242188 448.746094 458.207031 446.964844 C 460.171875 445.183594 462.179688 443.453125 464.226562 441.773438 C 466.277344 440.089844 468.367188 438.460938 470.496094 436.878906 C 472.625 435.300781 474.792969 433.773438 476.996094 432.300781 C 479.203125 430.828125 481.441406 429.410156 483.714844 428.046875 C 485.988281 426.683594 488.296875 425.378906 490.632812 424.128906 C 492.972656 422.878906 495.339844 421.6875 497.734375 420.554688 C 500.132812 419.421875 502.554688 418.347656 505.003906 417.332031 C 507.453125 416.316406 509.925781 415.363281 512.421875 414.46875 C 514.921875 413.578125 517.4375 412.746094 519.972656 411.976562 C 522.511719 411.207031 525.066406 410.5 527.636719 409.855469 C 530.207031 409.210938 532.796875 408.628906 535.394531 408.113281 C 537.996094 407.59375 540.605469 407.140625 543.230469 406.753906 C 545.851562 406.363281 548.484375 406.039062 551.121094 405.78125 C 553.757812 405.519531 556.402344 405.324219 559.050781 405.195312 C 561.699219 405.066406 564.347656 405 567 405 C 569.652344 405 572.300781 405.066406 574.949219 405.195312 C 577.597656 405.324219 580.238281 405.519531 582.878906 405.78125 C 585.515625 406.039062 588.148438 406.363281 590.769531 406.753906 C 593.394531 407.140625 596.003906 407.59375 598.605469 408.113281 C 601.203125 408.628906 603.789062 409.210938 606.363281 409.855469 C 608.933594 410.5 611.488281 411.207031 614.027344 411.976562 C 616.5625 412.746094 619.078125 413.578125 621.574219 414.46875 C 624.074219 415.363281 626.546875 416.316406 628.996094 417.332031 C 631.445312 418.347656 633.867188 419.421875 636.265625 420.554688 C 638.660156 421.6875 641.027344 422.878906 643.367188 424.128906 C 645.703125 425.378906 648.011719 426.683594 650.285156 428.046875 C 652.558594 429.410156 654.796875 430.828125 657.003906 432.300781 C 659.207031 433.773438 661.375 435.300781 663.503906 436.878906 C 665.632812 438.460938 667.722656 440.089844 669.773438 441.773438 C 671.820312 443.453125 673.828125 445.183594 675.792969 446.964844 C 677.757812 448.746094 679.675781 450.574219 681.550781 452.449219 C 683.425781 454.324219 685.253906 456.242188 687.035156 458.207031 C 688.8125 460.171875 690.546875 462.179688 692.226562 464.226562 C 693.910156 466.277344 695.539062 468.367188 697.121094 470.496094 C 698.699219 472.625 700.226562 474.792969 701.699219 476.996094 C 703.171875 479.203125 704.589844 481.441406 705.953125 483.714844 C 707.316406 485.988281 708.621094 488.296875 709.871094 490.632812 C 711.121094 492.972656 712.3125 495.339844 713.445312 497.734375 C 714.578125 500.132812 715.652344 502.554688 716.667969 505.003906 C 717.683594 507.453125 718.636719 509.925781 719.53125 512.421875 C 720.421875 514.921875 721.253906 517.4375 722.023438 519.972656 C 722.792969 522.511719 723.5 525.066406 724.144531 527.636719 C 724.789062 530.207031 725.371094 532.796875 725.886719 535.394531 C 726.40625 537.996094 726.859375 540.605469 727.246094 543.230469 C 727.636719 545.851562 727.960938 548.484375 728.21875 551.121094 C 728.480469 553.757812 728.675781 556.402344 728.804688 559.050781 C 728.933594 561.699219 729 564.347656 729 567 Z M 729 567 " fill-opacity="1" fill-rule="nonzero"/><path fill="#ffffff" d="M 324 216 C 324 217.769531 323.914062 219.53125 323.738281 221.292969 C 323.566406 223.054688 323.308594 224.800781 322.960938 226.535156 C 322.617188 228.269531 322.1875 229.984375 321.675781 231.675781 C 321.160156 233.367188 320.566406 235.03125 319.890625 236.664062 C 319.210938 238.300781 318.457031 239.894531 317.625 241.457031 C 316.789062 243.015625 315.882812 244.53125 314.898438 246 C 313.917969 247.472656 312.863281 248.890625 311.742188 250.257812 C 310.621094 251.625 309.433594 252.933594 308.183594 254.183594 C 306.933594 255.433594 305.625 256.621094 304.257812 257.742188 C 302.890625 258.863281 301.472656 259.917969 300 260.898438 C 298.53125 261.882812 297.015625 262.789062 295.457031 263.625 C 293.894531 264.457031 292.296875 265.210938 290.664062 265.890625 C 289.03125 266.566406 287.367188 267.160156 285.675781 267.675781 C 283.984375 268.1875 282.269531 268.617188 280.535156 268.960938 C 278.800781 269.308594 277.054688 269.566406 275.292969 269.738281 C 273.53125 269.914062 271.769531 270 270 270 C 268.230469 270 266.46875 269.914062 264.707031 269.738281 C 262.945312 269.566406 261.199219 269.308594 259.464844 268.960938 C 257.730469 268.617188 256.015625 268.1875 254.324219 267.675781 C 252.632812 267.160156 250.96875 266.566406 249.335938 265.890625 C 247.699219 265.210938 246.105469 264.457031 244.542969 263.625 C 242.984375 262.789062 241.46875 261.882812 240 260.898438 C 238.527344 259.917969 237.109375 258.863281 235.742188 257.742188 C 234.375 256.621094 233.066406 255.433594 231.816406 254.183594 C 230.566406 252.933594 229.378906 251.625 228.257812 250.257812 C 227.136719 248.890625 226.082031 247.472656 225.101562 246 C 224.117188 244.53125 223.210938 243.015625 222.375 241.457031 C 221.542969 239.894531 220.789062 238.300781 220.109375 236.664062 C 219.433594 235.03125 218.839844 233.367188 218.324219 231.675781 C 217.8125 229.984375 217.382812 228.269531 217.039062 226.535156 C 216.691406 224.800781 216.433594 223.054688 216.261719 221.292969 C 216.085938 219.53125 216 217.769531 216 216 C 216 214.230469 216.085938 212.46875 216.261719 210.707031 C 216.433594 208.945312 216.691406 207.199219 217.039062 205.464844 C 217.382812 203.730469 217.8125 202.015625 218.324219 200.324219 C 218.839844 198.632812 219.433594 196.96875 220.109375 195.335938 C 220.789062 193.703125 221.542969 192.105469 222.375 190.542969 C 223.210938 188.984375 224.117188 187.46875 225.101562 186 C 226.082031 184.527344 227.136719 183.109375 228.257812 181.742188 C 229.378906 180.375 230.566406 179.066406 231.816406 177.816406 C 233.066406 176.566406 234.375 175.378906 235.742188 174.257812 C 237.109375 173.136719 238.527344 172.082031 240 171.101562 C 241.46875 170.117188 242.984375 169.210938 244.542969 168.375 C 246.105469 167.542969 247.699219 166.789062 249.335938 166.109375 C 250.96875 165.433594 252.632812 164.839844 254.324219 164.324219 C 256.015625 163.8125 257.730469 163.382812 259.464844 163.039062 C 261.199219 162.691406 262.945312 162.433594 264.707031 162.261719 C 266.46875 162.085938 268.230469 162 270 162 C 271.769531 162 273.53125 162.085938 275.292969 162.261719 C 277.054688 162.433594 278.800781 162.691406 280.535156 163.039062 C 282.269531 163.382812 283.984375 163.8125 285.675781 164.324219 C 287.367188 164.839844 289.03125 165.433594 290.664062 166.109375 C 292.296875 166.789062 293.894531 167.542969 295.457031 168.375 C 297.015625 169.210938 298.53125 170.117188 300 171.101562 C 301.472656 172.082031 302.890625 173.136719 304.257812 174.257812 C 305.625 175.378906 306.933594 176.566406 308.183594 177.816406 C 309.433594 179.066406 310.621094 180.375 311.742188 181.742188 C 312.863281 183.109375 313.917969 184.527344 314.898438 186 C 315.882812 187.46875 316.789062 188.984375 317.625 190.542969 C 318.457031 192.105469 319.210938 193.703125 319.890625 195.335938 C 320.566406 196.96875 321.160156 198.632812 321.675781 200.324219 C 322.1875 202.015625 322.617188 203.730469 322.960938 205.464844 C 323.308594 207.199219 323.566406 208.945312 323.738281 210.707031 C 323.914062 212.46875 324 214.230469 324 216 Z M 324 216 " fill-opacity="1" fill-rule="nonzero"/><path fill="#61c5fa" d="M 243 81 L 297 81 L 297 216 L 243 216 Z M 243 81 " fill-opacity="1" fill-rule="nonzero"/><path fill="#ffffff" d="M 648 567 L 567 675 L 486 567 L 540 567 L 540 486 L 594 486 L 594 567 Z M 648 567 " fill-opacity="1" fill-rule="nonzero"/></svg>