<svg xmlns="http://www.w3.org/2000/svg" xmlns:xlink="http://www.w3.org/1999/xlink" width="1080" zoomAndPan="magnify" viewBox="0 0 810 809.999993" height="1080" preserveAspectRatio="xMidYMid meet" version="1.0"><defs><clipPath id="ae35b8f764"><path d="M 234 680 L 412 680 L 412 728.957031 L 234 728.957031 Z M 234 680 " clip-rule="nonzero"/></clipPath><clipPath id="1002628440"><path d="M 191.8125 340 L 454.3125 340 L 454.3125 418 L 191.8125 418 Z M 191.8125 340 " clip-rule="nonzero"/></clipPath><clipPath id="16e790e520"><path d="M 213 308.957031 L 433 308.957031 L 433 367 L 213 367 Z M 213 308.957031 " clip-rule="nonzero"/></clipPath><clipPath id="94c6262f65"><path d="M 290.136719 321 L 617 321 L 617 729 L 290.136719 729 Z M 290.136719 321 " clip-rule="nonzero"/></clipPath></defs><path fill="#d3aa7c" d="M 435.808594 489.636719 L 418.617188 644.613281 C 403.746094 654.957031 367.042969 662.105469 323.0625 662.105469 C 279.082031 662.105469 242.378906 654.957031 227.480469 644.621094 L 210.320312 489.636719 C 226.65625 502.234375 270.378906 511.039062 323.0625 511.039062 C 375.746094 511.039062 419.503906 502.234375 435.808594 489.636719 Z M 435.808594 489.636719 " fill-opacity="1" fill-rule="nonzero"/><g clip-path="url(#ae35b8f764)"><path fill="#f4f3f1" d="M 411.988281 704.761719 C 411.988281 705.15625 411.953125 705.550781 411.882812 705.945312 C 411.808594 706.339844 411.703125 706.734375 411.558594 707.128906 C 411.417969 707.523438 411.238281 707.914062 411.027344 708.304688 C 410.8125 708.695312 410.5625 709.085938 410.28125 709.472656 C 409.996094 709.859375 409.675781 710.246094 409.324219 710.628906 C 408.96875 711.011719 408.582031 711.394531 408.160156 711.773438 C 407.738281 712.148438 407.28125 712.523438 406.789062 712.898438 C 406.300781 713.269531 405.777344 713.636719 405.21875 714.003906 C 404.664062 714.367188 404.074219 714.730469 403.449219 715.085938 C 402.828125 715.445312 402.175781 715.796875 401.488281 716.144531 C 400.800781 716.496094 400.085938 716.839844 399.335938 717.175781 C 398.589844 717.515625 397.808594 717.851562 397 718.179688 C 396.191406 718.507812 395.355469 718.832031 394.488281 719.148438 C 393.621094 719.464844 392.726562 719.777344 391.804688 720.082031 C 390.878906 720.386719 389.929688 720.6875 388.953125 720.980469 C 387.976562 721.273438 386.972656 721.558594 385.941406 721.839844 C 384.914062 722.117188 383.859375 722.390625 382.78125 722.65625 C 381.703125 722.921875 380.601562 723.179688 379.476562 723.429688 C 378.351562 723.679688 377.203125 723.925781 376.035156 724.160156 C 374.867188 724.394531 373.675781 724.621094 372.464844 724.84375 C 371.257812 725.0625 370.027344 725.273438 368.777344 725.476562 C 367.53125 725.679688 366.265625 725.875 364.980469 726.0625 C 363.699219 726.246094 362.398438 726.425781 361.082031 726.59375 C 359.765625 726.761719 358.4375 726.921875 357.09375 727.074219 C 355.746094 727.226562 354.390625 727.367188 353.019531 727.5 C 351.648438 727.632812 350.269531 727.757812 348.875 727.871094 C 347.484375 727.988281 346.082031 728.09375 344.667969 728.1875 C 343.257812 728.285156 341.835938 728.371094 340.410156 728.449219 C 338.984375 728.527344 337.550781 728.59375 336.109375 728.652344 C 334.671875 728.710938 333.226562 728.757812 331.777344 728.796875 C 330.328125 728.835938 328.878906 728.863281 327.425781 728.882812 C 325.972656 728.902344 324.515625 728.914062 323.0625 728.914062 C 321.605469 728.914062 320.152344 728.902344 318.699219 728.882812 C 317.246094 728.863281 315.792969 728.835938 314.34375 728.796875 C 312.898438 728.757812 311.453125 728.710938 310.011719 728.652344 C 308.574219 728.59375 307.140625 728.527344 305.714844 728.449219 C 304.285156 728.371094 302.867188 728.285156 301.453125 728.1875 C 300.042969 728.09375 298.640625 727.988281 297.246094 727.871094 C 295.855469 727.757812 294.472656 727.632812 293.101562 727.5 C 291.734375 727.367188 290.375 727.226562 289.03125 727.074219 C 287.6875 726.921875 286.355469 726.761719 285.039062 726.59375 C 283.726562 726.425781 282.425781 726.246094 281.140625 726.0625 C 279.859375 725.875 278.59375 725.679688 277.34375 725.476562 C 276.097656 725.273438 274.867188 725.0625 273.65625 724.84375 C 272.445312 724.621094 271.257812 724.394531 270.089844 724.160156 C 268.917969 723.925781 267.773438 723.679688 266.648438 723.429688 C 265.523438 723.179688 264.421875 722.921875 263.34375 722.65625 C 262.265625 722.390625 261.210938 722.117188 260.179688 721.839844 C 259.152344 721.558594 258.148438 721.273438 257.171875 720.980469 C 256.195312 720.6875 255.242188 720.386719 254.320312 720.082031 C 253.398438 719.777344 252.503906 719.464844 251.636719 719.148438 C 250.769531 718.832031 249.929688 718.507812 249.121094 718.179688 C 248.3125 717.851562 247.535156 717.515625 246.785156 717.175781 C 246.039062 716.839844 245.320312 716.496094 244.636719 716.144531 C 243.949219 715.796875 243.296875 715.445312 242.671875 715.085938 C 242.050781 714.730469 241.460938 714.367188 240.902344 714.003906 C 240.347656 713.636719 239.824219 713.269531 239.332031 712.898438 C 238.84375 712.523438 238.386719 712.148438 237.964844 711.773438 C 237.542969 711.394531 237.152344 711.011719 236.800781 710.628906 C 236.445312 710.246094 236.128906 709.859375 235.84375 709.472656 C 235.558594 709.085938 235.3125 708.695312 235.097656 708.304688 C 234.882812 707.914062 234.707031 707.523438 234.5625 707.128906 C 234.421875 706.734375 234.3125 706.339844 234.242188 705.945312 C 234.171875 705.550781 234.136719 705.15625 234.136719 704.761719 C 234.136719 704.367188 234.171875 703.96875 234.242188 703.574219 C 234.3125 703.179688 234.421875 702.785156 234.5625 702.394531 C 234.707031 702 234.882812 701.609375 235.097656 701.21875 C 235.3125 700.824219 235.558594 700.4375 235.84375 700.050781 C 236.128906 699.660156 236.445312 699.277344 236.800781 698.890625 C 237.152344 698.507812 237.542969 698.128906 237.964844 697.75 C 238.386719 697.371094 238.84375 696.996094 239.332031 696.625 C 239.824219 696.253906 240.347656 695.882812 240.902344 695.519531 C 241.460938 695.152344 242.050781 694.792969 242.671875 694.433594 C 243.296875 694.078125 243.949219 693.722656 244.636719 693.375 C 245.320312 693.027344 246.039062 692.683594 246.785156 692.34375 C 247.535156 692.003906 248.3125 691.671875 249.121094 691.34375 C 249.929688 691.015625 250.769531 690.691406 251.636719 690.375 C 252.503906 690.054688 253.398438 689.746094 254.320312 689.4375 C 255.242188 689.132812 256.195312 688.835938 257.171875 688.542969 C 258.148438 688.25 259.152344 687.960938 260.179688 687.683594 C 261.210938 687.402344 262.265625 687.132812 263.34375 686.867188 C 264.421875 686.601562 265.523438 686.34375 266.648438 686.089844 C 267.773438 685.839844 268.917969 685.597656 270.089844 685.363281 C 271.257812 685.125 272.445312 684.898438 273.65625 684.679688 C 274.867188 684.460938 276.097656 684.25 277.34375 684.046875 C 278.59375 683.84375 279.859375 683.648438 281.140625 683.460938 C 282.425781 683.273438 283.726562 683.097656 285.039062 682.929688 C 286.355469 682.757812 287.6875 682.597656 289.03125 682.449219 C 290.375 682.296875 291.734375 682.152344 293.101562 682.019531 C 294.472656 681.886719 295.855469 681.765625 297.246094 681.648438 C 298.640625 681.535156 300.042969 681.429688 301.453125 681.332031 C 302.867188 681.238281 304.285156 681.148438 305.714844 681.074219 C 307.140625 680.996094 308.574219 680.929688 310.011719 680.871094 C 311.453125 680.8125 312.898438 680.765625 314.34375 680.726562 C 315.792969 680.6875 317.246094 680.65625 318.699219 680.636719 C 320.152344 680.617188 321.605469 680.609375 323.0625 680.609375 C 324.515625 680.609375 325.972656 680.617188 327.425781 680.636719 C 328.878906 680.65625 330.328125 680.6875 331.777344 680.726562 C 333.226562 680.765625 334.671875 680.8125 336.109375 680.871094 C 337.550781 680.929688 338.984375 680.996094 340.410156 681.074219 C 341.835938 681.148438 343.257812 681.238281 344.667969 681.332031 C 346.082031 681.429688 347.484375 681.535156 348.875 681.648438 C 350.269531 681.765625 351.648438 681.886719 353.019531 682.019531 C 354.390625 682.152344 355.746094 682.296875 357.09375 682.449219 C 358.4375 682.597656 359.765625 682.757812 361.082031 682.929688 C 362.398438 683.097656 363.699219 683.273438 364.980469 683.460938 C 366.265625 683.648438 367.53125 683.84375 368.777344 684.046875 C 370.027344 684.25 371.257812 684.460938 372.464844 684.679688 C 373.675781 684.898438 374.867188 685.125 376.035156 685.363281 C 377.203125 685.597656 378.351562 685.839844 379.476562 686.089844 C 380.601562 686.34375 381.703125 686.601562 382.78125 686.867188 C 383.859375 687.132812 384.914062 687.402344 385.941406 687.683594 C 386.972656 687.960938 387.976562 688.25 388.953125 688.542969 C 389.929688 688.835938 390.878906 689.132812 391.804688 689.4375 C 392.726562 689.746094 393.621094 690.054688 394.488281 690.375 C 395.355469 690.691406 396.191406 691.015625 397 691.34375 C 397.808594 691.671875 398.589844 692.003906 399.335938 692.34375 C 400.085938 692.683594 400.800781 693.027344 401.488281 693.375 C 402.175781 693.722656 402.828125 694.078125 403.449219 694.433594 C 404.074219 694.792969 404.664062 695.152344 405.21875 695.519531 C 405.777344 695.882812 406.300781 696.253906 406.789062 696.625 C 407.28125 696.996094 407.738281 697.371094 408.160156 697.75 C 408.582031 698.128906 408.96875 698.507812 409.324219 698.890625 C 409.675781 699.277344 409.996094 699.660156 410.28125 700.050781 C 410.5625 700.4375 410.8125 700.824219 411.027344 701.21875 C 411.238281 701.609375 411.417969 702 411.558594 702.394531 C 411.703125 702.785156 411.808594 703.179688 411.882812 703.574219 C 411.953125 703.96875 411.988281 704.367188 411.988281 704.761719 Z M 411.988281 704.761719 " fill-opacity="1" fill-rule="nonzero"/></g><path fill="#f4f3f1" d="M 323.0625 662.105469 C 367.042969 662.105469 403.746094 654.96875 418.652344 644.621094 L 411.988281 704.769531 L 234.144531 704.769531 L 227.480469 644.621094 C 242.378906 654.949219 279.082031 662.105469 323.0625 662.105469 Z M 323.0625 662.105469 " fill-opacity="1" fill-rule="nonzero"/><path fill="#f4f3f1" d="M 449.171875 368.929688 L 445.320312 403.722656 L 435.808594 489.636719 C 419.503906 502.234375 375.753906 511.039062 323.0625 511.039062 C 270.371094 511.039062 226.65625 502.234375 210.320312 489.636719 L 200.8125 403.722656 L 196.960938 368.929688 Z M 449.171875 368.929688 " fill-opacity="1" fill-rule="nonzero"/><path fill="#e2e0de" d="M 396.628906 653.851562 C 403.246094 652.160156 409.570312 649.710938 415.597656 646.507812 L 409.921875 701.480469 L 409.148438 708.972656 C 405.511719 712.136719 399.613281 715.019531 391.9375 717.457031 L 393.117188 701.5 Z M 396.628906 653.851562 " fill-opacity="1" fill-rule="nonzero"/><path fill="#e2e0de" d="M 443.324219 378.320312 L 431.523438 492.5 C 425.644531 495.941406 417.613281 499.035156 407.878906 501.667969 L 415.554688 397.753906 Z M 443.324219 378.320312 " fill-opacity="1" fill-rule="nonzero"/><path fill="#e2e0de" d="M 449.171875 368.929688 L 445.320312 403.695312 C 419.652344 416.59375 371.160156 423.253906 323.0625 423.253906 C 274.964844 423.253906 226.46875 416.59375 200.8125 403.695312 L 196.960938 368.929688 Z M 449.171875 368.929688 " fill-opacity="1" fill-rule="nonzero"/><path fill="#513120" d="M 449.519531 358.253906 L 445.660156 353.183594 L 444.496094 353.183594 C 424.976562 337.648438 373.777344 329.617188 323.0625 329.617188 C 272.613281 329.617188 221.652344 337.597656 201.929688 352.945312 L 200.625 352.945312 L 196.605469 358.261719 C 195.578125 359.578125 194.785156 361.019531 194.230469 362.589844 C 193.675781 364.164062 193.382812 365.78125 193.359375 367.449219 C 193.359375 392.273438 258.605469 405.289062 323.054688 405.289062 C 387.5 405.289062 452.757812 392.292969 452.757812 367.449219 C 452.734375 365.78125 452.445312 364.160156 451.890625 362.585938 C 451.335938 361.011719 450.546875 359.570312 449.519531 358.253906 Z M 449.519531 358.253906 " fill-opacity="1" fill-rule="nonzero"/><g clip-path="url(#1002628440)"><path fill="#513120" d="M 454.210938 377.679688 L 452.722656 366.4375 L 448.460938 366.4375 L 447.097656 364.664062 L 445.914062 364.664062 C 426.167969 348.917969 374.371094 340.777344 323.0625 340.777344 C 272.019531 340.777344 220.488281 348.839844 200.507812 364.390625 L 199.195312 364.390625 L 197.644531 366.4375 L 193.402344 366.4375 L 192.105469 376.394531 C 192 376.960938 191.925781 377.53125 191.886719 378.105469 L 191.886719 378.203125 C 191.886719 378.488281 191.886719 378.769531 191.886719 379.089844 C 191.886719 404.21875 257.894531 417.367188 323.097656 417.367188 C 388.300781 417.367188 454.316406 404.21875 454.316406 379.089844 C 454.28125 378.59375 454.253906 378.132812 454.210938 377.679688 Z M 454.210938 377.679688 " fill-opacity="1" fill-rule="nonzero"/></g><path fill="#634230" d="M 448.230469 361.261719 C 448.230469 361.859375 448.179688 362.457031 448.082031 363.050781 C 447.980469 363.648438 447.828125 364.246094 447.628906 364.839844 C 447.429688 365.433594 447.175781 366.027344 446.875 366.617188 C 446.574219 367.210938 446.226562 367.796875 445.828125 368.386719 C 445.425781 368.972656 444.976562 369.554688 444.480469 370.132812 C 443.984375 370.714844 443.4375 371.289062 442.839844 371.863281 C 442.246094 372.433594 441.605469 373 440.914062 373.5625 C 440.222656 374.125 439.488281 374.683594 438.703125 375.234375 C 437.917969 375.789062 437.089844 376.335938 436.214844 376.875 C 435.339844 377.414062 434.417969 377.949219 433.453125 378.476562 C 432.484375 379.003906 431.476562 379.523438 430.421875 380.035156 C 429.371094 380.546875 428.273438 381.054688 427.136719 381.550781 C 426 382.046875 424.820312 382.535156 423.597656 383.015625 C 422.378906 383.496094 421.117188 383.964844 419.820312 384.429688 C 418.519531 384.890625 417.183594 385.34375 415.804688 385.785156 C 414.429688 386.230469 413.019531 386.660156 411.570312 387.085938 C 410.121094 387.507812 408.636719 387.917969 407.121094 388.320312 C 405.601562 388.722656 404.050781 389.113281 402.46875 389.492188 C 400.886719 389.871094 399.269531 390.238281 397.625 390.59375 C 395.980469 390.949219 394.304688 391.292969 392.601562 391.625 C 390.898438 391.957031 389.167969 392.277344 387.410156 392.585938 C 385.65625 392.890625 383.871094 393.1875 382.066406 393.46875 C 380.257812 393.75 378.429688 394.019531 376.578125 394.273438 C 374.726562 394.53125 372.855469 394.773438 370.960938 395 C 369.070312 395.230469 367.160156 395.445312 365.230469 395.644531 C 363.300781 395.847656 361.355469 396.035156 359.398438 396.207031 C 357.4375 396.382812 355.460938 396.539062 353.476562 396.6875 C 351.488281 396.832031 349.492188 396.960938 347.480469 397.078125 C 345.472656 397.195312 343.453125 397.296875 341.429688 397.386719 C 339.402344 397.472656 337.367188 397.546875 335.332031 397.605469 C 333.292969 397.664062 331.25 397.707031 329.203125 397.738281 C 327.15625 397.765625 325.109375 397.78125 323.0625 397.78125 C 321.011719 397.78125 318.964844 397.765625 316.917969 397.738281 C 314.875 397.707031 312.832031 397.664062 310.792969 397.605469 C 308.753906 397.546875 306.722656 397.472656 304.695312 397.386719 C 302.667969 397.296875 300.652344 397.195312 298.640625 397.078125 C 296.632812 396.960938 294.636719 396.832031 292.648438 396.6875 C 290.660156 396.539062 288.6875 396.382812 286.726562 396.207031 C 284.765625 396.035156 282.820312 395.847656 280.894531 395.644531 C 278.964844 395.445312 277.054688 395.230469 275.160156 395 C 273.269531 394.773438 271.394531 394.53125 269.542969 394.273438 C 267.691406 394.019531 265.863281 393.75 264.058594 393.46875 C 262.25 393.1875 260.46875 392.890625 258.710938 392.585938 C 256.953125 392.277344 255.222656 391.957031 253.519531 391.625 C 251.816406 391.292969 250.144531 390.949219 248.5 390.59375 C 246.851562 390.238281 245.238281 389.871094 243.65625 389.492188 C 242.070312 389.113281 240.519531 388.722656 239.003906 388.320312 C 237.484375 387.917969 236 387.507812 234.554688 387.085938 C 233.105469 386.660156 231.691406 386.230469 230.316406 385.785156 C 228.941406 385.34375 227.605469 384.890625 226.304688 384.429688 C 225.003906 383.964844 223.746094 383.496094 222.523438 383.015625 C 221.304688 382.535156 220.125 382.046875 218.988281 381.550781 C 217.847656 381.054688 216.753906 380.546875 215.699219 380.035156 C 214.648438 379.523438 213.636719 379.003906 212.671875 378.476562 C 211.707031 377.949219 210.785156 377.414062 209.910156 376.875 C 209.035156 376.335938 208.203125 375.789062 207.417969 375.234375 C 206.636719 374.683594 205.898438 374.125 205.207031 373.5625 C 204.519531 373 203.875 372.433594 203.28125 371.863281 C 202.6875 371.289062 202.140625 370.714844 201.644531 370.132812 C 201.144531 369.554688 200.695312 368.972656 200.296875 368.386719 C 199.898438 367.796875 199.546875 367.210938 199.246094 366.617188 C 198.945312 366.027344 198.695312 365.433594 198.496094 364.839844 C 198.292969 364.246094 198.144531 363.648438 198.042969 363.050781 C 197.941406 362.457031 197.890625 361.859375 197.890625 361.261719 C 197.890625 360.664062 197.941406 360.066406 198.042969 359.46875 C 198.144531 358.871094 198.292969 358.273438 198.496094 357.679688 C 198.695312 357.085938 198.945312 356.492188 199.246094 355.902344 C 199.546875 355.308594 199.898438 354.722656 200.296875 354.136719 C 200.695312 353.550781 201.144531 352.964844 201.644531 352.386719 C 202.140625 351.804688 202.6875 351.230469 203.28125 350.660156 C 203.875 350.085938 204.519531 349.519531 205.207031 348.957031 C 205.898438 348.394531 206.636719 347.835938 207.417969 347.285156 C 208.203125 346.730469 209.035156 346.1875 209.910156 345.644531 C 210.785156 345.105469 211.707031 344.570312 212.671875 344.042969 C 213.636719 343.515625 214.648438 342.996094 215.699219 342.484375 C 216.753906 341.972656 217.847656 341.46875 218.988281 340.96875 C 220.125 340.472656 221.304688 339.984375 222.523438 339.503906 C 223.746094 339.023438 225.003906 338.554688 226.304688 338.089844 C 227.605469 337.628906 228.941406 337.175781 230.316406 336.734375 C 231.691406 336.292969 233.105469 335.859375 234.554688 335.4375 C 236 335.011719 237.484375 334.601562 239.003906 334.199219 C 240.519531 333.796875 242.070312 333.410156 243.65625 333.027344 C 245.238281 332.648438 246.851562 332.28125 248.5 331.925781 C 250.144531 331.570312 251.816406 331.226562 253.519531 330.894531 C 255.222656 330.5625 256.953125 330.242188 258.710938 329.933594 C 260.46875 329.628906 262.25 329.332031 264.058594 329.050781 C 265.863281 328.769531 267.691406 328.5 269.542969 328.246094 C 271.394531 327.992188 273.269531 327.75 275.160156 327.519531 C 277.054688 327.289062 278.964844 327.074219 280.894531 326.875 C 282.820312 326.671875 284.765625 326.484375 286.726562 326.3125 C 288.6875 326.136719 290.660156 325.980469 292.648438 325.832031 C 294.636719 325.6875 296.632812 325.558594 298.640625 325.441406 C 300.652344 325.324219 302.667969 325.222656 304.695312 325.136719 C 306.722656 325.046875 308.753906 324.972656 310.792969 324.914062 C 312.832031 324.855469 314.875 324.8125 316.917969 324.785156 C 318.964844 324.753906 321.011719 324.738281 323.0625 324.738281 C 325.109375 324.738281 327.15625 324.753906 329.203125 324.785156 C 331.25 324.8125 333.292969 324.855469 335.332031 324.914062 C 337.367188 324.972656 339.402344 325.046875 341.429688 325.136719 C 343.453125 325.222656 345.472656 325.324219 347.480469 325.441406 C 349.492188 325.558594 351.488281 325.6875 353.476562 325.832031 C 355.460938 325.980469 357.4375 326.136719 359.398438 326.3125 C 361.355469 326.484375 363.300781 326.671875 365.230469 326.875 C 367.160156 327.074219 369.070312 327.289062 370.960938 327.519531 C 372.855469 327.75 374.726562 327.992188 376.578125 328.246094 C 378.429688 328.5 380.257812 328.769531 382.066406 329.050781 C 383.871094 329.332031 385.65625 329.628906 387.410156 329.933594 C 389.167969 330.242188 390.898438 330.5625 392.601562 330.894531 C 394.304688 331.226562 395.980469 331.570312 397.625 331.925781 C 399.269531 332.28125 400.886719 332.648438 402.46875 333.027344 C 404.050781 333.410156 405.601562 333.796875 407.121094 334.199219 C 408.636719 334.601562 410.121094 335.011719 411.570312 335.4375 C 413.019531 335.859375 414.429688 336.292969 415.804688 336.734375 C 417.183594 337.175781 418.519531 337.628906 419.820312 338.089844 C 421.117188 338.554688 422.378906 339.023438 423.597656 339.503906 C 424.820312 339.984375 426 340.472656 427.136719 340.96875 C 428.273438 341.46875 429.371094 341.972656 430.421875 342.484375 C 431.476562 342.996094 432.484375 343.515625 433.453125 344.042969 C 434.417969 344.570312 435.339844 345.105469 436.214844 345.644531 C 437.089844 346.1875 437.917969 346.730469 438.703125 347.285156 C 439.488281 347.835938 440.222656 348.394531 440.914062 348.957031 C 441.605469 349.519531 442.246094 350.085938 442.839844 350.660156 C 443.4375 351.230469 443.984375 351.804688 444.480469 352.386719 C 444.976562 352.964844 445.425781 353.550781 445.828125 354.136719 C 446.226562 354.722656 446.574219 355.308594 446.875 355.902344 C 447.175781 356.492188 447.429688 357.085938 447.628906 357.679688 C 447.828125 358.273438 447.980469 358.871094 448.082031 359.46875 C 448.179688 360.066406 448.230469 360.664062 448.230469 361.261719 Z M 448.230469 361.261719 " fill-opacity="1" fill-rule="nonzero"/><path fill="#513120" d="M 441.898438 356.613281 L 432.269531 335.398438 L 393.667969 335.824219 C 373.847656 332.046875 349.457031 329.8125 323.0625 329.8125 C 296.667969 329.8125 272.222656 332.011719 252.386719 335.824219 L 213.828125 335.421875 L 203.976562 357.101562 C 203.292969 358.40625 202.9375 359.796875 202.921875 361.269531 C 202.921875 378.664062 256.714844 392.761719 323.0625 392.761719 C 389.410156 392.761719 443.199219 378.664062 443.199219 361.269531 C 443.183594 359.601562 442.746094 358.050781 441.898438 356.613281 Z M 441.898438 356.613281 " fill-opacity="1" fill-rule="nonzero"/><g clip-path="url(#16e790e520)"><path fill="#513120" d="M 432.652344 337.65625 C 432.652344 338.128906 432.609375 338.597656 432.519531 339.066406 C 432.433594 339.535156 432.300781 340.003906 432.125 340.472656 C 431.949219 340.941406 431.730469 341.40625 431.464844 341.871094 C 431.203125 342.339844 430.894531 342.800781 430.546875 343.261719 C 430.195312 343.722656 429.804688 344.183594 429.367188 344.636719 C 428.933594 345.09375 428.453125 345.546875 427.933594 345.996094 C 427.414062 346.445312 426.851562 346.894531 426.246094 347.335938 C 425.640625 347.777344 424.996094 348.21875 424.308594 348.652344 C 423.625 349.085938 422.898438 349.515625 422.128906 349.941406 C 421.363281 350.363281 420.558594 350.785156 419.710938 351.199219 C 418.867188 351.613281 417.980469 352.023438 417.058594 352.425781 C 416.136719 352.828125 415.179688 353.226562 414.183594 353.617188 C 413.1875 354.007812 412.152344 354.394531 411.085938 354.769531 C 410.015625 355.148438 408.914062 355.519531 407.777344 355.882812 C 406.636719 356.246094 405.46875 356.601562 404.261719 356.949219 C 403.058594 357.296875 401.820312 357.636719 400.554688 357.972656 C 399.285156 358.304688 397.988281 358.628906 396.65625 358.941406 C 395.328125 359.257812 393.972656 359.566406 392.585938 359.863281 C 391.199219 360.164062 389.785156 360.453125 388.34375 360.730469 C 386.902344 361.011719 385.4375 361.28125 383.945312 361.542969 C 382.457031 361.804688 380.941406 362.054688 379.402344 362.296875 C 377.863281 362.539062 376.304688 362.769531 374.722656 362.992188 C 373.140625 363.214844 371.539062 363.425781 369.917969 363.625 C 368.296875 363.828125 366.65625 364.019531 365 364.199219 C 363.34375 364.378906 361.671875 364.546875 359.980469 364.707031 C 358.292969 364.863281 356.589844 365.011719 354.875 365.148438 C 353.15625 365.285156 351.429688 365.410156 349.691406 365.523438 C 347.949219 365.636719 346.199219 365.742188 344.441406 365.832031 C 342.683594 365.925781 340.914062 366.003906 339.140625 366.074219 C 337.367188 366.144531 335.589844 366.199219 333.804688 366.246094 C 332.019531 366.292969 330.230469 366.328125 328.4375 366.351562 C 326.648438 366.375 324.855469 366.386719 323.0625 366.386719 C 321.269531 366.386719 319.476562 366.375 317.683594 366.351562 C 315.894531 366.328125 314.105469 366.292969 312.320312 366.246094 C 310.535156 366.199219 308.753906 366.144531 306.980469 366.074219 C 305.207031 366.003906 303.441406 365.925781 301.683594 365.832031 C 299.921875 365.742188 298.171875 365.636719 296.433594 365.523438 C 294.695312 365.410156 292.964844 365.285156 291.25 365.148438 C 289.53125 365.011719 287.832031 364.863281 286.140625 364.707031 C 284.453125 364.546875 282.78125 364.378906 281.125 364.199219 C 279.464844 364.019531 277.828125 363.828125 276.207031 363.625 C 274.585938 363.425781 272.984375 363.214844 271.402344 362.992188 C 269.820312 362.769531 268.257812 362.539062 266.722656 362.296875 C 265.183594 362.054688 263.667969 361.804688 262.175781 361.542969 C 260.683594 361.28125 259.21875 361.011719 257.777344 360.730469 C 256.339844 360.453125 254.925781 360.164062 253.539062 359.863281 C 252.152344 359.566406 250.792969 359.257812 249.464844 358.941406 C 248.136719 358.628906 246.839844 358.304688 245.570312 357.972656 C 244.300781 357.636719 243.066406 357.296875 241.859375 356.949219 C 240.65625 356.601562 239.484375 356.246094 238.347656 355.882812 C 237.210938 355.519531 236.105469 355.148438 235.039062 354.769531 C 233.96875 354.394531 232.9375 354.007812 231.941406 353.617188 C 230.945312 353.226562 229.984375 352.828125 229.0625 352.425781 C 228.140625 352.023438 227.257812 351.613281 226.410156 351.199219 C 225.566406 350.785156 224.761719 350.363281 223.992188 349.941406 C 223.226562 349.515625 222.5 349.085938 221.8125 348.652344 C 221.128906 348.21875 220.480469 347.777344 219.878906 347.335938 C 219.273438 346.894531 218.710938 346.445312 218.191406 345.996094 C 217.667969 345.546875 217.191406 345.09375 216.753906 344.636719 C 216.320312 344.183594 215.925781 343.722656 215.578125 343.261719 C 215.226562 342.800781 214.921875 342.339844 214.65625 341.871094 C 214.394531 341.40625 214.175781 340.941406 214 340.472656 C 213.824219 340.003906 213.691406 339.535156 213.601562 339.066406 C 213.515625 338.597656 213.472656 338.128906 213.472656 337.65625 C 213.472656 337.1875 213.515625 336.71875 213.601562 336.25 C 213.691406 335.777344 213.824219 335.308594 214 334.84375 C 214.175781 334.375 214.394531 333.90625 214.65625 333.441406 C 214.921875 332.976562 215.226562 332.515625 215.578125 332.054688 C 215.925781 331.59375 216.320312 331.132812 216.753906 330.675781 C 217.191406 330.222656 217.667969 329.769531 218.191406 329.320312 C 218.710938 328.867188 219.273438 328.421875 219.878906 327.980469 C 220.480469 327.539062 221.128906 327.097656 221.8125 326.664062 C 222.5 326.230469 223.226562 325.800781 223.992188 325.375 C 224.761719 324.949219 225.566406 324.53125 226.410156 324.117188 C 227.257812 323.703125 228.140625 323.292969 229.0625 322.890625 C 229.984375 322.484375 230.945312 322.089844 231.941406 321.699219 C 232.9375 321.308594 233.96875 320.921875 235.039062 320.546875 C 236.105469 320.167969 237.210938 319.796875 238.347656 319.433594 C 239.484375 319.070312 240.65625 318.714844 241.859375 318.367188 C 243.066406 318.015625 244.300781 317.675781 245.570312 317.34375 C 246.839844 317.011719 248.136719 316.6875 249.464844 316.371094 C 250.792969 316.058594 252.152344 315.75 253.539062 315.453125 C 254.925781 315.152344 256.339844 314.863281 257.777344 314.585938 C 259.21875 314.304688 260.683594 314.035156 262.175781 313.773438 C 263.667969 313.511719 265.183594 313.257812 266.722656 313.019531 C 268.257812 312.777344 269.820312 312.542969 271.402344 312.324219 C 272.984375 312.101562 274.585938 311.890625 276.207031 311.6875 C 277.828125 311.488281 279.464844 311.296875 281.125 311.117188 C 282.78125 310.9375 284.453125 310.769531 286.140625 310.609375 C 287.832031 310.453125 289.53125 310.304688 291.25 310.167969 C 292.964844 310.03125 294.695312 309.90625 296.433594 309.792969 C 298.171875 309.675781 299.921875 309.574219 301.683594 309.484375 C 303.441406 309.390625 305.207031 309.3125 306.980469 309.242188 C 308.753906 309.171875 310.535156 309.113281 312.320312 309.070312 C 314.105469 309.023438 315.894531 308.988281 317.683594 308.964844 C 319.476562 308.941406 321.269531 308.929688 323.0625 308.929688 C 324.855469 308.929688 326.648438 308.941406 328.4375 308.964844 C 330.230469 308.988281 332.019531 309.023438 333.804688 309.070312 C 335.589844 309.113281 337.367188 309.171875 339.140625 309.242188 C 340.914062 309.3125 342.683594 309.390625 344.441406 309.484375 C 346.199219 309.574219 347.949219 309.675781 349.691406 309.792969 C 351.429688 309.90625 353.15625 310.03125 354.875 310.167969 C 356.589844 310.304688 358.292969 310.453125 359.980469 310.609375 C 361.671875 310.769531 363.34375 310.9375 365 311.117188 C 366.65625 311.296875 368.296875 311.488281 369.917969 311.6875 C 371.539062 311.890625 373.140625 312.101562 374.722656 312.324219 C 376.304688 312.542969 377.863281 312.777344 379.402344 313.019531 C 380.941406 313.257812 382.457031 313.511719 383.945312 313.773438 C 385.4375 314.035156 386.902344 314.304688 388.34375 314.585938 C 389.785156 314.863281 391.199219 315.152344 392.585938 315.453125 C 393.972656 315.75 395.328125 316.058594 396.65625 316.371094 C 397.988281 316.6875 399.285156 317.011719 400.554688 317.34375 C 401.820312 317.675781 403.058594 318.015625 404.261719 318.367188 C 405.46875 318.714844 406.636719 319.070312 407.777344 319.433594 C 408.914062 319.796875 410.015625 320.167969 411.085938 320.546875 C 412.152344 320.921875 413.1875 321.308594 414.183594 321.699219 C 415.179688 322.089844 416.136719 322.484375 417.058594 322.890625 C 417.980469 323.292969 418.867188 323.703125 419.710938 324.117188 C 420.558594 324.53125 421.363281 324.949219 422.128906 325.375 C 422.898438 325.800781 423.625 326.230469 424.308594 326.664062 C 424.996094 327.097656 425.640625 327.539062 426.246094 327.980469 C 426.851562 328.421875 427.414062 328.867188 427.933594 329.320312 C 428.453125 329.769531 428.933594 330.222656 429.367188 330.675781 C 429.804688 331.132812 430.195312 331.59375 430.546875 332.054688 C 430.894531 332.515625 431.203125 332.976562 431.464844 333.441406 C 431.730469 333.90625 431.949219 334.375 432.125 334.84375 C 432.300781 335.308594 432.433594 335.777344 432.519531 336.25 C 432.609375 336.71875 432.652344 337.1875 432.652344 337.65625 Z M 432.652344 337.65625 " fill-opacity="1" fill-rule="nonzero"/></g><path fill="#634230" d="M 323.0625 358.484375 C 294.269531 358.484375 267.273438 355.558594 247.035156 350.257812 C 226.628906 344.9375 219.222656 338.5 219.222656 335.503906 C 219.222656 332.507812 226.628906 326.070312 247.035156 320.75 C 267.273438 315.429688 294.269531 312.523438 323.0625 312.523438 C 351.851562 312.523438 378.859375 315.429688 399.097656 320.75 C 419.503906 326.070312 426.910156 332.496094 426.910156 335.503906 C 426.910156 338.507812 419.503906 344.910156 399.097656 350.257812 C 378.859375 355.558594 351.859375 358.484375 323.0625 358.484375 Z M 323.0625 358.484375 " fill-opacity="1" fill-rule="nonzero"/><path fill="#513120" d="M 323.0625 351.355469 C 301.394531 351.355469 281.078125 349.15625 265.84375 345.148438 C 250.609375 341.140625 244.914062 336.285156 244.914062 334.050781 C 244.914062 331.816406 250.496094 326.957031 265.84375 322.941406 C 281.195312 318.921875 301.394531 316.734375 323.0625 316.734375 C 344.726562 316.734375 365.054688 318.933594 380.289062 322.941406 C 395.519531 326.945312 401.207031 331.804688 401.207031 334.050781 C 401.207031 336.292969 395.636719 341.140625 380.289062 345.148438 C 364.9375 349.15625 344.738281 351.355469 323.0625 351.355469 Z M 323.0625 351.355469 " fill-opacity="1" fill-rule="nonzero"/><path fill="#3d2114" d="M 401.21875 334.050781 C 401.175781 334.585938 400.988281 335.066406 400.648438 335.484375 C 398.875 332.96875 392.886719 329.128906 380.289062 325.820312 C 365.0625 321.832031 344.738281 319.613281 323.070312 319.613281 C 301.40625 319.613281 281.078125 321.804688 265.84375 325.820312 C 253.246094 329.128906 247.210938 332.96875 245.492188 335.484375 C 245.152344 335.066406 244.964844 334.585938 244.921875 334.050781 C 244.921875 331.789062 250.488281 326.957031 265.84375 322.941406 C 281.203125 318.921875 301.394531 316.734375 323.070312 316.734375 C 344.746094 316.734375 365.0625 318.933594 380.289062 322.941406 C 395.511719 326.945312 401.21875 331.804688 401.21875 334.050781 Z M 401.21875 334.050781 " fill-opacity="1" fill-rule="nonzero"/><path fill="#c49a70" d="M 431.523438 492.5 L 415.597656 646.507812 C 409.570312 649.710938 403.246094 652.160156 396.628906 653.851562 L 407.878906 501.667969 C 417.613281 499.035156 425.644531 495.941406 431.523438 492.5 Z M 431.523438 492.5 " fill-opacity="1" fill-rule="nonzero"/><path fill="#408159" d="M 445.421875 182.03125 C 445.421875 176.234375 445.238281 170.441406 445.421875 164.648438 C 446.144531 140.566406 445.78125 116.667969 445.964844 92.585938 C 445.964844 92.40625 445.964844 92.40625 445.964844 92.226562 C 446.144531 85.886719 447.773438 83.714844 453.921875 82.085938 C 457 81.363281 460.074219 81 463.148438 82.085938 C 465.5 82.992188 466.222656 83.714844 466.222656 86.25 C 465.863281 95.484375 467.128906 104.71875 466.945312 113.953125 C 466.765625 128.4375 467.488281 142.921875 467.851562 157.40625 C 468.394531 175.511719 468.214844 193.796875 468.214844 211.902344 C 468.214844 218.421875 463.691406 221.5 457.539062 219.328125 C 452.65625 217.515625 449.039062 214.257812 446.507812 209.730469 C 445.601562 208.28125 445.601562 206.472656 445.601562 204.84375 C 445.421875 197.601562 445.421875 189.816406 445.421875 182.03125 Z M 445.421875 182.03125 " fill-opacity="1" fill-rule="nonzero"/><path fill="#ff85a8" d="M 366.371094 699.667969 C 366.371094 698.402344 366.1875 697.132812 366.371094 696.046875 C 366.550781 693.332031 366.371094 690.976562 364.378906 688.988281 C 363.292969 687.71875 362.753906 686.089844 362.570312 684.460938 C 361.847656 678.667969 361.304688 672.871094 361.125 667.078125 C 360.761719 658.207031 359.675781 649.515625 358.773438 640.824219 C 358.410156 637.566406 357.867188 634.308594 357.867188 631.230469 C 357.867188 628.152344 356.421875 625.980469 354.25 623.988281 C 352.441406 622.359375 350.632812 620.726562 348.824219 618.917969 C 347.558594 617.832031 347.015625 616.382812 346.832031 614.753906 C 345.386719 600.992188 343.9375 587.234375 342.492188 573.472656 C 341.042969 559.351562 339.597656 545.226562 338.152344 531.285156 C 336.703125 517.707031 335.257812 504.308594 333.808594 490.730469 C 332.542969 478.78125 331.457031 466.832031 330.191406 454.699219 C 328.742188 441.121094 327.296875 427.359375 326.210938 413.78125 C 326.210938 412.875 325.847656 411.972656 325.488281 411.246094 C 323.859375 408.351562 323.496094 405.273438 323.859375 402.195312 C 324.222656 398.933594 324.402344 395.855469 321.871094 393.140625 C 320.242188 391.332031 320.242188 388.796875 320.421875 386.441406 C 320.605469 383.546875 320.605469 380.648438 321.144531 377.75 C 321.6875 375.398438 321.507812 373.40625 319.335938 371.777344 C 317.710938 370.691406 317.347656 368.878906 317.347656 366.886719 C 317.347656 363.628906 317.347656 360.1875 317.347656 356.929688 C 317.347656 355.300781 317.167969 353.851562 315.71875 352.765625 C 314.632812 352.042969 314.273438 350.773438 314.273438 349.507812 C 314.273438 346.609375 314.089844 343.710938 314.089844 340.816406 C 314.089844 338.460938 314.632812 338.101562 316.804688 337.917969 C 324.222656 337.558594 331.636719 336.832031 339.054688 335.382812 C 339.960938 335.203125 340.863281 335.203125 341.769531 335.203125 C 346.652344 335.203125 351.535156 335.203125 356.421875 334.839844 C 359.496094 334.660156 362.753906 334.660156 365.828125 335.023438 C 369.082031 335.382812 372.339844 334.839844 375.59375 334.839844 C 419.734375 334.839844 463.871094 334.660156 508.191406 335.023438 C 523.207031 335.203125 538.039062 335.203125 553.054688 335.566406 C 561.375 335.746094 569.695312 336.289062 578.015625 337.738281 C 581.996094 338.460938 586.15625 338.644531 590.316406 338.824219 C 593.210938 339.003906 593.574219 339.367188 593.574219 342.265625 C 593.574219 344.980469 593.390625 347.695312 593.390625 350.230469 C 593.390625 351.679688 593.03125 352.945312 591.765625 353.671875 C 590.5 354.574219 590.136719 355.664062 590.136719 357.109375 C 590.136719 360.371094 589.957031 363.628906 590.136719 366.886719 C 590.136719 369.421875 589.773438 371.59375 587.605469 373.042969 C 586.15625 374.128906 585.976562 375.578125 586.15625 377.207031 C 586.335938 379.378906 586.699219 381.554688 587.0625 383.90625 C 587.605469 388.070312 587.605469 392.054688 584.347656 395.496094 C 582.71875 397.125 583.261719 399.476562 583.625 401.652344 C 584.167969 404.183594 584.167969 406.902344 583.261719 409.253906 C 580.1875 416.316406 581.089844 423.738281 580.1875 430.980469 C 578.921875 441.121094 578.015625 451.441406 577.113281 461.578125 C 576.207031 470.8125 575.121094 480.230469 574.21875 489.460938 C 573.132812 499.058594 572.046875 508.472656 571.140625 518.070312 C 570.058594 527.664062 569.152344 537.441406 568.25 547.039062 C 567.34375 556.453125 566.257812 565.867188 565.355469 575.285156 C 564.269531 584.878906 563.363281 594.65625 562.277344 604.253906 C 561.917969 607.691406 561.554688 611.132812 561.191406 614.574219 C 561.011719 616.382812 560.289062 617.652344 559.203125 618.917969 C 557.03125 621.089844 555.042969 623.445312 552.871094 625.796875 C 551.242188 627.609375 550.339844 629.601562 550.160156 632.136719 C 549.617188 639.738281 548.53125 647.164062 547.808594 654.765625 C 547.445312 658.929688 547.082031 663.277344 546.902344 667.441406 C 546.902344 673.054688 546 678.484375 545.457031 684.097656 C 545.273438 686.453125 544.550781 688.445312 542.921875 690.253906 C 541.476562 691.703125 541.296875 693.511719 541.296875 695.503906 C 541.476562 698.945312 541.296875 702.382812 541.476562 705.824219 C 541.476562 707.273438 541.296875 708.722656 540.933594 710.171875 C 540.027344 713.429688 538.582031 714.515625 535.144531 714.695312 C 523.929688 714.878906 512.894531 716.6875 501.859375 717.773438 C 492.996094 718.679688 484.132812 719.585938 475.269531 720.128906 C 473.097656 720.308594 471.109375 720.492188 468.9375 720.671875 C 466.042969 720.851562 463.148438 720.671875 460.253906 720.308594 C 455.730469 719.765625 451.210938 719.765625 446.507812 720.492188 C 444.515625 720.851562 442.527344 720.851562 440.535156 720.671875 C 430.949219 719.765625 421.179688 719.042969 411.59375 718.136719 C 402.550781 717.230469 393.683594 716.144531 384.640625 715.238281 C 380.839844 714.878906 376.863281 714.515625 373.0625 714.152344 C 369.265625 713.972656 367.996094 712.886719 367.09375 709.265625 C 366.007812 706.007812 366.371094 702.929688 366.371094 699.667969 Z M 366.371094 699.667969 " fill-opacity="1" fill-rule="nonzero"/><path fill="#fbf6ee" d="M 429.320312 377.570312 C 416.117188 377.390625 403.996094 371.957031 393.324219 362.722656 C 390.066406 360.007812 387.355469 356.75 384.460938 353.671875 C 382.109375 350.953125 380.839844 350.953125 378.671875 353.851562 C 377.222656 355.84375 375.777344 357.835938 374.328125 359.828125 C 371.074219 363.992188 366.914062 366.527344 361.484375 366.527344 C 356.601562 366.527344 352.078125 367.613281 347.375 368.699219 C 342.3125 369.785156 337.246094 370.328125 332.179688 369.058594 C 327.476562 367.972656 323.316406 365.984375 319.878906 362.722656 C 318.792969 361.816406 317.710938 360.914062 316.261719 360.371094 C 313.007812 359.101562 311.015625 356.566406 310.292969 353.308594 C 309.75 350.953125 309.386719 348.421875 309.027344 346.066406 C 308.664062 343.167969 307.578125 340.816406 305.410156 338.644531 C 300.164062 333.210938 298.714844 326.691406 299.800781 319.449219 C 300.523438 314.925781 303.238281 311.484375 307.035156 309.128906 C 309.207031 307.863281 311.378906 306.957031 313.730469 306.054688 C 318.070312 304.421875 322.414062 302.613281 326.753906 300.800781 C 328.019531 300.257812 329.105469 299.535156 328.925781 297.90625 C 328.5625 291.386719 332.363281 287.222656 337.246094 283.964844 C 340.140625 281.972656 343.394531 280.523438 346.652344 279.617188 C 349.546875 278.714844 351.175781 277.082031 351.71875 274.007812 C 351.898438 272.738281 352.441406 271.652344 352.621094 270.386719 C 353.707031 266.039062 356.421875 263.140625 360.761719 262.054688 C 362.753906 261.511719 363.65625 260.789062 364.019531 258.617188 C 364.742188 253.726562 367.996094 250.46875 372.339844 248.476562 C 374.328125 247.570312 376.5 246.667969 378.488281 245.941406 C 379.757812 245.398438 380.660156 244.855469 381.203125 243.589844 C 384.097656 236.527344 389.707031 232.542969 396.578125 230.191406 C 398.207031 229.648438 400.015625 229.285156 401.824219 228.921875 C 405.261719 228.199219 405.625 228.019531 405.441406 224.578125 C 405.261719 218.964844 406.710938 213.714844 409.242188 208.824219 C 412.316406 202.667969 417.019531 198.867188 423.894531 197.78125 C 425.882812 197.417969 426.96875 196.515625 427.875 194.882812 C 430.585938 189.632812 434.023438 188.183594 439.8125 189.453125 C 440.898438 189.632812 441.621094 190.359375 442.34375 190.902344 C 446.867188 194.339844 451.933594 195.96875 457.539062 196.152344 C 461.519531 196.332031 465.5 196.515625 469.480469 197.058594 C 478.886719 198.144531 486.664062 202.667969 493.359375 208.824219 C 499.871094 214.800781 505.660156 221.136719 510.363281 228.5625 C 511.449219 230.191406 512.894531 230.550781 514.523438 230.734375 C 524.289062 231.820312 533.699219 234.535156 542.742188 238.519531 C 551.96875 242.683594 558.300781 249.5625 560.832031 259.519531 C 561.734375 262.78125 561.734375 265.859375 561.191406 269.117188 C 560.652344 272.917969 560.832031 273.460938 564.449219 274.910156 C 570.78125 277.808594 575.484375 282.335938 578.921875 288.308594 C 581.273438 292.472656 583.082031 296.636719 584.167969 301.34375 C 584.710938 303.335938 585.792969 304.605469 587.421875 305.507812 C 592.667969 308.585938 597.554688 312.570312 601.894531 316.734375 C 606.777344 321.441406 607.863281 327.238281 604.609375 333.210938 C 602.074219 337.917969 600.988281 342.808594 601.351562 348.058594 C 601.53125 351.679688 601.351562 355.300781 600.085938 358.558594 C 597.554688 365.4375 593.03125 369.785156 585.792969 371.234375 C 582.902344 371.777344 580.1875 371.234375 577.472656 370.507812 C 570.960938 369.058594 564.992188 366.164062 559.023438 363.449219 C 551.785156 360.007812 551.785156 360.007812 544.730469 363.628906 C 542.921875 364.535156 541.113281 365.4375 539.304688 366.34375 C 528.453125 371.777344 517.054688 373.226562 505.117188 369.964844 C 502.582031 369.242188 500.230469 368.515625 497.699219 367.972656 C 492.996094 366.886719 488.472656 367.070312 484.132812 369.421875 C 477.800781 373.042969 470.746094 373.585938 463.691406 374.128906 C 456.273438 374.671875 448.859375 375.757812 441.441406 376.484375 C 438.003906 377.027344 434.207031 377.570312 429.320312 377.570312 Z M 429.320312 377.570312 " fill-opacity="1" fill-rule="nonzero"/><path fill="#e73257" d="M 559.382812 529.476562 C 560.832031 528.570312 561.191406 527.304688 561.917969 526.398438 C 562.460938 525.855469 562.820312 524.949219 563.726562 525.3125 C 564.628906 525.675781 564.8125 526.398438 564.992188 527.121094 C 565.355469 528.933594 565.171875 530.742188 564.992188 532.371094 C 564.269531 543.238281 561.917969 554.101562 560.289062 564.78125 C 559.203125 572.386719 558.300781 579.992188 558.480469 587.777344 C 558.660156 592.300781 557.9375 596.828125 556.851562 601.355469 C 556.488281 603.167969 555.949219 604.976562 555.765625 606.96875 C 555.40625 610.769531 554.320312 614.03125 551.425781 616.925781 C 549.074219 619.28125 546.902344 621.816406 544.371094 623.988281 C 543.464844 624.710938 542.5625 625.617188 541.65625 626.339844 C 535.144531 631.230469 534.238281 638.109375 534.601562 645.53125 C 535.324219 657.664062 535.6875 669.613281 532.972656 681.5625 C 532.25 685.003906 530.984375 688.445312 529.175781 691.519531 C 527.910156 693.875 526.101562 695.6875 523.75 696.773438 C 518.863281 699.308594 513.617188 698.21875 510.179688 693.875 C 508.011719 690.976562 506.5625 687.71875 505.660156 684.277344 C 505.476562 683.554688 505.476562 683.011719 504.574219 682.46875 C 503.308594 683.734375 502.582031 685.367188 501.679688 686.8125 C 499.328125 690.617188 496.976562 694.417969 493.71875 697.496094 C 492.453125 698.761719 491.1875 699.667969 489.738281 700.574219 C 484.675781 703.832031 479.609375 703.832031 474.542969 700.753906 C 470.746094 698.402344 468.214844 695.140625 465.863281 691.703125 C 460.976562 684.097656 458.445312 675.40625 456.09375 666.898438 C 453.378906 657.484375 451.753906 647.886719 449.039062 638.652344 C 448.316406 636.117188 447.410156 633.582031 446.144531 631.230469 C 445.421875 629.960938 444.695312 628.695312 443.792969 627.609375 C 441.621094 625.253906 439.8125 625.253906 437.640625 627.609375 C 435.832031 629.417969 434.566406 631.773438 433.664062 634.125 C 430.40625 641.730469 428.777344 649.878906 427.152344 658.027344 C 425.882812 664.183594 424.980469 670.519531 423.171875 676.675781 C 422.265625 679.570312 421.179688 682.46875 419.734375 685.003906 C 419.011719 686.269531 418.285156 687.539062 417.382812 688.625 C 412.136719 695.6875 403.996094 696.230469 397.84375 689.890625 C 394.589844 686.453125 392.601562 682.289062 391.152344 677.941406 C 388.980469 671.96875 387.894531 665.8125 387.355469 659.65625 C 386.628906 651.328125 386.085938 643 385.183594 634.667969 C 384.640625 629.238281 383.917969 623.804688 382.289062 618.554688 C 381.382812 615.839844 380.296875 613.125 378.851562 610.589844 C 377.222656 608.054688 375.054688 606.425781 371.976562 606.789062 C 364.378906 607.511719 359.316406 603.347656 354.792969 598.277344 C 349.910156 592.664062 347.558594 585.964844 346.472656 578.722656 C 344.664062 566.230469 343.214844 553.738281 343.757812 541.0625 C 344.300781 528.75 342.671875 516.621094 340.320312 504.492188 C 339.054688 498.695312 337.066406 493.082031 336.160156 487.289062 C 335.4375 482.945312 334.894531 478.597656 335.074219 474.253906 C 335.257812 469.546875 337.066406 468.097656 341.769531 469.003906 C 343.757812 469.367188 345.566406 470.089844 347.195312 471.355469 C 352.984375 475.519531 357.6875 474.796875 361.847656 469.183594 C 364.5625 465.5625 367.09375 461.761719 369.808594 457.960938 C 371.253906 455.785156 373.242188 454.15625 375.414062 452.890625 C 379.03125 450.898438 382.46875 451.078125 385.726562 453.613281 C 387.714844 455.242188 389.34375 457.054688 390.609375 459.40625 C 394.769531 467.191406 396.398438 475.519531 397.304688 484.210938 C 398.570312 495.980469 397.484375 507.75 396.761719 519.699219 C 396.21875 530.5625 395.132812 541.605469 397.304688 552.46875 C 397.84375 555.910156 398.75 559.167969 400.015625 562.429688 C 401.28125 565.867188 403.273438 568.765625 405.984375 571.117188 C 409.421875 574.195312 413.582031 574.195312 417.203125 571.117188 C 420.457031 568.222656 422.628906 564.601562 424.074219 560.617188 C 426.066406 555.367188 427.332031 549.933594 428.597656 544.503906 C 429.320312 540.882812 430.226562 537.261719 431.855469 534.003906 C 434.746094 528.207031 440.175781 527.484375 444.515625 532.375 C 447.410156 535.449219 449.039062 539.253906 450.125 543.238281 C 451.933594 549.390625 452.292969 555.730469 452.835938 562.066406 C 453.378906 568.222656 453.742188 574.558594 455.550781 580.535156 C 456.636719 584.15625 458.082031 587.414062 460.976562 589.949219 C 463.511719 592.121094 465.679688 592.484375 468.574219 590.855469 C 470.746094 589.769531 472.375 588.136719 473.640625 586.148438 C 477.800781 580.535156 479.972656 574.015625 481.78125 567.496094 C 484.675781 557.179688 486.304688 546.496094 487.386719 535.8125 C 489.015625 520.0625 489.738281 504.308594 490.28125 488.375 C 490.824219 475.160156 491.007812 461.761719 493.359375 448.726562 C 494.261719 443.292969 495.527344 438.042969 497.699219 432.972656 C 498.964844 429.894531 500.59375 427 503.125 424.644531 C 507.105469 421.023438 511.808594 420.660156 516.152344 423.738281 C 518.503906 425.550781 520.3125 427.902344 521.578125 430.4375 C 525.195312 436.957031 526.824219 444.199219 527.726562 451.621094 C 529.175781 463.390625 528.632812 475.160156 527.183594 487.109375 C 525.738281 500.328125 523.929688 513.542969 522.664062 526.578125 C 521.9375 533.277344 521.757812 539.976562 523.023438 546.675781 C 523.566406 548.847656 523.929688 551.382812 526.640625 551.746094 C 529.175781 552.109375 530.441406 550.117188 531.707031 548.488281 C 534.421875 544.867188 535.867188 540.519531 536.953125 536.355469 C 538.582031 530.382812 539.667969 524.226562 540.933594 518.070312 C 541.476562 515.535156 542.199219 512.820312 542.921875 510.285156 C 543.464844 508.113281 544.371094 506.121094 545.816406 504.308594 C 548.53125 500.871094 552.328125 501.050781 554.5 504.851562 C 555.585938 506.480469 556.128906 508.292969 556.488281 510.101562 C 557.574219 514.449219 557.9375 518.613281 557.9375 523.140625 C 558.660156 524.769531 558.480469 526.941406 559.382812 529.476562 Z M 358.953125 547.761719 C 358.953125 541.96875 358.230469 538.890625 355.878906 535.089844 C 355.335938 534.183594 354.613281 533.097656 353.34375 533.097656 C 351.898438 533.277344 351.355469 534.363281 350.8125 535.449219 C 350.632812 536.355469 350.453125 537.261719 350.453125 537.984375 C 350.269531 540.339844 350.453125 542.691406 350.632812 545.046875 C 351.175781 553.195312 352.441406 561.34375 350.8125 569.671875 C 349.726562 575.464844 351.535156 580.535156 355.695312 584.515625 C 356.601562 585.421875 357.507812 586.328125 358.589844 587.234375 C 364.019531 591.578125 369.625 595.742188 375.777344 599.363281 C 383.011719 603.527344 387.714844 609.503906 388.800781 618.195312 C 388.980469 620.367188 389.164062 622.359375 389.523438 624.53125 C 391.515625 637.929688 393.683594 651.144531 395.3125 664.542969 C 395.675781 666.898438 396.21875 669.433594 397.121094 671.605469 C 397.84375 673.414062 398.75 675.046875 400.558594 675.949219 C 401.644531 676.675781 402.910156 676.855469 403.996094 675.769531 C 405.082031 674.503906 404.539062 673.414062 403.273438 672.691406 C 400.921875 671.0625 400.195312 668.707031 399.835938 666.171875 C 399.472656 663.820312 399.113281 661.285156 399.113281 658.929688 C 399.292969 650.242188 397.84375 641.550781 395.3125 633.222656 C 394.046875 628.875 393.324219 624.347656 392.960938 619.640625 C 392.417969 609.503906 388.4375 601.355469 378.671875 597.011719 C 378.488281 597.011719 378.308594 596.828125 378.128906 596.648438 C 375.054688 595.199219 372.519531 593.027344 369.988281 590.855469 C 366.371094 587.414062 364.019531 583.429688 363.476562 578.359375 C 363.113281 573.835938 362.027344 569.308594 359.859375 565.144531 C 358.589844 562.789062 358.230469 560.253906 358.230469 557.722656 C 358.410156 554.28125 358.773438 550.660156 358.953125 547.761719 Z M 371.074219 482.21875 C 371.074219 482.21875 371.253906 482.21875 371.074219 482.21875 C 371.253906 483.488281 371.253906 484.753906 371.253906 485.839844 C 371.253906 490.730469 371.796875 495.617188 373.425781 500.324219 C 373.96875 501.957031 374.691406 503.402344 376.136719 504.492188 C 379.03125 506.84375 383.011719 505.9375 384.277344 502.316406 C 384.640625 501.230469 384.820312 500.144531 385.542969 499.238281 C 387.894531 495.617188 388.621094 491.636719 388.621094 487.472656 C 388.621094 484.210938 388.078125 480.773438 388.4375 477.511719 C 388.621094 475.339844 387.894531 473.347656 386.992188 471.355469 C 385.363281 467.917969 381.746094 465.5625 378.488281 466.105469 C 375.054688 466.46875 372.339844 469.367188 371.617188 473.167969 C 371.433594 474.074219 371.433594 475.160156 371.433594 476.246094 C 371.074219 478.238281 371.074219 480.230469 371.074219 482.21875 Z M 519.042969 448.726562 C 519.042969 446.007812 519.226562 443.113281 519.042969 440.398438 C 518.683594 435.871094 514.882812 432.972656 510.722656 434.058594 C 507.828125 434.785156 506.019531 436.59375 505.296875 439.492188 C 504.753906 441.664062 504.390625 443.835938 503.851562 446.007812 C 501.679688 453.976562 502.582031 461.582031 504.933594 469.367188 C 505.296875 470.8125 506.019531 472.082031 506.925781 473.167969 C 509.277344 475.882812 513.257812 475.882812 514.703125 472.804688 C 516.511719 469.183594 518.320312 465.382812 518.683594 461.21875 C 518.683594 456.871094 519.042969 452.890625 519.042969 448.726562 Z M 464.957031 666.714844 C 464.957031 668.164062 464.957031 669.613281 464.957031 671.0625 C 464.957031 678.304688 468.574219 683.011719 475.628906 684.824219 C 477.800781 685.367188 480.152344 685.910156 482.324219 686.996094 C 486.84375 689.347656 490.464844 688.625 494.082031 684.824219 C 496.976562 681.746094 498.964844 678.125 502.039062 675.40625 C 503.125 674.320312 502.765625 673.054688 501.136719 672.691406 C 499.507812 672.328125 498.0625 673.054688 496.976562 674.140625 C 495.890625 675.226562 494.984375 676.492188 494.082031 677.761719 C 492.816406 679.570312 491.550781 681.382812 489.738281 682.832031 C 487.75 684.460938 486.484375 684.460938 484.675781 682.832031 C 481.960938 680.476562 479.789062 677.941406 478.707031 674.503906 C 477.800781 671.0625 475.992188 668.164062 474.003906 665.449219 C 470.382812 660.199219 466.40625 655.308594 464.234375 649.152344 C 463.691406 647.523438 462.785156 645.894531 461.519531 644.628906 C 460.617188 643.722656 459.351562 643.359375 458.082031 643.902344 C 456.816406 644.445312 456.457031 645.53125 456.457031 646.980469 C 456.457031 648.066406 456.816406 649.152344 457.359375 650.242188 C 458.082031 651.6875 459.167969 653.136719 460.617188 654.042969 C 464.59375 656.578125 465.679688 660.199219 465.320312 664.726562 C 464.957031 665.269531 464.957031 665.992188 464.957031 666.714844 Z M 554.5 532.191406 C 554.5 527.304688 553.234375 522.777344 551.425781 519.519531 C 550.339844 517.886719 549.976562 517.886719 548.890625 519.519531 C 548.710938 519.699219 548.710938 519.878906 548.53125 520.0625 C 546.179688 526.578125 544.371094 533.097656 545.457031 539.976562 C 546.179688 544.324219 546 548.667969 544.371094 552.832031 C 543.285156 555.730469 541.835938 558.445312 541.476562 561.34375 C 540.570312 568.945312 538.402344 575.828125 534.78125 582.527344 C 533.335938 585.058594 533.335938 587.957031 533.878906 590.671875 C 534.421875 593.75 536.953125 594.835938 539.667969 593.75 C 541.292969 593.027344 542.378906 591.941406 543.285156 590.492188 C 544.371094 588.5 544.550781 586.148438 544.1875 583.972656 C 543.285156 579.449219 544.007812 575.101562 545.09375 570.757812 C 545.636719 568.042969 546.539062 565.324219 546.359375 562.429688 C 545.816406 556.273438 547.265625 550.480469 550.703125 545.226562 C 551.425781 544.140625 551.785156 543.054688 552.328125 541.96875 C 553.777344 538.710938 554.863281 535.269531 554.5 532.191406 Z M 502.222656 532.191406 C 502.222656 531.285156 502.222656 531.105469 502.222656 530.925781 C 502.222656 529.839844 502.582031 528.390625 501.136719 528.027344 C 499.6875 527.484375 498.964844 528.933594 498.242188 529.839844 C 496.253906 532.734375 495.710938 535.992188 496.792969 539.433594 C 497.878906 543.054688 497.699219 546.496094 496.613281 549.933594 C 495.527344 554.101562 493.902344 557.902344 491.910156 561.703125 C 489.199219 566.773438 487.386719 572.207031 486.664062 577.816406 C 486.484375 579.449219 485.941406 581.078125 485.761719 582.707031 C 485.398438 586.148438 484.132812 588.863281 481.238281 591.035156 C 480.152344 591.941406 479.066406 593.027344 478.523438 594.292969 C 477.980469 595.378906 477.980469 596.46875 479.066406 597.371094 C 480.152344 598.097656 481.238281 597.914062 482.140625 597.191406 C 482.867188 596.648438 483.410156 595.921875 483.589844 595.019531 C 484.132812 593.390625 485.21875 592.300781 486.304688 591.214844 C 490.464844 587.050781 493.359375 581.980469 494.625 576.1875 C 496.253906 569.671875 498.0625 562.972656 499.6875 556.453125 C 500.414062 553.554688 501.136719 550.660156 501.316406 547.582031 C 501.859375 542.332031 501.136719 536.898438 502.222656 532.191406 Z M 397.84375 576.371094 C 397.304688 581.621094 398.570312 584.15625 402.546875 584.699219 C 405.261719 585.058594 407.433594 586.328125 409.785156 587.777344 C 415.933594 591.578125 423.171875 589.40625 426.609375 583.070312 C 427.511719 581.4375 428.234375 579.808594 428.777344 578.179688 C 430.226562 573.292969 431.671875 568.402344 432.578125 563.332031 C 433.121094 559.894531 433.84375 556.273438 434.386719 552.832031 C 434.746094 550.480469 435.832031 548.667969 437.640625 547.039062 C 438.546875 546.132812 439.632812 545.226562 440.175781 543.960938 C 440.898438 542.691406 441.621094 541.605469 440.175781 540.339844 C 439.269531 539.433594 437.640625 539.976562 436.558594 541.605469 C 434.929688 543.960938 433.664062 546.3125 433.300781 549.210938 C 433.121094 551.382812 432.9375 553.738281 432.578125 555.910156 C 431.671875 563.152344 429.683594 569.851562 424.980469 575.644531 C 419.371094 582.527344 410.144531 583.070312 403.273438 581.4375 C 400.921875 580.714844 399.292969 578.722656 397.84375 576.371094 Z M 513.617188 491.453125 C 513.617188 487.652344 511.265625 484.574219 508.554688 484.574219 C 505.839844 484.394531 503.308594 487.289062 503.125 490.730469 C 503.125 491.816406 503.125 492.722656 503.488281 493.628906 C 504.390625 495.800781 506.382812 497.25 508.371094 497.25 C 510.363281 497.25 512.351562 495.800781 513.074219 493.628906 C 513.4375 492.539062 513.4375 491.816406 513.617188 491.453125 Z M 384.460938 524.042969 C 384.460938 521.871094 383.917969 520.0625 382.652344 518.613281 C 380.480469 516.257812 377.765625 516.441406 376.136719 519.335938 C 374.871094 521.507812 374.871094 524.042969 375.777344 526.398438 C 376.5 528.390625 378.488281 529.65625 380.480469 529.476562 C 382.289062 529.296875 383.917969 527.664062 384.460938 525.492188 C 384.460938 524.949219 384.460938 524.40625 384.460938 524.042969 Z M 472.554688 602.621094 C 472.554688 600.992188 470.925781 599.542969 469.117188 599.542969 C 467.128906 599.542969 465.136719 601.535156 465.136719 603.347656 C 465.136719 604.976562 466.765625 606.425781 468.574219 606.425781 C 470.382812 606.242188 472.554688 604.253906 472.554688 602.621094 Z M 352.804688 517.164062 C 352.804688 517.34375 352.804688 516.800781 352.804688 516.441406 C 352.621094 515.355469 352.261719 514.449219 350.992188 514.449219 C 349.910156 514.449219 349.367188 515.171875 349.003906 516.078125 C 348.28125 517.886719 348.097656 519.699219 349.003906 521.507812 C 349.367188 522.234375 349.726562 522.957031 350.632812 522.957031 C 351.535156 522.957031 351.898438 522.054688 352.078125 521.328125 C 352.804688 520.242188 352.984375 519.15625 352.804688 517.164062 Z M 509.457031 507.929688 C 509.457031 506.480469 508.371094 504.851562 507.46875 504.851562 C 506.203125 504.671875 504.574219 507.207031 504.753906 508.835938 C 504.933594 510.285156 505.839844 511.191406 506.925781 511.191406 C 508.371094 511.371094 509.457031 509.742188 509.457031 507.929688 Z M 392.78125 572.75 C 393.867188 572.75 394.226562 572.023438 394.226562 571.117188 C 394.226562 569.851562 393.140625 568.222656 392.058594 568.222656 C 390.972656 568.222656 390.609375 568.945312 390.429688 569.851562 C 390.609375 571.300781 391.515625 572.566406 392.78125 572.75 Z M 504.03125 667.984375 C 504.933594 667.804688 505.476562 667.078125 505.476562 665.992188 C 505.476562 665.269531 505.296875 664.542969 504.390625 664.726562 C 503.125 664.726562 502.765625 665.8125 502.582031 666.714844 C 502.582031 667.441406 503.125 667.804688 504.03125 667.984375 Z M 504.03125 667.984375 " fill-opacity="1" fill-rule="nonzero"/><path fill="#e73257" d="M 324.222656 299.898438 C 324.582031 299.898438 324.765625 299.898438 325.125 299.898438 C 327.296875 300.078125 327.296875 300.078125 326.933594 297.722656 C 326.753906 296.636719 326.574219 295.550781 326.390625 294.464844 C 326.210938 292.65625 326.210938 290.664062 326.574219 288.851562 C 327.296875 284.871094 329.648438 282.335938 333.265625 281.25 C 336.882812 280.160156 340.503906 279.257812 344.300781 278.53125 C 347.195312 277.988281 348.460938 279.4375 347.375 282.152344 C 346.109375 285.59375 343.578125 288.128906 340.503906 290.121094 C 339.777344 290.664062 338.875 291.023438 338.152344 291.386719 C 336.523438 292.292969 335.796875 293.558594 335.617188 295.371094 C 335.257812 305.691406 339.417969 309.128906 349.003906 307.320312 C 352.984375 306.597656 356.238281 304.605469 359.316406 302.25 C 360.582031 301.164062 361.847656 300.078125 363.292969 299.355469 C 367.457031 296.820312 372.160156 295.734375 376.679688 297.542969 C 381.566406 299.535156 386.628906 299.714844 391.695312 300.441406 C 396.035156 300.984375 400.378906 301.527344 404.71875 300.621094 C 406.167969 300.441406 407.613281 300.621094 409.0625 300.800781 C 413.039062 301.164062 416.839844 301.164062 420.820312 300.984375 C 426.96875 300.441406 433.121094 300.984375 438.910156 302.792969 C 442.34375 303.878906 445.601562 305.148438 449.039062 306.414062 C 451.027344 307.140625 453.019531 307.863281 455.1875 308.226562 C 458.265625 308.769531 461.160156 308.40625 464.054688 306.414062 C 467.308594 304.0625 470.566406 301.707031 473.460938 298.8125 C 477.621094 294.828125 482.324219 293.921875 487.570312 296.277344 C 489.015625 297 490.824219 297.542969 491.910156 298.628906 C 495.347656 301.707031 499.6875 302.792969 504.03125 304.242188 C 505.476562 304.785156 507.105469 304.964844 508.554688 305.328125 C 512.714844 306.234375 516.332031 308.226562 519.226562 311.304688 C 520.855469 312.933594 522.480469 314.5625 524.472656 316.011719 C 526.824219 318.003906 529.535156 318.726562 532.613281 318.183594 C 532.792969 318.183594 532.972656 318.183594 533.335938 318.003906 C 534.601562 317.820312 536.050781 317.460938 536.773438 319.089844 C 537.316406 320.175781 536.230469 321.441406 534.421875 322.167969 C 532.972656 322.710938 531.707031 322.890625 530.261719 322.710938 C 526.824219 322.167969 523.929688 320.539062 521.214844 318.363281 C 517.417969 315.285156 513.257812 313.296875 508.371094 312.390625 C 504.933594 311.847656 502.039062 310.398438 499.328125 308.226562 C 497.335938 306.597656 494.984375 305.507812 492.632812 304.785156 C 491.1875 304.242188 490.101562 304.605469 489.378906 306.054688 C 486.84375 311.484375 482.324219 314.925781 477.800781 318.363281 C 474.726562 320.71875 471.109375 321.261719 467.308594 320.71875 C 462.785156 320.175781 458.445312 318.546875 454.285156 316.734375 C 450.667969 315.105469 447.050781 313.65625 443.613281 312.027344 C 436.015625 308.769531 428.234375 308.40625 420.636719 311.847656 C 411.414062 316.011719 401.824219 316.191406 392.058594 314.742188 C 389.34375 314.382812 386.8125 313.476562 384.460938 312.207031 C 381.023438 310.21875 378.671875 307.5 377.40625 303.699219 C 376.320312 300.257812 374.511719 299.535156 371.074219 300.621094 C 369.082031 301.34375 367.636719 302.613281 366.730469 304.605469 C 366.007812 306.054688 365.464844 307.683594 364.921875 309.3125 C 362.027344 319.269531 351.355469 323.070312 342.128906 319.269531 C 337.609375 317.277344 333.988281 314.199219 332 309.492188 C 331.636719 308.949219 331.457031 308.226562 331.09375 307.683594 C 330.371094 306.414062 329.648438 306.234375 328.5625 307.140625 C 327.839844 307.863281 327.117188 308.585938 326.390625 309.128906 C 321.871094 312.75 316.441406 313.839844 310.65625 313.839844 C 307.398438 313.839844 303.960938 313.296875 300.707031 312.933594 C 299.980469 312.933594 299.4375 312.75 298.714844 312.570312 C 297.992188 312.390625 297.085938 312.027344 297.269531 311.121094 C 297.269531 310.21875 297.992188 309.675781 298.714844 309.492188 C 299.980469 309.128906 301.246094 308.769531 302.695312 308.585938 C 307.21875 307.863281 311.195312 306.414062 314.632812 303.15625 C 316.984375 301.164062 320.421875 299.714844 324.222656 299.898438 Z M 324.222656 299.898438 " fill-opacity="1" fill-rule="nonzero"/><path fill="#e73257" d="M 537.316406 291.207031 C 534.964844 291.207031 533.515625 290.84375 532.25 290.121094 C 528.632812 288.308594 525.195312 288.671875 521.757812 290.664062 C 518.140625 292.472656 514.882812 294.828125 511.265625 296.636719 C 502.222656 300.984375 494.261719 298.628906 489.195312 290.121094 C 487.75 287.585938 486.484375 285.050781 485.398438 282.335938 C 484.132812 279.257812 482.683594 276.179688 480.152344 274.007812 C 477.621094 271.832031 474.90625 270.929688 471.46875 271.832031 C 468.03125 272.917969 464.957031 274.367188 462.96875 277.445312 C 457.722656 285.957031 449.402344 289.757812 440.175781 291.75 C 435.652344 292.835938 431.671875 291.207031 428.054688 288.308594 C 424.800781 285.414062 422.265625 281.972656 421 277.988281 C 419.191406 272.558594 412.496094 270.746094 407.976562 273.28125 C 405.804688 274.550781 403.632812 275.996094 401.464844 277.445312 C 396.21875 281.429688 390.429688 282.695312 384.097656 280.34375 C 382.289062 279.800781 380.839844 279.980469 379.394531 281.25 C 377.765625 282.515625 376.320312 283.78125 374.511719 284.6875 C 366.1875 289.035156 356.964844 284.324219 355.695312 275.09375 C 355.515625 273.460938 354.972656 272.738281 353.164062 272.917969 C 350.8125 273.101562 348.824219 272.375 346.832031 271.109375 C 345.023438 269.839844 344.84375 268.9375 346.472656 267.308594 C 349.546875 263.867188 353.34375 261.511719 357.6875 260.246094 C 361.304688 259.339844 364.5625 257.890625 367.457031 255.355469 C 368.722656 254.269531 370.351562 253.546875 371.796875 252.824219 C 374.148438 251.734375 375.957031 252.824219 376.5 255.355469 C 376.679688 256.804688 376.5 258.074219 375.957031 259.339844 C 374.691406 262.238281 373.0625 264.953125 371.074219 267.308594 C 369.082031 269.480469 367.273438 271.832031 365.828125 274.367188 C 365.105469 275.636719 364.378906 277.082031 365.464844 278.53125 C 366.550781 279.980469 367.996094 280.160156 369.625 279.980469 C 371.433594 279.800781 373.0625 279.074219 374.691406 278.171875 C 378.671875 275.816406 383.011719 274.910156 387.535156 274.550781 C 392.960938 274.1875 398.386719 273.28125 403.453125 271.289062 C 414.851562 266.582031 430.585938 272.738281 436.558594 280.886719 C 440.898438 286.859375 447.410156 284.6875 449.941406 279.980469 C 450.667969 278.894531 451.390625 277.628906 451.933594 276.539062 C 453.378906 273.460938 455.550781 271.472656 458.445312 270.203125 C 463.691406 267.851562 468.9375 266.765625 474.726562 267.125 C 477.800781 267.308594 480.515625 268.753906 482.867188 270.746094 C 483.953125 271.652344 485.035156 272.375 485.761719 273.460938 C 491.367188 280.523438 499.6875 282.515625 507.648438 284.871094 C 510.722656 285.773438 513.800781 285.050781 516.875 284.144531 C 522.664062 282.515625 528.453125 282.335938 534.421875 283.964844 C 536.410156 284.507812 538.039062 284.144531 539.667969 282.695312 C 541.113281 281.25 542.742188 279.800781 544.371094 278.351562 C 546.539062 276.179688 548.710938 274.1875 551.242188 272.558594 C 553.054688 271.472656 554.320312 270.023438 555.765625 268.574219 C 557.03125 267.308594 558.480469 266.21875 560.109375 265.496094 C 563.90625 264.230469 567.886719 267.308594 567.164062 271.289062 C 566.980469 272.738281 566.078125 273.824219 564.449219 273.824219 C 562.640625 273.824219 561.554688 274.550781 560.46875 275.816406 C 558.839844 277.628906 556.671875 278.894531 554.320312 279.617188 C 550.882812 280.703125 547.988281 282.695312 545.636719 285.59375 C 544.007812 287.765625 542.199219 289.757812 539.484375 290.664062 C 538.402344 291.023438 537.496094 291.023438 537.316406 291.207031 Z M 537.316406 291.207031 " fill-opacity="1" fill-rule="nonzero"/><path fill="#e73257" d="M 399.472656 256.082031 C 401.101562 256.082031 403.453125 255.355469 405.441406 254.453125 C 409.242188 252.460938 413.402344 251.554688 417.5625 250.648438 C 424.257812 249.382812 430.40625 247.210938 435.832031 242.863281 C 437.824219 241.234375 439.992188 239.96875 442.34375 238.882812 C 445.421875 237.25 448.675781 237.070312 452.113281 237.792969 C 455.914062 238.519531 459.351562 240.148438 462.605469 241.957031 C 465.5 243.589844 468.394531 245.035156 471.109375 246.484375 C 472.734375 247.390625 474.183594 247.570312 475.8125 246.847656 C 478.886719 245.582031 481.960938 245.035156 485.21875 244.855469 C 487.027344 244.675781 488.835938 244.3125 490.464844 243.769531 C 494.804688 242.320312 498.964844 242.503906 503.125 244.492188 C 503.851562 244.855469 504.574219 245.035156 505.296875 245.398438 C 506.742188 246.125 508.011719 245.941406 509.277344 244.855469 C 511.445312 243.046875 513.980469 241.777344 516.691406 241.054688 C 520.492188 239.96875 523.929688 240.871094 526.460938 243.769531 C 528.089844 245.582031 528.8125 245.21875 529.898438 243.40625 C 531.707031 240.328125 534.058594 237.613281 537.316406 235.984375 C 541.476562 233.992188 545.636719 234.535156 549.074219 237.613281 C 551.96875 240.148438 554.136719 243.226562 555.042969 247.210938 C 555.222656 247.933594 555.585938 248.839844 554.5 249.203125 C 553.59375 249.5625 553.054688 248.839844 552.691406 248.296875 C 551.242188 246.484375 549.617188 244.675781 547.988281 243.226562 C 546 241.597656 545.09375 241.777344 543.644531 243.949219 C 542.378906 245.761719 541.292969 247.753906 540.027344 249.5625 C 537.496094 252.640625 534.238281 254.8125 530.078125 254.8125 C 527.367188 254.8125 525.375 253.726562 523.929688 251.554688 C 523.386719 250.648438 522.84375 249.925781 522.300781 249.019531 C 521.035156 246.847656 519.40625 245.582031 516.875 246.125 C 514.339844 246.667969 512.53125 247.933594 512.171875 250.648438 C 511.808594 253.546875 510.179688 255.539062 507.648438 256.804688 C 502.039062 259.703125 493.71875 258.433594 489.378906 253.910156 C 485.21875 249.5625 481.78125 249.382812 477.257812 253.367188 C 474.542969 255.539062 471.652344 256.261719 468.214844 255.539062 C 463.871094 254.632812 460.253906 252.277344 457 249.203125 C 455.550781 247.753906 454.105469 246.484375 452.292969 245.582031 C 447.050781 243.046875 442.164062 246.125 440.175781 251.011719 C 438.003906 256.625 434.386719 259.882812 428.597656 260.96875 C 424.617188 261.875 421 260.789062 417.742188 258.796875 C 414.667969 256.804688 411.957031 256.804688 408.699219 258.433594 C 401.824219 261.875 394.953125 261.511719 387.894531 258.617188 C 381.925781 256.082031 379.574219 251.554688 380.117188 245.035156 C 380.839844 237.976562 384.460938 232.726562 388.621094 227.65625 C 389.886719 226.027344 391.875 225.300781 394.046875 225.484375 C 397.304688 225.84375 400.378906 226.570312 403.632812 227.113281 C 404.175781 227.292969 404.902344 227.292969 404.902344 228.019531 C 405.082031 228.921875 404.175781 229.105469 403.632812 229.285156 C 403.273438 229.464844 402.730469 229.464844 402.367188 229.464844 C 399.65625 229.648438 397.84375 230.914062 397.121094 233.628906 C 396.578125 235.621094 394.953125 237.070312 393.503906 238.335938 C 392.417969 239.425781 391.695312 240.511719 392.417969 242.140625 C 393.503906 244.675781 392.78125 247.210938 391.875 249.5625 C 390.609375 253.367188 391.152344 254.632812 394.953125 255.71875 C 396.398438 256.082031 397.484375 256.261719 399.472656 256.082031 Z M 399.472656 256.082031 " fill-opacity="1" fill-rule="nonzero"/><path fill="#e73257" d="M 587.785156 307.863281 C 587.0625 309.492188 587.964844 310.398438 588.148438 311.484375 C 588.507812 313.296875 589.050781 314.925781 589.230469 316.734375 C 589.414062 321.984375 585.613281 325.246094 580.367188 324.519531 C 575.484375 323.796875 572.226562 320.71875 569.332031 316.917969 C 568.609375 316.011719 568.609375 314.5625 567.164062 314.5625 C 565.898438 314.742188 565.898438 316.191406 565.535156 317.277344 C 563.003906 324.160156 556.851562 326.875 549.253906 324.339844 C 544.550781 322.710938 540.753906 319.8125 538.582031 315.285156 C 537.316406 312.75 536.230469 310.035156 534.78125 307.5 C 533.699219 305.328125 532.070312 304.0625 529.535156 303.699219 C 526.460938 303.15625 523.386719 303.15625 520.3125 303.699219 C 519.40625 303.878906 518.320312 304.0625 517.417969 304.0625 C 516.691406 304.0625 515.789062 304.242188 515.425781 303.335938 C 515.246094 302.613281 515.789062 302.070312 516.332031 301.707031 C 519.949219 298.628906 524.109375 296.820312 528.992188 296.636719 C 537.132812 296.277344 542.378906 300.621094 547.265625 306.054688 C 549.253906 308.226562 551.0625 310.761719 552.511719 313.296875 C 553.054688 314.199219 553.597656 315.105469 554.136719 315.828125 C 556.488281 318.546875 559.023438 318.363281 560.832031 315.285156 C 561.375 314.199219 561.734375 312.933594 562.277344 311.847656 C 564.085938 306.957031 566.4375 305.691406 571.683594 306.597656 C 572.410156 306.777344 572.953125 306.777344 573.675781 306.957031 C 575.484375 307.5 576.929688 306.957031 578.199219 305.507812 C 578.921875 304.605469 579.644531 303.878906 580.550781 303.15625 C 583.984375 299.898438 587.785156 299.535156 591.765625 302.25 C 594.117188 303.699219 595.746094 305.871094 596.46875 308.585938 C 596.828125 309.675781 597.011719 310.761719 595.925781 311.664062 C 594.839844 312.390625 593.753906 312.027344 592.851562 311.484375 C 591.039062 310.21875 589.59375 309.128906 587.785156 307.863281 Z M 587.785156 307.863281 " fill-opacity="1" fill-rule="nonzero"/><path fill="#e73257" d="M 417.019531 203.9375 C 417.382812 203.9375 418.105469 203.757812 418.648438 204.117188 C 421.542969 205.023438 423.171875 203.757812 424.617188 201.402344 C 426.066406 199.046875 428.234375 197.960938 431.128906 197.960938 C 436.558594 197.960938 441.804688 198.324219 446.507812 201.582031 C 447.589844 202.308594 449.039062 202.488281 450.304688 202.667969 C 456.636719 203.574219 461.882812 206.289062 466.222656 211 C 467.851562 212.808594 469.300781 214.4375 471.289062 215.707031 C 474.726562 217.878906 478.164062 219.328125 482.324219 218.242188 C 484.492188 217.699219 486.84375 217.878906 488.65625 219.507812 C 489.015625 219.871094 489.378906 220.414062 489.199219 220.957031 C 489.015625 221.5 488.292969 221.679688 487.75 221.679688 C 482.503906 220.414062 477.078125 221.320312 471.832031 219.871094 C 467.488281 218.785156 463.871094 216.609375 460.617188 213.53125 C 459.167969 212.265625 457.902344 211 456.457031 209.730469 C 453.742188 207.378906 450.667969 207.015625 447.410156 207.921875 C 445.964844 208.28125 444.695312 208.824219 443.25 208.824219 C 439.8125 209.007812 437.101562 207.921875 435.109375 205.023438 C 434.746094 204.300781 434.207031 203.757812 433.664062 203.214844 C 432.035156 201.765625 430.042969 201.765625 428.777344 203.394531 C 426.789062 205.746094 424.617188 207.738281 421.90625 209.007812 C 420.09375 209.910156 419.554688 211.542969 419.011719 213.351562 C 417.925781 216.972656 415.574219 219.328125 412.316406 220.773438 C 407.792969 222.765625 404.71875 220.773438 404.539062 215.886719 C 403.996094 208.824219 409.0625 203.757812 417.019531 203.9375 Z M 417.019531 203.9375 " fill-opacity="1" fill-rule="nonzero"/><path fill="#e73257" d="M 521.9375 233.628906 C 521.757812 233.628906 521.757812 233.628906 521.578125 233.628906 C 518.140625 231.820312 514.703125 233.085938 511.265625 233.8125 C 509.09375 234.355469 506.742188 233.628906 504.753906 232.90625 C 501.5 232 498.785156 232.542969 495.890625 234.355469 C 489.199219 238.882812 482.324219 239.0625 475.449219 234.535156 C 475.085938 234.355469 474.726562 233.992188 474.363281 233.8125 C 473.820312 233.269531 472.917969 232.90625 473.460938 232 C 473.820312 231.277344 474.542969 231.457031 475.269531 231.640625 C 479.609375 232.726562 483.589844 232 487.570312 230.007812 C 487.75 229.828125 487.929688 229.828125 488.113281 229.828125 C 493.539062 226.75 498.964844 226.386719 504.574219 229.464844 C 507.828125 231.277344 511.265625 231.640625 514.882812 230.191406 C 517.960938 228.921875 520.492188 230.914062 523.207031 231.820312 C 523.566406 232 523.929688 232.363281 523.566406 232.90625 C 523.207031 233.449219 522.664062 233.449219 521.9375 233.628906 Z M 521.9375 233.628906 " fill-opacity="1" fill-rule="nonzero"/><g clip-path="url(#94c6262f65)"><path fill="#e1e2d9" d="M 313.730469 323.796875 C 335.796875 323.253906 357.867188 323.253906 379.9375 322.890625 C 391.332031 322.710938 402.910156 322.890625 414.308594 322.347656 C 422.628906 321.984375 430.769531 321.804688 439.089844 321.984375 C 455.914062 322.527344 472.734375 321.984375 489.558594 322.527344 C 499.871094 322.890625 510 322.890625 520.3125 323.253906 C 537.132812 323.976562 553.957031 324.339844 570.78125 324.703125 C 578.558594 324.882812 586.15625 324.882812 593.933594 325.246094 C 599.542969 325.605469 605.152344 325.605469 610.578125 325.789062 C 615.101562 325.96875 617.8125 329.953125 616.367188 334.296875 C 615.28125 337.375 613.289062 339.367188 609.855469 339.910156 C 606.597656 340.453125 606.597656 340.453125 606.417969 343.53125 C 606.234375 346.066406 606.054688 348.421875 605.875 350.953125 C 605.691406 353.128906 604.96875 354.9375 602.980469 355.84375 C 601.53125 356.566406 601.171875 357.652344 601.351562 359.101562 C 601.894531 361.816406 601.714844 364.535156 601.714844 367.070312 C 601.714844 369.964844 601.351562 372.679688 598.820312 374.671875 C 597.734375 375.578125 597.734375 376.847656 597.734375 377.933594 C 597.734375 381.191406 597.734375 384.449219 597.734375 387.710938 C 597.734375 390.96875 597.011719 394.226562 594.660156 396.582031 C 593.933594 397.304688 593.753906 398.390625 593.753906 399.296875 C 593.933594 403.640625 593.390625 407.625 591.402344 411.609375 C 590.679688 413.058594 590.679688 414.867188 590.5 416.496094 C 589.59375 434.242188 587.0625 451.804688 585.070312 469.367188 C 583.625 481.859375 582.359375 494.351562 580.910156 507.023438 C 579.101562 522.414062 577.472656 537.804688 575.664062 553.195312 C 574.035156 567.679688 572.410156 581.980469 570.78125 596.46875 C 570.058594 602.621094 569.332031 608.597656 568.609375 614.753906 C 568.25 617.832031 567.164062 620.546875 564.8125 622.71875 C 563.90625 623.625 563.003906 624.710938 562.097656 625.796875 C 560.652344 627.425781 560.109375 629.417969 559.925781 631.59375 C 559.746094 639.195312 558.839844 646.800781 558.117188 654.222656 C 557.394531 662.734375 556.308594 671.242188 555.222656 679.753906 C 554.863281 682.832031 553.957031 685.910156 552.328125 688.625 C 551.242188 690.433594 550.703125 692.066406 550.882812 694.238281 C 551.425781 699.851562 550.882812 705.644531 550.519531 711.257812 C 550.339844 713.429688 549.074219 714.695312 547.445312 715.78125 C 544.914062 717.414062 542.199219 718.679688 539.304688 719.402344 C 528.269531 722.480469 516.875 724.292969 505.476562 725.558594 C 492.273438 727.007812 478.886719 727.734375 465.5 728.636719 C 462.242188 728.820312 458.988281 729 455.914062 728.277344 C 453.5625 727.914062 451.210938 727.914062 448.859375 728.277344 C 444.878906 728.820312 440.898438 728.636719 436.917969 728.277344 C 431.492188 727.914062 426.066406 727.734375 420.636719 727.191406 C 403.089844 725.921875 385.542969 724.472656 368.359375 719.945312 C 364.5625 719.042969 360.941406 717.773438 357.507812 715.78125 C 354.972656 714.335938 353.707031 712.160156 353.707031 709.265625 C 353.707031 704.015625 353.707031 698.765625 353.707031 693.511719 C 353.707031 691.703125 353.707031 690.074219 352.621094 688.625 C 349.910156 685.183594 349.726562 681.019531 349.183594 677.035156 C 347.558594 664.363281 346.472656 651.6875 345.566406 639.015625 C 345.386719 635.9375 344.664062 633.039062 345.386719 629.960938 C 345.566406 628.875 344.664062 627.789062 344.121094 627.066406 C 342.492188 624.894531 340.683594 622.902344 338.875 620.910156 C 337.789062 619.640625 337.246094 618.375 337.066406 616.746094 C 335.4375 601.898438 333.808594 587.050781 332.179688 572.207031 C 330.191406 554.644531 328.382812 536.898438 326.390625 519.335938 C 324.945312 505.214844 323.496094 490.910156 322.050781 476.789062 C 320.964844 465.925781 319.519531 455.0625 318.433594 444.199219 C 317.527344 434.058594 316.082031 423.738281 316.082031 413.601562 C 316.082031 412.332031 316.082031 411.066406 315.359375 409.980469 C 313.367188 406.539062 312.824219 402.554688 312.824219 398.753906 C 312.824219 396.941406 312.644531 395.3125 311.195312 393.863281 C 309.929688 392.597656 309.570312 390.96875 309.386719 389.339844 C 308.84375 384.8125 308.484375 380.46875 309.027344 375.941406 C 309.207031 374.671875 309.207031 373.585938 307.941406 372.679688 C 305.769531 371.234375 305.226562 368.878906 305.226562 366.527344 C 305.226562 363.449219 305.226562 360.550781 305.410156 357.472656 C 305.410156 355.84375 305.046875 354.394531 303.417969 353.488281 C 301.789062 352.585938 301.246094 350.953125 301.066406 349.324219 C 300.523438 346.429688 300.886719 343.53125 300.707031 340.632812 C 300.523438 338.101562 300.523438 337.917969 298.171875 337.917969 C 294.191406 337.738281 290.214844 334.117188 290.574219 329.410156 C 290.757812 326.332031 292.566406 324.339844 295.640625 323.796875 C 300.523438 323.070312 305.410156 323.617188 310.292969 323.433594 C 311.921875 323.796875 312.824219 323.796875 313.730469 323.796875 Z M 313.730469 323.796875 " fill-opacity="0.3" fill-rule="nonzero"/></g></svg>