<svg xmlns="http://www.w3.org/2000/svg" xmlns:xlink="http://www.w3.org/1999/xlink" width="1080" zoomAndPan="magnify" viewBox="0 0 810 809.999993" height="1080" preserveAspectRatio="xMidYMid meet" version="1.0"><path fill="#fbc894" d="M 481.890625 590.625 L 582.160156 536.042969 C 599.578125 526.5625 606.09375 504.515625 596.613281 487.082031 C 587.132812 469.65625 565.128906 463.167969 547.695312 472.660156 L 439.023438 531.789062 Z M 481.890625 590.625 " fill-opacity="1" fill-rule="evenodd"/><path fill="#fbbd80" d="M 465.542969 655.585938 L 675.40625 541.382812 C 692.828125 531.902344 699.339844 509.855469 689.859375 492.421875 C 680.378906 474.996094 658.339844 468.507812 640.90625 478.003906 L 532.523438 536.988281 C 530.808594 523.53125 521.542969 511.550781 507.832031 507.105469 C 466.464844 493.796875 425.097656 480.476562 383.734375 467.132812 C 350.597656 456.460938 318.140625 459.503906 287.582031 476.144531 L 160.3125 545.425781 L 233.527344 679.890625 L 280.980469 654.042969 C 303.132812 641.984375 326.601562 639.800781 350.570312 647.492188 L 395.941406 662.125 C 419.925781 669.863281 443.429688 667.640625 465.542969 655.585938 Z M 465.542969 655.585938 " fill-opacity="1" fill-rule="evenodd"/><path fill="#0593fc" d="M 113.113281 539.90625 L 218.492188 722.867188 C 221.070312 727.375 226.863281 728.914062 231.34375 726.339844 L 278.191406 699.359375 C 282.695312 696.78125 284.234375 690.988281 281.660156 686.503906 L 176.28125 503.507812 C 173.707031 499.035156 167.914062 497.457031 163.429688 500.070312 L 116.585938 527.054688 C 112.078125 529.628906 110.539062 535.4375 113.113281 539.90625 Z M 113.113281 539.90625 " fill-opacity="1" fill-rule="evenodd"/><path fill="#e2aa73" d="M 550.636719 527.128906 C 553.289062 537.152344 553.25 548 549.855469 558.554688 C 540.4375 587.757812 508.917969 603.933594 479.683594 594.527344 L 387.179688 564.753906 C 383.492188 563.542969 380.992188 560.539062 380.527344 556.660156 C 380.058594 552.835938 381.738281 549.25 385.03125 547.21875 L 385.324219 547.078125 C 387.824219 545.5 390.625 545.144531 393.441406 546.082031 L 485.730469 575.789062 C 504.589844 581.875 525.011719 571.421875 531.097656 552.519531 C 532.777344 547.367188 533.207031 542.066406 532.523438 536.988281 Z M 550.636719 527.128906 " fill-opacity="1" fill-rule="evenodd"/><path fill="#fbbd80" d="M 331.105469 525.980469 C 347.527344 531.285156 363.953125 536.574219 380.375 541.839844 C 415.480469 553.152344 450.585938 564.464844 485.714844 575.765625 C 504.574219 581.847656 525 571.394531 531.085938 552.496094 C 537.167969 533.59375 526.679688 513.164062 507.820312 507.078125 L 411.492188 476.046875 Z M 331.105469 525.980469 " fill-opacity="1" fill-rule="evenodd"/><path fill="#0584e3" d="M 113.113281 539.90625 L 218.492188 722.867188 C 221.070312 727.375 226.863281 728.914062 231.34375 726.339844 L 244.585938 718.714844 C 240.117188 721.289062 234.3125 719.710938 231.734375 715.242188 L 126.355469 532.28125 C 123.78125 527.773438 125.359375 522.003906 129.828125 519.402344 L 163.429688 500.035156 L 163.429688 500.070312 L 116.585938 527.054688 C 112.078125 529.628906 110.539062 535.4375 113.113281 539.90625 Z M 113.113281 539.90625 " fill-opacity="1" fill-rule="evenodd"/><path fill="#ff4646" d="M 430.578125 279.574219 L 547.265625 279.574219 L 547.265625 407.625 C 547.265625 410.339844 545.804688 412.675781 543.367188 413.886719 C 540.894531 415.074219 538.179688 414.785156 536.03125 413.105469 L 493.238281 379.457031 C 490.664062 377.449219 487.191406 377.449219 484.65625 379.457031 L 441.824219 413.105469 C 439.679688 414.785156 436.953125 415.074219 434.492188 413.886719 C 432.054688 412.675781 430.589844 410.339844 430.589844 407.625 L 430.589844 279.574219 Z M 430.578125 279.574219 " fill-opacity="1" fill-rule="evenodd"/><path fill="#ffd400" d="M 488.949219 322.804688 C 555.472656 322.804688 609.753906 268.554688 609.753906 201.976562 C 609.753906 135.4375 555.472656 81.148438 488.949219 81.148438 C 422.398438 81.148438 368.105469 135.4375 368.105469 201.976562 C 368.105469 268.554688 422.386719 322.804688 488.949219 322.804688 Z M 488.949219 322.804688 " fill-opacity="1" fill-rule="evenodd"/><path fill="#fea832" d="M 488.949219 283.363281 C 533.746094 283.363281 570.28125 246.785156 570.28125 201.976562 C 570.28125 157.167969 533.746094 120.628906 488.949219 120.628906 C 444.109375 120.628906 407.578125 157.167969 407.578125 201.976562 C 407.578125 246.785156 444.109375 283.363281 488.949219 283.363281 Z M 488.949219 283.363281 " fill-opacity="1" fill-rule="evenodd"/><path fill="#ffd400" d="M 493.554688 155.917969 L 501.320312 180.046875 C 502 182.089844 503.816406 183.40625 505.976562 183.40625 L 531.3125 183.367188 C 533.457031 183.328125 535.289062 184.65625 535.96875 186.699219 C 536.613281 188.746094 535.933594 190.890625 534.175781 192.179688 L 513.640625 207.027344 C 511.921875 208.277344 511.203125 210.425781 511.882812 212.46875 L 519.761719 236.558594 C 520.441406 238.605469 519.722656 240.75 518.007812 242.039062 C 516.253906 243.289062 514.003906 243.289062 512.277344 242 L 491.8125 227.078125 C 490.058594 225.828125 487.8125 225.828125 486.058594 227.078125 L 465.59375 242 C 463.878906 243.289062 461.617188 243.289062 459.863281 242.039062 C 458.148438 240.75 457.425781 238.605469 458.109375 236.558594 L 465.984375 212.46875 C 466.667969 210.425781 465.949219 208.277344 464.230469 207.027344 L 443.695312 192.179688 C 441.9375 190.890625 441.257812 188.746094 441.902344 186.699219 C 442.582031 184.65625 444.398438 183.339844 446.558594 183.367188 L 471.894531 183.40625 C 474.039062 183.40625 475.871094 182.078125 476.539062 180.046875 L 484.300781 155.917969 C 484.984375 153.871094 486.800781 152.558594 488.960938 152.558594 C 491.09375 152.558594 492.910156 153.886719 493.554688 155.917969 Z M 493.554688 155.917969 " fill-opacity="1" fill-rule="evenodd"/><path fill="#e6bf00" d="M 488.949219 81.160156 C 491.953125 81.160156 494.957031 81.261719 497.921875 81.476562 C 435.414062 86.097656 386.105469 138.28125 386.105469 201.976562 C 386.105469 265.6875 435.414062 317.871094 497.921875 322.476562 C 494.957031 322.691406 491.953125 322.804688 488.949219 322.804688 C 422.207031 322.804688 368.105469 268.730469 368.105469 201.976562 C 368.105469 135.238281 422.207031 81.160156 488.949219 81.160156 Z M 488.949219 81.160156 " fill-opacity="1" fill-rule="evenodd"/><path fill="#e63f3f" d="M 449.335938 316.191406 L 449.335938 407.210938 L 441.824219 413.117188 C 439.679688 414.796875 436.953125 415.089844 434.492188 413.902344 C 432.054688 412.6875 430.589844 410.351562 430.589844 407.640625 L 430.589844 307.820312 C 436.5625 311.101562 442.824219 313.890625 449.335938 316.191406 Z M 547.265625 407.195312 L 547.265625 407.625 C 547.265625 410.339844 545.804688 412.675781 543.367188 413.886719 C 540.894531 415.074219 538.179688 414.785156 536.03125 413.105469 L 498.3125 383.433594 L 503.402344 379.457031 C 505.9375 377.449219 509.449219 377.449219 511.984375 379.457031 Z M 547.265625 407.195312 " fill-opacity="1" fill-rule="evenodd"/></svg>