<svg xmlns="http://www.w3.org/2000/svg" xmlns:xlink="http://www.w3.org/1999/xlink" width="1080" zoomAndPan="magnify" viewBox="0 0 810 809.999993" height="1080" preserveAspectRatio="xMidYMid meet" version="1.0"><defs><clipPath id="eb01eae534"><path d="M 162.40625 81 L 541 81 L 541 687 L 162.40625 687 Z M 162.40625 81 " clip-rule="nonzero"/></clipPath><clipPath id="41c19fd065"><path d="M 162.40625 81 L 229 81 L 229 687 L 162.40625 687 Z M 162.40625 81 " clip-rule="nonzero"/></clipPath></defs><g clip-path="url(#eb01eae534)"><path fill="#c4f0f6" d="M 199.816406 81 L 503.71875 81 C 524.214844 81 540.960938 97.742188 540.960938 118.234375 L 540.960938 648.9375 C 540.960938 669.410156 524.214844 686.175781 503.71875 686.175781 L 199.816406 686.175781 C 179.316406 686.175781 162.574219 669.398438 162.574219 648.9375 L 162.574219 118.25 C 162.574219 97.742188 179.316406 81 199.816406 81 Z M 199.816406 81 " fill-opacity="1" fill-rule="evenodd"/></g><path fill="#0593fc" d="M 252.472656 81 L 451.058594 81 L 440.804688 119.488281 C 439.375 124.9375 434.632812 128.554688 429.007812 128.554688 L 274.527344 128.554688 C 268.898438 128.554688 264.167969 124.9375 262.726562 119.488281 Z M 252.472656 81 " fill-opacity="1" fill-rule="evenodd"/><path fill="#ffd400" d="M 351.765625 259.746094 C 283.378906 259.746094 227.914062 315.191406 227.914062 383.582031 C 227.914062 451.972656 283.367188 507.414062 351.765625 507.414062 C 420.167969 507.414062 475.617188 451.972656 475.617188 383.582031 C 475.617188 315.191406 420.167969 259.746094 351.765625 259.746094 Z M 351.765625 259.746094 " fill-opacity="1" fill-rule="evenodd"/><path fill="#fea832" d="M 351.765625 292.683594 C 301.574219 292.683594 260.855469 333.398438 260.855469 383.582031 C 260.855469 433.789062 301.539062 474.476562 351.765625 474.476562 C 401.957031 474.476562 442.675781 433.804688 442.675781 383.582031 C 442.675781 333.398438 401.957031 292.683594 351.765625 292.683594 Z M 351.765625 292.683594 " fill-opacity="1" fill-rule="evenodd"/><path fill="#ffd400" d="M 362.199219 443.425781 C 362.199219 449.191406 357.53125 453.855469 351.765625 453.855469 C 346 453.855469 341.332031 449.191406 341.332031 443.425781 L 341.332031 433.714844 C 333.011719 430.996094 325.199219 425.507812 319.429688 416.695312 C 317.8125 414.292969 316.421875 411.601562 315.167969 408.589844 C 312.945312 403.28125 315.460938 397.199219 320.796875 394.972656 C 326.109375 392.785156 332.191406 395.300781 334.417969 400.601562 C 335.136719 402.320312 335.960938 403.863281 336.894531 405.265625 C 340.082031 410.171875 344.382812 413.003906 348.792969 414.191406 C 353.269531 415.40625 357.898438 415.050781 361.628906 413.472656 C 362.488281 413.117188 363.3125 412.6875 364.070312 412.183594 C 364.753906 411.75 365.285156 411.285156 365.753906 410.816406 C 367.15625 409.386719 368.015625 407.667969 368.257812 405.871094 C 368.472656 404.253906 368.140625 402.574219 367.144531 401.03125 C 366.75 400.421875 366.320312 399.878906 365.816406 399.410156 C 363.878906 397.515625 358.722656 396.289062 353.234375 395 C 343.835938 392.773438 333.808594 390.410156 325.878906 382.277344 C 322.945312 379.269531 320.757812 375.617188 319.46875 371.746094 C 317.710938 366.625 317.394531 361 318.570312 355.652344 C 319.761719 350.203125 322.480469 345.003906 326.816406 340.808594 C 329.941406 337.757812 333.847656 335.28125 338.539062 333.675781 C 339.4375 333.386719 340.371094 333.105469 341.332031 332.855469 L 341.332031 323.710938 C 341.332031 317.945312 346 313.28125 351.765625 313.28125 C 357.53125 313.28125 362.199219 317.945312 362.199219 323.710938 L 362.199219 332.460938 C 363.917969 332.816406 365.601562 333.320312 367.257812 333.929688 C 376.035156 337.152344 383.457031 343.5 386.832031 353.464844 C 387.125 354.285156 387.375 355.183594 387.617188 356.117188 C 388.984375 361.707031 385.566406 367.371094 379.980469 368.738281 C 374.390625 370.101562 368.761719 366.6875 367.359375 361.101562 C 367.28125 360.808594 367.21875 360.492188 367.066406 360.164062 C 365.953125 356.863281 363.300781 354.675781 360.035156 353.5 C 355.988281 351.996094 351.183594 351.882812 346.921875 352.933594 C 346.378906 353.070312 345.808594 353.222656 345.242188 353.4375 C 343.597656 354.007812 342.308594 354.804688 341.332031 355.726562 C 340.082031 356.914062 339.324219 358.445312 338.96875 360.0625 C 338.578125 361.746094 338.679688 363.503906 339.183594 365.046875 C 339.539062 366.082031 340.121094 367.054688 340.828125 367.765625 C 344.445312 371.492188 351.4375 373.136719 357.960938 374.71875 C 366.347656 376.691406 374.238281 378.550781 380.332031 384.464844 C 382.015625 386.109375 383.457031 387.828125 384.59375 389.585938 C 388.503906 395.542969 389.753906 402.242188 388.894531 408.617188 C 388.070312 414.847656 385.164062 420.730469 380.6875 425.320312 C 379.066406 426.9375 377.347656 428.402344 375.488281 429.617188 C 373.695312 430.804688 371.722656 431.84375 369.609375 432.703125 C 367.28125 433.675781 364.765625 434.460938 362.1875 434.964844 L 362.1875 443.425781 Z M 362.199219 443.425781 " fill-opacity="1" fill-rule="nonzero"/><path fill="#ffffff" d="M 326.144531 645.359375 C 320.378906 645.359375 315.714844 640.695312 315.714844 634.929688 C 315.714844 629.164062 320.378906 624.5 326.144531 624.5 L 377.410156 624.5 C 383.179688 624.5 387.84375 629.164062 387.84375 634.929688 C 387.84375 640.695312 383.179688 645.359375 377.410156 645.359375 Z M 326.144531 645.359375 " fill-opacity="1" fill-rule="nonzero"/><path fill="#fbbd80" d="M 389.335938 573 C 394.535156 565.109375 403.890625 561.921875 412.351562 566.828125 L 455.4375 591.660156 L 444.394531 572.558594 L 428.878906 545.714844 L 383.859375 467.726562 C 379.234375 459.699219 382.003906 449.34375 390.03125 444.675781 C 398.0625 440.050781 408.417969 442.816406 413.085938 450.847656 L 435.089844 489.019531 C 430.460938 480.988281 433.230469 470.632812 441.285156 466.007812 C 449.316406 461.355469 459.671875 464.148438 464.300781 472.175781 L 474.65625 490.09375 C 469.992188 482.066406 472.796875 471.671875 480.828125 467.042969 C 488.859375 462.414062 499.214844 465.183594 503.84375 473.214844 L 511.332031 486.148438 C 506.703125 478.121094 509.472656 467.765625 517.5 463.136719 C 525.53125 458.472656 535.886719 461.277344 540.554688 469.308594 L 595.109375 563.78125 C 599.230469 570.953125 601.558594 577.792969 602.671875 586.035156 L 607.335938 620.984375 L 619.667969 642.3125 L 518.4375 700.765625 L 506.105469 679.4375 L 497.292969 664.136719 C 491.742188 654.503906 484.75 647.546875 475.136719 641.984375 L 395.519531 596 C 387.476562 591.382812 384.683594 581.027344 389.335938 573 Z M 389.335938 573 " fill-opacity="1" fill-rule="evenodd"/><path fill="#e2aa73" d="M 435.078125 489.019531 L 465.578125 541.84375 C 467.007812 544.324219 470.242188 545.183594 472.710938 543.742188 L 473.859375 543.058594 C 476.363281 541.628906 477.222656 538.429688 475.757812 535.925781 L 437.265625 469.230469 C 432.421875 474.503906 431.347656 482.53125 435.078125 489.019531 Z M 435.078125 489.019531 " fill-opacity="1" fill-rule="evenodd"/><path fill="#e2aa73" d="M 474.65625 490.054688 C 470.890625 483.570312 472 475.539062 476.808594 470.269531 L 517.816406 541.261719 C 519.246094 543.742188 518.386719 546.964844 515.882812 548.394531 L 514.730469 549.078125 C 512.253906 550.507812 509.027344 549.644531 507.597656 547.144531 Z M 474.65625 490.054688 " fill-opacity="1" fill-rule="evenodd"/><path fill="#e2aa73" d="M 511.316406 486.148438 C 507.550781 479.664062 508.660156 471.632812 513.46875 466.359375 L 551.570312 532.347656 C 552.996094 534.828125 552.136719 538.050781 549.671875 539.480469 L 548.519531 540.125 C 546.015625 541.554688 542.816406 540.695312 541.390625 538.230469 Z M 511.316406 486.148438 " fill-opacity="1" fill-rule="evenodd"/><path fill="#0593fc" d="M 492.109375 687.503906 L 621.335938 612.917969 C 623.523438 611.625 626.355469 612.410156 627.609375 614.597656 L 646.246094 646.863281 C 647.5 649.050781 646.753906 651.886719 644.566406 653.136719 L 515.339844 727.761719 C 513.152344 729.011719 510.320312 728.265625 509.066406 726.078125 L 490.425781 693.785156 C 489.136719 691.585938 489.882812 688.765625 492.109375 687.503906 Z M 492.109375 687.503906 " fill-opacity="1" fill-rule="evenodd"/><g clip-path="url(#41c19fd065)"><path fill="#b0d8dd" d="M 199.816406 81 L 228.773438 81 C 208.300781 81 191.53125 97.742188 191.53125 118.234375 L 191.53125 648.9375 C 191.53125 669.410156 208.3125 686.175781 228.773438 686.175781 L 199.816406 686.175781 C 179.316406 686.175781 162.574219 669.398438 162.574219 648.9375 L 162.574219 118.25 C 162.574219 97.742188 179.316406 81 199.816406 81 Z M 199.816406 81 " fill-opacity="1" fill-rule="evenodd"/></g></svg>