<svg xmlns="http://www.w3.org/2000/svg" xmlns:xlink="http://www.w3.org/1999/xlink" width="1080" zoomAndPan="magnify" viewBox="0 0 810 809.999993" height="1080" preserveAspectRatio="xMidYMid meet" version="1.0"><defs><clipPath id="6461d0d332"><path d="M 99.226562 81 L 558 81 L 558 653 L 99.226562 653 Z M 99.226562 81 " clip-rule="nonzero"/></clipPath><clipPath id="a80a1566e1"><path d="M 377 395 L 710.476562 395 L 710.476562 729 L 377 729 Z M 377 395 " clip-rule="nonzero"/></clipPath><clipPath id="2d3eb4fed9"><path d="M 438 395 L 710.476562 395 L 710.476562 729 L 438 729 Z M 438 395 " clip-rule="nonzero"/></clipPath></defs><g clip-path="url(#6461d0d332)"><path fill="#8ac9fe" d="M 328.296875 81.148438 L 99.183594 179.328125 L 99.183594 377.125 C 99.183594 511.507812 196.523438 628.066406 328.296875 652.492188 C 460.152344 628.066406 557.488281 511.507812 557.488281 377.125 L 557.488281 179.328125 Z M 328.296875 81.148438 " fill-opacity="1" fill-rule="evenodd"/></g><path fill="#60b7ff" d="M 516.246094 522.71875 L 516.246094 161.660156 L 557.488281 179.328125 L 557.488281 377.125 C 557.488281 429.90625 542.472656 479.9375 516.246094 522.71875 Z M 516.246094 522.71875 " fill-opacity="1" fill-rule="evenodd"/><path fill="#6cf5c2" d="M 230.527344 399.257812 L 425.859375 399.257812 C 431.332031 399.257812 436.023438 396.902344 439.285156 392.511719 C 442.542969 388.121094 443.460938 382.925781 441.875 377.699219 C 427.152344 328.847656 381.835938 293.261719 328.199219 293.261719 C 274.566406 293.261719 229.234375 328.847656 214.511719 377.699219 C 212.9375 382.925781 213.84375 388.121094 217.101562 392.511719 C 220.363281 396.902344 225.070312 399.257812 230.527344 399.257812 Z M 230.527344 399.257812 " fill-opacity="1" fill-rule="evenodd"/><path fill="#00e499" d="M 425.859375 399.257812 C 431.332031 399.257812 436.023438 396.902344 439.285156 392.511719 C 442.542969 388.121094 443.460938 382.925781 441.875 377.699219 C 427.152344 328.847656 381.835938 293.261719 328.199219 293.261719 C 322.519531 293.261719 316.933594 293.664062 311.472656 294.429688 C 357.628906 300.953125 395.261719 334.015625 408.421875 377.699219 C 410.007812 382.925781 409.105469 388.121094 405.84375 392.511719 C 402.585938 396.902344 397.878906 399.257812 392.417969 399.257812 Z M 425.859375 399.257812 " fill-opacity="1" fill-rule="evenodd"/><path fill="#f6dccd" d="M 328.199219 283.421875 C 361.265625 283.421875 388.226562 256.445312 388.226562 223.367188 C 388.226562 190.289062 361.265625 163.3125 328.199219 163.3125 C 295.136719 163.3125 268.171875 190.289062 268.171875 223.367188 C 268.171875 256.445312 295.136719 283.421875 328.199219 283.421875 Z M 328.199219 283.421875 " fill-opacity="1" fill-rule="evenodd"/><path fill="#f1cbbc" d="M 328.199219 163.3125 C 361.347656 163.3125 388.226562 190.203125 388.226562 223.367188 C 388.226562 256.542969 361.347656 283.421875 328.199219 283.421875 C 325.359375 283.421875 322.558594 283.226562 319.832031 282.851562 C 349.019531 278.769531 371.5 253.703125 371.5 223.367188 C 371.5 193.046875 349.019531 167.964844 319.832031 163.898438 C 322.558594 163.523438 325.359375 163.3125 328.199219 163.3125 Z M 328.199219 163.3125 " fill-opacity="1" fill-rule="evenodd"/><path fill="#eceff1" d="M 201.035156 453.976562 C 195.007812 453.976562 190.117188 449.082031 190.117188 443.050781 C 190.117188 437.023438 195.007812 432.128906 201.035156 432.128906 L 448.304688 432.128906 C 454.332031 432.128906 459.222656 437.023438 459.222656 443.050781 C 459.222656 449.082031 454.332031 453.976562 448.304688 453.976562 Z M 201.035156 453.976562 " fill-opacity="1" fill-rule="evenodd"/><path fill="#eceff1" d="M 201.035156 504.574219 C 195.007812 504.574219 190.117188 499.679688 190.117188 493.652344 C 190.117188 487.621094 195.007812 482.726562 201.035156 482.726562 L 448.304688 482.726562 C 454.332031 482.726562 459.222656 487.621094 459.222656 493.652344 C 459.222656 499.679688 454.332031 504.574219 448.304688 504.574219 Z M 201.035156 504.574219 " fill-opacity="1" fill-rule="evenodd"/><path fill="#eceff1" d="M 201.035156 555.171875 C 195.007812 555.171875 190.117188 550.277344 190.117188 544.25 C 190.117188 538.21875 195.007812 533.328125 201.035156 533.328125 L 448.304688 533.328125 C 454.332031 533.328125 459.222656 538.21875 459.222656 544.25 C 459.222656 550.277344 454.332031 555.171875 448.304688 555.171875 Z M 201.035156 555.171875 " fill-opacity="1" fill-rule="evenodd"/><g clip-path="url(#a80a1566e1)"><path fill="#ffe177" d="M 577.046875 423.347656 C 591.753906 426.851562 605.792969 432.671875 618.652344 440.601562 L 645.6875 428.601562 L 677.542969 460.46875 L 665.546875 487.519531 C 673.472656 500.382812 679.292969 514.429688 682.792969 529.144531 L 710.378906 539.765625 L 710.378906 584.855469 L 682.792969 595.476562 C 679.292969 610.171875 673.472656 624.21875 665.546875 637.082031 L 677.542969 664.132812 L 645.6875 696.019531 L 618.652344 684 C 605.792969 691.929688 591.753906 697.769531 577.046875 701.273438 L 566.429688 728.851562 L 521.363281 728.851562 L 510.746094 701.253906 C 496.058594 697.75 482.019531 691.929688 469.160156 684 L 442.125 696.019531 L 410.25 664.132812 L 422.265625 637.101562 C 414.339844 624.21875 408.5 610.171875 405 595.476562 L 377.433594 584.855469 L 377.433594 539.765625 L 405 529.144531 C 408.5 514.429688 414.339844 500.382812 422.265625 487.519531 L 410.25 460.46875 L 442.125 428.601562 L 469.140625 440.601562 C 482.019531 432.671875 496.058594 426.851562 510.746094 423.347656 L 521.363281 395.75 L 566.429688 395.75 Z M 577.046875 423.347656 " fill-opacity="1" fill-rule="evenodd"/></g><g clip-path="url(#2d3eb4fed9)"><path fill="#ffd064" d="M 636.605469 432.632812 L 645.6875 428.601562 L 677.542969 460.46875 L 665.546875 487.519531 C 673.472656 500.382812 679.292969 514.429688 682.792969 529.144531 L 710.378906 539.765625 L 710.378906 584.855469 L 682.792969 595.476562 C 679.292969 610.171875 673.472656 624.21875 665.546875 637.082031 L 677.542969 664.132812 L 645.6875 696.019531 L 636.605469 691.988281 L 664.445312 664.132812 L 652.433594 637.082031 C 660.359375 624.21875 666.175781 610.171875 669.675781 595.476562 L 697.261719 584.855469 L 697.261719 539.765625 L 669.675781 529.144531 C 666.175781 514.429688 660.359375 500.382812 652.433594 487.519531 L 664.445312 460.46875 Z M 438.09375 432.632812 L 442.125 428.601562 L 469.140625 440.601562 C 467.234375 441.664062 465.34375 442.765625 463.496094 443.925781 Z M 577.046875 423.347656 C 591.753906 426.851562 605.792969 432.671875 618.652344 440.601562 L 611.199219 443.925781 C 598.339844 435.996094 578.640625 426.851562 563.933594 423.347656 L 553.316406 395.75 L 566.429688 395.75 Z M 469.160156 684 L 442.125 696.019531 L 438.09375 691.988281 L 463.496094 680.695312 C 465.34375 681.835938 467.234375 682.9375 469.160156 684 Z M 618.652344 684 C 605.792969 691.929688 591.753906 697.769531 577.046875 701.273438 L 566.429688 728.851562 L 553.316406 728.851562 L 563.933594 701.273438 C 578.640625 697.769531 598.339844 688.625 611.21875 680.695312 Z M 618.652344 684 " fill-opacity="1" fill-rule="evenodd"/></g><path fill="#eceff1" d="M 543.898438 465.464844 C 597.359375 465.464844 640.695312 508.824219 640.695312 562.3125 C 640.695312 615.777344 597.359375 659.136719 543.898438 659.136719 C 490.453125 659.136719 447.117188 615.777344 447.117188 562.3125 C 447.117188 508.824219 490.453125 465.464844 543.898438 465.464844 Z M 543.898438 465.464844 " fill-opacity="1" fill-rule="evenodd"/><path fill="#d1d1d6" d="M 543.898438 465.464844 C 546.097656 465.464844 548.28125 465.542969 550.464844 465.703125 C 500.070312 469.066406 460.214844 511.023438 460.214844 562.3125 C 460.214844 613.574219 500.070312 655.535156 550.464844 658.917969 C 548.28125 659.058594 546.097656 659.136719 543.898438 659.136719 C 490.453125 659.136719 447.117188 615.777344 447.117188 562.3125 C 447.117188 508.824219 490.453125 465.464844 543.898438 465.464844 Z M 543.898438 465.464844 " fill-opacity="1" fill-rule="evenodd"/></svg>