<svg xmlns="http://www.w3.org/2000/svg" xmlns:xlink="http://www.w3.org/1999/xlink" width="1080" zoomAndPan="magnify" viewBox="0 0 810 809.999993" height="1080" preserveAspectRatio="xMidYMid meet" version="1.0"><defs><clipPath id="84d718b267"><path d="M 93.148438 484 L 387 484 L 387 612 L 93.148438 612 Z M 93.148438 484 " clip-rule="nonzero"/></clipPath></defs><path fill="#e2e7f0" d="M 242.507812 81.253906 L 567.78125 81.253906 C 589.738281 81.253906 607.652344 99.195312 607.652344 121.105469 L 607.652344 688.894531 C 607.652344 710.804688 589.738281 728.746094 567.78125 728.746094 L 242.507812 728.746094 C 220.585938 728.746094 202.636719 710.804688 202.636719 688.894531 L 202.636719 121.105469 C 202.636719 99.195312 220.601562 81.253906 242.507812 81.253906 Z M 242.507812 81.253906 " fill-opacity="1" fill-rule="evenodd"/><path fill="#2f5274" d="M 607.664062 661.105469 L 607.664062 688.894531 C 607.664062 710.804688 589.75 728.746094 567.792969 728.746094 L 242.507812 728.746094 C 220.585938 728.746094 202.636719 710.804688 202.636719 688.894531 L 202.636719 661.105469 Z M 607.664062 661.105469 " fill-opacity="1" fill-rule="evenodd"/><path fill="#2f5274" d="M 298.898438 81.253906 L 511.441406 81.253906 L 500.488281 122.472656 C 498.925781 128.253906 493.855469 132.167969 487.859375 132.167969 L 322.476562 132.167969 C 316.480469 132.167969 311.410156 128.238281 309.851562 122.472656 Z M 298.898438 81.253906 " fill-opacity="1" fill-rule="evenodd"/><path fill="#ffffff" d="M 389.265625 705.367188 C 383.484375 705.367188 378.816406 700.703125 378.816406 694.925781 C 378.816406 689.148438 383.484375 684.484375 389.265625 684.484375 L 421.035156 684.484375 C 426.816406 684.484375 431.507812 689.148438 431.507812 694.925781 C 431.507812 700.703125 426.804688 705.367188 421.035156 705.367188 Z M 389.265625 705.367188 " fill-opacity="1" fill-rule="nonzero"/><path fill="#ffd400" d="M 334.472656 314.335938 C 379.933594 314.335938 416.8125 351.195312 416.8125 396.636719 C 416.8125 442.113281 379.933594 478.976562 334.472656 478.976562 C 288.972656 478.976562 252.089844 442.113281 252.089844 396.636719 C 252.105469 351.195312 288.972656 314.296875 334.472656 314.335938 Z M 334.472656 314.335938 " fill-opacity="1" fill-rule="evenodd"/><path fill="#fea832" d="M 357.277344 359.230469 C 361.613281 363.042969 362.058594 369.59375 358.28125 373.917969 C 354.464844 378.25 347.910156 378.695312 343.585938 374.917969 C 342.992188 374.398438 342.332031 373.992188 341.582031 373.703125 C 340.910156 373.449219 340.136719 373.332031 339.328125 373.332031 L 335.398438 373.332031 C 333.621094 373.332031 332.023438 374.03125 330.84375 375.222656 C 329.667969 376.398438 328.957031 377.996094 328.957031 379.769531 C 328.957031 381.507812 329.628906 383.066406 330.730469 384.207031 C 331.886719 385.382812 333.433594 386.171875 335.144531 386.246094 C 335.699219 386.246094 336.257812 386.320312 336.804688 386.4375 C 343.246094 387.210938 349.027344 390.25 353.285156 394.722656 C 357.988281 399.601562 360.878906 406.265625 360.878906 413.554688 C 360.878906 421.066406 357.8125 427.910156 352.878906 432.828125 C 350.875 434.789062 348.621094 436.488281 346.148438 437.78125 L 346.148438 445.511719 C 346.148438 451.289062 341.480469 455.953125 335.699219 455.953125 C 329.921875 455.953125 325.253906 451.289062 325.253906 445.511719 L 325.253906 440.480469 C 323.441406 440.1875 321.703125 439.707031 319.992188 439.074219 C 316.925781 437.921875 314.074219 436.183594 311.625 434.042969 C 307.289062 430.265625 306.847656 423.679688 310.664062 419.355469 C 314.441406 415.023438 321.03125 414.578125 325.355469 418.394531 C 325.914062 418.875 326.609375 419.320312 327.359375 419.574219 C 328.03125 419.824219 328.765625 419.976562 329.617188 419.976562 L 333.546875 419.976562 C 335.28125 419.976562 336.917969 419.242188 338.058594 418.050781 C 339.238281 416.898438 339.984375 415.277344 339.984375 413.539062 C 339.984375 411.804688 339.289062 410.207031 338.171875 409.066406 C 337.058594 407.890625 335.550781 407.140625 333.835938 407.066406 C 333.316406 407.027344 332.796875 406.953125 332.277344 406.875 C 325.800781 406.140625 319.980469 403.097656 315.695312 398.664062 C 310.953125 393.710938 308.039062 387.042969 308.039062 379.757812 C 308.039062 372.207031 311.105469 365.402344 316.074219 360.445312 C 318.664062 357.863281 321.78125 355.785156 325.253906 354.378906 L 325.253906 347.75 C 325.253906 341.972656 329.921875 337.308594 335.699219 337.308594 C 341.480469 337.308594 346.148438 341.972656 346.148438 347.75 L 346.148438 353.300781 C 347.109375 353.554688 348.035156 353.859375 348.925781 354.1875 C 352.015625 355.378906 354.832031 357.074219 357.277344 359.230469 Z M 357.277344 359.230469 " fill-opacity="1" fill-rule="nonzero"/><path fill="#70da40" d="M 497.152344 317.148438 C 541.09375 328.917969 567.160156 374.019531 555.394531 417.949219 C 543.617188 461.832031 498.496094 487.886719 454.542969 476.125 C 410.640625 464.390625 384.574219 419.253906 396.339844 375.359375 C 408.078125 331.441406 453.238281 305.390625 497.152344 317.148438 Z M 497.152344 317.148438 " fill-opacity="1" fill-rule="evenodd"/><path fill="#ffffff" d="M 508.257812 365.808594 C 512.328125 361.738281 518.957031 361.738281 523.027344 365.808594 C 527.097656 369.914062 527.097656 376.5 523.027344 380.570312 L 476.15625 427.453125 C 472.050781 431.523438 465.457031 431.523438 461.386719 427.453125 L 428.691406 394.773438 C 424.585938 390.707031 424.585938 384.078125 428.691406 380.011719 C 432.761719 375.945312 439.355469 375.945312 443.460938 380.011719 L 468.753906 405.292969 Z M 508.257812 365.808594 " fill-opacity="1" fill-rule="nonzero"/><path fill="#0593fc" d="M 638.421875 222.085938 C 642.453125 222.085938 645.75 218.792969 645.75 214.761719 L 645.75 189.152344 C 645.75 186.148438 647.484375 183.5625 650.300781 182.386719 C 653.078125 181.234375 656.144531 181.828125 658.261719 183.980469 L 714.308594 240.003906 C 717.164062 242.855469 717.164062 247.519531 714.308594 250.367188 L 658.261719 306.390625 C 656.15625 308.53125 653.078125 309.125 650.300781 307.988281 C 647.484375 306.808594 645.75 304.25 645.75 301.21875 L 645.75 275.609375 C 645.75 271.582031 642.453125 268.285156 638.421875 268.285156 L 429.984375 268.285156 C 426.398438 268.285156 423.429688 265.359375 423.429688 261.773438 L 423.429688 228.648438 C 423.429688 225.027344 426.398438 222.097656 429.984375 222.097656 C 499.484375 222.085938 568.972656 222.085938 638.421875 222.085938 Z M 638.421875 222.085938 " fill-opacity="1" fill-rule="evenodd"/><g clip-path="url(#84d718b267)"><path fill="#0593fc" d="M 171.867188 525 C 167.835938 525 164.539062 521.707031 164.539062 517.675781 L 164.539062 492.066406 C 164.539062 489.0625 162.800781 486.476562 160.023438 485.335938 C 157.210938 484.160156 154.179688 484.78125 152.027344 486.898438 L 95.976562 542.917969 C 93.125 545.769531 93.125 550.433594 95.976562 553.28125 L 152.027344 609.304688 C 154.167969 611.445312 157.210938 612.039062 160.023438 610.902344 C 162.800781 609.746094 164.539062 607.164062 164.539062 604.132812 L 164.539062 578.523438 C 164.539062 574.496094 167.835938 571.199219 171.867188 571.199219 L 380.339844 571.199219 C 383.925781 571.199219 386.855469 568.273438 386.855469 564.6875 L 386.855469 531.5625 C 386.855469 527.976562 383.925781 525.011719 380.339844 525.011719 C 310.851562 525 241.367188 525 171.867188 525 Z M 171.867188 525 " fill-opacity="1" fill-rule="evenodd"/></g><path fill="#e6bf00" d="M 270.386719 396.636719 C 270.386719 354.261719 302.449219 319.378906 343.613281 314.816406 C 340.609375 314.488281 337.539062 314.335938 334.472656 314.335938 C 288.972656 314.296875 252.089844 351.195312 252.089844 396.636719 C 252.089844 442.113281 288.972656 478.976562 334.472656 478.976562 C 337.539062 478.976562 340.621094 478.785156 343.613281 478.457031 C 302.449219 473.90625 270.386719 439.011719 270.386719 396.636719 Z M 270.386719 396.636719 " fill-opacity="1" fill-rule="evenodd"/><path fill="#65c43a" d="M 411.78125 396.636719 C 411.78125 354.261719 443.84375 319.378906 485.007812 314.816406 C 482.003906 314.488281 478.933594 314.335938 475.867188 314.335938 C 430.367188 314.296875 393.488281 351.195312 393.488281 396.636719 C 393.488281 442.113281 430.367188 478.976562 475.867188 478.976562 C 478.933594 478.976562 482.015625 478.785156 485.007812 478.457031 C 443.84375 473.90625 411.78125 439.011719 411.78125 396.636719 Z M 411.78125 396.636719 " fill-opacity="1" fill-rule="evenodd"/><path fill="#cbd0d8" d="M 202.636719 571.1875 L 229.335938 571.1875 L 229.335938 661.105469 L 202.636719 661.105469 Z M 202.636719 571.1875 " fill-opacity="1" fill-rule="evenodd"/><path fill="#cbd0d8" d="M 202.636719 525 C 211.558594 525 220.449219 525 229.335938 525 L 229.335938 121.105469 C 229.335938 99.195312 247.285156 81.253906 269.207031 81.253906 L 242.507812 81.253906 C 220.585938 81.253906 202.636719 99.195312 202.636719 121.105469 Z M 202.636719 525 " fill-opacity="1" fill-rule="evenodd"/><path fill="#2a4a68" d="M 229.335938 661.105469 L 202.636719 661.105469 L 202.636719 688.894531 C 202.636719 710.804688 220.585938 728.746094 242.507812 728.746094 L 269.207031 728.746094 C 247.285156 728.746094 229.335938 710.804688 229.335938 688.894531 Z M 229.335938 661.105469 " fill-opacity="1" fill-rule="evenodd"/></svg>