<svg xmlns="http://www.w3.org/2000/svg" xmlns:xlink="http://www.w3.org/1999/xlink" width="1080" zoomAndPan="magnify" viewBox="0 0 810 809.999993" height="1080" preserveAspectRatio="xMidYMid meet" version="1.0"><defs><clipPath id="b73dae393e"><path d="M 160 81 L 702.824219 81 L 702.824219 729 L 160 729 Z M 160 81 " clip-rule="nonzero"/></clipPath><clipPath id="9538ceed1c"><path d="M 424 81 L 702.824219 81 L 702.824219 729 L 424 729 Z M 424 81 " clip-rule="nonzero"/></clipPath><clipPath id="20b66b0554"><path d="M 107.324219 342 L 495 342 L 495 729 L 107.324219 729 Z M 107.324219 342 " clip-rule="nonzero"/></clipPath></defs><g clip-path="url(#b73dae393e)"><path fill="#6cf5c2" d="M 431.496094 81 L 702.839844 197.289062 L 702.839844 416.558594 C 702.839844 569.207031 591.71875 701.082031 441.367188 727.246094 L 431.496094 729 L 421.621094 727.246094 C 271.335938 701.082031 160.210938 569.207031 160.210938 416.558594 L 160.210938 197.289062 Z M 431.496094 81 " fill-opacity="1" fill-rule="evenodd"/></g><g clip-path="url(#9538ceed1c)"><path fill="#00e499" d="M 424.742188 83.894531 L 431.496094 81 L 702.839844 197.289062 L 702.839844 416.558594 C 702.839844 569.207031 591.71875 701.082031 441.367188 727.246094 L 431.496094 729 L 424.742188 727.800781 L 427.863281 727.246094 C 578.214844 701.082031 689.335938 569.207031 689.335938 416.558594 L 689.335938 197.289062 Z M 424.742188 83.894531 " fill-opacity="1" fill-rule="evenodd"/></g><path fill="#eceff1" d="M 431.496094 165.734375 L 238.148438 248.582031 L 238.148438 416.558594 C 238.148438 530.183594 320.242188 628.746094 431.496094 649.914062 C 542.8125 628.746094 624.90625 530.183594 624.90625 416.558594 L 624.90625 248.582031 Z M 431.496094 165.734375 " fill-opacity="1" fill-rule="evenodd"/><path fill="#d1d1d6" d="M 438.246094 168.625 L 251.652344 248.582031 L 251.652344 416.558594 C 251.652344 527.875 330.441406 624.734375 438.246094 648.527344 C 436.007812 649.023438 433.757812 649.484375 431.496094 649.914062 C 320.242188 628.746094 238.148438 530.183594 238.148438 416.558594 L 238.148438 248.582031 L 431.496094 165.734375 Z M 438.246094 168.625 " fill-opacity="1" fill-rule="evenodd"/><g clip-path="url(#20b66b0554)"><path fill="#8ac9fe" d="M 494.199219 535.671875 C 494.199219 538.835938 494.121094 541.996094 493.964844 545.15625 C 493.8125 548.316406 493.578125 551.472656 493.269531 554.621094 C 492.957031 557.769531 492.570312 560.910156 492.105469 564.039062 C 491.640625 567.167969 491.101562 570.285156 490.484375 573.386719 C 489.867188 576.492188 489.171875 579.578125 488.402344 582.648438 C 487.636719 585.714844 486.789062 588.765625 485.871094 591.792969 C 484.953125 594.820312 483.960938 597.824219 482.894531 600.800781 C 481.828125 603.78125 480.691406 606.730469 479.480469 609.65625 C 478.269531 612.578125 476.984375 615.46875 475.632812 618.332031 C 474.28125 621.191406 472.855469 624.015625 471.367188 626.804688 C 469.875 629.597656 468.3125 632.347656 466.6875 635.0625 C 465.058594 637.777344 463.367188 640.449219 461.609375 643.078125 C 459.851562 645.710938 458.027344 648.296875 456.144531 650.835938 C 454.257812 653.378906 452.3125 655.871094 450.304688 658.316406 C 448.296875 660.765625 446.230469 663.160156 444.105469 665.503906 C 441.980469 667.847656 439.796875 670.136719 437.558594 672.375 C 435.324219 674.613281 433.03125 676.792969 430.6875 678.917969 C 428.339844 681.042969 425.945312 683.109375 423.5 685.117188 C 421.050781 687.125 418.558594 689.070312 416.015625 690.953125 C 413.472656 692.839844 410.886719 694.660156 408.257812 696.417969 C 405.625 698.175781 402.953125 699.867188 400.238281 701.496094 C 397.523438 703.121094 394.769531 704.679688 391.980469 706.171875 C 389.1875 707.664062 386.363281 709.085938 383.5 710.4375 C 380.640625 711.792969 377.746094 713.074219 374.824219 714.285156 C 371.898438 715.496094 368.949219 716.632812 365.96875 717.699219 C 362.988281 718.765625 359.984375 719.757812 356.957031 720.675781 C 353.925781 721.59375 350.878906 722.4375 347.808594 723.207031 C 344.738281 723.976562 341.652344 724.667969 338.546875 725.285156 C 335.445312 725.902344 332.328125 726.441406 329.195312 726.90625 C 326.066406 727.371094 322.925781 727.757812 319.777344 728.070312 C 316.625 728.378906 313.472656 728.613281 310.308594 728.765625 C 307.148438 728.921875 303.988281 729 300.820312 729 C 297.65625 729 294.492188 728.921875 291.332031 728.765625 C 288.171875 728.613281 285.015625 728.378906 281.867188 728.070312 C 278.71875 727.757812 275.578125 727.371094 272.445312 726.90625 C 269.316406 726.441406 266.199219 725.902344 263.09375 725.285156 C 259.992188 724.667969 256.90625 723.976562 253.835938 723.207031 C 250.765625 722.4375 247.714844 721.59375 244.6875 720.675781 C 241.660156 719.757812 238.65625 718.765625 235.675781 717.699219 C 232.695312 716.632812 229.742188 715.496094 226.820312 714.285156 C 223.894531 713.074219 221.003906 711.792969 218.140625 710.4375 C 215.28125 709.085938 212.457031 707.664062 209.664062 706.171875 C 206.871094 704.679688 204.121094 703.121094 201.40625 701.496094 C 198.691406 699.867188 196.019531 698.175781 193.386719 696.417969 C 190.753906 694.660156 188.167969 692.839844 185.625 690.953125 C 183.085938 689.070312 180.589844 687.125 178.144531 685.117188 C 175.699219 683.109375 173.300781 681.042969 170.957031 678.917969 C 168.613281 676.792969 166.320312 674.613281 164.082031 672.375 C 161.84375 670.136719 159.664062 667.847656 157.539062 665.503906 C 155.414062 663.160156 153.347656 660.765625 151.339844 658.316406 C 149.332031 655.871094 147.382812 653.378906 145.5 650.835938 C 143.613281 648.296875 141.792969 645.710938 140.035156 643.078125 C 138.277344 640.449219 136.582031 637.777344 134.957031 635.0625 C 133.328125 632.347656 131.769531 629.597656 130.277344 626.804688 C 128.785156 624.015625 127.363281 621.191406 126.011719 618.332031 C 124.65625 615.46875 123.375 612.578125 122.164062 609.65625 C 120.953125 606.730469 119.8125 603.78125 118.75 600.800781 C 117.683594 597.824219 116.691406 594.820312 115.769531 591.792969 C 114.851562 588.765625 114.007812 585.714844 113.238281 582.648438 C 112.46875 579.578125 111.777344 576.492188 111.160156 573.386719 C 110.542969 570.285156 110 567.167969 109.535156 564.039062 C 109.074219 560.910156 108.683594 557.769531 108.375 554.621094 C 108.066406 551.472656 107.832031 548.316406 107.675781 545.15625 C 107.523438 541.996094 107.445312 538.835938 107.445312 535.671875 C 107.445312 532.507812 107.523438 529.347656 107.675781 526.1875 C 107.832031 523.027344 108.066406 519.871094 108.375 516.722656 C 108.683594 513.574219 109.074219 510.433594 109.535156 507.304688 C 110 504.175781 110.542969 501.058594 111.160156 497.957031 C 111.777344 494.851562 112.46875 491.765625 113.238281 488.695312 C 114.007812 485.628906 114.851562 482.578125 115.769531 479.550781 C 116.691406 476.523438 117.683594 473.519531 118.75 470.542969 C 119.8125 467.5625 120.953125 464.613281 122.164062 461.6875 C 123.375 458.765625 124.65625 455.875 126.011719 453.011719 C 127.363281 450.152344 128.785156 447.328125 130.277344 444.539062 C 131.769531 441.746094 133.328125 438.996094 134.957031 436.28125 C 136.582031 433.566406 138.277344 430.894531 140.035156 428.265625 C 141.792969 425.632812 143.613281 423.046875 145.5 420.507812 C 147.382812 417.964844 149.332031 415.472656 151.339844 413.027344 C 153.347656 410.582031 155.414062 408.183594 157.539062 405.839844 C 159.664062 403.496094 161.84375 401.207031 164.082031 398.96875 C 166.320312 396.730469 168.613281 394.550781 170.957031 392.425781 C 173.300781 390.300781 175.699219 388.234375 178.144531 386.226562 C 180.589844 384.21875 183.085938 382.273438 185.625 380.390625 C 188.167969 378.503906 190.753906 376.683594 193.386719 374.925781 C 196.019531 373.167969 198.691406 371.476562 201.40625 369.847656 C 204.121094 368.222656 206.871094 366.664062 209.664062 365.171875 C 212.457031 363.679688 215.28125 362.257812 218.140625 360.90625 C 221.003906 359.550781 223.894531 358.269531 226.820312 357.058594 C 229.742188 355.847656 232.695312 354.710938 235.675781 353.644531 C 238.65625 352.578125 241.660156 351.585938 244.6875 350.667969 C 247.714844 349.75 250.765625 348.90625 253.835938 348.136719 C 256.90625 347.367188 259.992188 346.675781 263.09375 346.058594 C 266.199219 345.441406 269.316406 344.902344 272.445312 344.4375 C 275.578125 343.972656 278.71875 343.585938 281.867188 343.273438 C 285.015625 342.964844 288.171875 342.730469 291.332031 342.578125 C 294.492188 342.421875 297.65625 342.34375 300.820312 342.34375 C 303.988281 342.34375 307.148438 342.421875 310.308594 342.578125 C 313.472656 342.730469 316.625 342.964844 319.777344 343.273438 C 322.925781 343.585938 326.066406 343.972656 329.195312 344.4375 C 332.328125 344.902344 335.445312 345.441406 338.546875 346.058594 C 341.652344 346.675781 344.738281 347.367188 347.808594 348.136719 C 350.878906 348.90625 353.925781 349.75 356.957031 350.667969 C 359.984375 351.585938 362.988281 352.578125 365.96875 353.644531 C 368.949219 354.710938 371.898438 355.847656 374.824219 357.058594 C 377.746094 358.269531 380.640625 359.550781 383.5 360.90625 C 386.363281 362.257812 389.1875 363.679688 391.980469 365.171875 C 394.769531 366.664062 397.523438 368.222656 400.238281 369.847656 C 402.953125 371.476562 405.625 373.167969 408.257812 374.925781 C 410.886719 376.683594 413.472656 378.503906 416.015625 380.390625 C 418.558594 382.273438 421.050781 384.21875 423.5 386.226562 C 425.945312 388.234375 428.339844 390.300781 430.6875 392.425781 C 433.03125 394.550781 435.324219 396.730469 437.558594 398.96875 C 439.796875 401.207031 441.980469 403.496094 444.105469 405.839844 C 446.230469 408.183594 448.296875 410.578125 450.304688 413.027344 C 452.3125 415.472656 454.257812 417.964844 456.144531 420.507812 C 458.027344 423.046875 459.851562 425.632812 461.609375 428.265625 C 463.367188 430.894531 465.058594 433.566406 466.6875 436.28125 C 468.3125 438.996094 469.875 441.746094 471.367188 444.539062 C 472.855469 447.328125 474.28125 450.152344 475.632812 453.011719 C 476.984375 455.875 478.269531 458.765625 479.480469 461.6875 C 480.691406 464.613281 481.828125 467.5625 482.894531 470.542969 C 483.960938 473.519531 484.953125 476.523438 485.871094 479.550781 C 486.789062 482.578125 487.636719 485.628906 488.402344 488.695312 C 489.171875 491.765625 489.867188 494.851562 490.484375 497.957031 C 491.101562 501.058594 491.640625 504.175781 492.105469 507.304688 C 492.570312 510.433594 492.957031 513.574219 493.269531 516.722656 C 493.578125 519.871094 493.8125 523.027344 493.964844 526.1875 C 494.121094 529.347656 494.199219 532.507812 494.199219 535.671875 Z M 494.199219 535.671875 " fill-opacity="1" fill-rule="nonzero"/></g><path fill="#60b7ff" d="M 294.070312 342.457031 C 296.3125 342.382812 298.5625 342.34375 300.820312 342.34375 C 407.550781 342.34375 494.199219 428.96875 494.199219 535.671875 C 494.199219 642.371094 407.550781 729 300.820312 729 C 298.5625 729 296.3125 728.960938 294.070312 728.882812 C 397.679688 725.324219 480.695312 640.113281 480.695312 535.671875 C 480.695312 431.230469 397.679688 346.019531 294.070312 342.457031 Z M 294.070312 342.457031 " fill-opacity="1" fill-rule="evenodd"/><path fill="#837683" d="M 339.8125 495.640625 L 372.726562 495.640625 L 372.726562 465.445312 C 372.726562 425.902344 340.390625 393.542969 300.835938 393.542969 C 261.285156 393.542969 228.917969 425.902344 228.917969 465.445312 L 228.917969 495.640625 L 261.863281 495.640625 L 261.863281 465.445312 C 261.863281 444.042969 279.464844 426.449219 300.835938 426.449219 C 322.210938 426.449219 339.8125 444.042969 339.8125 465.445312 Z M 339.8125 495.640625 " fill-opacity="1" fill-rule="evenodd"/><path fill="#685e68" d="M 250.390625 495.640625 L 250.390625 465.445312 C 250.390625 444.042969 267.992188 426.449219 289.367188 426.449219 C 291.3125 426.449219 293.230469 426.597656 295.101562 426.875 C 276.402344 429.6875 261.863281 445.992188 261.863281 465.445312 L 261.863281 495.640625 Z M 361.253906 495.640625 L 361.253906 465.445312 C 361.253906 427.832031 331.996094 396.71875 295.101562 393.769531 C 296.996094 393.621094 298.90625 393.542969 300.835938 393.542969 C 340.390625 393.542969 372.726562 425.902344 372.726562 465.445312 L 372.726562 495.640625 Z M 361.253906 495.640625 " fill-opacity="1" fill-rule="evenodd"/><path fill="#ffe177" d="M 212.808594 495.640625 L 388.863281 495.640625 C 396.113281 495.640625 401.988281 501.546875 401.988281 508.761719 L 401.988281 648.667969 C 401.988281 655.914062 396.113281 661.789062 388.863281 661.789062 L 212.808594 661.789062 C 205.5625 661.789062 199.65625 655.914062 199.65625 648.667969 L 199.65625 508.761719 C 199.65625 501.546875 205.5625 495.640625 212.808594 495.640625 Z M 212.808594 495.640625 " fill-opacity="1" fill-rule="evenodd"/><path fill="#ffd064" d="M 377.394531 495.640625 L 388.863281 495.640625 C 396.113281 495.640625 401.988281 501.546875 401.988281 508.761719 L 401.988281 648.667969 C 401.988281 655.914062 396.113281 661.789062 388.863281 661.789062 L 377.394531 661.789062 C 384.640625 661.789062 390.515625 655.914062 390.515625 648.667969 L 390.515625 508.761719 C 390.515625 501.546875 384.640625 495.640625 377.394531 495.640625 Z M 377.394531 495.640625 " fill-opacity="1" fill-rule="evenodd"/><path fill="#eceff1" d="M 300.835938 528.792969 C 314.964844 528.792969 326.414062 540.269531 326.414062 554.390625 C 326.414062 563.617188 321.574219 571.683594 314.265625 576.1875 L 314.265625 615.214844 C 314.265625 622.609375 308.207031 628.636719 300.835938 628.636719 C 293.4375 628.636719 287.410156 622.609375 287.410156 615.214844 L 287.410156 576.1875 C 280.101562 571.683594 275.230469 563.617188 275.230469 554.390625 C 275.230469 540.269531 286.710938 528.792969 300.835938 528.792969 Z M 300.835938 528.792969 " fill-opacity="1" fill-rule="evenodd"/><path fill="#d1d1d6" d="M 306.566406 627.34375 C 304.824219 628.175781 302.882812 628.636719 300.835938 628.636719 C 293.4375 628.636719 287.410156 622.609375 287.410156 615.214844 L 287.410156 576.1875 C 280.101562 571.683594 275.230469 563.617188 275.230469 554.390625 C 275.230469 540.269531 286.710938 528.792969 300.835938 528.792969 C 302.808594 528.792969 304.730469 529.015625 306.574219 529.4375 C 295.199219 532.046875 286.703125 542.238281 286.703125 554.390625 C 286.703125 563.617188 291.574219 571.683594 298.882812 576.1875 L 298.882812 615.214844 C 298.882812 620.558594 302.027344 625.1875 306.566406 627.34375 Z M 306.566406 627.34375 " fill-opacity="1" fill-rule="evenodd"/></svg>