<svg xmlns="http://www.w3.org/2000/svg" xmlns:xlink="http://www.w3.org/1999/xlink" width="1080" zoomAndPan="magnify" viewBox="0 0 810 809.999993" height="1080" preserveAspectRatio="xMidYMid meet" version="1.0"><path fill="#6fd7a3" d="M 352 616.273438 C 281.25 623.660156 229.972656 645.453125 229.972656 671.15625 C 229.972656 702.992188 308.386719 728.769531 405.09375 728.769531 C 501.835938 728.769531 580.214844 702.992188 580.214844 671.15625 C 580.214844 645.449219 528.902344 623.625 458.039062 616.273438 Z M 352 616.273438 " fill-opacity="1" fill-rule="evenodd"/><path fill="#3ec3a4" d="M 580.214844 671.15625 C 580.214844 647.222656 535.859375 626.726562 472.660156 618.007812 C 503.019531 628.386719 521.679688 642.460938 521.679688 657.972656 C 521.679688 689.769531 443.265625 715.585938 346.558594 715.585938 C 322.605469 715.585938 299.761719 713.996094 278.992188 711.117188 C 310.832031 722.011719 355.554688 728.769531 405.09375 728.769531 C 501.835938 728.769531 580.214844 702.992188 580.214844 671.15625 Z M 580.214844 671.15625 " fill-opacity="1" fill-rule="evenodd"/><path fill="#eb5569" d="M 528.75 116.464844 C 492.0625 94.488281 449.113281 82.117188 404.910156 81.230469 C 360.664062 82.117188 317.753906 94.488281 281.027344 116.464844 C 146.410156 197.085938 95.539062 407.085938 372.179688 655.386719 C 397.429688 676.695312 413.238281 679.132812 437.636719 655.386719 C 714.242188 407.085938 663.371094 197.085938 528.75 116.464844 Z M 528.75 116.464844 " fill-opacity="1" fill-rule="evenodd"/><path fill="#e53950" d="M 437.636719 655.386719 C 714.238281 407.085938 663.371094 197.085938 528.75 116.464844 C 502.945312 101.027344 474.066406 90.316406 443.820312 84.996094 C 602.058594 149.039062 685.363281 372.59375 386.582031 640.796875 C 380.660156 646.558594 375.253906 650.769531 370.105469 653.539062 C 370.808594 654.167969 371.476562 654.796875 372.179688 655.386719 C 397.429688 676.695312 413.238281 679.132812 437.636719 655.386719 Z M 437.636719 655.386719 " fill-opacity="1" fill-rule="evenodd"/><path fill="#fec165" d="M 404.910156 462.449219 C 490.839844 462.449219 560.925781 392.535156 560.925781 306.816406 C 560.925781 221.09375 490.839844 151.179688 404.910156 151.179688 C 318.976562 151.179688 248.855469 221.09375 248.855469 306.816406 C 248.855469 392.535156 318.976562 462.449219 404.910156 462.449219 Z M 404.910156 462.449219 " fill-opacity="1" fill-rule="evenodd"/><path fill="#fdb441" d="M 560.925781 306.8125 C 560.925781 220.871094 491.0625 151.179688 404.910156 151.179688 C 397.578125 151.179688 390.320312 151.660156 383.285156 152.65625 C 456.410156 165.546875 511.941406 229.253906 511.941406 305.925781 C 511.941406 384.558594 453.484375 449.558594 377.546875 460.085938 C 386.433594 461.636719 395.578125 462.449219 404.910156 462.449219 C 491.0625 462.449219 560.925781 392.792969 560.925781 306.8125 Z M 560.925781 306.8125 " fill-opacity="1" fill-rule="evenodd"/><path fill="#024c67" d="M 425.859375 296.640625 C 421.648438 295.152344 417.792969 293.742188 414.234375 292.382812 L 414.234375 233.613281 C 424.964844 235.527344 431.421875 241.050781 431.828125 241.40625 C 435.886719 244.960938 442.058594 244.554688 445.613281 240.496094 C 449.171875 236.4375 448.761719 230.261719 444.703125 226.707031 C 443.035156 225.242188 431.847656 215.996094 414.234375 213.851562 L 414.234375 200.890625 C 414.234375 195.496094 409.859375 191.121094 404.464844 191.121094 C 399.066406 191.121094 394.691406 195.496094 394.691406 200.890625 L 394.691406 214.609375 C 392.535156 215.03125 390.332031 215.5625 388.070312 216.242188 C 372.007812 221.058594 360.007812 234.796875 356.75 252.09375 C 353.796875 267.78125 358.792969 282.867188 369.785156 291.464844 C 376.585938 296.789062 385.25 301.390625 394.691406 305.53125 L 394.691406 378.75 C 384.300781 378.265625 377.820312 376.277344 366.730469 369.136719 C 362.191406 366.21875 356.148438 367.53125 353.226562 372.070312 C 350.304688 376.609375 351.617188 382.65625 356.15625 385.574219 C 371.035156 395.148438 381.113281 397.726562 394.691406 398.289062 L 394.691406 412.738281 C 394.691406 418.136719 399.066406 422.511719 404.464844 422.511719 C 409.859375 422.511719 414.234375 418.136719 414.234375 412.738281 L 414.234375 397.585938 C 440.554688 393.164062 455.902344 371.835938 459.242188 351.933594 C 463.425781 326.980469 450.324219 305.277344 425.859375 296.640625 Z M 381.824219 276.070312 C 376.605469 271.988281 374.355469 264.1875 375.953125 255.710938 C 377.441406 247.804688 382.878906 238.199219 393.683594 234.960938 C 394.023438 234.855469 394.355469 234.773438 394.691406 234.679688 L 394.691406 283.976562 C 389.398438 281.308594 385.226562 278.734375 381.824219 276.070312 Z M 439.972656 348.699219 C 437.957031 360.707031 429.195312 373.511719 414.234375 377.570312 L 414.234375 313.234375 C 415.941406 313.851562 417.648438 314.464844 419.351562 315.066406 C 442.355469 323.1875 440.949219 342.863281 439.972656 348.699219 Z M 439.972656 348.699219 " fill-opacity="1" fill-rule="nonzero"/></svg>