<svg xmlns="http://www.w3.org/2000/svg" xmlns:xlink="http://www.w3.org/1999/xlink" width="1080" zoomAndPan="magnify" viewBox="0 0 810 809.999993" height="1080" preserveAspectRatio="xMidYMid meet" version="1.0"><defs><clipPath id="0502de3fbe"><path d="M 94.769531 81 L 501 81 L 501 608 L 94.769531 608 Z M 94.769531 81 " clip-rule="nonzero"/></clipPath><clipPath id="05bde29058"><path d="M 94.769531 81 L 126 81 L 126 608 L 94.769531 608 Z M 94.769531 81 " clip-rule="nonzero"/></clipPath></defs><g clip-path="url(#0502de3fbe)"><path fill="#ffd400" d="M 109.859375 81 L 375.679688 81 C 379.769531 81 383.324219 82.46875 386.21875 85.378906 L 496.292969 195.488281 C 499.203125 198.398438 500.671875 201.941406 500.671875 206.03125 L 500.671875 592.984375 C 500.671875 601.195312 493.964844 607.867188 485.753906 607.867188 L 109.859375 607.867188 C 101.648438 607.867188 94.941406 601.195312 94.941406 592.984375 L 94.941406 95.894531 C 94.941406 87.707031 101.648438 81 109.859375 81 Z M 109.859375 81 " fill-opacity="1" fill-rule="evenodd"/></g><path fill="#0593fc" d="M 387.234375 308.925781 C 387.234375 364.574219 342.113281 409.695312 286.457031 409.695312 C 316.214844 605.726562 395.734375 694.664062 500.671875 729 C 605.570312 694.664062 685.128906 605.726562 714.859375 409.707031 C 659.230469 409.707031 614.125 364.574219 614.125 308.9375 L 387.234375 308.9375 Z M 387.234375 308.925781 " fill-opacity="1" fill-rule="evenodd"/><path fill="#f1f1f1" d="M 329.5625 440.082031 C 341.292969 499.214844 361.015625 560.164062 395.59375 608.195312 C 423.101562 646.441406 457.640625 673.097656 500.683594 689.488281 C 543.726562 673.097656 578.230469 646.429688 605.734375 608.195312 C 640.339844 560.152344 660.0625 499.199219 671.792969 440.082031 C 628.320312 425.808594 594.363281 390.46875 581.949219 346.160156 L 419.367188 346.160156 C 406.996094 390.46875 373.023438 425.808594 329.5625 440.082031 Z M 329.5625 440.082031 " fill-opacity="1" fill-rule="evenodd"/><path fill="#d9d9d9" d="M 344.191406 441.3125 C 388.445312 426.742188 423.089844 391.054688 436.222656 346.171875 L 419.367188 346.171875 C 406.996094 390.484375 373.035156 425.820312 329.5625 440.097656 C 341.292969 499.226562 361.015625 560.179688 395.59375 608.207031 C 423.101562 646.457031 457.640625 673.109375 500.683594 689.5 C 465.359375 672.464844 436.195312 647.671875 412.207031 614.308594 C 376.578125 564.859375 356.285156 502.113281 344.191406 441.3125 Z M 344.191406 441.3125 " fill-opacity="1" fill-rule="evenodd"/><path fill="#ebf5fc" d="M 241.1875 146.332031 C 288.164062 146.332031 326.222656 184.425781 326.222656 231.433594 C 326.222656 278.425781 288.164062 316.496094 241.1875 316.496094 C 194.210938 316.496094 156.113281 278.425781 156.113281 231.433594 C 156.113281 184.441406 194.210938 146.332031 241.1875 146.332031 Z M 241.1875 146.332031 " fill-opacity="1" fill-rule="evenodd"/><path fill="#0593fc" d="M 300.300781 292.601562 C 296.289062 273.589844 279.359375 259.199219 259.203125 259.199219 L 223.160156 259.199219 C 203.042969 259.199219 186.074219 273.589844 182.089844 292.601562 C 197.375 307.421875 218.199219 316.496094 241.199219 316.496094 C 264.140625 316.496094 284.976562 307.421875 300.300781 292.601562 Z M 300.300781 292.601562 " fill-opacity="1" fill-rule="evenodd"/><path fill="#0593fc" d="M 241.1875 188.527344 C 257.546875 188.527344 270.808594 201.804688 270.808594 218.15625 C 270.808594 234.546875 257.535156 247.820312 241.1875 247.820312 C 224.804688 247.820312 211.53125 234.546875 211.53125 218.15625 C 211.53125 201.804688 224.804688 188.527344 241.1875 188.527344 Z M 241.1875 188.527344 " fill-opacity="1" fill-rule="evenodd"/><path fill="#d4dde3" d="M 241.1875 146.332031 C 243.945312 146.332031 246.71875 146.472656 249.398438 146.722656 C 206.292969 150.886719 172.574219 187.1875 172.574219 231.433594 C 172.574219 249.1875 178.027344 265.691406 187.351562 279.363281 C 184.875 283.375 183.089844 287.828125 182.078125 292.601562 C 166.046875 277.132812 156.113281 255.429688 156.113281 231.433594 C 156.113281 184.441406 194.210938 146.332031 241.1875 146.332031 Z M 241.1875 146.332031 " fill-opacity="1" fill-rule="evenodd"/><path fill="#0584e3" d="M 187.351562 279.363281 C 201.234375 299.636719 223.652344 313.621094 249.398438 316.101562 C 246.703125 316.394531 243.945312 316.496094 241.1875 316.496094 C 218.199219 316.496094 197.359375 307.421875 182.078125 292.601562 C 183.089844 287.828125 184.886719 283.386719 187.351562 279.363281 Z M 187.351562 279.363281 " fill-opacity="1" fill-rule="evenodd"/><path fill="#fea832" d="M 381.855469 82.289062 C 383.4375 83.011719 384.90625 84.050781 386.234375 85.378906 L 496.308594 195.488281 C 497.636719 196.816406 498.671875 198.285156 499.394531 199.867188 L 381.867188 199.867188 L 381.867188 82.289062 Z M 381.855469 82.289062 " fill-opacity="1" fill-rule="evenodd"/><path fill="#2f5274" d="M 462.183594 489.921875 C 462.183594 495.695312 457.488281 500.363281 451.707031 500.363281 C 445.964844 500.363281 441.269531 495.695312 441.269531 489.921875 L 441.269531 443.675781 C 441.269531 435.679688 442.890625 428.035156 445.824219 420.996094 C 448.835938 413.683594 453.25 407.152344 458.703125 401.695312 C 469.460938 390.9375 484.3125 384.257812 500.671875 384.257812 C 508.628906 384.257812 516.308594 385.875 523.34375 388.773438 C 530.621094 391.824219 537.1875 396.242188 542.640625 401.683594 C 548.09375 407.140625 552.507812 413.667969 555.519531 420.984375 C 558.453125 428.023438 560.074219 435.652344 560.074219 443.664062 L 560.074219 489.910156 C 560.074219 495.683594 555.378906 500.351562 549.597656 500.351562 C 543.828125 500.351562 539.160156 495.683594 539.160156 489.910156 L 539.160156 443.664062 C 539.160156 438.425781 538.121094 433.476562 536.25 428.996094 C 534.3125 424.300781 531.441406 420.0625 527.863281 416.480469 C 524.28125 412.898438 520.003906 410.023438 515.347656 408.089844 C 510.871094 406.191406 505.882812 405.175781 500.683594 405.175781 C 490.109375 405.175781 480.492188 409.480469 473.496094 416.480469 C 469.914062 420.0625 467.042969 424.300781 465.105469 428.996094 C 463.246094 433.476562 462.195312 438.4375 462.195312 443.664062 L 462.195312 489.921875 Z M 462.183594 489.921875 " fill-opacity="1" fill-rule="nonzero"/><path fill="#fea832" d="M 440.816406 472.558594 L 560.492188 472.558594 C 569.058594 472.558594 576.089844 479.558594 576.089844 488.125 L 576.089844 568.886719 C 576.089844 577.453125 569.058594 584.492188 560.492188 584.492188 L 440.816406 584.492188 C 432.25 584.492188 425.253906 577.453125 425.253906 568.886719 L 425.253906 488.125 C 425.253906 479.546875 432.238281 472.558594 440.816406 472.558594 Z M 440.816406 472.558594 " fill-opacity="1" fill-rule="evenodd"/><path fill="#ffffff" d="M 500.671875 537.851562 C 509.921875 537.851562 517.488281 530.320312 517.488281 521.03125 C 517.488281 511.78125 509.921875 504.210938 500.671875 504.210938 C 491.386719 504.210938 483.855469 511.78125 483.855469 521.03125 C 483.84375 530.308594 491.386719 537.851562 500.671875 537.851562 Z M 500.671875 537.851562 " fill-opacity="1" fill-rule="evenodd"/><path fill="#ffffff" d="M 490.234375 535.269531 C 490.234375 529.5 494.902344 524.792969 500.671875 524.792969 C 506.441406 524.792969 511.109375 529.488281 511.109375 535.269531 L 511.109375 550.230469 C 511.109375 556 506.441406 560.671875 500.671875 560.671875 C 494.902344 560.671875 490.234375 556 490.234375 550.230469 Z M 490.234375 535.269531 " fill-opacity="1" fill-rule="nonzero"/><path fill="#e5972d" d="M 434.929688 568.886719 L 434.929688 488.125 C 434.929688 483 437.4375 478.445312 441.28125 475.609375 C 443.863281 473.671875 447.050781 472.558594 450.492188 472.558594 L 440.816406 472.558594 C 432.25 472.558594 425.253906 479.558594 425.253906 488.125 L 425.253906 568.886719 C 425.253906 577.453125 432.25 584.492188 440.816406 584.492188 L 450.492188 584.492188 C 441.929688 584.492188 434.929688 577.453125 434.929688 568.886719 Z M 434.929688 568.886719 " fill-opacity="1" fill-rule="evenodd"/><g clip-path="url(#05bde29058)"><path fill="#e6bf00" d="M 110.175781 592.996094 L 110.175781 95.894531 C 110.175781 87.707031 116.878906 81 125.105469 81 L 109.859375 81 C 101.648438 81 94.941406 87.707031 94.941406 95.882812 L 94.941406 592.984375 C 94.941406 601.195312 101.648438 607.867188 109.859375 607.867188 L 125.105469 607.867188 C 116.878906 607.878906 110.175781 601.210938 110.175781 592.996094 Z M 110.175781 592.996094 " fill-opacity="1" fill-rule="evenodd"/></g></svg>