<svg xmlns="http://www.w3.org/2000/svg" xmlns:xlink="http://www.w3.org/1999/xlink" width="1080" zoomAndPan="magnify" viewBox="0 0 810 809.999993" height="1080" preserveAspectRatio="xMidYMid meet" version="1.0"><defs><clipPath id="96ddbdf7f4"><path d="M 143.371094 81 L 543 81 L 543 729 L 143.371094 729 Z M 143.371094 81 " clip-rule="nonzero"/></clipPath><clipPath id="695c412bd2"><path d="M 193 180 L 666.871094 180 L 666.871094 605 L 193 605 Z M 193 180 " clip-rule="nonzero"/></clipPath><clipPath id="aaa9721981"><path d="M 193 180 L 666.871094 180 L 666.871094 605 L 193 605 Z M 193 180 " clip-rule="nonzero"/></clipPath></defs><g clip-path="url(#96ddbdf7f4)"><path fill="#edebea" d="M 168.296875 81.082031 L 517.296875 81.082031 C 518.113281 81.082031 518.929688 81.121094 519.742188 81.199219 C 520.554688 81.28125 521.359375 81.402344 522.160156 81.558594 C 522.960938 81.71875 523.753906 81.917969 524.535156 82.152344 C 525.316406 82.390625 526.082031 82.664062 526.839844 82.976562 C 527.59375 83.289062 528.328125 83.636719 529.050781 84.023438 C 529.769531 84.40625 530.46875 84.828125 531.148438 85.28125 C 531.828125 85.734375 532.480469 86.21875 533.113281 86.738281 C 533.746094 87.253906 534.347656 87.800781 534.925781 88.378906 C 535.503906 88.957031 536.050781 89.558594 536.570312 90.191406 C 537.085938 90.820312 537.574219 91.476562 538.027344 92.15625 C 538.480469 92.832031 538.898438 93.53125 539.285156 94.253906 C 539.667969 94.972656 540.015625 95.707031 540.328125 96.460938 C 540.640625 97.214844 540.917969 97.984375 541.152344 98.765625 C 541.390625 99.546875 541.589844 100.335938 541.746094 101.136719 C 541.90625 101.9375 542.027344 102.742188 542.105469 103.554688 C 542.1875 104.367188 542.226562 105.183594 542.226562 105.996094 L 542.226562 704.003906 C 542.226562 704.816406 542.1875 705.632812 542.105469 706.445312 C 542.027344 707.257812 541.90625 708.0625 541.746094 708.863281 C 541.589844 709.664062 541.390625 710.453125 541.152344 711.234375 C 540.917969 712.015625 540.640625 712.785156 540.328125 713.539062 C 540.015625 714.292969 539.667969 715.027344 539.285156 715.746094 C 538.898438 716.46875 538.480469 717.167969 538.027344 717.84375 C 537.574219 718.523438 537.085938 719.179688 536.570312 719.808594 C 536.050781 720.441406 535.503906 721.042969 534.925781 721.621094 C 534.347656 722.199219 533.746094 722.746094 533.113281 723.261719 C 532.480469 723.78125 531.828125 724.265625 531.148438 724.71875 C 530.46875 725.171875 529.769531 725.59375 529.050781 725.976562 C 528.328125 726.363281 527.59375 726.710938 526.839844 727.023438 C 526.082031 727.335938 525.316406 727.609375 524.535156 727.847656 C 523.753906 728.082031 522.960938 728.28125 522.160156 728.441406 C 521.359375 728.597656 520.554688 728.71875 519.742188 728.800781 C 518.929688 728.878906 518.113281 728.917969 517.296875 728.917969 L 168.296875 728.917969 C 167.480469 728.917969 166.667969 728.878906 165.855469 728.800781 C 165.042969 728.71875 164.234375 728.597656 163.433594 728.441406 C 162.632812 728.28125 161.84375 728.082031 161.0625 727.847656 C 160.28125 727.609375 159.511719 727.335938 158.757812 727.023438 C 158.003906 726.710938 157.265625 726.363281 156.546875 725.976562 C 155.828125 725.59375 155.128906 725.171875 154.449219 724.71875 C 153.769531 724.265625 153.113281 723.78125 152.484375 723.261719 C 151.851562 722.746094 151.25 722.199219 150.671875 721.621094 C 150.09375 721.042969 149.546875 720.441406 149.027344 719.808594 C 148.511719 719.179688 148.023438 718.523438 147.570312 717.84375 C 147.117188 717.167969 146.699219 716.46875 146.3125 715.746094 C 145.929688 715.027344 145.578125 714.292969 145.265625 713.539062 C 144.957031 712.785156 144.679688 712.015625 144.445312 711.234375 C 144.207031 710.453125 144.007812 709.664062 143.847656 708.863281 C 143.691406 708.0625 143.570312 707.257812 143.488281 706.445312 C 143.410156 705.632812 143.371094 704.816406 143.371094 704.003906 L 143.371094 105.996094 C 143.371094 105.183594 143.410156 104.367188 143.488281 103.554688 C 143.570312 102.742188 143.691406 101.9375 143.847656 101.136719 C 144.007812 100.335938 144.207031 99.546875 144.445312 98.765625 C 144.679688 97.984375 144.957031 97.214844 145.265625 96.460938 C 145.578125 95.707031 145.929688 94.972656 146.3125 94.253906 C 146.699219 93.53125 147.117188 92.832031 147.570312 92.15625 C 148.023438 91.476562 148.511719 90.820312 149.027344 90.191406 C 149.546875 89.558594 150.09375 88.957031 150.671875 88.378906 C 151.25 87.800781 151.851562 87.253906 152.484375 86.738281 C 153.113281 86.21875 153.769531 85.734375 154.449219 85.28125 C 155.128906 84.828125 155.828125 84.40625 156.546875 84.023438 C 157.265625 83.636719 158.003906 83.289062 158.757812 82.976562 C 159.511719 82.664062 160.28125 82.390625 161.0625 82.152344 C 161.84375 81.917969 162.632812 81.71875 163.433594 81.558594 C 164.234375 81.402344 165.042969 81.28125 165.855469 81.199219 C 166.667969 81.121094 167.480469 81.082031 168.296875 81.082031 Z M 168.296875 81.082031 " fill-opacity="1" fill-rule="nonzero"/></g><path fill="#0b4f6c" d="M 367.726562 666.625 L 317.871094 666.625 C 317.050781 666.625 316.242188 666.546875 315.4375 666.386719 C 314.636719 666.226562 313.855469 665.992188 313.101562 665.679688 C 312.34375 665.367188 311.625 664.980469 310.945312 664.527344 C 310.265625 664.074219 309.636719 663.554688 309.054688 662.976562 C 308.476562 662.398438 307.960938 661.769531 307.507812 661.089844 C 307.050781 660.410156 306.667969 659.691406 306.355469 658.9375 C 306.042969 658.179688 305.804688 657.402344 305.644531 656.597656 C 305.484375 655.796875 305.40625 654.988281 305.40625 654.167969 C 305.40625 653.351562 305.484375 652.539062 305.644531 651.738281 C 305.804688 650.9375 306.042969 650.15625 306.355469 649.402344 C 306.667969 648.644531 307.050781 647.925781 307.507812 647.246094 C 307.960938 646.566406 308.476562 645.9375 309.054688 645.359375 C 309.636719 644.78125 310.265625 644.265625 310.945312 643.808594 C 311.625 643.355469 312.34375 642.972656 313.101562 642.660156 C 313.855469 642.34375 314.636719 642.109375 315.4375 641.949219 C 316.242188 641.789062 317.050781 641.710938 317.871094 641.710938 L 367.726562 641.710938 C 368.546875 641.710938 369.355469 641.789062 370.160156 641.949219 C 370.960938 642.109375 371.742188 642.34375 372.496094 642.660156 C 373.253906 642.972656 373.972656 643.355469 374.652344 643.808594 C 375.332031 644.265625 375.960938 644.78125 376.539062 645.359375 C 377.121094 645.9375 377.636719 646.566406 378.089844 647.246094 C 378.546875 647.925781 378.929688 648.644531 379.242188 649.402344 C 379.554688 650.15625 379.792969 650.9375 379.953125 651.738281 C 380.113281 652.539062 380.191406 653.351562 380.191406 654.167969 C 380.191406 654.988281 380.113281 655.796875 379.953125 656.597656 C 379.792969 657.402344 379.554688 658.179688 379.242188 658.9375 C 378.929688 659.691406 378.546875 660.410156 378.089844 661.089844 C 377.636719 661.769531 377.121094 662.398438 376.539062 662.976562 C 375.960938 663.554688 375.332031 664.074219 374.652344 664.527344 C 373.972656 664.980469 373.253906 665.367188 372.496094 665.679688 C 371.742188 665.992188 370.960938 666.226562 370.160156 666.386719 C 369.355469 666.546875 368.546875 666.625 367.726562 666.625 Z M 367.726562 666.625 " fill-opacity="1" fill-rule="nonzero"/><path fill="#0b4f6c" d="M 385.675781 130.914062 L 299.921875 130.914062 C 298.542969 130.914062 297.175781 130.800781 295.816406 130.578125 C 294.457031 130.351562 293.125 130.011719 291.820312 129.566406 C 290.515625 129.121094 289.257812 128.566406 288.046875 127.914062 C 286.835938 127.257812 285.683594 126.507812 284.597656 125.660156 C 283.511719 124.8125 282.5 123.882812 281.566406 122.871094 C 280.632812 121.859375 279.789062 120.773438 279.035156 119.621094 C 278.28125 118.46875 277.628906 117.261719 277.078125 116 C 276.523438 114.738281 276.078125 113.4375 275.742188 112.101562 L 268.011719 81.082031 L 417.585938 81.082031 L 409.855469 112.101562 C 409.519531 113.4375 409.074219 114.738281 408.519531 116 C 407.96875 117.261719 407.3125 118.46875 406.558594 119.621094 C 405.808594 120.773438 404.964844 121.859375 404.03125 122.871094 C 403.097656 123.882812 402.085938 124.8125 401 125.660156 C 399.910156 126.507812 398.761719 127.257812 397.550781 127.914062 C 396.335938 128.566406 395.078125 129.121094 393.777344 129.566406 C 392.472656 130.011719 391.140625 130.351562 389.78125 130.578125 C 388.421875 130.800781 387.054688 130.914062 385.675781 130.914062 Z M 385.675781 130.914062 " fill-opacity="1" fill-rule="nonzero"/><g clip-path="url(#695c412bd2)"><path fill="#20bf55" d="M 218.15625 180.75 L 641.941406 180.75 C 642.757812 180.75 643.574219 180.789062 644.386719 180.867188 C 645.199219 180.949219 646.003906 181.066406 646.804688 181.226562 C 647.605469 181.386719 648.394531 181.585938 649.175781 181.820312 C 649.957031 182.058594 650.726562 182.332031 651.480469 182.644531 C 652.234375 182.957031 652.972656 183.304688 653.691406 183.691406 C 654.414062 184.074219 655.113281 184.496094 655.789062 184.949219 C 656.46875 185.402344 657.125 185.886719 657.753906 186.402344 C 658.386719 186.921875 658.992188 187.46875 659.570312 188.046875 C 660.144531 188.625 660.695312 189.226562 661.210938 189.859375 C 661.730469 190.488281 662.214844 191.144531 662.667969 191.820312 C 663.121094 192.5 663.542969 193.199219 663.925781 193.917969 C 664.3125 194.640625 664.660156 195.375 664.972656 196.128906 C 665.285156 196.882812 665.558594 197.652344 665.796875 198.433594 C 666.035156 199.214844 666.230469 200.003906 666.390625 200.804688 C 666.550781 201.605469 666.667969 202.410156 666.75 203.222656 C 666.828125 204.035156 666.871094 204.847656 666.871094 205.664062 L 666.871094 579.417969 C 666.871094 580.234375 666.828125 581.046875 666.75 581.859375 C 666.667969 582.671875 666.550781 583.480469 666.390625 584.277344 C 666.230469 585.078125 666.035156 585.871094 665.796875 586.652344 C 665.558594 587.433594 665.285156 588.199219 664.972656 588.953125 C 664.660156 589.707031 664.3125 590.445312 663.925781 591.164062 C 663.542969 591.882812 663.121094 592.582031 662.667969 593.261719 C 662.214844 593.941406 661.730469 594.59375 661.210938 595.226562 C 660.695312 595.855469 660.144531 596.460938 659.570312 597.035156 C 658.992188 597.613281 658.386719 598.160156 657.753906 598.679688 C 657.125 599.195312 656.46875 599.683594 655.789062 600.136719 C 655.113281 600.589844 654.414062 601.007812 653.691406 601.394531 C 652.972656 601.777344 652.234375 602.125 651.480469 602.4375 C 650.726562 602.75 649.957031 603.023438 649.175781 603.261719 C 648.394531 603.5 647.605469 603.695312 646.804688 603.855469 C 646.003906 604.015625 645.199219 604.136719 644.386719 604.214844 C 643.574219 604.292969 642.757812 604.335938 641.941406 604.335938 L 218.15625 604.335938 C 217.339844 604.335938 216.523438 604.292969 215.710938 604.214844 C 214.898438 604.136719 214.09375 604.015625 213.292969 603.855469 C 212.492188 603.695312 211.699219 603.5 210.917969 603.261719 C 210.136719 603.023438 209.371094 602.75 208.617188 602.4375 C 207.863281 602.125 207.125 601.777344 206.40625 601.394531 C 205.683594 601.007812 204.984375 600.589844 204.304688 600.136719 C 203.628906 599.683594 202.972656 599.195312 202.339844 598.679688 C 201.710938 598.160156 201.105469 597.613281 200.527344 597.035156 C 199.953125 596.460938 199.402344 595.855469 198.886719 595.226562 C 198.367188 594.59375 197.882812 593.941406 197.429688 593.261719 C 196.976562 592.582031 196.554688 591.882812 196.171875 591.164062 C 195.785156 590.445312 195.4375 589.707031 195.125 588.953125 C 194.8125 588.199219 194.539062 587.433594 194.300781 586.652344 C 194.0625 585.871094 193.867188 585.078125 193.707031 584.277344 C 193.546875 583.480469 193.425781 582.671875 193.347656 581.859375 C 193.265625 581.046875 193.226562 580.234375 193.226562 579.417969 L 193.226562 205.664062 C 193.226562 204.847656 193.265625 204.035156 193.347656 203.222656 C 193.425781 202.410156 193.546875 201.605469 193.707031 200.804688 C 193.867188 200.003906 194.0625 199.214844 194.300781 198.433594 C 194.539062 197.652344 194.8125 196.882812 195.125 196.128906 C 195.4375 195.375 195.785156 194.640625 196.171875 193.917969 C 196.554688 193.199219 196.976562 192.5 197.429688 191.820312 C 197.882812 191.144531 198.367188 190.488281 198.886719 189.859375 C 199.402344 189.226562 199.953125 188.625 200.527344 188.046875 C 201.105469 187.46875 201.710938 186.921875 202.339844 186.402344 C 202.972656 185.886719 203.628906 185.402344 204.304688 184.949219 C 204.984375 184.496094 205.683594 184.074219 206.40625 183.691406 C 207.125 183.304688 207.863281 182.957031 208.617188 182.644531 C 209.371094 182.332031 210.136719 182.058594 210.917969 181.820312 C 211.699219 181.585938 212.492188 181.386719 213.292969 181.226562 C 214.09375 181.066406 214.898438 180.949219 215.710938 180.867188 C 216.523438 180.789062 217.339844 180.75 218.15625 180.75 Z M 218.15625 180.75 " fill-opacity="1" fill-rule="nonzero"/></g><path fill="#e63946" d="M 392.65625 317.789062 C 392.65625 315.75 392.554688 313.714844 392.355469 311.683594 C 392.15625 309.65625 391.855469 307.640625 391.457031 305.636719 C 391.058594 303.636719 390.566406 301.660156 389.972656 299.707031 C 389.378906 297.757812 388.691406 295.835938 387.910156 293.953125 C 387.128906 292.066406 386.257812 290.226562 385.296875 288.425781 C 384.335938 286.628906 383.285156 284.878906 382.152344 283.183594 C 381.019531 281.488281 379.804688 279.851562 378.507812 278.273438 C 377.214844 276.695312 375.84375 275.1875 374.402344 273.742188 C 372.957031 272.300781 371.449219 270.933594 369.871094 269.636719 C 368.292969 268.34375 366.65625 267.128906 364.957031 265.996094 C 363.261719 264.863281 361.511719 263.816406 359.710938 262.855469 C 357.914062 261.890625 356.070312 261.019531 354.183594 260.242188 C 352.296875 259.460938 350.378906 258.773438 348.425781 258.179688 C 346.472656 257.589844 344.496094 257.09375 342.492188 256.695312 C 340.492188 256.296875 338.472656 256 336.441406 255.800781 C 334.410156 255.597656 332.375 255.5 330.335938 255.5 C 328.292969 255.5 326.257812 255.597656 324.226562 255.800781 C 322.195312 256 320.179688 256.296875 318.175781 256.695312 C 316.175781 257.09375 314.195312 257.589844 312.242188 258.179688 C 310.289062 258.773438 308.371094 259.460938 306.484375 260.242188 C 304.597656 261.019531 302.757812 261.890625 300.957031 262.855469 C 299.15625 263.816406 297.40625 264.863281 295.710938 265.996094 C 294.011719 267.128906 292.375 268.34375 290.796875 269.636719 C 289.21875 270.933594 287.710938 272.300781 286.265625 273.742188 C 284.824219 275.1875 283.453125 276.695312 282.160156 278.273438 C 280.863281 279.851562 279.648438 281.488281 278.515625 283.183594 C 277.382812 284.878906 276.332031 286.628906 275.371094 288.425781 C 274.410156 290.226562 273.539062 292.066406 272.757812 293.953125 C 271.976562 295.835938 271.289062 297.757812 270.695312 299.707031 C 270.105469 301.660156 269.609375 303.636719 269.210938 305.636719 C 268.8125 307.640625 268.511719 309.65625 268.3125 311.683594 C 268.113281 313.714844 268.011719 315.75 268.011719 317.789062 C 268.011719 380.082031 330.335938 429.917969 330.335938 429.917969 C 330.335938 429.917969 392.65625 380.082031 392.65625 317.789062 Z M 392.65625 317.789062 " fill-opacity="1" fill-rule="nonzero"/><path fill="#edebea" d="M 355.261719 317.789062 C 355.261719 318.605469 355.222656 319.421875 355.144531 320.234375 C 355.0625 321.046875 354.941406 321.851562 354.785156 322.652344 C 354.625 323.453125 354.425781 324.242188 354.1875 325.023438 C 353.953125 325.804688 353.675781 326.574219 353.363281 327.328125 C 353.054688 328.082031 352.703125 328.816406 352.320312 329.535156 C 351.933594 330.257812 351.515625 330.957031 351.0625 331.632812 C 350.609375 332.3125 350.121094 332.96875 349.605469 333.597656 C 349.085938 334.230469 348.539062 334.832031 347.960938 335.410156 C 347.382812 335.988281 346.78125 336.535156 346.148438 337.050781 C 345.519531 337.570312 344.863281 338.054688 344.183594 338.507812 C 343.503906 338.960938 342.804688 339.382812 342.085938 339.765625 C 341.367188 340.148438 340.628906 340.5 339.875 340.8125 C 339.121094 341.125 338.351562 341.398438 337.570312 341.636719 C 336.789062 341.871094 336 342.070312 335.199219 342.230469 C 334.398438 342.386719 333.589844 342.507812 332.777344 342.585938 C 331.964844 342.667969 331.152344 342.707031 330.335938 342.707031 C 329.519531 342.707031 328.703125 342.667969 327.890625 342.589844 C 327.078125 342.507812 326.273438 342.386719 325.472656 342.230469 C 324.671875 342.070312 323.878906 341.871094 323.097656 341.636719 C 322.316406 341.398438 321.546875 341.125 320.792969 340.8125 C 320.039062 340.5 319.304688 340.148438 318.582031 339.765625 C 317.863281 339.382812 317.164062 338.960938 316.484375 338.507812 C 315.804688 338.054688 315.152344 337.570312 314.519531 337.050781 C 313.886719 336.535156 313.285156 335.988281 312.707031 335.410156 C 312.128906 334.832031 311.582031 334.230469 311.0625 333.597656 C 310.546875 332.96875 310.058594 332.3125 309.605469 331.632812 C 309.152344 330.957031 308.734375 330.257812 308.347656 329.535156 C 307.964844 328.816406 307.617188 328.082031 307.304688 327.328125 C 306.992188 326.574219 306.714844 325.804688 306.480469 325.023438 C 306.242188 324.242188 306.042969 323.453125 305.882812 322.652344 C 305.726562 321.851562 305.605469 321.046875 305.527344 320.234375 C 305.445312 319.421875 305.40625 318.605469 305.40625 317.789062 C 305.40625 316.976562 305.445312 316.160156 305.527344 315.347656 C 305.605469 314.535156 305.726562 313.730469 305.882812 312.929688 C 306.042969 312.128906 306.242188 311.339844 306.480469 310.558594 C 306.714844 309.777344 306.992188 309.007812 307.304688 308.253906 C 307.617188 307.5 307.964844 306.765625 308.347656 306.046875 C 308.734375 305.324219 309.152344 304.625 309.605469 303.949219 C 310.058594 303.269531 310.546875 302.613281 311.0625 301.984375 C 311.582031 301.351562 312.128906 300.75 312.707031 300.171875 C 313.285156 299.59375 313.886719 299.046875 314.519531 298.53125 C 315.152344 298.011719 315.804688 297.527344 316.484375 297.074219 C 317.164062 296.621094 317.863281 296.199219 318.582031 295.816406 C 319.304688 295.429688 320.039062 295.082031 320.792969 294.769531 C 321.546875 294.457031 322.316406 294.183594 323.097656 293.945312 C 323.878906 293.710938 324.671875 293.511719 325.472656 293.351562 C 326.273438 293.195312 327.078125 293.074219 327.890625 292.996094 C 328.703125 292.914062 329.519531 292.875 330.335938 292.875 C 331.152344 292.875 331.964844 292.914062 332.777344 292.996094 C 333.589844 293.074219 334.398438 293.195312 335.199219 293.351562 C 336 293.511719 336.789062 293.710938 337.570312 293.945312 C 338.351562 294.183594 339.121094 294.457031 339.875 294.769531 C 340.628906 295.082031 341.367188 295.429688 342.085938 295.816406 C 342.804688 296.199219 343.503906 296.621094 344.183594 297.074219 C 344.863281 297.527344 345.519531 298.011719 346.148438 298.53125 C 346.78125 299.046875 347.382812 299.59375 347.960938 300.171875 C 348.539062 300.75 349.085938 301.351562 349.605469 301.984375 C 350.121094 302.613281 350.609375 303.269531 351.0625 303.949219 C 351.515625 304.625 351.933594 305.324219 352.320312 306.046875 C 352.703125 306.765625 353.054688 307.5 353.363281 308.253906 C 353.675781 309.007812 353.953125 309.777344 354.1875 310.558594 C 354.425781 311.339844 354.625 312.128906 354.785156 312.929688 C 354.941406 313.730469 355.0625 314.535156 355.144531 315.347656 C 355.222656 316.160156 355.261719 316.976562 355.261719 317.789062 Z M 355.261719 317.789062 " fill-opacity="1" fill-rule="nonzero"/><g clip-path="url(#aaa9721981)"><path fill="#109138" d="M 508.949219 355.167969 L 472.675781 492.207031 L 666.871094 492.207031 L 666.871094 517.125 L 466.070312 517.125 L 443.011719 604.335938 L 417.085938 604.335938 L 440.269531 517.125 L 193.226562 517.125 L 193.226562 492.207031 L 446.875 492.207031 L 529.390625 180.75 L 555.066406 180.75 L 515.554688 330.25 L 666.871094 330.25 L 666.871094 355.167969 Z M 508.949219 355.167969 " fill-opacity="1" fill-rule="nonzero"/></g></svg>