<svg xmlns="http://www.w3.org/2000/svg" xmlns:xlink="http://www.w3.org/1999/xlink" width="1080" zoomAndPan="magnify" viewBox="0 0 810 809.999993" height="1080" preserveAspectRatio="xMidYMid meet" version="1.0"><defs><clipPath id="0d9b1a203f"><path d="M 371 124 L 709.785156 124 L 709.785156 463 L 371 463 Z M 371 124 " clip-rule="nonzero"/></clipPath></defs><path fill="#daeafa" d="M 314.214844 729 C 422.886719 729 511.5 696.828125 511.5 657.363281 C 511.5 617.902344 422.886719 585.730469 314.214844 585.730469 C 205.546875 585.730469 116.929688 617.890625 116.929688 657.363281 C 116.929688 696.839844 205.546875 729 314.214844 729 Z M 314.214844 729 " fill-opacity="1" fill-rule="evenodd"/><path fill="#ff4646" d="M 314.214844 657.363281 C 239.394531 568.710938 100.324219 407.105469 101.554688 291.46875 C 102.125 237.609375 122.824219 183.984375 163.648438 143.148438 C 205.078125 101.707031 259.628906 81 314.214844 81 C 368.804688 81 423.394531 101.707031 464.785156 143.148438 C 505.605469 183.984375 526.308594 237.609375 526.878906 291.46875 C 528.109375 407.105469 389.074219 568.710938 314.214844 657.363281 Z M 314.214844 657.363281 " fill-opacity="1" fill-rule="evenodd"/><path fill="#daeafa" d="M 314.214844 416.335938 C 381.734375 416.335938 436.792969 361.261719 436.792969 293.722656 C 436.792969 226.222656 381.734375 171.109375 314.214844 171.109375 C 246.695312 171.109375 191.640625 226.222656 191.640625 293.722656 C 191.640625 361.277344 246.695312 416.335938 314.214844 416.335938 Z M 314.214844 416.335938 " fill-opacity="1" fill-rule="evenodd"/><path fill="#daeafa" d="M 601.953125 430.539062 L 556 442.867188 L 587.945312 562.066406 L 633.863281 549.742188 Z M 601.953125 430.539062 " fill-opacity="1" fill-rule="evenodd"/><g clip-path="url(#0d9b1a203f)"><path fill="#2f5274" d="M 540.683594 124.851562 C 447.429688 124.851562 371.820312 200.441406 371.820312 293.722656 C 371.820312 387.003906 447.429688 462.636719 540.683594 462.636719 C 633.9375 462.636719 709.546875 387.003906 709.546875 293.722656 C 709.546875 200.441406 633.9375 124.851562 540.683594 124.851562 Z M 540.683594 124.851562 " fill-opacity="1" fill-rule="evenodd"/></g><path fill="#ff4646" d="M 635.410156 514.984375 L 569.222656 532.734375 C 563.757812 534.207031 560.488281 539.851562 561.957031 545.316406 L 596.199219 673.179688 C 602.523438 696.867188 627.105469 711.03125 650.75 704.703125 C 674.429688 698.335938 688.589844 673.785156 682.265625 650.097656 L 648.023438 522.273438 C 646.554688 516.808594 640.875 513.5 635.410156 514.984375 Z M 635.410156 514.984375 " fill-opacity="1" fill-rule="evenodd"/><path fill="#8bd7fa" d="M 448.507812 201.558594 C 397.621094 252.460938 397.621094 335.027344 448.507812 385.925781 C 499.433594 436.828125 581.9375 436.828125 632.863281 385.925781 C 683.75 335.027344 683.75 252.460938 632.863281 201.558594 C 581.9375 150.632812 499.433594 150.632812 448.507812 201.558594 Z M 448.507812 201.558594 " fill-opacity="1" fill-rule="evenodd"/><path fill="#daeafa" d="M 530.226562 234.351562 C 530.226562 228.570312 534.890625 223.890625 540.683594 223.890625 C 546.464844 223.890625 551.144531 228.570312 551.144531 234.351562 L 551.144531 283.3125 L 600.050781 283.3125 C 605.832031 283.3125 610.511719 287.992188 610.511719 293.738281 C 610.511719 299.519531 605.832031 304.199219 600.050781 304.199219 L 540.683594 304.199219 C 534.902344 304.199219 530.226562 299.519531 530.226562 293.738281 Z M 530.226562 234.351562 " fill-opacity="1" fill-rule="nonzero"/><path fill="#c4d3e1" d="M 335.347656 414.546875 C 277.707031 404.519531 233.90625 354.261719 233.90625 293.738281 C 233.90625 233.234375 277.707031 182.957031 335.347656 172.960938 C 328.492188 171.769531 321.441406 171.125 314.214844 171.125 C 246.519531 171.125 191.640625 226.007812 191.640625 293.738281 C 191.640625 361.464844 246.519531 416.347656 314.214844 416.347656 C 321.441406 416.335938 328.476562 415.726562 335.347656 414.546875 Z M 335.347656 414.546875 " fill-opacity="1" fill-rule="evenodd"/><path fill="#c4d3e1" d="M 257.078125 588.773438 C 175.96875 597.648438 116.929688 625.003906 116.929688 657.351562 C 116.929688 696.929688 205.265625 728.988281 314.214844 728.988281 C 321.367188 728.988281 328.414062 728.847656 335.347656 728.59375 C 236.3125 724.75 159.199219 694.34375 159.199219 657.351562 C 159.199219 630.253906 200.628906 606.667969 261.757812 594.519531 C 260.210938 592.617188 258.625 590.714844 257.078125 588.773438 Z M 257.078125 588.773438 " fill-opacity="1" fill-rule="evenodd"/><path fill="#7dc2e1" d="M 434.386719 318.097656 C 431.328125 302.03125 431.328125 285.457031 434.386719 269.351562 C 439.089844 244.507812 451.054688 220.78125 470.25 201.558594 C 477.96875 193.835938 486.449219 187.253906 495.402344 181.890625 C 512.757812 171.464844 532.027344 165.429688 551.574219 163.808594 C 530.734375 162.082031 509.5625 165.316406 490.011719 173.546875 C 474.953125 179.910156 460.792969 189.257812 448.507812 201.546875 C 437.796875 212.261719 429.3125 224.410156 423.101562 237.34375 C 406.101562 272.890625 406.101562 314.558594 423.101562 350.066406 C 429.3125 363.039062 437.796875 375.160156 448.507812 385.902344 C 461.046875 398.40625 475.460938 407.867188 490.875 414.230469 C 510.171875 422.207031 531.011719 425.339844 551.574219 423.652344 C 531.949219 422.003906 512.65625 415.957031 495.261719 405.46875 C 486.347656 400.117188 477.945312 393.613281 470.25 385.914062 C 451.054688 366.703125 439.089844 342.976562 434.386719 318.097656 Z M 434.386719 318.097656 " fill-opacity="1" fill-rule="evenodd"/><path fill="#e63f3f" d="M 578.664062 545.316406 C 577.765625 541.902344 578.703125 538.378906 580.898438 535.855469 C 582.191406 534.382812 583.914062 533.269531 585.96875 532.722656 L 596.070312 529.996094 L 594.957031 525.824219 L 579.363281 529.996094 L 569.234375 532.722656 C 563.769531 534.195312 560.5 539.835938 561.96875 545.304688 L 596.210938 673.164062 C 602.285156 695.8125 625 709.761719 647.667969 705.414062 C 631.429688 702.28125 617.484375 690.171875 612.921875 673.164062 Z M 578.664062 545.316406 " fill-opacity="1" fill-rule="evenodd"/><path fill="#c4d3e1" d="M 560.992188 461.417969 L 579.351562 530.007812 L 594.945312 525.835938 L 576.980469 458.730469 C 571.730469 459.871094 566.382812 460.769531 560.992188 461.417969 Z M 560.992188 461.417969 " fill-opacity="1" fill-rule="evenodd"/></svg>