<svg xmlns="http://www.w3.org/2000/svg" xmlns:xlink="http://www.w3.org/1999/xlink" width="1080" zoomAndPan="magnify" viewBox="0 0 810 809.999993" height="1080" preserveAspectRatio="xMidYMid meet" version="1.0"><defs><clipPath id="c19df10245"><path d="M 236 95.175781 L 574 95.175781 L 574 434 L 236 434 Z M 236 95.175781 " clip-rule="nonzero"/></clipPath><clipPath id="7271a8b3e6"><path d="M 257 278 L 583 278 L 583 714.675781 L 257 714.675781 Z M 257 278 " clip-rule="nonzero"/></clipPath><clipPath id="fa03d8cdc3"><path d="M 257 490 L 563 490 L 563 714.675781 L 257 714.675781 Z M 257 490 " clip-rule="nonzero"/></clipPath></defs><g clip-path="url(#c19df10245)"><path fill="#eff3f9" d="M 292.339844 95.175781 L 517.660156 95.175781 C 519.507812 95.175781 521.347656 95.265625 523.183594 95.445312 C 525.019531 95.628906 526.84375 95.898438 528.652344 96.257812 C 530.460938 96.617188 532.25 97.066406 534.015625 97.601562 C 535.78125 98.136719 537.515625 98.757812 539.21875 99.460938 C 540.921875 100.167969 542.589844 100.957031 544.214844 101.824219 C 545.84375 102.695312 547.421875 103.640625 548.957031 104.667969 C 550.492188 105.691406 551.972656 106.789062 553.398438 107.957031 C 554.824219 109.128906 556.1875 110.367188 557.492188 111.671875 C 558.796875 112.972656 560.035156 114.339844 561.207031 115.765625 C 562.375 117.191406 563.472656 118.671875 564.5 120.203125 C 565.523438 121.738281 566.472656 123.316406 567.339844 124.945312 C 568.210938 126.570312 569 128.238281 569.703125 129.941406 C 570.410156 131.644531 571.03125 133.378906 571.566406 135.144531 C 572.101562 136.910156 572.550781 138.695312 572.910156 140.507812 C 573.269531 142.316406 573.539062 144.136719 573.722656 145.972656 C 573.902344 147.808594 573.992188 149.648438 573.992188 151.492188 L 573.992188 376.765625 C 573.992188 378.609375 573.902344 380.449219 573.722656 382.285156 C 573.539062 384.121094 573.269531 385.945312 572.910156 387.753906 C 572.550781 389.5625 572.101562 391.347656 571.566406 393.113281 C 571.03125 394.878906 570.410156 396.613281 569.703125 398.316406 C 569 400.023438 568.210938 401.6875 567.339844 403.3125 C 566.472656 404.941406 565.523438 406.519531 564.5 408.054688 C 563.472656 409.589844 562.375 411.066406 561.207031 412.492188 C 560.035156 413.917969 558.796875 415.285156 557.492188 416.589844 C 556.1875 417.894531 554.824219 419.128906 553.398438 420.300781 C 551.972656 421.46875 550.492188 422.566406 548.957031 423.59375 C 547.421875 424.617188 545.84375 425.566406 544.214844 426.433594 C 542.589844 427.304688 540.921875 428.089844 539.21875 428.796875 C 537.515625 429.503906 535.78125 430.125 534.015625 430.660156 C 532.25 431.195312 530.460938 431.640625 528.652344 432 C 526.84375 432.363281 525.019531 432.632812 523.183594 432.8125 C 521.347656 432.992188 519.507812 433.085938 517.660156 433.085938 L 292.339844 433.085938 C 290.492188 433.085938 288.652344 432.992188 286.816406 432.8125 C 284.980469 432.632812 283.15625 432.363281 281.347656 432 C 279.539062 431.640625 277.75 431.195312 275.984375 430.660156 C 274.21875 430.125 272.484375 429.503906 270.78125 428.796875 C 269.078125 428.089844 267.410156 427.304688 265.785156 426.433594 C 264.15625 425.566406 262.578125 424.617188 261.042969 423.59375 C 259.507812 422.566406 258.027344 421.46875 256.601562 420.300781 C 255.175781 419.128906 253.8125 417.894531 252.507812 416.589844 C 251.203125 415.285156 249.964844 413.917969 248.792969 412.492188 C 247.625 411.066406 246.527344 409.589844 245.5 408.054688 C 244.476562 406.519531 243.527344 404.941406 242.660156 403.3125 C 241.789062 401.6875 241 400.023438 240.296875 398.316406 C 239.589844 396.613281 238.96875 394.878906 238.433594 393.113281 C 237.898438 391.347656 237.449219 389.5625 237.089844 387.753906 C 236.730469 385.945312 236.460938 384.121094 236.277344 382.285156 C 236.097656 380.449219 236.007812 378.609375 236.007812 376.765625 L 236.007812 151.492188 C 236.007812 149.648438 236.097656 147.808594 236.277344 145.972656 C 236.460938 144.136719 236.730469 142.316406 237.089844 140.507812 C 237.449219 138.695312 237.898438 136.910156 238.433594 135.144531 C 238.96875 133.378906 239.589844 131.644531 240.296875 129.941406 C 241 128.238281 241.789062 126.570312 242.660156 124.945312 C 243.527344 123.316406 244.476562 121.738281 245.5 120.203125 C 246.527344 118.671875 247.625 117.191406 248.792969 115.765625 C 249.964844 114.339844 251.203125 112.972656 252.507812 111.671875 C 253.8125 110.367188 255.175781 109.128906 256.601562 107.957031 C 258.027344 106.789062 259.507812 105.691406 261.042969 104.667969 C 262.578125 103.640625 264.15625 102.695312 265.785156 101.824219 C 267.410156 100.957031 269.078125 100.167969 270.78125 99.460938 C 272.484375 98.757812 274.21875 98.136719 275.984375 97.601562 C 277.75 97.066406 279.539062 96.617188 281.347656 96.257812 C 283.15625 95.898438 284.980469 95.628906 286.816406 95.445312 C 288.652344 95.265625 290.492188 95.175781 292.339844 95.175781 Z M 292.339844 95.175781 " fill-opacity="1" fill-rule="nonzero"/></g><path fill="#cfe0f3" d="M 405 404.925781 L 405 278.210938 C 373.890625 278.210938 348.667969 303.425781 348.667969 334.527344 L 348.667969 404.925781 L 292.339844 404.925781 C 276.777344 404.925781 264.171875 392.324219 264.171875 376.765625 L 264.171875 102.976562 C 247.398438 112.730469 236.007812 130.683594 236.007812 151.492188 L 236.007812 376.765625 C 236.007812 407.882812 261.214844 433.085938 292.339844 433.085938 L 517.660156 433.085938 C 538.476562 433.085938 556.433594 421.695312 566.191406 404.925781 Z M 405 404.925781 " fill-opacity="1" fill-rule="nonzero"/><path fill="#ff3b65" d="M 489.496094 264.128906 C 489.496094 265.511719 489.460938 266.894531 489.394531 268.273438 C 489.328125 269.65625 489.226562 271.035156 489.089844 272.410156 C 488.953125 273.785156 488.785156 275.15625 488.582031 276.523438 C 488.378906 277.890625 488.140625 279.253906 487.871094 280.609375 C 487.601562 281.964844 487.300781 283.316406 486.964844 284.65625 C 486.628906 285.996094 486.257812 287.328125 485.859375 288.652344 C 485.457031 289.976562 485.023438 291.289062 484.558594 292.589844 C 484.089844 293.890625 483.59375 295.179688 483.066406 296.457031 C 482.535156 297.734375 481.976562 299 481.382812 300.25 C 480.792969 301.496094 480.171875 302.734375 479.519531 303.953125 C 478.867188 305.171875 478.1875 306.375 477.476562 307.558594 C 476.765625 308.746094 476.023438 309.914062 475.257812 311.0625 C 474.488281 312.210938 473.691406 313.34375 472.867188 314.453125 C 472.042969 315.5625 471.195312 316.652344 470.316406 317.722656 C 469.4375 318.789062 468.535156 319.835938 467.609375 320.859375 C 466.679688 321.886719 465.726562 322.886719 464.746094 323.863281 C 463.769531 324.839844 462.769531 325.792969 461.746094 326.722656 C 460.71875 327.652344 459.671875 328.554688 458.605469 329.429688 C 457.535156 330.308594 456.445312 331.160156 455.335938 331.980469 C 454.222656 332.804688 453.09375 333.601562 451.945312 334.371094 C 450.792969 335.136719 449.625 335.878906 448.441406 336.589844 C 447.253906 337.300781 446.050781 337.980469 444.832031 338.632812 C 443.613281 339.285156 442.375 339.90625 441.125 340.496094 C 439.875 341.085938 438.613281 341.648438 437.335938 342.175781 C 436.058594 342.707031 434.769531 343.203125 433.464844 343.667969 C 432.164062 344.132812 430.851562 344.566406 429.527344 344.96875 C 428.203125 345.371094 426.871094 345.738281 425.53125 346.074219 C 424.191406 346.410156 422.839844 346.714844 421.484375 346.984375 C 420.128906 347.253906 418.765625 347.488281 417.398438 347.691406 C 416.03125 347.894531 414.660156 348.066406 413.28125 348.199219 C 411.90625 348.335938 410.527344 348.4375 409.144531 348.503906 C 407.765625 348.574219 406.382812 348.605469 405 348.605469 C 403.617188 348.605469 402.234375 348.574219 400.855469 348.503906 C 399.472656 348.4375 398.09375 348.335938 396.71875 348.199219 C 395.339844 348.066406 393.96875 347.894531 392.601562 347.691406 C 391.234375 347.488281 389.871094 347.253906 388.515625 346.984375 C 387.160156 346.714844 385.808594 346.410156 384.46875 346.074219 C 383.128906 345.738281 381.796875 345.371094 380.472656 344.96875 C 379.148438 344.566406 377.835938 344.132812 376.535156 343.667969 C 375.230469 343.203125 373.941406 342.707031 372.664062 342.175781 C 371.386719 341.648438 370.125 341.085938 368.875 340.496094 C 367.621094 339.90625 366.386719 339.285156 365.167969 338.632812 C 363.949219 337.980469 362.746094 337.300781 361.558594 336.589844 C 360.375 335.878906 359.207031 335.136719 358.054688 334.371094 C 356.90625 333.601562 355.777344 332.804688 354.664062 331.980469 C 353.554688 331.160156 352.464844 330.308594 351.394531 329.429688 C 350.328125 328.554688 349.28125 327.652344 348.253906 326.722656 C 347.230469 325.792969 346.230469 324.839844 345.25 323.863281 C 344.273438 322.886719 343.320312 321.886719 342.390625 320.859375 C 341.464844 319.835938 340.5625 318.789062 339.683594 317.722656 C 338.804688 316.652344 337.957031 315.5625 337.132812 314.453125 C 336.308594 313.34375 335.511719 312.210938 334.742188 311.0625 C 333.976562 309.914062 333.234375 308.746094 332.523438 307.558594 C 331.8125 306.375 331.132812 305.171875 330.480469 303.953125 C 329.828125 302.734375 329.207031 301.496094 328.617188 300.25 C 328.023438 299 327.464844 297.734375 326.933594 296.457031 C 326.40625 295.179688 325.910156 293.890625 325.441406 292.589844 C 324.976562 291.289062 324.542969 289.976562 324.140625 288.652344 C 323.742188 287.328125 323.371094 285.996094 323.035156 284.65625 C 322.699219 283.316406 322.398438 281.964844 322.128906 280.609375 C 321.855469 279.253906 321.621094 277.890625 321.417969 276.523438 C 321.214844 275.15625 321.046875 273.785156 320.910156 272.410156 C 320.773438 271.035156 320.671875 269.65625 320.605469 268.273438 C 320.539062 266.894531 320.503906 265.511719 320.503906 264.128906 C 320.503906 262.746094 320.539062 261.367188 320.605469 259.984375 C 320.671875 258.605469 320.773438 257.226562 320.910156 255.847656 C 321.046875 254.472656 321.214844 253.101562 321.417969 251.734375 C 321.621094 250.367188 321.855469 249.003906 322.128906 247.648438 C 322.398438 246.292969 322.699219 244.945312 323.035156 243.601562 C 323.371094 242.261719 323.742188 240.929688 324.140625 239.605469 C 324.542969 238.285156 324.976562 236.972656 325.441406 235.671875 C 325.910156 234.367188 326.40625 233.078125 326.933594 231.800781 C 327.464844 230.523438 328.023438 229.261719 328.617188 228.011719 C 329.207031 226.761719 329.828125 225.527344 330.480469 224.308594 C 331.132812 223.089844 331.8125 221.886719 332.523438 220.699219 C 333.234375 219.515625 333.976562 218.347656 334.742188 217.195312 C 335.511719 216.046875 336.308594 214.917969 337.132812 213.804688 C 337.957031 212.695312 338.804688 211.605469 339.683594 210.539062 C 340.5625 209.46875 341.464844 208.421875 342.390625 207.398438 C 343.320312 206.375 344.273438 205.371094 345.25 204.394531 C 346.230469 203.417969 347.230469 202.464844 348.253906 201.535156 C 349.28125 200.609375 350.328125 199.703125 351.394531 198.828125 C 352.464844 197.949219 353.554688 197.101562 354.664062 196.277344 C 355.777344 195.453125 356.90625 194.65625 358.054688 193.890625 C 359.207031 193.121094 360.375 192.382812 361.558594 191.671875 C 362.746094 190.960938 363.949219 190.277344 365.167969 189.628906 C 366.386719 188.976562 367.621094 188.355469 368.875 187.761719 C 370.125 187.171875 371.386719 186.613281 372.664062 186.082031 C 373.941406 185.554688 375.230469 185.054688 376.535156 184.589844 C 377.835938 184.125 379.148438 183.691406 380.472656 183.289062 C 381.796875 182.886719 383.128906 182.519531 384.46875 182.183594 C 385.808594 181.847656 387.160156 181.546875 388.515625 181.277344 C 389.871094 181.003906 391.234375 180.769531 392.601562 180.566406 C 393.96875 180.363281 395.339844 180.195312 396.71875 180.058594 C 398.09375 179.921875 399.472656 179.820312 400.855469 179.753906 C 402.234375 179.6875 403.617188 179.652344 405 179.652344 C 406.382812 179.652344 407.765625 179.6875 409.144531 179.753906 C 410.527344 179.820312 411.90625 179.921875 413.28125 180.058594 C 414.660156 180.195312 416.03125 180.363281 417.398438 180.566406 C 418.765625 180.769531 420.128906 181.003906 421.484375 181.277344 C 422.839844 181.546875 424.191406 181.847656 425.53125 182.183594 C 426.871094 182.519531 428.203125 182.886719 429.527344 183.289062 C 430.851562 183.691406 432.164062 184.125 433.464844 184.589844 C 434.769531 185.054688 436.058594 185.554688 437.335938 186.082031 C 438.613281 186.613281 439.875 187.171875 441.125 187.761719 C 442.375 188.355469 443.613281 188.976562 444.832031 189.628906 C 446.050781 190.277344 447.253906 190.960938 448.441406 191.671875 C 449.625 192.382812 450.792969 193.121094 451.945312 193.890625 C 453.09375 194.65625 454.222656 195.453125 455.335938 196.277344 C 456.445312 197.101562 457.535156 197.949219 458.605469 198.828125 C 459.671875 199.703125 460.71875 200.609375 461.746094 201.535156 C 462.769531 202.464844 463.769531 203.417969 464.746094 204.394531 C 465.726562 205.371094 466.679688 206.375 467.609375 207.398438 C 468.535156 208.421875 469.4375 209.46875 470.316406 210.539062 C 471.195312 211.605469 472.042969 212.695312 472.867188 213.804688 C 473.691406 214.917969 474.488281 216.046875 475.257812 217.195312 C 476.023438 218.347656 476.765625 219.515625 477.476562 220.699219 C 478.1875 221.886719 478.867188 223.089844 479.519531 224.308594 C 480.171875 225.527344 480.792969 226.761719 481.382812 228.011719 C 481.976562 229.261719 482.535156 230.523438 483.066406 231.800781 C 483.59375 233.078125 484.089844 234.367188 484.558594 235.671875 C 485.023438 236.972656 485.457031 238.285156 485.859375 239.605469 C 486.257812 240.929688 486.628906 242.261719 486.964844 243.601562 C 487.300781 244.945312 487.601562 246.292969 487.871094 247.648438 C 488.140625 249.003906 488.378906 250.367188 488.582031 251.734375 C 488.785156 253.101562 488.953125 254.472656 489.089844 255.847656 C 489.226562 257.226562 489.328125 258.605469 489.394531 259.984375 C 489.460938 261.367188 489.496094 262.746094 489.496094 264.128906 Z M 489.496094 264.128906 " fill-opacity="1" fill-rule="nonzero"/><path fill="#d82b50" d="M 419.082031 327.488281 C 414.265625 327.488281 409.578125 326.996094 405 326.148438 L 405 278.210938 C 386.734375 278.210938 370.652344 286.996094 360.371094 300.46875 C 348.710938 286.910156 341.628906 269.324219 341.628906 250.050781 C 341.628906 221.777344 356.824219 197.125 379.453125 183.609375 C 345.273438 194.4375 320.503906 226.382812 320.503906 264.128906 C 320.503906 310.789062 358.328125 348.605469 405 348.605469 C 442.753906 348.605469 474.710938 323.839844 485.539062 289.667969 C 472.019531 312.296875 447.347656 327.488281 419.082031 327.488281 Z M 419.082031 327.488281 " fill-opacity="1" fill-rule="nonzero"/><g clip-path="url(#7271a8b3e6)"><path fill="#ffcdb4" d="M 536.027344 465.859375 L 444.726562 449.261719 C 438.039062 448.050781 433.164062 442.207031 433.164062 435.40625 L 433.164062 306.367188 C 433.164062 290.808594 420.5625 278.210938 405 278.210938 C 389.4375 278.210938 376.835938 290.808594 376.835938 306.367188 L 376.835938 542.804688 C 376.835938 549.070312 369.242188 552.226562 364.808594 547.789062 L 313.996094 496.992188 C 301.40625 484.402344 281.664062 482.445312 266.847656 492.316406 C 257.46875 498.566406 254.652344 511.085938 260.453125 520.757812 L 360.429688 687.347656 C 370.609375 704.3125 388.945312 714.6875 408.730469 714.6875 L 509.816406 714.6875 C 538.378906 714.6875 562.429688 693.316406 565.769531 664.945312 L 581.894531 527.851562 C 585.371094 498.328125 565.289062 471.183594 536.027344 465.859375 Z M 536.027344 465.859375 " fill-opacity="1" fill-rule="nonzero"/></g><g clip-path="url(#fa03d8cdc3)"><path fill="#f6a28d" d="M 536.703125 686.515625 L 413.984375 686.515625 C 399.605469 686.515625 386.214844 679.207031 378.441406 667.113281 L 273.761719 504.3125 C 271.101562 500.171875 269.832031 495.484375 269.636719 490.78125 C 268.707031 491.289062 267.734375 491.710938 266.847656 492.316406 C 257.46875 498.566406 254.652344 511.085938 260.453125 520.757812 L 360.429688 687.347656 C 370.609375 704.3125 388.945312 714.6875 408.730469 714.6875 L 509.816406 714.6875 C 533.984375 714.6875 554.753906 699.3125 562.65625 677.433594 C 555.445312 683.082031 546.460938 686.53125 536.703125 686.53125 Z M 536.703125 686.515625 " fill-opacity="1" fill-rule="nonzero"/></g><path fill="#fff1e9" d="M 433.164062 456.527344 C 433.164062 463.328125 438.039062 469.15625 444.726562 470.378906 L 556.65625 490.726562 C 565.375 492.300781 572.921875 496.570312 578.796875 502.410156 C 572.21875 484.023438 556.472656 469.5625 536.027344 465.847656 L 444.726562 449.246094 C 438.039062 448.035156 433.164062 442.195312 433.164062 435.394531 Z M 433.164062 456.527344 " fill-opacity="0.75" fill-rule="nonzero"/><path fill="#cfe0f3" d="M 704.273438 358.378906 C 703.0625 358.378906 701.835938 358.222656 700.609375 357.886719 C 693.105469 355.871094 688.625 348.15625 690.652344 340.636719 C 697.34375 315.703125 700.738281 289.964844 700.738281 264.117188 C 700.738281 238.265625 697.34375 212.527344 690.652344 187.59375 C 688.625 180.074219 693.105469 172.359375 700.609375 170.347656 C 708.117188 168.332031 715.835938 172.796875 717.863281 180.300781 C 725.199219 207.613281 728.902344 235.816406 728.902344 264.117188 C 728.902344 292.414062 725.183594 320.617188 717.863281 347.929688 C 716.171875 354.210938 710.496094 358.363281 704.273438 358.363281 Z M 704.273438 358.378906 " fill-opacity="1" fill-rule="nonzero"/><path fill="#cfe0f3" d="M 640.789062 319.773438 C 639.96875 319.773438 639.152344 319.703125 638.324219 319.5625 C 630.660156 318.210938 625.550781 310.902344 626.902344 303.242188 C 629.15625 290.386719 630.308594 277.222656 630.308594 264.128906 C 630.308594 251.035156 629.15625 237.855469 626.902344 225.015625 C 625.535156 217.355469 630.660156 210.0625 638.324219 208.699219 C 645.984375 207.320312 653.277344 212.457031 654.628906 220.117188 C 657.195312 234.578125 658.476562 249.386719 658.476562 264.128906 C 658.476562 278.871094 657.179688 293.683594 654.628906 308.140625 C 653.433594 314.972656 647.492188 319.773438 640.789062 319.773438 Z M 640.789062 319.773438 " fill-opacity="1" fill-rule="nonzero"/><path fill="#cfe0f3" d="M 105.726562 358.378906 C 99.515625 358.378906 93.828125 354.222656 92.136719 347.945312 C 84.800781 320.628906 81.097656 292.429688 81.097656 264.128906 C 81.097656 235.828125 84.816406 207.628906 92.136719 180.3125 C 94.164062 172.808594 101.898438 168.359375 109.390625 170.359375 C 116.894531 172.375 121.375 180.089844 119.34375 187.605469 C 112.65625 212.542969 109.261719 238.28125 109.261719 264.128906 C 109.261719 289.980469 112.65625 315.71875 119.34375 340.652344 C 121.375 348.171875 116.894531 355.886719 109.390625 357.898438 C 108.164062 358.222656 106.9375 358.390625 105.726562 358.390625 Z M 105.726562 358.378906 " fill-opacity="1" fill-rule="nonzero"/><path fill="#cfe0f3" d="M 169.210938 319.773438 C 162.496094 319.773438 156.566406 314.972656 155.371094 308.140625 C 152.804688 293.683594 151.523438 278.871094 151.523438 264.128906 C 151.523438 249.386719 152.820312 234.578125 155.371094 220.117188 C 156.707031 212.457031 164.03125 207.332031 171.675781 208.699219 C 179.339844 210.050781 184.449219 217.355469 183.097656 225.015625 C 180.84375 237.871094 179.691406 251.035156 179.691406 264.128906 C 179.691406 277.222656 180.84375 290.402344 183.097656 303.242188 C 184.464844 310.902344 179.339844 318.195312 171.675781 319.5625 C 170.847656 319.703125 170.03125 319.773438 169.210938 319.773438 Z M 169.210938 319.773438 " fill-opacity="1" fill-rule="nonzero"/></svg>