<svg xmlns="http://www.w3.org/2000/svg" xmlns:xlink="http://www.w3.org/1999/xlink" width="1080" zoomAndPan="magnify" viewBox="0 0 810 809.999993" height="1080" preserveAspectRatio="xMidYMid meet" version="1.0"><defs><clipPath id="3e5ab37bb3"><path d="M 406.125 243 L 698.625 243 L 698.625 566 L 406.125 566 Z M 406.125 243 " clip-rule="nonzero"/></clipPath><clipPath id="4cb112734d"><path d="M 111.464844 243 L 383.714844 243 L 383.714844 380 L 111.464844 380 Z M 111.464844 243 " clip-rule="nonzero"/></clipPath></defs><g clip-path="url(#3e5ab37bb3)"><path fill="#ffabc7" d="M 493.148438 246.570312 L 493.792969 246.382812 C 496.203125 245.671875 498.691406 247.238281 499.089844 249.71875 L 503.425781 276.582031 C 503.660156 278.035156 504.636719 279.253906 506.011719 279.796875 C 512.324219 282.28125 531.261719 288.84375 551.285156 287.0625 C 569.863281 285.414062 583.132812 282.824219 588.496094 281.660156 C 590.101562 281.3125 591.34375 280.054688 591.683594 278.449219 L 598.355469 246.890625 C 598.867188 244.453125 601.390625 243.007812 603.753906 243.796875 C 605.824219 244.484375 607.011719 246.644531 606.484375 248.761719 C 603.3125 261.429688 595.542969 303.269531 624.882812 323.570312 C 625.984375 324.332031 626.613281 325.613281 626.613281 326.953125 L 626.613281 357.503906 C 626.613281 358.1875 626.777344 358.851562 627.097656 359.457031 C 633.109375 370.761719 693.171875 484.601562 698.386719 530.03125 C 698.601562 531.894531 697.515625 533.652344 695.773438 534.34375 C 680.71875 540.328125 609.070312 567.003906 532.179688 565.359375 C 459.527344 563.804688 419.570312 547.089844 408.820312 541.882812 C 407.054688 541.027344 406.136719 539.0625 406.605469 537.160156 C 411.671875 516.59375 440.691406 402.070312 468.886719 360.722656 C 469.316406 360.097656 469.566406 359.375 469.609375 358.613281 L 471.496094 325.027344 C 471.554688 323.988281 471.992188 323 472.738281 322.273438 C 476.359375 318.734375 487.472656 306.769531 490.421875 290.609375 C 494.027344 270.863281 491.875 257.679688 490.289062 251.613281 C 489.71875 249.433594 490.988281 247.207031 493.148438 246.570312 Z M 493.148438 246.570312 " fill-opacity="1" fill-rule="nonzero"/></g><path fill="#ffebf5" d="M 442.84375 476.425781 C 442.84375 476.425781 437.121094 460.171875 452.027344 456.40625 C 466.933594 452.644531 467.382812 467.847656 467.382812 467.847656 C 467.382812 467.847656 478.539062 456.285156 488.3125 467.394531 C 495.988281 476.125 486.503906 486.507812 486.503906 486.507812 C 486.503906 486.507812 504.277344 489.21875 500.8125 503.667969 C 497.351562 518.117188 481.234375 512.246094 481.234375 512.246094 C 481.234375 512.246094 488.011719 525.339844 477.171875 530.609375 C 463.480469 537.261719 457.296875 521.277344 457.296875 521.277344 C 457.296875 521.277344 443.144531 530.007812 434.714844 521.425781 C 426.546875 513.117188 435.464844 503.214844 435.464844 503.214844 C 435.464844 503.214844 420.6875 494.390625 426.132812 482.597656 C 431.550781 470.855469 442.84375 476.425781 442.84375 476.425781 Z M 442.84375 476.425781 " fill-opacity="1" fill-rule="nonzero"/><path fill="#ff9c43" d="M 461.890625 486.398438 C 457.679688 486.398438 454.265625 489.8125 454.265625 494.019531 C 454.265625 498.226562 457.679688 501.636719 461.890625 501.636719 C 466.097656 501.636719 469.511719 498.226562 469.511719 494.019531 C 469.511719 489.8125 466.097656 486.398438 461.890625 486.398438 Z M 461.890625 499.492188 C 458.863281 499.492188 456.414062 497.042969 456.414062 494.019531 C 456.414062 490.996094 458.863281 488.542969 461.890625 488.542969 C 464.914062 488.542969 467.367188 490.996094 467.367188 494.019531 C 467.367188 497.042969 464.914062 499.492188 461.890625 499.492188 Z M 461.890625 499.492188 " fill-opacity="1" fill-rule="nonzero"/><path fill="#ffebf5" d="M 585.875 396.976562 C 585.875 396.976562 580.644531 382.117188 594.273438 378.675781 C 607.898438 375.234375 608.3125 389.132812 608.3125 389.132812 C 608.3125 389.132812 618.511719 378.5625 627.445312 388.71875 C 634.464844 396.699219 625.792969 406.195312 625.792969 406.195312 C 625.792969 406.195312 642.039062 408.671875 638.875 421.878906 C 635.707031 435.089844 620.972656 429.722656 620.972656 429.722656 C 620.972656 429.722656 627.167969 441.695312 617.257812 446.511719 C 604.742188 452.59375 599.089844 437.980469 599.089844 437.980469 C 599.089844 437.980469 586.152344 445.960938 578.445312 438.117188 C 570.976562 430.519531 579.132812 421.46875 579.132812 421.46875 C 579.132812 421.46875 565.621094 413.402344 570.597656 402.617188 C 575.554688 391.886719 585.875 396.976562 585.875 396.976562 Z M 585.875 396.976562 " fill-opacity="1" fill-rule="nonzero"/><path fill="#ff9c43" d="M 603.289062 406.09375 C 599.441406 406.09375 596.320312 409.214844 596.320312 413.058594 C 596.320312 416.90625 599.441406 420.027344 603.289062 420.027344 C 607.136719 420.027344 610.253906 416.90625 610.253906 413.058594 C 610.253906 409.214844 607.136719 406.09375 603.289062 406.09375 Z M 603.289062 418.066406 C 600.523438 418.066406 598.28125 415.824219 598.28125 413.058594 C 598.28125 410.296875 600.523438 408.054688 603.289062 408.054688 C 606.054688 408.054688 608.292969 410.296875 608.292969 413.058594 C 608.292969 415.824219 606.054688 418.066406 603.289062 418.066406 Z M 603.289062 418.066406 " fill-opacity="1" fill-rule="nonzero"/><path fill="#ffd2e6" d="M 548.023438 471.476562 C 548.023438 471.476562 542.71875 466.410156 547.648438 462.113281 C 552.578125 457.8125 555.679688 463.492188 555.679688 463.492188 C 555.679688 463.492188 557.683594 456.957031 563.535156 459.289062 C 568.128906 461.121094 566.535156 466.886719 566.535156 466.886719 C 566.535156 466.886719 573.800781 464.492188 575.269531 470.640625 C 576.742188 476.789062 569.496094 477.667969 569.496094 477.667969 C 569.496094 477.667969 574.59375 481.328125 571.496094 485.417969 C 567.585938 490.578125 562.15625 485.707031 562.15625 485.707031 C 562.15625 485.707031 558.472656 491.746094 553.617188 490.117188 C 548.917969 488.535156 550.390625 483.0625 550.390625 483.0625 C 550.390625 483.0625 543.082031 482.5625 542.875 477.039062 C 542.667969 471.539062 548.023438 471.476562 548.023438 471.476562 Z M 548.023438 471.476562 " fill-opacity="1" fill-rule="nonzero"/><path fill="#ff9c43" d="M 558.46875 469.839844 C 556.269531 469.839844 554.488281 471.621094 554.488281 473.820312 C 554.488281 476.019531 556.269531 477.800781 558.46875 477.800781 C 560.671875 477.800781 562.453125 476.019531 562.453125 473.820312 C 562.453125 471.621094 560.671875 469.839844 558.46875 469.839844 Z M 558.46875 476.683594 C 556.890625 476.683594 555.609375 475.402344 555.609375 473.820312 C 555.609375 472.242188 556.890625 470.960938 558.46875 470.960938 C 560.050781 470.960938 561.332031 472.242188 561.332031 473.820312 C 561.332031 475.402344 560.050781 476.683594 558.46875 476.683594 Z M 558.46875 476.683594 " fill-opacity="1" fill-rule="nonzero"/><path fill="#ffebf5" d="M 498.433594 324.105469 C 498.433594 324.105469 495.445312 315.609375 503.234375 313.640625 C 511.023438 311.675781 511.257812 319.621094 511.257812 319.621094 C 511.257812 319.621094 517.089844 313.578125 522.195312 319.382812 C 526.210938 323.945312 521.253906 329.375 521.253906 329.375 C 521.253906 329.375 530.539062 330.789062 528.730469 338.339844 C 526.921875 345.890625 518.5 342.824219 518.5 342.824219 C 518.5 342.824219 522.039062 349.667969 516.375 352.417969 C 509.21875 355.898438 505.988281 347.542969 505.988281 347.542969 C 505.988281 347.542969 498.59375 352.105469 494.1875 347.621094 C 489.917969 343.28125 494.578125 338.105469 494.578125 338.105469 C 494.578125 338.105469 486.855469 333.492188 489.703125 327.328125 C 492.535156 321.195312 498.433594 324.105469 498.433594 324.105469 Z M 498.433594 324.105469 " fill-opacity="1" fill-rule="nonzero"/><path fill="#ff9c43" d="M 508.386719 329.316406 C 506.1875 329.316406 504.40625 331.097656 504.40625 333.296875 C 504.40625 335.496094 506.1875 337.28125 508.386719 337.28125 C 510.585938 337.28125 512.371094 335.496094 512.371094 333.296875 C 512.371094 331.097656 510.585938 329.316406 508.386719 329.316406 Z M 508.386719 336.160156 C 506.808594 336.160156 505.527344 334.878906 505.527344 333.296875 C 505.527344 331.71875 506.808594 330.4375 508.386719 330.4375 C 509.96875 330.4375 511.25 331.71875 511.25 333.296875 C 511.25 334.878906 509.96875 336.160156 508.386719 336.160156 Z M 508.386719 336.160156 " fill-opacity="1" fill-rule="nonzero"/><path fill="#ffd2e6" d="M 482.988281 414.757812 C 482.988281 414.757812 475.507812 407.617188 482.460938 401.554688 C 489.410156 395.492188 493.785156 403.5 493.785156 403.5 C 493.785156 403.5 496.609375 394.285156 504.859375 397.574219 C 511.339844 400.15625 509.089844 408.289062 509.089844 408.289062 C 509.089844 408.289062 519.332031 404.910156 521.410156 413.578125 C 523.484375 422.25 513.269531 423.488281 513.269531 423.488281 C 513.269531 423.488281 520.453125 428.652344 516.085938 434.417969 C 510.570312 441.695312 502.917969 434.824219 502.917969 434.824219 C 502.917969 434.824219 497.71875 443.339844 490.875 441.042969 C 484.25 438.816406 486.328125 431.09375 486.328125 431.09375 C 486.328125 431.09375 476.019531 430.390625 475.726562 422.601562 C 475.433594 414.847656 482.988281 414.757812 482.988281 414.757812 Z M 482.988281 414.757812 " fill-opacity="1" fill-rule="nonzero"/><path fill="#ff9c43" d="M 497.71875 412.449219 C 494.617188 412.449219 492.101562 414.964844 492.101562 418.066406 C 492.101562 421.167969 494.617188 423.679688 497.71875 423.679688 C 500.820312 423.679688 503.335938 421.167969 503.335938 418.066406 C 503.335938 414.964844 500.820312 412.449219 497.71875 412.449219 Z M 497.71875 422.101562 C 495.488281 422.101562 493.683594 420.292969 493.683594 418.066406 C 493.683594 415.835938 495.488281 414.03125 497.71875 414.03125 C 499.949219 414.03125 501.753906 415.835938 501.753906 418.066406 C 501.753906 420.292969 499.945312 422.101562 497.71875 422.101562 Z M 497.71875 422.101562 " fill-opacity="1" fill-rule="nonzero"/><path fill="#ffd2e6" d="M 566.476562 315.128906 C 566.476562 315.128906 560.644531 309.558594 566.066406 304.832031 C 571.484375 300.101562 574.898438 306.347656 574.898438 306.347656 C 574.898438 306.347656 577.101562 299.160156 583.53125 301.726562 C 588.585938 303.742188 586.832031 310.082031 586.832031 310.082031 C 586.832031 310.082031 594.820312 307.449219 596.441406 314.210938 C 598.058594 320.972656 590.09375 321.9375 590.09375 321.9375 C 590.09375 321.9375 595.695312 325.964844 592.289062 330.460938 C 587.988281 336.136719 582.019531 330.777344 582.019531 330.777344 C 582.019531 330.777344 577.964844 337.421875 572.628906 335.628906 C 567.460938 333.890625 569.082031 327.871094 569.082031 327.871094 C 569.082031 327.871094 561.042969 327.320312 560.8125 321.246094 C 560.585938 315.199219 566.476562 315.128906 566.476562 315.128906 Z M 566.476562 315.128906 " fill-opacity="1" fill-rule="nonzero"/><path fill="#ff9c43" d="M 577.964844 313.328125 C 575.546875 313.328125 573.585938 315.289062 573.585938 317.707031 C 573.585938 320.125 575.546875 322.085938 577.964844 322.085938 C 580.382812 322.085938 582.34375 320.125 582.34375 317.707031 C 582.34375 315.289062 580.382812 313.328125 577.964844 313.328125 Z M 577.964844 320.855469 C 576.226562 320.855469 574.816406 319.445312 574.816406 317.707031 C 574.816406 315.96875 576.226562 314.5625 577.964844 314.5625 C 579.703125 314.5625 581.113281 315.96875 581.113281 317.707031 C 581.113281 319.445312 579.703125 320.855469 577.964844 320.855469 Z M 577.964844 320.855469 " fill-opacity="1" fill-rule="nonzero"/><path fill="#ffd2e6" d="M 628.722656 496.550781 C 628.722656 496.550781 620.511719 488.714844 628.140625 482.058594 C 635.769531 475.402344 640.574219 484.195312 640.574219 484.195312 C 640.574219 484.195312 643.671875 474.078125 652.726562 477.6875 C 659.839844 480.523438 657.371094 489.449219 657.371094 489.449219 C 657.371094 489.449219 668.613281 485.742188 670.894531 495.257812 C 673.171875 504.773438 661.957031 506.136719 661.957031 506.136719 C 661.957031 506.136719 669.84375 511.804688 665.050781 518.128906 C 658.996094 526.121094 650.597656 518.578125 650.597656 518.578125 C 650.597656 518.578125 644.890625 527.925781 637.378906 525.402344 C 630.105469 522.957031 632.386719 514.484375 632.386719 514.484375 C 632.386719 514.484375 621.074219 513.710938 620.75 505.160156 C 620.429688 496.648438 628.722656 496.550781 628.722656 496.550781 Z M 628.722656 496.550781 " fill-opacity="1" fill-rule="nonzero"/><path fill="#ff9c43" d="M 644.890625 494.019531 C 641.484375 494.019531 638.726562 496.777344 638.726562 500.183594 C 638.726562 503.585938 641.484375 506.34375 644.890625 506.34375 C 648.296875 506.34375 651.054688 503.585938 651.054688 500.183594 C 651.054688 496.777344 648.296875 494.019531 644.890625 494.019531 Z M 644.890625 504.609375 C 642.445312 504.609375 640.460938 502.628906 640.460938 500.179688 C 640.460938 497.734375 642.445312 495.753906 644.890625 495.753906 C 647.335938 495.753906 649.320312 497.734375 649.320312 500.179688 C 649.320312 502.628906 647.335938 504.609375 644.890625 504.609375 Z M 644.890625 504.609375 " fill-opacity="1" fill-rule="nonzero"/><path fill="#ad5981" d="M 467.761719 362.089844 L 521.503906 370.660156 C 521.503906 370.660156 522.671875 360.742188 529.425781 361.8125 C 536.179688 362.882812 541.957031 369.558594 541.957031 369.558594 L 550.785156 369.855469 C 550.785156 369.855469 555.273438 360.179688 562.753906 359.714844 C 570.230469 359.25 570.902344 367.855469 570.902344 367.855469 L 626.523438 358.101562 L 630.464844 365.867188 L 570.347656 377.839844 C 570.347656 377.839844 571.753906 385.097656 564.101562 385.382812 C 556.449219 385.671875 552.078125 377.933594 552.078125 377.933594 L 542.617188 378.003906 C 542.617188 378.003906 538.386719 388.226562 530.210938 387.890625 C 522.03125 387.558594 522.316406 379.6875 522.316406 379.6875 L 463.09375 369.691406 Z M 467.761719 362.089844 " fill-opacity="1" fill-rule="nonzero"/><path fill="#ffebf5" d="M 541.898438 369.53125 C 541.898438 369.53125 543.335938 367.976562 546.558594 368.125 C 549.777344 368.273438 550.855469 369.707031 550.855469 369.707031 L 552.078125 377.933594 C 552.078125 377.933594 551.011719 380.160156 547.53125 380.652344 C 545.367188 380.957031 542.453125 380.429688 542.261719 378.820312 C 542.125 377.699219 541.898438 369.53125 541.898438 369.53125 Z M 541.898438 369.53125 " fill-opacity="1" fill-rule="nonzero"/><path fill="#ffebf5" d="M 539.039062 527.203125 C 539.039062 527.203125 535.359375 516.738281 544.953125 514.316406 C 554.546875 511.894531 554.839844 521.679688 554.839844 521.679688 C 554.839844 521.679688 562.019531 514.238281 568.308594 521.390625 C 573.253906 527.007812 567.144531 533.695312 567.144531 533.695312 C 567.144531 533.695312 578.585938 535.4375 576.355469 544.738281 C 574.128906 554.039062 563.753906 550.261719 563.753906 550.261719 C 563.753906 550.261719 568.117188 558.691406 561.136719 562.082031 C 552.324219 566.363281 548.34375 556.074219 548.34375 556.074219 C 548.34375 556.074219 539.234375 561.695312 533.808594 556.171875 C 528.550781 550.824219 534.292969 544.449219 534.292969 544.449219 C 534.292969 544.449219 524.777344 538.769531 528.285156 531.175781 C 531.773438 523.617188 539.039062 527.203125 539.039062 527.203125 Z M 539.039062 527.203125 " fill-opacity="1" fill-rule="nonzero"/><path fill="#ff9c43" d="M 551.300781 533.625 C 548.589844 533.625 546.394531 535.820312 546.394531 538.527344 C 546.394531 541.238281 548.589844 543.433594 551.300781 543.433594 C 554.011719 543.433594 556.207031 541.238281 556.207031 538.527344 C 556.207031 535.820312 554.011719 533.625 551.300781 533.625 Z M 551.300781 542.050781 C 549.351562 542.050781 547.773438 540.476562 547.773438 538.527344 C 547.773438 536.582031 549.351562 535.003906 551.300781 535.003906 C 553.246094 535.003906 554.824219 536.582031 554.824219 538.527344 C 554.824219 540.476562 553.246094 542.050781 551.300781 542.050781 Z M 551.300781 542.050781 " fill-opacity="1" fill-rule="nonzero"/><g clip-path="url(#4cb112734d)"><path fill="#f7f8f9" d="M 111.464844 298.300781 L 141.929688 355.742188 L 163.332031 339.933594 L 182.808594 379.640625 L 310.070312 379.640625 L 330.894531 338.972656 L 348.265625 361.910156 L 383.726562 310.636719 L 302.179688 245.597656 L 299.546875 243.175781 L 195.371094 243.003906 L 191.324219 245.597656 Z M 111.464844 298.300781 " fill-opacity="1" fill-rule="nonzero"/></g><path fill="#d1d2d3" d="M 185.316406 383.113281 C 185.316406 383.113281 152.726562 409.328125 147.328125 471.777344 C 141.929688 534.230469 141.929688 545.601562 141.929688 545.601562 L 228.699219 545.601562 C 228.699219 545.601562 223.492188 509.75 244.316406 511.484375 C 265.140625 513.21875 260.515625 546.566406 260.515625 546.566406 L 347.859375 546.566406 C 347.859375 546.566406 355.382812 420.121094 305.632812 387.160156 Z M 185.316406 383.113281 " fill-opacity="1" fill-rule="nonzero"/><path fill="#77564a" d="M 325.097656 263.878906 L 312.433594 253.777344 L 285.964844 376.171875 L 208.152344 376.171875 L 178.125 254.308594 L 162.863281 264.378906 L 190.210938 376.171875 L 174.527344 376.171875 L 174.527344 394.097656 L 315.671875 394.210938 L 315.671875 376.171875 L 303.320312 376.171875 Z M 325.097656 263.878906 " fill-opacity="1" fill-rule="nonzero"/><path fill="#77564a" d="M 132.386719 545.601562 L 235.929688 545.601562 L 235.929688 566.996094 L 132.386719 566.996094 Z M 132.386719 545.601562 " fill-opacity="1" fill-rule="nonzero"/><path fill="#77564a" d="M 254.296875 545.601562 L 357.839844 545.601562 L 357.839844 566.996094 L 254.296875 566.996094 Z M 254.296875 545.601562 " fill-opacity="1" fill-rule="nonzero"/><path fill="#77564a" d="M 188.621094 247.394531 L 210.699219 306.808594 L 276.179688 306.808594 L 305.238281 248.035156 L 299.546875 243.175781 L 271.765625 298.472656 L 216.257812 298.714844 L 195.371094 243.003906 Z M 188.621094 247.394531 " fill-opacity="1" fill-rule="nonzero"/><path fill="#f7f8f9" d="M 200.023438 378.894531 C 196.007812 378.894531 192.746094 382.152344 192.746094 386.171875 C 192.746094 390.1875 196.007812 393.445312 200.023438 393.445312 C 204.042969 393.445312 207.300781 390.1875 207.300781 386.171875 C 207.304688 382.152344 204.042969 378.894531 200.023438 378.894531 Z M 203.695312 390.316406 L 200.492188 389.066406 L 197.644531 390.992188 L 197.84375 387.5625 L 195.128906 385.449219 L 198.457031 384.582031 L 199.625 381.347656 L 201.484375 384.242188 L 204.921875 384.355469 L 202.738281 387.011719 Z M 203.695312 390.316406 " fill-opacity="1" fill-rule="nonzero"/><path fill="#f7f8f9" d="M 292.285156 378.894531 C 288.265625 378.894531 285.007812 382.152344 285.007812 386.171875 C 285.007812 390.1875 288.265625 393.445312 292.285156 393.445312 C 296.304688 393.445312 299.5625 390.1875 299.5625 386.171875 C 299.5625 382.152344 296.304688 378.894531 292.285156 378.894531 Z M 295.957031 390.316406 L 292.753906 389.066406 L 289.90625 390.992188 L 290.105469 387.5625 L 287.390625 385.449219 L 290.71875 384.582031 L 291.886719 381.347656 L 293.742188 384.242188 L 297.179688 384.355469 L 295 387.011719 Z M 295.957031 390.316406 " fill-opacity="1" fill-rule="nonzero"/><path fill="#d1d2d3" d="M 245.097656 315.578125 C 242.140625 315.578125 239.742188 317.976562 239.742188 320.933594 C 239.742188 323.890625 242.140625 326.289062 245.097656 326.289062 C 248.058594 326.289062 250.453125 323.890625 250.453125 320.933594 C 250.453125 317.976562 248.058594 315.578125 245.097656 315.578125 Z M 247.800781 323.984375 L 245.441406 323.066406 L 243.347656 324.484375 L 243.492188 321.957031 L 241.496094 320.40625 L 243.945312 319.765625 L 244.804688 317.382812 L 246.171875 319.515625 L 248.703125 319.597656 L 247.097656 321.554688 Z M 247.800781 323.984375 " fill-opacity="1" fill-rule="nonzero"/><path fill="#d1d2d3" d="M 245.097656 335.640625 C 242.140625 335.640625 239.742188 338.039062 239.742188 340.996094 C 239.742188 343.953125 242.140625 346.351562 245.097656 346.351562 C 248.058594 346.351562 250.453125 343.953125 250.453125 340.996094 C 250.453125 338.039062 248.058594 335.640625 245.097656 335.640625 Z M 247.800781 344.046875 L 245.441406 343.125 L 243.347656 344.546875 L 243.492188 342.019531 L 241.496094 340.464844 L 243.945312 339.824219 L 244.804688 337.445312 L 246.171875 339.578125 L 248.703125 339.660156 L 247.097656 341.617188 Z M 247.800781 344.046875 " fill-opacity="1" fill-rule="nonzero"/><path fill="#d1d2d3" d="M 245.097656 354.820312 C 242.140625 354.820312 239.742188 357.21875 239.742188 360.175781 C 239.742188 363.132812 242.140625 365.53125 245.097656 365.53125 C 248.058594 365.53125 250.453125 363.132812 250.453125 360.175781 C 250.453125 357.21875 248.058594 354.820312 245.097656 354.820312 Z M 247.800781 363.226562 L 245.441406 362.304688 L 243.347656 363.726562 L 243.492188 361.199219 L 241.496094 359.644531 L 243.945312 359.003906 L 244.804688 356.625 L 246.171875 358.757812 L 248.703125 358.839844 L 247.097656 360.796875 Z M 247.800781 363.226562 " fill-opacity="1" fill-rule="nonzero"/><path fill="#f7f8f9" d="M 167.089844 451.683594 C 167.089844 451.683594 152.128906 500.960938 192.597656 501.453125 C 233.0625 501.941406 218.59375 449.722656 218.59375 449.722656 Z M 167.089844 451.683594 " fill-opacity="1" fill-rule="nonzero"/><path fill="#77564a" d="M 167.824219 446.625 L 166.199219 455.199219 L 181.34375 463.5625 C 185.113281 465.640625 189.601562 465.96875 193.632812 464.453125 L 219.683594 454.652344 L 218.347656 445.429688 Z M 167.824219 446.625 " fill-opacity="1" fill-rule="nonzero"/><path fill="#d1d2d3" d="M 188.621094 450.808594 C 186.078125 450.808594 184.015625 452.871094 184.015625 455.410156 C 184.015625 457.953125 186.078125 460.011719 188.621094 460.011719 C 191.164062 460.011719 193.222656 457.953125 193.222656 455.410156 C 193.222656 452.871094 191.164062 450.808594 188.621094 450.808594 Z M 190.941406 458.03125 L 188.914062 457.242188 L 187.113281 458.460938 L 187.242188 456.289062 L 185.523438 454.957031 L 187.628906 454.40625 L 188.367188 452.359375 L 189.542969 454.191406 L 191.71875 454.261719 L 190.339844 455.945312 Z M 190.941406 458.03125 " fill-opacity="1" fill-rule="nonzero"/></svg>