<svg xmlns="http://www.w3.org/2000/svg" xmlns:xlink="http://www.w3.org/1999/xlink" width="1080" zoomAndPan="magnify" viewBox="0 0 810 809.999993" height="1080" preserveAspectRatio="xMidYMid meet" version="1.0"><defs><clipPath id="f60e680eb3"><path d="M 410 243 L 702.375 243 L 702.375 566 L 410 566 Z M 410 243 " clip-rule="nonzero"/></clipPath><clipPath id="9caac57f1b"><path d="M 107.714844 243 L 379.964844 243 L 379.964844 380 L 107.714844 380 Z M 107.714844 243 " clip-rule="nonzero"/></clipPath></defs><g clip-path="url(#f60e680eb3)"><path fill="#ffabc7" d="M 496.898438 246.570312 L 497.542969 246.382812 C 499.953125 245.671875 502.441406 247.238281 502.839844 249.71875 L 507.175781 276.582031 C 507.410156 278.035156 508.386719 279.253906 509.761719 279.796875 C 516.074219 282.28125 535.011719 288.84375 555.035156 287.0625 C 573.613281 285.414062 586.882812 282.824219 592.246094 281.660156 C 593.851562 281.3125 595.09375 280.054688 595.433594 278.449219 L 602.105469 246.890625 C 602.617188 244.453125 605.140625 243.007812 607.503906 243.796875 C 609.574219 244.484375 610.761719 246.644531 610.234375 248.761719 C 607.0625 261.429688 599.292969 303.269531 628.632812 323.570312 C 629.734375 324.332031 630.363281 325.613281 630.363281 326.953125 L 630.363281 357.503906 C 630.363281 358.1875 630.527344 358.851562 630.847656 359.457031 C 636.859375 370.761719 696.921875 484.601562 702.136719 530.03125 C 702.351562 531.894531 701.265625 533.652344 699.523438 534.34375 C 684.46875 540.328125 612.820312 567.003906 535.929688 565.359375 C 463.277344 563.804688 423.320312 547.089844 412.570312 541.882812 C 410.804688 541.027344 409.886719 539.0625 410.355469 537.160156 C 415.421875 516.59375 444.441406 402.070312 472.636719 360.722656 C 473.066406 360.097656 473.316406 359.375 473.359375 358.613281 L 475.246094 325.027344 C 475.304688 323.988281 475.742188 323 476.488281 322.273438 C 480.109375 318.734375 491.222656 306.769531 494.171875 290.609375 C 497.777344 270.863281 495.625 257.679688 494.039062 251.613281 C 493.46875 249.433594 494.738281 247.207031 496.898438 246.570312 Z M 496.898438 246.570312 " fill-opacity="1" fill-rule="nonzero"/></g><path fill="#ffebf5" d="M 446.59375 476.425781 C 446.59375 476.425781 440.871094 460.171875 455.777344 456.40625 C 470.683594 452.644531 471.132812 467.847656 471.132812 467.847656 C 471.132812 467.847656 482.289062 456.285156 492.0625 467.394531 C 499.738281 476.125 490.253906 486.507812 490.253906 486.507812 C 490.253906 486.507812 508.027344 489.21875 504.5625 503.667969 C 501.101562 518.117188 484.984375 512.246094 484.984375 512.246094 C 484.984375 512.246094 491.761719 525.339844 480.921875 530.609375 C 467.230469 537.261719 461.046875 521.277344 461.046875 521.277344 C 461.046875 521.277344 446.894531 530.007812 438.464844 521.425781 C 430.296875 513.117188 439.214844 503.214844 439.214844 503.214844 C 439.214844 503.214844 424.4375 494.390625 429.882812 482.597656 C 435.300781 470.855469 446.59375 476.425781 446.59375 476.425781 Z M 446.59375 476.425781 " fill-opacity="1" fill-rule="nonzero"/><path fill="#ff9c43" d="M 465.640625 486.398438 C 461.429688 486.398438 458.015625 489.8125 458.015625 494.019531 C 458.015625 498.226562 461.429688 501.636719 465.640625 501.636719 C 469.847656 501.636719 473.261719 498.226562 473.261719 494.019531 C 473.261719 489.8125 469.847656 486.398438 465.640625 486.398438 Z M 465.640625 499.492188 C 462.613281 499.492188 460.164062 497.042969 460.164062 494.019531 C 460.164062 490.996094 462.613281 488.542969 465.640625 488.542969 C 468.664062 488.542969 471.117188 490.996094 471.117188 494.019531 C 471.117188 497.042969 468.664062 499.492188 465.640625 499.492188 Z M 465.640625 499.492188 " fill-opacity="1" fill-rule="nonzero"/><path fill="#ffebf5" d="M 589.625 396.976562 C 589.625 396.976562 584.394531 382.117188 598.023438 378.675781 C 611.648438 375.234375 612.0625 389.132812 612.0625 389.132812 C 612.0625 389.132812 622.261719 378.5625 631.195312 388.71875 C 638.214844 396.699219 629.542969 406.195312 629.542969 406.195312 C 629.542969 406.195312 645.789062 408.671875 642.625 421.878906 C 639.457031 435.089844 624.722656 429.722656 624.722656 429.722656 C 624.722656 429.722656 630.917969 441.695312 621.007812 446.511719 C 608.492188 452.59375 602.839844 437.980469 602.839844 437.980469 C 602.839844 437.980469 589.902344 445.960938 582.195312 438.117188 C 574.726562 430.519531 582.882812 421.46875 582.882812 421.46875 C 582.882812 421.46875 569.371094 413.402344 574.347656 402.617188 C 579.304688 391.886719 589.625 396.976562 589.625 396.976562 Z M 589.625 396.976562 " fill-opacity="1" fill-rule="nonzero"/><path fill="#ff9c43" d="M 607.039062 406.09375 C 603.191406 406.09375 600.070312 409.214844 600.070312 413.058594 C 600.070312 416.90625 603.191406 420.027344 607.039062 420.027344 C 610.886719 420.027344 614.003906 416.90625 614.003906 413.058594 C 614.003906 409.214844 610.886719 406.09375 607.039062 406.09375 Z M 607.039062 418.066406 C 604.273438 418.066406 602.03125 415.824219 602.03125 413.058594 C 602.03125 410.296875 604.273438 408.054688 607.039062 408.054688 C 609.804688 408.054688 612.042969 410.296875 612.042969 413.058594 C 612.042969 415.824219 609.804688 418.066406 607.039062 418.066406 Z M 607.039062 418.066406 " fill-opacity="1" fill-rule="nonzero"/><path fill="#ffd2e6" d="M 551.773438 471.476562 C 551.773438 471.476562 546.46875 466.410156 551.398438 462.113281 C 556.328125 457.8125 559.429688 463.492188 559.429688 463.492188 C 559.429688 463.492188 561.433594 456.957031 567.285156 459.289062 C 571.878906 461.121094 570.285156 466.886719 570.285156 466.886719 C 570.285156 466.886719 577.550781 464.492188 579.019531 470.640625 C 580.492188 476.789062 573.246094 477.667969 573.246094 477.667969 C 573.246094 477.667969 578.34375 481.328125 575.246094 485.417969 C 571.335938 490.578125 565.90625 485.707031 565.90625 485.707031 C 565.90625 485.707031 562.222656 491.746094 557.367188 490.117188 C 552.667969 488.535156 554.140625 483.0625 554.140625 483.0625 C 554.140625 483.0625 546.832031 482.5625 546.625 477.039062 C 546.417969 471.539062 551.773438 471.476562 551.773438 471.476562 Z M 551.773438 471.476562 " fill-opacity="1" fill-rule="nonzero"/><path fill="#ff9c43" d="M 562.21875 469.839844 C 560.019531 469.839844 558.238281 471.621094 558.238281 473.820312 C 558.238281 476.019531 560.019531 477.800781 562.21875 477.800781 C 564.421875 477.800781 566.203125 476.019531 566.203125 473.820312 C 566.203125 471.621094 564.421875 469.839844 562.21875 469.839844 Z M 562.21875 476.683594 C 560.640625 476.683594 559.359375 475.402344 559.359375 473.820312 C 559.359375 472.242188 560.640625 470.960938 562.21875 470.960938 C 563.800781 470.960938 565.082031 472.242188 565.082031 473.820312 C 565.082031 475.402344 563.800781 476.683594 562.21875 476.683594 Z M 562.21875 476.683594 " fill-opacity="1" fill-rule="nonzero"/><path fill="#ffebf5" d="M 502.183594 324.105469 C 502.183594 324.105469 499.195312 315.609375 506.984375 313.640625 C 514.773438 311.675781 515.007812 319.621094 515.007812 319.621094 C 515.007812 319.621094 520.839844 313.578125 525.945312 319.382812 C 529.960938 323.945312 525.003906 329.375 525.003906 329.375 C 525.003906 329.375 534.289062 330.789062 532.480469 338.339844 C 530.671875 345.890625 522.25 342.824219 522.25 342.824219 C 522.25 342.824219 525.789062 349.667969 520.125 352.417969 C 512.96875 355.898438 509.738281 347.542969 509.738281 347.542969 C 509.738281 347.542969 502.34375 352.105469 497.9375 347.621094 C 493.667969 343.28125 498.328125 338.105469 498.328125 338.105469 C 498.328125 338.105469 490.605469 333.492188 493.453125 327.328125 C 496.285156 321.195312 502.183594 324.105469 502.183594 324.105469 Z M 502.183594 324.105469 " fill-opacity="1" fill-rule="nonzero"/><path fill="#ff9c43" d="M 512.136719 329.316406 C 509.9375 329.316406 508.15625 331.097656 508.15625 333.296875 C 508.15625 335.496094 509.9375 337.28125 512.136719 337.28125 C 514.335938 337.28125 516.121094 335.496094 516.121094 333.296875 C 516.121094 331.097656 514.335938 329.316406 512.136719 329.316406 Z M 512.136719 336.160156 C 510.558594 336.160156 509.277344 334.878906 509.277344 333.296875 C 509.277344 331.71875 510.558594 330.4375 512.136719 330.4375 C 513.71875 330.4375 515 331.71875 515 333.296875 C 515 334.878906 513.71875 336.160156 512.136719 336.160156 Z M 512.136719 336.160156 " fill-opacity="1" fill-rule="nonzero"/><path fill="#ffd2e6" d="M 486.738281 414.757812 C 486.738281 414.757812 479.257812 407.617188 486.210938 401.554688 C 493.160156 395.492188 497.535156 403.5 497.535156 403.5 C 497.535156 403.5 500.359375 394.285156 508.609375 397.574219 C 515.089844 400.15625 512.839844 408.289062 512.839844 408.289062 C 512.839844 408.289062 523.082031 404.910156 525.160156 413.578125 C 527.234375 422.25 517.019531 423.488281 517.019531 423.488281 C 517.019531 423.488281 524.203125 428.652344 519.835938 434.417969 C 514.320312 441.695312 506.667969 434.824219 506.667969 434.824219 C 506.667969 434.824219 501.46875 443.339844 494.625 441.042969 C 488 438.816406 490.078125 431.09375 490.078125 431.09375 C 490.078125 431.09375 479.769531 430.390625 479.476562 422.601562 C 479.183594 414.847656 486.738281 414.757812 486.738281 414.757812 Z M 486.738281 414.757812 " fill-opacity="1" fill-rule="nonzero"/><path fill="#ff9c43" d="M 501.46875 412.449219 C 498.367188 412.449219 495.851562 414.964844 495.851562 418.066406 C 495.851562 421.167969 498.367188 423.679688 501.46875 423.679688 C 504.570312 423.679688 507.085938 421.167969 507.085938 418.066406 C 507.085938 414.964844 504.570312 412.449219 501.46875 412.449219 Z M 501.46875 422.101562 C 499.238281 422.101562 497.433594 420.292969 497.433594 418.066406 C 497.433594 415.835938 499.238281 414.03125 501.46875 414.03125 C 503.699219 414.03125 505.503906 415.835938 505.503906 418.066406 C 505.503906 420.292969 503.695312 422.101562 501.46875 422.101562 Z M 501.46875 422.101562 " fill-opacity="1" fill-rule="nonzero"/><path fill="#ffd2e6" d="M 570.226562 315.128906 C 570.226562 315.128906 564.394531 309.558594 569.816406 304.832031 C 575.234375 300.101562 578.648438 306.347656 578.648438 306.347656 C 578.648438 306.347656 580.851562 299.160156 587.28125 301.726562 C 592.335938 303.742188 590.582031 310.082031 590.582031 310.082031 C 590.582031 310.082031 598.570312 307.449219 600.191406 314.210938 C 601.808594 320.972656 593.84375 321.9375 593.84375 321.9375 C 593.84375 321.9375 599.445312 325.964844 596.039062 330.460938 C 591.738281 336.136719 585.769531 330.777344 585.769531 330.777344 C 585.769531 330.777344 581.714844 337.421875 576.378906 335.628906 C 571.210938 333.890625 572.832031 327.871094 572.832031 327.871094 C 572.832031 327.871094 564.792969 327.320312 564.5625 321.246094 C 564.335938 315.199219 570.226562 315.128906 570.226562 315.128906 Z M 570.226562 315.128906 " fill-opacity="1" fill-rule="nonzero"/><path fill="#ff9c43" d="M 581.714844 313.328125 C 579.296875 313.328125 577.335938 315.289062 577.335938 317.707031 C 577.335938 320.125 579.296875 322.085938 581.714844 322.085938 C 584.132812 322.085938 586.09375 320.125 586.09375 317.707031 C 586.09375 315.289062 584.132812 313.328125 581.714844 313.328125 Z M 581.714844 320.855469 C 579.976562 320.855469 578.566406 319.445312 578.566406 317.707031 C 578.566406 315.96875 579.976562 314.5625 581.714844 314.5625 C 583.453125 314.5625 584.863281 315.96875 584.863281 317.707031 C 584.863281 319.445312 583.453125 320.855469 581.714844 320.855469 Z M 581.714844 320.855469 " fill-opacity="1" fill-rule="nonzero"/><path fill="#ffd2e6" d="M 632.472656 496.550781 C 632.472656 496.550781 624.261719 488.714844 631.890625 482.058594 C 639.519531 475.402344 644.324219 484.195312 644.324219 484.195312 C 644.324219 484.195312 647.421875 474.078125 656.476562 477.6875 C 663.589844 480.523438 661.121094 489.449219 661.121094 489.449219 C 661.121094 489.449219 672.363281 485.742188 674.644531 495.257812 C 676.921875 504.773438 665.707031 506.136719 665.707031 506.136719 C 665.707031 506.136719 673.59375 511.804688 668.800781 518.128906 C 662.746094 526.121094 654.347656 518.578125 654.347656 518.578125 C 654.347656 518.578125 648.640625 527.925781 641.128906 525.402344 C 633.855469 522.957031 636.136719 514.484375 636.136719 514.484375 C 636.136719 514.484375 624.824219 513.710938 624.5 505.160156 C 624.179688 496.648438 632.472656 496.550781 632.472656 496.550781 Z M 632.472656 496.550781 " fill-opacity="1" fill-rule="nonzero"/><path fill="#ff9c43" d="M 648.640625 494.019531 C 645.234375 494.019531 642.476562 496.777344 642.476562 500.183594 C 642.476562 503.585938 645.234375 506.34375 648.640625 506.34375 C 652.046875 506.34375 654.804688 503.585938 654.804688 500.183594 C 654.804688 496.777344 652.046875 494.019531 648.640625 494.019531 Z M 648.640625 504.609375 C 646.195312 504.609375 644.210938 502.628906 644.210938 500.179688 C 644.210938 497.734375 646.195312 495.753906 648.640625 495.753906 C 651.085938 495.753906 653.070312 497.734375 653.070312 500.179688 C 653.070312 502.628906 651.085938 504.609375 648.640625 504.609375 Z M 648.640625 504.609375 " fill-opacity="1" fill-rule="nonzero"/><path fill="#ad5981" d="M 471.511719 362.089844 L 525.253906 370.660156 C 525.253906 370.660156 526.421875 360.742188 533.175781 361.8125 C 539.929688 362.882812 545.707031 369.558594 545.707031 369.558594 L 554.535156 369.855469 C 554.535156 369.855469 559.023438 360.179688 566.503906 359.714844 C 573.980469 359.25 574.652344 367.855469 574.652344 367.855469 L 630.273438 358.101562 L 634.214844 365.867188 L 574.097656 377.839844 C 574.097656 377.839844 575.503906 385.097656 567.851562 385.382812 C 560.199219 385.671875 555.828125 377.933594 555.828125 377.933594 L 546.367188 378.003906 C 546.367188 378.003906 542.136719 388.226562 533.960938 387.890625 C 525.78125 387.558594 526.066406 379.6875 526.066406 379.6875 L 466.84375 369.691406 Z M 471.511719 362.089844 " fill-opacity="1" fill-rule="nonzero"/><path fill="#ffebf5" d="M 545.648438 369.53125 C 545.648438 369.53125 547.085938 367.976562 550.308594 368.125 C 553.527344 368.273438 554.605469 369.707031 554.605469 369.707031 L 555.828125 377.933594 C 555.828125 377.933594 554.761719 380.160156 551.28125 380.652344 C 549.117188 380.957031 546.203125 380.429688 546.011719 378.820312 C 545.875 377.699219 545.648438 369.53125 545.648438 369.53125 Z M 545.648438 369.53125 " fill-opacity="1" fill-rule="nonzero"/><path fill="#ffebf5" d="M 542.789062 527.203125 C 542.789062 527.203125 539.109375 516.738281 548.703125 514.316406 C 558.296875 511.894531 558.589844 521.679688 558.589844 521.679688 C 558.589844 521.679688 565.769531 514.238281 572.058594 521.390625 C 577.003906 527.007812 570.894531 533.695312 570.894531 533.695312 C 570.894531 533.695312 582.335938 535.4375 580.105469 544.738281 C 577.878906 554.039062 567.503906 550.261719 567.503906 550.261719 C 567.503906 550.261719 571.867188 558.691406 564.886719 562.082031 C 556.074219 566.363281 552.09375 556.074219 552.09375 556.074219 C 552.09375 556.074219 542.984375 561.695312 537.558594 556.171875 C 532.300781 550.824219 538.042969 544.449219 538.042969 544.449219 C 538.042969 544.449219 528.527344 538.769531 532.035156 531.175781 C 535.523438 523.617188 542.789062 527.203125 542.789062 527.203125 Z M 542.789062 527.203125 " fill-opacity="1" fill-rule="nonzero"/><path fill="#ff9c43" d="M 555.050781 533.625 C 552.339844 533.625 550.144531 535.820312 550.144531 538.527344 C 550.144531 541.238281 552.339844 543.433594 555.050781 543.433594 C 557.761719 543.433594 559.957031 541.238281 559.957031 538.527344 C 559.957031 535.820312 557.761719 533.625 555.050781 533.625 Z M 555.050781 542.050781 C 553.101562 542.050781 551.523438 540.476562 551.523438 538.527344 C 551.523438 536.582031 553.101562 535.003906 555.050781 535.003906 C 556.996094 535.003906 558.574219 536.582031 558.574219 538.527344 C 558.574219 540.476562 556.996094 542.050781 555.050781 542.050781 Z M 555.050781 542.050781 " fill-opacity="1" fill-rule="nonzero"/><g clip-path="url(#9caac57f1b)"><path fill="#f7f8f9" d="M 107.714844 298.300781 L 138.179688 355.742188 L 159.582031 339.933594 L 179.058594 379.640625 L 306.320312 379.640625 L 327.144531 338.972656 L 344.515625 361.910156 L 379.976562 310.636719 L 298.429688 245.597656 L 295.796875 243.175781 L 191.621094 243.003906 L 187.574219 245.597656 Z M 107.714844 298.300781 " fill-opacity="1" fill-rule="nonzero"/></g><path fill="#d1d2d3" d="M 181.566406 383.113281 C 181.566406 383.113281 148.976562 409.328125 143.578125 471.777344 C 138.179688 534.230469 138.179688 545.601562 138.179688 545.601562 L 224.949219 545.601562 C 224.949219 545.601562 219.742188 509.75 240.566406 511.484375 C 261.390625 513.21875 256.765625 546.566406 256.765625 546.566406 L 344.109375 546.566406 C 344.109375 546.566406 351.632812 420.121094 301.882812 387.160156 Z M 181.566406 383.113281 " fill-opacity="1" fill-rule="nonzero"/><path fill="#77564a" d="M 321.347656 263.878906 L 308.683594 253.777344 L 282.214844 376.171875 L 204.402344 376.171875 L 174.375 254.308594 L 159.113281 264.378906 L 186.460938 376.171875 L 170.777344 376.171875 L 170.777344 394.097656 L 311.921875 394.210938 L 311.921875 376.171875 L 299.570312 376.171875 Z M 321.347656 263.878906 " fill-opacity="1" fill-rule="nonzero"/><path fill="#77564a" d="M 128.636719 545.601562 L 232.179688 545.601562 L 232.179688 566.996094 L 128.636719 566.996094 Z M 128.636719 545.601562 " fill-opacity="1" fill-rule="nonzero"/><path fill="#77564a" d="M 250.546875 545.601562 L 354.089844 545.601562 L 354.089844 566.996094 L 250.546875 566.996094 Z M 250.546875 545.601562 " fill-opacity="1" fill-rule="nonzero"/><path fill="#77564a" d="M 184.871094 247.394531 L 206.949219 306.808594 L 272.429688 306.808594 L 301.488281 248.035156 L 295.796875 243.175781 L 268.015625 298.472656 L 212.507812 298.714844 L 191.621094 243.003906 Z M 184.871094 247.394531 " fill-opacity="1" fill-rule="nonzero"/><path fill="#f7f8f9" d="M 196.273438 378.894531 C 192.257812 378.894531 188.996094 382.152344 188.996094 386.171875 C 188.996094 390.1875 192.257812 393.445312 196.273438 393.445312 C 200.292969 393.445312 203.550781 390.1875 203.550781 386.171875 C 203.554688 382.152344 200.292969 378.894531 196.273438 378.894531 Z M 199.945312 390.316406 L 196.742188 389.066406 L 193.894531 390.992188 L 194.09375 387.5625 L 191.378906 385.449219 L 194.707031 384.582031 L 195.875 381.347656 L 197.734375 384.242188 L 201.171875 384.355469 L 198.988281 387.011719 Z M 199.945312 390.316406 " fill-opacity="1" fill-rule="nonzero"/><path fill="#f7f8f9" d="M 288.535156 378.894531 C 284.515625 378.894531 281.257812 382.152344 281.257812 386.171875 C 281.257812 390.1875 284.515625 393.445312 288.535156 393.445312 C 292.554688 393.445312 295.8125 390.1875 295.8125 386.171875 C 295.8125 382.152344 292.554688 378.894531 288.535156 378.894531 Z M 292.207031 390.316406 L 289.003906 389.066406 L 286.15625 390.992188 L 286.355469 387.5625 L 283.640625 385.449219 L 286.96875 384.582031 L 288.136719 381.347656 L 289.992188 384.242188 L 293.429688 384.355469 L 291.25 387.011719 Z M 292.207031 390.316406 " fill-opacity="1" fill-rule="nonzero"/><path fill="#d1d2d3" d="M 241.347656 315.578125 C 238.390625 315.578125 235.992188 317.976562 235.992188 320.933594 C 235.992188 323.890625 238.390625 326.289062 241.347656 326.289062 C 244.308594 326.289062 246.703125 323.890625 246.703125 320.933594 C 246.703125 317.976562 244.308594 315.578125 241.347656 315.578125 Z M 244.050781 323.984375 L 241.691406 323.066406 L 239.597656 324.484375 L 239.742188 321.957031 L 237.746094 320.40625 L 240.195312 319.765625 L 241.054688 317.382812 L 242.421875 319.515625 L 244.953125 319.597656 L 243.347656 321.554688 Z M 244.050781 323.984375 " fill-opacity="1" fill-rule="nonzero"/><path fill="#d1d2d3" d="M 241.347656 335.640625 C 238.390625 335.640625 235.992188 338.039062 235.992188 340.996094 C 235.992188 343.953125 238.390625 346.351562 241.347656 346.351562 C 244.308594 346.351562 246.703125 343.953125 246.703125 340.996094 C 246.703125 338.039062 244.308594 335.640625 241.347656 335.640625 Z M 244.050781 344.046875 L 241.691406 343.125 L 239.597656 344.546875 L 239.742188 342.019531 L 237.746094 340.464844 L 240.195312 339.824219 L 241.054688 337.445312 L 242.421875 339.578125 L 244.953125 339.660156 L 243.347656 341.617188 Z M 244.050781 344.046875 " fill-opacity="1" fill-rule="nonzero"/><path fill="#d1d2d3" d="M 241.347656 354.820312 C 238.390625 354.820312 235.992188 357.21875 235.992188 360.175781 C 235.992188 363.132812 238.390625 365.53125 241.347656 365.53125 C 244.308594 365.53125 246.703125 363.132812 246.703125 360.175781 C 246.703125 357.21875 244.308594 354.820312 241.347656 354.820312 Z M 244.050781 363.226562 L 241.691406 362.304688 L 239.597656 363.726562 L 239.742188 361.199219 L 237.746094 359.644531 L 240.195312 359.003906 L 241.054688 356.625 L 242.421875 358.757812 L 244.953125 358.839844 L 243.347656 360.796875 Z M 244.050781 363.226562 " fill-opacity="1" fill-rule="nonzero"/><path fill="#f7f8f9" d="M 163.339844 451.683594 C 163.339844 451.683594 148.378906 500.960938 188.847656 501.453125 C 229.3125 501.941406 214.84375 449.722656 214.84375 449.722656 Z M 163.339844 451.683594 " fill-opacity="1" fill-rule="nonzero"/><path fill="#77564a" d="M 164.074219 446.625 L 162.449219 455.199219 L 177.59375 463.5625 C 181.363281 465.640625 185.851562 465.96875 189.882812 464.453125 L 215.933594 454.652344 L 214.597656 445.429688 Z M 164.074219 446.625 " fill-opacity="1" fill-rule="nonzero"/><path fill="#d1d2d3" d="M 184.871094 450.808594 C 182.328125 450.808594 180.265625 452.871094 180.265625 455.410156 C 180.265625 457.953125 182.328125 460.011719 184.871094 460.011719 C 187.414062 460.011719 189.472656 457.953125 189.472656 455.410156 C 189.472656 452.871094 187.414062 450.808594 184.871094 450.808594 Z M 187.191406 458.03125 L 185.164062 457.242188 L 183.363281 458.460938 L 183.492188 456.289062 L 181.773438 454.957031 L 183.878906 454.40625 L 184.617188 452.359375 L 185.792969 454.191406 L 187.96875 454.261719 L 186.589844 455.945312 Z M 187.191406 458.03125 " fill-opacity="1" fill-rule="nonzero"/></svg>