<svg xmlns="http://www.w3.org/2000/svg" xmlns:xlink="http://www.w3.org/1999/xlink" width="1080" zoomAndPan="magnify" viewBox="0 0 810 809.999993" height="1080" preserveAspectRatio="xMidYMid meet" version="1.0"><defs><clipPath id="34a281fdb1"><path d="M 356 377 L 554 377 L 554 664.738281 L 356 664.738281 Z M 356 377 " clip-rule="nonzero"/></clipPath><clipPath id="a203e2b4ce"><path d="M 304 389 L 357 389 L 357 664.738281 L 304 664.738281 Z M 304 389 " clip-rule="nonzero"/></clipPath><clipPath id="cb15d441c9"><path d="M 304 627 L 357 627 L 357 664.738281 L 304 664.738281 Z M 304 627 " clip-rule="nonzero"/></clipPath></defs><path fill="#bd1c2e" d="M 645.210938 195.097656 L 402.527344 161.058594 L 330.148438 522.757812 L 645.210938 620.628906 L 645.210938 195.097656 " fill-opacity="1" fill-rule="nonzero"/><path fill="#901824" d="M 728.230469 573.820312 L 683.523438 180.207031 L 645.210938 195.097656 L 645.210938 620.628906 L 728.230469 573.820312 " fill-opacity="1" fill-rule="nonzero"/><path fill="#74141d" d="M 683.523438 180.207031 L 441.378906 145 L 402.527344 161.058594 L 645.210938 195.097656 L 683.523438 180.207031 " fill-opacity="1" fill-rule="nonzero"/><path fill="#7c1520" d="M 728.230469 573.820312 L 674.300781 561.761719 L 665.957031 187.035156 L 683.523438 180.207031 L 728.230469 573.820312 " fill-opacity="1" fill-rule="nonzero"/><path fill="#bd1c2e" d="M 674.300781 561.761719 L 645.210938 620.628906 L 728.230469 573.820312 Z M 674.300781 561.761719 " fill-opacity="1" fill-rule="nonzero"/><path fill="#74141d" d="M 575.109375 249.539062 C 575.109375 254.332031 578.996094 258.21875 583.800781 258.21875 C 588.605469 258.21875 592.484375 254.332031 592.484375 249.539062 C 592.484375 244.738281 588.605469 240.851562 583.800781 240.851562 C 578.996094 240.851562 575.109375 244.738281 575.109375 249.539062 " fill-opacity="1" fill-rule="nonzero"/><path fill="#74141d" d="M 420.789062 224.363281 C 420.789062 229.15625 424.667969 233.042969 429.464844 233.042969 C 434.261719 233.042969 438.15625 229.15625 438.15625 224.363281 C 438.15625 219.5625 434.261719 215.667969 429.464844 215.667969 C 424.667969 215.667969 420.789062 219.5625 420.789062 224.363281 " fill-opacity="1" fill-rule="nonzero"/><path fill="#1b2a4a" d="M 423.394531 248.871094 C 423.054688 240.625 423.464844 232.058594 424.617188 223.402344 C 424.660156 223.144531 424.789062 222.917969 424.996094 222.769531 C 425.203125 222.621094 425.457031 222.554688 425.722656 222.597656 L 433.1875 223.820312 C 433.699219 223.898438 434.042969 224.398438 433.964844 224.910156 C 432.570312 233.703125 432.035156 242.480469 432.398438 251.03125 C 433.492188 277.53125 442.199219 302.128906 456.925781 320.269531 C 471.566406 338.347656 490.40625 347.84375 509.992188 347.03125 C 511.773438 346.960938 513.558594 346.796875 515.332031 346.550781 L 515.335938 346.550781 C 552.414062 341.390625 579.972656 299.464844 579.386719 249.003906 C 579.386719 248.726562 579.515625 248.457031 579.722656 248.273438 C 579.929688 248.09375 580.214844 247.996094 580.492188 248.050781 L 586.910156 249.105469 C 587.375 249.183594 587.722656 249.59375 587.703125 250.058594 C 587.054688 304.265625 556.261719 349.351562 516.097656 354.941406 C 514.128906 355.222656 512.09375 355.398438 510.09375 355.476562 C 488.097656 356.394531 466.953125 345.765625 450.582031 325.5625 C 434.261719 305.445312 424.605469 278.214844 423.394531 248.871094 " fill-opacity="1" fill-rule="nonzero"/><path fill="#f68b41" d="M 151.898438 296.296875 L 356.859375 267.542969 L 417.992188 573.039062 L 151.898438 655.707031 L 151.898438 296.296875 " fill-opacity="1" fill-rule="nonzero"/><path fill="#c17236" d="M 81.777344 616.167969 L 119.527344 283.714844 L 151.898438 296.296875 L 151.898438 655.707031 L 81.777344 616.167969 " fill-opacity="1" fill-rule="nonzero"/><path fill="#704322" d="M 119.527344 283.714844 L 324.046875 253.976562 L 356.859375 267.542969 L 151.898438 296.296875 L 119.527344 283.714844 " fill-opacity="1" fill-rule="nonzero"/><path fill="#92592b" d="M 81.777344 616.167969 L 127.320312 605.980469 L 134.367188 289.480469 L 119.527344 283.714844 L 81.777344 616.167969 " fill-opacity="1" fill-rule="nonzero"/><path fill="#704322" d="M 127.320312 605.980469 L 151.898438 655.707031 L 81.777344 616.167969 Z M 127.320312 605.980469 " fill-opacity="1" fill-rule="nonzero"/><path fill="#704322" d="M 211.09375 342.273438 C 211.09375 346.320312 207.820312 349.609375 203.757812 349.609375 C 199.699219 349.609375 196.425781 346.320312 196.425781 342.273438 C 196.425781 338.21875 199.699219 334.933594 203.757812 334.933594 C 207.820312 334.933594 211.09375 338.21875 211.09375 342.273438 " fill-opacity="1" fill-rule="nonzero"/><path fill="#704322" d="M 341.445312 321.011719 C 341.445312 325.058594 338.15625 328.34375 334.105469 328.34375 C 330.0625 328.34375 326.769531 325.058594 326.769531 321.011719 C 326.769531 316.957031 330.0625 313.667969 334.105469 313.667969 C 338.15625 313.667969 341.445312 316.957031 341.445312 321.011719 " fill-opacity="1" fill-rule="nonzero"/><path fill="#1b2a4a" d="M 339.238281 341.710938 C 339.527344 334.746094 339.179688 327.511719 338.199219 320.199219 C 338.167969 319.984375 338.054688 319.792969 337.886719 319.667969 C 337.714844 319.539062 337.492188 319.480469 337.28125 319.515625 L 330.96875 320.554688 C 330.53125 320.621094 330.242188 321.039062 330.304688 321.472656 C 331.492188 328.898438 331.941406 336.3125 331.644531 343.53125 C 330.703125 365.917969 323.359375 386.699219 310.925781 402.015625 C 298.5625 417.28125 282.640625 425.304688 266.097656 424.617188 C 264.589844 424.558594 263.085938 424.421875 261.59375 424.210938 L 261.585938 424.210938 C 230.269531 419.847656 206.996094 384.4375 207.484375 341.824219 C 207.484375 341.589844 207.378906 341.363281 207.195312 341.207031 C 207.023438 341.058594 206.789062 340.972656 206.554688 341.015625 L 201.128906 341.910156 C 200.730469 341.976562 200.453125 342.324219 200.460938 342.714844 C 201.007812 388.5 227.015625 426.578125 260.9375 431.300781 C 262.605469 431.53125 264.324219 431.6875 266.003906 431.75 C 284.589844 432.527344 302.445312 423.546875 316.269531 406.484375 C 330.0625 389.496094 338.210938 366.488281 339.238281 341.710938 " fill-opacity="1" fill-rule="nonzero"/><g clip-path="url(#34a281fdb1)"><path fill="#46babd" d="M 356.839844 398.488281 L 508.675781 377.1875 L 553.964844 603.492188 L 356.839844 664.726562 L 356.839844 398.488281 " fill-opacity="1" fill-rule="nonzero"/></g><g clip-path="url(#a203e2b4ce)"><path fill="#40a3a9" d="M 304.894531 635.445312 L 332.867188 389.167969 L 356.839844 398.488281 L 356.839844 664.726562 L 304.894531 635.445312 " fill-opacity="1" fill-rule="nonzero"/></g><path fill="#2b6a70" d="M 332.867188 389.167969 L 484.363281 367.144531 L 508.675781 377.1875 L 356.839844 398.488281 L 332.867188 389.167969 " fill-opacity="1" fill-rule="nonzero"/><path fill="#36868d" d="M 304.894531 635.445312 L 338.640625 627.898438 L 343.847656 393.441406 L 332.867188 389.167969 L 304.894531 635.445312 " fill-opacity="1" fill-rule="nonzero"/><g clip-path="url(#cb15d441c9)"><path fill="#2b6a70" d="M 338.640625 627.898438 L 356.839844 664.726562 L 304.894531 635.445312 Z M 338.640625 627.898438 " fill-opacity="1" fill-rule="nonzero"/></g><path fill="#2b6a70" d="M 400.691406 432.546875 C 400.691406 435.550781 398.261719 437.984375 395.257812 437.984375 C 392.253906 437.984375 389.820312 435.550781 389.820312 432.546875 C 389.820312 429.546875 392.253906 427.113281 395.257812 427.113281 C 398.261719 427.113281 400.691406 429.546875 400.691406 432.546875 " fill-opacity="1" fill-rule="nonzero"/><path fill="#2b6a70" d="M 497.253906 416.796875 C 497.253906 419.800781 494.816406 422.234375 491.820312 422.234375 C 488.816406 422.234375 486.382812 419.800781 486.382812 416.796875 C 486.382812 413.796875 488.816406 411.355469 491.820312 411.355469 C 494.816406 411.355469 497.253906 413.796875 497.253906 416.796875 " fill-opacity="1" fill-rule="nonzero"/><path fill="#1b2a4a" d="M 495.621094 432.128906 C 495.828125 426.96875 495.578125 421.613281 494.855469 416.191406 L 494.613281 415.800781 L 494.164062 415.695312 L 489.496094 416.457031 C 489.175781 416.507812 488.960938 416.820312 489.003906 417.140625 C 489.878906 422.636719 490.214844 428.136719 489.984375 433.480469 C 489.296875 450.0625 483.855469 465.457031 474.640625 476.800781 C 465.488281 488.113281 453.695312 494.054688 441.445312 493.546875 C 440.320312 493.5 439.203125 493.398438 438.097656 493.25 L 438.09375 493.25 C 414.894531 490.019531 397.65625 463.785156 398.019531 432.214844 C 398.019531 432.042969 397.941406 431.871094 397.808594 431.757812 C 397.679688 431.644531 397.5 431.582031 397.332031 431.617188 L 393.316406 432.277344 C 393.015625 432.328125 392.804688 432.582031 392.816406 432.875 C 393.222656 466.792969 412.492188 495 437.621094 498.5 C 438.855469 498.671875 440.128906 498.785156 441.375 498.832031 C 455.132812 499.402344 468.371094 492.757812 478.605469 480.117188 C 488.816406 467.527344 494.859375 450.488281 495.621094 432.128906 " fill-opacity="1" fill-rule="nonzero"/></svg>