<svg xmlns="http://www.w3.org/2000/svg" xmlns:xlink="http://www.w3.org/1999/xlink" width="1080" zoomAndPan="magnify" viewBox="0 0 810 809.999993" height="1080" preserveAspectRatio="xMidYMid meet" version="1.0"><defs><clipPath id="fa3ccd187e"><path d="M 627 196 L 704.84375 196 L 704.84375 605 L 627 605 Z M 627 196 " clip-rule="nonzero"/></clipPath><clipPath id="161ba9908c"><path d="M 402 164.125 L 663 164.125 L 663 211 L 402 211 Z M 402 164.125 " clip-rule="nonzero"/></clipPath><clipPath id="3d5b05ac15"><path d="M 646 196 L 704.84375 196 L 704.84375 562 L 646 562 Z M 646 196 " clip-rule="nonzero"/></clipPath><clipPath id="9d32a087c1"><path d="M 627 550 L 704.84375 550 L 704.84375 605 L 627 605 Z M 627 550 " clip-rule="nonzero"/></clipPath><clipPath id="7ac9fda0df"><path d="M 360 379 L 543 379 L 543 645.625 L 360 645.625 Z M 360 379 " clip-rule="nonzero"/></clipPath><clipPath id="761b9cdd55"><path d="M 312 390 L 361 390 L 361 645.625 L 312 645.625 Z M 312 390 " clip-rule="nonzero"/></clipPath><clipPath id="92eba875b3"><path d="M 312 611 L 361 611 L 361 645.625 L 312 645.625 Z M 312 611 " clip-rule="nonzero"/></clipPath></defs><path fill="#bd1c2e" d="M 627.261719 210.546875 L 402.554688 179.011719 L 335.539062 514.09375 L 627.261719 604.761719 L 627.261719 210.546875 " fill-opacity="1" fill-rule="nonzero"/><g clip-path="url(#fa3ccd187e)"><path fill="#901824" d="M 704.132812 561.398438 L 662.738281 196.75 L 627.261719 210.546875 L 627.261719 604.761719 L 704.132812 561.398438 " fill-opacity="1" fill-rule="nonzero"/></g><g clip-path="url(#161ba9908c)"><path fill="#74141d" d="M 662.738281 196.75 L 438.53125 164.136719 L 402.554688 179.011719 L 627.261719 210.546875 L 662.738281 196.75 " fill-opacity="1" fill-rule="nonzero"/></g><g clip-path="url(#3d5b05ac15)"><path fill="#7c1520" d="M 704.132812 561.398438 L 654.199219 550.226562 L 646.472656 203.078125 L 662.738281 196.75 L 704.132812 561.398438 " fill-opacity="1" fill-rule="nonzero"/></g><g clip-path="url(#9d32a087c1)"><path fill="#bd1c2e" d="M 654.199219 550.226562 L 627.261719 604.761719 L 704.132812 561.398438 Z M 654.199219 550.226562 " fill-opacity="1" fill-rule="nonzero"/></g><path fill="#74141d" d="M 562.355469 260.980469 C 562.355469 265.421875 565.953125 269.019531 570.402344 269.019531 C 574.851562 269.019531 578.441406 265.421875 578.441406 260.980469 C 578.441406 256.53125 574.851562 252.933594 570.402344 252.933594 C 565.953125 252.933594 562.355469 256.53125 562.355469 260.980469 " fill-opacity="1" fill-rule="nonzero"/><path fill="#74141d" d="M 419.464844 237.65625 C 419.464844 242.097656 423.058594 245.699219 427.5 245.699219 C 431.941406 245.699219 435.546875 242.097656 435.546875 237.65625 C 435.546875 233.210938 431.941406 229.605469 427.5 229.605469 C 423.058594 229.605469 419.464844 233.210938 419.464844 237.65625 " fill-opacity="1" fill-rule="nonzero"/><path fill="#1b2a4a" d="M 421.878906 260.359375 C 421.5625 252.722656 421.945312 244.789062 423.011719 236.769531 C 423.050781 236.53125 423.167969 236.320312 423.359375 236.179688 C 423.550781 236.042969 423.789062 235.984375 424.03125 236.023438 L 430.945312 237.15625 C 431.421875 237.230469 431.738281 237.691406 431.664062 238.164062 C 430.371094 246.3125 429.878906 254.441406 430.214844 262.363281 C 431.230469 286.914062 439.289062 309.703125 452.925781 326.507812 C 466.480469 343.253906 483.925781 352.050781 502.0625 351.300781 C 503.710938 351.234375 505.363281 351.082031 507.003906 350.851562 L 507.011719 350.851562 C 541.339844 346.074219 566.855469 307.230469 566.316406 260.484375 C 566.316406 260.230469 566.433594 259.980469 566.625 259.808594 C 566.816406 259.644531 567.082031 259.550781 567.339844 259.601562 L 573.28125 260.578125 C 573.710938 260.652344 574.035156 261.03125 574.015625 261.460938 C 573.414062 311.679688 544.90625 353.449219 507.714844 358.628906 C 505.890625 358.886719 504.003906 359.050781 502.152344 359.121094 C 481.789062 359.972656 462.210938 350.125 447.050781 331.410156 C 431.941406 312.773438 422.996094 287.546875 421.878906 260.359375 " fill-opacity="1" fill-rule="nonzero"/><path fill="#f68b41" d="M 170.492188 304.296875 L 360.273438 277.660156 L 416.875 560.671875 L 170.492188 637.257812 L 170.492188 304.296875 " fill-opacity="1" fill-rule="nonzero"/><path fill="#c17236" d="M 105.5625 600.628906 L 140.519531 292.640625 L 170.492188 304.296875 L 170.492188 637.257812 L 105.5625 600.628906 " fill-opacity="1" fill-rule="nonzero"/><path fill="#704322" d="M 140.519531 292.640625 L 329.890625 265.09375 L 360.273438 277.660156 L 170.492188 304.296875 L 140.519531 292.640625 " fill-opacity="1" fill-rule="nonzero"/><path fill="#92592b" d="M 105.5625 600.628906 L 147.734375 591.191406 L 154.257812 297.984375 L 140.519531 292.640625 L 105.5625 600.628906 " fill-opacity="1" fill-rule="nonzero"/><path fill="#704322" d="M 147.734375 591.191406 L 170.492188 637.257812 L 105.5625 600.628906 Z M 147.734375 591.191406 " fill-opacity="1" fill-rule="nonzero"/><path fill="#704322" d="M 225.300781 346.890625 C 225.300781 350.640625 222.269531 353.6875 218.507812 353.6875 C 214.75 353.6875 211.71875 350.640625 211.71875 346.890625 C 211.71875 343.132812 214.75 340.089844 218.507812 340.089844 C 222.269531 340.089844 225.300781 343.132812 225.300781 346.890625 " fill-opacity="1" fill-rule="nonzero"/><path fill="#704322" d="M 345.996094 327.191406 C 345.996094 330.941406 342.953125 333.988281 339.203125 333.988281 C 335.460938 333.988281 332.40625 330.941406 332.40625 327.191406 C 332.40625 323.4375 335.460938 320.390625 339.203125 320.390625 C 342.953125 320.390625 345.996094 323.4375 345.996094 327.191406 " fill-opacity="1" fill-rule="nonzero"/><path fill="#1b2a4a" d="M 343.953125 346.371094 C 344.222656 339.917969 343.902344 333.214844 342.992188 326.441406 C 342.964844 326.242188 342.859375 326.066406 342.703125 325.945312 C 342.542969 325.828125 342.339844 325.777344 342.140625 325.808594 L 336.296875 326.769531 C 335.894531 326.832031 335.625 327.21875 335.683594 327.621094 C 336.785156 334.5 337.199219 341.367188 336.921875 348.058594 C 336.050781 368.796875 329.25 388.046875 317.738281 402.234375 C 306.289062 416.378906 291.546875 423.8125 276.230469 423.171875 C 274.835938 423.121094 273.445312 422.996094 272.0625 422.796875 L 272.054688 422.796875 C 243.058594 418.757812 221.507812 385.953125 221.960938 346.476562 C 221.960938 346.257812 221.863281 346.046875 221.691406 345.902344 C 221.53125 345.765625 221.316406 345.683594 221.097656 345.722656 L 216.078125 346.554688 C 215.707031 346.613281 215.449219 346.9375 215.457031 347.300781 C 215.964844 389.714844 240.046875 424.992188 271.453125 429.367188 C 272.996094 429.578125 274.589844 429.722656 276.148438 429.785156 C 293.355469 430.5 309.890625 422.183594 322.6875 406.375 C 335.460938 390.636719 343.003906 369.324219 343.953125 346.371094 " fill-opacity="1" fill-rule="nonzero"/><g clip-path="url(#7ac9fda0df)"><path fill="#46babd" d="M 360.25 398.96875 L 500.84375 379.234375 L 542.777344 588.886719 L 360.25 645.613281 L 360.25 398.96875 " fill-opacity="1" fill-rule="nonzero"/></g><g clip-path="url(#761b9cdd55)"><path fill="#40a3a9" d="M 312.15625 618.488281 L 338.054688 390.335938 L 360.25 398.96875 L 360.25 645.613281 L 312.15625 618.488281 " fill-opacity="1" fill-rule="nonzero"/></g><path fill="#2b6a70" d="M 338.054688 390.335938 L 478.328125 369.929688 L 500.84375 379.234375 L 360.25 398.96875 L 338.054688 390.335938 " fill-opacity="1" fill-rule="nonzero"/><path fill="#36868d" d="M 312.15625 618.488281 L 343.402344 611.496094 L 348.222656 394.292969 L 338.054688 390.335938 L 312.15625 618.488281 " fill-opacity="1" fill-rule="nonzero"/><g clip-path="url(#92eba875b3)"><path fill="#2b6a70" d="M 343.402344 611.496094 L 360.25 645.613281 L 312.15625 618.488281 Z M 343.402344 611.496094 " fill-opacity="1" fill-rule="nonzero"/></g><path fill="#2b6a70" d="M 400.855469 430.519531 C 400.855469 433.300781 398.605469 435.554688 395.824219 435.554688 C 393.046875 435.554688 390.792969 433.300781 390.792969 430.519531 C 390.792969 427.742188 393.046875 425.488281 395.824219 425.488281 C 398.605469 425.488281 400.855469 427.742188 400.855469 430.519531 " fill-opacity="1" fill-rule="nonzero"/><path fill="#2b6a70" d="M 490.265625 415.929688 C 490.265625 418.710938 488.011719 420.964844 485.238281 420.964844 C 482.457031 420.964844 480.203125 418.710938 480.203125 415.929688 C 480.203125 413.148438 482.457031 410.890625 485.238281 410.890625 C 488.011719 410.890625 490.265625 413.148438 490.265625 415.929688 " fill-opacity="1" fill-rule="nonzero"/><path fill="#1b2a4a" d="M 488.753906 430.132812 C 488.945312 425.355469 488.714844 420.390625 488.042969 415.371094 L 487.820312 415.007812 L 487.40625 414.910156 L 483.082031 415.613281 C 482.785156 415.660156 482.585938 415.949219 482.625 416.246094 C 483.4375 421.339844 483.746094 426.433594 483.535156 431.382812 C 482.898438 446.746094 477.863281 461.007812 469.328125 471.519531 C 460.851562 481.996094 449.933594 487.5 438.589844 487.03125 C 437.550781 486.988281 436.515625 486.894531 435.492188 486.757812 L 435.488281 486.757812 C 414.007812 483.765625 398.046875 459.460938 398.382812 430.210938 C 398.382812 430.054688 398.3125 429.894531 398.183594 429.789062 C 398.066406 429.683594 397.902344 429.625 397.742188 429.65625 L 394.027344 430.269531 C 393.75 430.316406 393.550781 430.554688 393.566406 430.824219 C 393.941406 462.246094 411.78125 488.378906 435.050781 491.621094 C 436.191406 491.777344 437.371094 491.882812 438.523438 491.929688 C 451.261719 492.457031 463.519531 486.300781 473 474.589844 C 482.457031 462.925781 488.050781 447.140625 488.753906 430.132812 " fill-opacity="1" fill-rule="nonzero"/></svg>