<svg xmlns="http://www.w3.org/2000/svg" xmlns:xlink="http://www.w3.org/1999/xlink" width="1080" zoomAndPan="magnify" viewBox="0 0 810 809.999993" height="1080" preserveAspectRatio="xMidYMid meet" version="1.0"><defs><clipPath id="54b63b0f11"><path d="M 105.042969 214 L 409 214 L 409 517 L 105.042969 517 Z M 105.042969 214 " clip-rule="nonzero"/></clipPath><clipPath id="aa8dc6e3e4"><path d="M 452 378 L 705 378 L 705 629.660156 L 452 629.660156 Z M 452 378 " clip-rule="nonzero"/></clipPath><clipPath id="407346a177"><path d="M 577 499 L 705 499 L 705 629.660156 L 577 629.660156 Z M 577 499 " clip-rule="nonzero"/></clipPath><clipPath id="43a868d4ed"><path d="M 484 385 L 705 385 L 705 629.660156 L 484 629.660156 Z M 484 385 " clip-rule="nonzero"/></clipPath></defs><path fill="#9e3731" d="M 657.363281 201.75 C 636 180.386719 547.914062 184.558594 489.820312 240.957031 C 433.414062 299.046875 429.246094 387.136719 450.613281 408.496094 C 474.496094 432.378906 560.109375 425.746094 618.15625 369.300781 C 674.605469 311.253906 681.242188 225.640625 657.363281 201.75 " fill-opacity="1" fill-rule="nonzero"/><path fill="#d0d0d2" d="M 594.921875 190.796875 C 580.773438 192.546875 565.5 196.222656 550.179688 202.179688 L 656.933594 308.933594 C 663.082031 293.808594 666.953125 278.722656 668.804688 264.695312 L 594.921875 190.796875 " fill-opacity="1" fill-rule="nonzero"/><path fill="#d0d0d2" d="M 513.550781 419.949219 C 527.582031 418.089844 542.667969 414.21875 557.792969 408.070312 L 451.042969 301.320312 C 445.078125 316.636719 441.40625 331.917969 439.660156 346.050781 L 513.550781 419.949219 " fill-opacity="1" fill-rule="nonzero"/><path fill="#fcfcfe" d="M 560.613281 276.460938 C 557.363281 273.207031 557.363281 267.945312 560.613281 264.695312 C 563.859375 261.449219 569.128906 261.449219 572.375 264.695312 L 594.417969 286.738281 C 597.664062 289.984375 597.664062 295.253906 594.417969 298.503906 C 591.167969 301.75 585.898438 301.75 582.652344 298.503906 L 560.613281 276.460938 " fill-opacity="1" fill-rule="nonzero"/><path fill="#fcfcfe" d="M 548.851562 288.226562 C 545.597656 284.980469 545.597656 279.710938 548.851562 276.460938 C 552.101562 273.214844 557.363281 273.207031 560.613281 276.460938 L 582.652344 298.503906 C 585.898438 301.75 585.898438 307.019531 582.652344 310.261719 C 579.40625 313.515625 574.136719 313.515625 570.886719 310.261719 L 548.851562 288.226562 " fill-opacity="1" fill-rule="nonzero"/><path fill="#fcfcfe" d="M 537.085938 299.984375 C 533.839844 296.738281 533.839844 291.472656 537.085938 288.226562 C 540.328125 284.980469 545.597656 284.980469 548.851562 288.226562 L 570.886719 310.261719 C 574.136719 313.515625 574.136719 318.777344 570.886719 322.027344 C 567.640625 325.273438 562.375 325.273438 559.128906 322.027344 L 537.085938 299.984375 " fill-opacity="1" fill-rule="nonzero"/><path fill="#fcfcfe" d="M 525.316406 311.75 C 522.070312 308.507812 522.070312 303.238281 525.316406 299.984375 C 528.566406 296.738281 533.839844 296.738281 537.085938 299.984375 L 559.128906 322.027344 C 562.375 325.273438 562.375 330.550781 559.128906 333.796875 C 555.875 337.046875 550.605469 337.046875 547.359375 333.796875 L 525.316406 311.75 " fill-opacity="1" fill-rule="nonzero"/><path fill="#fcfcfe" d="M 513.558594 323.523438 C 510.304688 320.273438 510.308594 315 513.558594 311.75 C 516.804688 308.503906 522.070312 308.507812 525.316406 311.75 L 547.359375 333.796875 C 550.605469 337.046875 550.605469 342.308594 547.359375 345.5625 C 544.117188 348.804688 538.847656 348.804688 535.597656 345.554688 L 513.558594 323.523438 " fill-opacity="1" fill-rule="nonzero"/><path fill="#d3d2d2" d="M 644.128906 214.988281 C 644.128906 214.988281 643.464844 215.726562 642.21875 217.128906 C 640.96875 218.515625 639.167969 220.585938 636.8125 223.164062 C 632.121094 228.332031 625.394531 235.6875 617.195312 244.394531 C 613.101562 248.757812 608.675781 253.476562 603.921875 258.410156 C 599.191406 263.355469 594.214844 268.597656 588.988281 273.929688 C 583.757812 279.265625 578.429688 284.847656 572.890625 290.402344 C 567.371094 295.972656 561.761719 301.636719 556.148438 307.289062 C 550.492188 312.898438 544.832031 318.507812 539.265625 324.035156 C 533.71875 329.582031 528.132812 334.902344 522.796875 340.132812 C 517.464844 345.359375 512.230469 350.335938 507.277344 355.074219 C 502.34375 359.820312 497.625 364.253906 493.261719 368.34375 C 484.554688 376.539062 477.199219 383.269531 472.023438 387.957031 C 469.453125 390.308594 467.382812 392.113281 465.988281 393.363281 C 464.589844 394.601562 463.847656 395.265625 463.847656 395.265625 C 463.847656 395.265625 464.511719 394.523438 465.757812 393.128906 C 467.007812 391.738281 468.804688 389.667969 471.164062 387.089844 C 475.851562 381.914062 482.574219 374.566406 490.777344 365.855469 C 494.859375 361.488281 499.292969 356.769531 504.046875 351.84375 C 508.777344 346.890625 513.753906 341.652344 518.984375 336.320312 C 524.210938 330.984375 529.539062 325.394531 535.085938 319.847656 C 540.605469 314.28125 546.214844 308.621094 551.824219 302.964844 C 557.484375 297.355469 563.140625 291.75 568.710938 286.222656 C 574.265625 280.691406 579.847656 275.355469 585.183594 270.128906 C 590.519531 264.894531 595.757812 259.921875 600.703125 255.191406 C 605.636719 250.4375 610.359375 246.011719 614.71875 241.921875 C 623.425781 233.71875 630.785156 226.996094 635.949219 222.300781 C 638.527344 219.945312 640.59375 218.144531 641.984375 216.894531 C 643.386719 215.652344 644.128906 214.988281 644.128906 214.988281 " fill-opacity="1" fill-rule="nonzero"/><path fill="#b2b1b1" d="M 450.582031 408.464844 C 450.570312 408.453125 450.558594 408.449219 450.550781 408.4375 C 450.558594 408.441406 450.570312 408.453125 450.582031 408.464844 M 450.546875 408.429688 C 450.3125 408.199219 450.085938 407.953125 449.859375 407.699219 C 450.085938 407.953125 450.3125 408.199219 450.546875 408.429688 M 449.839844 407.683594 C 449.839844 407.683594 449.839844 407.683594 449.835938 407.675781 C 449.835938 407.683594 449.839844 407.683594 449.839844 407.683594 M 604.921875 380.972656 C 609.460938 377.347656 613.878906 373.457031 618.15625 369.300781 C 618.1875 369.273438 618.214844 369.246094 618.242188 369.21875 C 618.210938 369.246094 618.1875 369.273438 618.15625 369.300781 C 613.878906 373.457031 609.460938 377.347656 604.921875 380.972656 M 618.246094 369.210938 C 618.277344 369.183594 618.292969 369.15625 618.324219 369.132812 C 618.300781 369.15625 618.269531 369.1875 618.246094 369.210938 M 618.332031 369.128906 C 618.355469 369.097656 618.382812 369.074219 618.40625 369.042969 C 618.378906 369.074219 618.355469 369.097656 618.332031 369.128906 M 618.40625 369.042969 C 618.4375 369.015625 618.460938 368.992188 618.484375 368.960938 C 618.460938 368.992188 618.4375 369.015625 618.40625 369.042969 M 618.492188 368.960938 C 631.511719 355.496094 641.859375 340.574219 649.785156 325.285156 C 641.867188 340.566406 631.511719 355.496094 618.492188 368.960938 M 649.796875 325.273438 C 649.808594 325.25 649.820312 325.226562 649.832031 325.203125 C 649.820312 325.226562 649.808594 325.25 649.796875 325.273438 " fill-opacity="1" fill-rule="nonzero"/><path fill="#6e2520" d="M 483.910156 421.027344 C 469.1875 419.617188 457.40625 415.292969 450.613281 408.496094 C 450.601562 408.484375 450.585938 408.472656 450.582031 408.464844 C 450.570312 408.453125 450.558594 408.441406 450.550781 408.4375 C 450.550781 408.4375 450.550781 408.4375 450.546875 408.429688 C 450.3125 408.199219 450.085938 407.953125 449.859375 407.699219 C 449.851562 407.695312 449.847656 407.6875 449.839844 407.683594 C 449.839844 407.683594 449.835938 407.683594 449.835938 407.675781 C 449.828125 407.664062 449.816406 407.652344 449.804688 407.640625 C 448.789062 406.511719 447.835938 405.21875 446.953125 403.789062 C 460.269531 401.398438 472.617188 396.898438 483.914062 390.3125 L 499.589844 405.984375 C 496.320312 408.621094 493.1875 411.421875 490.195312 414.363281 C 489.945312 414.613281 489.691406 414.867188 489.441406 415.117188 C 487.535156 417.027344 485.683594 419 483.910156 421.027344 M 441.683594 390.859375 C 440.96875 388.140625 440.378906 385.222656 439.910156 382.132812 C 442.90625 380.359375 445.765625 378.394531 448.480469 376.246094 C 455.855469 377.589844 463.835938 378.417969 472.246094 378.644531 L 473.898438 380.296875 C 464.015625 385.550781 453.265625 389.082031 441.683594 390.859375 M 535.453125 385.730469 L 522.8125 373.09375 C 542.878906 368.183594 563.363281 359.871094 582.507812 347.386719 C 605.949219 331.148438 624.167969 310.523438 637.238281 289.238281 L 656.933594 308.933594 C 663.082031 293.808594 666.953125 278.722656 668.804688 264.695312 L 655.199219 251.082031 C 660.449219 235.371094 662.78125 220.550781 662.226562 208.234375 C 675.449219 230.8125 673.445312 279.59375 649.832031 325.203125 C 649.820312 325.226562 649.808594 325.25 649.796875 325.273438 C 649.792969 325.273438 649.792969 325.28125 649.785156 325.285156 C 641.859375 340.574219 631.511719 355.496094 618.492188 368.960938 L 618.484375 368.960938 C 618.460938 368.992188 618.4375 369.015625 618.40625 369.042969 C 618.382812 369.074219 618.355469 369.097656 618.332031 369.128906 C 618.324219 369.128906 618.324219 369.128906 618.324219 369.132812 C 618.292969 369.15625 618.277344 369.183594 618.246094 369.210938 L 618.242188 369.21875 C 618.214844 369.246094 618.1875 369.273438 618.15625 369.300781 C 613.878906 373.457031 609.460938 377.347656 604.921875 380.972656 C 596.386719 379.148438 587.539062 378.191406 578.460938 378.191406 C 563.355469 378.191406 548.871094 380.851562 535.453125 385.730469 " fill-opacity="1" fill-rule="nonzero"/><path fill="#949294" d="M 656.933594 308.933594 L 637.238281 289.238281 C 645.066406 276.492188 651.046875 263.511719 655.199219 251.082031 L 668.804688 264.695312 C 666.953125 278.722656 663.082031 293.808594 656.933594 308.933594 " fill-opacity="1" fill-rule="nonzero"/><path fill="#949294" d="M 499.589844 405.984375 L 483.914062 390.3125 C 490.367188 386.550781 496.480469 382.105469 502.246094 376.988281 C 509.007812 376.074219 515.882812 374.785156 522.8125 373.09375 L 535.453125 385.730469 C 522.339844 390.503906 510.25 397.394531 499.589844 405.984375 M 473.898438 380.296875 L 472.246094 378.644531 C 473.734375 378.6875 475.234375 378.710938 476.75 378.710938 C 475.804688 379.253906 474.851562 379.78125 473.898438 380.296875 " fill-opacity="1" fill-rule="nonzero"/><path fill="#c68878" d="M 498.558594 239.550781 C 514.746094 225.945312 532.847656 216.1875 550.625 209.765625 C 550.492188 212.753906 550.289062 216.433594 549.960938 220.679688 C 532.761719 223.976562 515.167969 230.003906 498.558594 239.550781 M 651.449219 236.847656 C 647.363281 232.875 641.386719 229.265625 633.984375 226.273438 C 634.992188 225.160156 635.9375 224.125 636.8125 223.164062 C 639.167969 220.585938 640.96875 218.515625 642.21875 217.128906 C 643.082031 216.160156 643.660156 215.507812 643.941406 215.195312 C 647.476562 220.746094 650.023438 228.15625 651.449219 236.847656 M 632.3125 225.617188 C 631.015625 225.117188 629.683594 224.640625 628.308594 224.1875 L 604.023438 199.902344 C 620.054688 200.015625 632.8125 203.46875 639.332031 209.5625 C 641.011719 211.121094 642.542969 213.007812 643.925781 215.171875 C 643.613281 215.441406 642.960938 216.027344 641.984375 216.894531 C 640.59375 218.144531 638.527344 219.945312 635.949219 222.300781 C 634.839844 223.3125 633.625 224.417969 632.3125 225.617188 M 563.835938 218.59375 C 563.890625 217.695312 563.945312 216.828125 563.992188 215.992188 L 566.335938 218.335938 C 565.503906 218.414062 564.667969 218.503906 563.835938 218.59375 " fill-opacity="1" fill-rule="nonzero"/><path fill="#e7e6e8" d="M 628.308594 224.1875 C 615.847656 220.054688 600.25 217.523438 583.167969 217.523438 C 577.695312 217.523438 572.058594 217.785156 566.335938 218.335938 L 563.992188 215.992188 C 564.242188 211.578125 564.355469 207.984375 564.402344 205.410156 C 578.285156 201.648438 591.605469 199.902344 603.246094 199.902344 C 603.503906 199.902344 603.765625 199.902344 604.023438 199.902344 L 628.308594 224.1875 " fill-opacity="1" fill-rule="nonzero"/><path fill="#e8e8e9" d="M 633.984375 226.273438 C 633.433594 226.046875 632.875 225.832031 632.3125 225.617188 C 633.625 224.417969 634.839844 223.3125 635.949219 222.300781 C 638.527344 219.945312 640.59375 218.144531 641.984375 216.894531 C 642.960938 216.027344 643.613281 215.441406 643.925781 215.171875 C 643.929688 215.179688 643.9375 215.191406 643.941406 215.195312 C 643.660156 215.507812 643.082031 216.160156 642.21875 217.128906 C 640.96875 218.515625 639.167969 220.585938 636.8125 223.164062 C 635.9375 224.125 634.992188 225.160156 633.984375 226.273438 " fill-opacity="1" fill-rule="nonzero"/><g clip-path="url(#54b63b0f11)"><path fill="#f25738" d="M 408.425781 365.683594 C 408.425781 449.234375 340.6875 516.964844 257.144531 516.964844 C 173.597656 516.964844 105.867188 449.234375 105.867188 365.683594 C 105.867188 282.132812 173.597656 214.402344 257.144531 214.402344 C 340.6875 214.402344 408.425781 282.132812 408.425781 365.683594 " fill-opacity="1" fill-rule="nonzero"/></g><path fill="#712616" d="M 291.488281 512.8125 C 291.488281 512.8125 289.832031 512.867188 286.738281 512.96875 C 283.648438 513.019531 279.035156 512.929688 273.238281 512.222656 C 267.460938 511.410156 260.425781 510.046875 252.695312 507.269531 C 244.960938 504.546875 236.496094 500.527344 228.070312 494.847656 C 219.570312 489.253906 211.207031 481.921875 203.488281 473.160156 C 195.792969 464.382812 188.714844 454.167969 182.996094 442.769531 C 177.269531 431.378906 172.546875 418.976562 169.597656 405.902344 L 169.015625 403.460938 L 168.53125 400.984375 C 168.210938 399.332031 167.894531 397.683594 167.574219 396.03125 C 167.101562 392.695312 166.46875 389.367188 166.164062 385.996094 C 165.304688 379.277344 165.0625 372.472656 164.925781 365.683594 L 165.046875 360.617188 L 165.113281 358.148438 L 165.273438 355.574219 L 165.613281 350.425781 L 166.15625 345.363281 C 166.464844 341.992188 167.097656 338.664062 167.570312 335.328125 C 167.886719 333.671875 168.203125 332.019531 168.527344 330.371094 L 169.011719 327.90625 L 169.589844 325.460938 C 172.515625 312.378906 177.265625 299.980469 182.984375 288.589844 C 188.707031 277.191406 195.769531 266.964844 203.476562 258.195312 C 211.203125 249.433594 219.558594 242.09375 228.058594 236.5 C 236.496094 230.824219 244.953125 226.800781 252.695312 224.078125 C 260.425781 221.308594 267.460938 219.9375 273.238281 219.132812 C 279.046875 218.425781 283.628906 218.335938 286.726562 218.390625 C 289.832031 218.492188 291.488281 218.550781 291.488281 218.550781 C 291.488281 218.550781 289.84375 218.707031 286.761719 219 C 283.6875 219.292969 279.203125 220.003906 273.621094 221.230469 C 268.058594 222.59375 261.425781 224.652344 254.21875 227.882812 C 247.023438 231.136719 239.320312 235.644531 231.644531 241.5 C 229.703125 242.925781 227.878906 244.59375 225.933594 246.167969 C 224.105469 247.882812 222.164062 249.546875 220.355469 251.414062 C 218.542969 253.273438 216.652344 255.101562 214.894531 257.128906 C 213.054688 259.082031 211.359375 261.203125 209.605469 263.332031 C 206.203125 267.664062 202.882812 272.25 199.902344 277.214844 C 198.355469 279.648438 196.960938 282.222656 195.496094 284.78125 C 194.75 286.050781 194.132812 287.402344 193.445312 288.71875 C 192.773438 290.050781 192.058594 291.359375 191.457031 292.738281 C 188.875 298.15625 186.667969 303.863281 184.644531 309.691406 C 184.160156 311.160156 183.730469 312.648438 183.265625 314.132812 C 182.792969 315.609375 182.34375 317.097656 181.972656 318.617188 C 181.566406 320.125 181.152344 321.632812 180.734375 323.144531 C 180.386719 324.675781 180.035156 326.207031 179.679688 327.746094 L 179.15625 330.046875 L 178.722656 332.378906 C 178.4375 333.933594 178.148438 335.496094 177.863281 337.058594 C 177.460938 340.203125 176.882812 343.335938 176.632812 346.519531 L 176.164062 351.285156 L 175.894531 356.003906 C 175.648438 359.039062 175.738281 362.652344 175.636719 365.683594 C 175.714844 372.082031 175.871094 378.5 176.625 384.839844 C 176.875 388.023438 177.457031 391.15625 177.863281 394.304688 C 178.148438 395.871094 178.429688 397.425781 178.71875 398.980469 L 179.148438 401.3125 L 179.675781 403.617188 C 180.027344 405.152344 180.382812 406.683594 180.726562 408.214844 C 181.140625 409.726562 181.554688 411.242188 181.960938 412.742188 C 182.332031 414.261719 182.78125 415.757812 183.253906 417.234375 C 183.710938 418.71875 184.148438 420.203125 184.640625 421.671875 C 186.65625 427.503906 188.863281 433.203125 191.445312 438.625 C 194.023438 444.042969 196.839844 449.253906 199.886719 454.164062 C 202.871094 459.113281 206.191406 463.707031 209.597656 468.039062 C 211.347656 470.164062 213.042969 472.292969 214.882812 474.234375 C 216.640625 476.261719 218.53125 478.105469 220.339844 479.964844 C 222.152344 481.824219 224.09375 483.484375 225.921875 485.207031 C 227.867188 486.777344 229.695312 488.445312 231.640625 489.871094 C 239.3125 495.71875 247.019531 500.242188 254.214844 503.488281 C 261.425781 506.714844 268.058594 508.777344 273.621094 510.136719 C 279.214844 511.355469 283.660156 512.066406 286.757812 512.359375 C 289.84375 512.652344 291.488281 512.8125 291.488281 512.8125 " fill-opacity="1" fill-rule="nonzero"/><path fill="#712616" d="M 118.53125 426.296875 L 123.523438 427.605469 L 126.011719 428.277344 L 128.523438 428.820312 L 133.507812 429.945312 L 138.542969 430.847656 C 141.878906 431.5 145.273438 431.882812 148.628906 432.386719 C 151.996094 432.804688 155.378906 433.078125 158.746094 433.382812 C 162.140625 433.535156 165.5 433.875 168.886719 433.929688 C 172.277344 433.953125 175.644531 434.15625 179.03125 434.011719 L 184.09375 433.90625 L 185.363281 433.898438 L 185.679688 433.890625 L 185.925781 433.878906 L 186.570312 433.84375 L 189.136719 433.71875 L 194.28125 433.46875 C 195.992188 433.378906 197.632812 433.199219 199.304688 433.066406 L 204.3125 432.628906 L 209.34375 432.027344 C 211.015625 431.800781 212.699219 431.667969 214.367188 431.421875 L 219.378906 430.691406 C 226.054688 429.707031 232.703125 428.503906 239.308594 427.128906 C 242.621094 426.488281 245.894531 425.636719 249.1875 424.921875 C 252.480469 424.179688 255.734375 423.265625 259.003906 422.4375 L 268.753906 419.710938 L 278.417969 416.691406 C 281.605469 415.589844 284.824219 414.566406 288 413.429688 C 291.160156 412.242188 294.359375 411.152344 297.480469 409.882812 C 303.773438 407.449219 310.003906 404.867188 316.125 402.035156 L 320.730469 399.941406 L 325.265625 397.710938 C 328.308594 396.257812 331.261719 394.648438 334.253906 393.09375 C 337.25 391.550781 340.128906 389.8125 343.074219 388.179688 C 345.945312 386.433594 348.882812 384.769531 351.695312 382.925781 C 357.375 379.324219 362.8125 375.378906 368.09375 371.238281 C 373.292969 367.023438 378.417969 362.636719 382.886719 357.667969 C 387.445312 352.789062 391.558594 347.464844 394.820312 341.609375 C 398.089844 335.777344 400.398438 329.304688 400.972656 322.445312 L 400.972656 322.4375 L 401.015625 322.375 L 401.9375 321.816406 L 401.117188 322.523438 L 401.160156 322.445312 L 401.226562 327.644531 L 400.613281 332.847656 L 399.371094 337.953125 C 398.851562 339.628906 398.210938 341.269531 397.628906 342.9375 C 394.976562 349.46875 391.195312 355.484375 386.988281 361.125 C 382.726562 366.742188 377.789062 371.761719 372.722656 376.617188 C 370.140625 378.980469 367.515625 381.316406 364.757812 383.476562 C 362.066406 385.71875 359.25 387.789062 356.4375 389.871094 C 353.632812 391.964844 350.703125 393.871094 347.832031 395.863281 C 344.859375 397.6875 341.9375 399.625 338.914062 401.359375 C 335.890625 403.105469 332.890625 404.894531 329.785156 406.488281 L 325.164062 408.9375 L 320.472656 411.253906 C 314.222656 414.339844 307.816406 417.097656 301.375 419.742188 C 298.152344 421.070312 294.863281 422.21875 291.609375 423.460938 C 288.335938 424.652344 285.027344 425.746094 281.734375 426.882812 L 271.742188 429.933594 C 268.382812 430.835938 265.039062 431.824219 261.664062 432.660156 C 254.894531 434.3125 248.105469 435.859375 241.238281 437.070312 C 234.386719 438.28125 227.496094 439.339844 220.5625 440.023438 C 217.09375 440.386719 213.636719 440.757812 210.15625 440.921875 L 204.933594 441.238281 L 199.671875 441.367188 C 197.925781 441.40625 196.148438 441.488281 194.425781 441.476562 L 189.289062 441.417969 L 186.710938 441.386719 L 186.070312 441.375 L 185.675781 441.367188 L 185.347656 441.355469 L 184.046875 441.292969 L 178.828125 440.980469 C 171.875 440.527344 164.957031 439.671875 158.101562 438.5625 C 154.6875 437.882812 151.269531 437.234375 147.890625 436.441406 C 144.53125 435.554688 141.140625 434.847656 137.855469 433.714844 C 131.199219 431.792969 124.761719 429.144531 118.53125 426.296875 " fill-opacity="1" fill-rule="nonzero"/><path fill="#712616" d="M 352.488281 248.234375 L 344.425781 247.609375 C 341.742188 247.445312 339.0625 247.398438 336.402344 247.253906 C 334.679688 247.203125 332.949219 247.214844 331.226562 247.226562 C 330.277344 247.230469 329.332031 247.238281 328.386719 247.230469 C 325.722656 247.316406 323.070312 247.507812 320.417969 247.609375 C 317.78125 247.890625 315.136719 248.09375 312.53125 248.46875 C 309.933594 248.941406 307.3125 249.230469 304.773438 249.898438 L 300.949219 250.761719 L 297.199219 251.859375 L 295.328125 252.410156 L 293.507812 253.09375 C 292.300781 253.546875 291.074219 253.972656 289.878906 254.457031 C 285.125 256.476562 280.648438 259.003906 276.433594 261.84375 C 272.269531 264.785156 268.464844 268.175781 265.046875 271.921875 C 261.582031 275.640625 258.691406 279.875 256.027344 284.226562 C 253.347656 288.574219 251.050781 293.183594 249.09375 297.976562 C 247.125 302.753906 245.386719 307.652344 243.957031 312.691406 C 242.53125 317.71875 241.167969 322.78125 240.042969 327.9375 C 238.90625 333.089844 237.898438 338.289062 236.980469 343.535156 L 236.3125 347.46875 L 236.144531 348.457031 L 236 349.179688 L 235.898438 349.675781 L 235.484375 351.652344 C 235.382812 352.253906 235.132812 353.070312 234.894531 353.851562 L 234.171875 356.195312 C 233.570312 357.65625 233.046875 359.109375 232.316406 360.496094 C 231.59375 361.898438 230.84375 363.277344 229.910156 364.550781 C 229.066406 365.886719 228.023438 367.066406 227.023438 368.277344 C 224.886719 370.5625 222.578125 372.71875 220.007812 374.402344 C 217.464844 376.136719 214.785156 377.609375 212.027344 378.75 C 209.277344 379.949219 206.464844 380.871094 203.640625 381.585938 C 197.984375 383.035156 192.273438 383.765625 186.601562 383.9375 C 183.765625 384.015625 180.9375 383.980469 178.121094 383.824219 C 175.261719 383.65625 172.570312 383.433594 169.539062 382.96875 L 170.828125 382.992188 C 169.84375 383.078125 169.167969 383.09375 168.371094 383.105469 C 167.613281 383.117188 166.851562 383.105469 166.105469 383.078125 C 164.601562 383.027344 163.121094 382.898438 161.636719 382.730469 C 158.675781 382.371094 155.746094 381.75 152.875 380.882812 C 149.984375 380.0625 147.203125 378.824219 144.535156 377.386719 C 143.21875 376.628906 141.90625 375.882812 140.683594 374.964844 C 139.402344 374.132812 138.253906 373.128906 137.101562 372.148438 C 135.933594 371.171875 134.9375 370.011719 133.859375 368.953125 C 132.914062 367.769531 131.910156 366.628906 131.046875 365.394531 C 129.332031 362.917969 127.859375 360.3125 126.683594 357.601562 C 126.15625 356.226562 125.496094 354.886719 125.097656 353.488281 C 124.691406 352.085938 124.246094 350.695312 123.902344 349.289062 L 123.058594 345.042969 C 122.8125 343.628906 122.710938 342.207031 122.53125 340.796875 C 122.328125 339.378906 122.269531 337.960938 122.226562 336.546875 C 122.191406 335.144531 122.078125 333.730469 122.113281 332.324219 C 122.230469 329.519531 122.183594 326.710938 122.539062 323.945312 L 122.972656 319.800781 C 123.160156 318.425781 123.410156 317.0625 123.625 315.691406 C 123.851562 314.328125 124.050781 312.957031 124.3125 311.605469 L 125.1875 307.570312 C 125.484375 306.222656 125.753906 304.871094 126.078125 303.539062 L 127.171875 299.566406 L 128.273438 295.605469 C 128.667969 294.296875 129.109375 293 129.523438 291.695312 C 130.382812 289.09375 131.148438 286.472656 132.171875 283.9375 L 135.085938 276.292969 L 133.230469 284.25 C 132.566406 286.886719 132.125 289.574219 131.542969 292.214844 C 131.28125 293.542969 130.988281 294.871094 130.742188 296.199219 L 130.097656 300.207031 L 129.445312 304.203125 C 129.25 305.535156 129.109375 306.875 128.9375 308.210938 L 128.445312 312.210938 C 128.316406 313.550781 128.25 314.882812 128.148438 316.21875 C 128.058594 317.550781 127.9375 318.886719 127.878906 320.21875 L 127.832031 324.214844 C 127.699219 326.871094 127.925781 329.507812 128.003906 332.140625 C 128.0625 333.457031 128.273438 334.753906 128.394531 336.050781 C 128.523438 337.355469 128.667969 338.648438 128.949219 339.921875 C 129.207031 341.191406 129.386719 342.476562 129.703125 343.71875 L 130.714844 347.417969 C 131.109375 348.625 131.59375 349.796875 132.003906 350.980469 C 132.414062 352.175781 133.039062 353.261719 133.53125 354.410156 C 134.636719 356.632812 135.964844 358.703125 137.449219 360.621094 C 138.191406 361.585938 139.050781 362.441406 139.835938 363.351562 C 140.75 364.132812 141.570312 365.019531 142.53125 365.742188 C 143.488281 366.464844 144.421875 367.214844 145.46875 367.8125 C 146.457031 368.488281 147.542969 369.015625 148.617188 369.566406 C 150.796875 370.570312 153.046875 371.472656 155.410156 372.078125 C 157.765625 372.703125 160.1875 373.148438 162.636719 373.363281 C 163.859375 373.464844 165.085938 373.535156 166.300781 373.535156 C 166.910156 373.535156 167.515625 373.53125 168.113281 373.5 C 168.675781 373.484375 169.359375 373.421875 169.730469 373.378906 C 170.09375 373.339844 170.453125 373.339844 170.800781 373.378906 L 171.019531 373.410156 C 173.316406 373.6875 175.996094 373.847656 178.515625 373.90625 C 181.0625 373.96875 183.617188 373.917969 186.160156 373.761719 C 191.226562 373.464844 196.25 372.824219 201 371.527344 C 203.375 370.898438 205.683594 370.113281 207.859375 369.140625 C 210.058594 368.199219 212.101562 367.035156 213.984375 365.71875 C 215.914062 364.445312 217.523438 362.855469 219.050781 361.222656 C 220.496094 359.515625 221.753906 357.667969 222.765625 355.671875 C 223.300781 354.691406 223.683594 353.59375 224.140625 352.578125 L 224.625 351.078125 C 224.792969 350.582031 224.972656 350.125 225.101562 349.402344 L 225.539062 347.433594 L 225.648438 346.9375 L 225.699219 346.691406 C 225.726562 346.566406 225.707031 346.65625 225.695312 346.753906 C 225.675781 346.816406 225.664062 346.890625 225.671875 346.859375 L 225.683594 346.800781 L 225.699219 346.675781 L 225.886719 345.667969 L 226.609375 341.664062 C 227.601562 336.320312 228.691406 330.96875 229.929688 325.632812 C 231.171875 320.292969 232.585938 314.960938 234.300781 309.703125 C 235.984375 304.4375 238.003906 299.238281 240.289062 294.140625 C 242.5625 289.046875 245.230469 284.074219 248.332031 279.355469 C 251.457031 274.660156 254.960938 270.164062 259.027344 266.179688 C 263.070312 262.191406 267.527344 258.613281 272.332031 255.585938 C 277.175781 252.636719 282.34375 250.304688 287.636719 248.46875 C 288.964844 248.03125 290.316406 247.667969 291.648438 247.265625 L 293.660156 246.6875 L 295.699219 246.234375 L 299.773438 245.351562 L 303.875 244.753906 C 306.609375 244.300781 309.367188 244.242188 312.097656 244.007812 C 314.84375 243.859375 317.582031 243.898438 320.316406 243.851562 C 323.042969 243.976562 325.765625 244.054688 328.476562 244.289062 C 331.179688 244.601562 333.882812 244.820312 336.574219 245.203125 C 339.253906 245.628906 341.9375 246.015625 344.582031 246.53125 L 352.488281 248.234375 " fill-opacity="1" fill-rule="nonzero"/><path fill="#a93b25" d="M 375.863281 392.1875 C 370.445312 392.097656 365.183594 391.664062 360.074219 390.894531 C 360.894531 389.070312 361.675781 387.222656 362.425781 385.359375 C 363.144531 384.800781 363.855469 384.226562 364.554688 383.644531 C 368.160156 385.582031 371.933594 387.246094 375.851562 388.597656 L 375.863281 392.1875 " fill-opacity="1" fill-rule="nonzero"/><path fill="#541b0f" d="M 362.425781 385.359375 C 362.742188 384.570312 363.054688 383.78125 363.359375 382.988281 C 363.753906 383.207031 364.152344 383.429688 364.554688 383.644531 C 363.855469 384.226562 363.144531 384.800781 362.425781 385.359375 " fill-opacity="1" fill-rule="nonzero"/><path fill="#a93b25" d="M 244.925781 513.472656 C 241.40625 508.113281 236.953125 503.246094 231.59375 499.105469 C 220.839844 490.808594 208.132812 486.796875 195.527344 486.796875 C 187.761719 486.796875 180.039062 488.316406 172.832031 491.300781 C 156.730469 480.472656 142.832031 466.632812 131.933594 450.59375 C 154.027344 466.980469 180.734375 477.5 209.761719 479.828125 C 215.652344 485.691406 221.824219 490.738281 228.070312 494.847656 C 235.894531 500.117188 243.734375 503.960938 251.007812 506.660156 C 248.90625 508.679688 246.929688 510.875 245.097656 513.257812 C 245.039062 513.328125 244.984375 513.402344 244.925781 513.472656 M 254.457031 503.597656 C 254.375 503.5625 254.296875 503.527344 254.214844 503.488281 C 247.019531 500.242188 239.3125 495.71875 231.640625 489.871094 C 229.695312 488.445312 227.867188 486.777344 225.921875 485.207031 C 224.207031 483.589844 222.394531 482.027344 220.683594 480.304688 C 221.113281 480.3125 221.542969 480.3125 221.972656 480.3125 C 278.40625 480.3125 327.625 449.40625 353.632812 403.609375 C 360.773438 404.949219 368.203125 405.679688 375.90625 405.792969 L 376.042969 453.378906 L 365.566406 453.378906 L 365.566406 471.183594 C 361.945312 474.90625 358.136719 478.433594 354.152344 481.765625 L 343.507812 481.765625 L 343.507812 489.90625 C 337.769531 493.894531 331.753906 497.503906 325.480469 500.683594 C 315.289062 493.652344 303.582031 490.234375 291.953125 490.234375 C 278.519531 490.234375 265.195312 494.792969 254.457031 503.597656 " fill-opacity="1" fill-rule="nonzero"/><path fill="#541b0f" d="M 251.007812 506.660156 C 243.734375 503.960938 235.894531 500.117188 228.070312 494.847656 C 221.824219 490.738281 215.652344 485.691406 209.761719 479.828125 C 213.367188 480.113281 217.003906 480.277344 220.683594 480.304688 C 222.394531 482.027344 224.207031 483.589844 225.921875 485.207031 C 227.867188 486.777344 229.695312 488.445312 231.640625 489.871094 C 239.3125 495.71875 247.019531 500.242188 254.214844 503.488281 C 254.296875 503.527344 254.375 503.5625 254.457031 503.597656 C 253.273438 504.566406 252.125 505.589844 251.007812 506.660156 " fill-opacity="1" fill-rule="nonzero"/><path fill="#f47552" d="M 136.1875 382.96875 C 133.855469 382.96875 131.324219 381.964844 128.496094 379.761719 C 114.921875 369.234375 113.636719 346.316406 122.894531 320.542969 L 122.539062 323.945312 C 122.183594 326.710938 122.230469 329.519531 122.113281 332.324219 C 122.078125 333.730469 122.191406 335.144531 122.226562 336.546875 C 122.269531 337.960938 122.328125 339.378906 122.53125 340.796875 C 122.710938 342.207031 122.8125 343.628906 123.058594 345.042969 L 123.902344 349.289062 C 124.246094 350.695312 124.691406 352.085938 125.097656 353.488281 C 125.496094 354.886719 126.15625 356.226562 126.683594 357.601562 C 127.859375 360.3125 129.332031 362.917969 131.046875 365.394531 C 131.910156 366.628906 132.914062 367.769531 133.859375 368.953125 C 134.9375 370.011719 135.933594 371.171875 137.101562 372.148438 C 138.253906 373.128906 139.402344 374.132812 140.683594 374.964844 C 141.90625 375.882812 143.21875 376.628906 144.535156 377.386719 C 144.703125 377.476562 144.863281 377.566406 145.03125 377.652344 C 142.269531 381.035156 139.417969 382.96875 136.1875 382.96875 M 149.9375 370.15625 C 149.496094 369.964844 149.050781 369.769531 148.617188 369.566406 C 147.542969 369.015625 146.457031 368.488281 145.46875 367.8125 C 144.421875 367.214844 143.488281 366.464844 142.53125 365.742188 C 141.570312 365.019531 140.75 364.132812 139.835938 363.351562 C 139.050781 362.441406 138.191406 361.585938 137.449219 360.621094 C 135.964844 358.703125 134.636719 356.632812 133.53125 354.410156 C 133.039062 353.261719 132.414062 352.175781 132.003906 350.980469 C 131.59375 349.796875 131.109375 348.625 130.714844 347.417969 L 129.703125 343.71875 C 129.386719 342.476562 129.207031 341.191406 128.949219 339.921875 C 128.667969 338.648438 128.523438 337.355469 128.394531 336.050781 C 128.273438 334.753906 128.0625 333.457031 128.003906 332.140625 C 127.925781 329.507812 127.699219 326.871094 127.832031 324.214844 L 127.878906 320.21875 C 127.9375 318.886719 128.058594 317.550781 128.148438 316.21875 C 128.25 314.882812 128.316406 313.550781 128.445312 312.210938 L 128.9375 308.210938 C 129.042969 307.390625 129.132812 306.570312 129.234375 305.746094 C 133.917969 296.332031 139.882812 286.785156 147.058594 277.53125 C 170.78125 246.96875 200.898438 228.410156 223.175781 228.410156 C 228.125 228.410156 232.6875 229.328125 236.707031 231.230469 C 233.839844 232.804688 230.945312 234.550781 228.058594 236.5 C 219.558594 242.09375 211.203125 249.433594 203.476562 258.195312 C 195.769531 266.964844 188.707031 277.191406 182.984375 288.589844 C 177.265625 299.980469 172.515625 312.378906 169.589844 325.460938 L 169.011719 327.90625 L 168.527344 330.371094 C 168.292969 331.566406 168.066406 332.757812 167.832031 333.953125 C 160.398438 347.941406 155.03125 361.035156 149.9375 370.15625 M 186.160156 305.457031 C 187.769531 301.097656 189.507812 296.839844 191.457031 292.738281 C 192.058594 291.359375 192.773438 290.050781 193.445312 288.71875 C 194.132812 287.402344 194.75 286.050781 195.496094 284.78125 C 196.960938 282.222656 198.355469 279.648438 199.902344 277.214844 C 202.882812 272.25 206.203125 267.664062 209.605469 263.332031 C 211.359375 261.203125 213.054688 259.082031 214.894531 257.128906 C 216.652344 255.101562 218.542969 253.273438 220.355469 251.414062 C 222.164062 249.546875 224.105469 247.882812 225.933594 246.167969 C 227.878906 244.59375 229.703125 242.925781 231.644531 241.5 C 234.1875 239.5625 236.734375 237.769531 239.265625 236.117188 C 239.859375 241.394531 240.617188 247.101562 241.582031 253.105469 C 230.929688 265.234375 205.824219 280.773438 186.160156 305.457031 " fill-opacity="1" fill-rule="nonzero"/><path fill="#8b412c" d="M 167.832031 333.953125 C 168.066406 332.757812 168.292969 331.566406 168.527344 330.371094 L 169.011719 327.90625 L 169.589844 325.460938 C 172.515625 312.378906 177.265625 299.980469 182.984375 288.589844 C 188.707031 277.191406 195.769531 266.964844 203.476562 258.195312 C 211.203125 249.433594 219.558594 242.09375 228.058594 236.5 C 230.945312 234.550781 233.839844 232.804688 236.707031 231.230469 C 237.449219 231.578125 238.160156 231.960938 238.859375 232.375 C 238.984375 233.601562 239.121094 234.84375 239.265625 236.117188 C 236.734375 237.769531 234.1875 239.5625 231.644531 241.5 C 229.703125 242.925781 227.878906 244.59375 225.933594 246.167969 C 224.105469 247.882812 222.164062 249.546875 220.355469 251.414062 C 218.542969 253.273438 216.652344 255.101562 214.894531 257.128906 C 213.054688 259.082031 211.359375 261.203125 209.605469 263.332031 C 206.203125 267.664062 202.882812 272.25 199.902344 277.214844 C 198.355469 279.648438 196.960938 282.222656 195.496094 284.78125 C 194.75 286.050781 194.132812 287.402344 193.445312 288.71875 C 192.773438 290.050781 192.058594 291.359375 191.457031 292.738281 C 189.507812 296.839844 187.769531 301.097656 186.160156 305.457031 C 185.765625 305.953125 185.375 306.453125 184.988281 306.953125 C 178.121094 315.800781 172.558594 325.058594 167.832031 333.953125 " fill-opacity="1" fill-rule="nonzero"/><path fill="#8b412c" d="M 145.03125 377.652344 C 144.863281 377.566406 144.703125 377.476562 144.535156 377.386719 C 143.21875 376.628906 141.90625 375.882812 140.683594 374.964844 C 139.402344 374.132812 138.253906 373.128906 137.101562 372.148438 C 135.933594 371.171875 134.9375 370.011719 133.859375 368.953125 C 132.914062 367.769531 131.910156 366.628906 131.046875 365.394531 C 129.332031 362.917969 127.859375 360.3125 126.683594 357.601562 C 126.15625 356.226562 125.496094 354.886719 125.097656 353.488281 C 124.691406 352.085938 124.246094 350.695312 123.902344 349.289062 L 123.058594 345.042969 C 122.8125 343.628906 122.710938 342.207031 122.53125 340.796875 C 122.328125 339.378906 122.269531 337.960938 122.226562 336.546875 C 122.191406 335.144531 122.078125 333.730469 122.113281 332.324219 C 122.230469 329.519531 122.183594 326.710938 122.539062 323.945312 L 122.894531 320.542969 C 124.644531 315.691406 126.761719 310.738281 129.234375 305.746094 C 129.132812 306.570312 129.042969 307.390625 128.9375 308.210938 L 128.445312 312.210938 C 128.316406 313.550781 128.25 314.882812 128.148438 316.21875 C 128.058594 317.550781 127.9375 318.886719 127.878906 320.21875 L 127.832031 324.214844 C 127.699219 326.871094 127.925781 329.507812 128.003906 332.140625 C 128.0625 333.457031 128.273438 334.753906 128.394531 336.050781 C 128.523438 337.355469 128.667969 338.648438 128.949219 339.921875 C 129.207031 341.191406 129.386719 342.476562 129.703125 343.71875 L 130.714844 347.417969 C 131.109375 348.625 131.59375 349.796875 132.003906 350.980469 C 132.414062 352.175781 133.039062 353.261719 133.53125 354.410156 C 134.636719 356.632812 135.964844 358.703125 137.449219 360.621094 C 138.191406 361.585938 139.050781 362.441406 139.835938 363.351562 C 140.75 364.132812 141.570312 365.019531 142.53125 365.742188 C 143.488281 366.464844 144.421875 367.214844 145.46875 367.8125 C 146.457031 368.488281 147.542969 369.015625 148.617188 369.566406 C 149.050781 369.769531 149.496094 369.964844 149.9375 370.15625 C 148.292969 373.105469 146.675781 375.636719 145.03125 377.652344 " fill-opacity="1" fill-rule="nonzero"/><g clip-path="url(#aa8dc6e3e4)"><path fill="#d0d0d2" d="M 704.226562 503.949219 C 704.226562 573.402344 647.917969 629.710938 578.460938 629.710938 C 509.007812 629.710938 452.699219 573.402344 452.699219 503.949219 C 452.699219 434.492188 509.007812 378.191406 578.460938 378.191406 C 647.917969 378.191406 704.226562 434.492188 704.226562 503.949219 " fill-opacity="1" fill-rule="nonzero"/></g><path fill="#131113" d="M 621.929688 579.359375 C 616.238281 568.972656 609.785156 557.21875 602.855469 544.632812 C 610.304688 531.828125 617.761719 518.4375 624.796875 505.25 C 638.785156 505.230469 652.046875 505.210938 663.882812 505.183594 C 669.796875 517.699219 674.960938 529.730469 679.328125 540.820312 C 673.417969 552.953125 666.671875 565.097656 659.378906 576.3125 C 647.804688 577.652344 635.148438 578.667969 621.929688 579.359375 M 597.378906 608.894531 C 584.859375 609.1875 572.191406 609.1875 559.671875 608.894531 C 552.699219 601.246094 545.191406 591.53125 537.625 580.546875 C 543.375 570.214844 549.886719 558.480469 556.84375 545.925781 C 571.191406 546.128906 585.871094 546.128906 600.21875 545.925781 C 607.175781 558.480469 613.683594 570.203125 619.425781 580.535156 C 611.871094 591.527344 604.359375 601.246094 597.378906 608.894531 M 497.933594 576.363281 C 490.636719 565.136719 483.867188 553.003906 477.941406 540.855469 C 482.328125 529.753906 487.515625 517.714844 493.449219 505.183594 C 505.308594 505.210938 518.59375 505.230469 532.597656 505.25 C 539.640625 518.4375 547.101562 531.839844 554.546875 544.644531 C 547.621094 557.226562 541.144531 568.988281 535.441406 579.378906 C 522.207031 578.703125 509.53125 577.691406 497.933594 576.363281 M 497.933594 431.53125 C 509.53125 430.203125 522.207031 429.191406 535.441406 428.515625 C 541.144531 438.90625 547.621094 450.675781 554.546875 463.25 C 547.101562 476.058594 539.640625 489.457031 532.597656 502.644531 C 518.59375 502.664062 505.308594 502.683594 493.449219 502.710938 C 487.515625 490.179688 482.328125 478.136719 477.941406 467.039062 C 483.867188 454.890625 490.636719 442.75 497.933594 431.53125 M 559.671875 399.003906 C 572.191406 398.699219 584.859375 398.699219 597.378906 399.003906 C 604.359375 406.648438 611.871094 416.363281 619.425781 427.355469 C 613.683594 437.683594 607.175781 449.414062 600.21875 461.972656 C 585.871094 461.765625 571.191406 461.765625 556.84375 461.96875 C 549.886719 449.40625 543.375 437.679688 537.625 427.347656 C 545.191406 416.363281 552.699219 406.648438 559.671875 399.003906 M 659.378906 431.578125 C 666.671875 442.792969 673.417969 454.933594 679.328125 467.078125 C 674.960938 478.164062 669.792969 490.195312 663.882812 502.710938 C 652.046875 502.683594 638.785156 502.664062 624.796875 502.644531 C 617.761719 489.464844 610.304688 476.066406 602.855469 463.261719 C 609.785156 450.683594 616.238281 438.921875 621.929688 428.539062 C 635.148438 429.226562 647.804688 430.238281 659.378906 431.578125 M 667.566406 592.6875 C 665.605469 587.859375 663.476562 582.714844 661.058594 577.136719 C 668.316406 565.96875 675.027344 553.886719 680.859375 541.792969 C 687.867188 541.035156 694.023438 540.179688 699.171875 539.222656 C 702.4375 528.023438 704.226562 516.195312 704.226562 503.949219 C 704.226562 491.699219 702.4375 479.875 699.171875 468.679688 C 694.023438 467.714844 687.867188 466.859375 680.859375 466.101562 C 675.027344 454.007812 668.316406 441.925781 661.058594 430.757812 C 663.476562 425.171875 665.605469 420.035156 667.566406 415.207031 C 652.195312 399.769531 632.824219 388.328125 611.160156 382.503906 C 607.601562 385.535156 603.054688 390.570312 597.652344 397.558594 C 585.09375 397.265625 572.375 397.257812 559.816406 397.542969 C 554.332031 390.476562 549.71875 385.410156 546.125 382.40625 C 524.355469 388.179688 504.890625 399.644531 489.441406 415.117188 C 491.410156 419.96875 493.550781 425.136719 495.980469 430.734375 C 488.71875 441.914062 482.007812 454 476.164062 466.089844 C 469.117188 466.847656 462.925781 467.714844 457.746094 468.679688 C 454.488281 479.875 452.699219 491.699219 452.699219 503.949219 C 452.699219 516.195312 454.488281 528.023438 457.746094 539.222656 C 462.925781 540.179688 469.117188 541.039062 476.164062 541.804688 C 482.007812 553.898438 488.71875 565.980469 495.980469 577.152344 C 493.550781 582.757812 491.410156 587.921875 489.441406 592.769531 C 504.886719 608.257812 524.347656 619.714844 546.125 625.488281 C 549.71875 622.484375 554.332031 617.414062 559.816406 610.351562 C 572.375 610.632812 585.09375 610.632812 597.652344 610.335938 C 603.054688 617.324219 607.605469 622.367188 611.160156 625.386719 C 632.828125 619.566406 652.195312 608.125 667.566406 592.6875 " fill-opacity="1" fill-rule="nonzero"/><g clip-path="url(#407346a177)"><path fill="#b2b1b1" d="M 578.359375 629.710938 C 578.347656 629.710938 578.339844 629.710938 578.335938 629.710938 C 578.339844 629.710938 578.347656 629.710938 578.359375 629.710938 M 578.25 629.710938 C 578.238281 629.710938 578.226562 629.710938 578.214844 629.710938 C 578.226562 629.710938 578.246094 629.710938 578.25 629.710938 M 578.144531 629.710938 C 578.128906 629.710938 578.117188 629.710938 578.113281 629.710938 C 578.125 629.710938 578.128906 629.710938 578.144531 629.710938 M 578.042969 629.710938 C 578.023438 629.710938 578.011719 629.710938 578 629.710938 C 578.011719 629.710938 578.027344 629.710938 578.042969 629.710938 M 577.933594 629.710938 C 577.921875 629.710938 577.910156 629.710938 577.890625 629.710938 C 577.902344 629.710938 577.921875 629.710938 577.933594 629.710938 M 577.824219 629.710938 C 577.8125 629.710938 577.800781 629.710938 577.789062 629.710938 C 577.800781 629.710938 577.8125 629.710938 577.824219 629.710938 M 577.71875 629.710938 C 577.707031 629.710938 577.699219 629.710938 577.683594 629.710938 C 577.695312 629.710938 577.707031 629.710938 577.71875 629.710938 M 577.617188 629.710938 C 577.605469 629.710938 577.585938 629.703125 577.574219 629.703125 C 577.585938 629.703125 577.597656 629.710938 577.617188 629.710938 M 577.503906 629.703125 C 577.492188 629.703125 577.484375 629.703125 577.472656 629.703125 C 577.484375 629.703125 577.492188 629.703125 577.503906 629.703125 M 577.394531 629.703125 C 577.382812 629.703125 577.378906 629.703125 577.371094 629.703125 C 577.378906 629.703125 577.382812 629.703125 577.394531 629.703125 M 577.277344 629.703125 C 577.277344 629.703125 577.269531 629.703125 577.261719 629.703125 C 577.269531 629.703125 577.269531 629.703125 577.277344 629.703125 M 577.160156 629.703125 C 577.160156 629.703125 577.15625 629.703125 577.160156 629.703125 M 704.226562 503.871094 C 704.226562 503.867188 704.226562 503.867188 704.226562 503.859375 L 704.226562 503.855469 C 704.226562 503.859375 704.226562 503.867188 704.226562 503.871094 M 704.226562 503.800781 C 704.226562 503.789062 704.226562 503.78125 704.226562 503.769531 C 704.226562 503.769531 704.226562 503.765625 704.226562 503.757812 C 704.226562 503.777344 704.226562 503.789062 704.226562 503.800781 M 704.226562 503.730469 C 704.226562 503.703125 704.226562 503.6875 704.226562 503.664062 C 704.226562 503.6875 704.226562 503.703125 704.226562 503.730469 M 704.226562 503.632812 C 704.226562 503.609375 704.226562 503.574219 704.226562 503.550781 C 704.226562 503.574219 704.226562 503.609375 704.226562 503.632812 M 704.226562 503.519531 C 704.226562 503.496094 704.226562 503.472656 704.226562 503.453125 C 704.226562 503.472656 704.226562 503.496094 704.226562 503.519531 M 704.226562 503.417969 C 704.226562 503.398438 704.226562 503.375 704.226562 503.359375 C 704.226562 503.375 704.226562 503.398438 704.226562 503.417969 M 704.226562 503.328125 C 704.226562 503.296875 704.226562 503.28125 704.226562 503.25 C 704.226562 503.28125 704.226562 503.296875 704.226562 503.328125 M 704.226562 503.234375 C 704.226562 503.203125 704.226562 503.171875 704.226562 503.144531 C 704.226562 503.171875 704.226562 503.203125 704.226562 503.234375 M 704.21875 503.105469 C 704.21875 503.089844 704.21875 503.070312 704.21875 503.054688 C 704.21875 503.070312 704.21875 503.089844 704.21875 503.105469 M 704.21875 503.011719 C 704.21875 502.992188 704.21875 502.976562 704.21875 502.957031 C 704.21875 502.976562 704.21875 502.992188 704.21875 503.011719 M 704.21875 502.921875 C 704.21875 502.890625 704.21875 502.863281 704.21875 502.832031 C 704.21875 502.863281 704.21875 502.890625 704.21875 502.921875 M 704.21875 502.8125 C 704.21875 502.785156 704.21875 502.765625 704.21875 502.742188 C 704.21875 502.765625 704.21875 502.789062 704.21875 502.8125 M 704.21875 502.707031 C 704.21875 502.6875 704.21875 502.664062 704.21875 502.644531 C 704.21875 502.664062 704.21875 502.683594 704.21875 502.707031 M 704.21875 502.609375 C 704.21875 502.59375 704.21875 502.570312 704.21875 502.550781 C 704.21875 502.570312 704.21875 502.585938 704.21875 502.609375 M 704.21875 502.519531 C 704.21875 502.492188 704.21875 502.460938 704.214844 502.429688 C 704.21875 502.460938 704.21875 502.492188 704.21875 502.519531 M 704.214844 502.394531 C 704.214844 502.371094 704.214844 502.359375 704.214844 502.339844 C 704.214844 502.359375 704.214844 502.378906 704.214844 502.394531 M 704.214844 502.300781 C 704.214844 502.28125 704.214844 502.261719 704.214844 502.246094 C 704.214844 502.261719 704.214844 502.28125 704.214844 502.300781 M 704.214844 502.210938 C 704.214844 502.1875 704.214844 502.167969 704.214844 502.144531 C 704.214844 502.160156 704.214844 502.1875 704.214844 502.210938 M 704.214844 502.097656 C 704.214844 502.078125 704.214844 502.046875 704.214844 502.03125 C 704.214844 502.054688 704.214844 502.070312 704.214844 502.097656 M 704.207031 501.988281 C 704.207031 501.96875 704.207031 501.957031 704.207031 501.941406 C 704.207031 501.957031 704.207031 501.96875 704.207031 501.988281 M 704.207031 501.898438 C 704.207031 501.878906 704.207031 501.863281 704.207031 501.84375 C 704.207031 501.863281 704.207031 501.878906 704.207031 501.898438 M 704.207031 501.804688 C 704.207031 501.777344 704.207031 501.742188 704.207031 501.71875 C 704.207031 501.75 704.207031 501.777344 704.207031 501.804688 M 704.207031 501.683594 C 704.207031 501.664062 704.207031 501.648438 704.207031 501.628906 C 704.207031 501.648438 704.207031 501.664062 704.207031 501.683594 M 704.203125 501.585938 C 704.203125 501.570312 704.203125 501.558594 704.203125 501.539062 C 704.203125 501.550781 704.203125 501.570312 704.203125 501.585938 M 704.203125 501.492188 C 704.203125 501.472656 704.203125 501.460938 704.203125 501.445312 C 704.203125 501.460938 704.203125 501.472656 704.203125 501.492188 M 704.203125 501.390625 C 704.203125 501.367188 704.203125 501.347656 704.203125 501.324219 C 704.203125 501.34375 704.203125 501.367188 704.203125 501.390625 M 704.195312 501.269531 C 704.195312 501.257812 704.195312 501.246094 704.195312 501.230469 C 704.195312 501.246094 704.195312 501.257812 704.195312 501.269531 M 704.195312 501.179688 C 704.195312 501.167969 704.195312 501.15625 704.195312 501.144531 C 704.195312 501.15625 704.195312 501.167969 704.195312 501.179688 M 704.195312 501.089844 C 704.195312 501.078125 704.195312 501.074219 704.195312 501.066406 C 704.195312 501.074219 704.195312 501.085938 704.195312 501.089844 M 704.191406 500.941406 C 704.191406 500.9375 704.191406 500.929688 704.191406 500.929688 C 704.191406 500.929688 704.191406 500.9375 704.191406 500.941406 M 704.191406 500.863281 C 704.191406 500.851562 704.191406 500.847656 704.191406 500.839844 C 704.191406 500.847656 704.191406 500.851562 704.191406 500.863281 M 704.191406 500.773438 C 704.183594 500.769531 704.183594 500.761719 704.183594 500.757812 C 704.183594 500.761719 704.183594 500.769531 704.191406 500.773438 M 704.183594 500.546875 C 704.183594 500.535156 704.183594 500.535156 704.179688 500.527344 C 704.183594 500.535156 704.183594 500.539062 704.183594 500.546875 M 704.179688 500.464844 C 704.179688 500.457031 704.179688 500.445312 704.179688 500.4375 C 704.179688 500.453125 704.179688 500.457031 704.179688 500.464844 M 704.179688 500.378906 C 704.179688 500.375 704.179688 500.367188 704.179688 500.367188 C 704.179688 500.367188 704.179688 500.375 704.179688 500.378906 M 704.171875 500.152344 C 704.167969 500.144531 704.167969 500.132812 704.167969 500.128906 C 704.167969 500.132812 704.167969 500.144531 704.171875 500.152344 M 704.167969 500.0625 C 704.167969 500.054688 704.167969 500.054688 704.167969 500.042969 C 704.167969 500.050781 704.167969 500.054688 704.167969 500.0625 M 704.160156 499.824219 C 704.160156 499.824219 704.160156 499.824219 704.160156 499.816406 L 704.160156 499.824219 M 704.15625 499.75 C 704.15625 499.738281 704.15625 499.746094 704.15625 499.734375 C 704.15625 499.738281 704.15625 499.746094 704.15625 499.75 M 704.140625 499.351562 L 704.140625 499.34375 L 704.140625 499.351562 " fill-opacity="1" fill-rule="nonzero"/></g><g clip-path="url(#43a868d4ed)"><path fill="#949294" d="M 578.460938 629.710938 C 578.429688 629.710938 578.394531 629.710938 578.359375 629.710938 C 578.347656 629.710938 578.339844 629.710938 578.335938 629.710938 C 578.308594 629.710938 578.28125 629.710938 578.25 629.710938 C 578.246094 629.710938 578.226562 629.710938 578.214844 629.710938 C 578.191406 629.710938 578.167969 629.710938 578.144531 629.710938 C 578.128906 629.710938 578.125 629.710938 578.113281 629.710938 C 578.089844 629.710938 578.066406 629.710938 578.042969 629.710938 C 578.027344 629.710938 578.011719 629.710938 578 629.710938 C 577.976562 629.710938 577.957031 629.710938 577.933594 629.710938 C 577.921875 629.710938 577.902344 629.710938 577.890625 629.710938 C 577.875 629.710938 577.851562 629.710938 577.824219 629.710938 C 577.8125 629.710938 577.800781 629.710938 577.789062 629.710938 C 577.765625 629.710938 577.742188 629.710938 577.71875 629.710938 C 577.707031 629.710938 577.695312 629.710938 577.683594 629.710938 C 577.664062 629.710938 577.632812 629.710938 577.617188 629.710938 C 577.597656 629.710938 577.585938 629.703125 577.574219 629.703125 C 577.550781 629.703125 577.527344 629.703125 577.503906 629.703125 C 577.492188 629.703125 577.484375 629.703125 577.472656 629.703125 C 577.449219 629.703125 577.417969 629.703125 577.394531 629.703125 C 577.382812 629.703125 577.378906 629.703125 577.371094 629.703125 C 577.335938 629.703125 577.304688 629.703125 577.277344 629.703125 C 577.269531 629.703125 577.269531 629.703125 577.261719 629.703125 C 577.226562 629.703125 577.199219 629.703125 577.160156 629.703125 C 577.15625 629.703125 577.160156 629.703125 577.160156 629.703125 C 553.160156 629.460938 530.777344 622.484375 511.789062 610.589844 C 522.296875 617.164062 533.839844 622.226562 546.125 625.488281 C 549.71875 622.484375 554.332031 617.414062 559.816406 610.351562 C 566.019531 610.488281 572.257812 610.558594 578.496094 610.558594 C 584.894531 610.558594 591.289062 610.488281 597.652344 610.335938 C 603.054688 617.324219 607.605469 622.367188 611.160156 625.386719 C 632.828125 619.566406 652.195312 608.125 667.566406 592.6875 C 665.605469 587.859375 663.476562 582.714844 661.058594 577.136719 C 668.316406 565.96875 675.027344 553.886719 680.859375 541.792969 C 687.867188 541.035156 694.023438 540.179688 699.171875 539.222656 C 702.421875 528.078125 704.207031 516.308594 704.226562 504.125 C 704.128906 573.492188 647.859375 629.710938 578.460938 629.710938 M 578.476562 609.113281 C 572.199219 609.113281 565.917969 609.039062 559.671875 608.894531 C 555.726562 604.558594 551.597656 599.566406 547.394531 594.050781 C 571.359375 590.320312 593.082031 579.816406 610.554688 564.5625 C 613.671875 570.175781 616.636719 575.519531 619.425781 580.535156 C 611.871094 591.527344 604.359375 601.246094 597.378906 608.894531 C 591.105469 609.039062 584.789062 609.113281 578.476562 609.113281 M 489.441406 592.765625 C 487.910156 591.226562 486.414062 589.648438 484.957031 588.035156 C 486.816406 588.710938 488.699219 589.34375 490.597656 589.929688 C 490.207031 590.886719 489.820312 591.832031 489.441406 592.765625 M 621.929688 579.359375 C 619.046875 574.105469 615.972656 568.5 612.742188 562.609375 C 629.460938 547.308594 642.039062 527.546875 648.582031 505.210938 C 653.894531 505.207031 659.007812 505.195312 663.882812 505.183594 C 669.796875 517.699219 674.960938 529.730469 679.328125 540.820312 C 673.417969 552.953125 666.671875 565.097656 659.378906 576.3125 C 647.804688 577.652344 635.148438 578.667969 621.929688 579.359375 M 704.226562 504.070312 C 704.226562 504.058594 704.226562 504.046875 704.226562 504.035156 C 704.226562 504.046875 704.226562 504.058594 704.226562 504.070312 M 704.226562 503.859375 C 704.226562 503.847656 704.226562 503.835938 704.226562 503.832031 C 704.226562 503.835938 704.226562 503.84375 704.226562 503.855469 L 704.226562 503.859375 M 704.226562 503.769531 C 704.226562 503.757812 704.226562 503.753906 704.226562 503.742188 C 704.226562 503.746094 704.226562 503.753906 704.226562 503.757812 C 704.226562 503.765625 704.226562 503.769531 704.226562 503.769531 M 704.226562 503.730469 C 704.203125 491.5625 702.421875 479.808594 699.171875 468.679688 C 694.023438 467.714844 687.867188 466.859375 680.859375 466.101562 C 675.027344 454.007812 668.316406 441.925781 661.058594 430.757812 C 663.476562 425.171875 665.605469 420.035156 667.566406 415.207031 C 654.660156 402.246094 638.9375 392.101562 621.40625 385.730469 C 621.398438 385.726562 621.386719 385.71875 621.378906 385.707031 C 668.332031 402.753906 702.257812 446.96875 704.140625 499.34375 L 704.140625 499.351562 C 704.148438 499.453125 704.148438 499.554688 704.15625 499.660156 C 704.15625 499.6875 704.15625 499.714844 704.15625 499.734375 C 704.15625 499.746094 704.15625 499.738281 704.15625 499.75 C 704.160156 499.769531 704.160156 499.800781 704.160156 499.816406 C 704.160156 499.824219 704.160156 499.824219 704.160156 499.824219 C 704.160156 499.902344 704.167969 499.972656 704.167969 500.042969 C 704.167969 500.054688 704.167969 500.054688 704.167969 500.0625 C 704.167969 500.082031 704.167969 500.109375 704.167969 500.128906 C 704.167969 500.132812 704.167969 500.144531 704.171875 500.152344 C 704.171875 500.222656 704.171875 500.296875 704.179688 500.367188 C 704.179688 500.367188 704.179688 500.375 704.179688 500.378906 C 704.179688 500.398438 704.179688 500.421875 704.179688 500.4375 C 704.179688 500.445312 704.179688 500.457031 704.179688 500.464844 C 704.179688 500.488281 704.179688 500.503906 704.179688 500.527344 C 704.183594 500.535156 704.183594 500.535156 704.183594 500.546875 C 704.183594 500.613281 704.183594 500.683594 704.183594 500.757812 C 704.183594 500.761719 704.183594 500.769531 704.191406 500.773438 C 704.191406 500.796875 704.191406 500.820312 704.191406 500.839844 C 704.191406 500.847656 704.191406 500.851562 704.191406 500.863281 C 704.191406 500.886719 704.191406 500.90625 704.191406 500.929688 C 704.191406 500.929688 704.191406 500.9375 704.191406 500.941406 C 704.191406 500.984375 704.191406 501.027344 704.195312 501.066406 C 704.195312 501.074219 704.195312 501.078125 704.195312 501.089844 C 704.195312 501.109375 704.195312 501.128906 704.195312 501.144531 C 704.195312 501.15625 704.195312 501.167969 704.195312 501.179688 C 704.195312 501.199219 704.195312 501.210938 704.195312 501.230469 C 704.195312 501.246094 704.195312 501.257812 704.195312 501.269531 C 704.195312 501.289062 704.195312 501.304688 704.203125 501.324219 C 704.203125 501.347656 704.203125 501.367188 704.203125 501.390625 C 704.203125 501.410156 704.203125 501.425781 704.203125 501.445312 C 704.203125 501.460938 704.203125 501.472656 704.203125 501.492188 C 704.203125 501.511719 704.203125 501.523438 704.203125 501.539062 C 704.203125 501.558594 704.203125 501.570312 704.203125 501.585938 C 704.203125 501.601562 704.203125 501.613281 704.207031 501.628906 C 704.207031 501.648438 704.207031 501.664062 704.207031 501.683594 C 704.207031 501.695312 704.207031 501.707031 704.207031 501.71875 C 704.207031 501.742188 704.207031 501.777344 704.207031 501.804688 C 704.207031 501.820312 704.207031 501.828125 704.207031 501.84375 C 704.207031 501.863281 704.207031 501.878906 704.207031 501.898438 C 704.207031 501.910156 704.207031 501.929688 704.207031 501.941406 C 704.207031 501.957031 704.207031 501.96875 704.207031 501.988281 C 704.214844 502 704.214844 502.019531 704.214844 502.03125 C 704.214844 502.046875 704.214844 502.078125 704.214844 502.097656 C 704.214844 502.113281 704.214844 502.125 704.214844 502.144531 C 704.214844 502.167969 704.214844 502.1875 704.214844 502.210938 C 704.214844 502.222656 704.214844 502.234375 704.214844 502.246094 C 704.214844 502.261719 704.214844 502.28125 704.214844 502.300781 C 704.214844 502.3125 704.214844 502.328125 704.214844 502.339844 C 704.214844 502.359375 704.214844 502.371094 704.214844 502.394531 C 704.214844 502.40625 704.214844 502.417969 704.214844 502.429688 C 704.21875 502.460938 704.21875 502.492188 704.21875 502.519531 C 704.21875 502.527344 704.21875 502.539062 704.21875 502.550781 C 704.21875 502.570312 704.21875 502.59375 704.21875 502.609375 C 704.21875 502.621094 704.21875 502.632812 704.21875 502.644531 C 704.21875 502.664062 704.21875 502.6875 704.21875 502.707031 C 704.21875 502.71875 704.21875 502.730469 704.21875 502.742188 C 704.21875 502.765625 704.21875 502.785156 704.21875 502.8125 C 704.21875 502.820312 704.21875 502.824219 704.21875 502.832031 C 704.21875 502.863281 704.21875 502.890625 704.21875 502.921875 C 704.21875 502.933594 704.21875 502.945312 704.21875 502.957031 C 704.21875 502.976562 704.21875 502.992188 704.21875 503.011719 C 704.21875 503.027344 704.21875 503.042969 704.21875 503.054688 C 704.21875 503.070312 704.21875 503.089844 704.21875 503.105469 C 704.21875 503.117188 704.226562 503.128906 704.226562 503.144531 C 704.226562 503.171875 704.226562 503.203125 704.226562 503.234375 C 704.226562 503.238281 704.226562 503.246094 704.226562 503.25 C 704.226562 503.28125 704.226562 503.296875 704.226562 503.328125 C 704.226562 503.335938 704.226562 503.347656 704.226562 503.359375 C 704.226562 503.375 704.226562 503.398438 704.226562 503.417969 C 704.226562 503.429688 704.226562 503.441406 704.226562 503.453125 C 704.226562 503.472656 704.226562 503.496094 704.226562 503.519531 C 704.226562 503.527344 704.226562 503.539062 704.226562 503.550781 C 704.226562 503.574219 704.226562 503.609375 704.226562 503.632812 C 704.226562 503.640625 704.226562 503.65625 704.226562 503.664062 C 704.226562 503.6875 704.226562 503.703125 704.226562 503.730469 M 663.882812 502.710938 C 659.222656 502.699219 654.347656 502.6875 649.296875 502.683594 C 652.128906 492.195312 653.636719 481.175781 653.636719 469.796875 C 653.636719 456.011719 651.425781 442.746094 647.320312 430.332031 C 651.449219 430.710938 655.480469 431.125 659.378906 431.578125 C 666.671875 442.792969 673.417969 454.933594 679.328125 467.078125 C 674.960938 478.164062 669.792969 490.195312 663.882812 502.710938 " fill-opacity="1" fill-rule="nonzero"/></g><path fill="#0f0c0d" d="M 546.125 625.488281 C 533.839844 622.226562 522.296875 617.164062 511.789062 610.589844 C 503.671875 605.5 496.175781 599.511719 489.441406 592.765625 C 489.820312 591.832031 490.207031 590.886719 490.597656 589.929688 C 502.378906 593.585938 514.898438 595.558594 527.882812 595.558594 C 534.515625 595.558594 541.035156 595.042969 547.394531 594.050781 C 551.597656 599.566406 555.726562 604.558594 559.671875 608.894531 C 565.917969 609.039062 572.199219 609.113281 578.476562 609.113281 C 584.789062 609.113281 591.105469 609.039062 597.378906 608.894531 C 604.359375 601.246094 611.871094 591.527344 619.425781 580.535156 C 616.636719 575.519531 613.671875 570.175781 610.554688 564.5625 C 611.296875 563.917969 612.019531 563.273438 612.742188 562.609375 C 615.972656 568.5 619.046875 574.105469 621.929688 579.359375 C 635.148438 578.667969 647.804688 577.652344 659.378906 576.3125 C 666.671875 565.097656 673.417969 552.953125 679.328125 540.820312 C 674.960938 529.730469 669.796875 517.699219 663.882812 505.183594 C 659.007812 505.195312 653.894531 505.207031 648.582031 505.210938 C 648.828125 504.375 649.066406 503.53125 649.296875 502.683594 C 654.347656 502.6875 659.222656 502.699219 663.882812 502.710938 C 669.792969 490.195312 674.960938 478.164062 679.328125 467.078125 C 673.417969 454.933594 666.671875 442.792969 659.378906 431.578125 C 655.480469 431.125 651.449219 430.710938 647.320312 430.332031 C 641.804688 413.644531 632.894531 398.507812 621.40625 385.730469 C 638.9375 392.101562 654.660156 402.246094 667.566406 415.207031 C 665.605469 420.035156 663.476562 425.171875 661.058594 430.757812 C 668.316406 441.925781 675.027344 454.007812 680.859375 466.101562 C 687.867188 466.859375 694.023438 467.714844 699.171875 468.679688 C 702.421875 479.808594 704.203125 491.5625 704.226562 503.730469 C 704.226562 503.734375 704.226562 503.734375 704.226562 503.742188 C 704.226562 503.753906 704.226562 503.757812 704.226562 503.769531 C 704.226562 503.78125 704.226562 503.789062 704.226562 503.800781 C 704.226562 503.8125 704.226562 503.820312 704.226562 503.832031 C 704.226562 503.835938 704.226562 503.847656 704.226562 503.859375 C 704.226562 503.867188 704.226562 503.867188 704.226562 503.871094 C 704.226562 503.894531 704.226562 503.925781 704.226562 503.949219 C 704.226562 503.972656 704.226562 504.003906 704.226562 504.035156 C 704.226562 504.046875 704.226562 504.058594 704.226562 504.070312 C 704.226562 504.085938 704.226562 504.105469 704.226562 504.125 C 704.207031 516.308594 702.421875 528.078125 699.171875 539.222656 C 694.023438 540.179688 687.867188 541.035156 680.859375 541.792969 C 675.027344 553.886719 668.316406 565.96875 661.058594 577.136719 C 663.476562 582.714844 665.605469 587.859375 667.566406 592.6875 C 652.195312 608.125 632.828125 619.566406 611.160156 625.386719 C 607.605469 622.367188 603.054688 617.324219 597.652344 610.335938 C 591.289062 610.488281 584.894531 610.558594 578.496094 610.558594 C 572.257812 610.558594 566.019531 610.488281 559.816406 610.351562 C 554.332031 617.414062 549.71875 622.484375 546.125 625.488281 " fill-opacity="1" fill-rule="nonzero"/><path fill="#bedf20" d="M 328.027344 502.550781 C 353.882812 522.492188 358.675781 559.625 338.726562 585.480469 C 318.785156 611.335938 281.660156 616.128906 255.804688 596.179688 C 229.941406 576.238281 225.152344 539.109375 245.097656 513.257812 C 265.039062 487.394531 302.164062 482.597656 328.027344 502.550781 " fill-opacity="1" fill-rule="nonzero"/><path fill="#d0d0d2" d="M 280.203125 491.425781 C 283.933594 492.808594 287.515625 494.769531 290.824219 497.316406 C 308.523438 510.972656 311.816406 536.480469 298.164062 554.1875 C 284.507812 571.890625 259 575.179688 241.292969 561.523438 C 237.984375 558.976562 235.179688 556.011719 232.902344 552.757812 C 233.308594 559.90625 235.007812 566.957031 237.949219 573.542969 C 260.511719 587.945312 290.835938 582.972656 307.488281 561.375 C 324.144531 539.785156 321.246094 509.195312 301.589844 491.023438 C 294.480469 489.859375 287.21875 490.007812 280.203125 491.425781 " fill-opacity="1" fill-rule="nonzero"/><path fill="#b2b1b1" d="M 291.875 608.496094 C 291.871094 608.496094 291.871094 608.496094 291.871094 608.496094 C 291.871094 608.496094 291.871094 608.496094 291.875 608.496094 M 291.875 608.496094 C 309.417969 608.496094 326.769531 600.71875 338.417969 585.878906 C 326.769531 600.71875 309.425781 608.496094 291.875 608.496094 M 256.222656 596.503906 C 256.179688 596.46875 256.128906 596.429688 256.078125 596.394531 C 256.128906 596.429688 256.179688 596.46875 256.222656 596.503906 M 255.929688 596.277344 C 255.882812 596.246094 255.847656 596.210938 255.804688 596.179688 C 255.578125 596.007812 255.355469 595.832031 255.132812 595.660156 C 255.355469 595.832031 255.578125 596.007812 255.804688 596.179688 C 255.847656 596.210938 255.882812 596.246094 255.929688 596.277344 M 255.117188 595.640625 C 255.105469 595.636719 255.097656 595.628906 255.085938 595.625 C 255.097656 595.628906 255.105469 595.636719 255.117188 595.640625 M 338.429688 585.863281 C 338.496094 585.785156 338.554688 585.703125 338.621094 585.625 C 338.554688 585.703125 338.496094 585.785156 338.429688 585.863281 M 338.6875 585.535156 C 338.699219 585.515625 338.714844 585.496094 338.726562 585.480469 C 339.453125 584.539062 340.140625 583.597656 340.796875 582.632812 C 340.140625 583.597656 339.453125 584.539062 338.726562 585.480469 C 338.714844 585.496094 338.699219 585.515625 338.6875 585.535156 M 340.804688 582.621094 C 340.820312 582.597656 340.832031 582.578125 340.851562 582.554688 C 340.832031 582.574219 340.816406 582.597656 340.804688 582.621094 M 340.878906 582.5 C 340.886719 582.496094 340.894531 582.484375 340.90625 582.476562 C 340.894531 582.484375 340.886719 582.496094 340.878906 582.5 M 340.945312 582.40625 C 340.953125 582.40625 340.953125 582.398438 340.953125 582.398438 C 340.953125 582.398438 340.953125 582.40625 340.945312 582.40625 " fill-opacity="1" fill-rule="nonzero"/><path fill="#839a15" d="M 291.875 608.496094 C 291.871094 608.496094 291.871094 608.496094 291.871094 608.496094 C 279.429688 608.496094 266.886719 604.582031 256.222656 596.503906 C 256.179688 596.46875 256.128906 596.429688 256.078125 596.394531 C 256.03125 596.355469 255.976562 596.316406 255.929688 596.277344 C 255.882812 596.246094 255.847656 596.210938 255.804688 596.179688 C 255.578125 596.007812 255.355469 595.832031 255.132812 595.660156 C 255.128906 595.652344 255.121094 595.648438 255.117188 595.640625 C 255.105469 595.636719 255.097656 595.628906 255.085938 595.625 C 250.425781 591.910156 246.496094 587.632812 243.28125 582.96875 C 254.027344 591.25 266.726562 595.265625 279.328125 595.265625 C 297.03125 595.265625 314.546875 587.347656 326.191406 572.242188 C 342.285156 551.382812 342.261719 523.167969 328.058594 502.574219 C 334.558594 507.597656 339.730469 513.710938 343.507812 520.457031 L 343.507812 578.261719 C 342.71875 579.667969 341.867188 581.042969 340.953125 582.398438 C 340.953125 582.398438 340.953125 582.40625 340.945312 582.40625 C 340.933594 582.429688 340.917969 582.453125 340.90625 582.476562 C 340.894531 582.484375 340.886719 582.496094 340.878906 582.5 C 340.867188 582.519531 340.855469 582.539062 340.851562 582.554688 C 340.832031 582.578125 340.820312 582.597656 340.804688 582.621094 C 340.804688 582.625 340.796875 582.625 340.796875 582.632812 C 340.140625 583.597656 339.453125 584.539062 338.726562 585.480469 C 338.714844 585.496094 338.699219 585.515625 338.6875 585.535156 C 338.660156 585.5625 338.636719 585.59375 338.621094 585.625 C 338.554688 585.703125 338.496094 585.785156 338.429688 585.863281 C 338.429688 585.867188 338.421875 585.875 338.417969 585.878906 C 326.769531 600.71875 309.417969 608.496094 291.875 608.496094 " fill-opacity="1" fill-rule="nonzero"/><path fill="#d0d0d2" d="M 231.59375 499.105469 C 257.449219 519.054688 262.246094 556.183594 242.296875 582.035156 C 222.351562 607.890625 185.226562 612.6875 159.371094 592.742188 C 133.511719 572.800781 128.714844 535.667969 148.664062 509.816406 C 168.605469 483.957031 205.734375 479.160156 231.59375 499.105469 " fill-opacity="1" fill-rule="nonzero"/><path fill="#231f20" d="M 157.019531 590.132812 C 157.019531 590.132812 157.558594 588.769531 158.554688 586.425781 C 158.808594 585.839844 159.105469 585.199219 159.382812 584.480469 C 159.644531 583.769531 159.925781 582.996094 160.230469 582.171875 C 160.53125 581.351562 160.851562 580.484375 161.195312 579.570312 C 161.503906 578.644531 161.796875 577.652344 162.121094 576.628906 C 162.433594 575.597656 162.796875 574.546875 163.097656 573.433594 C 163.375 572.316406 163.667969 571.160156 163.976562 569.976562 C 164.125 569.382812 164.273438 568.78125 164.429688 568.175781 C 164.542969 567.558594 164.664062 566.933594 164.777344 566.304688 C 165.023438 565.046875 165.277344 563.761719 165.53125 562.457031 C 165.890625 559.828125 166.308594 557.117188 166.492188 554.335938 C 166.828125 551.566406 166.785156 548.738281 166.875 545.914062 C 166.78125 543.089844 166.820312 540.257812 166.488281 537.492188 C 166.289062 534.710938 165.878906 532.007812 165.519531 529.371094 C 165.261719 528.066406 165.007812 526.78125 164.757812 525.523438 C 164.640625 524.894531 164.523438 524.269531 164.410156 523.660156 C 164.257812 523.046875 164.101562 522.449219 163.957031 521.859375 C 163.652344 520.667969 163.359375 519.519531 163.070312 518.394531 C 162.777344 517.28125 162.414062 516.230469 162.101562 515.199219 C 161.773438 514.179688 161.488281 513.183594 161.167969 512.257812 C 160.828125 511.335938 160.511719 510.464844 160.207031 509.636719 C 159.90625 508.8125 159.621094 508.042969 159.363281 507.324219 C 159.089844 506.613281 158.796875 505.976562 158.542969 505.398438 C 157.558594 503.058594 157.011719 501.6875 157.011719 501.6875 C 157.011719 501.6875 157.878906 502.855469 159.351562 504.960938 C 159.710938 505.492188 160.136719 506.066406 160.546875 506.71875 C 160.929688 507.394531 161.355469 508.121094 161.796875 508.890625 C 162.242188 509.675781 162.714844 510.503906 163.210938 511.378906 C 163.6875 512.269531 164.089844 513.25 164.5625 514.25 C 165.015625 515.261719 165.53125 516.296875 165.980469 517.40625 C 166.390625 518.527344 166.808594 519.691406 167.242188 520.890625 C 167.457031 521.488281 167.671875 522.097656 167.894531 522.714844 C 168.070312 523.339844 168.25 523.980469 168.4375 524.621094 C 168.808594 525.90625 169.15625 527.230469 169.484375 528.582031 C 169.984375 531.320312 170.6875 534.132812 170.894531 537.054688 C 171.300781 539.957031 171.332031 542.9375 171.464844 545.914062 C 171.324219 548.886719 171.300781 551.867188 170.902344 554.773438 C 170.6875 557.699219 169.992188 560.507812 169.488281 563.242188 C 169.167969 564.597656 168.808594 565.914062 168.441406 567.203125 C 168.257812 567.847656 168.078125 568.480469 167.898438 569.109375 C 167.675781 569.730469 167.460938 570.339844 167.253906 570.941406 C 166.816406 572.136719 166.398438 573.296875 165.992188 574.421875 C 165.535156 575.527344 165.023438 576.5625 164.566406 577.578125 C 164.09375 578.578125 163.695312 579.550781 163.214844 580.445312 C 162.71875 581.328125 162.242188 582.160156 161.792969 582.945312 C 161.347656 583.722656 160.929688 584.445312 160.542969 585.121094 C 160.128906 585.773438 159.710938 586.335938 159.351562 586.867188 C 157.890625 588.953125 157.019531 590.132812 157.019531 590.132812 " fill-opacity="1" fill-rule="nonzero"/><path fill="#231f20" d="M 233.609375 590.132812 C 233.609375 590.132812 232.730469 588.953125 231.269531 586.867188 C 230.917969 586.335938 230.492188 585.773438 230.078125 585.121094 C 229.695312 584.445312 229.273438 583.722656 228.828125 582.945312 C 228.378906 582.160156 227.90625 581.328125 227.410156 580.445312 C 226.925781 579.550781 226.53125 578.578125 226.054688 577.578125 C 225.597656 576.5625 225.085938 575.527344 224.636719 574.421875 C 224.230469 573.296875 223.804688 572.136719 223.375 570.941406 C 223.160156 570.339844 222.945312 569.730469 222.726562 569.109375 C 222.546875 568.480469 222.363281 567.847656 222.183594 567.203125 C 221.8125 565.914062 221.460938 564.597656 221.132812 563.242188 C 220.636719 560.507812 219.933594 557.699219 219.71875 554.773438 C 219.320312 551.867188 219.296875 548.886719 219.15625 545.914062 C 219.296875 542.9375 219.324219 539.957031 219.726562 537.054688 C 219.933594 534.132812 220.636719 531.320312 221.136719 528.582031 C 221.464844 527.234375 221.8125 525.90625 222.183594 524.621094 C 222.371094 523.980469 222.546875 523.339844 222.726562 522.714844 C 222.949219 522.097656 223.164062 521.488281 223.378906 520.890625 C 223.8125 519.691406 224.234375 518.527344 224.640625 517.40625 C 225.089844 516.296875 225.605469 515.261719 226.058594 514.25 C 226.53125 513.25 226.933594 512.269531 227.410156 511.378906 C 227.90625 510.503906 228.378906 509.675781 228.824219 508.890625 C 229.273438 508.121094 229.691406 507.394531 230.074219 506.71875 C 230.484375 506.066406 230.910156 505.492188 231.269531 504.960938 C 232.734375 502.855469 233.609375 501.6875 233.609375 501.6875 C 233.609375 501.6875 233.0625 503.058594 232.078125 505.398438 C 231.824219 505.976562 231.53125 506.613281 231.257812 507.324219 C 231 508.042969 230.714844 508.8125 230.414062 509.636719 C 230.109375 510.464844 229.792969 511.335938 229.449219 512.257812 C 229.132812 513.183594 228.847656 514.179688 228.519531 515.199219 C 228.207031 516.230469 227.84375 517.28125 227.550781 518.394531 C 227.261719 519.519531 226.96875 520.667969 226.664062 521.859375 C 226.519531 522.449219 226.363281 523.046875 226.210938 523.660156 C 226.09375 524.269531 225.980469 524.894531 225.863281 525.523438 C 225.609375 526.785156 225.367188 528.066406 225.109375 529.371094 C 224.742188 532.007812 224.332031 534.710938 224.140625 537.492188 C 223.800781 540.257812 223.839844 543.089844 223.75 545.914062 C 223.835938 548.738281 223.792969 551.566406 224.128906 554.335938 C 224.3125 557.117188 224.730469 559.828125 225.089844 562.457031 C 225.347656 563.761719 225.597656 565.046875 225.84375 566.304688 C 225.964844 566.933594 226.078125 567.558594 226.191406 568.175781 C 226.347656 568.78125 226.496094 569.382812 226.652344 569.976562 C 226.949219 571.160156 227.242188 572.316406 227.53125 573.433594 C 227.824219 574.546875 228.195312 575.597656 228.5 576.628906 C 228.828125 577.652344 229.121094 578.644531 229.433594 579.570312 C 229.773438 580.484375 230.097656 581.351562 230.394531 582.171875 C 230.695312 582.996094 230.976562 583.769531 231.238281 584.480469 C 231.515625 585.199219 231.820312 585.839844 232.066406 586.425781 C 233.070312 588.769531 233.609375 590.132812 233.609375 590.132812 " fill-opacity="1" fill-rule="nonzero"/><path fill="#b2b1b1" d="M 195.441406 605.054688 C 195.4375 605.054688 195.4375 605.054688 195.4375 605.054688 C 195.4375 605.054688 195.4375 605.054688 195.441406 605.054688 M 195.449219 605.054688 C 213.007812 605.050781 230.382812 597.257812 242.023438 582.382812 C 230.382812 597.257812 213.007812 605.054688 195.449219 605.054688 M 159.53125 592.867188 C 159.476562 592.824219 159.421875 592.78125 159.371094 592.742188 C 159.351562 592.730469 159.328125 592.710938 159.308594 592.691406 C 159.328125 592.710938 159.351562 592.722656 159.371094 592.742188 C 159.421875 592.78125 159.476562 592.824219 159.53125 592.867188 M 242.136719 582.238281 C 242.15625 582.21875 242.167969 582.203125 242.179688 582.183594 C 242.167969 582.203125 242.15625 582.21875 242.136719 582.238281 M 242.25 582.09375 C 242.261719 582.070312 242.28125 582.050781 242.296875 582.035156 C 242.28125 582.050781 242.261719 582.070312 242.25 582.09375 " fill-opacity="1" fill-rule="nonzero"/><path fill="#949294" d="M 195.441406 605.054688 C 195.4375 605.054688 195.4375 605.054688 195.4375 605.054688 C 182.894531 605.054688 170.253906 601.078125 159.53125 592.867188 C 159.476562 592.824219 159.421875 592.78125 159.371094 592.742188 C 159.351562 592.722656 159.328125 592.710938 159.308594 592.691406 C 154.363281 588.871094 150.210938 584.410156 146.84375 579.527344 C 150.527344 582.371094 154.445312 584.707031 158.503906 586.550781 C 157.539062 588.824219 157.019531 590.132812 157.019531 590.132812 C 157.019531 590.132812 157.878906 588.980469 159.320312 586.914062 C 166.871094 590.210938 174.902344 591.824219 182.898438 591.824219 C 198.195312 591.824219 213.34375 585.917969 224.695312 574.570312 C 225.132812 575.617188 225.625 576.609375 226.054688 577.578125 C 226.53125 578.578125 226.925781 579.550781 227.410156 580.445312 C 227.90625 581.328125 228.378906 582.160156 228.828125 582.945312 C 229.273438 583.722656 229.695312 584.445312 230.078125 585.121094 C 230.492188 585.773438 230.917969 586.335938 231.269531 586.867188 C 232.730469 588.953125 233.609375 590.132812 233.609375 590.132812 C 233.609375 590.132812 233.070312 588.769531 232.066406 586.425781 C 231.820312 585.839844 231.515625 585.199219 231.238281 584.480469 C 230.976562 583.769531 230.695312 582.996094 230.394531 582.171875 C 230.097656 581.351562 229.773438 580.484375 229.433594 579.570312 C 229.121094 578.644531 228.828125 577.652344 228.5 576.628906 C 228.195312 575.597656 227.824219 574.546875 227.53125 573.433594 C 227.40625 572.949219 227.28125 572.453125 227.15625 571.957031 C 228.050781 570.945312 228.917969 569.894531 229.757812 568.808594 C 245.121094 548.894531 245.804688 522.289062 233.480469 502 C 233.558594 501.796875 233.609375 501.6875 233.609375 501.6875 C 233.609375 501.6875 233.546875 501.765625 233.433594 501.921875 C 232.859375 500.976562 232.257812 500.050781 231.628906 499.136719 C 257.453125 519.082031 262.226562 556.195312 242.296875 582.035156 C 242.28125 582.050781 242.261719 582.070312 242.25 582.09375 C 242.226562 582.125 242.203125 582.15625 242.179688 582.183594 C 242.167969 582.203125 242.15625 582.21875 242.136719 582.238281 C 242.101562 582.285156 242.066406 582.332031 242.023438 582.382812 C 230.382812 597.257812 213.007812 605.050781 195.449219 605.054688 C 195.441406 605.054688 195.441406 605.054688 195.441406 605.054688 " fill-opacity="1" fill-rule="nonzero"/><path fill="#231f20" d="M 157.019531 590.132812 C 157.019531 590.132812 157.539062 588.824219 158.503906 586.550781 C 158.777344 586.675781 159.046875 586.796875 159.320312 586.914062 C 157.878906 588.980469 157.019531 590.132812 157.019531 590.132812 " fill-opacity="1" fill-rule="nonzero"/><path fill="#231f20" d="M 233.609375 590.132812 C 233.609375 590.132812 232.730469 588.953125 231.269531 586.867188 C 230.917969 586.335938 230.492188 585.773438 230.078125 585.121094 C 229.695312 584.445312 229.273438 583.722656 228.828125 582.945312 C 228.378906 582.160156 227.90625 581.328125 227.410156 580.445312 C 226.925781 579.550781 226.53125 578.578125 226.054688 577.578125 C 225.625 576.609375 225.132812 575.617188 224.695312 574.570312 C 225.539062 573.726562 226.359375 572.859375 227.15625 571.957031 C 227.28125 572.453125 227.40625 572.949219 227.53125 573.433594 C 227.824219 574.546875 228.195312 575.597656 228.5 576.628906 C 228.828125 577.652344 229.121094 578.644531 229.433594 579.570312 C 229.773438 580.484375 230.097656 581.351562 230.394531 582.171875 C 230.695312 582.996094 230.976562 583.769531 231.238281 584.480469 C 231.515625 585.199219 231.820312 585.839844 232.066406 586.425781 C 233.070312 588.769531 233.609375 590.132812 233.609375 590.132812 M 233.480469 502 C 233.464844 501.96875 233.453125 501.953125 233.433594 501.921875 C 233.546875 501.765625 233.609375 501.6875 233.609375 501.6875 C 233.609375 501.6875 233.558594 501.796875 233.480469 502 " fill-opacity="1" fill-rule="nonzero"/><path fill="#e6a11e" d="M 423.492188 405.8125 C 419.738281 405.8125 416.691406 402.765625 416.691406 399.003906 C 416.691406 395.253906 419.738281 392.203125 423.492188 392.203125 C 453.253906 392.203125 478.40625 382.058594 498.246094 362.046875 C 543.410156 316.492188 549.804688 232.21875 550.699219 207.871094 L 465.464844 207.871094 C 461.707031 207.871094 458.664062 204.824219 458.664062 201.074219 C 458.664062 197.316406 461.707031 194.273438 465.464844 194.273438 L 557.644531 194.273438 C 561.378906 194.273438 564.410156 197.277344 564.441406 201.015625 C 564.488281 205.601562 564.828125 314.160156 507.933594 371.597656 C 485.441406 394.292969 457.03125 405.8125 423.492188 405.8125 " fill-opacity="1" fill-rule="nonzero"/><path fill="#e6a11e" d="M 378.046875 405.8125 C 381.804688 405.8125 384.847656 402.765625 384.847656 399.003906 C 384.847656 395.253906 381.804688 392.203125 378.046875 392.203125 C 348.285156 392.203125 323.132812 382.058594 303.292969 362.046875 C 258.132812 316.492188 251.742188 232.21875 250.839844 207.871094 L 336.082031 207.871094 C 339.835938 207.871094 342.882812 204.824219 342.882812 201.074219 C 342.882812 197.316406 339.835938 194.273438 336.082031 194.273438 L 243.894531 194.273438 C 240.164062 194.273438 237.132812 197.277344 237.09375 201.015625 C 237.058594 205.601562 236.707031 314.160156 293.605469 371.597656 C 316.105469 394.292969 344.511719 405.8125 378.046875 405.8125 " fill-opacity="1" fill-rule="nonzero"/><path fill="#e6a11e" d="M 477.632812 315.828125 C 477.632812 314.691406 477.246094 195.398438 477.199219 194.273438 L 323.882812 194.714844 C 323.835938 195.839844 324.152344 315.140625 324.152344 316.277344 C 324.246094 349.816406 345.851562 378.25 375.851562 388.597656 L 376.0625 458.070312 L 426.554688 457.917969 L 426.359375 388.453125 C 456.292969 377.925781 477.730469 349.367188 477.632812 315.828125 " fill-opacity="1" fill-rule="nonzero"/><path fill="#b2b1b1" d="M 477.429688 255.210938 C 477.371094 237.417969 477.3125 219.605469 477.265625 207.871094 L 477.605469 207.871094 C 477.617188 219.542969 477.628906 237.238281 477.640625 254.945312 C 477.570312 255.03125 477.503906 255.125 477.429688 255.210938 " fill-opacity="1" fill-rule="nonzero"/><path fill="#6e2520" d="M 476.988281 326.0625 C 477.417969 322.714844 477.640625 319.296875 477.632812 315.828125 C 477.632812 315.261719 477.53125 285.261719 477.429688 255.210938 C 477.503906 255.125 477.570312 255.03125 477.640625 254.945312 C 477.652344 285.085938 477.660156 315.261719 477.660156 315.828125 C 477.660156 319.296875 477.429688 322.714844 476.988281 326.0625 " fill-opacity="1" fill-rule="nonzero"/><path fill="#9f6e14" d="M 477.605469 207.871094 L 477.265625 207.871094 C 477.226562 199.714844 477.203125 194.5 477.199219 194.273438 L 477.582031 194.273438 C 477.585938 194.5 477.597656 199.714844 477.605469 207.871094 " fill-opacity="1" fill-rule="nonzero"/><path fill="#b2b1b1" d="M 441.585938 194.375 C 441.585938 194.320312 441.585938 194.285156 441.585938 194.273438 L 465.464844 194.273438 C 465.222656 194.273438 464.984375 194.28125 464.757812 194.308594 L 441.585938 194.375 " fill-opacity="1" fill-rule="nonzero"/><path fill="#9f6e14" d="M 464.757812 194.308594 C 464.984375 194.28125 465.222656 194.273438 465.464844 194.273438 L 477.199219 194.273438 L 464.757812 194.308594 " fill-opacity="1" fill-rule="nonzero"/><path fill="#9f6e14" d="M 400.921875 392.570312 C 394.71875 392.570312 388.699219 391.820312 382.921875 390.433594 C 416.621094 382.335938 441.667969 352.015625 441.667969 315.828125 C 441.667969 314.710938 441.632812 198.496094 441.585938 194.375 L 464.757812 194.308594 L 477.199219 194.273438 C 477.203125 194.5 477.226562 199.714844 477.265625 207.871094 C 477.3125 219.605469 477.371094 237.417969 477.429688 255.210938 C 477.53125 285.261719 477.632812 315.261719 477.632812 315.828125 C 477.640625 319.296875 477.417969 322.714844 476.988281 326.0625 C 471.984375 363.609375 439.832031 392.570312 400.921875 392.570312 " fill-opacity="1" fill-rule="nonzero"/><path fill="#f0cb81" d="M 385.507812 381.253906 C 358.625 381.253906 336.84375 352.304688 336.84375 316.601562 C 336.84375 315.636719 336.863281 200.203125 336.902344 199.25 L 359.78125 199.25 C 359.75 200.203125 359.734375 315.636719 359.734375 316.601562 C 359.734375 352.304688 371.230469 379.535156 385.507812 381.253906 " fill-opacity="1" fill-rule="nonzero"/><path fill="#606369" d="M 365.566406 481.765625 L 436.273438 481.765625 L 436.273438 453.378906 L 365.566406 453.378906 Z M 365.566406 481.765625 " fill-opacity="1" fill-rule="nonzero"/><path fill="#424346" d="M 416.453125 481.765625 L 436.28125 481.765625 L 436.28125 453.378906 L 416.453125 453.378906 Z M 416.453125 481.765625 " fill-opacity="1" fill-rule="nonzero"/><path fill="#424346" d="M 400.921875 481.765625 L 410.214844 481.765625 L 410.214844 453.378906 L 400.921875 453.378906 Z M 400.921875 481.765625 " fill-opacity="1" fill-rule="nonzero"/><path fill="#606369" d="M 343.507812 583.523438 L 458.332031 583.523438 L 458.332031 481.765625 L 343.507812 481.765625 Z M 343.507812 583.523438 " fill-opacity="1" fill-rule="nonzero"/><path fill="#e6a11e" d="M 362.671875 566.550781 L 439.183594 566.550781 L 439.183594 498.734375 L 362.671875 498.734375 Z M 362.671875 566.550781 " fill-opacity="1" fill-rule="nonzero"/><path fill="#424346" d="M 458.332031 583.523438 L 426.136719 583.523438 L 426.136719 566.550781 L 439.183594 566.550781 L 439.183594 498.734375 L 426.136719 498.734375 L 426.136719 481.765625 L 458.332031 481.765625 L 458.332031 583.523438 " fill-opacity="1" fill-rule="nonzero"/><path fill="#9f6e14" d="M 426.136719 566.550781 L 439.183594 566.550781 L 439.183594 498.734375 L 426.136719 498.734375 Z M 426.136719 566.550781 " fill-opacity="1" fill-rule="nonzero"/><path fill="#424346" d="M 416.015625 583.523438 L 400.921875 583.523438 L 400.921875 566.550781 L 416.015625 566.550781 L 416.015625 583.523438 M 416.015625 498.734375 L 400.921875 498.734375 L 400.921875 481.765625 L 416.015625 481.765625 L 416.015625 498.734375 " fill-opacity="1" fill-rule="nonzero"/><path fill="#9f6e14" d="M 400.921875 566.550781 L 416.015625 566.550781 L 416.015625 498.734375 L 400.921875 498.734375 Z M 400.921875 566.550781 " fill-opacity="1" fill-rule="nonzero"/><path fill="#606369" d="M 471.761719 583.523438 L 330.078125 583.523438 L 330.078125 603.292969 L 471.761719 603.292969 L 471.761719 583.523438 " fill-opacity="1" fill-rule="nonzero"/></svg>