<svg xmlns="http://www.w3.org/2000/svg" xmlns:xlink="http://www.w3.org/1999/xlink" width="1080" zoomAndPan="magnify" viewBox="0 0 810 809.999993" height="1080" preserveAspectRatio="xMidYMid meet" version="1.0"><defs><clipPath id="91bc85457f"><path d="M 456 376 L 729 376 L 729 647.65625 L 456 647.65625 Z M 456 376 " clip-rule="nonzero"/></clipPath><clipPath id="bb567746d8"><path d="M 590 506 L 729 506 L 729 647.65625 L 590 647.65625 Z M 590 506 " clip-rule="nonzero"/></clipPath><clipPath id="c49f9475c7"><path d="M 491 384 L 729 384 L 729 647.65625 L 491 647.65625 Z M 491 384 " clip-rule="nonzero"/></clipPath></defs><path fill="#9e3731" d="M 677.5 185.457031 C 654.425781 162.378906 559.296875 166.890625 496.554688 227.804688 C 435.640625 290.550781 431.136719 385.699219 454.210938 408.769531 C 480.003906 434.566406 572.464844 427.402344 635.15625 366.433594 C 696.121094 303.734375 703.285156 211.261719 677.5 185.457031 " fill-opacity="1" fill-rule="nonzero"/><path fill="#d0d0d2" d="M 610.0625 173.628906 C 594.785156 175.515625 578.285156 179.488281 561.742188 185.921875 L 677.035156 301.230469 C 683.675781 284.890625 687.855469 268.597656 689.855469 253.449219 L 610.0625 173.628906 " fill-opacity="1" fill-rule="nonzero"/><path fill="#d0d0d2" d="M 522.183594 421.140625 C 537.339844 419.132812 553.628906 414.953125 569.964844 408.3125 L 454.675781 293.003906 C 448.238281 309.550781 444.269531 326.058594 442.382812 341.324219 L 522.183594 421.140625 " fill-opacity="1" fill-rule="nonzero"/><path fill="#fcfcfe" d="M 573.007812 266.15625 C 569.5 262.640625 569.5 256.957031 573.007812 253.449219 C 576.515625 249.941406 582.207031 249.941406 585.714844 253.449219 L 609.519531 277.253906 C 613.027344 280.761719 613.027344 286.453125 609.519531 289.960938 C 606.011719 293.46875 600.320312 293.46875 596.8125 289.960938 L 573.007812 266.15625 " fill-opacity="1" fill-rule="nonzero"/><path fill="#fcfcfe" d="M 560.308594 278.863281 C 556.796875 275.355469 556.796875 269.664062 560.308594 266.15625 C 563.816406 262.648438 569.5 262.640625 573.007812 266.15625 L 596.8125 289.960938 C 600.320312 293.46875 600.320312 299.160156 596.8125 302.664062 C 593.304688 306.179688 587.613281 306.179688 584.105469 302.664062 L 560.308594 278.863281 " fill-opacity="1" fill-rule="nonzero"/><path fill="#fcfcfe" d="M 547.605469 291.5625 C 544.097656 288.054688 544.097656 282.371094 547.605469 278.863281 C 551.105469 275.355469 556.796875 275.355469 560.308594 278.863281 L 584.105469 302.664062 C 587.613281 306.179688 587.613281 311.863281 584.105469 315.371094 C 580.597656 318.878906 574.914062 318.878906 571.40625 315.371094 L 547.605469 291.5625 " fill-opacity="1" fill-rule="nonzero"/><path fill="#fcfcfe" d="M 534.890625 304.273438 C 531.382812 300.769531 531.382812 295.078125 534.890625 291.5625 C 538.398438 288.054688 544.097656 288.054688 547.605469 291.5625 L 571.40625 315.371094 C 574.914062 318.878906 574.914062 324.578125 571.40625 328.085938 C 567.894531 331.59375 562.203125 331.59375 558.695312 328.085938 L 534.890625 304.273438 " fill-opacity="1" fill-rule="nonzero"/><path fill="#fcfcfe" d="M 522.191406 316.988281 C 518.679688 313.476562 518.683594 307.78125 522.191406 304.273438 C 525.699219 300.765625 531.382812 300.769531 534.890625 304.273438 L 558.695312 328.085938 C 562.203125 331.59375 562.203125 337.277344 558.695312 340.792969 C 555.195312 344.296875 549.503906 344.296875 545.996094 340.785156 L 522.191406 316.988281 " fill-opacity="1" fill-rule="nonzero"/><path fill="#d3d2d2" d="M 663.203125 199.753906 C 663.203125 199.753906 662.488281 200.554688 661.144531 202.066406 C 659.792969 203.566406 657.847656 205.800781 655.304688 208.585938 C 650.238281 214.167969 642.972656 222.113281 634.117188 231.519531 C 629.699219 236.230469 624.917969 241.328125 619.78125 246.65625 C 614.671875 252 609.300781 257.660156 603.652344 263.421875 C 598.007812 269.183594 592.253906 275.214844 586.269531 281.214844 C 580.308594 287.230469 574.25 293.347656 568.191406 299.453125 C 562.078125 305.511719 555.96875 311.574219 549.953125 317.542969 C 543.96875 323.53125 537.933594 329.28125 532.171875 334.925781 C 526.410156 340.574219 520.757812 345.949219 515.410156 351.066406 C 510.082031 356.195312 504.984375 360.980469 500.273438 365.402344 C 490.871094 374.253906 482.925781 381.519531 477.335938 386.585938 C 474.558594 389.125 472.324219 391.074219 470.820312 392.425781 C 469.308594 393.761719 468.507812 394.480469 468.507812 394.480469 C 468.507812 394.480469 469.222656 393.679688 470.566406 392.171875 C 471.917969 390.667969 473.863281 388.433594 476.40625 385.648438 C 481.472656 380.058594 488.730469 372.121094 497.585938 362.714844 C 502 357.996094 506.785156 352.898438 511.921875 347.578125 C 517.03125 342.226562 522.40625 336.566406 528.050781 330.8125 C 533.695312 325.050781 539.453125 319.007812 545.441406 313.019531 C 551.402344 307.003906 557.460938 300.894531 563.519531 294.78125 C 569.628906 288.722656 575.742188 282.667969 581.753906 276.699219 C 587.757812 270.722656 593.78125 264.960938 599.546875 259.3125 C 605.308594 253.660156 610.964844 248.292969 616.308594 243.183594 C 621.636719 238.046875 626.734375 233.265625 631.441406 228.847656 C 640.847656 219.988281 648.792969 212.726562 654.375 207.65625 C 657.15625 205.109375 659.386719 203.164062 660.890625 201.816406 C 662.402344 200.472656 663.203125 199.753906 663.203125 199.753906 " fill-opacity="1" fill-rule="nonzero"/><path fill="#b2b1b1" d="M 454.179688 408.738281 C 454.167969 408.726562 454.152344 408.71875 454.148438 408.707031 C 454.152344 408.710938 454.167969 408.726562 454.179688 408.738281 M 454.140625 408.699219 C 453.886719 408.449219 453.644531 408.183594 453.398438 407.910156 C 453.644531 408.183594 453.886719 408.449219 454.140625 408.699219 M 453.378906 407.890625 C 453.378906 407.890625 453.378906 407.890625 453.371094 407.886719 C 453.371094 407.890625 453.378906 407.890625 453.378906 407.890625 M 620.863281 379.039062 C 625.765625 375.125 630.539062 370.925781 635.15625 366.433594 C 635.1875 366.402344 635.222656 366.375 635.246094 366.34375 C 635.214844 366.375 635.1875 366.402344 635.15625 366.433594 C 630.539062 370.925781 625.765625 375.125 620.863281 379.039062 M 635.253906 366.339844 C 635.285156 366.304688 635.304688 366.28125 635.335938 366.253906 C 635.3125 366.28125 635.277344 366.3125 635.253906 366.339844 M 635.34375 366.246094 C 635.371094 366.214844 635.402344 366.191406 635.429688 366.15625 C 635.394531 366.191406 635.371094 366.214844 635.34375 366.246094 M 635.429688 366.15625 C 635.460938 366.125 635.484375 366.097656 635.511719 366.066406 C 635.484375 366.097656 635.460938 366.125 635.429688 366.15625 M 635.519531 366.066406 C 649.582031 351.523438 660.753906 335.40625 669.316406 318.890625 C 660.761719 335.398438 649.582031 351.523438 635.519531 366.066406 M 669.328125 318.878906 C 669.339844 318.855469 669.351562 318.828125 669.367188 318.800781 C 669.351562 318.828125 669.339844 318.855469 669.328125 318.878906 " fill-opacity="1" fill-rule="nonzero"/><path fill="#6e2520" d="M 490.171875 422.304688 C 474.273438 420.78125 461.550781 416.109375 454.210938 408.769531 C 454.199219 408.757812 454.1875 408.746094 454.179688 408.738281 C 454.167969 408.726562 454.152344 408.710938 454.148438 408.707031 C 454.148438 408.707031 454.148438 408.707031 454.140625 408.699219 C 453.886719 408.449219 453.644531 408.183594 453.398438 407.910156 C 453.390625 407.90625 453.382812 407.898438 453.378906 407.890625 C 453.378906 407.890625 453.371094 407.890625 453.371094 407.886719 C 453.367188 407.871094 453.351562 407.859375 453.339844 407.847656 C 452.242188 406.625 451.214844 405.230469 450.257812 403.6875 C 464.644531 401.101562 477.976562 396.242188 490.179688 389.128906 L 507.109375 406.058594 C 503.574219 408.90625 500.191406 411.929688 496.960938 415.109375 C 496.691406 415.378906 496.417969 415.652344 496.148438 415.921875 C 494.085938 417.984375 492.089844 420.117188 490.171875 422.304688 M 444.566406 389.71875 C 443.796875 386.785156 443.160156 383.632812 442.65625 380.292969 C 445.890625 378.378906 448.980469 376.253906 451.910156 373.9375 C 459.875 375.390625 468.492188 376.28125 477.574219 376.527344 L 479.359375 378.308594 C 468.6875 383.988281 457.078125 387.800781 444.566406 389.71875 M 545.839844 384.183594 L 532.183594 370.53125 C 553.855469 365.226562 575.980469 356.246094 596.65625 342.765625 C 621.972656 325.222656 641.648438 302.949219 655.761719 279.953125 L 677.035156 301.230469 C 683.675781 284.890625 687.855469 268.597656 689.855469 253.449219 L 675.160156 238.742188 C 680.832031 221.773438 683.351562 205.761719 682.75 192.460938 C 697.03125 216.847656 694.867188 269.539062 669.367188 318.800781 C 669.351562 318.828125 669.339844 318.855469 669.328125 318.878906 C 669.320312 318.878906 669.320312 318.886719 669.316406 318.890625 C 660.753906 335.40625 649.582031 351.523438 635.519531 366.066406 L 635.511719 366.066406 C 635.484375 366.097656 635.460938 366.125 635.429688 366.15625 C 635.402344 366.191406 635.371094 366.214844 635.34375 366.246094 C 635.335938 366.246094 635.335938 366.246094 635.335938 366.253906 C 635.304688 366.28125 635.285156 366.304688 635.253906 366.339844 L 635.246094 366.34375 C 635.222656 366.375 635.1875 366.402344 635.15625 366.433594 C 630.539062 370.925781 625.765625 375.125 620.863281 379.039062 C 611.644531 377.070312 602.089844 376.035156 592.285156 376.035156 C 575.972656 376.035156 560.328125 378.910156 545.839844 384.183594 " fill-opacity="1" fill-rule="nonzero"/><path fill="#949294" d="M 677.035156 301.230469 L 655.761719 279.953125 C 664.21875 266.1875 670.675781 252.167969 675.160156 238.742188 L 689.855469 253.449219 C 687.855469 268.597656 683.675781 284.890625 677.035156 301.230469 " fill-opacity="1" fill-rule="nonzero"/><path fill="#949294" d="M 507.109375 406.058594 L 490.179688 389.128906 C 497.148438 385.066406 503.75 380.265625 509.976562 374.738281 C 517.277344 373.75 524.703125 372.359375 532.183594 370.53125 L 545.839844 384.183594 C 531.675781 389.335938 518.621094 396.78125 507.109375 406.058594 M 479.359375 378.308594 L 477.574219 376.527344 C 479.183594 376.570312 480.804688 376.597656 482.441406 376.597656 C 481.417969 377.183594 480.390625 377.753906 479.359375 378.308594 " fill-opacity="1" fill-rule="nonzero"/><path fill="#c68878" d="M 505.992188 226.289062 C 523.476562 211.589844 543.023438 201.054688 562.222656 194.113281 C 562.078125 197.34375 561.859375 201.316406 561.503906 205.90625 C 542.933594 209.464844 523.929688 215.976562 505.992188 226.289062 M 671.109375 223.367188 C 666.699219 219.078125 660.246094 215.175781 652.25 211.945312 C 653.339844 210.742188 654.359375 209.625 655.304688 208.585938 C 657.847656 205.800781 659.792969 203.566406 661.144531 202.066406 C 662.074219 201.019531 662.699219 200.316406 663.003906 199.980469 C 666.820312 205.976562 669.574219 213.980469 671.109375 223.367188 M 650.445312 211.234375 C 649.042969 210.699219 647.605469 210.179688 646.117188 209.691406 L 619.890625 183.460938 C 637.203125 183.582031 650.980469 187.3125 658.023438 193.894531 C 659.839844 195.582031 661.492188 197.617188 662.984375 199.953125 C 662.648438 200.246094 661.945312 200.878906 660.890625 201.816406 C 659.386719 203.164062 657.15625 205.109375 654.375 207.65625 C 653.171875 208.746094 651.859375 209.941406 650.445312 211.234375 M 576.492188 203.648438 C 576.550781 202.679688 576.605469 201.746094 576.660156 200.839844 L 579.191406 203.371094 C 578.292969 203.457031 577.390625 203.554688 576.492188 203.648438 " fill-opacity="1" fill-rule="nonzero"/><path fill="#e7e6e8" d="M 646.117188 209.691406 C 632.664062 205.226562 615.816406 202.492188 597.367188 202.492188 C 591.457031 202.492188 585.371094 202.777344 579.191406 203.371094 L 576.660156 200.839844 C 576.929688 196.070312 577.054688 192.1875 577.105469 189.410156 C 592.097656 185.347656 606.484375 183.460938 619.054688 183.460938 C 619.332031 183.460938 619.613281 183.460938 619.890625 183.460938 L 646.117188 209.691406 " fill-opacity="1" fill-rule="nonzero"/><path fill="#e8e8e9" d="M 652.25 211.945312 C 651.652344 211.699219 651.054688 211.46875 650.445312 211.234375 C 651.859375 209.941406 653.171875 208.746094 654.375 207.65625 C 657.15625 205.109375 659.386719 203.164062 660.890625 201.816406 C 661.945312 200.878906 662.648438 200.246094 662.984375 199.953125 C 662.992188 199.960938 662.996094 199.972656 663.003906 199.980469 C 662.699219 200.316406 662.074219 201.019531 661.144531 202.066406 C 659.792969 203.566406 657.847656 205.800781 655.304688 208.585938 C 654.359375 209.625 653.339844 210.742188 652.25 211.945312 " fill-opacity="1" fill-rule="nonzero"/><path fill="#f25738" d="M 408.652344 362.527344 C 408.652344 452.773438 335.496094 525.929688 245.269531 525.929688 C 155.042969 525.929688 81.894531 452.773438 81.894531 362.527344 C 81.894531 272.28125 155.042969 199.121094 245.269531 199.121094 C 335.496094 199.121094 408.652344 272.28125 408.652344 362.527344 " fill-opacity="1" fill-rule="nonzero"/><path fill="#712616" d="M 282.363281 521.449219 C 282.363281 521.449219 280.570312 521.507812 277.234375 521.617188 C 273.894531 521.667969 268.914062 521.570312 262.652344 520.808594 C 256.414062 519.929688 248.816406 518.457031 240.464844 515.460938 C 232.113281 512.519531 222.972656 508.179688 213.871094 502.039062 C 204.691406 496 195.660156 488.078125 187.320312 478.613281 C 179.015625 469.136719 171.367188 458.101562 165.191406 445.789062 C 159.011719 433.488281 153.90625 420.089844 150.722656 405.96875 L 150.09375 403.332031 L 149.574219 400.65625 C 149.222656 398.875 148.882812 397.089844 148.539062 395.308594 C 148.027344 391.703125 147.34375 388.109375 147.015625 384.464844 C 146.085938 377.210938 145.824219 369.859375 145.675781 362.527344 L 145.804688 357.054688 L 145.878906 354.386719 L 146.050781 351.609375 L 146.421875 346.046875 L 147.007812 340.582031 C 147.335938 336.9375 148.023438 333.34375 148.53125 329.738281 C 148.875 327.949219 149.21875 326.167969 149.566406 324.382812 L 150.089844 321.722656 L 150.714844 319.078125 C 153.875 304.949219 159.003906 291.558594 165.179688 279.257812 C 171.359375 266.945312 178.988281 255.894531 187.308594 246.425781 C 195.65625 236.960938 204.679688 229.035156 213.859375 222.992188 C 222.972656 216.863281 232.105469 212.515625 240.464844 209.574219 C 248.816406 206.582031 256.414062 205.105469 262.652344 204.230469 C 268.925781 203.46875 273.875 203.371094 277.21875 203.429688 C 280.570312 203.539062 282.363281 203.605469 282.363281 203.605469 C 282.363281 203.605469 280.585938 203.773438 277.257812 204.089844 C 273.9375 204.40625 269.09375 205.175781 263.066406 206.5 C 257.058594 207.972656 249.894531 210.195312 242.113281 213.683594 C 234.339844 217.199219 226.019531 222.070312 217.734375 228.394531 C 215.632812 229.929688 213.664062 231.734375 211.566406 233.433594 C 209.589844 235.285156 207.496094 237.082031 205.539062 239.097656 C 203.582031 241.109375 201.539062 243.085938 199.640625 245.273438 C 197.65625 247.382812 195.824219 249.675781 193.929688 251.972656 C 190.253906 256.652344 186.667969 261.605469 183.453125 266.96875 C 181.78125 269.597656 180.273438 272.375 178.691406 275.140625 C 177.882812 276.511719 177.21875 277.972656 176.476562 279.394531 C 175.753906 280.832031 174.976562 282.25 174.332031 283.734375 C 171.542969 289.585938 169.15625 295.75 166.972656 302.050781 C 166.453125 303.632812 165.984375 305.242188 165.480469 306.84375 C 164.972656 308.4375 164.488281 310.046875 164.085938 311.6875 C 163.648438 313.316406 163.203125 314.945312 162.75 316.578125 C 162.375 318.234375 161.996094 319.886719 161.613281 321.546875 L 161.042969 324.035156 L 160.578125 326.554688 C 160.269531 328.234375 159.960938 329.921875 159.648438 331.605469 C 159.214844 335.003906 158.589844 338.390625 158.320312 341.828125 L 157.816406 346.976562 L 157.523438 352.074219 C 157.257812 355.347656 157.355469 359.25 157.246094 362.527344 C 157.332031 369.4375 157.5 376.371094 158.3125 383.21875 C 158.582031 386.65625 159.210938 390.042969 159.648438 393.441406 C 159.960938 395.132812 160.261719 396.8125 160.574219 398.492188 L 161.039062 401.011719 L 161.605469 403.5 C 161.988281 405.160156 162.367188 406.8125 162.742188 408.46875 C 163.1875 410.101562 163.636719 411.734375 164.074219 413.359375 C 164.476562 415 164.960938 416.613281 165.46875 418.210938 C 165.964844 419.8125 166.4375 421.414062 166.96875 423.003906 C 169.144531 429.300781 171.527344 435.457031 174.320312 441.3125 C 177.101562 447.164062 180.144531 452.792969 183.433594 458.097656 C 186.65625 463.445312 190.242188 468.40625 193.921875 473.085938 C 195.808594 475.378906 197.644531 477.679688 199.628906 479.777344 C 201.527344 481.96875 203.566406 483.957031 205.523438 485.96875 C 207.480469 487.976562 209.574219 489.765625 211.550781 491.625 C 213.652344 493.324219 215.628906 495.128906 217.726562 496.664062 C 226.015625 502.984375 234.335938 507.867188 242.105469 511.375 C 249.894531 514.859375 257.058594 517.085938 263.066406 518.554688 C 269.105469 519.871094 273.90625 520.640625 277.253906 520.957031 C 280.585938 521.273438 282.363281 521.449219 282.363281 521.449219 " fill-opacity="1" fill-rule="nonzero"/><path fill="#712616" d="M 95.570312 427.996094 L 100.964844 429.410156 L 103.652344 430.136719 L 106.363281 430.722656 L 111.746094 431.9375 L 117.183594 432.914062 C 120.789062 433.617188 124.453125 434.03125 128.074219 434.574219 C 131.710938 435.027344 135.367188 435.324219 139.003906 435.652344 C 142.667969 435.8125 146.296875 436.183594 149.953125 436.242188 C 153.617188 436.265625 157.253906 436.484375 160.910156 436.332031 L 166.378906 436.214844 L 167.75 436.207031 L 168.09375 436.203125 L 168.355469 436.1875 L 169.054688 436.148438 L 171.824219 436.015625 L 177.378906 435.742188 C 179.226562 435.644531 181 435.453125 182.808594 435.308594 L 188.214844 434.839844 L 193.644531 434.1875 C 195.453125 433.941406 197.269531 433.796875 199.070312 433.535156 L 204.484375 432.746094 C 211.695312 431.679688 218.878906 430.382812 226.007812 428.894531 C 229.585938 428.203125 233.121094 427.285156 236.679688 426.511719 C 240.230469 425.710938 243.746094 424.722656 247.28125 423.828125 L 257.808594 420.882812 L 268.246094 417.621094 C 271.691406 416.433594 275.164062 415.328125 278.59375 414.101562 C 282.007812 412.816406 285.460938 411.640625 288.832031 410.269531 C 295.628906 407.640625 302.359375 404.847656 308.96875 401.792969 L 313.941406 399.53125 L 318.839844 397.121094 C 322.125 395.550781 325.316406 393.816406 328.546875 392.136719 C 331.785156 390.46875 334.890625 388.589844 338.074219 386.824219 C 341.175781 384.9375 344.347656 383.140625 347.382812 381.152344 C 353.519531 377.261719 359.390625 373 365.09375 368.527344 C 370.707031 363.972656 376.246094 359.238281 381.070312 353.871094 C 385.992188 348.597656 390.4375 342.847656 393.957031 336.523438 C 397.488281 330.222656 399.984375 323.234375 400.605469 315.824219 L 400.605469 315.816406 L 400.648438 315.746094 L 401.644531 315.144531 L 400.757812 315.90625 L 400.804688 315.824219 L 400.875 321.4375 L 400.214844 327.058594 L 398.871094 332.574219 C 398.308594 334.382812 397.621094 336.15625 396.992188 337.957031 C 394.125 345.011719 390.042969 351.511719 385.5 357.605469 C 380.894531 363.671875 375.566406 369.089844 370.09375 374.335938 C 367.304688 376.886719 364.46875 379.414062 361.492188 381.746094 C 358.585938 384.167969 355.542969 386.40625 352.503906 388.652344 C 349.476562 390.914062 346.3125 392.976562 343.210938 395.125 C 340 397.097656 336.847656 399.191406 333.578125 401.0625 C 330.316406 402.949219 327.074219 404.882812 323.722656 406.601562 L 318.730469 409.25 L 313.664062 411.75 C 306.914062 415.082031 299.996094 418.0625 293.039062 420.917969 C 289.558594 422.351562 286.003906 423.589844 282.492188 424.933594 C 278.957031 426.21875 275.386719 427.402344 271.824219 428.628906 L 261.039062 431.925781 C 257.410156 432.902344 253.796875 433.964844 250.152344 434.871094 C 242.84375 436.652344 235.511719 438.328125 228.09375 439.632812 C 220.691406 440.945312 213.25 442.085938 205.765625 442.824219 C 202.015625 443.21875 198.285156 443.617188 194.523438 443.792969 L 188.886719 444.136719 L 183.199219 444.277344 C 181.316406 444.316406 179.394531 444.40625 177.535156 444.394531 L 171.988281 444.328125 L 169.203125 444.296875 L 168.511719 444.285156 L 168.085938 444.277344 L 167.730469 444.265625 L 166.328125 444.195312 L 160.6875 443.859375 C 153.183594 443.367188 145.710938 442.441406 138.308594 441.246094 C 134.617188 440.511719 130.929688 439.8125 127.28125 438.953125 C 123.648438 437.996094 119.988281 437.234375 116.441406 436.007812 C 109.25 433.933594 102.300781 431.070312 95.570312 427.996094 " fill-opacity="1" fill-rule="nonzero"/><path fill="#712616" d="M 348.242188 235.667969 L 339.535156 234.988281 C 336.632812 234.816406 333.742188 234.765625 330.867188 234.609375 C 329.007812 234.550781 327.140625 234.5625 325.277344 234.578125 C 324.25 234.582031 323.230469 234.589844 322.210938 234.582031 C 319.335938 234.671875 316.46875 234.878906 313.605469 234.988281 C 310.757812 235.292969 307.902344 235.511719 305.085938 235.921875 C 302.28125 236.429688 299.453125 236.742188 296.707031 237.464844 L 292.582031 238.394531 L 288.53125 239.582031 L 286.507812 240.175781 L 284.542969 240.914062 C 283.238281 241.40625 281.914062 241.863281 280.625 242.386719 C 275.488281 244.570312 270.65625 247.296875 266.101562 250.367188 C 261.605469 253.542969 257.5 257.207031 253.804688 261.25 C 250.0625 265.269531 246.945312 269.84375 244.0625 274.542969 C 241.167969 279.238281 238.6875 284.21875 236.574219 289.394531 C 234.449219 294.554688 232.570312 299.847656 231.027344 305.285156 C 229.488281 310.71875 228.015625 316.183594 226.804688 321.753906 C 225.574219 327.324219 224.484375 332.9375 223.496094 338.601562 L 222.773438 342.855469 L 222.589844 343.921875 L 222.4375 344.703125 L 222.328125 345.238281 L 221.878906 347.371094 C 221.769531 348.023438 221.5 348.902344 221.242188 349.746094 L 220.460938 352.28125 C 219.8125 353.855469 219.246094 355.425781 218.457031 356.925781 C 217.675781 358.4375 216.867188 359.929688 215.859375 361.304688 C 214.949219 362.746094 213.820312 364.019531 212.742188 365.332031 C 210.433594 367.796875 207.941406 370.125 205.164062 371.945312 C 202.417969 373.820312 199.523438 375.410156 196.546875 376.644531 C 193.574219 377.933594 190.539062 378.929688 187.488281 379.703125 C 181.378906 381.269531 175.210938 382.054688 169.085938 382.242188 C 166.023438 382.328125 162.96875 382.289062 159.925781 382.121094 C 156.839844 381.941406 153.933594 381.703125 150.65625 381.199219 L 152.054688 381.222656 C 150.988281 381.3125 150.257812 381.332031 149.398438 381.347656 C 148.578125 381.359375 147.757812 381.347656 146.949219 381.3125 C 145.328125 381.261719 143.726562 381.121094 142.125 380.9375 C 138.925781 380.550781 135.761719 379.878906 132.660156 378.941406 C 129.542969 378.058594 126.539062 376.71875 123.65625 375.167969 C 122.234375 374.347656 120.816406 373.542969 119.496094 372.554688 C 118.113281 371.65625 116.875 370.570312 115.628906 369.511719 C 114.367188 368.457031 113.289062 367.203125 112.125 366.058594 C 111.105469 364.78125 110.019531 363.546875 109.089844 362.214844 C 107.238281 359.542969 105.648438 356.726562 104.375 353.796875 C 103.804688 352.3125 103.097656 350.867188 102.664062 349.355469 C 102.222656 347.839844 101.746094 346.335938 101.371094 344.816406 L 100.460938 340.230469 C 100.195312 338.707031 100.085938 337.167969 99.890625 335.644531 C 99.671875 334.113281 99.609375 332.582031 99.5625 331.058594 C 99.523438 329.539062 99.402344 328.015625 99.441406 326.496094 C 99.570312 323.464844 99.515625 320.429688 99.898438 317.445312 L 100.371094 312.96875 C 100.570312 311.480469 100.839844 310.007812 101.074219 308.53125 C 101.320312 307.058594 101.53125 305.578125 101.816406 304.117188 L 102.761719 299.757812 C 103.082031 298.300781 103.375 296.84375 103.722656 295.402344 L 104.90625 291.113281 L 106.09375 286.835938 C 106.519531 285.421875 106.996094 284.019531 107.441406 282.609375 C 108.375 279.800781 109.199219 276.96875 110.304688 274.230469 L 113.449219 265.972656 L 111.449219 274.566406 C 110.730469 277.414062 110.253906 280.316406 109.625 283.171875 C 109.34375 284.605469 109.027344 286.039062 108.761719 287.476562 L 108.0625 291.804688 L 107.359375 296.117188 C 107.144531 297.558594 106.996094 299.007812 106.808594 300.449219 L 106.28125 304.769531 C 106.136719 306.21875 106.066406 307.65625 105.957031 309.097656 C 105.859375 310.539062 105.730469 311.980469 105.667969 313.421875 L 105.613281 317.734375 C 105.472656 320.605469 105.71875 323.453125 105.800781 326.296875 C 105.867188 327.71875 106.09375 329.121094 106.222656 330.519531 C 106.363281 331.929688 106.519531 333.324219 106.824219 334.699219 C 107.101562 336.070312 107.292969 337.460938 107.636719 338.804688 L 108.730469 342.796875 C 109.15625 344.101562 109.679688 345.367188 110.125 346.648438 C 110.5625 347.9375 111.242188 349.109375 111.769531 350.347656 C 112.964844 352.75 114.398438 354.988281 116.003906 357.0625 C 116.804688 358.101562 117.734375 359.023438 118.578125 360.007812 C 119.566406 360.851562 120.453125 361.808594 121.492188 362.589844 C 122.527344 363.371094 123.535156 364.179688 124.664062 364.828125 C 125.730469 365.554688 126.90625 366.125 128.0625 366.71875 C 130.417969 367.804688 132.847656 368.78125 135.398438 369.433594 C 137.945312 370.109375 140.5625 370.589844 143.203125 370.820312 C 144.527344 370.929688 145.851562 371.007812 147.164062 371.007812 C 147.820312 371.007812 148.472656 371.003906 149.121094 370.96875 C 149.726562 370.949219 150.464844 370.886719 150.863281 370.839844 C 151.257812 370.796875 151.644531 370.796875 152.019531 370.839844 L 152.257812 370.875 C 154.738281 371.171875 157.632812 371.34375 160.351562 371.410156 C 163.105469 371.472656 165.863281 371.421875 168.609375 371.253906 C 174.078125 370.929688 179.507812 370.242188 184.636719 368.839844 C 187.199219 368.160156 189.691406 367.3125 192.042969 366.261719 C 194.421875 365.246094 196.625 363.988281 198.660156 362.566406 C 200.746094 361.1875 202.484375 359.46875 204.128906 357.707031 C 205.691406 355.867188 207.050781 353.871094 208.140625 351.710938 C 208.722656 350.652344 209.136719 349.46875 209.625 348.371094 L 210.148438 346.75 C 210.332031 346.214844 210.523438 345.722656 210.667969 344.941406 L 211.136719 342.816406 L 211.253906 342.277344 L 211.3125 342.015625 C 211.339844 341.878906 211.320312 341.976562 211.304688 342.078125 C 211.285156 342.148438 211.273438 342.226562 211.28125 342.195312 L 211.292969 342.128906 L 211.3125 341.996094 L 211.511719 340.910156 L 212.292969 336.582031 C 213.367188 330.8125 214.542969 325.03125 215.878906 319.265625 C 217.222656 313.496094 218.746094 307.742188 220.601562 302.0625 C 222.417969 296.371094 224.601562 290.757812 227.066406 285.253906 C 229.523438 279.75 232.402344 274.378906 235.753906 269.28125 C 239.128906 264.210938 242.914062 259.351562 247.304688 255.050781 C 251.671875 250.742188 256.484375 246.878906 261.671875 243.609375 C 266.902344 240.421875 272.484375 237.902344 278.203125 235.921875 C 279.636719 235.449219 281.09375 235.054688 282.535156 234.621094 L 284.707031 233.996094 L 286.910156 233.503906 L 291.308594 232.554688 L 295.738281 231.910156 C 298.691406 231.417969 301.667969 231.351562 304.621094 231.101562 C 307.585938 230.9375 310.542969 230.984375 313.496094 230.933594 C 316.441406 231.070312 319.382812 231.152344 322.308594 231.40625 C 325.226562 231.742188 328.148438 231.980469 331.054688 232.394531 C 333.949219 232.851562 336.847656 233.269531 339.703125 233.828125 L 348.242188 235.667969 " fill-opacity="1" fill-rule="nonzero"/><path fill="#a93b25" d="M 373.488281 391.152344 C 367.632812 391.054688 361.949219 390.589844 356.433594 389.757812 C 357.316406 387.785156 358.164062 385.789062 358.972656 383.78125 C 359.746094 383.175781 360.515625 382.554688 361.269531 381.925781 C 365.167969 384.019531 369.242188 385.816406 373.472656 387.277344 L 373.488281 391.152344 " fill-opacity="1" fill-rule="nonzero"/><path fill="#541b0f" d="M 358.972656 383.78125 C 359.3125 382.929688 359.648438 382.074219 359.980469 381.214844 C 360.40625 381.457031 360.839844 381.695312 361.269531 381.925781 C 360.515625 382.554688 359.746094 383.175781 358.972656 383.78125 " fill-opacity="1" fill-rule="nonzero"/><path fill="#a93b25" d="M 232.074219 522.160156 C 228.277344 516.371094 223.464844 511.109375 217.675781 506.640625 C 206.0625 497.679688 192.339844 493.34375 178.722656 493.34375 C 170.339844 493.34375 162 494.984375 154.21875 498.210938 C 136.828125 486.515625 121.816406 471.566406 110.046875 454.238281 C 133.90625 471.941406 162.75 483.304688 194.097656 485.820312 C 200.460938 492.148438 207.128906 497.601562 213.871094 502.039062 C 222.320312 507.734375 230.789062 511.886719 238.644531 514.800781 C 236.375 516.984375 234.238281 519.355469 232.261719 521.925781 C 232.195312 522.003906 232.136719 522.082031 232.074219 522.160156 M 242.371094 511.492188 C 242.28125 511.453125 242.195312 511.414062 242.105469 511.375 C 234.335938 507.867188 226.015625 502.984375 217.726562 496.664062 C 215.628906 495.128906 213.652344 493.324219 211.550781 491.625 C 209.699219 489.882812 207.742188 488.195312 205.894531 486.335938 C 206.359375 486.339844 206.824219 486.339844 207.289062 486.339844 C 268.234375 486.339844 321.390625 452.960938 349.476562 403.492188 C 357.1875 404.941406 365.210938 405.726562 373.53125 405.851562 L 373.679688 457.25 L 362.363281 457.25 L 362.363281 476.484375 C 358.453125 480.5 354.339844 484.3125 350.039062 487.910156 L 338.539062 487.910156 L 338.539062 496.703125 C 332.34375 501.011719 325.847656 504.910156 319.070312 508.347656 C 308.0625 500.75 295.421875 497.058594 282.867188 497.058594 C 268.355469 497.058594 253.964844 501.984375 242.371094 511.492188 " fill-opacity="1" fill-rule="nonzero"/><path fill="#541b0f" d="M 238.644531 514.800781 C 230.789062 511.886719 222.320312 507.734375 213.871094 502.039062 C 207.128906 497.601562 200.460938 492.148438 194.097656 485.820312 C 197.992188 486.128906 201.921875 486.304688 205.894531 486.335938 C 207.742188 488.195312 209.699219 489.882812 211.550781 491.625 C 213.652344 493.324219 215.628906 495.128906 217.726562 496.664062 C 226.015625 502.984375 234.335938 507.867188 242.105469 511.375 C 242.195312 511.414062 242.28125 511.453125 242.371094 511.492188 C 241.089844 512.539062 239.851562 513.644531 238.644531 514.800781 " fill-opacity="1" fill-rule="nonzero"/><path fill="#f47552" d="M 114.640625 381.199219 C 112.121094 381.199219 109.386719 380.113281 106.332031 377.734375 C 91.675781 366.363281 90.285156 341.605469 100.285156 313.769531 L 99.898438 317.445312 C 99.515625 320.429688 99.570312 323.464844 99.441406 326.496094 C 99.402344 328.015625 99.523438 329.539062 99.5625 331.058594 C 99.609375 332.582031 99.671875 334.113281 99.890625 335.644531 C 100.085938 337.167969 100.195312 338.707031 100.460938 340.230469 L 101.371094 344.816406 C 101.746094 346.335938 102.222656 347.839844 102.664062 349.355469 C 103.097656 350.867188 103.804688 352.3125 104.375 353.796875 C 105.648438 356.726562 107.238281 359.542969 109.089844 362.214844 C 110.019531 363.546875 111.105469 364.78125 112.125 366.058594 C 113.289062 367.203125 114.367188 368.457031 115.628906 369.511719 C 116.875 370.570312 118.113281 371.65625 119.496094 372.554688 C 120.816406 373.542969 122.234375 374.347656 123.65625 375.167969 C 123.835938 375.265625 124.011719 375.363281 124.191406 375.453125 C 121.207031 379.109375 118.128906 381.199219 114.640625 381.199219 M 129.488281 367.359375 C 129.011719 367.152344 128.535156 366.9375 128.0625 366.71875 C 126.90625 366.125 125.730469 365.554688 124.664062 364.828125 C 123.535156 364.179688 122.527344 363.371094 121.492188 362.589844 C 120.453125 361.808594 119.566406 360.851562 118.578125 360.007812 C 117.734375 359.023438 116.804688 358.101562 116.003906 357.0625 C 114.398438 354.988281 112.964844 352.75 111.769531 350.347656 C 111.242188 349.109375 110.5625 347.9375 110.125 346.648438 C 109.679688 345.367188 109.15625 344.101562 108.730469 342.796875 L 107.636719 338.804688 C 107.292969 337.460938 107.101562 336.070312 106.824219 334.699219 C 106.519531 333.324219 106.363281 331.929688 106.222656 330.519531 C 106.09375 329.121094 105.867188 327.71875 105.800781 326.296875 C 105.71875 323.453125 105.472656 320.605469 105.613281 317.734375 L 105.667969 313.421875 C 105.730469 311.980469 105.859375 310.539062 105.957031 309.097656 C 106.066406 307.65625 106.136719 306.21875 106.28125 304.769531 L 106.808594 300.449219 C 106.925781 299.5625 107.023438 298.675781 107.132812 297.785156 C 112.191406 287.617188 118.632812 277.304688 126.382812 267.3125 C 152 234.296875 184.523438 214.25 208.585938 214.25 C 213.929688 214.25 218.859375 215.246094 223.199219 217.300781 C 220.105469 219 216.976562 220.886719 213.859375 222.992188 C 204.679688 229.035156 195.65625 236.960938 187.308594 246.425781 C 178.988281 255.894531 171.359375 266.945312 165.179688 279.257812 C 159.003906 291.558594 153.875 304.949219 150.714844 319.078125 L 150.089844 321.722656 L 149.566406 324.382812 C 149.3125 325.675781 149.070312 326.960938 148.816406 328.253906 C 140.789062 343.363281 134.992188 357.507812 129.488281 367.359375 M 168.609375 297.476562 C 170.347656 292.765625 172.226562 288.167969 174.332031 283.734375 C 174.976562 282.25 175.753906 280.832031 176.476562 279.394531 C 177.21875 277.972656 177.882812 276.511719 178.691406 275.140625 C 180.273438 272.375 181.78125 269.597656 183.453125 266.96875 C 186.667969 261.605469 190.253906 256.652344 193.929688 251.972656 C 195.824219 249.675781 197.65625 247.382812 199.640625 245.273438 C 201.539062 243.085938 203.582031 241.109375 205.539062 239.097656 C 207.496094 237.082031 209.589844 235.285156 211.566406 233.433594 C 213.664062 231.734375 215.632812 229.929688 217.734375 228.394531 C 220.480469 226.300781 223.230469 224.363281 225.964844 222.578125 C 226.601562 228.277344 227.421875 234.441406 228.464844 240.925781 C 216.957031 254.027344 189.847656 270.8125 168.609375 297.476562 " fill-opacity="1" fill-rule="nonzero"/><path fill="#8b412c" d="M 148.816406 328.253906 C 149.070312 326.960938 149.3125 325.675781 149.566406 324.382812 L 150.089844 321.722656 L 150.714844 319.078125 C 153.875 304.949219 159.003906 291.558594 165.179688 279.257812 C 171.359375 266.945312 178.988281 255.894531 187.308594 246.425781 C 195.65625 236.960938 204.679688 229.035156 213.859375 222.992188 C 216.976562 220.886719 220.105469 219 223.199219 217.300781 C 224 217.675781 224.769531 218.089844 225.523438 218.535156 C 225.660156 219.859375 225.808594 221.203125 225.964844 222.578125 C 223.230469 224.363281 220.480469 226.300781 217.734375 228.394531 C 215.632812 229.929688 213.664062 231.734375 211.566406 233.433594 C 209.589844 235.285156 207.496094 237.082031 205.539062 239.097656 C 203.582031 241.109375 201.539062 243.085938 199.640625 245.273438 C 197.65625 247.382812 195.824219 249.675781 193.929688 251.972656 C 190.253906 256.652344 186.667969 261.605469 183.453125 266.96875 C 181.78125 269.597656 180.273438 272.375 178.691406 275.140625 C 177.882812 276.511719 177.21875 277.972656 176.476562 279.394531 C 175.753906 280.832031 174.976562 282.25 174.332031 283.734375 C 172.226562 288.167969 170.347656 292.765625 168.609375 297.476562 C 168.183594 298.011719 167.761719 298.546875 167.34375 299.089844 C 159.925781 308.644531 153.917969 318.648438 148.816406 328.253906 " fill-opacity="1" fill-rule="nonzero"/><path fill="#8b412c" d="M 124.191406 375.453125 C 124.011719 375.363281 123.835938 375.265625 123.65625 375.167969 C 122.234375 374.347656 120.816406 373.542969 119.496094 372.554688 C 118.113281 371.65625 116.875 370.570312 115.628906 369.511719 C 114.367188 368.457031 113.289062 367.203125 112.125 366.058594 C 111.105469 364.78125 110.019531 363.546875 109.089844 362.214844 C 107.238281 359.542969 105.648438 356.726562 104.375 353.796875 C 103.804688 352.3125 103.097656 350.867188 102.664062 349.355469 C 102.222656 347.839844 101.746094 346.335938 101.371094 344.816406 L 100.460938 340.230469 C 100.195312 338.707031 100.085938 337.167969 99.890625 335.644531 C 99.671875 334.113281 99.609375 332.582031 99.5625 331.058594 C 99.523438 329.539062 99.402344 328.015625 99.441406 326.496094 C 99.570312 323.464844 99.515625 320.429688 99.898438 317.445312 L 100.285156 313.769531 C 102.171875 308.53125 104.457031 303.179688 107.132812 297.785156 C 107.023438 298.675781 106.925781 299.5625 106.808594 300.449219 L 106.28125 304.769531 C 106.136719 306.21875 106.066406 307.65625 105.957031 309.097656 C 105.859375 310.539062 105.730469 311.980469 105.667969 313.421875 L 105.613281 317.734375 C 105.472656 320.605469 105.71875 323.453125 105.800781 326.296875 C 105.867188 327.71875 106.09375 329.121094 106.222656 330.519531 C 106.363281 331.929688 106.519531 333.324219 106.824219 334.699219 C 107.101562 336.070312 107.292969 337.460938 107.636719 338.804688 L 108.730469 342.796875 C 109.15625 344.101562 109.679688 345.367188 110.125 346.648438 C 110.5625 347.9375 111.242188 349.109375 111.769531 350.347656 C 112.964844 352.75 114.398438 354.988281 116.003906 357.0625 C 116.804688 358.101562 117.734375 359.023438 118.578125 360.007812 C 119.566406 360.851562 120.453125 361.808594 121.492188 362.589844 C 122.527344 363.371094 123.535156 364.179688 124.664062 364.828125 C 125.730469 365.554688 126.90625 366.125 128.0625 366.71875 C 128.535156 366.9375 129.011719 367.152344 129.488281 367.359375 C 127.714844 370.542969 125.96875 373.277344 124.191406 375.453125 " fill-opacity="1" fill-rule="nonzero"/><g clip-path="url(#91bc85457f)"><path fill="#d0d0d2" d="M 728.109375 511.875 C 728.109375 586.894531 667.300781 647.710938 592.285156 647.710938 C 517.277344 647.710938 456.464844 586.894531 456.464844 511.875 C 456.464844 436.847656 517.277344 376.035156 592.285156 376.035156 C 667.300781 376.035156 728.109375 436.847656 728.109375 511.875 " fill-opacity="1" fill-rule="nonzero"/></g><path fill="#131113" d="M 639.234375 593.328125 C 633.082031 582.105469 626.113281 569.410156 618.632812 555.816406 C 626.675781 541.984375 634.730469 527.519531 642.328125 513.277344 C 657.433594 513.257812 671.757812 513.238281 684.539062 513.203125 C 690.929688 526.726562 696.503906 539.71875 701.21875 551.695312 C 694.835938 564.804688 687.550781 577.917969 679.675781 590.03125 C 667.175781 591.480469 653.507812 592.578125 639.234375 593.328125 M 612.714844 625.230469 C 599.195312 625.546875 585.515625 625.546875 571.996094 625.230469 C 564.464844 616.964844 556.355469 606.472656 548.183594 594.605469 C 554.394531 583.449219 561.425781 570.773438 568.941406 557.214844 C 584.4375 557.433594 600.289062 557.433594 615.785156 557.214844 C 623.296875 570.773438 630.324219 583.4375 636.527344 594.59375 C 628.367188 606.46875 620.253906 616.964844 612.714844 625.230469 M 505.320312 590.089844 C 497.4375 577.964844 490.125 564.855469 483.726562 551.734375 C 488.464844 539.746094 494.066406 526.738281 500.476562 513.203125 C 513.285156 513.238281 527.628906 513.257812 542.753906 513.277344 C 550.363281 527.519531 558.417969 542 566.460938 555.832031 C 558.980469 569.417969 551.984375 582.125 545.828125 593.347656 C 531.53125 592.617188 517.84375 591.523438 505.320312 590.089844 M 505.320312 433.648438 C 517.84375 432.214844 531.53125 431.125 545.828125 430.394531 C 551.984375 441.617188 558.980469 454.328125 566.460938 467.910156 C 558.417969 481.75 550.363281 496.21875 542.753906 510.464844 C 527.628906 510.484375 513.285156 510.503906 500.476562 510.535156 C 494.066406 497 488.464844 483.988281 483.726562 472.007812 C 490.125 458.882812 497.4375 445.769531 505.320312 433.648438 M 571.996094 398.519531 C 585.515625 398.1875 599.195312 398.1875 612.714844 398.519531 C 620.253906 406.773438 628.367188 417.265625 636.527344 429.140625 C 630.324219 440.296875 623.296875 452.96875 615.785156 466.535156 C 600.289062 466.308594 584.4375 466.308594 568.941406 466.527344 C 561.425781 452.960938 554.394531 440.292969 548.183594 429.132812 C 556.355469 417.265625 564.464844 406.773438 571.996094 398.519531 M 679.675781 433.703125 C 687.550781 445.816406 694.835938 458.929688 701.21875 472.042969 C 696.503906 484.023438 690.921875 497.015625 684.539062 510.535156 C 671.757812 510.503906 657.433594 510.484375 642.328125 510.464844 C 634.730469 496.226562 626.675781 481.753906 618.632812 467.921875 C 626.113281 454.335938 633.082031 441.636719 639.234375 430.417969 C 653.507812 431.164062 667.175781 432.253906 679.675781 433.703125 M 688.519531 607.722656 C 686.398438 602.507812 684.101562 596.953125 681.492188 590.925781 C 689.328125 578.863281 696.574219 565.8125 702.871094 552.75 C 710.441406 551.929688 717.089844 551.003906 722.652344 549.972656 C 726.179688 537.878906 728.109375 525.097656 728.109375 511.875 C 728.109375 498.640625 726.179688 485.871094 722.652344 473.777344 C 717.089844 472.734375 710.441406 471.8125 702.871094 470.992188 C 696.574219 457.929688 689.328125 444.878906 681.492188 432.816406 C 684.101562 426.78125 686.398438 421.234375 688.519531 416.019531 C 671.917969 399.34375 650.996094 386.984375 627.597656 380.695312 C 623.753906 383.96875 618.847656 389.410156 613.011719 396.953125 C 599.449219 396.636719 585.714844 396.632812 572.148438 396.941406 C 566.226562 389.304688 561.246094 383.832031 557.363281 380.589844 C 533.851562 386.824219 512.832031 399.210938 496.148438 415.921875 C 498.273438 421.160156 500.585938 426.742188 503.207031 432.789062 C 495.367188 444.867188 488.117188 457.921875 481.808594 470.980469 C 474.199219 471.800781 467.511719 472.734375 461.917969 473.777344 C 458.398438 485.871094 456.464844 498.640625 456.464844 511.875 C 456.464844 525.097656 458.398438 537.878906 461.917969 549.972656 C 467.511719 551.003906 474.199219 551.933594 481.808594 552.761719 C 488.117188 565.824219 495.367188 578.875 503.207031 590.945312 C 500.585938 596.996094 498.273438 602.574219 496.148438 607.8125 C 512.824219 624.539062 533.84375 636.917969 557.363281 643.152344 C 561.246094 639.90625 566.226562 634.429688 572.148438 626.800781 C 585.714844 627.101562 599.449219 627.101562 613.011719 626.785156 C 618.847656 634.332031 623.761719 639.777344 627.597656 643.039062 C 651 636.753906 671.917969 624.394531 688.519531 607.722656 " fill-opacity="1" fill-rule="nonzero"/><g clip-path="url(#bb567746d8)"><path fill="#b2b1b1" d="M 592.175781 647.710938 C 592.160156 647.710938 592.15625 647.710938 592.148438 647.710938 C 592.15625 647.710938 592.160156 647.710938 592.175781 647.710938 M 592.058594 647.710938 C 592.046875 647.710938 592.03125 647.710938 592.019531 647.710938 C 592.03125 647.710938 592.050781 647.710938 592.058594 647.710938 M 591.941406 647.710938 C 591.929688 647.710938 591.917969 647.710938 591.910156 647.710938 C 591.921875 647.710938 591.929688 647.710938 591.941406 647.710938 M 591.832031 647.710938 C 591.8125 647.710938 591.800781 647.710938 591.785156 647.710938 C 591.800781 647.710938 591.820312 647.710938 591.832031 647.710938 M 591.714844 647.710938 C 591.703125 647.710938 591.691406 647.710938 591.671875 647.710938 C 591.683594 647.710938 591.703125 647.710938 591.714844 647.710938 M 591.601562 647.710938 C 591.585938 647.710938 591.574219 647.710938 591.5625 647.710938 C 591.574219 647.710938 591.585938 647.710938 591.601562 647.710938 M 591.484375 647.710938 C 591.46875 647.710938 591.464844 647.710938 591.445312 647.710938 C 591.457031 647.710938 591.46875 647.710938 591.484375 647.710938 M 591.375 647.710938 C 591.359375 647.710938 591.339844 647.707031 591.328125 647.707031 C 591.339844 647.707031 591.355469 647.710938 591.375 647.710938 M 591.25 647.707031 C 591.238281 647.707031 591.230469 647.707031 591.21875 647.707031 C 591.230469 647.707031 591.238281 647.707031 591.25 647.707031 M 591.132812 647.707031 C 591.121094 647.707031 591.117188 647.707031 591.109375 647.707031 C 591.117188 647.707031 591.121094 647.707031 591.132812 647.707031 M 591.003906 647.707031 C 591.003906 647.707031 591 647.707031 590.992188 647.707031 C 591 647.707031 591 647.707031 591.003906 647.707031 M 590.882812 647.707031 C 590.882812 647.707031 590.875 647.707031 590.882812 647.707031 M 728.109375 511.789062 C 728.109375 511.78125 728.109375 511.78125 728.109375 511.777344 L 728.109375 511.769531 C 728.109375 511.777344 728.109375 511.78125 728.109375 511.789062 M 728.109375 511.710938 C 728.109375 511.699219 728.109375 511.691406 728.109375 511.679688 C 728.109375 511.679688 728.109375 511.671875 728.109375 511.667969 C 728.109375 511.6875 728.109375 511.699219 728.109375 511.710938 M 728.109375 511.632812 C 728.109375 511.609375 728.109375 511.589844 728.109375 511.5625 C 728.109375 511.589844 728.109375 511.609375 728.109375 511.632812 M 728.109375 511.53125 C 728.109375 511.503906 728.109375 511.464844 728.109375 511.441406 C 728.109375 511.464844 728.109375 511.503906 728.109375 511.53125 M 728.109375 511.410156 C 728.109375 511.382812 728.109375 511.355469 728.109375 511.335938 C 728.109375 511.355469 728.109375 511.382812 728.109375 511.410156 M 728.109375 511.296875 C 728.109375 511.277344 728.109375 511.253906 728.109375 511.234375 C 728.109375 511.253906 728.109375 511.277344 728.109375 511.296875 M 728.109375 511.203125 C 728.109375 511.167969 728.109375 511.148438 728.109375 511.117188 C 728.109375 511.148438 728.109375 511.167969 728.109375 511.203125 M 728.109375 511.097656 C 728.109375 511.066406 728.109375 511.035156 728.109375 511 C 728.109375 511.035156 728.109375 511.066406 728.109375 511.097656 M 728.101562 510.960938 C 728.101562 510.941406 728.101562 510.925781 728.101562 510.90625 C 728.101562 510.925781 728.101562 510.941406 728.101562 510.960938 M 728.101562 510.859375 C 728.101562 510.839844 728.101562 510.820312 728.101562 510.800781 C 728.101562 510.820312 728.101562 510.839844 728.101562 510.859375 M 728.101562 510.761719 C 728.101562 510.730469 728.101562 510.699219 728.101562 510.664062 C 728.101562 510.699219 728.101562 510.730469 728.101562 510.761719 M 728.101562 510.644531 C 728.101562 510.613281 728.101562 510.59375 728.101562 510.570312 C 728.101562 510.59375 728.101562 510.621094 728.101562 510.644531 M 728.101562 510.53125 C 728.101562 510.511719 728.101562 510.484375 728.101562 510.464844 C 728.101562 510.484375 728.101562 510.503906 728.101562 510.53125 M 728.101562 510.425781 C 728.101562 510.40625 728.101562 510.382812 728.101562 510.363281 C 728.101562 510.382812 728.101562 510.402344 728.101562 510.425781 M 728.101562 510.328125 C 728.101562 510.296875 728.101562 510.265625 728.097656 510.234375 C 728.101562 510.265625 728.101562 510.296875 728.101562 510.328125 M 728.097656 510.195312 C 728.097656 510.167969 728.097656 510.15625 728.097656 510.136719 C 728.097656 510.15625 728.097656 510.175781 728.097656 510.195312 M 728.097656 510.089844 C 728.097656 510.070312 728.097656 510.050781 728.097656 510.03125 C 728.097656 510.050781 728.097656 510.070312 728.097656 510.089844 M 728.097656 509.992188 C 728.097656 509.96875 728.097656 509.949219 728.097656 509.921875 C 728.097656 509.941406 728.097656 509.96875 728.097656 509.992188 M 728.097656 509.871094 C 728.097656 509.851562 728.097656 509.820312 728.097656 509.800781 C 728.097656 509.824219 728.097656 509.84375 728.097656 509.871094 M 728.089844 509.753906 C 728.089844 509.734375 728.089844 509.722656 728.089844 509.703125 C 728.089844 509.722656 728.089844 509.734375 728.089844 509.753906 M 728.089844 509.65625 C 728.089844 509.636719 728.089844 509.617188 728.089844 509.597656 C 728.089844 509.617188 728.089844 509.636719 728.089844 509.65625 M 728.089844 509.554688 C 728.089844 509.527344 728.089844 509.488281 728.089844 509.464844 C 728.089844 509.496094 728.089844 509.527344 728.089844 509.554688 M 728.089844 509.425781 C 728.089844 509.40625 728.089844 509.386719 728.089844 509.367188 C 728.089844 509.386719 728.089844 509.40625 728.089844 509.425781 M 728.082031 509.320312 C 728.082031 509.300781 728.082031 509.289062 728.082031 509.269531 C 728.082031 509.28125 728.082031 509.300781 728.082031 509.320312 M 728.082031 509.21875 C 728.082031 509.199219 728.082031 509.1875 728.082031 509.167969 C 728.082031 509.1875 728.082031 509.199219 728.082031 509.21875 M 728.082031 509.109375 C 728.082031 509.082031 728.082031 509.0625 728.082031 509.039062 C 728.082031 509.058594 728.082031 509.082031 728.082031 509.109375 M 728.078125 508.980469 C 728.078125 508.964844 728.078125 508.953125 728.078125 508.933594 C 728.078125 508.953125 728.078125 508.964844 728.078125 508.980469 M 728.078125 508.882812 C 728.078125 508.871094 728.078125 508.855469 728.078125 508.84375 C 728.078125 508.855469 728.078125 508.871094 728.078125 508.882812 M 728.078125 508.785156 C 728.078125 508.773438 728.078125 508.765625 728.078125 508.757812 C 728.078125 508.765625 728.078125 508.777344 728.078125 508.785156 M 728.070312 508.625 C 728.070312 508.617188 728.070312 508.609375 728.070312 508.609375 C 728.070312 508.609375 728.070312 508.617188 728.070312 508.625 M 728.070312 508.539062 C 728.070312 508.527344 728.070312 508.519531 728.070312 508.515625 C 728.070312 508.519531 728.070312 508.527344 728.070312 508.539062 M 728.070312 508.441406 C 728.0625 508.4375 728.0625 508.429688 728.0625 508.421875 C 728.0625 508.429688 728.0625 508.4375 728.070312 508.441406 M 728.0625 508.199219 C 728.0625 508.183594 728.0625 508.183594 728.058594 508.179688 C 728.0625 508.183594 728.0625 508.191406 728.0625 508.199219 M 728.058594 508.105469 C 728.058594 508.101562 728.058594 508.085938 728.058594 508.082031 C 728.058594 508.09375 728.058594 508.101562 728.058594 508.105469 M 728.058594 508.015625 C 728.058594 508.011719 728.058594 508.003906 728.058594 508.003906 C 728.058594 508.003906 728.058594 508.011719 728.058594 508.015625 M 728.050781 507.769531 C 728.042969 507.765625 728.042969 507.75 728.042969 507.746094 C 728.042969 507.75 728.042969 507.765625 728.050781 507.769531 M 728.042969 507.675781 C 728.042969 507.667969 728.042969 507.667969 728.042969 507.65625 C 728.042969 507.660156 728.042969 507.667969 728.042969 507.675781 M 728.039062 507.414062 C 728.039062 507.414062 728.039062 507.414062 728.039062 507.410156 L 728.039062 507.414062 M 728.03125 507.339844 C 728.03125 507.324219 728.03125 507.332031 728.03125 507.320312 C 728.03125 507.324219 728.03125 507.332031 728.03125 507.339844 M 728.019531 506.90625 L 728.019531 506.898438 L 728.019531 506.90625 " fill-opacity="1" fill-rule="nonzero"/></g><g clip-path="url(#c49f9475c7)"><path fill="#949294" d="M 592.285156 647.710938 C 592.253906 647.710938 592.214844 647.710938 592.175781 647.710938 C 592.160156 647.710938 592.15625 647.710938 592.148438 647.710938 C 592.121094 647.710938 592.089844 647.710938 592.058594 647.710938 C 592.050781 647.710938 592.03125 647.710938 592.019531 647.710938 C 591.992188 647.710938 591.96875 647.710938 591.941406 647.710938 C 591.929688 647.710938 591.921875 647.710938 591.910156 647.710938 C 591.882812 647.710938 591.859375 647.710938 591.832031 647.710938 C 591.820312 647.710938 591.800781 647.710938 591.785156 647.710938 C 591.761719 647.710938 591.742188 647.710938 591.714844 647.710938 C 591.703125 647.710938 591.683594 647.710938 591.671875 647.710938 C 591.652344 647.710938 591.625 647.710938 591.601562 647.710938 C 591.585938 647.710938 591.574219 647.710938 591.5625 647.710938 C 591.535156 647.710938 591.507812 647.710938 591.484375 647.710938 C 591.46875 647.710938 591.457031 647.710938 591.445312 647.710938 C 591.425781 647.710938 591.394531 647.710938 591.375 647.710938 C 591.355469 647.710938 591.339844 647.707031 591.328125 647.707031 C 591.300781 647.707031 591.277344 647.707031 591.25 647.707031 C 591.238281 647.707031 591.230469 647.707031 591.21875 647.707031 C 591.191406 647.707031 591.160156 647.707031 591.132812 647.707031 C 591.121094 647.707031 591.117188 647.707031 591.109375 647.707031 C 591.070312 647.707031 591.039062 647.707031 591.003906 647.707031 C 591 647.707031 591 647.707031 590.992188 647.707031 C 590.953125 647.707031 590.921875 647.707031 590.882812 647.707031 C 590.875 647.707031 590.882812 647.707031 590.882812 647.707031 C 564.960938 647.441406 540.789062 639.90625 520.28125 627.058594 C 531.628906 634.15625 544.097656 639.628906 557.363281 643.152344 C 561.246094 639.90625 566.226562 634.429688 572.148438 626.800781 C 578.847656 626.949219 585.585938 627.027344 592.324219 627.027344 C 599.234375 627.027344 606.140625 626.949219 613.011719 626.785156 C 618.847656 634.332031 623.761719 639.777344 627.597656 643.039062 C 651 636.753906 671.917969 624.394531 688.519531 607.722656 C 686.398438 602.507812 684.101562 596.953125 681.492188 590.925781 C 689.328125 578.863281 696.574219 565.8125 702.871094 552.75 C 710.441406 551.929688 717.089844 551.003906 722.652344 549.972656 C 726.160156 537.933594 728.089844 525.222656 728.109375 512.0625 C 728.007812 586.988281 667.234375 647.710938 592.285156 647.710938 M 592.304688 625.460938 C 585.519531 625.460938 578.738281 625.382812 571.996094 625.230469 C 567.730469 620.546875 563.273438 615.152344 558.734375 609.195312 C 584.617188 605.164062 608.078125 593.820312 626.945312 577.34375 C 630.3125 583.402344 633.515625 589.179688 636.527344 594.59375 C 628.367188 606.46875 620.253906 616.964844 612.714844 625.230469 C 605.941406 625.382812 599.117188 625.460938 592.304688 625.460938 M 496.148438 607.804688 C 494.492188 606.144531 492.878906 604.441406 491.300781 602.695312 C 493.3125 603.425781 495.347656 604.109375 497.394531 604.742188 C 496.972656 605.777344 496.554688 606.796875 496.148438 607.804688 M 639.234375 593.328125 C 636.117188 587.648438 632.796875 581.59375 629.3125 575.230469 C 647.363281 558.707031 660.949219 537.359375 668.015625 513.238281 C 673.753906 513.230469 679.273438 513.21875 684.539062 513.203125 C 690.929688 526.726562 696.503906 539.71875 701.21875 551.695312 C 694.835938 564.804688 687.550781 577.917969 679.675781 590.03125 C 667.175781 591.480469 653.507812 592.578125 639.234375 593.328125 M 728.109375 512.003906 C 728.109375 511.988281 728.109375 511.976562 728.109375 511.964844 C 728.109375 511.976562 728.109375 511.988281 728.109375 512.003906 M 728.109375 511.777344 C 728.109375 511.765625 728.109375 511.75 728.109375 511.746094 C 728.109375 511.75 728.109375 511.757812 728.109375 511.769531 L 728.109375 511.777344 M 728.109375 511.679688 C 728.109375 511.667969 728.109375 511.660156 728.109375 511.648438 C 728.109375 511.652344 728.109375 511.660156 728.109375 511.667969 C 728.109375 511.671875 728.109375 511.679688 728.109375 511.679688 M 728.109375 511.632812 C 728.082031 498.492188 726.160156 485.800781 722.652344 473.777344 C 717.089844 472.734375 710.441406 471.8125 702.871094 470.992188 C 696.574219 457.929688 689.328125 444.878906 681.492188 432.816406 C 684.101562 426.78125 686.398438 421.234375 688.519531 416.019531 C 674.578125 402.019531 657.597656 391.0625 638.664062 384.183594 C 638.65625 384.175781 638.644531 384.167969 638.636719 384.15625 C 689.34375 402.570312 725.984375 450.324219 728.019531 506.898438 L 728.019531 506.90625 C 728.027344 507.015625 728.027344 507.125 728.03125 507.242188 C 728.03125 507.265625 728.03125 507.300781 728.03125 507.320312 C 728.03125 507.332031 728.03125 507.324219 728.03125 507.339844 C 728.039062 507.359375 728.039062 507.390625 728.039062 507.410156 C 728.039062 507.414062 728.039062 507.414062 728.039062 507.414062 C 728.039062 507.5 728.042969 507.578125 728.042969 507.65625 C 728.042969 507.667969 728.042969 507.667969 728.042969 507.675781 C 728.042969 507.695312 728.042969 507.726562 728.042969 507.746094 C 728.042969 507.75 728.042969 507.765625 728.050781 507.769531 C 728.050781 507.847656 728.050781 507.925781 728.058594 508.003906 C 728.058594 508.003906 728.058594 508.011719 728.058594 508.015625 C 728.058594 508.035156 728.058594 508.0625 728.058594 508.082031 C 728.058594 508.085938 728.058594 508.101562 728.058594 508.105469 C 728.058594 508.132812 728.058594 508.152344 728.058594 508.179688 C 728.0625 508.183594 728.0625 508.183594 728.0625 508.199219 C 728.0625 508.269531 728.0625 508.347656 728.0625 508.421875 C 728.0625 508.429688 728.0625 508.4375 728.070312 508.441406 C 728.070312 508.46875 728.070312 508.496094 728.070312 508.515625 C 728.070312 508.519531 728.070312 508.527344 728.070312 508.539062 C 728.070312 508.566406 728.070312 508.585938 728.070312 508.609375 C 728.070312 508.609375 728.070312 508.617188 728.070312 508.625 C 728.070312 508.667969 728.070312 508.714844 728.078125 508.757812 C 728.078125 508.765625 728.078125 508.773438 728.078125 508.785156 C 728.078125 508.804688 728.078125 508.824219 728.078125 508.84375 C 728.078125 508.855469 728.078125 508.871094 728.078125 508.882812 C 728.078125 508.902344 728.078125 508.914062 728.078125 508.933594 C 728.078125 508.953125 728.078125 508.964844 728.078125 508.980469 C 728.078125 509 728.078125 509.019531 728.082031 509.039062 C 728.082031 509.0625 728.082031 509.082031 728.082031 509.109375 C 728.082031 509.128906 728.082031 509.148438 728.082031 509.167969 C 728.082031 509.1875 728.082031 509.199219 728.082031 509.21875 C 728.082031 509.238281 728.082031 509.25 728.082031 509.269531 C 728.082031 509.289062 728.082031 509.300781 728.082031 509.320312 C 728.082031 509.335938 728.082031 509.347656 728.089844 509.367188 C 728.089844 509.386719 728.089844 509.40625 728.089844 509.425781 C 728.089844 509.4375 728.089844 509.449219 728.089844 509.464844 C 728.089844 509.488281 728.089844 509.527344 728.089844 509.554688 C 728.089844 509.574219 728.089844 509.582031 728.089844 509.597656 C 728.089844 509.617188 728.089844 509.636719 728.089844 509.65625 C 728.089844 509.671875 728.089844 509.691406 728.089844 509.703125 C 728.089844 509.722656 728.089844 509.734375 728.089844 509.753906 C 728.097656 509.765625 728.097656 509.785156 728.097656 509.800781 C 728.097656 509.820312 728.097656 509.851562 728.097656 509.871094 C 728.097656 509.890625 728.097656 509.902344 728.097656 509.921875 C 728.097656 509.949219 728.097656 509.96875 728.097656 509.992188 C 728.097656 510.007812 728.097656 510.019531 728.097656 510.03125 C 728.097656 510.050781 728.097656 510.070312 728.097656 510.089844 C 728.097656 510.101562 728.097656 510.121094 728.097656 510.136719 C 728.097656 510.15625 728.097656 510.167969 728.097656 510.195312 C 728.097656 510.207031 728.097656 510.21875 728.097656 510.234375 C 728.101562 510.265625 728.101562 510.296875 728.101562 510.328125 C 728.101562 510.335938 728.101562 510.347656 728.101562 510.363281 C 728.101562 510.382812 728.101562 510.40625 728.101562 510.425781 C 728.101562 510.4375 728.101562 510.453125 728.101562 510.464844 C 728.101562 510.484375 728.101562 510.511719 728.101562 510.53125 C 728.101562 510.542969 728.101562 510.554688 728.101562 510.570312 C 728.101562 510.59375 728.101562 510.613281 728.101562 510.644531 C 728.101562 510.652344 728.101562 510.660156 728.101562 510.664062 C 728.101562 510.699219 728.101562 510.730469 728.101562 510.761719 C 728.101562 510.773438 728.101562 510.789062 728.101562 510.800781 C 728.101562 510.820312 728.101562 510.839844 728.101562 510.859375 C 728.101562 510.878906 728.101562 510.890625 728.101562 510.90625 C 728.101562 510.925781 728.101562 510.941406 728.101562 510.960938 C 728.101562 510.976562 728.109375 510.988281 728.109375 511 C 728.109375 511.035156 728.109375 511.066406 728.109375 511.097656 C 728.109375 511.105469 728.109375 511.109375 728.109375 511.117188 C 728.109375 511.148438 728.109375 511.167969 728.109375 511.203125 C 728.109375 511.207031 728.109375 511.222656 728.109375 511.234375 C 728.109375 511.253906 728.109375 511.277344 728.109375 511.296875 C 728.109375 511.3125 728.109375 511.324219 728.109375 511.335938 C 728.109375 511.355469 728.109375 511.382812 728.109375 511.410156 C 728.109375 511.414062 728.109375 511.429688 728.109375 511.441406 C 728.109375 511.464844 728.109375 511.503906 728.109375 511.53125 C 728.109375 511.539062 728.109375 511.558594 728.109375 511.5625 C 728.109375 511.589844 728.109375 511.609375 728.109375 511.632812 M 684.539062 510.535156 C 679.507812 510.523438 674.242188 510.511719 668.785156 510.503906 C 671.847656 499.179688 673.472656 487.273438 673.472656 474.984375 C 673.472656 460.09375 671.085938 445.761719 666.652344 432.359375 C 671.109375 432.765625 675.464844 433.210938 679.675781 433.703125 C 687.550781 445.816406 694.835938 458.929688 701.21875 472.042969 C 696.503906 484.023438 690.921875 497.015625 684.539062 510.535156 " fill-opacity="1" fill-rule="nonzero"/></g><path fill="#0f0c0d" d="M 557.363281 643.152344 C 544.097656 639.628906 531.628906 634.15625 520.28125 627.058594 C 511.515625 621.558594 503.421875 615.09375 496.148438 607.804688 C 496.554688 606.796875 496.972656 605.777344 497.394531 604.742188 C 510.117188 608.691406 523.640625 610.824219 537.664062 610.824219 C 544.824219 610.824219 551.867188 610.265625 558.734375 609.195312 C 563.273438 615.152344 567.730469 620.546875 571.996094 625.230469 C 578.738281 625.382812 585.519531 625.460938 592.304688 625.460938 C 599.117188 625.460938 605.941406 625.382812 612.714844 625.230469 C 620.253906 616.964844 628.367188 606.46875 636.527344 594.59375 C 633.515625 589.179688 630.3125 583.402344 626.945312 577.34375 C 627.746094 576.648438 628.527344 575.949219 629.3125 575.230469 C 632.796875 581.59375 636.117188 587.648438 639.234375 593.328125 C 653.507812 592.578125 667.175781 591.480469 679.675781 590.03125 C 687.550781 577.917969 694.835938 564.804688 701.21875 551.695312 C 696.503906 539.71875 690.929688 526.726562 684.539062 513.203125 C 679.273438 513.21875 673.753906 513.230469 668.015625 513.238281 C 668.28125 512.332031 668.539062 511.421875 668.785156 510.503906 C 674.242188 510.511719 679.507812 510.523438 684.539062 510.535156 C 690.921875 497.015625 696.503906 484.023438 701.21875 472.042969 C 694.835938 458.929688 687.550781 445.816406 679.675781 433.703125 C 675.464844 433.210938 671.109375 432.765625 666.652344 432.359375 C 660.699219 414.332031 651.074219 397.980469 638.664062 384.183594 C 657.597656 391.0625 674.578125 402.019531 688.519531 416.019531 C 686.398438 421.234375 684.101562 426.78125 681.492188 432.816406 C 689.328125 444.878906 696.574219 457.929688 702.871094 470.992188 C 710.441406 471.8125 717.089844 472.734375 722.652344 473.777344 C 726.160156 485.800781 728.082031 498.492188 728.109375 511.632812 C 728.109375 511.640625 728.109375 511.640625 728.109375 511.648438 C 728.109375 511.660156 728.109375 511.667969 728.109375 511.679688 C 728.109375 511.691406 728.109375 511.699219 728.109375 511.710938 C 728.109375 511.726562 728.109375 511.730469 728.109375 511.746094 C 728.109375 511.75 728.109375 511.765625 728.109375 511.777344 C 728.109375 511.78125 728.109375 511.78125 728.109375 511.789062 C 728.109375 511.816406 728.109375 511.847656 728.109375 511.875 C 728.109375 511.898438 728.109375 511.933594 728.109375 511.964844 C 728.109375 511.976562 728.109375 511.988281 728.109375 512.003906 C 728.109375 512.023438 728.109375 512.042969 728.109375 512.0625 C 728.089844 525.222656 726.160156 537.933594 722.652344 549.972656 C 717.089844 551.003906 710.441406 551.929688 702.871094 552.75 C 696.574219 565.8125 689.328125 578.863281 681.492188 590.925781 C 684.101562 596.953125 686.398438 602.507812 688.519531 607.722656 C 671.917969 624.394531 651 636.753906 627.597656 643.039062 C 623.761719 639.777344 618.847656 634.332031 613.011719 626.785156 C 606.140625 626.949219 599.234375 627.027344 592.324219 627.027344 C 585.585938 627.027344 578.847656 626.949219 572.148438 626.800781 C 566.226562 634.429688 561.246094 639.90625 557.363281 643.152344 " fill-opacity="1" fill-rule="nonzero"/><path fill="#bedf20" d="M 321.824219 510.363281 C 349.746094 531.902344 354.921875 572.007812 333.378906 599.9375 C 311.84375 627.867188 271.75 633.039062 243.824219 611.496094 C 215.894531 589.957031 210.71875 549.847656 232.261719 521.925781 C 253.796875 493.992188 293.890625 488.808594 321.824219 510.363281 " fill-opacity="1" fill-rule="nonzero"/><path fill="#d0d0d2" d="M 270.171875 498.34375 C 274.203125 499.835938 278.074219 501.957031 281.644531 504.707031 C 300.757812 519.457031 304.316406 547.011719 289.570312 566.136719 C 274.824219 585.257812 247.273438 588.8125 228.152344 574.0625 C 224.582031 571.308594 221.550781 568.105469 219.089844 564.589844 C 219.53125 572.3125 221.363281 579.929688 224.542969 587.042969 C 248.90625 602.597656 281.65625 597.230469 299.640625 573.902344 C 317.628906 550.578125 314.496094 517.539062 293.273438 497.914062 C 285.589844 496.652344 277.75 496.8125 270.171875 498.34375 " fill-opacity="1" fill-rule="nonzero"/><path fill="#b2b1b1" d="M 282.78125 624.796875 C 282.773438 624.796875 282.773438 624.796875 282.773438 624.796875 C 282.773438 624.796875 282.773438 624.796875 282.78125 624.796875 M 282.78125 624.796875 C 301.726562 624.796875 320.464844 616.398438 333.042969 600.371094 C 320.464844 616.398438 301.734375 624.796875 282.78125 624.796875 M 244.277344 611.84375 C 244.230469 611.804688 244.171875 611.765625 244.121094 611.726562 C 244.171875 611.765625 244.230469 611.804688 244.277344 611.84375 M 243.960938 611.597656 C 243.90625 611.566406 243.867188 611.527344 243.824219 611.496094 C 243.578125 611.308594 243.339844 611.121094 243.101562 610.933594 C 243.339844 611.121094 243.578125 611.308594 243.824219 611.496094 C 243.867188 611.527344 243.90625 611.566406 243.960938 611.597656 M 243.082031 610.914062 C 243.066406 610.90625 243.0625 610.898438 243.046875 610.894531 C 243.0625 610.898438 243.066406 610.90625 243.082031 610.914062 M 333.054688 600.351562 C 333.128906 600.265625 333.191406 600.175781 333.261719 600.089844 C 333.191406 600.175781 333.128906 600.265625 333.054688 600.351562 M 333.332031 599.996094 C 333.347656 599.976562 333.367188 599.957031 333.378906 599.9375 C 334.160156 598.921875 334.902344 597.902344 335.613281 596.863281 C 334.902344 597.902344 334.160156 598.921875 333.378906 599.9375 C 333.367188 599.957031 333.347656 599.976562 333.332031 599.996094 M 335.621094 596.847656 C 335.640625 596.824219 335.652344 596.804688 335.671875 596.777344 C 335.652344 596.796875 335.632812 596.824219 335.621094 596.847656 M 335.703125 596.71875 C 335.710938 596.710938 335.71875 596.699219 335.730469 596.695312 C 335.71875 596.699219 335.710938 596.710938 335.703125 596.71875 M 335.777344 596.617188 C 335.78125 596.617188 335.78125 596.609375 335.78125 596.609375 C 335.78125 596.609375 335.78125 596.617188 335.777344 596.617188 " fill-opacity="1" fill-rule="nonzero"/><path fill="#839a15" d="M 282.78125 624.796875 C 282.773438 624.796875 282.773438 624.796875 282.773438 624.796875 C 269.339844 624.796875 255.792969 620.570312 244.277344 611.84375 C 244.230469 611.804688 244.171875 611.765625 244.121094 611.726562 C 244.070312 611.683594 244.011719 611.644531 243.960938 611.597656 C 243.90625 611.566406 243.867188 611.527344 243.824219 611.496094 C 243.578125 611.308594 243.339844 611.121094 243.101562 610.933594 C 243.09375 610.925781 243.085938 610.917969 243.082031 610.914062 C 243.066406 610.90625 243.0625 610.898438 243.046875 610.894531 C 238.015625 606.882812 233.773438 602.261719 230.296875 597.222656 C 241.90625 606.171875 255.617188 610.507812 269.230469 610.507812 C 288.347656 610.507812 307.261719 601.953125 319.839844 585.640625 C 337.222656 563.105469 337.195312 532.632812 321.855469 510.386719 C 328.875 515.816406 334.464844 522.417969 338.539062 529.703125 L 338.539062 592.140625 C 337.6875 593.65625 336.769531 595.144531 335.78125 596.609375 C 335.78125 596.609375 335.78125 596.617188 335.777344 596.617188 C 335.761719 596.640625 335.742188 596.667969 335.730469 596.695312 C 335.71875 596.699219 335.710938 596.710938 335.703125 596.71875 C 335.691406 596.738281 335.679688 596.757812 335.671875 596.777344 C 335.652344 596.804688 335.640625 596.824219 335.621094 596.847656 C 335.621094 596.855469 335.613281 596.855469 335.613281 596.863281 C 334.902344 597.902344 334.160156 598.921875 333.378906 599.9375 C 333.367188 599.957031 333.347656 599.976562 333.332031 599.996094 C 333.308594 600.027344 333.28125 600.058594 333.261719 600.089844 C 333.191406 600.175781 333.128906 600.265625 333.054688 600.351562 C 333.054688 600.355469 333.050781 600.363281 333.042969 600.371094 C 320.464844 616.398438 301.726562 624.796875 282.78125 624.796875 " fill-opacity="1" fill-rule="nonzero"/><path fill="#d0d0d2" d="M 217.675781 506.640625 C 245.601562 528.1875 250.78125 568.292969 229.238281 596.214844 C 207.695312 624.144531 167.601562 629.324219 139.675781 607.78125 C 111.75 586.242188 106.570312 546.132812 128.113281 518.210938 C 149.648438 490.277344 189.75 485.09375 217.675781 506.640625 " fill-opacity="1" fill-rule="nonzero"/><path fill="#231f20" d="M 137.136719 604.960938 C 137.136719 604.960938 137.71875 603.488281 138.796875 600.957031 C 139.070312 600.324219 139.390625 599.632812 139.6875 598.859375 C 139.972656 598.089844 140.277344 597.253906 140.605469 596.363281 C 140.929688 595.480469 141.277344 594.542969 141.648438 593.554688 C 141.984375 592.550781 142.300781 591.480469 142.648438 590.375 C 142.984375 589.265625 143.378906 588.125 143.699219 586.925781 C 144.003906 585.71875 144.320312 584.46875 144.648438 583.191406 C 144.8125 582.550781 144.972656 581.898438 145.140625 581.246094 C 145.265625 580.582031 145.394531 579.902344 145.515625 579.222656 C 145.78125 577.867188 146.058594 576.476562 146.328125 575.070312 C 146.71875 572.226562 147.167969 569.300781 147.371094 566.296875 C 147.730469 563.304688 147.6875 560.25 147.78125 557.199219 C 147.679688 554.152344 147.726562 551.089844 147.363281 548.105469 C 147.148438 545.101562 146.703125 542.179688 146.316406 539.332031 C 146.039062 537.921875 145.769531 536.535156 145.496094 535.175781 C 145.367188 534.5 145.246094 533.820312 145.121094 533.160156 C 144.953125 532.503906 144.785156 531.855469 144.632812 531.214844 C 144.300781 529.929688 143.984375 528.691406 143.675781 527.476562 C 143.359375 526.273438 142.964844 525.136719 142.628906 524.027344 C 142.273438 522.921875 141.964844 521.847656 141.621094 520.847656 C 141.253906 519.851562 140.910156 518.910156 140.582031 518.015625 C 140.257812 517.125 139.949219 516.292969 139.671875 515.515625 C 139.371094 514.75 139.054688 514.0625 138.785156 513.4375 C 137.71875 510.910156 137.132812 509.429688 137.132812 509.429688 C 137.132812 509.429688 138.066406 510.691406 139.65625 512.964844 C 140.042969 513.539062 140.503906 514.160156 140.949219 514.863281 C 141.363281 515.59375 141.820312 516.375 142.300781 517.210938 C 142.777344 518.054688 143.289062 518.953125 143.824219 519.898438 C 144.339844 520.859375 144.773438 521.917969 145.285156 523 C 145.773438 524.089844 146.328125 525.207031 146.8125 526.410156 C 147.261719 527.617188 147.710938 528.878906 148.175781 530.167969 C 148.410156 530.816406 148.640625 531.476562 148.882812 532.140625 C 149.074219 532.820312 149.269531 533.511719 149.46875 534.199219 C 149.871094 535.589844 150.246094 537.019531 150.597656 538.476562 C 151.140625 541.4375 151.898438 544.472656 152.125 547.632812 C 152.5625 550.765625 152.59375 553.984375 152.738281 557.199219 C 152.589844 560.410156 152.5625 563.628906 152.128906 566.769531 C 151.898438 569.925781 151.148438 572.964844 150.605469 575.917969 C 150.257812 577.382812 149.871094 578.804688 149.476562 580.191406 C 149.273438 580.890625 149.082031 581.574219 148.886719 582.253906 C 148.648438 582.925781 148.417969 583.585938 148.191406 584.230469 C 147.71875 585.523438 147.265625 586.777344 146.828125 587.992188 C 146.335938 589.1875 145.78125 590.304688 145.289062 591.402344 C 144.78125 592.480469 144.347656 593.535156 143.828125 594.496094 C 143.292969 595.453125 142.777344 596.351562 142.292969 597.199219 C 141.816406 598.039062 141.363281 598.820312 140.941406 599.550781 C 140.496094 600.253906 140.042969 600.859375 139.65625 601.433594 C 138.082031 603.691406 137.136719 604.960938 137.136719 604.960938 " fill-opacity="1" fill-rule="nonzero"/><path fill="#231f20" d="M 219.851562 604.960938 C 219.851562 604.960938 218.902344 603.691406 217.328125 601.433594 C 216.945312 600.859375 216.488281 600.253906 216.042969 599.550781 C 215.628906 598.820312 215.167969 598.039062 214.691406 597.199219 C 214.207031 596.351562 213.695312 595.453125 213.160156 594.496094 C 212.636719 593.535156 212.210938 592.480469 211.695312 591.402344 C 211.203125 590.304688 210.648438 589.1875 210.164062 587.992188 C 209.722656 586.777344 209.265625 585.523438 208.800781 584.230469 C 208.566406 583.585938 208.335938 582.925781 208.101562 582.253906 C 207.910156 581.574219 207.707031 580.890625 207.515625 580.191406 C 207.113281 578.804688 206.734375 577.382812 206.378906 575.917969 C 205.839844 572.964844 205.085938 569.925781 204.851562 566.769531 C 204.421875 563.628906 204.394531 560.410156 204.246094 557.199219 C 204.394531 553.984375 204.425781 550.765625 204.859375 547.632812 C 205.085938 544.472656 205.839844 541.4375 206.382812 538.476562 C 206.738281 537.023438 207.113281 535.589844 207.515625 534.199219 C 207.714844 533.511719 207.910156 532.820312 208.101562 532.140625 C 208.339844 531.476562 208.574219 530.816406 208.804688 530.167969 C 209.273438 528.878906 209.730469 527.617188 210.167969 526.410156 C 210.652344 525.207031 211.210938 524.089844 211.699219 523 C 212.210938 521.917969 212.644531 520.859375 213.160156 519.898438 C 213.695312 518.953125 214.207031 518.054688 214.683594 517.210938 C 215.167969 516.375 215.621094 515.59375 216.035156 514.863281 C 216.480469 514.160156 216.9375 513.539062 217.328125 512.964844 C 218.910156 510.691406 219.851562 509.429688 219.851562 509.429688 C 219.851562 509.429688 219.265625 510.910156 218.199219 513.4375 C 217.925781 514.0625 217.609375 514.75 217.3125 515.515625 C 217.035156 516.292969 216.726562 517.125 216.402344 518.015625 C 216.074219 518.910156 215.730469 519.851562 215.363281 520.847656 C 215.019531 521.847656 214.710938 522.921875 214.355469 524.027344 C 214.019531 525.136719 213.625 526.273438 213.308594 527.476562 C 213 528.691406 212.683594 529.929688 212.351562 531.214844 C 212.199219 531.855469 212.03125 532.503906 211.863281 533.160156 C 211.738281 533.820312 211.617188 534.5 211.488281 535.175781 C 211.214844 536.539062 210.949219 537.921875 210.671875 539.332031 C 210.28125 542.179688 209.832031 545.101562 209.625 548.105469 C 209.257812 551.089844 209.304688 554.152344 209.207031 557.199219 C 209.296875 560.25 209.253906 563.304688 209.613281 566.296875 C 209.8125 569.300781 210.265625 572.226562 210.652344 575.070312 C 210.933594 576.476562 211.203125 577.867188 211.46875 579.222656 C 211.597656 579.902344 211.71875 580.582031 211.84375 581.246094 C 212.011719 581.898438 212.171875 582.550781 212.339844 583.191406 C 212.664062 584.46875 212.980469 585.71875 213.289062 586.925781 C 213.605469 588.125 214.007812 589.265625 214.335938 590.375 C 214.691406 591.480469 215.007812 592.550781 215.34375 593.554688 C 215.710938 594.542969 216.0625 595.480469 216.382812 596.363281 C 216.707031 597.253906 217.011719 598.089844 217.292969 598.859375 C 217.589844 599.632812 217.921875 600.324219 218.1875 600.957031 C 219.269531 603.488281 219.851562 604.960938 219.851562 604.960938 " fill-opacity="1" fill-rule="nonzero"/><path fill="#b2b1b1" d="M 178.632812 621.082031 C 178.628906 621.082031 178.628906 621.082031 178.628906 621.082031 C 178.628906 621.082031 178.628906 621.082031 178.632812 621.082031 M 178.640625 621.082031 C 197.605469 621.074219 216.371094 612.65625 228.941406 596.589844 C 216.371094 612.65625 197.605469 621.082031 178.640625 621.082031 M 139.851562 607.914062 C 139.792969 607.871094 139.734375 607.824219 139.675781 607.78125 C 139.65625 607.765625 139.632812 607.746094 139.613281 607.726562 C 139.632812 607.746094 139.65625 607.761719 139.675781 607.78125 C 139.734375 607.824219 139.792969 607.871094 139.851562 607.914062 M 229.0625 596.433594 C 229.082031 596.414062 229.097656 596.394531 229.109375 596.375 C 229.097656 596.394531 229.082031 596.414062 229.0625 596.433594 M 229.1875 596.28125 C 229.199219 596.253906 229.21875 596.234375 229.238281 596.214844 C 229.21875 596.234375 229.199219 596.253906 229.1875 596.28125 " fill-opacity="1" fill-rule="nonzero"/><path fill="#949294" d="M 178.632812 621.082031 C 178.628906 621.082031 178.628906 621.082031 178.628906 621.082031 C 165.082031 621.082031 151.433594 616.785156 139.851562 607.914062 C 139.792969 607.871094 139.734375 607.824219 139.675781 607.78125 C 139.65625 607.761719 139.632812 607.746094 139.613281 607.726562 C 134.269531 603.601562 129.785156 598.78125 126.148438 593.507812 C 130.128906 596.578125 134.359375 599.101562 138.738281 601.09375 C 137.699219 603.546875 137.136719 604.960938 137.136719 604.960938 C 137.136719 604.960938 138.066406 603.714844 139.625 601.488281 C 147.777344 605.046875 156.453125 606.792969 165.089844 606.792969 C 181.605469 606.792969 197.96875 600.40625 210.226562 588.152344 C 210.699219 589.285156 211.230469 590.355469 211.695312 591.402344 C 212.210938 592.480469 212.636719 593.535156 213.160156 594.496094 C 213.695312 595.453125 214.207031 596.351562 214.691406 597.199219 C 215.167969 598.039062 215.628906 598.820312 216.042969 599.550781 C 216.488281 600.253906 216.945312 600.859375 217.328125 601.433594 C 218.902344 603.691406 219.851562 604.960938 219.851562 604.960938 C 219.851562 604.960938 219.269531 603.488281 218.1875 600.957031 C 217.921875 600.324219 217.589844 599.632812 217.292969 598.859375 C 217.011719 598.089844 216.707031 597.253906 216.382812 596.363281 C 216.0625 595.480469 215.710938 594.542969 215.34375 593.554688 C 215.007812 592.550781 214.691406 591.480469 214.335938 590.375 C 214.007812 589.265625 213.605469 588.125 213.289062 586.925781 C 213.152344 586.402344 213.019531 585.867188 212.882812 585.328125 C 213.851562 584.238281 214.789062 583.101562 215.691406 581.929688 C 232.285156 560.417969 233.023438 531.679688 219.714844 509.765625 C 219.800781 509.546875 219.851562 509.429688 219.851562 509.429688 C 219.851562 509.429688 219.789062 509.515625 219.664062 509.683594 C 219.046875 508.664062 218.390625 507.660156 217.714844 506.671875 C 245.605469 528.21875 250.761719 568.304688 229.238281 596.214844 C 229.21875 596.234375 229.199219 596.253906 229.1875 596.28125 C 229.160156 596.3125 229.132812 596.34375 229.109375 596.375 C 229.097656 596.394531 229.082031 596.414062 229.0625 596.433594 C 229.023438 596.488281 228.984375 596.539062 228.941406 596.589844 C 216.371094 612.65625 197.605469 621.074219 178.640625 621.082031 C 178.632812 621.082031 178.632812 621.082031 178.632812 621.082031 " fill-opacity="1" fill-rule="nonzero"/><path fill="#231f20" d="M 137.136719 604.960938 C 137.136719 604.960938 137.699219 603.546875 138.738281 601.09375 C 139.035156 601.230469 139.328125 601.359375 139.625 601.488281 C 138.066406 603.714844 137.136719 604.960938 137.136719 604.960938 " fill-opacity="1" fill-rule="nonzero"/><path fill="#231f20" d="M 219.851562 604.960938 C 219.851562 604.960938 218.902344 603.691406 217.328125 601.433594 C 216.945312 600.859375 216.488281 600.253906 216.042969 599.550781 C 215.628906 598.820312 215.167969 598.039062 214.691406 597.199219 C 214.207031 596.351562 213.695312 595.453125 213.160156 594.496094 C 212.636719 593.535156 212.210938 592.480469 211.695312 591.402344 C 211.230469 590.355469 210.699219 589.285156 210.226562 588.152344 C 211.136719 587.242188 212.023438 586.304688 212.882812 585.328125 C 213.019531 585.867188 213.152344 586.402344 213.289062 586.925781 C 213.605469 588.125 214.007812 589.265625 214.335938 590.375 C 214.691406 591.480469 215.007812 592.550781 215.34375 593.554688 C 215.710938 594.542969 216.0625 595.480469 216.382812 596.363281 C 216.707031 597.253906 217.011719 598.089844 217.292969 598.859375 C 217.589844 599.632812 217.921875 600.324219 218.1875 600.957031 C 219.269531 603.488281 219.851562 604.960938 219.851562 604.960938 M 219.714844 509.765625 C 219.699219 509.734375 219.683594 509.714844 219.664062 509.683594 C 219.789062 509.515625 219.851562 509.429688 219.851562 509.429688 C 219.851562 509.429688 219.800781 509.546875 219.714844 509.765625 " fill-opacity="1" fill-rule="nonzero"/><path fill="#e6a11e" d="M 424.925781 405.871094 C 420.867188 405.871094 417.578125 402.582031 417.578125 398.519531 C 417.578125 394.46875 420.867188 391.171875 424.925781 391.171875 C 457.066406 391.171875 484.230469 380.214844 505.65625 358.597656 C 554.429688 309.394531 561.335938 218.367188 562.304688 192.066406 L 470.25 192.066406 C 466.195312 192.066406 462.90625 188.777344 462.90625 184.726562 C 462.90625 180.671875 466.195312 177.382812 470.25 177.382812 L 569.804688 177.382812 C 573.835938 177.382812 577.109375 180.625 577.144531 184.664062 C 577.195312 189.617188 577.5625 306.875 516.121094 368.914062 C 491.824219 393.425781 461.140625 405.871094 424.925781 405.871094 " fill-opacity="1" fill-rule="nonzero"/><path fill="#e6a11e" d="M 375.84375 405.871094 C 379.902344 405.871094 383.1875 402.582031 383.1875 398.519531 C 383.1875 394.46875 379.902344 391.171875 375.84375 391.171875 C 343.703125 391.171875 316.539062 380.214844 295.113281 358.597656 C 246.335938 309.394531 239.4375 218.367188 238.460938 192.066406 L 330.523438 192.066406 C 334.574219 192.066406 337.867188 188.777344 337.867188 184.726562 C 337.867188 180.671875 334.574219 177.382812 330.523438 177.382812 L 230.960938 177.382812 C 226.933594 177.382812 223.65625 180.625 223.617188 184.664062 C 223.578125 189.617188 223.199219 306.875 284.648438 368.914062 C 308.949219 393.425781 339.625 405.871094 375.84375 405.871094 " fill-opacity="1" fill-rule="nonzero"/><path fill="#e6a11e" d="M 483.394531 308.679688 C 483.394531 307.449219 482.976562 178.597656 482.925781 177.382812 L 317.347656 177.859375 C 317.292969 179.074219 317.636719 307.933594 317.636719 309.164062 C 317.742188 345.386719 341.074219 376.101562 373.472656 387.277344 L 373.699219 462.316406 L 428.230469 462.152344 L 428.019531 387.121094 C 460.347656 375.75 483.5 344.902344 483.394531 308.679688 " fill-opacity="1" fill-rule="nonzero"/><path fill="#b2b1b1" d="M 483.175781 243.203125 C 483.113281 223.980469 483.046875 204.742188 482.996094 192.066406 L 483.363281 192.066406 C 483.375 204.675781 483.390625 223.789062 483.402344 242.917969 C 483.324219 243.007812 483.253906 243.109375 483.175781 243.203125 " fill-opacity="1" fill-rule="nonzero"/><path fill="#6e2520" d="M 482.699219 319.730469 C 483.164062 316.113281 483.402344 312.425781 483.394531 308.679688 C 483.394531 308.066406 483.285156 275.660156 483.175781 243.203125 C 483.253906 243.109375 483.324219 243.007812 483.402344 242.917969 C 483.414062 275.472656 483.421875 308.066406 483.421875 308.679688 C 483.421875 312.425781 483.175781 316.113281 482.699219 319.730469 " fill-opacity="1" fill-rule="nonzero"/><path fill="#9f6e14" d="M 483.363281 192.066406 L 482.996094 192.066406 C 482.957031 183.261719 482.929688 177.628906 482.925781 177.382812 L 483.335938 177.382812 C 483.34375 177.628906 483.355469 183.261719 483.363281 192.066406 " fill-opacity="1" fill-rule="nonzero"/><path fill="#b2b1b1" d="M 444.464844 177.492188 C 444.464844 177.433594 444.464844 177.394531 444.464844 177.382812 L 470.25 177.382812 C 469.992188 177.382812 469.734375 177.386719 469.488281 177.421875 L 444.464844 177.492188 " fill-opacity="1" fill-rule="nonzero"/><path fill="#9f6e14" d="M 469.488281 177.421875 C 469.734375 177.386719 469.992188 177.382812 470.25 177.382812 L 482.925781 177.382812 L 469.488281 177.421875 " fill-opacity="1" fill-rule="nonzero"/><path fill="#9f6e14" d="M 400.546875 391.566406 C 393.847656 391.566406 387.347656 390.757812 381.109375 389.261719 C 417.5 380.511719 444.554688 347.765625 444.554688 308.679688 C 444.554688 307.46875 444.515625 181.941406 444.464844 177.492188 L 469.488281 177.421875 L 482.925781 177.382812 C 482.929688 177.628906 482.957031 183.261719 482.996094 192.066406 C 483.046875 204.742188 483.113281 223.980469 483.175781 243.203125 C 483.285156 275.660156 483.394531 308.066406 483.394531 308.679688 C 483.402344 312.425781 483.164062 316.113281 482.699219 319.730469 C 477.292969 360.285156 442.570312 391.566406 400.546875 391.566406 " fill-opacity="1" fill-rule="nonzero"/><path fill="#f0cb81" d="M 383.898438 379.34375 C 354.871094 379.34375 331.34375 348.074219 331.34375 309.511719 C 331.34375 308.472656 331.363281 183.785156 331.410156 182.757812 L 356.117188 182.757812 C 356.085938 183.785156 356.066406 308.472656 356.066406 309.511719 C 356.066406 348.074219 368.480469 377.488281 383.898438 379.34375 " fill-opacity="1" fill-rule="nonzero"/><path fill="#606369" d="M 362.363281 487.910156 L 438.726562 487.910156 L 438.726562 457.25 L 362.363281 457.25 Z M 362.363281 487.910156 " fill-opacity="1" fill-rule="nonzero"/><path fill="#424346" d="M 417.320312 487.910156 L 438.734375 487.910156 L 438.734375 457.25 L 417.320312 457.25 Z M 417.320312 487.910156 " fill-opacity="1" fill-rule="nonzero"/><path fill="#424346" d="M 400.546875 487.910156 L 410.582031 487.910156 L 410.582031 457.25 L 400.546875 457.25 Z M 400.546875 487.910156 " fill-opacity="1" fill-rule="nonzero"/><path fill="#606369" d="M 338.539062 597.824219 L 462.550781 597.824219 L 462.550781 487.910156 L 338.539062 487.910156 Z M 338.539062 597.824219 " fill-opacity="1" fill-rule="nonzero"/><path fill="#e6a11e" d="M 359.238281 579.488281 L 441.867188 579.488281 L 441.867188 506.238281 L 359.238281 506.238281 Z M 359.238281 579.488281 " fill-opacity="1" fill-rule="nonzero"/><path fill="#424346" d="M 462.550781 597.824219 L 427.777344 597.824219 L 427.777344 579.488281 L 441.867188 579.488281 L 441.867188 506.238281 L 427.777344 506.238281 L 427.777344 487.910156 L 462.550781 487.910156 L 462.550781 597.824219 " fill-opacity="1" fill-rule="nonzero"/><path fill="#9f6e14" d="M 427.777344 579.488281 L 441.867188 579.488281 L 441.867188 506.238281 L 427.777344 506.238281 Z M 427.777344 579.488281 " fill-opacity="1" fill-rule="nonzero"/><path fill="#424346" d="M 416.847656 597.824219 L 400.546875 597.824219 L 400.546875 579.488281 L 416.847656 579.488281 L 416.847656 597.824219 M 416.847656 506.238281 L 400.546875 506.238281 L 400.546875 487.910156 L 416.847656 487.910156 L 416.847656 506.238281 " fill-opacity="1" fill-rule="nonzero"/><path fill="#9f6e14" d="M 400.546875 579.488281 L 416.847656 579.488281 L 416.847656 506.238281 L 400.546875 506.238281 Z M 400.546875 579.488281 " fill-opacity="1" fill-rule="nonzero"/><path fill="#606369" d="M 477.050781 597.824219 L 324.039062 597.824219 L 324.039062 619.175781 L 477.050781 619.175781 L 477.050781 597.824219 " fill-opacity="1" fill-rule="nonzero"/></svg>